<svg width="506" height="412" viewBox="0 0 506 412" fill="none" xmlns="http://www.w3.org/2000/svg">
<path d="M162.802 384.564C164.872 385.451 165.695 389.577 164.512 391.423C165.52 391.224 166.151 392.002 166.401 393.74C169.681 393.649 187.996 393.468 189.095 395.839C190.003 397.776 187.275 400.002 185.872 398.282C185.872 398.717 185.767 399.386 185.487 399.404C180.141 399.748 172.806 399.748 167.457 399.404L166.783 398.282L167.998 398.717L169.055 405.178L223.677 407.947C225.594 408.399 225.865 410.607 223.694 410.336L170.407 410.227C170.774 410.426 170.513 410.625 169.632 410.842C158.536 410.788 147.421 410.861 136.318 410.824C135.448 410.915 133.166 408.634 133.745 407.983C139.705 407.458 138.744 403.658 133.474 402.825L49.8501 402.716C45.5458 402.065 44.14 397.034 48.6994 395.55C61.0007 394.319 75.2579 396.762 87.315 395.423C88.8077 395.26 90.4849 394.735 91.5886 393.722C92.5583 391.894 91.5397 390.41 89.7358 389.758C87.7456 389.867 84.7259 388.093 87.0925 386.663C88.0858 386.048 108.125 384.854 110.222 385.198C111.851 385.487 113.269 385.813 112.802 387.804C109.037 387.351 106.141 387.605 104.118 388.582C104.219 388.926 104.373 389.197 104.681 389.233C106.22 389.324 116.729 389.451 117.308 389.179C117.519 389.089 117.668 388.853 117.796 388.564L115.826 387.912C112.77 388.129 111.332 386.935 114.458 385.216L149.555 385.849C154.056 385.867 158.264 384.908 162.229 384.003C162.999 383.225 163.323 383.569 162.797 384.564H162.802Z" fill="#47BFF0"/>
<path d="M164.5 391.314C164.893 388.636 167.127 387.876 171.211 389.052C180.442 388.672 188.786 388.853 197.073 392.491C202.551 391.64 208.39 391.857 214.076 392.129L260.521 394.771C264.013 393.613 267.396 393.504 270.655 394.518C273.866 392.165 276.665 392.491 276.754 397.033C278.109 398.716 276.728 403.458 276.032 405.775C275.911 407.82 275.205 408.905 273.902 409.05C274.753 409.937 273.586 410.48 272.762 410.77C238.395 410.824 203.99 410.896 169.622 410.77C169.304 409.05 170.494 409.666 171.592 409.63C188.468 409.05 205.466 410.245 222.336 409.63C223.027 409.593 224.46 410.064 224.322 409.05L167.918 406.191L166.778 398.173H185.868C186.269 398.173 188.023 397.232 188.421 396.744C188.457 394.554 168.211 394.735 165.996 394.662C165.079 394.337 164.855 392.382 164.5 391.296V391.314Z" fill="#2AB1EE"/>
<path d="M440.196 377.071C440.574 377.052 440.956 377.071 441.338 377.071C444.31 382.681 440.739 388.708 434.502 389.07C410.185 388.563 386.073 388.563 362.168 389.07C358.879 390.445 350.994 388.219 352.485 394.227C348.861 395.024 350.144 389.703 353.037 388.617C347.709 388.49 342.371 388.49 337.032 388.581C336.263 389.305 335.53 389.468 334.825 389.07C333.795 389.667 332.559 388.382 333.053 387.748C318.223 387.966 303.376 388.038 288.539 387.984C287.047 387.984 285.558 387.784 284.054 387.585C282.553 387.386 281.062 387.097 279.576 386.789C277.602 386.463 280.394 377.541 280.897 377.523C333.424 377.541 385.765 377.396 437.92 377.071H440.196Z" fill="#3AB8EA"/>
<path d="M79.046 377.669C105.706 377.904 132.883 378.103 160.571 378.248C160.678 377.741 160.868 377.76 161.139 378.248C162.822 379.008 163.598 382.592 162.281 383.931C161.638 384.709 161.405 385.361 160.272 385.614C158.823 385.976 154.91 386.591 153.384 386.718C148.403 387.152 142.007 386.809 136.936 386.754C129.505 386.664 122.113 386.374 114.714 386.211L113.254 387.333C115.017 387.315 116.562 387.026 117.815 388.473C117.598 388.763 117.37 389.016 117.083 389.161C116.133 389.668 105.722 389.071 104.135 388.473C104.246 388.238 103.79 387.496 104.501 387.315C106.435 386.863 109.945 387.713 112.118 387.333C112.118 386.374 110.227 386.265 109.558 386.211C102.605 385.614 94.7398 388.039 87.6021 387.351C87.1082 389.885 88.5303 388.673 90.3052 389.487C92.1688 390.338 93.2851 392.039 91.5953 393.595C91.8341 391.966 91.2823 390.699 89.7371 390.048C88.6045 389.577 84.2713 389.161 82.7514 389.053C58.4907 387.46 32.6523 390.356 8.2218 388.908C3.37291 388.202 0.319009 384.655 0.908476 379.623C1.11564 377.85 1.93887 377.977 2.08759 377.669C27.0489 377.198 53.8336 377.307 79.0497 377.669H79.046Z" fill="#38B8E9"/>
<path d="M277.836 393.033C278.909 393.413 279.966 394.228 281.001 395.44C286.238 396.219 291.545 396.961 296.917 397.648L302.775 396.454C305.249 396.418 305.737 397.92 304.925 399.73C305.059 401.539 321.957 401.34 323.989 399.892C322.515 399.585 322.614 399.277 323.989 398.752C319.479 397.829 318.645 396.327 321.485 394.246C324.112 393.902 326.888 394.119 329.808 394.861C344.206 394.771 358.599 395.115 372.983 395.893C374.988 396.146 375.324 400.091 372.983 401.612C358.61 402.48 344.179 402.86 329.685 402.752C327.986 403.584 327.222 404.725 327.407 406.19C328.321 407.801 329.759 407.892 331.395 408.471C331.442 409.394 330.3 410.154 327.975 410.751C319.866 411.602 309.086 410.697 300.631 410.751C298.784 410.263 296.788 410.263 294.936 410.751C292.097 410.769 289.231 410.751 286.392 410.751C284.035 410.19 281.759 410.19 279.555 410.751C278.987 410.751 278.415 410.751 277.847 410.751C276.881 410.462 275.39 410.136 273.367 409.774L273.861 409.032C275.034 405.955 275.793 400.526 276.711 397.033C275.819 395.187 276.011 394.047 277.852 393.033H277.836Z" fill="#4DC1F2"/>
<path d="M334.895 389.105C335.447 388.816 335.622 387.676 337.014 387.495C340.893 386.952 344.92 387.404 348.854 387.639C351.148 387.784 354.852 386.644 356.545 389.105C353.737 388.653 349.454 391.91 352.559 394.227C356.353 397.05 368.242 394.028 373.066 395.928C373.013 395.928 372.615 396.453 372.223 396.399C367.059 395.675 359.219 395.494 353.976 395.928C349.326 396.308 350.924 396.598 346.037 395.892C340.766 395.168 333.851 396.543 327.806 395.91C326.596 395.783 322.366 393.72 321.23 396.218C320.301 398.263 323.384 397.358 324.074 398.77C323.629 399.168 323.618 399.566 324.074 399.91C323.741 401.231 322.567 401.014 321.543 401.086C318.295 401.303 308.901 401.611 306.126 401.068C303.991 400.652 304.718 397.792 303.784 397.593C302.744 397.376 299.225 398.806 297.018 398.806C294.439 398.806 293.191 397.883 291.275 397.684C286.515 397.231 279.726 398.896 277.933 393.087C276.113 392.49 276.898 389.865 278.771 389.938C297.155 390.119 315.487 390.028 333.761 389.684C333.33 388.218 333.813 388.074 334.902 389.105H334.895Z" fill="#4ABFF1"/>
<path d="M434.49 389.07C410.398 388.708 386.233 389.54 362.144 389.07C361.84 389.07 359.171 389.431 360.154 388.454C383.886 388.671 407.637 388.201 431.371 388.454C432.335 388.472 433.902 388.056 434.497 389.07H434.49Z" fill="#09A9E8"/>
<path d="M373.067 401.666C371.893 402.39 370.209 402.679 368.81 402.788C356.545 403.802 342.443 401.594 330.283 402.77H329.715L373.067 401.666Z" fill="#3AB8EA"/>
<path d="M273.853 408.996C274.718 411.602 278.275 407.982 277.859 410.697C276.147 410.697 274.42 410.697 272.706 410.697C272.424 409.72 273.795 409.141 273.853 408.996Z" fill="#4ABFF1"/>
<path d="M286.365 410.841C284.113 410.841 281.839 410.841 279.586 410.841C280.286 409.303 284.985 410.208 286.365 410.841Z" fill="#4ABFF1"/>
<path d="M331.41 408.47C331.738 408.579 332.559 408.181 332.537 408.742C331.388 410.226 329.809 410.515 328.02 410.696C328.568 409.086 330.8 410.172 331.41 408.47Z" fill="#4ABFF1"/>
<path d="M329.702 402.788C329.884 402.77 330.091 402.807 330.279 402.788C329.222 403.874 327.458 404.453 327.384 406.173C326.371 404.417 327.664 403.168 329.696 402.788H329.702Z" fill="#4ABFF1"/>
<path d="M300.629 410.842C298.751 410.842 296.86 410.823 294.98 410.842C296.234 409.683 299.487 409.719 300.629 410.842Z" fill="#4ABFF1"/>
<path d="M437.886 377.072C437.784 377.072 436.99 377.669 435.959 377.687C384.546 378.628 333.032 376.909 281.606 377.614L279.571 386.845C279.464 387.369 279.272 387.351 279.003 386.845L278.254 388.003C276.392 388.256 266.758 388.6 265.437 388.129C265.019 387.985 264.874 387.351 264.762 386.845L263.139 387.623C253.128 386.808 242.933 386.446 232.549 386.537C210.532 386.754 188.578 385.885 166.695 383.895C165.394 384.003 164.1 384.22 162.821 384.546C162.774 384.365 162.307 384.166 162.255 383.967C161.728 382.157 161.256 380.13 161.113 378.23C170.02 378.212 178.996 378.465 187.884 377.922C180.037 377.325 172.112 377.741 164.238 377.651C163.274 377.651 161.703 378.013 161.113 377.072C253.356 377.09 345.632 377.054 437.88 377.072H437.886Z" fill="#15A1E6"/>
<path d="M162.805 384.527C163.966 382.427 165.526 382.681 167.67 382.789C174.929 383.133 182.108 383.658 189.275 384.002C192.777 384.165 195.558 385.033 197.84 385.142C212.888 385.775 227.733 384.853 242.802 385.703C251.017 386.156 256.911 384.617 264.753 386.825C265.066 388.418 266.658 389.015 269.524 388.617L277.76 388.544L278.422 389.685C296.717 387.983 315.384 387.802 333.668 389.685C333.408 389.775 332.947 390.517 332.304 390.3L278.798 390.228C277.944 390.445 278.056 392.454 277.848 393.123C277.441 394.463 277.065 395.766 276.708 397.123C275.531 396.851 275.854 395.313 275.196 394.788C273.249 393.268 272.107 395.603 270.754 395.729C269.488 395.856 267.55 394.806 266.149 394.824C264.42 394.843 263.119 396.091 260.466 396.019C240.718 395.512 221.127 392.942 201.305 393.178C199.899 393.196 198.598 393.847 196.693 393.702C193.823 393.467 191.185 391.241 188.681 390.861C183.498 390.101 176.886 390.282 171.607 390.282C168.895 390.282 167.107 388.671 164.513 391.404C163.785 389.196 163.445 386.753 162.805 384.527Z" fill="#21AAE9"/>
<path d="M117.752 388.527C117.953 388.763 118.244 389.36 118.318 389.686C117.647 390.573 104.394 390.554 103.542 389.686C103.298 388.908 104.029 388.708 104.108 388.527C108.736 387.478 113.127 388.075 117.752 388.527Z" fill="#8BE1FD"/>
<path d="M334.797 389.052C334.5 389.215 333.91 389.522 333.657 389.595C315.269 389.522 296.854 389.721 278.466 389.595C276.765 389.468 277.417 386.808 279.034 386.844C279.224 386.844 279.416 386.844 279.601 386.844C297.511 387.025 315.453 386.717 333.371 386.844L334.791 389.052H334.797Z" fill="#94E3FD"/>
<path d="M324.031 398.752C324.072 398.806 324.072 399.838 324.031 399.892C323.215 400.544 310.942 400.598 308.934 400.453C303.921 400.128 303.832 398.517 308.934 398.173C310.948 398.064 323.311 398.046 324.031 398.77V398.752Z" fill="#C0EEFC"/>
<path d="M279.014 386.807L278.449 389.684C276.182 389.666 264.715 390.155 263.98 389.123C263.284 388.164 264.509 387.531 264.836 386.825C267.103 387.458 275.855 386.789 279.019 386.825L279.014 386.807Z" fill="#4ABFF1"/>
<mask id="mask0_584_2900" style="mask-type:luminance" maskUnits="userSpaceOnUse" x="111" y="0" width="224" height="382">
<path d="M334.852 0.796875H111.883V381.378H334.852V0.796875Z" fill="white"/>
</mask>
<g mask="url(#mask0_584_2900)">
<path d="M217.275 325.564L216.828 324.243C218.201 271.596 219.01 217.32 219.546 164.341L220.146 163.742C221.44 163.033 233.577 162.76 233.655 164.068C233.794 192.82 234.984 221.953 236.303 250.946C235.994 253.552 236.057 253.697 236.499 251.362L237.052 256.52C237.734 269.822 238.547 283.16 239.842 296.408C240.796 306.163 241.834 316.044 244.022 325.564C235.109 326.27 226.18 326.27 217.268 325.564H217.275Z" fill="#00765A"/>
<path d="M161.26 247.453C158.083 255.054 156.795 263.922 154.936 271.939L152.621 285.676C150.236 301.566 149.847 318.379 149.97 334.74C149.97 334.794 149.914 333.979 150.113 333.672L152.899 372.166H158.472C158.841 372.546 157.681 372.637 157.721 372.601C157.918 372.365 158.331 372.221 158.796 372.148C159.847 371.967 160.898 371.877 161.962 371.804C171.964 371.243 182.009 371.406 192.023 371.605C192.378 371.623 192.729 371.696 193.085 371.786C193.442 371.895 193.796 372.021 194.144 372.166C225.263 371.243 256.454 371.424 287.59 371.804C287.64 371.804 287.42 371.967 287.145 371.171C287.273 368.728 287.327 366.321 287.311 363.932C286.586 363.751 286.37 363.425 286.665 362.954L288.304 363.407L288.337 372.166H330.557C331.081 372.166 333.198 373.342 333.633 373.831C336.314 376.781 334.217 380.582 330.696 381.378H116.113C112.004 380.853 110.267 375.84 113.748 373.288C114.311 372.872 115.905 372.166 116.531 372.166H141.473C141.549 369.65 141.238 367.153 141.195 364.619V347.897C141.786 317.365 146.992 271.288 160.359 243.779C160.847 243.055 162.829 243.001 162.333 245.118L161.26 247.453Z" fill="#003D8C"/>
<path d="M223.129 133.052L223.813 133.539C224.095 138.16 224.124 142.789 223.903 147.439L223.409 148.119C223.373 149.06 219.098 148.725 218.852 148.483C218.759 148.392 218.709 148.26 218.671 148.119C219.228 148.452 219.539 149.203 219.613 150.358C223.925 150.276 228.276 150.316 232.521 150.792C233.563 150.904 236.366 151.29 235.951 152.577C235.562 152.788 234.352 152.808 234.294 152.87C234.079 153.092 234.428 158.149 234.279 159C233.784 159.293 233.557 159.121 233.48 158.583L233.402 154.562C229.358 153.802 225.244 153.458 221.068 153.529L220.621 153.134C221.417 152.89 221.28 157.53 221.178 157.763C221.086 157.966 220.842 158.077 220.621 158.158L220.594 158.533C219.116 158.625 219.217 159.515 219.791 160.681C225.233 160.266 230.514 160.732 235.635 162.069L236.228 162.9C235.787 163.274 234.636 163.122 234.16 163.426C233.827 163.64 234.062 164.065 233.997 164.299C233.78 166.051 233.747 167.844 233.997 169.596C233.997 173.406 233.994 177.226 233.997 181.036L234.276 185.777C234.283 188.472 234.269 191.176 234.276 193.873L234.554 197.499C234.573 202.717 234.806 207.909 234.835 213.122L235.113 215.909C235.155 223.166 235.636 230.315 235.96 237.536C236.166 242.133 236.199 246.748 236.507 251.345L236.23 253.028C235.799 243.381 235.466 233.735 234.824 224.161C234.748 211.565 234.004 199.018 233.708 186.487C233.536 179.161 233.731 171.806 233.453 164.48C233.351 164.045 230.337 163.761 229.693 163.721C228.472 163.649 220.245 163.649 220.053 164.48C219.539 183.598 219.774 202.768 219.517 221.917C219.114 252.123 218.372 282.383 217.545 312.588C217.426 316.914 217.717 321.239 217.278 325.564C212.548 326.252 207.793 326.252 203.064 325.564H202.785L206.966 297.096C207.383 298.526 207.437 298.526 207.136 297.096C208.37 283.215 209.427 269.262 210.31 255.254C211.665 228.016 212.687 200.761 213.377 173.498C213.255 171.837 213.125 163.012 213.214 163.519C213.239 163.66 213.038 163.64 212.818 163.457C212.255 163.488 210.52 163.133 210.419 162.494C210.391 162.311 210.643 159.932 210.717 159.819C211.037 159.334 212.461 159.456 212.555 159.101C212.646 158.766 212.747 153.083 212.528 152.87C212.291 152.627 210.755 153.235 210.569 151.614C210.279 149.071 212.316 149.547 212.492 148.787C212.539 148.573 212.166 146.892 212.067 146.487C210.788 141.35 205.586 135.505 202.785 130.814L202.197 128.809C202.045 127.866 201.747 123.397 203.241 124.329C205.57 127.218 208.128 129.851 210.918 132.222C211.283 128.868 212.291 125.647 213.599 122.557L214.493 121.877C214.708 121.877 214.918 121.877 215.119 121.919C217.066 122.324 222.152 129.73 223.411 132.202L223.132 133.043L223.129 133.052Z" fill="#00533F"/>
<path d="M161.065 244.702C160.854 245.046 159.323 245.625 159.587 245.354C159.632 245.154 159.318 245.173 159.176 245.209C157.322 245.806 150.989 250.946 149.148 252.466C148.498 253.009 145.865 255.669 145.514 255.814C144.841 256.104 145.118 254.185 145.066 253.751C145.013 253.335 144.926 252.068 144.543 251.923C144.107 253.371 143.633 257.081 142.884 258.203C142.435 258.873 140.018 260.52 139.243 261.262C135.536 264.773 132.095 268.537 128.934 272.555V265.732C128.934 264.646 130.002 260.864 130.409 259.669C134.362 247.978 145.087 241.372 157.079 240.739L153.237 239.707C148.795 239.074 144.299 238.82 139.801 238.802C140.172 237.789 141.046 237.155 141.749 236.431C141.793 236.214 141.482 236.232 141.337 236.286C139.455 236.884 136.906 238.856 135.077 239.236C133.063 239.653 130.515 239.617 128.359 240.033C125.603 240.558 122.924 241.481 120.293 242.422C126.852 227.98 146.969 222.984 157.912 235.725C154.552 226.477 149.998 217.465 143.146 210.334C152.104 211.51 159.802 218.026 162.296 226.731C162.518 227.509 163.209 230.224 163.209 230.839V235.454L165.768 231.183C171.284 223.401 180.13 218.749 189.819 219.546C190.501 219.6 194.414 220.378 194.698 220.65C195.161 221.12 194.595 221.12 194.289 221.211C183.893 224.342 174.836 229.753 167.387 237.662C173.9 234.821 181.045 233.825 187.642 237.065C194.306 240.34 198.78 248.575 199.435 255.796L193.841 251.797C192.078 250.457 189.473 249.625 187.751 248.394C186.26 247.326 184.883 245.281 183.412 244.087C183.33 244.865 183.775 245.806 183.976 246.602C184.063 246.928 184.3 246.964 183.694 246.874C182.274 246.675 179.735 245.354 178.192 244.847C174.344 243.616 170.342 242.494 166.272 242.422L170.539 244.702C180.607 251.38 185.335 260.99 182.015 273.116L180.209 277.297C178.407 271.342 175.268 265.895 171.626 260.918L171.286 254.692L169.96 257.968L169.341 258.312L162.506 245.77C161.919 245.046 161.841 243.345 161.914 245.046L161.489 244.973L161.065 244.702Z" fill="#FEA707"/>
<path d="M272.73 355.135L273.287 355.389V362.139C274.346 361.904 274.995 362.085 275.238 362.664C275.962 362.664 277.827 362.827 278.303 362.664C278.496 360.981 278.529 359.261 278.402 357.542C277.843 354.103 281.138 353.886 280.715 357.379C280.588 359.171 280.622 360.926 280.812 362.664C281.473 362.899 283.07 362.519 283.881 362.664C283.892 361.831 283.863 360.999 283.881 360.166C284.59 359.877 284.899 360.528 284.805 362.121L285.828 362.139V355.551L286.389 355.135C287.246 355.986 286.189 361.614 286.667 362.953C286.853 363.478 287.731 363.008 287.798 363.388C288.236 365.831 287.438 369.577 287.783 372.165C256.579 372.219 225.354 372.075 194.146 372.165C193.928 372.129 193.605 372.075 193.588 371.912C193.393 370.12 193.351 365.107 193.588 363.351L194.146 362.953C194.086 362.248 194.131 362.247 194.703 362.664C194.938 361.795 197.227 362.175 197.489 362.953H249.323C250.243 362.41 251.191 362.41 252.11 362.953C253.121 362.41 254.165 362.41 255.176 362.953C256.126 362.248 257.007 362.266 257.963 362.953C258.974 362.41 260.016 362.41 261.028 362.953C261.949 362.41 262.895 362.41 263.816 362.953C264.735 362.41 265.683 362.41 266.602 362.953C267.496 362.193 268.48 362.193 269.388 362.953C270.016 362.157 270.982 362.175 271.619 362.953C271.896 362.935 272.178 362.971 272.453 362.953C272.683 361.578 272.028 355.841 272.734 355.135H272.73Z" fill="#0050A5"/>
<path d="M223.407 330.866C224.349 330.721 225.294 330.594 226.242 330.504C227.188 330.395 228.135 330.323 229.075 330.323C241.36 330.287 253.66 330.305 265.945 330.377C267.845 330.395 269.735 330.631 271.615 330.866V339.245C271.067 339.462 270.953 339.336 270.812 338.847L270.752 335.064C269.585 335.191 268.572 335.101 267.715 334.775C267.264 335.047 266.777 335.318 266.24 335.372C263.933 335.571 260.912 335.535 258.797 334.775C258.351 335.318 257.852 335.318 257.403 334.775C255.849 335.535 254.226 335.535 252.667 334.775L248.026 334.63C247.362 335.318 245.194 335.39 244.585 334.504L245.142 334.684V359.261L244.585 359.605C244.731 360.583 241.717 360.239 241.863 359.714C242.404 359.261 242.283 358.302 242.075 357.651C241.284 354.357 241.46 350.846 241.815 347.48L241.775 339.86C241.259 338.304 241.449 336.693 241.8 335.119C237.993 335.481 234.14 335.499 230.369 334.775C229.92 335.318 229.425 335.318 228.976 334.775C225.169 335.445 221.357 335.445 217.55 334.775C217.393 335.3 217.148 335.3 216.993 334.775C212.924 334.594 208.791 334.54 204.594 334.63C204.576 343.064 204.532 351.371 204.456 359.587C204.078 360.727 203.608 361.198 202.645 361.813C201.315 362.646 198.998 363.08 197.487 362.393C196.588 362.013 196.644 360.058 197.487 359.605C197.554 359.044 197.831 359.062 198.044 359.605C198.435 359.062 198.585 358.158 198.498 356.909V352.656C198.292 352.565 198.129 352.457 198.129 352.366C198.08 349.163 198.079 345.851 198.58 342.72C198.158 342.539 198.131 342.34 198.524 342.123C198.261 339.806 198.193 337.472 198.317 335.101L198.878 334.775C198.853 334.992 198.777 335.318 198.621 335.336C197.34 335.408 189.676 335.571 189.271 335.336C189 334.666 188.65 334.648 188.415 335.336H179.427L179.092 334.775C179.313 334.793 179.644 334.884 179.649 335.028C179.828 341.345 179.828 348.222 179.649 354.52L179.092 354.864C178.956 355.226 178.582 355.443 177.965 355.533C177.898 357.759 177.927 359.985 178.05 362.23C178.359 363.659 175.497 364.057 175.188 362.954V330.866C183.183 330.142 191.297 330.178 199.291 330.775L223.4 330.866H223.407Z" fill="#FE7B00"/>
<path d="M231.208 89.8033C231.541 90.1272 231.526 90.5833 231.166 91.1914C234.859 94.1196 237.783 97.8478 239.936 102.407C240.115 102.629 242.641 97.7573 242.592 97.3519C241.941 95.9945 242.049 95.3448 242.914 95.3865C243.127 95.8624 243.298 96.552 243.473 97.057C243.925 97.057 244.005 95.7611 244.579 96.2262C244.816 96.4198 246.299 99.7933 246.536 100.41C246.605 100.483 246.666 100.553 246.69 100.644C247.052 102.023 244.799 99.9761 244.72 99.1345C243.766 101.435 242.704 103.674 241.533 105.872C243.207 108.688 244.72 112.498 245.109 115.77C245.129 115.922 244.797 116.074 244.586 116.176C244.803 116.226 245.123 116.328 245.143 116.491C245.351 118.425 245.252 121.211 244.586 123.004C245.364 120.43 246.856 118.02 248.336 115.79C248.76 111.91 248.239 108.01 247.186 104.332C247.11 103.744 247.32 103.482 247.929 103.482C250.795 112.721 249.395 123.238 243.75 131.099C243.522 131.009 243.323 130.835 243.296 130.583C243.108 128.799 243.317 126.966 243.668 125.192L236.024 133.197C235.405 133.358 234.993 133.439 234.812 132.752C234.389 129.356 233.667 125.952 232.082 122.914L223.772 133.146L223.128 133.056C222.795 131.769 220.777 128.962 219.898 127.777C218.311 125.639 216.551 123.592 214.488 121.889C213.956 121.737 213.958 121.495 214.488 121.332L214.495 120.097L222.176 105.031C220.064 101.748 217.714 98.5681 215.179 95.5982C213.502 97.2813 212.009 99.1544 210.703 101.241H210.028C209.578 101.525 209.089 102.153 208.563 103.136C207.908 103.836 206.933 102.285 207.799 101.799C208.319 98.8613 210.77 96.0742 212.818 93.9169C213.739 92.945 215.503 91.3542 216.717 91.2022C216.641 90.9379 216.734 90.8475 216.996 90.9181C218.507 90.8366 217.258 92.2862 216.542 92.8943L223.406 101.82C225.794 98.9934 228.092 95.9837 230.309 92.8129L230.016 92.346C228.369 90.9289 228.116 90.1688 229.257 90.0874C229.97 89.8956 230.623 89.7942 231.208 89.8033Z" fill="#E42A0B"/>
<path d="M187.736 359.607C186.542 359.607 186.666 357.652 187.736 357.526L187.18 357.272V339.573L187.736 339.247C187.996 338.993 188.177 338.722 188.277 338.414L188.029 335.247C190.075 333.51 190.276 337.726 189.131 338.686C189.581 343.88 189.769 349.092 189.688 354.322C191.77 354.159 191.881 354.359 192.23 356.223C192.364 356.947 192.411 359.517 191.64 359.607C192.293 360.53 192.393 361.634 191.973 362.666C192.711 362.177 193.505 362.34 194.15 362.955V372.167C182.141 372.203 169.639 371.461 157.801 372.746C156.723 372.873 155.015 372.782 153.877 372.728C153.536 372.71 152.84 372.945 152.907 372.457C154.067 372.239 157.805 372.855 158.479 372.167C159.153 371.497 158.492 370.14 158.467 369.253C158.429 367.823 158.253 364.91 158.487 363.661C158.756 362.231 160.428 362.81 160.428 362.684V355.282C160.428 354.684 162.938 354.684 162.938 355.282V362.684H166.002V355.282C166.002 354.684 168.789 354.684 168.789 355.282V362.684H171.857C171.635 362.412 171.857 362.159 171.857 361.978V354.865C172.541 354.956 174.074 354.558 174.327 355.336C174.768 356.675 173.851 362.177 174.636 362.829C174.783 362.973 175.02 362.937 175.203 362.955C175.876 363.064 176.726 362.883 177.434 362.955C177.705 362.702 177.113 356.386 177.47 355.336C177.671 354.739 178.581 354.811 179.104 354.865C179.357 354.178 179.806 354.214 180.348 354.612C181.012 355.119 181.19 359.155 180.218 359.607C180.846 360.44 180.848 361.417 180.755 362.394C182.545 362.865 183.203 362.032 182.729 359.915L183.283 359.607C183.069 359.589 182.756 359.553 182.726 359.39C182.617 358.829 182.633 355.463 182.823 355.101C183.35 354.069 185.713 353.906 186.366 354.829C186.69 355.3 187.026 359.462 186.071 359.607C186.428 359.987 186.5 360.657 186.286 361.634C186.082 362.702 188.62 362.81 188.637 361.851C188.658 360.566 188.657 360.349 187.743 359.607H187.736Z" fill="#003178"/>
<path d="M217.272 325.563C226.185 325.563 235.113 325.563 244.026 325.563C254.571 325.581 265.122 325.581 275.67 325.563C275.955 325.491 276.631 325.745 276.631 325.98V330.45C276.631 331.12 272.381 330.866 271.616 330.866C255.567 331.138 239.456 330.866 223.404 330.866L198.475 330.776C197.963 330.486 198.113 330.088 198.6 329.762C198.099 328.151 198.124 326.848 198.678 325.853C200.171 325.962 201.631 325.871 203.064 325.563C207.795 325.563 212.544 325.563 217.276 325.563H217.272Z" fill="#0053AA"/>
<path d="M223.128 133.054L232.185 121.898C234.098 125.252 234.992 129.203 235.393 133.054L244.451 123.56C244.259 125.192 243.921 126.854 243.77 128.484C243.691 129.377 244.089 129.932 243.754 131.098C243.166 133.145 239.765 137.036 238.513 139.102C237.099 141.432 234.485 146.134 234.814 148.817C234.905 149.578 236.218 149.547 236.461 150.256C236.703 150.966 236.672 152.202 235.951 152.587C234.87 151.523 232.558 151.36 231.071 151.188C227.074 150.732 222.971 150.986 218.954 150.906L218.672 148.119H223.41C222.895 143.67 224.221 137.238 223.132 133.054H223.128Z" fill="#00765A"/>
<path d="M224.797 44.3233L225.618 70.3807C226.61 71.2421 229.631 70.3717 230.236 71.3833C230.882 72.4891 229.968 81.1817 230.398 81.6884C232.617 82.0123 234.167 82.6603 235.11 84.7886C235.329 84.8393 235.629 84.9804 235.6 85.1524C235.539 85.4872 232.521 89.114 232.029 89.5502L231.207 89.8036L229.953 90.9183C229.631 90.7156 229.483 90.3609 229.257 90.0877C227.373 88.6995 225.745 86.9151 224.37 84.7379L223.241 83.634L217.65 91.0088L216.995 90.9274C216.908 91.0197 216.805 91.1102 216.717 91.2007C215.944 92.0115 214.164 89.6714 214.764 88.9728C214.135 87.6245 213.901 83.8565 214.209 82.3978L214.764 81.9924C216.181 81.4151 216.632 81.759 216.49 79.9546L216.717 79.7627C217.212 79.9654 217.294 80.3817 217.346 80.8468L220.854 80.635L220.916 71.5264C220.766 71.1318 220.851 70.806 221.173 70.5527C221.175 65.8019 221.623 60.939 221.741 56.1973C221.839 52.2357 221.547 48.274 222.009 44.3341C222.836 43.5631 223.974 43.5631 224.795 44.3341L224.797 44.3233Z" fill="#84D0FE"/>
<path d="M203.342 97.0587L203.937 96.9266L206.658 102.468C207.637 102.448 208.111 103.056 208.08 104.312L208.307 105.011C207.362 106.267 207.549 107.706 208.864 109.347C211.051 112.853 212.991 116.471 214.683 120.208L214.491 121.334C214.509 121.515 214.476 121.708 214.491 121.891C212.949 125.425 211.665 129.165 211.422 133.056C210.999 133.166 210.959 132.943 210.722 132.78C209.873 132.194 207.431 129.753 206.539 128.871C205.117 127.472 203.697 126.126 202.644 124.403L202.783 130.826C197.688 122.275 195.669 114.19 198.603 104.312C199.208 103.997 199.472 104.282 199.436 104.94C197.894 111.009 197.151 116.156 201.446 121.12C201.283 115.882 202.969 110.735 205.32 106.135C204.042 103.634 202.799 101.1 201.596 98.5464L201.668 97.6143C201.871 97.2505 202.075 96.6424 202.227 96.2261C202.287 96.1863 203.25 96.9465 203.342 97.0587Z" fill="#C91203"/>
<path d="M328.468 105.709C324.142 110.451 320.619 115.82 317.61 121.483C317.501 122.091 317.699 121.807 318.006 121.899C318.806 122.142 319.595 122.283 320.382 122.587C320.838 122.77 321.838 123.135 322.057 123.561C320.764 123.651 319.358 123.418 318.084 123.631C316.651 123.874 315.113 125.079 313.521 125.211C310.156 125.496 308.223 122.649 305.061 122.446L308.96 120.075C305.694 116.58 301.987 113.52 297.816 111.149C301.8 110.966 306.278 112.203 309.703 114.311C310.923 115.06 311.741 116.103 312.859 116.589C315.79 110.673 321.941 106.641 328.468 105.709Z" fill="#2096ED"/>
<path d="M202.78 325.563C202.872 325.563 202.967 325.563 203.059 325.563C201.91 326.486 200.244 326.034 198.876 326.125C198.489 326.505 199.247 329.654 199.18 330.142C199.138 330.468 198.476 330.124 198.601 330.577L223.401 330.866C207.345 330.866 191.237 331.12 175.188 330.866C174.4 330.866 169.895 331.12 169.895 330.45V325.98C169.895 325.745 170.568 325.491 170.855 325.563C181.494 325.581 192.142 325.581 202.78 325.563Z" fill="#004597"/>
<path d="M234.271 158.999C234.676 159.364 236.011 159.373 236.362 160.114C236.619 160.651 236.683 162.515 236.223 162.899C230.915 160.66 224.635 161.37 218.941 161.229C219.022 160.731 218.832 158.269 218.941 158.157C219.031 158.067 220.269 158.219 220.616 158.157V153.142C222.87 153.235 225.19 153.001 227.443 153.142C228.266 153.193 233.388 153.863 233.719 154.105C234.504 154.704 233.475 158.28 234.271 158.999Z" fill="#00765A"/>
<path d="M235.106 84.7772C235.204 84.6758 235.796 84.4333 235.912 84.5238C238.542 87.9388 241.124 91.4336 242.91 95.3844C242.26 96.2767 243.451 96.682 243.073 97.9073C242.852 98.6167 240.878 102.01 240.339 102.993C240.254 103.145 240.015 103.612 239.847 103.48C238.535 100.754 236.695 97.9073 234.817 95.5364C233.652 94.0687 232.174 92.0417 230.37 91.4734C230.288 91.363 230.999 90.1469 231.206 89.803C232.186 88.1416 233.491 86.8946 234.846 85.4757C235.083 85.2332 235.059 84.8278 235.106 84.7772Z" fill="#F64413"/>
<path d="M201.663 97.6133C203.424 100.237 204.249 103.378 205.832 106.125C203.362 111.504 201.251 117.259 202.217 123.287C201.629 122.891 201.255 122.031 200.884 121.412C200.307 120.46 197.991 116.589 197.821 115.831C197.209 113.125 198.117 108.423 198.694 105.658C198.779 105.252 199.129 104.585 198.6 104.311C199.339 101.828 200.419 99.843 201.663 97.6133Z" fill="#DE2700"/>
<path d="M247.928 103.482C247.36 104.363 248.209 105.751 248.402 106.774C249.039 110.147 249.258 113.45 248.761 116.874L248.223 116.601C247.226 118.81 245.998 121.089 244.583 123.015V116.175C244.583 115.294 243.544 111.617 243.199 110.583C242.649 108.942 241.8 107.422 241.008 105.903C242.086 103.096 243.881 100.573 244.583 97.625L246.278 100.685C246.392 100.644 246.506 100.412 246.532 100.412C246.95 100.483 247.769 102.975 247.925 103.482H247.928Z" fill="#F64313"/>
<path d="M267.717 334.776C267.753 334.776 268.032 334.504 268.392 334.486C269.365 334.432 270.366 334.541 271.339 334.504C271.403 335.844 271.251 337.219 271.325 338.576C271.345 338.92 271.613 339.21 271.614 339.246C271.96 347.064 271.359 355.118 271.614 362.954C270.874 362.991 270.127 362.936 269.385 362.954L268.786 362.719C268.935 360.258 268.926 357.833 268.765 355.444C268.229 355.462 267.88 355.281 267.714 354.865L267.156 354.611V335.12L267.714 334.776H267.717Z" fill="#FE9C00"/>
<path d="M310.347 52.6905L306.081 55.2532C305.256 55.8106 302.004 58.2738 301.711 58.9814C301.418 59.6818 303.877 59.4285 303.939 60.2284C301.836 60.2592 300.349 61.8699 298.23 61.9206C296.66 61.9712 295.203 61.231 293.629 61.3432C294.29 60.4817 295.645 59.9351 296.696 59.9442C295.449 56.8549 292.951 54.484 290.421 52.4172L285.551 49.6302C290.999 49.2972 296.698 51.2319 299.631 56.0441C300.658 55.4252 301.55 54.5854 302.64 54.037C303.177 53.7746 305.925 52.7015 306.312 52.7015H310.353L310.347 52.6905Z" fill="#1F96EE"/>
<path d="M222.009 40.694C222.164 34.1896 222.282 27.6652 222.568 21.1608C220.123 21.6168 220.123 19.5917 222.568 20.046L222.846 0.796875H223.959L224.238 20.046C226.487 19.8143 226.458 21.4051 224.238 21.1608L224.795 42.9345C224.972 43.9371 221.63 43.5517 221.793 43.0359C222.383 42.5291 222.217 41.4233 222.009 40.694Z" fill="#80CDFE"/>
<path d="M159.591 143.106C162.511 141.707 165.252 140.572 168.504 141.707L165.444 142.681C164.109 143.289 162.737 144.027 161.665 145.041C159.018 147.533 160.344 148.324 156.242 146.581C155.902 146.438 155.169 146.479 155.128 146.449C154.391 145.841 157.006 145.426 157.08 145.334C156.425 143.309 155.144 141.617 154.134 139.772L149.559 134.727C153.834 136.053 158.527 138.344 159.591 143.106Z" fill="#1E95ED"/>
<path d="M211.697 85.0613C212.657 84.8496 213.967 86.9761 213.647 87.8484C213.363 88.2628 212.847 88.1415 212.1 87.4828C208.874 90.8255 207.597 95.9327 208.073 100.481L207.796 101.798C208.38 103.755 208.444 102.953 209.236 101.708C209.321 101.565 209.862 100.654 210.025 101.241C210.275 102.376 209.189 104.037 208.073 104.312C207.096 104.524 207.761 103.4 207.246 103.034C207.061 102.902 206.56 103.268 206.437 103.186C206.155 102.984 204.023 97.8982 203.336 97.0567C204.666 93.8045 206.347 90.6138 208.404 87.767C208.726 87.3109 210.667 84.7174 210.857 84.6251C211.063 84.5238 211.595 84.9401 211.697 85.0613Z" fill="#DE2700"/>
<path d="M221.181 70.5527C221.181 70.6034 221.48 70.978 221.48 71.4956C221.481 74.7171 221.431 77.9386 221.46 81.151L216.719 81.4333C216.703 80.8777 216.741 80.3094 216.719 79.752C216.678 78.5774 216.558 71.8901 216.855 71.3834C217.322 70.5925 220.202 70.8459 221.177 70.5527H221.181Z" fill="#43B1FD"/>
<path d="M210.31 255.253C210.232 255.506 210.136 255.506 210.031 255.253C210.907 240.25 211.924 224.812 211.982 209.773L212.26 206.436C212.269 204.389 212.255 202.333 212.26 200.295L212.539 196.386C212.544 193.883 212.533 191.36 212.539 188.857L212.818 184.106C212.823 181.33 212.774 178.523 212.818 175.738C212.834 174.967 212.926 174.217 213.096 173.508C213.174 173.266 213.27 173.266 213.375 173.508C212.968 200.731 211.904 228.124 210.31 255.253Z" fill="#092916"/>
<path d="M152.619 285.675C152.733 288.625 151.785 292.516 151.506 295.574C151.168 299.285 151.131 303.031 150.656 306.723C150.373 315.718 150.162 324.658 150.109 333.653C150.1 334.92 150.145 336.168 150.109 337.435C150.1 337.67 150.223 338.431 149.829 337.978C149.783 323.446 149.789 308.913 151.224 294.452C151.54 291.249 152.163 288.046 152.338 284.824C152.803 284.752 152.602 285.349 152.615 285.675H152.619Z" fill="#04106A"/>
<path d="M275.236 362.682C274.384 362.682 273.528 362.537 272.73 362.954V355.135C273.203 354.683 274.976 354.629 275.198 355.334C275.714 356.909 274.896 360.818 275.236 362.682Z" fill="#003887"/>
<path d="M286.387 355.135V362.953C285.936 362.501 284.25 362.772 284.156 362.682C283.971 362.501 284.501 360.546 283.879 360.166C283.897 359.261 283.709 355.551 284.002 355.135C284.293 354.719 285.945 354.701 286.387 355.153V355.135Z" fill="#033886"/>
<path d="M210.305 255.252C209.834 263.287 209.546 271.359 208.91 279.395C208.412 285.675 207.571 291.937 207.238 298.217L206.961 297.113C208.168 283.177 209.212 269.224 210.026 255.252H210.305Z" fill="#062915"/>
<path d="M214.764 81.9902V88.9706C213.937 89.2349 213.347 88.6882 213.65 87.8467C212.899 86.9454 212.323 85.8415 211.699 85.0615C212.065 83.905 212.606 82.7919 213.733 82.2038C214.118 82.0011 214.536 82.0825 214.764 81.9902Z" fill="#42B2FB"/>
<path d="M222.013 40.6934C222.617 41.0282 222.121 42.7601 222.291 42.923C222.38 43.0135 224.325 42.9013 224.799 42.923C225.273 42.952 226.615 42.7402 226.735 43.3682C226.968 44.5844 225.552 44.3002 224.799 44.3201C223.882 44.3509 222.93 44.3618 222.013 44.3201C221.399 44.3002 220.059 44.5844 220.059 43.6216C220.059 42.5067 221.862 43.0751 222.014 42.9321C222.096 42.8506 222.002 41.1295 222.013 40.6934Z" fill="#4EB2FC"/>
<path d="M280.809 362.683C280.527 362.592 280.558 362.556 280.521 362.285C280.369 361.09 280.862 355.679 280.27 355.263C279.973 355.045 279.137 355.045 278.839 355.263C278.247 355.679 278.739 361.09 278.587 362.285C278.551 362.556 278.586 362.592 278.3 362.683C278.479 361.488 277.952 355.407 278.562 354.991C278.88 354.774 280.232 354.774 280.549 354.991C281.157 355.407 280.632 361.488 280.809 362.683Z" fill="#010660"/>
<path d="M141.191 364.637C141.093 359.081 141.082 353.434 141.191 347.896V364.637Z" fill="#000462"/>
<path d="M212.814 163.466C212.847 163.466 213.051 163.07 213.37 163.182C213.335 166.617 213.422 170.072 213.37 173.505H213.091C212.796 172.32 212.939 171.075 213.091 169.878C213.106 167.812 213.315 165.432 212.814 163.466Z" fill="#001504"/>
<path d="M213.098 173.51C213.082 174.32 212.825 175.323 212.819 175.739C212.986 173.864 212.463 171.676 213.098 169.883C213.089 171.088 213.12 172.304 213.098 173.51Z" fill="#00533F"/>
<path d="M233.995 169.598C233.492 168.038 233.577 165.819 233.995 164.299V169.598Z" fill="#00765A"/>
<path d="M234.271 185.787C233.753 184.438 233.994 182.554 233.99 181.045C234.508 182.382 234.267 184.277 234.271 185.787Z" fill="#00765A"/>
<path d="M212.539 188.859C212.539 187.339 212.302 185.455 212.817 184.117C212.814 185.627 213.053 187.511 212.539 188.859Z" fill="#00533F"/>
<path d="M212.261 200.296C212.263 199.06 212.024 197.44 212.539 196.385C212.536 197.621 212.776 199.242 212.261 200.296Z" fill="#00533F"/>
<path d="M234.553 197.5C234.04 196.577 234.278 195.028 234.277 193.873C234.79 194.805 234.552 196.354 234.553 197.5Z" fill="#00765A"/>
<path d="M211.975 209.773C211.977 208.723 211.74 207.266 212.254 206.436C212.248 207.489 212.489 208.94 211.975 209.773Z" fill="#00533F"/>
<path d="M235.11 215.908C234.6 215.274 234.837 214.007 234.83 213.139C235.34 213.772 235.103 215.039 235.11 215.908Z" fill="#00765A"/>
<path d="M258.798 334.775L259.355 334.974V359.28L258.798 359.606C258.494 360.529 258.402 361.524 258.519 362.574L257.962 362.954C257.034 362.954 256.093 362.954 255.174 362.954C254.629 361.85 254.629 360.71 255.174 359.606C254.3 359.497 254.418 355.715 254.698 355.118C255.138 354.195 256.715 353.833 257.126 354.864C257.218 354.629 257.312 354.629 257.405 354.864C257.499 353.018 257.586 351.19 257.667 349.326C257.864 349.543 258.105 349.598 258.195 349.344C258.427 348.729 258.308 339.68 258.143 339.191L257.962 338.684C258.324 341.381 258.349 344.476 258.297 347.299C258.416 348.168 258.304 348.838 257.962 349.29L257.747 349.616C257.564 344.802 257.448 339.951 257.405 335.047C257.162 334.975 257.164 334.884 257.405 334.775C257.87 334.775 258.331 334.775 258.798 334.775Z" fill="#0B3A83"/>
<path d="M197.486 359.605C197.496 360.51 197.406 361.524 197.486 362.392C198.052 362.465 198.027 362.736 197.486 362.953C196.485 362.953 195.428 362.7 194.699 362.682C194.153 361.668 194.153 360.619 194.699 359.605C193.729 359.117 193.876 355.968 194.375 355.117C194.793 354.429 195.361 354.104 196.186 354.176C196.293 354.846 196.999 354.918 197.484 354.556C198.048 354.574 198.207 359.28 197.486 359.605Z" fill="#012C70"/>
<path d="M251.83 354.864C252.049 354.738 252.404 354.683 252.465 354.846C252.791 355.751 253.033 359.19 252.109 359.606C252.653 360.71 252.657 361.85 252.109 362.954C251.179 362.954 250.249 362.954 249.321 362.954C248.561 361.868 248.548 360.692 249.321 359.606C248.454 357.543 248.233 352.946 251.83 354.864Z" fill="#023685"/>
<path d="M261.025 359.607C260.809 359.607 260.494 359.552 260.464 359.408C260.102 357.507 260.138 353.019 263.237 354.304C264.927 355.01 264.6 358.249 263.811 359.607C264.359 360.711 264.357 361.851 263.811 362.955C262.883 362.955 261.953 362.955 261.025 362.955C260.478 361.851 260.478 360.711 261.025 359.607Z" fill="#023986"/>
<path d="M267.713 354.865C268.239 354.829 269.147 354.739 269.345 355.336C269.88 356.91 269.028 361.055 269.384 362.955C268.458 362.973 267.523 362.955 266.596 362.955C265.748 362.611 266.31 360.313 266.596 359.607C265.75 359.589 265.833 355.933 266.059 355.354C266.405 354.449 267.202 353.852 267.713 354.865Z" fill="#023888"/>
<path d="M249.317 362.955H197.484C214.729 362.177 232.076 362.104 249.317 362.955Z" fill="#0024D2"/>
<path d="M194.704 359.606C194.704 360.637 194.704 361.669 194.704 362.682C194.662 362.682 194.385 362.972 194.146 362.954C193.312 362.954 192.471 362.972 191.635 362.954C191.626 361.85 191.649 360.71 191.635 359.606C191.825 358.737 194.436 358.755 194.7 359.606H194.704Z" fill="#F98703"/>
<path d="M255.176 359.606C255.176 360.728 255.176 361.85 255.176 362.954C254.154 362.954 253.13 362.954 252.109 362.954C252.109 361.85 252.109 360.728 252.109 359.606C252.29 358.737 254.896 358.755 255.176 359.606Z" fill="#FAA004"/>
<path d="M258.797 359.606C259.421 358.81 260.394 358.828 261.026 359.606C261.026 360.728 261.026 361.85 261.026 362.954C260.007 362.972 258.981 362.954 257.961 362.954V359.606C258.238 359.606 258.518 359.606 258.797 359.606Z" fill="#F99E05"/>
<path d="M266.599 359.607C266.601 359.77 266.877 360.168 266.892 360.584C266.914 361.254 266.64 362.231 266.599 362.955C265.671 362.973 264.739 362.955 263.812 362.955C263.812 361.851 263.812 360.729 263.812 359.607C263.961 358.738 266.353 358.774 266.599 359.607Z" fill="#F69F07"/>
<path d="M179.094 354.864V334.775H198.88L198.607 359.443C198.641 359.751 198.249 359.588 198.044 359.606C197.856 356.457 197.76 354.882 197.76 354.882C197.606 355.262 196.056 354.575 196.049 354.357L196.533 353.362C195.692 350.72 195.345 346.503 196.966 344.186C195.907 343.082 195.665 341.182 197.713 341.598C196.074 340.241 195.721 339.282 196.651 338.684C196.593 338.902 196.503 339.227 196.333 339.246C195.712 339.3 190.545 339.354 190.264 339.246L189.684 338.684C190.986 338.847 190.838 340.15 190.682 341.236C190.657 341.87 190.147 344.259 189.343 343.734L189.13 338.684C189.119 337.671 189.249 336.422 189.13 335.463C189.076 335.065 188.918 334.612 188.573 335.065C188.629 336.603 189.188 337.997 188.567 339.517L187.733 339.246V357.506C187.733 357.941 187.156 358.828 187.733 359.606C187.353 360.384 186.423 360.42 186.061 359.606C186.081 358.809 186.21 355.19 185.745 354.918C185.475 354.737 183.642 354.774 183.396 355.118C183.116 355.534 183.286 358.773 183.275 359.606C183.085 360.493 180.474 360.456 180.21 359.606C180.197 358.574 180.415 356.059 180.17 355.335C179.989 354.774 179.526 354.9 179.094 354.864Z" fill="#0F75D7"/>
<path d="M197.489 362.394C198.39 362.249 199.852 362.611 200.639 362.412C200.917 362.34 200.912 361.833 201.113 361.724C202.227 361.091 202.805 361.815 203.738 359.86C205.012 357.218 204.172 354.485 204.163 351.644C204.16 349.454 204.44 346.902 204.467 344.694C204.512 341.292 204.279 337.907 204.46 334.505C208.372 334.432 212.303 334.631 216.217 334.414C216.689 334.396 217.109 333.817 216.995 334.776C216.741 335.319 216.412 335.319 216.159 334.776C212.37 335.555 208.52 335.536 204.731 334.776L205.29 334.975C205.012 342.848 204.873 350.811 204.878 358.865C205.56 359.1 205.359 359.371 204.731 359.607C208.516 359.172 212.374 359.172 216.159 359.607C216.608 359.064 217.103 359.064 217.552 359.607C217.605 359.371 217.697 359.371 217.831 359.607C217.883 359.371 217.975 359.371 218.109 359.607C221.713 359.154 225.368 359.209 228.978 359.607C229.426 359.064 229.922 359.064 230.371 359.607C234.161 358.901 238.035 358.901 241.867 359.245C241.234 358.865 241.436 358.05 242.075 357.652C242.652 357.888 242.204 359.462 242.354 359.607C242.45 359.715 244.174 359.534 244.583 359.607V334.505C247.221 334.686 250.11 334.143 252.665 334.776C251.362 335.464 249.909 335.428 248.482 335.301C248.104 343.011 248.073 351.227 248.317 359.064L249.043 359.625C249.121 359.371 249.215 359.371 249.321 359.625C249.305 360.729 249.332 361.851 249.321 362.973C232.052 362.973 214.757 363.082 197.487 362.973C197.476 362.792 197.503 362.593 197.487 362.412L197.489 362.394Z" fill="#FD9C01"/>
<path d="M230.371 334.775C234.27 334.793 238.18 334.775 242.079 334.775C241.914 342.395 242.294 350.05 242.079 357.651C242.059 358.321 242.093 358.954 242.079 359.606C238.18 359.624 234.27 359.606 230.371 359.606L229.814 359.352V339.589L230.371 339.246C230.91 338.847 231.169 339.372 231.201 339.933C231.48 344.385 231.353 349.217 230.753 353.615C230.631 355.552 230.691 357.362 230.928 359.045C230.702 357.126 230.619 354.81 230.928 352.91C230.709 352.674 230.769 352.493 230.928 352.276C231.252 351.805 240.078 346.575 240.64 346.557C241.1 346.376 241.393 346.72 241.52 347.625C241.404 347.263 241.219 347.082 240.961 347.028V339.101L241.52 338.684C241.52 338.92 241.465 339.246 241.331 339.246C238.066 339.427 233.969 339.427 230.7 339.246L230.371 338.684C229.472 337.816 229.553 335.717 230.371 334.794V334.775Z" fill="#2299ED"/>
<path d="M189.124 338.686L189.541 343.699C189.736 341.925 190.869 340.314 189.682 338.686H196.647C196.702 338.686 196.534 339.41 196.718 339.717C196.857 339.971 198.281 341.183 198.339 341.6C198.538 343.047 196.846 341.346 196.646 342.468C196.635 342.522 197.158 343.663 197.212 343.699C197.86 344.278 197.771 342.486 198.317 342.595C198.922 344.061 197.147 344.405 196.832 345.165C196.434 346.142 196.389 350.087 196.494 351.264C196.647 352.929 197.807 353.11 196.369 354.594C198.214 355.046 196.991 353.309 198.317 352.639C198.167 354.92 198.658 357.417 198.042 359.607C197.858 359.625 197.668 359.607 197.483 359.607C197.473 358.648 197.793 355.173 197.027 354.92C193.814 353.852 194.693 357.471 194.697 359.607H191.632C191.623 358.774 191.793 355.535 191.509 355.137C191.164 354.648 189.729 354.938 189.121 354.865C189.074 349.49 189.191 344.079 189.121 338.686H189.124Z" fill="#1076D7"/>
<path d="M267.715 334.775V354.864C267.282 354.918 266.819 354.774 266.638 355.335C266.419 356.004 266.579 358.665 266.6 359.606H263.814C263.814 359.588 263.629 359.479 263.626 359.262C263.619 358.321 264.379 355.009 263.128 354.846C262.696 354.792 261.402 354.774 261.149 355.117C260.872 355.516 261.026 358.791 261.026 359.606C260.284 359.624 259.539 359.588 258.797 359.606V334.775C261.757 334.757 264.758 334.884 267.715 334.775Z" fill="#2399EC"/>
<path d="M252.664 334.775C254.238 334.775 255.827 334.793 257.403 334.775V335.047C257.643 335.898 257.642 337.056 257.403 337.852C257.358 338.522 257.168 338.992 256.833 339.246C254.206 339.173 251.608 339.191 249.042 339.3C248.988 346.141 248.988 352.91 249.042 359.606H247.926V334.775C249.502 334.775 251.09 334.793 252.668 334.775H252.664Z" fill="#1197F6"/>
<path d="M228.979 334.775C229.86 334.974 229.821 337.58 228.979 337.852L228.793 338.413L218.391 338.467V358.864C218.118 358.972 217.932 359.226 217.836 359.606C217.744 359.606 217.65 359.606 217.557 359.606L217 359.425V335.119L217.557 334.775C221.362 334.775 225.178 334.775 228.983 334.775H228.979Z" fill="#1496F4"/>
<path d="M216.991 334.775C217.178 334.775 217.362 334.775 217.548 334.775V359.606C217.084 359.606 216.62 359.606 216.155 359.606C215.415 359.515 215.448 359.262 216.155 359.063L215.598 358.791C215.584 353.163 215.593 347.534 215.623 341.906L216.155 340.911C215.301 340.802 215.339 338.865 216.155 338.684C215.234 338.467 215.309 335.155 216.155 334.775C216.434 334.775 216.713 334.775 216.991 334.775Z" fill="#1C4F9B"/>
<path d="M230.37 334.775C230.418 336.078 230.303 337.399 230.37 338.684C230.903 338.775 230.873 338.992 230.37 339.246V359.606C229.906 359.606 229.443 359.606 228.976 359.606C228.236 359.515 228.269 359.262 228.976 359.063C228.428 351.986 228.428 344.91 228.976 337.852V334.775C229.443 334.775 229.906 334.775 230.37 334.775Z" fill="#1B4A94"/>
<path d="M232.052 121.33C229.989 115.677 226.93 110.479 223.961 105.281L231.911 94.5527L240.035 106.132L232.052 121.33Z" fill="#F64313"/>
<path d="M214.487 121.332C214.375 120.259 211.952 115.922 211.288 114.636C210.293 112.69 207.525 108.607 207.08 106.824C206.852 105.901 207.635 105.112 208.079 104.311C208.648 103.299 209.379 102.224 210.029 101.241C210.622 100.349 214.53 94.7477 215.146 94.849C215.761 94.9504 222.73 104.423 222.792 105.051L214.487 121.332Z" fill="#F64313"/>
<path d="M216.996 90.9165C217.962 89.8125 222.726 83.0456 223.269 82.832L224.794 84.3722C226.301 86.2562 227.736 88.2216 229.258 90.0857C228.597 90.3192 229.324 90.8459 229.531 91.0685C229.932 91.5046 231.011 92.3353 230.882 92.9742L223.542 102.914L215.898 92.9742C215.805 92.2539 217.736 91.6675 216.992 90.9273L216.996 90.9165Z" fill="#F74413"/>
<path d="M213.653 87.846C213.95 88.2007 214.467 88.6152 214.768 88.9699C215.406 89.7101 215.81 90.6928 216.718 91.1996C215.365 92.6673 213.916 93.5089 212.548 94.9784C210.65 97.0036 209.258 99.4558 207.8 101.796C206.503 97.4795 208.417 89.6993 212.121 86.7402L213.653 87.846Z" fill="#F74413"/>
<path d="M187.734 359.605C188.197 359.642 188.667 359.587 189.13 359.605C188.986 362.012 190.01 363.171 187.026 362.972C185.568 362.881 185.685 362.012 185.754 360.565C185.78 360.076 186.062 359.66 186.062 359.605C186.615 359.642 187.18 359.587 187.734 359.605Z" fill="#ED8209"/>
<path d="M183.274 359.605C183.268 360.13 183.404 362.917 183.111 362.972H180.205C180.196 361.85 180.22 360.728 180.205 359.605H183.27H183.274Z" fill="#F98703"/>
<path d="M159.305 371.894C158.816 371.949 159.043 371.261 159.028 370.917C158.997 370.229 159.046 369.523 159.028 368.817C159.517 368.763 159.291 369.469 159.305 369.795C159.336 370.483 159.289 371.188 159.305 371.894Z" fill="#003D8C"/>
<path d="M257.401 354.864C257.308 354.864 257.214 354.864 257.122 354.864L256.565 354.556V351.353C255.052 352.239 253.494 353.145 251.897 354.049L251.828 354.864C251.363 354.665 249.751 354.827 249.46 355.425C249.118 356.13 249.337 358.628 249.319 359.605H249.04L248.461 358.646L248.481 338.684C248.774 338.394 255.497 338.865 256.72 338.72C257.334 338.63 257.06 338.177 257.401 337.852C257.544 343.516 257.652 349.199 257.401 354.864Z" fill="#3CADF6"/>
<path d="M257.123 354.865C256.534 354.919 255.447 354.611 255.21 355.335C254.973 356.041 255.172 358.629 255.172 359.606H252.105C252.105 358.846 252.275 355.064 251.827 354.865L250.434 354.032C252.822 353.236 255.006 351.517 257.119 350.123V354.865H257.123Z" fill="#269BEA"/>
<path d="M257.402 335.047C257.864 335.355 257.681 336.115 257.685 336.603C257.728 340.476 257.518 344.422 257.681 348.313C257.694 348.656 257.469 349.344 257.958 349.29V338.684L258.517 339.101C258.179 340.874 259.023 348.566 258.369 349.579C258.244 349.76 257.75 349.76 257.674 350.032C257.341 351.317 258.166 353.579 257.402 354.864V335.047Z" fill="#215BA6"/>
<path d="M228.979 337.852V359.062C225.509 359.388 222.013 359.479 218.489 359.316C218.67 359.406 218.541 359.515 218.111 359.605C218.018 359.605 217.924 359.605 217.832 359.605V337.852H228.979Z" fill="#3CADF6"/>
<path d="M216.156 334.775V338.684L215.968 339.227H205.997C205.816 342.684 205.766 346.195 205.847 349.742L205.29 350.955L205.713 351.625C205.509 353.905 205.471 356.185 205.596 358.484L215.831 358.502L216.16 359.045V359.606C212.357 359.588 208.539 359.624 204.734 359.606V334.775C208.539 334.775 212.357 334.793 216.16 334.775H216.156Z" fill="#0287EF"/>
<path d="M228.973 359.063V359.606C225.354 359.624 221.721 359.624 218.104 359.606C217.947 358.773 218.529 359.081 219.065 359.063C222.36 358.936 225.678 359.135 228.973 359.063Z" fill="#0591FB"/>
<path d="M230.374 338.686H241.521V347.626C240.971 347.662 241.526 346.83 240.828 347.065L230.929 352.911V359.064C230.441 359.118 230.665 358.431 230.651 358.087C230.406 352.133 230.861 346.142 230.671 340.188C230.654 339.681 230.374 339.283 230.374 339.247C230.365 339.066 230.381 338.867 230.374 338.686Z" fill="#3BACF6"/>
<path d="M267.439 338.686C266.503 340.206 267.927 342.83 267.129 344.097C266.391 345.255 260.83 347.843 259.357 348.73V359.064H259.078V338.686H267.439Z" fill="#3CADF6"/>
<path d="M216.154 359.064H205.003C205.184 356.421 204.643 353.472 205.286 350.956L205.713 349.816L215.533 340.73L216.154 340.93V359.064Z" fill="#3CACF6"/>
<path d="M216.157 338.686V340.93L205.289 350.956V338.686H216.157Z" fill="#269AEB"/>
</g>
<path d="M365.561 211.276C365.566 213.52 362.581 213.013 360.361 219.583C360.361 219.583 352.554 246.386 352.387 247.219C351.812 249.209 349.91 250.784 347.589 250.784L343.198 250.802C341.126 250.802 339.216 249.481 338.465 247.418L331.286 225.465L324.626 247.291C324.05 249.191 322.147 250.856 319.827 250.856L315.436 250.874C313.365 250.874 311.452 249.553 310.703 247.49L302.598 220.144C300.51 213.104 297.195 213.683 297.191 211.457C297.191 210.371 298.015 209.448 299.343 209.448L314.175 209.412C316.33 209.412 317.162 210.335 317.162 211.403C317.168 213.647 315.178 213.068 317.349 220.108L322.948 239.075L330.837 213.013C331.412 210.878 333.399 209.358 335.635 209.358H337.459C339.697 209.358 341.689 210.842 342.273 212.905L350.707 239.002L356.131 220.017C357.853 213.05 356.196 213.556 356.192 211.312C356.192 210.226 357.099 209.321 359.087 209.303L363.397 209.285C364.723 209.285 365.555 210.208 365.555 211.276H365.561Z" fill="white"/>
<path d="M434.5 207.789C431.847 207.8 428.703 208.704 427.045 210.044L427 191.801C427 190.393 425.831 189.238 424.422 189.238C420.112 189.249 418.303 194.061 412.75 194.081C411.424 194.081 410.512 194.912 410.516 196.067C410.519 198.305 412.757 197.475 412.774 204.851L412.833 228.829C410.785 232.087 407.744 237.118 403.273 240.575C400.351 242.837 396.825 244.448 392.571 244.448C391.65 244.448 390.78 244.357 389.964 244.176C386.81 243.471 384.411 241.462 382.696 238.838C375.291 227.834 409.285 235.29 405.435 220.884C403.514 213.663 394.38 207.89 385.186 207.908C372.92 207.926 364.741 217.826 364.77 230.006C364.8 242.204 375.184 252.049 387.947 252.013C388.397 252.013 388.84 251.995 389.275 251.959C395.225 251.633 399.949 249.208 403.675 246.113C407.939 242.566 410.885 238.15 412.844 235.037L412.857 239.924C412.875 247.217 410.72 246.403 410.724 248.629C410.724 249.715 411.556 250.619 412.882 250.619C415.368 250.619 419.338 247.199 424.065 249.515C427.136 250.999 430.202 251.904 433.517 251.886C446.28 251.868 456.701 243.127 456.669 229.698C456.634 216.432 446.504 207.749 434.487 207.78L434.5 207.789ZM379.87 232.63C377.445 224.504 379.157 211.908 385.207 211.89C391.672 211.872 396.262 224.45 388.061 227.725C384.418 229.137 381.354 230.223 379.87 232.63ZM433.521 247.923C430.539 247.923 427.136 246.113 427.123 240.557L427.094 228.033C427.071 218.333 416.242 230.549 413.107 234.53C419.794 224.07 426.474 211.781 433.434 211.763C439.318 211.745 441.909 219.364 441.934 229.734C441.957 240.104 439.079 247.905 433.526 247.923H433.521Z" fill="white"/>
<path d="M505.924 232.974C505.542 247.072 491.715 251.76 479.45 251.778C471.08 251.814 459.631 246.439 459.609 237.499C459.602 233.589 462.743 230.44 466.637 230.422C470.532 230.422 473.689 233.644 473.698 237.462C473.711 242.114 474.299 246.493 481.592 246.475C489.548 246.457 491.268 237.499 491.254 233.101C491.247 229.029 490.309 219.183 479.206 219.202C477.051 219.202 475.721 216.885 476.955 215.057L489.101 200.517L477.747 200.548C470.869 200.568 468.56 205.045 466.745 209.61C466.414 210.37 465.341 211.618 463.601 211.202C462.11 210.786 461.276 209.374 461.603 207.89L465.794 192.208C466.119 190.8 467.445 189.879 468.855 189.879L498.026 189.809C500.76 189.798 502.26 193.03 500.525 195.106L484.659 214.134C497.259 215.347 506.309 221.952 505.92 232.974H505.924Z" fill="white"/>
<path d="M294.238 289.531C293.08 288.717 292.166 289.459 291.752 289.857C288.447 293.621 284.721 294.526 281.571 294.798C270.766 295.721 266.084 284.826 265.955 275.397C265.879 270.021 267.269 265.153 269.836 263.162C270.393 262.728 271.001 262.438 271.656 262.312C271.888 262.257 272.129 262.221 272.373 262.221C273.422 262.221 274.309 262.547 275.034 263.18C276.712 264.646 277.527 267.777 277.54 272.41C277.549 276.157 280.459 279.378 284.602 279.36C288.495 279.342 291.636 276.193 291.629 272.374C291.613 266.094 285.629 260.122 276.815 258.62C275.452 258.384 274.027 258.258 272.539 258.258H272.369C272.27 258.258 272.17 258.258 272.074 258.258C260.053 258.439 251.924 268.266 251.953 280.355C251.966 284.898 253.411 289.115 255.887 292.608C260.062 298.508 267.151 302.381 275.212 302.345C285.405 302.326 292.599 296.264 294.745 291.775C295.32 290.689 294.739 289.857 294.244 289.531H294.238Z" fill="#1976D2"/>
<path d="M317.86 258.131C327.058 258.113 336.188 263.886 338.115 271.107C341.963 285.513 307.965 278.057 315.37 289.06C317.863 292.789 321.684 295.105 327.067 294.671C333.78 294.073 336.669 290.345 337.248 289.676C338.321 288.517 339.486 289.187 339.817 289.495C340.563 290.255 340.485 291.16 340.235 291.666C337.597 296.643 330.398 302.218 320.621 302.236C307.858 302.272 297.473 292.427 297.445 280.247C297.415 268.049 305.594 258.167 317.86 258.131ZM312.535 282.853C314.024 280.446 317.085 279.36 320.727 277.948C328.923 274.69 324.337 262.094 317.872 262.112C311.824 262.13 310.116 274.745 312.535 282.853Z" fill="#1976D2"/>
<path d="M385.157 261.026C385.163 263.524 382.758 262.365 379.71 270.003L368.268 302.127C364.895 312.171 360.694 322.776 350.417 322.813C342.131 322.831 336.317 317.781 336.305 312.316C336.296 309.167 338.861 306.669 342.011 306.669C343.916 306.669 345.49 307.484 346.656 308.968C347.736 310.47 347.906 312.279 347.989 313.112C348.246 315.845 347.504 318.831 352.145 318.831C358.362 318.813 363.305 306.524 360.305 300.57L344.982 269.93C340.987 263.053 338.418 263.632 338.414 261.388C338.414 260.32 339.321 259.415 340.647 259.415L356.144 259.361C358.215 259.361 359.377 260.031 359.38 261.352C359.384 263.596 357.81 263.017 360.976 270.039L369.143 287.938L375.479 270.021C377.944 262.383 376.704 263.542 376.701 261.298C376.701 259.741 377.94 259.307 379.266 259.307H383.162C384.486 259.307 385.154 260.212 385.154 261.026H385.157Z" fill="#1976D2"/>
<path d="M403.796 290.001L403.696 250.275C399.354 253.316 394.581 254.999 389.472 255.289H389.456L389.542 290.055C389.559 297.348 387.321 296.516 387.324 298.742C387.324 299.828 388.242 300.733 389.566 300.733L403.903 300.696C405.148 300.696 406.054 299.792 406.054 298.706C406.05 296.462 403.812 297.294 403.796 290.001Z" fill="#1976D2"/>
<path d="M432.892 257.859C445.655 257.823 456.04 267.669 456.067 279.849C456.098 292.029 445.763 301.928 433.001 301.964C420.155 302 409.771 292.155 409.742 279.975C409.713 267.777 420.046 257.878 432.892 257.859ZM424.995 282.093C427.589 291.685 433.241 298.471 437.629 297.313C442.016 296.137 443.487 287.341 440.895 277.731C438.3 268.121 432.648 261.334 428.177 262.511C423.79 263.687 422.402 272.465 424.995 282.093Z" fill="#1976D2"/>
<path d="M505.26 298.472C505.26 299.539 504.352 300.462 503.109 300.462L488.772 300.499C487.446 300.499 486.53 299.594 486.53 298.508C486.527 296.264 488.763 297.096 488.747 289.803L488.702 271.976C488.689 267.578 485.866 265.678 482.968 265.678C479.735 265.696 476.257 268.103 476.272 272.012L476.317 289.821C476.333 297.132 478.571 296.282 478.575 298.526C478.575 299.612 477.667 300.517 476.34 300.517L462.004 300.571C460.761 300.571 459.845 299.648 459.845 298.58C459.842 296.336 462.08 297.169 462.062 289.857L462.025 274.6C462.007 267.307 459.771 268.139 459.766 265.913C459.766 264.755 460.674 263.923 461.917 263.923C467.553 263.905 469.364 259.09 473.674 259.072C475.081 259.072 476.246 260.231 476.246 261.642L476.254 264.212C479.811 260.213 484.857 257.715 489.745 257.715C496.956 257.697 502.935 262.475 502.964 274.582L503.002 289.767C503.018 297.06 505.255 296.227 505.26 298.472Z" fill="#1976D2"/>
<path d="M459.889 334.215C459.988 334.215 460.075 334.233 460.149 334.251C460.224 334.269 460.287 334.305 460.332 334.396C460.377 334.468 460.403 334.595 460.403 334.776C460.403 334.921 460.377 335.047 460.327 335.12C460.278 335.192 460.216 335.228 460.137 335.247C460.059 335.283 459.97 335.283 459.873 335.283H458.069V340.531C458.069 340.64 458.058 340.748 458.036 340.839C458.013 340.929 457.962 341.002 457.879 341.056C457.795 341.092 457.66 341.128 457.47 341.128C457.278 341.128 457.15 341.092 457.072 341.038C456.989 340.984 456.938 340.911 456.918 340.821C456.896 340.748 456.889 340.64 456.889 340.531V335.301H455.056C454.966 335.301 454.879 335.283 454.796 335.265C454.712 335.247 454.651 335.192 454.606 335.12C454.56 335.047 454.535 334.921 454.535 334.758C454.535 334.595 454.56 334.468 454.606 334.396C454.651 334.323 454.716 334.269 454.796 334.251C454.879 334.233 454.966 334.215 455.056 334.215H459.898H459.889Z" fill="#1976D2"/>
<path d="M464.33 341.2C463.857 341.2 463.414 341.127 463 340.946C462.584 340.765 462.22 340.512 461.909 340.205C461.598 339.879 461.353 339.517 461.176 339.082C460.997 338.666 460.91 338.214 460.91 337.743C460.91 337.255 460.997 336.766 461.167 336.35C461.337 335.915 461.578 335.535 461.885 335.209C462.191 334.884 462.542 334.63 462.949 334.449C463.356 334.268 463.787 334.178 464.246 334.178C464.706 334.178 465.162 334.268 465.576 334.431C465.991 334.612 466.351 334.866 466.662 335.191C466.973 335.517 467.212 335.879 467.391 336.313C467.568 336.73 467.657 337.2 467.657 337.689C467.657 338.178 467.568 338.63 467.4 339.046C467.23 339.462 466.989 339.843 466.678 340.168C466.369 340.494 466.016 340.747 465.614 340.928C465.213 341.109 464.784 341.2 464.333 341.2H464.33ZM464.272 340.005C464.574 340.005 464.86 339.951 465.124 339.824C465.39 339.698 465.622 339.535 465.821 339.336C466.02 339.119 466.173 338.865 466.286 338.594C466.396 338.322 466.45 338.015 466.45 337.689C466.45 337.381 466.392 337.074 466.286 336.802C466.173 336.513 466.016 336.277 465.817 336.06C465.618 335.861 465.386 335.68 465.124 335.553C464.863 335.445 464.587 335.372 464.283 335.372C463.98 335.372 463.707 335.445 463.447 335.553C463.186 335.68 462.955 335.843 462.75 336.06C462.551 336.259 462.394 336.513 462.282 336.802C462.169 337.074 462.117 337.381 462.117 337.689C462.117 338.015 462.175 338.304 462.291 338.594C462.406 338.865 462.56 339.119 462.759 339.336C462.958 339.535 463.186 339.698 463.441 339.824C463.704 339.951 463.98 340.005 464.275 340.005H464.272Z" fill="#1976D2"/>
<path d="M471.305 341.183C470.846 341.183 470.439 341.092 470.082 340.929C469.726 340.748 469.429 340.531 469.179 340.224C468.935 339.934 468.749 339.572 468.624 339.192C468.499 338.812 468.438 338.414 468.438 337.961V334.83C468.438 334.722 468.45 334.631 468.472 334.523C468.495 334.432 468.55 334.36 468.633 334.305C468.72 334.251 468.855 334.215 469.047 334.215C469.237 334.215 469.375 334.251 469.456 334.305C469.539 334.36 469.59 334.432 469.615 334.523C469.641 334.613 469.648 334.722 469.648 334.83V337.961C469.648 338.323 469.709 338.667 469.831 338.957C469.95 339.282 470.136 339.518 470.381 339.699C470.625 339.88 470.945 339.97 471.334 339.97C471.682 339.97 471.982 339.898 472.23 339.735C472.478 339.572 472.673 339.337 472.805 339.029C472.937 338.721 473.01 338.378 473.01 337.961V334.776C473.01 334.685 473.02 334.595 473.049 334.504C473.075 334.432 473.133 334.36 473.216 334.305C473.299 334.251 473.435 334.215 473.621 334.215C473.807 334.215 473.94 334.251 474.028 334.305C474.115 334.378 474.164 334.45 474.186 334.541C474.206 334.631 474.215 334.722 474.215 334.848V337.997C474.215 338.432 474.151 338.83 474.028 339.21C473.903 339.608 473.717 339.952 473.464 340.242C473.216 340.531 472.908 340.748 472.548 340.929C472.188 341.092 471.774 341.201 471.305 341.201V341.183Z" fill="#1976D2"/>
<path d="M475.98 341.128C475.797 341.128 475.66 341.092 475.573 341.037C475.486 340.983 475.437 340.911 475.416 340.82C475.396 340.712 475.387 340.621 475.387 340.512V334.812C475.387 334.721 475.399 334.613 475.421 334.522C475.445 334.45 475.499 334.359 475.582 334.305C475.669 334.269 475.801 334.232 475.989 334.232H478.097C478.392 334.232 478.676 334.287 478.955 334.377C479.233 334.468 479.478 334.613 479.693 334.812C479.908 335.011 480.082 335.246 480.21 335.535C480.339 335.825 480.402 336.169 480.402 336.567C480.402 336.821 480.36 337.074 480.281 337.327C480.201 337.58 480.085 337.816 479.932 338.015C479.78 338.25 479.581 338.431 479.34 338.576C479.099 338.721 478.823 338.829 478.508 338.866H476.577V340.53C476.577 340.621 476.563 340.73 476.543 340.82C476.523 340.911 476.469 340.983 476.385 341.037C476.304 341.073 476.166 341.11 475.975 341.11L475.98 341.128ZM476.581 337.689H478.247C478.367 337.689 478.482 337.671 478.595 337.617C478.71 337.581 478.81 337.508 478.9 337.418C478.991 337.327 479.063 337.201 479.116 337.074C479.17 336.929 479.199 336.766 479.199 336.567C479.199 336.332 479.154 336.133 479.067 335.97C478.98 335.789 478.851 335.662 478.681 335.572C478.515 335.481 478.312 335.445 478.077 335.445H476.577V337.689H476.581ZM480.169 340.965C479.979 341.092 479.825 341.164 479.704 341.128C479.584 341.074 479.465 340.983 479.34 340.802L477.683 338.286L479.025 338.124L480.335 340.114C480.426 340.241 480.483 340.368 480.5 340.458C480.516 340.549 480.5 340.621 480.451 340.711C480.402 340.784 480.303 340.874 480.165 340.965H480.169Z" fill="#1976D2"/>
<path d="M484.224 341.092C484.067 341.092 483.93 341.038 483.81 340.893C483.691 340.785 483.633 340.64 483.633 340.459C483.633 340.368 483.64 340.26 483.653 340.151C483.665 340.061 483.694 339.97 483.736 339.88C483.778 339.789 483.846 339.698 483.948 339.608C484.241 339.355 484.548 339.119 484.863 338.92C485.178 338.703 485.48 338.504 485.77 338.323C486.061 338.124 486.316 337.925 486.544 337.744C486.774 337.563 486.951 337.346 487.089 337.147C487.221 336.93 487.291 336.694 487.291 336.423C487.291 336.242 487.25 336.061 487.166 335.898C487.083 335.717 486.951 335.59 486.774 335.5C486.589 335.391 486.358 335.337 486.068 335.337C485.865 335.337 485.686 335.373 485.531 335.427C485.375 335.482 485.248 335.572 485.144 335.681C485.04 335.789 484.963 335.934 484.908 336.097C484.85 336.26 484.825 336.441 484.825 336.64C484.825 336.748 484.818 336.857 484.796 336.948C484.776 337.02 484.726 337.092 484.642 337.147C484.559 337.201 484.42 337.219 484.224 337.219C484.029 337.219 483.888 337.183 483.805 337.129C483.723 337.074 483.674 336.984 483.656 336.893C483.64 336.785 483.633 336.676 483.633 336.568C483.633 336.242 483.685 335.934 483.794 335.645C483.902 335.355 484.063 335.102 484.27 334.866C484.481 334.631 484.735 334.468 485.033 334.342C485.33 334.215 485.67 334.143 486.052 334.143C486.533 334.143 486.956 334.251 487.32 334.45C487.684 334.631 487.97 334.921 488.178 335.283C488.384 335.626 488.489 336.061 488.489 336.55C488.489 336.803 488.451 337.038 488.368 337.255C488.29 337.491 488.178 337.69 488.037 337.889C487.896 338.088 487.734 338.269 487.552 338.432C487.369 338.613 487.179 338.757 486.976 338.902C486.774 339.047 486.566 339.192 486.354 339.319C486.142 339.445 485.94 339.572 485.746 339.68L485.372 339.88H488.174C488.285 339.88 488.384 339.898 488.476 339.916C488.563 339.934 488.634 339.988 488.688 340.079C488.74 340.151 488.766 340.296 488.766 340.495C488.766 340.694 488.737 340.803 488.683 340.893C488.63 340.984 488.554 341.038 488.46 341.056C488.368 341.074 488.265 341.092 488.152 341.092H484.221H484.224Z" fill="#1976D2"/>
<path d="M491.959 341.219C491.57 341.219 491.234 341.146 490.948 341.002C490.662 340.875 490.421 340.694 490.222 340.477C490.023 340.242 489.866 339.97 489.746 339.68C489.627 339.391 489.538 339.065 489.484 338.721C489.432 338.377 489.406 338.034 489.406 337.672C489.406 337.328 489.432 337.002 489.484 336.658C489.538 336.314 489.622 335.989 489.741 335.699C489.862 335.391 490.016 335.138 490.211 334.903C490.405 334.667 490.646 334.468 490.935 334.342C491.225 334.215 491.561 334.143 491.943 334.143C492.323 334.143 492.654 334.215 492.933 334.342C493.209 334.486 493.446 334.667 493.642 334.884C493.835 335.12 493.989 335.391 494.109 335.699C494.23 335.989 494.313 336.314 494.366 336.658C494.42 336.984 494.445 337.346 494.445 337.69C494.445 338.034 494.42 338.377 494.366 338.721C494.313 339.065 494.23 339.391 494.109 339.68C493.989 339.988 493.835 340.242 493.642 340.477C493.446 340.712 493.213 340.875 492.936 341.002C492.659 341.146 492.336 341.219 491.959 341.219ZM491.921 339.988C492.183 339.988 492.397 339.934 492.567 339.825C492.734 339.698 492.866 339.554 492.958 339.373C493.048 339.192 493.115 338.993 493.16 338.776C493.202 338.558 493.231 338.359 493.238 338.178C493.247 337.997 493.255 337.835 493.255 337.708V337.672C493.255 337.165 493.206 336.749 493.106 336.405C493.007 336.061 492.862 335.789 492.667 335.627C492.473 335.446 492.229 335.337 491.934 335.337C491.639 335.337 491.391 335.446 491.197 335.608C490.997 335.789 490.852 336.061 490.758 336.405C490.662 336.749 490.613 337.165 490.613 337.672C490.613 338.178 490.662 338.595 490.761 338.938C490.861 339.282 491.006 339.536 491.201 339.717C491.395 339.898 491.635 339.988 491.927 339.988H491.921Z" fill="#1976D2"/>
<path d="M495.718 341.092C495.561 341.092 495.424 341.038 495.304 340.893C495.183 340.785 495.125 340.64 495.125 340.459C495.125 340.368 495.134 340.26 495.147 340.151C495.159 340.061 495.188 339.97 495.228 339.88C495.27 339.789 495.342 339.698 495.44 339.608C495.735 339.355 496.042 339.119 496.357 338.92C496.672 338.703 496.974 338.504 497.264 338.323C497.553 338.124 497.81 337.925 498.038 337.744C498.266 337.563 498.445 337.346 498.581 337.147C498.715 336.93 498.785 336.694 498.785 336.423C498.785 336.242 498.744 336.061 498.66 335.898C498.577 335.717 498.445 335.59 498.266 335.5C498.085 335.391 497.852 335.337 497.562 335.337C497.359 335.337 497.18 335.373 497.023 335.427C496.871 335.482 496.743 335.572 496.638 335.681C496.534 335.789 496.457 335.934 496.402 336.097C496.344 336.26 496.319 336.441 496.319 336.64C496.319 336.748 496.312 336.857 496.29 336.948C496.27 337.02 496.22 337.092 496.136 337.147C496.055 337.201 495.914 337.219 495.718 337.219C495.523 337.219 495.382 337.183 495.3 337.129C495.217 337.074 495.167 336.984 495.15 336.893C495.134 336.785 495.125 336.676 495.125 336.568C495.125 336.242 495.179 335.934 495.288 335.645C495.395 335.355 495.557 335.102 495.764 334.866C495.975 334.631 496.229 334.468 496.525 334.342C496.824 334.215 497.164 334.143 497.546 334.143C498.027 334.143 498.449 334.251 498.814 334.45C499.178 334.631 499.464 334.921 499.672 335.283C499.878 335.626 499.981 336.061 499.981 336.55C499.981 336.803 499.945 337.038 499.862 337.255C499.784 337.491 499.672 337.69 499.531 337.889C499.389 338.088 499.227 338.269 499.046 338.432C498.863 338.613 498.673 338.757 498.47 338.902C498.266 339.047 498.06 339.192 497.848 339.319C497.636 339.445 497.434 339.572 497.238 339.68L496.866 339.88H499.666C499.778 339.88 499.878 339.898 499.97 339.916C500.057 339.934 500.126 339.988 500.182 340.079C500.234 340.151 500.26 340.296 500.26 340.495C500.26 340.694 500.231 340.803 500.177 340.893C500.122 340.984 500.048 341.038 499.954 341.056C499.862 341.074 499.759 341.092 499.646 341.092H495.713H495.718Z" fill="#1976D2"/>
<path d="M503.002 341.201C502.745 341.201 502.517 341.183 502.318 341.128C502.119 341.074 501.942 341.02 501.791 340.947C501.638 340.875 501.511 340.802 501.402 340.73C501.296 340.658 501.207 340.622 501.142 340.549C501.062 340.495 500.997 340.441 500.943 340.368C500.889 340.296 500.863 340.223 500.863 340.133C500.863 340.079 500.88 340.006 500.918 339.934C500.956 339.861 501.012 339.789 501.091 339.699C501.162 339.608 501.236 339.536 501.307 339.5C501.377 339.463 501.448 339.445 501.515 339.445C501.572 339.445 501.638 339.463 501.705 339.481C501.775 339.518 501.862 339.572 501.967 339.68C502.019 339.717 502.081 339.771 502.157 339.807C502.231 339.861 502.331 339.898 502.45 339.934C502.571 339.97 502.732 339.988 502.928 339.988C503.15 339.988 503.346 339.952 503.507 339.861C503.673 339.771 503.802 339.644 503.894 339.5C503.984 339.337 504.03 339.156 504.03 338.92C504.03 338.721 503.979 338.54 503.885 338.377C503.789 338.215 503.66 338.088 503.499 337.997C503.337 337.907 503.159 337.853 502.96 337.853C502.857 337.853 502.758 337.871 502.671 337.907C502.582 337.925 502.504 337.943 502.434 337.997C502.365 338.033 502.305 338.07 502.26 338.124C502.206 338.178 502.157 338.214 502.106 338.251C502.057 338.287 501.994 338.305 501.916 338.305C501.838 338.323 501.759 338.323 501.683 338.305C501.611 338.287 501.518 338.251 501.415 338.197C501.265 338.124 501.158 338.07 501.095 337.997C501.033 337.943 501.001 337.853 501.001 337.762L501.406 334.83C501.419 334.74 501.44 334.649 501.466 334.559C501.489 334.468 501.544 334.396 501.627 334.324C501.708 334.251 501.833 334.215 502.009 334.215H504.46C504.572 334.215 504.672 334.233 504.755 334.251C504.838 334.269 504.907 334.342 504.961 334.432C505.016 334.504 505.041 334.649 505.041 334.83C505.041 335.011 505.016 335.138 504.965 335.228C504.916 335.301 504.851 335.355 504.762 335.373C504.675 335.391 504.585 335.409 504.485 335.409H502.533L502.318 336.857C502.385 336.821 502.45 336.785 502.526 336.749C502.597 336.731 502.671 336.712 502.749 336.676C502.828 336.676 502.899 336.658 502.973 336.658H503.031C503.32 336.658 503.595 336.731 503.859 336.839C504.122 336.966 504.357 337.111 504.563 337.31C504.771 337.509 504.932 337.762 505.052 338.015C505.173 338.287 505.231 338.558 505.231 338.848C505.231 339.3 505.131 339.699 504.938 340.06C504.737 340.404 504.473 340.694 504.133 340.893C503.793 341.092 503.416 341.201 502.995 341.201H503.002Z" fill="#1976D2"/>
<path d="M380.148 328.151C379.224 328.151 378.292 328.006 377.351 327.735C376.407 327.445 375.508 327.029 374.65 326.486C373.791 325.943 373.02 325.255 372.341 324.441C371.661 323.609 371.127 322.649 370.736 321.582C370.347 320.514 370.152 319.301 370.148 317.98C370.148 316.659 370.337 315.501 370.72 314.451C371.102 313.401 371.628 312.497 372.296 311.682C372.962 310.904 373.729 310.234 374.59 309.709C375.457 309.185 376.365 308.768 377.313 308.497C378.263 308.225 379.211 308.081 380.152 308.062C381.093 308.062 381.912 308.171 382.609 308.37C383.306 308.587 383.877 308.804 384.321 309.04C384.764 309.257 385.05 309.42 385.182 309.51C385.484 309.709 385.775 309.909 386.061 310.144C386.343 310.379 386.495 310.669 386.517 311.031C386.517 311.248 386.479 311.429 386.405 311.628C386.331 311.791 386.226 311.99 386.094 312.171C385.869 312.515 385.645 312.75 385.431 312.913C385.216 313.057 384.992 313.13 384.767 313.13C384.561 313.13 384.366 313.076 384.189 312.967C384.009 312.858 383.785 312.714 383.525 312.533C383.392 312.442 383.181 312.334 382.886 312.171C382.593 312.026 382.211 311.881 381.742 311.736C381.274 311.592 380.686 311.519 379.989 311.519C379.198 311.519 378.415 311.682 377.644 311.972C376.874 312.261 376.182 312.696 375.573 313.257C374.965 313.8 374.48 314.505 374.123 315.302C373.767 316.116 373.591 317.057 373.591 318.107C373.591 319.156 373.774 320.098 374.134 320.912C374.496 321.726 374.981 322.414 375.594 322.975C376.206 323.536 376.899 323.952 377.673 324.224C378.444 324.513 379.227 324.64 380.02 324.64C380.657 324.64 381.212 324.586 381.684 324.459C382.153 324.332 382.551 324.188 382.87 324.007C383.19 323.826 383.434 323.681 383.604 323.591C383.81 323.464 384.009 323.337 384.196 323.229C384.382 323.102 384.581 323.066 384.787 323.066C385.012 323.066 385.236 323.12 385.451 323.283C385.667 323.428 385.891 323.681 386.119 324.007C386.251 324.224 386.354 324.423 386.43 324.604C386.503 324.785 386.533 324.984 386.517 325.201C386.499 325.545 386.354 325.817 386.081 326.052C385.808 326.305 385.522 326.504 385.22 326.667C385.071 326.758 384.777 326.939 384.344 327.174C383.914 327.427 383.347 327.644 382.651 327.843C381.954 328.043 381.118 328.151 380.139 328.151H380.148Z" fill="white"/>
<path d="M398.022 328.189C396.669 328.189 395.397 327.935 394.206 327.428C393.017 326.922 391.977 326.216 391.083 325.311C390.188 324.388 389.482 323.338 388.97 322.126C388.458 320.931 388.203 319.628 388.199 318.253C388.199 316.841 388.434 315.52 388.923 314.289C389.408 313.059 390.092 311.955 390.962 311.032C391.836 310.091 392.851 309.367 394.007 308.842C395.163 308.299 396.403 308.045 397.722 308.027C399.075 308.027 400.347 308.281 401.535 308.788C402.726 309.294 403.761 310 404.649 310.923C405.534 311.846 406.236 312.932 406.744 314.144C407.255 315.375 407.517 316.678 407.517 318.108C407.517 319.483 407.28 320.768 406.79 321.999C406.303 323.212 405.617 324.279 404.736 325.22C403.853 326.162 402.836 326.885 401.689 327.41C400.542 327.917 399.319 328.189 398.018 328.189H398.022ZM397.848 324.732C398.715 324.732 399.531 324.569 400.289 324.225C401.052 323.881 401.715 323.411 402.279 322.795C402.842 322.198 403.281 321.492 403.6 320.696C403.918 319.9 404.076 319.031 404.072 318.108C404.069 317.185 403.906 316.352 403.587 315.556C403.265 314.742 402.816 314.054 402.241 313.439C401.664 312.823 401.007 312.353 400.26 312.009C399.515 311.665 398.711 311.484 397.845 311.484C397 311.484 396.196 311.665 395.445 312.009C394.691 312.371 394.032 312.841 393.457 313.439C392.885 314.054 392.437 314.742 392.122 315.556C391.803 316.352 391.646 317.221 391.65 318.144C391.65 319.049 391.82 319.9 392.153 320.696C392.484 321.492 392.931 322.198 393.499 322.813C394.065 323.429 394.72 323.899 395.465 324.243C396.213 324.569 397.009 324.732 397.852 324.732H397.848Z" fill="white"/>
<path d="M411.615 327.917C411.067 327.917 410.674 327.844 410.43 327.682C410.184 327.519 410.028 327.32 409.961 327.048C409.894 326.795 409.862 326.505 409.862 326.216L409.82 309.909C409.82 309.584 409.846 309.294 409.904 309.041C409.961 308.787 410.112 308.588 410.354 308.425C410.598 308.262 410.993 308.172 411.539 308.172C412.087 308.172 412.447 308.262 412.684 308.407C412.92 308.57 413.068 308.769 413.135 309.041C413.202 309.294 413.234 309.566 413.234 309.891L413.272 324.876L421.858 324.858C422.14 324.858 422.4 324.876 422.636 324.931C422.873 324.967 423.055 325.112 423.187 325.311C423.321 325.528 423.386 325.872 423.386 326.342C423.386 326.813 423.325 327.157 423.193 327.392C423.059 327.591 422.882 327.736 422.657 327.808C422.433 327.863 422.176 327.917 421.896 327.917L411.615 327.935V327.917Z" fill="white"/>
<path d="M434.467 328.097C433.11 328.097 431.838 327.844 430.649 327.337C429.461 326.83 428.42 326.124 427.525 325.219C426.629 324.296 425.925 323.247 425.411 322.034C424.903 320.839 424.646 319.536 424.641 318.161C424.641 316.749 424.878 315.428 425.366 314.198C425.851 312.967 426.535 311.863 427.405 310.94C428.279 309.999 429.294 309.275 430.45 308.732C431.606 308.207 432.846 307.954 434.163 307.936C435.518 307.936 436.79 308.189 437.979 308.696C439.169 309.202 440.204 309.908 441.091 310.831C441.979 311.754 442.677 312.84 443.188 314.053C443.698 315.283 443.958 316.587 443.958 318.016C443.958 319.392 443.723 320.677 443.233 321.907C442.744 323.12 442.06 324.188 441.177 325.129C440.295 326.07 439.281 326.776 438.132 327.319C436.985 327.825 435.762 328.097 434.461 328.097H434.467ZM434.288 324.64C435.154 324.64 435.97 324.477 436.728 324.133C437.49 323.79 438.154 323.319 438.717 322.704C439.281 322.106 439.719 321.4 440.039 320.604C440.358 319.808 440.515 318.939 440.512 318.016C440.506 317.093 440.345 316.261 440.027 315.464C439.703 314.65 439.256 313.962 438.679 313.347C438.104 312.731 437.445 312.261 436.7 311.917C435.954 311.573 435.149 311.392 434.282 311.392C433.417 311.392 432.634 311.573 431.883 311.917C431.129 312.279 430.472 312.75 429.895 313.347C429.323 313.962 428.876 314.65 428.561 315.464C428.241 316.261 428.084 317.129 428.089 318.052C428.093 318.975 428.257 319.808 428.59 320.604C428.921 321.4 429.368 322.106 429.936 322.722C430.505 323.337 431.159 323.808 431.905 324.152C432.65 324.477 433.446 324.64 434.291 324.64H434.288Z" fill="white"/>
<path d="M447.85 327.808C447.34 327.808 446.967 327.735 446.735 327.591C446.5 327.428 446.343 327.229 446.267 326.957C446.193 326.686 446.151 326.396 446.151 326.089L446.109 309.782C446.109 309.475 446.147 309.203 446.222 308.968C446.296 308.715 446.459 308.516 446.703 308.335C446.947 308.172 447.332 308.081 447.859 308.081C448.253 308.081 448.55 308.099 448.749 308.172C448.948 308.226 449.102 308.28 449.218 308.371C449.33 308.461 449.446 308.57 449.558 308.696L456.444 318.288H455.823L462.693 308.606C462.825 308.461 462.954 308.353 463.086 308.262C463.22 308.19 463.39 308.135 463.596 308.099C463.804 308.063 464.077 308.045 464.416 308.045C464.942 308.045 465.329 308.117 465.577 308.298C465.822 308.461 465.979 308.678 466.046 308.95C466.111 309.203 466.145 309.493 466.145 309.782L466.187 326.089C466.187 326.378 466.153 326.65 466.091 326.903C466.024 327.175 465.872 327.392 465.626 327.537C465.382 327.681 464.987 327.754 464.441 327.754C463.933 327.754 463.558 327.681 463.327 327.518C463.091 327.356 462.932 327.156 462.86 326.885C462.784 326.632 462.742 326.342 462.742 326.052L462.715 313.927L457.622 321.365C457.564 321.474 457.481 321.564 457.369 321.691C457.256 321.818 457.104 321.926 456.916 321.998C456.73 322.089 456.473 322.143 456.155 322.143C455.834 322.143 455.583 322.089 455.404 321.998C455.226 321.926 455.078 321.818 454.966 321.691C454.854 321.582 454.749 321.455 454.655 321.347L449.554 313.981L449.581 326.125C449.581 326.414 449.551 326.686 449.487 326.957C449.422 327.229 449.267 327.428 449.024 327.573C448.778 327.736 448.393 327.79 447.866 327.79L447.85 327.808Z" fill="white"/>
<path d="M470.734 327.753C470.225 327.753 469.851 327.663 469.619 327.5C469.384 327.319 469.234 327.102 469.167 326.812C469.102 326.541 469.067 326.233 469.067 325.889L469.027 309.836C469.027 309.511 469.054 309.221 469.121 308.949C469.188 308.678 469.342 308.443 469.585 308.262C469.831 308.081 470.207 307.99 470.712 307.99H478.172C479.261 307.99 480.223 308.226 481.056 308.732C481.884 309.239 482.543 309.909 483.024 310.759C483.504 311.61 483.75 312.533 483.75 313.528C483.75 313.981 483.699 314.433 483.596 314.868C483.493 315.302 483.333 315.7 483.12 316.08C482.903 316.46 482.635 316.786 482.315 317.094C482.749 317.437 483.127 317.854 483.446 318.342C483.766 318.849 484.01 319.374 484.171 319.953C484.334 320.514 484.415 321.111 484.415 321.727C484.399 322.577 484.242 323.355 483.94 324.079C483.641 324.803 483.219 325.455 482.671 325.998C482.125 326.541 481.499 326.975 480.782 327.265C480.066 327.572 479.302 327.735 478.495 327.735L470.726 327.753H470.734ZM472.474 324.423L478.208 324.387C478.734 324.387 479.215 324.297 479.646 324.079C480.077 323.88 480.417 323.554 480.661 323.12C480.905 322.686 481.027 322.125 481.027 321.419C481.027 320.876 480.951 320.442 480.811 320.116C480.67 319.79 480.475 319.537 480.23 319.356C479.986 319.175 479.722 319.048 479.44 318.958C479.158 318.885 478.868 318.849 478.577 318.831C478.284 318.813 478.018 318.795 477.773 318.795H476.502C476.013 318.795 475.651 318.686 475.429 318.469C475.201 318.252 475.088 317.854 475.088 317.311C475.088 316.768 475.208 316.406 475.454 316.207C475.696 315.99 476.075 315.881 476.579 315.881H477.824C478.068 315.881 478.336 315.863 478.627 315.827C478.917 315.808 479.194 315.736 479.46 315.628C479.726 315.501 479.941 315.302 480.106 315.012C480.272 314.723 480.359 314.324 480.359 313.8C480.359 312.949 480.135 312.334 479.691 311.954C479.248 311.556 478.499 311.375 477.446 311.375L472.445 311.393L472.478 324.423H472.474Z" fill="white"/>
<path d="M495.897 327.934C494.54 327.934 493.268 327.699 492.079 327.192C490.89 326.685 489.85 325.98 488.954 325.057C488.061 324.152 487.355 323.102 486.841 321.889C486.333 320.677 486.076 319.392 486.07 318.016C486.07 316.605 486.307 315.284 486.796 314.053C487.281 312.804 487.965 311.736 488.835 310.795C489.709 309.854 490.724 309.13 491.88 308.605C493.036 308.062 494.275 307.791 495.593 307.791C496.948 307.791 498.22 308.044 499.41 308.551C500.599 309.058 501.634 309.782 502.52 310.687C503.409 311.61 504.107 312.677 504.617 313.908C505.128 315.139 505.388 316.442 505.388 317.854C505.388 319.229 505.153 320.532 504.664 321.745C504.174 322.957 503.492 324.043 502.609 324.966C501.726 325.907 500.711 326.649 499.562 327.156C498.415 327.681 497.192 327.934 495.891 327.952L495.897 327.934ZM495.717 324.495C496.584 324.495 497.4 324.314 498.158 323.971C498.92 323.645 499.584 323.174 500.147 322.559C500.711 321.962 501.149 321.256 501.469 320.46C501.788 319.645 501.945 318.795 501.941 317.872C501.936 316.93 501.775 316.098 501.457 315.302C501.133 314.505 500.686 313.8 500.109 313.202C499.533 312.587 498.875 312.098 498.129 311.754C497.384 311.411 496.579 311.248 495.712 311.248C494.869 311.248 494.064 311.411 493.315 311.772C492.564 312.116 491.902 312.605 491.324 313.202C490.753 313.8 490.306 314.505 489.991 315.32C489.673 316.116 489.513 316.985 489.519 317.908C489.519 318.795 489.687 319.645 490.02 320.46C490.351 321.256 490.798 321.962 491.366 322.577C491.934 323.174 492.589 323.645 493.335 323.989C494.08 324.333 494.876 324.495 495.721 324.495H495.717Z" fill="white"/>
</svg>
