<svg width="499" height="405" viewBox="0 0 499 405" fill="none" xmlns="http://www.w3.org/2000/svg">
<path d="M159.957 378.788C162.001 379.669 162.814 383.733 161.645 385.549C162.641 385.371 163.265 386.132 163.511 387.849C166.75 387.759 184.839 387.576 185.924 389.907C186.82 391.833 184.126 394.028 182.742 392.316C182.742 392.752 182.637 393.424 182.36 393.445C177.081 393.77 169.837 393.765 164.554 393.445L163.888 392.316L165.089 392.762L166.132 399.136L220.078 401.871C221.97 402.317 222.237 404.485 220.093 404.223L167.468 404.113C167.83 404.312 167.573 404.512 166.703 404.716C155.743 404.68 144.767 404.753 133.802 404.706C132.942 404.79 130.688 402.538 131.26 401.908C137.146 401.377 136.197 397.645 130.992 396.821L48.4068 396.7C44.1559 396.059 42.7669 391.098 47.2694 389.628C59.4192 388.421 73.498 390.831 85.4068 389.508C86.8797 389.345 88.536 388.825 89.6262 387.817C90.5854 386.017 89.5791 384.562 87.7969 383.917C85.8314 384.022 82.8489 382.284 85.1866 380.856C86.1668 380.257 105.959 379.071 108.029 379.423C109.638 379.696 111.038 380.016 110.577 381.985C106.86 381.538 103.999 381.79 102.001 382.746C102.101 383.098 102.253 383.371 102.557 383.386C104.077 383.476 114.455 383.612 115.027 383.355C115.236 383.26 115.383 383.024 115.509 382.741L113.564 382.1C110.545 382.3 109.125 381.118 112.212 379.444L146.874 380.063C151.319 380.068 155.476 379.134 159.391 378.231C160.151 377.459 160.471 377.795 159.952 378.793L159.957 378.788Z" fill="#47BFF0"/>
<path d="M161.635 385.454C162.023 382.807 164.23 382.059 168.262 383.206C177.379 382.854 185.62 383.022 193.804 386.606C199.214 385.775 204.981 385.985 210.596 386.254L256.465 388.875C259.914 387.706 263.254 387.617 266.473 388.617C269.645 386.285 272.408 386.622 272.497 391.096C273.834 392.764 272.471 397.438 271.784 399.722C271.663 401.743 270.966 402.822 269.681 402.959C270.52 403.832 269.367 404.374 268.554 404.653C234.613 404.711 200.635 404.769 166.694 404.653C166.379 402.948 167.554 403.559 168.639 403.522C185.306 402.964 202.093 404.143 218.754 403.522C219.435 403.495 220.851 403.948 220.715 402.964L165.011 400.132L163.884 392.222H182.737C183.135 392.222 184.865 391.29 185.258 390.812C185.295 388.654 165.299 388.833 163.113 388.764C162.206 388.443 161.986 386.512 161.635 385.443V385.454Z" fill="#2AB1EE"/>
<path d="M433.91 371.392C434.283 371.381 434.66 371.402 435.037 371.392C437.972 376.928 434.445 382.869 428.287 383.242C404.271 382.742 380.458 382.742 356.85 383.242C353.601 384.603 345.814 382.39 347.286 388.32C343.707 389.12 344.975 383.857 347.831 382.79C342.57 382.669 337.298 382.658 332.026 382.763C331.266 383.468 330.543 383.631 329.846 383.242C328.829 383.825 327.608 382.558 328.096 381.933C313.449 382.143 298.786 382.211 284.134 382.164C282.661 382.164 281.189 381.97 279.705 381.77C278.222 381.57 276.75 381.291 275.283 380.986C273.333 380.671 276.09 371.865 276.587 371.839C328.462 371.854 380.154 371.707 431.662 371.392H433.91Z" fill="#3AB8EA"/>
<path d="M77.2392 371.988C103.57 372.219 130.41 372.407 157.753 372.548C157.858 372.046 158.047 372.067 158.314 372.548C159.977 373.312 160.743 376.848 159.442 378.161C158.807 378.94 158.577 379.568 157.459 379.835C156.027 380.18 152.162 380.787 150.656 380.918C145.736 381.352 139.421 381.007 134.412 380.949C127.074 380.86 119.773 380.567 112.466 380.416L111.024 381.525C112.765 381.509 114.291 381.216 115.529 382.654C115.314 382.937 115.089 383.188 114.805 383.335C113.866 383.821 103.586 383.24 102.018 382.654C102.128 382.409 101.677 381.682 102.379 381.509C104.289 381.049 107.756 381.891 109.901 381.525C109.901 380.578 108.034 380.457 107.373 380.405C100.507 379.835 92.7387 382.22 85.6892 381.535C85.2014 384.041 86.6071 382.838 88.359 383.638C90.2001 384.48 91.3016 386.175 89.6336 387.708C89.8696 386.091 89.3241 384.836 87.7978 384.203C86.6805 383.743 82.4004 383.319 80.9003 383.219C56.9402 381.64 31.4223 384.512 7.2943 383.068C2.50543 382.372 -0.510565 378.883 0.0716531 373.913C0.276216 372.156 1.08922 372.281 1.23609 371.983C25.8886 371.512 52.3402 371.622 77.2444 371.983L77.2392 371.988Z" fill="#38B8E9"/>
<path d="M273.568 387.154C274.627 387.532 275.67 388.321 276.692 389.519C281.865 390.302 287.107 391.028 292.411 391.701L298.198 390.534C300.641 390.492 301.123 391.974 300.321 393.761C300.452 395.548 317.141 395.338 319.149 393.924C317.692 393.614 317.791 393.314 319.149 392.794C314.693 391.885 313.87 390.397 316.675 388.336C319.269 388.011 322.011 388.215 324.894 388.962C339.114 388.873 353.329 389.209 367.534 389.971C369.515 390.218 369.846 394.119 367.534 395.611C353.34 396.479 339.088 396.852 324.773 396.742C323.096 397.567 322.341 398.692 322.524 400.127C323.426 401.725 324.846 401.825 326.461 402.382C326.508 403.296 325.381 404.048 323.085 404.637C315.076 405.473 304.43 404.595 296.08 404.637C294.256 404.148 292.285 404.153 290.456 404.637C287.652 404.647 284.821 404.632 282.017 404.637C279.69 404.08 277.441 404.08 275.266 404.637C274.705 404.637 274.139 404.637 273.578 404.637C272.624 404.348 271.151 404.027 269.154 403.675L269.642 402.944C270.8 399.906 271.55 394.555 272.457 391.096C271.576 389.272 271.765 388.137 273.583 387.148L273.568 387.154Z" fill="#4DC1F2"/>
<path d="M329.917 383.271C330.462 382.978 330.635 381.869 332.009 381.68C335.84 381.152 339.818 381.586 343.702 381.832C345.967 381.973 349.625 380.838 351.297 383.266C348.525 382.826 344.295 386.039 347.361 388.325C351.109 391.125 362.849 388.142 367.614 390.01C367.562 390.005 367.168 390.528 366.781 390.476C361.681 389.759 353.939 389.581 348.76 390.01C344.169 390.392 345.747 390.664 340.919 389.984C335.714 389.251 328.885 390.612 322.915 389.989C321.72 389.864 317.542 387.823 316.421 390.298C315.503 392.323 318.549 391.418 319.23 392.82C318.79 393.212 318.779 393.589 319.23 393.945C318.9 395.243 317.741 395.033 316.73 395.101C313.522 395.311 304.245 395.609 301.503 395.075C299.396 394.667 300.114 391.841 299.192 391.653C298.165 391.439 294.689 392.851 292.509 392.851C289.962 392.851 288.73 391.925 286.838 391.742C282.136 391.287 275.432 392.94 273.661 387.206C271.863 386.614 272.639 384.035 274.489 384.103C292.645 384.281 310.749 384.192 328.796 383.836C328.371 382.397 328.848 382.251 329.923 383.276L329.917 383.271Z" fill="#4ABFF1"/>
<path d="M428.273 383.235C404.478 382.884 380.614 383.703 356.823 383.235C356.524 383.229 353.888 383.586 354.858 382.633C378.297 382.845 401.752 382.365 425.192 382.627C426.145 382.639 427.692 382.243 428.279 383.235H428.273Z" fill="#09A9E8"/>
<path d="M367.615 395.656C366.455 396.391 364.791 396.668 363.411 396.781C351.298 397.782 337.37 395.59 325.362 396.76H324.801L367.615 395.656Z" fill="#3AB8EA"/>
<path d="M269.629 402.906C270.483 405.479 273.997 401.914 273.586 404.58C271.895 404.58 270.188 404.58 268.497 404.58C268.218 403.618 269.572 403.052 269.629 402.906Z" fill="#4ABFF1"/>
<path d="M281.987 404.717C279.763 404.723 277.517 404.717 275.293 404.717C275.984 403.198 280.625 404.099 281.987 404.717Z" fill="#4ABFF1"/>
<path d="M326.476 402.38C326.799 402.493 327.61 402.103 327.589 402.652C326.455 404.119 324.895 404.401 323.127 404.581C323.668 402.996 325.873 404.063 326.476 402.38Z" fill="#4ABFF1"/>
<path d="M324.788 396.782C324.969 396.751 325.172 396.798 325.358 396.782C324.314 397.844 322.573 398.425 322.499 400.118C321.498 398.393 322.776 397.155 324.783 396.782H324.788Z" fill="#4ABFF1"/>
<path d="M296.071 404.715C294.215 404.728 292.348 404.709 290.492 404.715C291.73 403.59 294.942 403.621 296.071 404.715Z" fill="#4ABFF1"/>
<path d="M431.626 371.391C431.527 371.391 430.741 371.984 429.724 372C378.948 372.931 328.073 371.243 277.286 371.925L275.275 381.045C275.17 381.552 274.981 381.531 274.714 381.045L273.975 382.182C272.136 382.441 262.621 382.78 261.316 382.314C260.903 382.166 260.761 381.526 260.651 381.039L259.048 381.796C249.161 381.008 239.091 380.653 228.837 380.727C207.093 380.955 185.412 380.087 163.799 378.13C162.515 378.241 161.237 378.453 159.974 378.77C159.927 378.601 159.466 378.389 159.414 378.204C158.895 376.411 158.429 374.406 158.287 372.529C167.084 372.518 175.949 372.772 184.726 372.243C176.976 371.65 169.149 372.052 161.373 371.968C160.42 371.957 158.869 372.333 158.287 371.391C249.386 371.407 340.517 371.381 431.621 371.391H431.626Z" fill="#15A1E6"/>
<path d="M159.959 378.753C161.107 376.678 162.647 376.93 164.764 377.036C171.933 377.383 179.023 377.894 186.102 378.236C189.561 378.405 192.307 379.263 194.56 379.358C209.421 379.98 224.083 379.079 238.966 379.911C247.077 380.364 252.899 378.842 260.644 381.017C260.953 382.602 262.525 383.192 265.355 382.797L273.488 382.718L274.143 383.845C292.211 382.165 310.646 381.981 328.704 383.845C328.447 383.94 327.991 384.656 327.357 384.445L274.515 384.388C273.671 384.593 273.781 386.578 273.577 387.237C273.174 388.558 272.802 389.854 272.45 391.192C271.287 390.923 271.607 389.396 270.957 388.89C269.034 387.384 267.907 389.685 266.571 389.817C265.319 389.943 263.406 388.895 262.022 388.917C260.314 388.938 259.03 390.17 256.41 390.101C236.906 389.591 217.559 387.063 197.982 387.289C196.593 387.305 195.309 387.963 193.428 387.811C190.593 387.579 187.989 385.383 185.515 385.014C180.396 384.251 173.866 384.435 168.652 384.44C165.975 384.44 164.209 382.844 161.646 385.546C160.928 383.361 160.593 380.964 159.959 378.763V378.753Z" fill="#21AAE9"/>
<path d="M115.468 382.708C115.667 382.944 115.955 383.519 116.028 383.852C115.364 384.721 102.276 384.71 101.434 383.852C101.193 383.084 101.915 382.88 101.993 382.703C106.565 381.672 110.902 382.257 115.468 382.703V382.708Z" fill="#8BE1FD"/>
<path d="M329.821 383.222C329.528 383.374 328.947 383.678 328.696 383.764C310.536 383.678 292.35 383.88 274.19 383.764C272.51 383.622 273.154 381.013 274.751 381.043C274.939 381.043 275.128 381.043 275.311 381.043C292.999 381.205 310.719 380.921 328.413 381.043L329.816 383.222H329.821Z" fill="#94E3FD"/>
<path d="M319.189 392.803C319.231 392.844 319.231 393.869 319.189 393.905C318.383 394.561 306.263 394.613 304.28 394.479C299.329 394.146 299.24 392.562 304.28 392.234C306.268 392.106 318.478 392.101 319.189 392.808V392.803Z" fill="#C0EEFC"/>
<path d="M274.728 381.012L274.17 383.847C271.931 383.831 260.606 384.296 259.88 383.287C259.192 382.337 260.402 381.719 260.726 381.017C262.965 381.651 271.607 380.985 274.733 381.017L274.728 381.012Z" fill="#4ABFF1"/>
<g clip-path="url(#clip0_414_8)">
<path d="M213.753 320.561L213.312 319.242C214.669 267.283 215.467 213.708 215.996 161.424L216.59 160.826C217.867 160.132 229.853 159.857 229.93 161.146C230.068 189.531 231.243 218.287 232.545 246.909C232.24 249.473 232.303 249.605 232.738 247.306L233.285 252.403C233.96 265.54 234.761 278.695 236.04 291.782C236.982 301.41 238.008 311.145 240.169 320.561C231.367 321.236 222.549 321.239 213.747 320.561H213.753Z" fill="#00765A"/>
<path d="M158.434 243.449C155.297 250.965 154.025 259.714 152.19 267.632L149.903 281.179C147.547 296.868 147.164 313.469 147.285 329.61C147.285 329.662 147.23 328.863 147.426 328.547L150.178 366.551H155.682C156.046 366.918 154.901 367.017 154.939 366.975C155.135 366.752 155.542 366.606 156.001 366.532C157.039 366.364 158.077 366.257 159.128 366.204C169.006 365.637 178.927 365.799 188.816 365.998C189.166 366.006 189.513 366.091 189.865 366.185C190.217 366.279 190.567 366.411 190.911 366.551C221.645 365.637 252.448 365.813 283.198 366.204C283.248 366.204 283.03 366.347 282.758 365.563C282.884 363.158 282.939 360.776 282.923 358.419C282.205 358.245 281.993 357.926 282.284 357.46L283.903 357.896L283.936 366.548H325.632C326.149 366.548 328.241 367.716 328.67 368.19C331.318 371.106 329.246 374.863 325.77 375.637H113.848C109.789 375.133 108.074 370.178 111.512 367.653C112.068 367.245 113.642 366.548 114.261 366.548H138.894C138.968 364.056 138.662 361.602 138.618 359.113V342.589C139.202 312.461 144.344 266.983 157.544 239.829C158.028 239.124 159.983 239.062 159.495 241.154L158.434 243.449Z" fill="#003D8C"/>
<path d="M219.532 130.538L220.207 131.02C220.485 135.58 220.515 140.154 220.297 144.74L219.808 145.406C219.772 146.34 215.55 146.012 215.308 145.772C215.217 145.682 215.167 145.549 215.129 145.406C215.679 145.745 215.987 146.483 216.059 147.623C220.317 147.543 224.616 147.579 228.807 148.047C229.837 148.163 232.605 148.543 232.195 149.813C231.81 150.016 230.616 150.041 230.558 150.102C230.346 150.316 230.69 155.309 230.544 156.147C230.054 156.439 229.831 156.271 229.754 155.736L229.677 151.773C225.684 151.024 221.621 150.68 217.496 150.746L217.055 150.363C217.842 150.124 217.705 154.701 217.606 154.927C217.515 155.133 217.273 155.238 217.055 155.32L217.028 155.692C215.569 155.783 215.668 156.664 216.235 157.813C221.61 157.402 226.826 157.857 231.882 159.179L232.468 159.999C232.033 160.368 230.896 160.222 230.426 160.523C230.098 160.732 230.329 161.145 230.266 161.376C230.051 163.109 230.018 164.877 230.266 166.609C230.266 170.368 230.261 174.141 230.266 177.9L230.541 182.582C230.547 185.239 230.533 187.911 230.541 190.568L230.816 194.148C230.833 199.298 231.064 204.429 231.092 209.571L231.367 212.325C231.408 219.485 231.884 226.538 232.204 233.657C232.407 238.204 232.44 242.761 232.743 247.3L232.471 248.949C232.044 239.432 231.716 229.92 231.081 220.46C231.006 208.037 230.272 195.655 229.98 183.281C229.809 176.047 230.002 168.793 229.727 161.558C229.627 161.134 226.65 160.848 226.014 160.812C224.808 160.743 216.684 160.74 216.494 161.558C215.987 180.434 216.219 199.348 215.965 218.257C215.566 248.068 214.834 277.943 214.017 307.738C213.899 312.015 214.188 316.292 213.753 320.555C209.082 321.238 204.387 321.235 199.716 320.555H199.441L203.569 292.465C203.98 293.864 204.035 293.861 203.737 292.456C204.957 278.761 206 264.994 206.872 251.155C208.21 224.266 209.22 197.368 209.9 170.464C209.781 168.82 209.652 160.11 209.74 160.614C209.765 160.754 209.567 160.729 209.349 160.55C208.793 160.583 207.079 160.231 206.979 159.6C206.952 159.424 207.2 157.072 207.274 156.959C207.59 156.477 208.997 156.601 209.09 156.251C209.178 155.924 209.278 150.314 209.063 150.096C208.829 149.862 207.312 150.462 207.128 148.857C206.842 146.351 208.854 146.816 209.027 146.067C209.074 145.861 208.705 144.203 208.606 143.803C207.343 138.733 202.207 132.964 199.441 128.326L198.86 126.354C198.709 125.418 198.415 121.014 199.89 121.929C202.191 124.782 204.717 127.379 207.472 129.717C207.833 126.415 208.829 123.229 210.12 120.177L211.003 119.514C211.215 119.508 211.422 119.514 211.622 119.555C213.544 119.954 218.566 127.263 219.81 129.698L219.535 130.527L219.532 130.538Z" fill="#00533F"/>
<path d="M158.239 240.74C158.03 241.084 156.518 241.657 156.779 241.382C156.823 241.175 156.512 241.205 156.374 241.249C154.541 241.844 148.288 246.914 146.469 248.413C145.828 248.941 143.227 251.563 142.88 251.709C142.217 251.987 142.489 250.098 142.437 249.679C142.385 249.261 142.3 248.01 141.922 247.856C141.49 249.305 141.023 252.957 140.282 254.064C139.839 254.727 137.453 256.349 136.688 257.076C133.027 260.557 129.628 264.264 126.507 268.233V261.486C126.507 260.423 127.561 256.696 127.963 255.507C131.866 243.973 142.459 237.457 154.302 236.835L150.507 235.816C146.12 235.183 141.68 234.926 137.238 234.907C137.604 233.924 138.468 233.304 139.162 232.569C139.206 232.362 138.898 232.393 138.755 232.437C136.897 233.026 134.379 234.97 132.573 235.339C130.583 235.747 128.068 235.733 125.938 236.135C123.216 236.65 120.571 237.567 117.973 238.49C124.449 224.233 144.317 219.3 155.125 231.881C151.806 222.765 147.309 213.861 140.541 206.822C149.389 207.979 156.991 214.407 159.454 223.007C159.674 223.778 160.357 226.447 160.357 227.061V231.605L162.883 227.386C168.33 219.719 177.066 215.12 186.635 215.91C187.309 215.965 191.174 216.725 191.454 217.012C191.911 217.475 191.352 217.475 191.05 217.563C180.784 220.647 171.839 225.984 164.482 233.803C170.914 230.983 177.971 230.008 184.486 233.205C191.066 236.433 195.486 244.56 196.133 251.703L190.607 247.735C188.867 246.427 186.294 245.598 184.593 244.389C183.12 243.342 181.761 241.31 180.308 240.14C180.228 240.908 180.668 241.839 180.866 242.613C180.952 242.943 181.186 242.979 180.586 242.891C179.185 242.687 176.678 241.379 175.153 240.889C171.352 239.669 167.4 238.562 163.382 238.487L167.595 240.74C177.539 247.344 182.207 256.818 178.929 268.775L177.145 272.906C175.365 267.043 172.266 261.665 168.669 256.74L168.333 250.602L167.023 253.83L166.412 254.179L159.661 241.792C159.083 241.076 159.006 239.411 159.076 241.084L158.657 241.015L158.239 240.74Z" fill="#FEA707"/>
<path d="M268.522 349.752L269.072 349.999V356.659C270.118 356.422 270.759 356.595 270.999 357.185C271.714 357.176 273.556 357.339 274.026 357.185C274.216 355.518 274.249 353.825 274.123 352.109C273.572 348.719 276.825 348.512 276.407 351.947C276.283 353.717 276.316 355.463 276.503 357.185C277.156 357.397 278.733 357.03 279.534 357.185C279.545 356.361 279.517 355.529 279.534 354.703C280.235 354.425 280.541 355.072 280.447 356.642L281.457 356.656V350.148L282.011 349.746C282.858 350.589 281.815 356.144 282.286 357.457C282.47 357.972 283.337 357.523 283.403 357.887C283.835 360.297 283.048 363.987 283.389 366.548C252.57 366.606 221.734 366.465 190.912 366.548C190.697 366.523 190.378 366.457 190.362 366.3C190.169 364.532 190.128 359.578 190.362 357.862L190.912 357.46C190.854 356.76 190.898 356.769 191.462 357.185C191.694 356.309 193.956 356.686 194.215 357.46H245.406C246.314 356.92 247.25 356.92 248.158 357.46C249.157 356.92 250.187 356.92 251.186 357.46C252.124 356.771 252.994 356.777 253.938 357.46C254.937 356.917 255.966 356.92 256.965 357.46C257.874 356.917 258.809 356.92 259.718 357.46C260.626 356.92 261.562 356.923 262.47 357.46C263.353 356.711 264.325 356.711 265.222 357.46C265.841 356.678 266.796 356.692 267.424 357.46C267.699 357.452 267.977 357.471 268.249 357.46C268.475 356.099 267.828 350.437 268.525 349.746L268.522 349.752Z" fill="#0050A5"/>
<path d="M219.809 325.792C220.739 325.649 221.672 325.517 222.608 325.426C223.544 325.335 224.477 325.252 225.407 325.25C237.539 325.214 249.687 325.244 261.819 325.31C263.696 325.321 265.562 325.547 267.42 325.789V334.051C266.878 334.274 266.765 334.153 266.625 333.657L266.567 329.931C265.414 330.058 264.414 329.964 263.567 329.645C263.121 329.92 262.642 330.182 262.111 330.231C259.832 330.441 256.849 330.397 254.76 329.645C254.319 330.185 253.827 330.182 253.384 329.645C251.848 330.405 250.246 330.394 248.705 329.645L244.122 329.499C243.467 330.187 241.326 330.265 240.723 329.369L241.274 329.56V353.825L240.723 354.155C240.869 355.108 237.891 354.766 238.037 354.257C238.571 353.822 238.45 352.863 238.246 352.227C237.465 348.975 237.638 345.497 237.988 342.195L237.949 334.657C237.44 333.126 237.627 331.534 237.974 329.984C234.214 330.339 230.408 330.361 226.684 329.642C226.241 330.179 225.751 330.179 225.308 329.642C221.549 330.314 217.784 330.314 214.024 329.642C213.87 330.168 213.628 330.168 213.474 329.642C209.455 329.463 205.374 329.422 201.229 329.513C201.212 337.824 201.168 346.034 201.094 354.144C200.72 355.262 200.255 355.728 199.305 356.328C197.992 357.157 195.702 357.576 194.211 356.906C193.322 356.529 193.377 354.601 194.211 354.152C194.277 353.599 194.549 353.624 194.761 354.152C195.147 353.607 195.295 352.72 195.21 351.495V347.298C195.006 347.201 194.844 347.105 194.844 347.009C194.797 343.836 194.794 340.57 195.29 337.494C194.874 337.312 194.847 337.116 195.235 336.904C194.976 334.616 194.907 332.305 195.031 329.97L195.584 329.645C195.559 329.862 195.485 330.187 195.331 330.196C194.065 330.27 186.496 330.427 186.097 330.196C185.828 329.543 185.483 329.521 185.252 330.196H176.374L176.043 329.645C176.261 329.667 176.588 329.75 176.594 329.901C176.77 336.13 176.77 342.905 176.594 349.137L176.043 349.471C175.909 349.834 175.54 350.054 174.931 350.132C174.865 352.329 174.893 354.532 175.014 356.744C175.32 358.165 172.493 358.548 172.188 357.457V325.787C180.084 325.065 188.098 325.109 195.991 325.696L219.801 325.787L219.809 325.792Z" fill="#FE7B00"/>
<path d="M227.515 87.8521C227.843 88.166 227.829 88.6232 227.474 89.2235C231.121 92.1069 234.008 95.7945 236.135 100.286C236.311 100.509 238.805 95.7008 238.758 95.3015C238.114 93.9631 238.221 93.3159 239.075 93.36C239.287 93.8254 239.454 94.5056 239.628 95.0124C240.074 95.0124 240.153 93.7263 240.72 94.1889C240.954 94.3817 242.419 97.7085 242.652 98.3171C242.721 98.3887 242.782 98.4631 242.804 98.5484C243.162 99.9116 240.938 97.8875 240.858 97.0613C239.917 99.3278 238.868 101.545 237.712 103.707C239.364 106.494 240.858 110.247 241.243 113.478C241.263 113.635 240.935 113.783 240.726 113.877C240.941 113.935 241.257 114.026 241.276 114.194C241.483 116.097 241.384 118.848 240.726 120.624C241.494 118.085 242.969 115.7 244.43 113.5C244.849 109.666 244.334 105.819 243.294 102.186C243.219 101.611 243.426 101.349 244.029 101.346C246.858 110.47 245.476 120.847 239.9 128.611C239.675 128.517 239.479 128.355 239.452 128.104C239.267 126.339 239.474 124.535 239.82 122.778L232.271 130.682C231.66 130.839 231.253 130.924 231.074 130.238C230.656 126.889 229.943 123.532 228.377 120.525L220.17 130.629L219.534 130.538C219.206 129.274 217.214 126.504 216.344 125.331C214.778 123.216 213.039 121.197 211.002 119.523C210.476 119.366 210.479 119.126 211.002 118.972L211.01 117.746L218.595 102.883C216.509 99.6445 214.189 96.505 211.684 93.572C210.028 95.2272 208.555 97.0833 207.264 99.1433H206.598C206.153 99.4159 205.671 100.038 205.151 101.013C204.504 101.704 203.541 100.173 204.397 99.6941C204.909 96.7914 207.33 94.0402 209.353 91.9086C210.262 90.9475 212.004 89.3778 213.204 89.229C213.129 88.9702 213.22 88.8793 213.479 88.9536C214.971 88.8738 213.738 90.2976 213.03 90.9007L219.809 99.7106C222.168 96.9153 224.438 93.9521 226.626 90.8208L226.337 90.3609C224.711 88.9564 224.46 88.2128 225.589 88.1275C226.293 87.9374 226.937 87.8438 227.515 87.8521Z" fill="#E42A0B"/>
<path d="M184.579 354.158C183.399 354.147 183.523 352.217 184.579 352.093L184.029 351.84V334.382L184.579 334.055C184.835 333.799 185.014 333.529 185.113 333.245L184.868 330.097C186.889 328.395 187.087 332.565 185.956 333.504C186.401 338.632 186.586 343.773 186.506 348.929C188.562 348.775 188.672 348.984 189.016 350.815C189.148 351.517 189.195 354.065 188.435 354.158C189.079 355.067 189.178 356.155 188.763 357.171C189.492 356.695 190.277 356.852 190.912 357.463V366.551C179.053 366.584 166.707 365.857 155.015 367.121C153.95 367.237 152.263 367.149 151.14 367.102C150.804 367.088 150.116 367.309 150.182 366.829C151.327 366.62 155.018 367.223 155.684 366.551C156.35 365.879 155.698 364.552 155.673 363.671C155.634 362.266 155.461 359.383 155.692 358.16C155.959 356.747 157.61 357.306 157.61 357.188V349.89C157.61 349.301 160.087 349.301 160.087 349.89V357.188H163.115V349.89C163.115 349.29 165.867 349.29 165.867 349.89V357.188H168.897C168.677 356.915 168.897 356.67 168.897 356.499V349.477C169.572 349.557 171.085 349.163 171.336 349.928C171.771 351.259 170.865 356.687 171.641 357.345C171.787 357.469 172.021 357.438 172.2 357.463C172.866 357.565 173.705 357.392 174.404 357.463C174.671 357.199 174.088 350.98 174.44 349.926C174.638 349.336 175.536 349.424 176.053 349.474C176.304 348.805 176.747 348.821 177.283 349.229C177.938 349.727 178.114 353.712 177.154 354.156C177.773 354.974 177.776 355.929 177.685 356.912C179.452 357.37 180.102 356.552 179.634 354.464L180.181 354.156C179.969 354.142 179.661 354.095 179.631 353.938C179.524 353.379 179.54 350.063 179.727 349.697C180.247 348.678 182.581 348.516 183.225 349.438C183.545 349.895 183.878 354.01 182.934 354.156C183.286 354.519 183.357 355.188 183.146 356.163C182.945 357.204 185.452 357.312 185.468 356.364C185.49 355.087 185.488 354.888 184.585 354.156L184.579 354.158Z" fill="#003178"/>
<path d="M213.754 320.56C222.556 320.554 231.374 320.552 240.176 320.56C250.59 320.568 261.01 320.565 271.427 320.546C271.708 320.485 272.377 320.744 272.377 320.973V325.379C272.377 326.037 268.179 325.781 267.423 325.792C251.575 326.048 235.662 325.792 219.809 325.792L195.191 325.699C194.684 325.407 194.833 325.018 195.314 324.696C194.819 323.113 194.844 321.827 195.391 320.835C196.864 320.951 198.306 320.86 199.721 320.56C204.394 320.557 209.084 320.563 213.757 320.56H213.754Z" fill="#0053AA"/>
<path d="M219.534 130.538L228.478 119.527C230.366 122.843 231.25 126.743 231.646 130.538L240.591 121.174C240.401 122.777 240.068 124.416 239.919 126.035C239.84 126.911 240.233 127.456 239.903 128.61C239.322 130.631 235.964 134.47 234.726 136.511C233.331 138.808 230.749 143.445 231.074 146.103C231.164 146.847 232.461 146.822 232.7 147.519C232.94 148.215 232.909 149.441 232.197 149.815C231.129 148.772 228.847 148.609 227.377 148.441C223.431 147.995 219.377 148.237 215.411 148.16L215.133 145.409H219.812C219.302 141.016 220.612 134.671 219.536 130.538H219.534Z" fill="#00765A"/>
<path d="M221.184 42.9627L221.994 68.6819C222.973 69.5273 225.957 68.6653 226.554 69.6733C227.193 70.7556 226.29 79.3424 226.716 79.8409C228.907 80.1603 230.437 80.802 231.368 82.8978C231.585 82.9501 231.882 83.0933 231.852 83.2558C231.791 83.5863 228.811 87.1692 228.326 87.596L227.515 87.8549L226.276 88.951C225.957 88.7472 225.811 88.4029 225.588 88.1303C223.727 86.7616 222.12 85.0018 220.761 82.851L219.646 81.7632L214.125 89.0391L213.478 88.9565C213.393 89.0529 213.291 89.1355 213.203 89.2319C212.441 90.0278 210.682 87.72 211.276 87.0287C210.654 85.7041 210.423 81.978 210.726 80.5376L211.276 80.1438C212.675 79.571 213.12 79.9097 212.98 78.1252L213.203 77.9407C213.693 78.1445 213.773 78.5548 213.825 79.0064L217.29 78.8027L217.351 69.8082C217.202 69.4199 217.287 69.1005 217.604 68.8526C217.607 64.1571 218.05 59.357 218.165 54.6807C218.262 50.7674 217.975 46.8568 218.429 42.9654C219.247 42.2136 220.37 42.2053 221.182 42.9654L221.184 42.9627Z" fill="#84D0FE"/>
<path d="M199.992 95.0112L200.579 94.8845L203.267 100.346C204.234 100.326 204.701 100.935 204.671 102.171L204.894 102.86C203.961 104.099 204.145 105.523 205.444 107.137C207.605 110.596 209.521 114.17 211.191 117.858L211.001 118.971C211.02 119.15 210.987 119.34 211.001 119.521C209.479 123.005 208.21 126.704 207.971 130.537C207.553 130.653 207.514 130.427 207.28 130.267C206.441 129.689 204.03 127.285 203.149 126.415C201.745 125.029 200.342 123.696 199.302 122.003L199.439 128.337C194.408 119.904 192.413 111.918 195.311 102.174C195.908 101.86 196.169 102.136 196.134 102.786C194.612 108.784 193.877 113.865 198.118 118.759C197.958 113.592 199.624 108.514 201.944 103.973C200.683 101.5 199.456 98.9989 198.267 96.4763L198.338 95.562C198.539 95.2012 198.74 94.5954 198.891 94.185C198.949 94.1465 199.899 94.9038 199.99 95.0112H199.992Z" fill="#C91203"/>
<path d="M323.567 103.551C319.295 108.233 315.816 113.531 312.844 119.122C312.737 119.716 312.932 119.436 313.235 119.526C314.025 119.766 314.804 119.909 315.582 120.215C316.031 120.391 317.019 120.746 317.236 121.171C315.959 121.256 314.57 121.027 313.312 121.239C311.897 121.479 310.378 122.674 308.806 122.804C305.482 123.076 303.574 120.27 300.451 120.069L304.301 117.734C301.075 114.28 297.415 111.256 293.295 108.915C297.231 108.736 301.653 109.959 305.036 112.038C306.239 112.779 307.048 113.807 308.151 114.288C311.047 108.453 317.121 104.473 323.567 103.551Z" fill="#2096ED"/>
<path d="M199.442 320.56C199.533 320.56 199.626 320.56 199.717 320.56C198.583 321.474 196.937 321.006 195.586 321.108C195.203 321.493 195.952 324.597 195.886 325.076C195.845 325.39 195.19 325.052 195.314 325.514L219.806 325.792C203.95 325.792 188.042 326.026 172.192 325.792C171.413 325.781 166.963 326.04 166.963 325.379V320.973C166.963 320.744 167.629 320.485 167.912 320.546C178.42 320.565 188.934 320.568 199.439 320.56H199.442Z" fill="#004597"/>
<path d="M230.541 156.149C230.94 156.509 232.259 156.523 232.605 157.25C232.859 157.782 232.922 159.621 232.468 160.004C227.225 157.787 221.024 158.487 215.401 158.355C215.481 157.862 215.294 155.43 215.401 155.322C215.489 155.234 216.711 155.383 217.055 155.322V150.365C219.282 150.464 221.572 150.228 223.796 150.368C224.61 150.42 229.669 151.076 229.996 151.324C230.77 151.908 229.754 155.438 230.541 156.149Z" fill="#00765A"/>
<path d="M231.367 82.8943C231.463 82.7869 232.047 82.55 232.162 82.6354C234.76 86.0062 237.309 89.4569 239.073 93.3593C238.432 94.2406 239.607 94.6399 239.233 95.8461C239.015 96.5484 237.067 99.8972 236.533 100.872C236.45 101.024 236.213 101.475 236.048 101.346C234.752 98.6634 232.935 95.8461 231.08 93.508C229.93 92.0622 228.469 90.0601 226.688 89.4982C226.608 89.3881 227.31 88.1929 227.514 87.8486C228.482 86.2073 229.77 84.9762 231.108 83.5827C231.342 83.3376 231.32 82.9438 231.367 82.8915V82.8943Z" fill="#F64413"/>
<path d="M198.341 95.5625C200.081 98.1457 200.895 101.252 202.458 103.959C200.02 109.266 197.934 114.948 198.889 120.899C198.308 120.513 197.937 119.662 197.571 119.054C197.001 118.106 194.714 114.287 194.546 113.543C193.943 110.869 194.84 106.231 195.41 103.502C195.493 103.1 195.839 102.439 195.316 102.172C196.046 99.7237 197.114 97.7629 198.344 95.5625H198.341Z" fill="#DE2700"/>
<path d="M244.027 101.346C243.466 102.219 244.305 103.591 244.495 104.596C245.125 107.928 245.34 111.194 244.85 114.568L244.319 114.301C243.334 116.482 242.12 118.726 240.724 120.627V113.879C240.724 113.012 239.698 109.382 239.357 108.363C238.814 106.744 237.975 105.243 237.193 103.739C238.258 100.969 240.031 98.4765 240.724 95.5684L242.398 98.5894C242.511 98.5536 242.623 98.3168 242.648 98.3196C243.061 98.3884 243.87 100.85 244.024 101.349L244.027 101.346Z" fill="#F64313"/>
<path d="M263.569 329.648C263.605 329.648 263.88 329.384 264.235 329.362C265.198 329.304 266.186 329.423 267.147 329.373C267.21 330.7 267.059 332.061 267.133 333.388C267.152 333.744 267.416 334.019 267.419 334.055C267.76 341.766 267.166 349.725 267.419 357.463C266.687 357.485 265.949 357.452 265.217 357.463L264.626 357.229C264.772 354.795 264.763 352.402 264.604 350.052C264.075 350.075 263.731 349.882 263.566 349.477L263.016 349.221V329.984L263.566 329.651L263.569 329.648Z" fill="#FE9C00"/>
<path d="M305.677 51.2239L301.463 53.7548C300.648 54.3029 297.437 56.7319 297.148 57.4259C296.859 58.1198 299.286 57.8692 299.347 58.6596C297.271 58.6899 295.802 60.2789 293.71 60.334C292.158 60.3753 290.721 59.651 289.166 59.7612C289.818 58.9102 291.156 58.3732 292.194 58.3842C290.963 55.3301 288.495 52.9865 285.998 50.9541L281.188 48.1973C286.568 47.8724 292.196 49.7809 295.092 54.5314C296.107 53.9173 296.988 53.0856 298.064 52.5541C298.595 52.2925 301.309 51.2267 301.692 51.2267H305.682L305.677 51.2239Z" fill="#1F96EE"/>
<path d="M218.433 39.3824C218.587 32.9601 218.703 26.5186 218.986 20.1019C216.572 20.5536 216.572 18.5514 218.986 19.0031L219.261 -0.00195312H220.359L220.635 19.0031C222.856 18.769 222.828 20.3443 220.635 20.1047L221.185 41.5855C221.361 42.5797 218.059 42.1997 218.221 41.6929C218.804 41.1945 218.639 40.1039 218.433 39.3824Z" fill="#80CDFE"/>
<path d="M156.785 140.455C159.669 139.084 162.375 137.963 165.587 139.081L162.565 140.045C161.246 140.642 159.892 141.372 158.833 142.369C156.218 144.826 157.528 145.605 153.477 143.892C153.141 143.749 152.417 143.793 152.376 143.76C151.649 143.16 154.231 142.749 154.305 142.656C153.658 140.662 152.392 138.99 151.396 137.17L146.877 132.193C151.099 133.496 155.734 135.757 156.785 140.455Z" fill="#1E95ED"/>
<path d="M208.249 83.1697C209.198 82.9604 210.492 85.0589 210.175 85.9237C209.895 86.3285 209.386 86.2073 208.648 85.5629C205.461 88.8649 204.2 93.8964 204.671 98.3908L204.396 99.6907C204.974 101.616 205.037 100.834 205.819 99.5998C205.904 99.4649 206.438 98.5588 206.598 99.1399C206.845 100.255 205.772 101.897 204.671 102.169C203.705 102.381 204.363 101.271 203.854 100.911C203.672 100.781 203.177 101.142 203.055 101.057C202.777 100.861 200.672 95.8379 199.992 95.009C201.305 91.7951 202.965 88.6501 204.998 85.8355C205.315 85.3949 207.233 82.8282 207.42 82.7401C207.624 82.6409 208.15 83.0458 208.249 83.1697Z" fill="#DE2700"/>
<path d="M217.607 68.8485C217.607 68.898 217.902 69.2726 217.902 69.7793C217.905 72.9574 217.855 76.1409 217.883 79.3135L213.201 79.5889C213.185 79.0408 213.223 78.4845 213.201 77.9338C213.16 76.7688 213.042 70.1676 213.336 69.6691C213.796 68.8925 216.641 69.1431 217.605 68.8457L217.607 68.8485Z" fill="#43B1FD"/>
<path d="M206.873 251.161C206.796 251.4 206.702 251.397 206.598 251.161C207.462 236.336 208.466 221.112 208.524 206.271L208.799 202.966C208.808 200.95 208.794 198.924 208.799 196.908L209.075 193.052C209.08 190.576 209.069 188.092 209.075 185.616L209.35 180.935C209.355 178.186 209.306 175.421 209.35 172.673C209.366 171.91 209.457 171.175 209.625 170.47C209.702 170.23 209.796 170.233 209.9 170.47C209.498 197.34 208.447 224.381 206.873 251.161Z" fill="#092916"/>
<path d="M149.902 281.178C150.013 284.1 149.077 287.939 148.802 290.955C148.469 294.615 148.433 298.311 147.962 301.957C147.684 310.841 147.475 319.659 147.423 328.544C147.414 329.78 147.458 331.028 147.423 332.267C147.414 332.506 147.536 333.258 147.145 332.812C147.101 318.467 147.106 304.124 148.524 289.853C148.837 286.686 149.451 283.533 149.624 280.352C150.084 280.278 149.886 280.873 149.897 281.178H149.902Z" fill="#04106A"/>
<path d="M271 357.189C270.157 357.2 269.313 357.043 268.525 357.464V349.753C268.991 349.29 270.741 349.252 270.961 349.929C271.47 351.494 270.664 355.349 271 357.189Z" fill="#003887"/>
<path d="M282.008 349.753V357.464C281.562 357.021 279.897 357.28 279.804 357.192C279.622 357.015 280.145 355.09 279.531 354.713C279.548 353.818 279.363 350.153 279.652 349.74C279.941 349.326 281.571 349.321 282.008 349.756V349.753Z" fill="#033886"/>
<path d="M206.873 251.16C206.408 259.086 206.124 267.048 205.494 274.979C205.004 281.176 204.173 287.358 203.843 293.568L203.57 292.47C204.762 278.713 205.794 264.949 206.598 251.16H206.873Z" fill="#062915"/>
<path d="M211.275 80.1406V87.0255C210.458 87.2899 209.875 86.7501 210.175 85.9239C209.432 85.0344 208.865 83.9411 208.248 83.17C208.609 82.0271 209.143 80.9283 210.257 80.3472C210.637 80.1489 211.05 80.2343 211.275 80.1406Z" fill="#42B2FB"/>
<path d="M218.433 39.3809C219.03 39.7141 218.541 41.4188 218.708 41.584C218.797 41.6722 220.718 41.562 221.185 41.584C221.653 41.6061 222.98 41.4023 223.098 42.0219C223.327 43.2199 221.929 42.9417 221.185 42.961C220.28 42.9858 219.339 42.9996 218.433 42.961C217.828 42.9362 216.504 43.2199 216.504 42.2725C216.504 41.1737 218.285 41.73 218.436 41.5868C218.516 41.5097 218.425 39.8077 218.436 39.3809H218.433Z" fill="#4EB2FC"/>
<path d="M276.503 357.189C276.225 357.098 276.256 357.07 276.22 356.789C276.069 355.613 276.556 350.279 275.972 349.871C275.678 349.665 274.852 349.665 274.558 349.871C273.974 350.279 274.459 355.613 274.31 356.789C274.274 357.07 274.307 357.098 274.026 357.189C274.203 356.018 273.682 350.015 274.285 349.599C274.599 349.381 275.934 349.381 276.247 349.599C276.847 350.015 276.33 356.018 276.506 357.189H276.503Z" fill="#010660"/>
<path d="M138.617 359.116C138.521 353.635 138.51 348.072 138.617 342.592V359.116Z" fill="#000462"/>
<path d="M209.35 160.557C209.381 160.557 209.584 160.165 209.898 160.281C209.865 163.671 209.95 167.078 209.898 170.471H209.623C209.331 169.298 209.472 168.072 209.623 166.891C209.637 164.853 209.843 162.501 209.348 160.557H209.35Z" fill="#001504"/>
<path d="M209.625 170.471C209.609 171.272 209.355 172.258 209.35 172.674C209.515 170.815 208.998 168.656 209.625 166.891C209.617 168.08 209.647 169.281 209.625 170.471Z" fill="#00533F"/>
<path d="M230.266 166.613C229.768 165.068 229.853 162.885 230.266 161.381V166.613Z" fill="#00765A"/>
<path d="M230.543 182.588C230.033 181.261 230.27 179.399 230.267 177.906C230.777 179.234 230.54 181.095 230.543 182.588Z" fill="#00765A"/>
<path d="M209.075 185.617C209.075 184.125 208.841 182.263 209.35 180.936C209.348 182.428 209.584 184.29 209.075 185.617Z" fill="#00533F"/>
<path d="M208.799 196.908C208.801 195.694 208.565 194.091 209.074 193.053C209.071 194.267 209.308 195.87 208.799 196.908Z" fill="#00533F"/>
<path d="M230.818 194.154C230.309 193.24 230.546 191.706 230.543 190.574C231.052 191.489 230.815 193.022 230.818 194.154Z" fill="#00765A"/>
<path d="M208.524 206.272C208.527 205.231 208.293 203.787 208.799 202.967C208.794 204.008 209.031 205.451 208.524 206.272Z" fill="#00533F"/>
<path d="M231.368 212.33C230.864 211.697 231.098 210.441 231.092 209.576C231.596 210.21 231.362 211.465 231.368 212.33Z" fill="#00765A"/>
<path d="M254.762 329.648L255.312 329.838V353.825L254.762 354.159C254.462 355.062 254.371 356.04 254.487 357.089L253.936 357.463C253.02 357.463 252.09 357.463 251.184 357.463C250.645 356.37 250.645 355.252 251.184 354.159C250.32 354.054 250.436 350.317 250.714 349.733C251.148 348.819 252.706 348.461 253.111 349.477C253.202 349.237 253.295 349.237 253.386 349.477C253.48 347.662 253.565 345.839 253.645 344.01C253.84 344.222 254.077 344.269 254.168 344.019C254.396 343.407 254.278 334.49 254.115 334.011L253.936 333.504C254.294 336.173 254.319 339.224 254.267 342.014C254.385 342.865 254.275 343.517 253.936 343.969L253.724 344.297C253.543 339.535 253.43 334.746 253.386 329.924C253.146 329.847 253.149 329.753 253.386 329.648C253.846 329.648 254.302 329.651 254.762 329.648Z" fill="#0B3A83"/>
<path d="M194.214 354.158C194.225 355.05 194.134 356.047 194.214 356.912C194.772 356.975 194.748 357.251 194.214 357.463C193.226 357.457 192.182 357.198 191.461 357.187C190.922 356.188 190.922 355.158 191.461 354.158C190.504 353.665 190.649 350.561 191.142 349.732C191.555 349.038 192.116 348.733 192.931 348.785C193.036 349.457 193.732 349.518 194.211 349.168C194.77 349.187 194.926 353.828 194.214 354.158Z" fill="#012C70"/>
<path d="M247.881 349.477C248.098 349.351 248.448 349.29 248.508 349.453C248.83 350.348 249.07 353.743 248.156 354.159C248.695 355.252 248.698 356.371 248.156 357.464C247.239 357.464 246.32 357.464 245.404 357.464C244.652 356.382 244.641 355.228 245.404 354.159C244.548 352.116 244.33 347.574 247.881 349.477Z" fill="#023685"/>
<path d="M256.963 354.158C256.751 354.147 256.44 354.103 256.409 353.946C256.052 352.079 256.087 347.645 259.148 348.923C260.818 349.62 260.494 352.809 259.715 354.158C260.257 355.252 260.254 356.37 259.715 357.463C258.798 357.463 257.879 357.463 256.963 357.463C256.423 356.37 256.423 355.252 256.963 354.158Z" fill="#023986"/>
<path d="M263.568 349.477C264.088 349.427 264.985 349.339 265.181 349.929C265.709 351.501 264.867 355.588 265.219 357.464C264.305 357.477 263.381 357.458 262.467 357.464C261.628 357.125 262.183 354.847 262.467 354.159C261.63 354.137 261.713 350.526 261.936 349.948C262.277 349.061 263.064 348.469 263.568 349.477Z" fill="#023888"/>
<path d="M245.404 357.464H194.213C211.244 356.685 228.376 356.605 245.404 357.464Z" fill="#0024D2"/>
<path d="M191.46 354.159C191.46 355.167 191.46 356.18 191.46 357.188C191.419 357.188 191.146 357.466 190.909 357.463C190.086 357.45 189.255 357.474 188.43 357.463C188.421 356.365 188.443 355.255 188.43 354.156C188.617 353.286 191.196 353.324 191.457 354.156L191.46 354.159Z" fill="#F98703"/>
<path d="M251.184 354.158C251.184 355.257 251.184 356.364 251.184 357.463C250.176 357.463 249.164 357.463 248.156 357.463C248.156 356.364 248.156 355.257 248.156 354.158C248.335 353.293 250.908 353.321 251.184 354.158Z" fill="#FAA004"/>
<path d="M254.761 354.159C255.378 353.366 256.338 353.382 256.963 354.159C256.963 355.258 256.963 356.365 256.963 357.464C255.956 357.466 254.943 357.464 253.936 357.464V354.156C254.208 354.145 254.486 354.164 254.761 354.156V354.159Z" fill="#F99E05"/>
<path d="M262.467 354.159C262.47 354.308 262.742 354.702 262.756 355.118C262.778 355.77 262.508 356.751 262.467 357.464C261.551 357.47 260.631 357.464 259.715 357.464C259.715 356.365 259.715 355.258 259.715 354.159C259.863 353.303 262.225 353.33 262.467 354.159Z" fill="#F69F07"/>
<path d="M176.049 349.477V329.648H195.59L195.32 353.993C195.353 354.288 194.965 354.145 194.764 354.159C194.577 351.052 194.483 349.502 194.483 349.502C194.332 349.871 192.799 349.191 192.793 348.97L193.272 347.998C192.441 345.393 192.097 341.229 193.699 338.94C192.653 337.852 192.414 335.969 194.436 336.376C192.818 335.043 192.469 334.085 193.388 333.507C193.33 333.722 193.242 334.041 193.074 334.058C192.46 334.124 187.358 334.173 187.08 334.058L186.507 333.507C187.793 333.669 187.647 334.947 187.493 336.029C187.468 336.655 186.964 339.012 186.171 338.48L185.96 333.507C185.949 332.513 186.078 331.271 185.96 330.334C185.907 329.932 185.75 329.48 185.409 329.927C185.464 331.447 186.017 332.827 185.404 334.333L184.581 334.055V352.093C184.581 352.512 184.011 353.377 184.581 354.159C184.206 354.93 183.287 354.955 182.929 354.159C182.949 353.371 183.075 349.805 182.616 349.515C182.351 349.35 180.54 349.386 180.298 349.733C180.02 350.132 180.188 353.332 180.177 354.156C179.99 355.026 177.411 354.988 177.15 354.156C177.139 353.142 177.353 350.664 177.111 349.926C176.932 349.383 176.475 349.513 176.049 349.474V349.477Z" fill="#0F75D7"/>
<path d="M194.212 356.912C195.101 356.766 196.546 357.124 197.322 356.917C197.598 356.846 197.592 356.347 197.79 356.237C198.891 355.609 199.461 356.325 200.383 354.414C201.641 351.803 200.812 349.085 200.804 346.298C200.799 344.139 201.077 341.608 201.104 339.438C201.148 336.081 200.917 332.729 201.096 329.378C204.96 329.303 208.843 329.507 212.707 329.292C213.173 329.268 213.588 328.695 213.475 329.65C213.225 330.185 212.9 330.182 212.65 329.65C208.909 330.416 205.106 330.402 201.365 329.65L201.916 329.84C201.641 337.612 201.503 345.475 201.509 353.428C202.183 353.651 201.985 353.918 201.365 354.161C205.103 353.728 208.912 353.72 212.65 354.161C213.093 353.624 213.583 353.624 214.026 354.161C214.078 353.916 214.169 353.924 214.301 354.161C214.353 353.916 214.444 353.924 214.576 354.161C218.135 353.701 221.746 353.759 225.31 354.161C225.753 353.624 226.243 353.624 226.686 354.161C230.429 353.447 234.255 353.458 238.039 353.797C237.414 353.434 237.615 352.613 238.245 352.233C238.815 352.461 238.372 354.012 238.52 354.163C238.614 354.26 240.318 354.095 240.722 354.163V329.378C243.326 329.549 246.18 329.02 248.704 329.653C247.416 330.317 245.982 330.276 244.573 330.168C244.198 337.775 244.168 345.877 244.41 353.615L245.126 354.166C245.203 353.927 245.296 353.929 245.401 354.166C245.385 355.265 245.412 356.372 245.401 357.471C228.346 357.485 211.265 357.578 194.21 357.471C194.199 357.289 194.226 357.102 194.21 356.92L194.212 356.912Z" fill="#FD9C01"/>
<path d="M226.688 329.649C230.538 329.66 234.4 329.64 238.25 329.649C238.088 337.164 238.462 344.721 238.25 352.234C238.231 352.875 238.264 353.523 238.25 354.164C234.4 354.17 230.538 354.151 226.688 354.164L226.137 353.908V334.394L226.688 334.06C227.219 333.672 227.475 334.179 227.508 334.73C227.783 339.128 227.657 343.898 227.065 348.243C226.944 350.146 227.004 351.936 227.238 353.614C227.015 351.7 226.933 349.43 227.238 347.555C227.021 347.31 227.081 347.139 227.238 346.916C227.558 346.459 236.274 341.287 236.83 341.268C237.284 341.089 237.573 341.441 237.697 342.325C237.584 341.981 237.402 341.785 237.146 341.741V333.912L237.697 333.512C237.697 333.727 237.645 334.058 237.512 334.063C234.287 334.228 230.241 334.228 227.013 334.063L226.688 333.512C225.799 332.639 225.879 330.574 226.688 329.657V329.649Z" fill="#2299ED"/>
<path d="M185.956 333.504L186.368 338.464C186.561 336.704 187.679 335.109 186.506 333.504H193.387C193.439 333.504 193.274 334.209 193.455 334.534C193.593 334.782 194.999 335.963 195.057 336.382C195.253 337.808 193.582 336.117 193.384 337.227C193.373 337.293 193.89 338.411 193.943 338.458C194.584 339.026 194.496 337.252 195.035 337.359C195.632 338.805 193.879 339.15 193.568 339.904C193.175 340.862 193.131 344.754 193.235 345.908C193.387 347.557 194.532 347.745 193.111 349.199C194.933 349.653 193.725 347.932 195.035 347.274C194.887 349.524 195.371 351.986 194.763 354.159C194.581 354.172 194.394 354.15 194.212 354.159C194.201 353.206 194.518 349.766 193.761 349.515C190.588 348.469 191.457 352.041 191.46 354.159H188.433C188.424 353.332 188.592 350.138 188.312 349.736C187.97 349.246 186.553 349.551 185.953 349.48C185.906 344.162 186.022 338.825 185.953 333.507L185.956 333.504Z" fill="#1076D7"/>
<path d="M263.569 329.649V349.477C263.142 349.516 262.685 349.386 262.506 349.929C262.289 350.592 262.446 353.231 262.468 354.159H259.716C259.716 354.139 259.534 354.024 259.531 353.806C259.523 352.892 260.274 349.612 259.039 349.458C258.612 349.405 257.335 349.375 257.085 349.733C256.812 350.121 256.963 353.349 256.963 354.156C256.231 354.17 255.494 354.134 254.762 354.156V329.646C257.685 329.621 260.649 329.753 263.569 329.646V329.649Z" fill="#2399EC"/>
<path d="M248.706 329.648C250.261 329.637 251.83 329.657 253.385 329.648V329.924C253.624 330.761 253.622 331.896 253.385 332.678C253.341 333.352 253.154 333.812 252.823 334.063C250.228 333.991 247.663 334.011 245.128 334.118C245.076 340.862 245.076 347.544 245.128 354.159H244.027V329.646C245.582 329.64 247.151 329.659 248.709 329.646L248.706 329.648Z" fill="#1197F6"/>
<path d="M225.312 329.649C226.182 329.836 226.143 332.417 225.312 332.678L225.128 333.229L214.854 333.289V353.435C214.584 353.534 214.4 353.776 214.306 354.159C214.215 354.159 214.122 354.159 214.031 354.159L213.48 353.969V329.982L214.031 329.649C217.788 329.641 221.558 329.641 225.315 329.649H225.312Z" fill="#1496F4"/>
<path d="M213.478 329.648C213.663 329.648 213.844 329.648 214.029 329.648V354.159C213.569 354.159 213.112 354.159 212.653 354.159C211.921 354.071 211.954 353.817 212.653 353.608L212.102 353.352C212.088 347.797 212.097 342.24 212.127 336.679L212.653 335.707C211.81 335.597 211.846 333.686 212.653 333.504C211.744 333.286 211.816 330.028 212.653 329.648C212.928 329.648 213.203 329.648 213.478 329.648Z" fill="#1C4F9B"/>
<path d="M226.688 329.648C226.735 330.926 226.622 332.229 226.688 333.504C227.214 333.587 227.184 333.804 226.688 334.055V354.159C226.229 354.159 225.772 354.159 225.312 354.159C224.58 354.071 224.613 353.817 225.312 353.608C224.77 346.635 224.77 339.651 225.312 332.678V329.648C225.772 329.648 226.229 329.648 226.688 329.648Z" fill="#1B4A94"/>
<path d="M228.345 118.972C226.309 113.395 223.287 108.261 220.355 103.134L228.205 92.5391L236.228 103.965L228.345 118.972Z" fill="#F64313"/>
<path d="M211 118.971C210.888 117.911 208.496 113.631 207.841 112.356C206.858 110.442 204.123 106.41 203.685 104.65C203.459 103.744 204.233 102.957 204.67 102.172C205.234 101.166 205.956 100.109 206.597 99.1423C207.183 98.261 211.042 92.7283 211.65 92.8275C212.258 92.9266 219.141 102.276 219.202 102.901L211 118.968V118.971Z" fill="#F64313"/>
<path d="M213.478 88.9525C214.433 87.8591 219.137 81.1808 219.673 80.9688L221.179 82.4889C222.668 84.3506 224.085 86.2866 225.588 88.129C224.936 88.3631 225.654 88.8754 225.858 89.0984C226.254 89.5336 227.319 90.3515 227.192 90.9794L219.943 100.792L212.394 90.9821C212.303 90.2716 214.21 89.6878 213.475 88.9552L213.478 88.9525Z" fill="#F74413"/>
<path d="M210.175 85.9242C210.467 86.274 210.979 86.676 211.276 87.0258C211.906 87.7638 212.305 88.7277 213.202 89.2289C211.865 90.683 210.434 91.5065 209.082 92.9551C207.208 94.9627 205.835 97.3779 204.395 99.694C203.113 95.4281 205.004 87.7501 208.661 84.8281L210.175 85.9242Z" fill="#F74413"/>
<path d="M184.579 354.158C185.036 354.186 185.501 354.136 185.958 354.158C185.815 356.519 186.828 357.675 183.88 357.48C182.441 357.383 182.557 356.521 182.625 355.1C182.65 354.616 182.928 354.211 182.928 354.161C183.476 354.183 184.032 354.128 184.579 354.161V354.158Z" fill="#ED8209"/>
<path d="M180.177 354.158C180.171 354.673 180.306 357.424 180.017 357.468H177.146C177.138 356.367 177.16 355.257 177.146 354.158H180.174H180.177Z" fill="#F98703"/>
<path d="M156.504 366.277C156.022 366.34 156.245 365.652 156.231 365.318C156.201 364.633 156.248 363.936 156.231 363.25C156.713 363.187 156.49 363.875 156.504 364.209C156.534 364.894 156.487 365.591 156.504 366.277Z" fill="#003D8C"/>
<path d="M253.386 349.477C253.295 349.482 253.201 349.469 253.111 349.477L252.56 349.168V346.01C251.066 346.891 249.527 347.778 247.95 348.67L247.881 349.477C247.422 349.27 245.831 349.433 245.542 350.028C245.206 350.719 245.421 353.184 245.404 354.159H245.129L244.557 353.211L244.576 333.501C244.865 333.212 251.506 333.686 252.714 333.526C253.32 333.446 253.05 333.014 253.386 332.678C253.526 338.277 253.633 343.878 253.386 349.477Z" fill="#3CADF6"/>
<path d="M253.109 349.477C252.529 349.526 251.455 349.226 251.221 349.928C250.987 350.631 251.183 353.181 251.183 354.158H248.155C248.155 353.401 248.323 349.675 247.88 349.477L246.504 348.653C248.863 347.874 251.02 346.161 253.106 344.795V349.477H253.109Z" fill="#269BEA"/>
<path d="M253.385 329.925C253.842 330.211 253.66 330.968 253.665 331.437C253.707 335.281 253.5 339.172 253.66 343.009C253.674 343.347 253.451 344.03 253.935 343.97V333.505L254.486 333.912C254.153 335.669 254.987 343.248 254.34 344.248C254.216 344.438 253.729 344.432 253.654 344.711C253.324 345.975 254.139 348.211 253.385 349.475V329.922V329.925Z" fill="#215BA6"/>
<path d="M225.314 332.679V353.609C221.887 353.934 218.436 354.019 214.954 353.865C215.133 353.961 215.007 354.06 214.58 354.159C214.489 354.159 214.396 354.159 214.305 354.159V332.676H225.314V332.679Z" fill="#3CADF6"/>
<path d="M212.652 329.648V333.504L212.467 334.055H202.62C202.441 337.453 202.391 340.909 202.471 344.418L201.921 345.621L202.339 346.28C202.138 348.524 202.1 350.777 202.223 353.043L212.332 353.057L212.657 353.608V354.159C208.9 354.145 205.13 354.167 201.373 354.159V329.648C205.13 329.64 208.9 329.662 212.657 329.648H212.652Z" fill="#0287EF"/>
<path d="M225.312 353.609V354.16C221.739 354.168 218.151 354.168 214.578 354.16C214.424 353.328 214.999 353.625 215.528 353.609C218.781 353.499 222.059 353.689 225.312 353.609Z" fill="#0591FB"/>
<path d="M226.688 333.504H237.697V342.317C237.155 342.355 237.702 341.551 237.014 341.769L227.238 347.549V353.608C226.754 353.668 226.977 352.985 226.963 352.647C226.721 346.778 227.17 340.857 226.982 334.986C226.966 334.49 226.688 334.104 226.688 334.055C226.68 333.873 226.696 333.686 226.688 333.504Z" fill="#3BACF6"/>
<path d="M263.294 333.504C262.369 335.008 263.775 337.605 262.988 338.844C262.259 339.992 256.766 342.553 255.312 343.418V353.608H255.037V333.504H263.294Z" fill="#3CADF6"/>
<path d="M212.653 353.609H201.641C201.818 351.003 201.284 348.095 201.919 345.622L202.341 344.482L212.039 335.523L212.653 335.708V353.609Z" fill="#3CACF6"/>
<path d="M212.652 333.504V335.707L201.918 345.621V333.504H212.652Z" fill="#269AEB"/>
</g>
<path d="M88.0175 160.884C92.4338 159.221 98.2195 159.949 100.973 164.296C104.911 163.737 110.329 164.018 113.124 167.457L111.967 168.474C94.4296 170.028 76.4849 168.703 58.8056 169.153C54.5344 168.474 56.0419 165.246 58.7278 163.421C59.9345 162.603 62.4186 161.732 63.8235 161.661C64.6728 161.616 65.837 162.299 66.4386 161.852C66.7004 161.657 67.2419 159.728 67.6842 159.033C72.649 151.233 84.6557 152.138 88.021 160.884H88.0175Z" fill="#4FCDFB"/>
<path d="M360.203 207.747C360.208 209.957 357.261 209.474 355.068 215.943C355.068 215.943 347.358 242.397 347.194 243.216C346.625 245.18 344.747 246.739 342.455 246.747L338.118 246.759C336.072 246.763 334.185 245.458 333.444 243.416L326.353 221.745L319.776 243.285C319.208 245.167 317.329 246.808 315.038 246.817L310.7 246.829C308.654 246.833 306.767 245.528 306.026 243.486L298.022 216.5C295.96 209.547 292.686 210.128 292.682 207.919C292.682 206.855 293.496 205.955 294.806 205.951L309.456 205.914C311.584 205.91 312.406 206.806 312.406 207.87C312.41 210.079 310.446 209.511 312.59 216.463L318.119 235.191L325.911 209.474C326.479 207.346 328.44 205.865 330.649 205.861H332.45C334.66 205.852 336.628 207.317 337.205 209.363L345.533 235.122L350.89 216.369C352.592 209.49 350.955 209.985 350.951 207.776C350.951 206.712 351.847 205.807 353.811 205.803L358.067 205.791C359.377 205.791 360.199 206.687 360.199 207.751L360.203 207.747Z" fill="white"/>
<path d="M428.286 204.307C425.667 204.315 422.561 205.22 420.924 206.533L420.879 188.529C420.879 187.138 419.725 185.996 418.334 186C414.078 186.012 412.29 190.763 406.806 190.775C405.496 190.775 404.596 191.598 404.6 192.743C404.604 194.953 406.814 194.131 406.83 201.414L406.888 225.065C404.866 228.286 401.863 233.249 397.447 236.674C394.562 238.913 391.079 240.492 386.877 240.5C385.968 240.5 385.109 240.406 384.303 240.226C381.189 239.53 378.819 237.554 377.125 234.96C369.812 224.092 403.385 231.457 399.583 217.225C397.684 210.11 388.665 204.405 379.584 204.426C367.471 204.455 359.393 214.214 359.422 226.244C359.451 238.274 369.706 247.988 382.31 247.956C382.756 247.956 383.194 247.939 383.623 247.915C389.5 247.587 394.165 245.19 397.844 242.137C402.055 238.634 404.964 234.285 406.9 231.199L406.912 236.028C406.929 243.229 404.801 242.415 404.805 244.625C404.805 245.689 405.627 246.589 406.937 246.585C409.392 246.581 413.313 243.213 417.982 245.492C421.014 246.957 424.042 247.849 427.316 247.841C439.92 247.808 450.212 239.191 450.18 225.933C450.147 212.839 440.141 204.27 428.274 204.299L428.286 204.307ZM374.334 228.826C371.94 220.81 373.63 208.366 379.605 208.354C385.989 208.338 390.523 220.765 382.424 223.977C378.827 225.376 375.799 226.449 374.334 228.826ZM427.32 243.917C424.374 243.925 421.014 242.133 421.002 236.65L420.973 224.292C420.949 214.717 410.256 226.772 407.158 230.708C413.763 220.38 420.359 208.252 427.234 208.235C433.045 208.219 435.603 215.744 435.628 225.974C435.652 236.204 432.808 243.905 427.324 243.917H427.32Z" fill="white"/>
<path d="M498.821 229.174C498.444 243.086 484.789 247.702 472.676 247.735C464.409 247.755 453.103 242.464 453.082 233.626C453.074 229.779 456.176 226.661 460.022 226.653C463.869 226.645 466.987 229.828 466.996 233.593C467.008 238.176 467.589 242.513 474.791 242.493C482.648 242.472 484.347 233.63 484.334 229.292C484.326 225.282 483.401 215.548 472.434 215.572C470.306 215.576 468.993 213.289 470.212 211.484L482.206 197.134L470.994 197.163C464.201 197.179 461.921 201.602 460.129 206.112C459.802 206.848 458.742 208.08 457.023 207.675C455.55 207.27 454.727 205.878 455.05 204.405L459.188 188.93C459.511 187.539 460.82 186.634 462.212 186.63L491.021 186.561C493.722 186.552 495.203 189.744 493.489 191.79L477.82 210.568C490.264 211.763 499.202 218.289 498.817 229.174H498.821Z" fill="white"/>
<path d="M289.761 284.993C288.616 284.179 287.715 284.915 287.306 285.324C284.04 289.015 280.361 289.924 277.251 290.177C266.579 291.098 261.955 280.344 261.828 271.027C261.754 265.74 263.125 260.92 265.662 258.964C266.211 258.543 266.812 258.248 267.459 258.121C267.688 258.072 267.925 258.043 268.167 258.039C269.202 258.039 270.078 258.354 270.794 258.981C272.451 260.425 273.257 263.523 273.27 268.093C273.278 271.776 276.151 274.959 280.243 274.951C284.089 274.943 287.191 271.825 287.183 268.06C287.167 261.853 281.258 255.969 272.553 254.475C271.207 254.246 269.799 254.119 268.33 254.115H268.163C268.064 254.115 267.966 254.115 267.872 254.119C256 254.303 247.971 264.001 248 275.933C248.012 280.414 249.441 284.575 251.884 288.029C256.009 293.852 263.01 297.665 270.97 297.645C281.037 297.62 288.141 291.63 290.261 287.202C290.829 286.139 290.256 285.32 289.765 284.993H289.761Z" fill="#1976D2"/>
<path d="M313.09 254C322.175 253.98 331.19 259.684 333.093 266.8C336.895 281.031 303.318 273.666 310.631 284.53C313.094 288.208 316.867 290.488 322.183 290.066C328.813 289.477 331.665 285.786 332.238 285.131C333.298 283.981 334.448 284.636 334.775 284.964C335.512 285.7 335.434 286.6 335.188 287.091C332.582 292.006 325.473 297.509 315.816 297.534C303.212 297.567 292.956 287.852 292.928 275.822C292.899 263.792 300.977 254.033 313.09 254.004V254ZM307.832 278.4C309.301 276.023 312.325 274.951 315.922 273.551C324.017 270.339 319.486 257.912 313.103 257.928C307.128 257.945 305.442 270.388 307.832 278.4Z" fill="#1976D2"/>
<path d="M379.556 256.865C379.56 259.32 377.187 258.178 374.175 265.716L362.876 297.416C359.545 307.326 355.396 317.81 345.247 317.838C337.062 317.859 331.321 312.879 331.309 307.478C331.3 304.368 333.834 301.909 336.944 301.9C338.826 301.896 340.381 302.711 341.531 304.18C342.599 305.649 342.767 307.449 342.849 308.267C343.102 310.968 342.37 313.914 346.953 313.906C353.092 313.89 357.974 301.765 355.011 295.881L339.878 265.638C335.933 258.854 333.396 259.435 333.392 257.225C333.392 256.161 334.288 255.257 335.597 255.257L350.902 255.22C352.948 255.216 354.094 255.866 354.098 257.176C354.102 259.386 352.547 258.817 355.674 265.765L363.74 283.421L369.997 265.728C372.431 258.195 371.208 259.341 371.204 257.131C371.204 255.576 372.427 255.163 373.737 255.159L377.584 255.15C378.893 255.15 379.552 256.047 379.552 256.865H379.556Z" fill="#1976D2"/>
<path d="M397.96 285.463L397.862 246.246C393.573 249.25 388.859 250.907 383.813 251.185H383.797L383.883 285.496C383.899 292.697 381.689 291.883 381.693 294.093C381.693 295.157 382.598 296.053 383.907 296.053L398.066 296.016C399.294 296.016 400.19 295.112 400.19 294.048C400.186 291.838 397.976 292.661 397.96 285.459V285.463Z" fill="#1976D2"/>
<path d="M426.695 253.719C439.299 253.686 449.555 263.4 449.583 275.431C449.612 287.461 439.406 297.224 426.802 297.257C414.116 297.29 403.861 287.575 403.832 275.545C403.803 263.515 414.009 253.752 426.695 253.719ZM418.896 277.636C421.457 287.121 427.039 293.82 431.373 292.662C435.706 291.504 437.159 282.825 434.598 273.34C432.036 263.855 426.454 257.156 422.038 258.314C417.705 259.472 416.334 268.147 418.896 277.636Z" fill="#1976D2"/>
<path d="M498.163 293.808C498.163 294.872 497.267 295.776 496.039 295.776L481.88 295.813C480.57 295.813 479.666 294.917 479.666 293.853C479.662 291.643 481.872 292.457 481.855 285.256L481.81 267.66C481.798 263.323 479.011 261.449 476.147 261.453C472.955 261.461 469.521 263.843 469.534 267.689L469.579 285.284C469.595 292.486 471.805 291.664 471.809 293.873C471.809 294.937 470.913 295.841 469.603 295.841L455.444 295.878C454.217 295.878 453.312 294.982 453.312 293.918C453.308 291.709 455.518 292.523 455.501 285.321L455.465 270.263C455.448 263.061 453.238 263.884 453.234 261.674C453.234 260.528 454.131 259.706 455.358 259.706C460.924 259.693 462.712 254.943 466.968 254.93C468.359 254.93 469.509 256.068 469.509 257.459L469.517 259.996C473.029 256.06 478.013 253.592 482.842 253.58C489.962 253.564 495.867 258.294 495.896 270.242L495.933 285.219C495.949 292.421 498.159 291.598 498.163 293.808Z" fill="#1976D2"/>
<path d="M453.357 329.1C453.456 329.1 453.542 329.108 453.615 329.128C453.689 329.149 453.75 329.194 453.795 329.271C453.84 329.345 453.865 329.468 453.865 329.636C453.865 329.791 453.84 329.906 453.791 329.979C453.742 330.053 453.681 330.102 453.603 330.123C453.525 330.143 453.439 330.151 453.341 330.151H451.561V335.332C451.561 335.442 451.549 335.54 451.528 335.63C451.504 335.716 451.455 335.786 451.373 335.839C451.291 335.892 451.156 335.917 450.968 335.917C450.779 335.917 450.653 335.888 450.575 335.835C450.493 335.782 450.444 335.708 450.423 335.622C450.403 335.536 450.395 335.434 450.395 335.323V330.155H448.586C448.496 330.155 448.41 330.147 448.328 330.127C448.246 330.106 448.185 330.061 448.14 329.983C448.095 329.91 448.07 329.791 448.07 329.627C448.07 329.464 448.095 329.345 448.14 329.271C448.185 329.198 448.25 329.149 448.328 329.128C448.41 329.108 448.496 329.1 448.586 329.1H453.366H453.357Z" fill="#1976D2"/>
<path d="M457.747 335.995C457.281 335.995 456.843 335.909 456.434 335.733C456.024 335.557 455.664 335.311 455.357 334.996C455.05 334.681 454.809 334.317 454.633 333.9C454.457 333.486 454.371 333.04 454.371 332.566C454.371 332.091 454.457 331.625 454.625 331.199C454.793 330.773 455.03 330.401 455.333 330.078C455.636 329.755 455.983 329.505 456.384 329.325C456.786 329.145 457.211 329.051 457.665 329.051C458.12 329.051 458.57 329.137 458.979 329.313C459.388 329.489 459.744 329.734 460.051 330.053C460.358 330.372 460.595 330.741 460.771 331.162C460.947 331.584 461.033 332.038 461.033 332.525C461.033 333.012 460.947 333.445 460.78 333.863C460.612 334.28 460.374 334.653 460.067 334.972C459.761 335.291 459.413 335.545 459.016 335.721C458.619 335.901 458.197 335.987 457.751 335.987L457.747 335.995ZM457.69 334.804C457.989 334.804 458.271 334.747 458.533 334.628C458.795 334.513 459.024 334.35 459.22 334.141C459.417 333.932 459.568 333.691 459.679 333.417C459.789 333.143 459.842 332.844 459.842 332.525C459.842 332.206 459.785 331.919 459.679 331.645C459.568 331.371 459.413 331.125 459.216 330.917C459.02 330.708 458.791 330.54 458.533 330.422C458.275 330.303 458.001 330.242 457.702 330.242C457.403 330.242 457.133 330.303 456.876 330.422C456.618 330.54 456.389 330.704 456.188 330.913C455.992 331.121 455.836 331.363 455.726 331.637C455.615 331.911 455.562 332.21 455.562 332.529C455.562 332.848 455.619 333.135 455.734 333.409C455.848 333.683 456 333.928 456.196 334.137C456.393 334.35 456.618 334.513 456.871 334.628C457.129 334.747 457.403 334.804 457.694 334.804H457.69Z" fill="#1976D2"/>
<path d="M464.633 335.974C464.178 335.974 463.777 335.888 463.425 335.72C463.073 335.553 462.779 335.319 462.533 335.025C462.292 334.73 462.108 334.39 461.985 334.014C461.862 333.633 461.801 333.228 461.801 332.803V329.705C461.801 329.595 461.813 329.497 461.834 329.402C461.858 329.312 461.911 329.239 461.993 329.181C462.079 329.128 462.214 329.1 462.402 329.1C462.591 329.1 462.726 329.128 462.807 329.181C462.889 329.239 462.938 329.308 462.963 329.402C462.988 329.492 462.996 329.599 462.996 329.713V332.799C462.996 333.155 463.057 333.486 463.176 333.785C463.294 334.088 463.479 334.329 463.72 334.509C463.961 334.689 464.277 334.783 464.661 334.783C465.005 334.783 465.3 334.701 465.545 334.542C465.791 334.382 465.983 334.149 466.114 333.85C466.245 333.552 466.315 333.2 466.315 332.791V329.648C466.315 329.55 466.327 329.46 466.355 329.382C466.38 329.3 466.437 329.235 466.519 329.181C466.601 329.128 466.736 329.104 466.92 329.104C467.104 329.104 467.235 329.132 467.321 329.19C467.407 329.247 467.456 329.321 467.477 329.411C467.497 329.497 467.505 329.599 467.505 329.717V332.823C467.505 333.253 467.444 333.654 467.321 334.034C467.198 334.415 467.014 334.746 466.765 335.037C466.519 335.328 466.216 335.553 465.86 335.724C465.504 335.892 465.095 335.978 464.633 335.978V335.974Z" fill="#1976D2"/>
<path d="M469.245 335.906C469.065 335.906 468.93 335.881 468.844 335.828C468.758 335.775 468.709 335.701 468.689 335.607C468.668 335.513 468.66 335.415 468.66 335.309V329.69C468.66 329.588 468.672 329.49 468.693 329.404C468.717 329.318 468.771 329.244 468.853 329.191C468.938 329.138 469.069 329.109 469.254 329.109H471.336C471.627 329.109 471.909 329.158 472.184 329.248C472.458 329.343 472.699 329.486 472.912 329.682C473.125 329.879 473.297 330.116 473.424 330.402C473.55 330.689 473.612 331.024 473.612 331.413C473.612 331.659 473.571 331.908 473.493 332.158C473.415 332.407 473.301 332.641 473.149 332.853C472.998 333.066 472.801 333.246 472.564 333.394C472.327 333.541 472.053 333.635 471.742 333.68H469.835V335.317C469.835 335.419 469.822 335.517 469.802 335.607C469.781 335.697 469.728 335.771 469.646 335.82C469.565 335.873 469.429 335.898 469.241 335.898L469.245 335.906ZM469.839 332.518H471.484C471.602 332.518 471.717 332.497 471.828 332.457C471.942 332.416 472.04 332.346 472.13 332.252C472.22 332.158 472.29 332.043 472.343 331.908C472.396 331.773 472.425 331.605 472.425 331.413C472.425 331.18 472.38 330.979 472.294 330.816C472.208 330.648 472.081 330.525 471.913 330.435C471.75 330.349 471.549 330.304 471.316 330.304H469.835V332.522L469.839 332.518ZM473.383 335.759C473.194 335.894 473.043 335.947 472.924 335.91C472.806 335.873 472.687 335.767 472.564 335.595L470.927 333.124L472.253 332.948L473.546 334.916C473.636 335.047 473.694 335.157 473.71 335.247C473.726 335.337 473.71 335.423 473.661 335.501C473.612 335.579 473.514 335.665 473.379 335.763L473.383 335.759Z" fill="#1976D2"/>
<path d="M477.394 335.877C477.238 335.877 477.103 335.816 476.985 335.693C476.866 335.57 476.809 335.427 476.809 335.263C476.809 335.161 476.817 335.059 476.829 334.961C476.841 334.862 476.87 334.768 476.911 334.678C476.952 334.588 477.021 334.498 477.12 334.416C477.41 334.171 477.713 333.942 478.024 333.733C478.335 333.524 478.634 333.328 478.92 333.14C479.207 332.951 479.46 332.763 479.685 332.575C479.911 332.387 480.086 332.186 480.222 331.978C480.352 331.769 480.422 331.536 480.422 331.282C480.422 331.086 480.381 330.91 480.299 330.746C480.217 330.582 480.086 330.455 479.911 330.357C479.73 330.259 479.501 330.21 479.215 330.21C479.014 330.21 478.838 330.239 478.683 330.292C478.531 330.349 478.405 330.431 478.302 330.541C478.2 330.652 478.122 330.787 478.069 330.946C478.012 331.106 477.987 331.286 477.987 331.487C477.987 331.597 477.979 331.695 477.959 331.785C477.938 331.871 477.889 331.941 477.807 331.99C477.725 332.039 477.586 332.064 477.394 332.064C477.201 332.064 477.062 332.031 476.98 331.969C476.899 331.908 476.85 331.83 476.833 331.732C476.817 331.634 476.809 331.532 476.809 331.421C476.809 331.098 476.862 330.791 476.968 330.5C477.075 330.21 477.234 329.956 477.439 329.735C477.648 329.514 477.897 329.342 478.192 329.216C478.486 329.089 478.822 329.027 479.198 329.027C479.673 329.027 480.091 329.126 480.451 329.318C480.811 329.514 481.093 329.788 481.298 330.14C481.502 330.492 481.605 330.91 481.605 331.392C481.605 331.646 481.568 331.884 481.486 332.104C481.408 332.325 481.298 332.53 481.159 332.722C481.02 332.915 480.86 333.091 480.68 333.258C480.5 333.426 480.312 333.578 480.111 333.721C479.911 333.864 479.706 333.999 479.497 334.126C479.288 334.253 479.088 334.375 478.896 334.49L478.527 334.686H481.294C481.404 334.686 481.502 334.699 481.592 334.719C481.678 334.744 481.748 334.797 481.801 334.879C481.854 334.965 481.879 335.1 481.879 335.288C481.879 335.476 481.85 335.603 481.797 335.689C481.744 335.775 481.67 335.828 481.576 335.849C481.486 335.869 481.384 335.881 481.273 335.881H477.39L477.394 335.877Z" fill="#1976D2"/>
<path d="M485.033 335.996C484.648 335.996 484.316 335.931 484.034 335.8C483.752 335.669 483.514 335.493 483.318 335.268C483.121 335.043 482.966 334.785 482.847 334.49C482.729 334.196 482.643 333.881 482.589 333.541C482.536 333.205 482.512 332.858 482.512 332.51C482.512 332.162 482.536 331.839 482.589 331.503C482.643 331.168 482.725 330.853 482.843 330.558C482.962 330.263 483.113 330.001 483.306 329.768C483.498 329.539 483.735 329.355 484.022 329.224C484.308 329.093 484.64 329.023 485.016 329.023C485.393 329.023 485.72 329.089 485.994 329.224C486.268 329.359 486.502 329.539 486.694 329.764C486.886 329.993 487.038 330.251 487.156 330.55C487.275 330.848 487.357 331.164 487.41 331.499C487.463 331.835 487.488 332.178 487.488 332.522C487.488 332.866 487.463 333.205 487.41 333.545C487.357 333.881 487.275 334.2 487.156 334.494C487.038 334.789 486.886 335.051 486.694 335.272C486.502 335.497 486.272 335.673 485.998 335.804C485.724 335.935 485.405 336 485.033 336V335.996ZM484.996 334.797C485.254 334.797 485.466 334.74 485.634 334.625C485.798 334.511 485.929 334.363 486.019 334.183C486.109 334.003 486.174 333.807 486.219 333.598C486.26 333.39 486.289 333.193 486.297 333.009C486.305 332.825 486.313 332.673 486.313 332.555V332.506C486.313 332.011 486.264 331.597 486.166 331.254C486.068 330.914 485.925 330.652 485.732 330.476C485.54 330.296 485.299 330.21 485.008 330.21C484.717 330.21 484.472 330.296 484.28 330.472C484.083 330.648 483.94 330.906 483.846 331.249C483.752 331.593 483.703 332.015 483.703 332.514C483.703 333.013 483.752 333.406 483.85 333.746C483.948 334.085 484.091 334.347 484.284 334.523C484.476 334.699 484.713 334.789 485 334.789L484.996 334.797Z" fill="#1976D2"/>
<path d="M488.745 335.877C488.59 335.877 488.455 335.816 488.336 335.693C488.217 335.57 488.16 335.427 488.16 335.263C488.16 335.161 488.168 335.059 488.181 334.961C488.193 334.862 488.222 334.768 488.262 334.678C488.303 334.588 488.373 334.498 488.471 334.416C488.762 334.171 489.065 333.942 489.376 333.733C489.687 333.524 489.985 333.328 490.272 333.14C490.558 332.951 490.812 332.763 491.037 332.575C491.262 332.387 491.438 332.186 491.573 331.978C491.704 331.769 491.774 331.536 491.774 331.282C491.774 331.086 491.733 330.91 491.651 330.746C491.569 330.582 491.438 330.455 491.262 330.357C491.082 330.259 490.853 330.21 490.566 330.21C490.366 330.21 490.19 330.239 490.034 330.292C489.883 330.349 489.756 330.431 489.654 330.541C489.552 330.652 489.474 330.787 489.421 330.946C489.363 331.106 489.339 331.286 489.339 331.487C489.339 331.597 489.331 331.695 489.31 331.785C489.29 331.871 489.241 331.941 489.159 331.99C489.077 332.039 488.938 332.064 488.745 332.064C488.553 332.064 488.414 332.031 488.332 331.969C488.25 331.908 488.201 331.83 488.185 331.732C488.168 331.634 488.16 331.532 488.16 331.421C488.16 331.098 488.213 330.791 488.32 330.5C488.426 330.21 488.586 329.956 488.79 329.735C488.999 329.514 489.249 329.342 489.543 329.216C489.838 329.089 490.174 329.027 490.55 329.027C491.025 329.027 491.442 329.126 491.802 329.318C492.162 329.514 492.445 329.788 492.649 330.14C492.854 330.492 492.956 330.91 492.956 331.392C492.956 331.646 492.919 331.884 492.838 332.104C492.76 332.325 492.649 332.53 492.51 332.722C492.371 332.915 492.211 333.091 492.031 333.258C491.851 333.426 491.663 333.578 491.463 333.721C491.262 333.864 491.057 333.999 490.849 334.126C490.64 334.253 490.44 334.375 490.247 334.49L489.879 334.686H492.645C492.756 334.686 492.854 334.699 492.944 334.719C493.03 334.744 493.099 334.797 493.153 334.879C493.206 334.965 493.23 335.1 493.23 335.288C493.23 335.476 493.202 335.603 493.149 335.689C493.095 335.775 493.022 335.828 492.928 335.849C492.838 335.869 492.735 335.881 492.625 335.881H488.741L488.745 335.877Z" fill="#1976D2"/>
<path d="M495.94 335.995C495.686 335.995 495.461 335.97 495.265 335.921C495.068 335.872 494.892 335.811 494.745 335.741C494.593 335.672 494.467 335.602 494.36 335.532C494.254 335.463 494.168 335.406 494.102 335.352C494.025 335.287 493.959 335.226 493.906 335.164C493.853 335.103 493.828 335.029 493.828 334.943C493.828 334.878 493.844 334.812 493.881 334.743C493.918 334.673 493.975 334.595 494.053 334.505C494.123 334.415 494.196 334.35 494.266 334.309C494.336 334.272 494.405 334.252 494.471 334.252C494.528 334.252 494.593 334.268 494.659 334.301C494.728 334.334 494.814 334.391 494.917 334.477C494.97 334.522 495.031 334.571 495.105 334.616C495.179 334.665 495.277 334.706 495.395 334.743C495.514 334.78 495.674 334.796 495.866 334.796C496.087 334.796 496.279 334.755 496.439 334.669C496.603 334.583 496.73 334.464 496.82 334.309C496.91 334.153 496.955 333.965 496.955 333.744C496.955 333.544 496.905 333.364 496.811 333.204C496.717 333.045 496.59 332.922 496.431 332.828C496.271 332.738 496.095 332.693 495.899 332.693C495.796 332.693 495.698 332.705 495.612 332.725C495.526 332.75 495.449 332.779 495.379 332.82C495.31 332.86 495.252 332.901 495.207 332.946C495.154 333 495.105 333.04 495.056 333.073C495.007 333.106 494.945 333.126 494.868 333.13C494.79 333.143 494.712 333.143 494.638 333.126C494.565 333.11 494.475 333.077 494.372 333.024C494.225 332.955 494.119 332.889 494.057 332.828C493.996 332.766 493.963 332.693 493.963 332.603L494.364 329.701C494.376 329.616 494.397 329.53 494.422 329.44C494.446 329.35 494.499 329.268 494.581 329.198C494.663 329.129 494.786 329.096 494.958 329.1H497.38C497.491 329.1 497.589 329.112 497.671 329.133C497.753 329.153 497.822 329.21 497.875 329.296C497.929 329.382 497.953 329.521 497.953 329.71C497.953 329.877 497.929 330.004 497.879 330.086C497.83 330.168 497.765 330.217 497.679 330.238C497.593 330.258 497.503 330.266 497.405 330.266H495.477L495.265 331.715C495.33 331.67 495.395 331.633 495.469 331.604C495.539 331.576 495.612 331.551 495.69 331.535C495.768 331.518 495.837 331.51 495.911 331.51H495.968C496.255 331.51 496.525 331.567 496.787 331.682C497.045 331.797 497.278 331.952 497.482 332.153C497.687 332.353 497.847 332.586 497.965 332.844C498.084 333.106 498.141 333.38 498.141 333.671C498.141 334.113 498.043 334.509 497.851 334.857C497.654 335.209 497.392 335.483 497.057 335.684C496.721 335.884 496.349 335.987 495.932 335.987L495.94 335.995Z" fill="#1976D2"/>
<path d="M374.609 323.101C373.696 323.101 372.776 322.966 371.847 322.687C370.914 322.409 370.026 322.004 369.179 321.468C368.331 320.932 367.57 320.253 366.899 319.438C366.228 318.624 365.7 317.683 365.315 316.627C364.931 315.567 364.738 314.381 364.734 313.059C364.734 311.774 364.919 310.616 365.299 309.585C365.676 308.554 366.195 307.646 366.854 306.864C367.513 306.082 368.27 305.428 369.121 304.904C369.977 304.38 370.873 303.983 371.81 303.713C372.747 303.443 373.684 303.296 374.613 303.275C375.542 303.275 376.352 303.378 377.04 303.59C377.727 303.803 378.292 304.02 378.73 304.241C379.168 304.462 379.45 304.622 379.581 304.712C379.88 304.896 380.166 305.104 380.449 305.338C380.727 305.571 380.878 305.861 380.899 306.213C380.899 306.418 380.862 306.61 380.788 306.786C380.715 306.962 380.612 307.146 380.481 307.33C380.26 307.666 380.039 307.907 379.827 308.059C379.614 308.21 379.393 308.284 379.172 308.284C378.967 308.284 378.775 308.231 378.599 308.116C378.423 308.006 378.202 307.867 377.944 307.699C377.813 307.605 377.604 307.486 377.314 307.339C377.023 307.191 376.647 307.048 376.184 306.909C375.722 306.77 375.141 306.704 374.453 306.704C373.672 306.704 372.898 306.852 372.137 307.142C371.376 307.433 370.693 307.854 370.091 308.403C369.49 308.955 369.011 309.63 368.659 310.428C368.307 311.23 368.135 312.151 368.135 313.19C368.135 314.229 368.315 315.154 368.671 315.964C369.027 316.771 369.506 317.45 370.112 317.998C370.717 318.546 371.401 318.956 372.166 319.234C372.927 319.512 373.7 319.647 374.482 319.647C375.112 319.647 375.661 319.586 376.127 319.463C376.59 319.34 376.982 319.193 377.298 319.013C377.613 318.837 377.854 318.702 378.022 318.608C378.226 318.477 378.423 318.354 378.607 318.244C378.791 318.133 378.988 318.076 379.192 318.076C379.413 318.076 379.634 318.149 379.847 318.297C380.06 318.444 380.281 318.686 380.506 319.021C380.637 319.226 380.739 319.422 380.813 319.606C380.886 319.79 380.915 319.987 380.899 320.191C380.882 320.527 380.739 320.809 380.469 321.042C380.199 321.276 379.917 321.476 379.618 321.644C379.471 321.738 379.18 321.906 378.754 322.147C378.329 322.389 377.768 322.61 377.081 322.806C376.393 323.002 375.567 323.101 374.601 323.105L374.609 323.101Z" fill="white"/>
<path d="M392.263 323.141C390.925 323.141 389.669 322.895 388.494 322.396C387.32 321.897 386.293 321.197 385.409 320.297C384.525 319.396 383.829 318.353 383.322 317.162C382.818 315.976 382.565 314.699 382.561 313.345C382.561 311.949 382.794 310.644 383.277 309.425C383.755 308.205 384.431 307.133 385.29 306.212C386.154 305.288 387.156 304.567 388.298 304.044C389.44 303.52 390.663 303.258 391.965 303.254C393.303 303.254 394.559 303.499 395.733 303.999C396.908 304.498 397.931 305.202 398.807 306.11C399.682 307.018 400.374 308.078 400.877 309.285C401.381 310.492 401.639 311.794 401.639 313.189C401.639 314.548 401.405 315.824 400.922 317.027C400.44 318.226 399.764 319.29 398.893 320.211C398.021 321.136 397.018 321.852 395.885 322.367C394.751 322.883 393.544 323.141 392.259 323.145L392.263 323.141ZM392.091 319.74C392.947 319.74 393.753 319.568 394.502 319.233C395.255 318.897 395.909 318.431 396.466 317.833C397.023 317.236 397.456 316.544 397.771 315.751C398.086 314.961 398.242 314.11 398.238 313.197C398.234 312.285 398.074 311.462 397.759 310.673C397.44 309.883 396.998 309.187 396.429 308.586C395.86 307.984 395.21 307.509 394.473 307.17C393.736 306.826 392.943 306.658 392.087 306.658C391.252 306.658 390.459 306.834 389.718 307.182C388.973 307.53 388.322 308.001 387.754 308.594C387.189 309.191 386.747 309.883 386.436 310.677C386.121 311.466 385.965 312.317 385.969 313.23C385.969 314.122 386.137 314.965 386.465 315.755C386.792 316.544 387.234 317.24 387.795 317.842C388.355 318.443 389.002 318.914 389.738 319.245C390.475 319.577 391.261 319.744 392.095 319.74H392.091Z" fill="white"/>
<path d="M405.684 322.883C405.144 322.883 404.755 322.805 404.514 322.649C404.272 322.494 404.117 322.281 404.051 322.023C403.986 321.762 403.953 321.483 403.953 321.189L403.912 305.095C403.912 304.78 403.937 304.494 403.994 304.244C404.051 303.994 404.199 303.79 404.44 303.63C404.681 303.471 405.07 303.393 405.61 303.389C406.151 303.385 406.507 303.467 406.74 303.622C406.973 303.782 407.12 303.982 407.186 304.236C407.251 304.485 407.284 304.772 407.284 305.087L407.321 319.871L415.8 319.851C416.078 319.851 416.336 319.871 416.569 319.92C416.803 319.965 416.983 320.096 417.114 320.309C417.245 320.522 417.31 320.861 417.31 321.328C417.31 321.794 417.249 322.134 417.118 322.347C416.987 322.559 416.811 322.699 416.59 322.768C416.369 322.834 416.115 322.866 415.837 322.866L405.684 322.891V322.883Z" fill="white"/>
<path d="M428.252 323.051C426.913 323.051 425.657 322.805 424.483 322.306C423.308 321.807 422.281 321.107 421.397 320.207C420.513 319.307 419.817 318.263 419.31 317.072C418.807 315.886 418.553 314.609 418.549 313.255C418.549 311.859 418.782 310.554 419.265 309.335C419.744 308.115 420.419 307.043 421.278 306.123C422.142 305.198 423.144 304.478 424.286 303.954C425.428 303.43 426.651 303.168 427.953 303.164C429.291 303.164 430.547 303.41 431.722 303.909C432.896 304.408 433.919 305.112 434.795 306.02C435.671 306.929 436.362 307.988 436.866 309.196C437.369 310.403 437.627 311.704 437.627 313.099C437.627 314.458 437.394 315.734 436.911 316.937C436.428 318.136 435.753 319.2 434.881 320.121C434.009 321.046 433.007 321.762 431.873 322.277C430.74 322.793 429.532 323.051 428.247 323.055L428.252 323.051ZM428.076 319.65C428.931 319.65 429.737 319.479 430.486 319.143C431.239 318.807 431.894 318.341 432.45 317.744C433.007 317.146 433.44 316.455 433.756 315.661C434.071 314.871 434.226 314.02 434.222 313.107C434.218 312.195 434.058 311.372 433.743 310.583C433.424 309.793 432.982 309.097 432.413 308.496C431.844 307.894 431.194 307.42 430.457 307.08C429.721 306.736 428.927 306.569 428.071 306.569C427.216 306.569 426.443 306.744 425.702 307.092C424.957 307.44 424.307 307.911 423.738 308.504C423.173 309.101 422.731 309.793 422.42 310.587C422.105 311.377 421.949 312.228 421.954 313.14C421.958 314.053 422.121 314.875 422.449 315.665C422.776 316.455 423.218 317.15 423.779 317.752C424.339 318.353 424.986 318.824 425.723 319.155C426.459 319.487 427.245 319.654 428.08 319.65H428.076Z" fill="white"/>
<path d="M441.471 322.768C440.967 322.768 440.599 322.694 440.37 322.547C440.137 322.4 439.981 322.195 439.907 321.933C439.834 321.671 439.793 321.385 439.793 321.07L439.752 304.976C439.752 304.678 439.789 304.408 439.862 304.166C439.936 303.925 440.096 303.72 440.337 303.552C440.579 303.385 440.959 303.299 441.479 303.299C441.868 303.299 442.162 303.323 442.359 303.381C442.555 303.438 442.707 303.503 442.821 303.589C442.932 303.671 443.046 303.777 443.157 303.908L449.958 313.373H449.344L456.129 303.818C456.26 303.671 456.387 303.557 456.518 303.483C456.649 303.409 456.817 303.352 457.021 303.315C457.226 303.278 457.496 303.258 457.831 303.258C458.351 303.258 458.732 303.34 458.977 303.507C459.219 303.675 459.374 303.888 459.44 304.146C459.505 304.408 459.538 304.686 459.538 304.981L459.579 321.074C459.579 321.352 459.546 321.622 459.485 321.884C459.419 322.146 459.268 322.351 459.026 322.498C458.785 322.645 458.396 322.723 457.856 322.723C457.353 322.723 456.984 322.645 456.755 322.49C456.522 322.334 456.366 322.126 456.293 321.864C456.219 321.602 456.178 321.324 456.178 321.029L456.15 309.064L451.12 316.413C451.063 316.507 450.981 316.614 450.871 316.732C450.76 316.855 450.609 316.958 450.424 317.039C450.24 317.125 449.987 317.166 449.672 317.166C449.356 317.166 449.107 317.125 448.931 317.043C448.755 316.962 448.608 316.859 448.497 316.737C448.387 316.618 448.284 316.499 448.19 316.389L443.153 309.122L443.181 321.115C443.181 321.393 443.149 321.663 443.087 321.925C443.022 322.187 442.87 322.392 442.629 322.539C442.387 322.686 442.007 322.764 441.487 322.764L441.471 322.768Z" fill="white"/>
<path d="M464.067 322.71C463.564 322.71 463.195 322.628 462.966 322.46C462.733 322.292 462.585 322.071 462.52 321.793C462.455 321.515 462.422 321.208 462.422 320.872L462.381 305.028C462.381 304.713 462.409 304.419 462.475 304.149C462.54 303.879 462.692 303.658 462.933 303.478C463.175 303.302 463.547 303.212 464.046 303.212L471.412 303.195C472.489 303.195 473.438 303.441 474.261 303.94C475.079 304.439 475.73 305.106 476.204 305.945C476.679 306.78 476.921 307.692 476.921 308.678C476.921 309.124 476.871 309.562 476.769 309.988C476.667 310.418 476.511 310.814 476.299 311.187C476.086 311.559 475.82 311.895 475.505 312.193C475.934 312.529 476.307 312.942 476.622 313.433C476.937 313.924 477.178 314.448 477.338 315.009C477.498 315.565 477.579 316.15 477.579 316.764C477.563 317.603 477.408 318.376 477.109 319.092C476.814 319.808 476.397 320.439 475.857 320.979C475.316 321.519 474.698 321.94 473.991 322.239C473.283 322.538 472.53 322.689 471.732 322.689L464.059 322.71H464.067ZM465.786 319.416L471.449 319.403C471.969 319.403 472.444 319.297 472.869 319.092C473.295 318.888 473.63 318.569 473.872 318.143C474.113 317.713 474.232 317.157 474.232 316.469C474.232 315.929 474.158 315.5 474.019 315.172C473.88 314.849 473.688 314.595 473.446 314.419C473.205 314.243 472.943 314.121 472.665 314.043C472.386 313.969 472.1 313.924 471.813 313.904C471.523 313.887 471.261 313.875 471.02 313.879H469.763C469.28 313.883 468.924 313.773 468.703 313.552C468.478 313.331 468.368 312.95 468.368 312.41C468.368 311.87 468.486 311.522 468.728 311.31C468.969 311.097 469.342 310.986 469.841 310.986H471.069C471.31 310.986 471.576 310.974 471.863 310.954C472.149 310.933 472.423 310.864 472.685 310.741C472.947 310.618 473.16 310.418 473.323 310.139C473.487 309.861 473.573 309.46 473.573 308.94C473.573 308.106 473.352 307.496 472.914 307.115C472.476 306.735 471.736 306.547 470.696 306.551L465.757 306.563L465.79 319.42L465.786 319.416Z" fill="white"/>
<path d="M488.918 322.904C487.579 322.904 486.323 322.659 485.149 322.16C483.974 321.66 482.947 320.961 482.063 320.06C481.179 319.16 480.483 318.117 479.976 316.926C479.473 315.739 479.219 314.463 479.215 313.108C479.215 311.713 479.448 310.408 479.931 309.188C480.41 307.969 481.085 306.897 481.944 305.976C482.808 305.051 483.81 304.331 484.952 303.807C486.094 303.284 487.317 303.022 488.619 303.018C489.957 303.018 491.213 303.263 492.388 303.762C493.562 304.262 494.585 304.965 495.461 305.874C496.337 306.782 497.028 307.842 497.532 309.049C498.035 310.256 498.293 311.557 498.293 312.953C498.293 314.311 498.06 315.588 497.577 316.791C497.094 317.99 496.419 319.054 495.547 319.974C494.675 320.899 493.673 321.615 492.539 322.131C491.406 322.646 490.198 322.904 488.913 322.908L488.918 322.904ZM488.742 319.5C489.597 319.5 490.403 319.328 491.152 318.992C491.905 318.657 492.56 318.19 493.116 317.593C493.673 316.996 494.106 316.304 494.422 315.51C494.737 314.72 494.892 313.869 494.888 312.957C494.884 312.044 494.724 311.222 494.409 310.432C494.09 309.642 493.648 308.947 493.079 308.345C492.511 307.744 491.86 307.269 491.123 306.929C490.387 306.586 489.593 306.418 488.737 306.418C487.903 306.418 487.109 306.594 486.368 306.942C485.627 307.29 484.973 307.76 484.404 308.353C483.839 308.951 483.397 309.642 483.086 310.436C482.771 311.226 482.615 312.077 482.62 312.99C482.62 313.882 482.787 314.725 483.115 315.514C483.442 316.304 483.884 317 484.445 317.601C485.005 318.203 485.652 318.673 486.389 319.005C487.125 319.336 487.911 319.504 488.746 319.5H488.742Z" fill="white"/>
<defs>
<clipPath id="clip0_414_8">
<rect width="220.203" height="375.64" fill="white" transform="translate(109.67)"/>
</clipPath>
</defs>
</svg>
