<?xml version="1.0" encoding="UTF-8"?>
<svg id="Layer_1" xmlns="http://www.w3.org/2000/svg" xmlns:xlink="http://www.w3.org/1999/xlink" version="1.1" viewBox="0 0 499 405">
  <!-- Generator: Adobe Illustrator 29.1.0, SVG Export Plug-In . SVG Version: 2.1.0 Build 142)  -->
  <defs>
    <style>
      .st0 {
        fill: none;
      }

      .st1 {
        fill: #215ba6;
      }

      .st2 {
        fill: #09a9e8;
      }

      .st3 {
        fill: #f74413;
      }

      .st4 {
        fill: #94e3fd;
      }

      .st5 {
        fill: #000462;
      }

      .st6 {
        fill: #023888;
      }

      .st7 {
        fill: #001504;
      }

      .st8 {
        fill: #4dc1f2;
      }

      .st9 {
        fill: #faa004;
      }

      .st10 {
        fill: #269aeb;
      }

      .st11 {
        fill: #fe7b00;
      }

      .st12 {
        fill: #1c4f9b;
      }

      .st13 {
        fill: #1b4a94;
      }

      .st14 {
        fill: #3cadf6;
      }

      .st15 {
        fill: #f99e05;
      }

      .st16 {
        fill: #2299ed;
      }

      .st17 {
        fill: #f69f07;
      }

      .st18 {
        fill: #c0eefc;
      }

      .st19 {
        fill: #0591fb;
      }

      .st20 {
        fill: #43b1fd;
      }

      .st21 {
        fill: #004597;
      }

      .st22 {
        fill: #ed8209;
      }

      .st23 {
        fill: #003d8c;
      }

      .st24 {
        fill: #003178;
      }

      .st25 {
        fill: #15a1e6;
      }

      .st26 {
        fill: #fea707;
      }

      .st27 {
        fill: #0024d2;
      }

      .st28 {
        fill: #de2700;
      }

      .st29 {
        fill: #fe9c00;
      }

      .st30 {
        fill: #0b3a83;
      }

      .st31 {
        fill: #e42a0b;
      }

      .st32 {
        fill: #21aae9;
      }

      .st33 {
        fill: #010660;
      }

      .st34 {
        fill: #00765a;
      }

      .st35 {
        fill: #84d0fe;
      }

      .st36 {
        fill: #38b8e9;
      }

      .st37 {
        fill: #003887;
      }

      .st38 {
        fill: #f64413;
      }

      .st39 {
        fill: #2096ed;
      }

      .st40 {
        fill: #1976d2;
      }

      .st41 {
        fill: #2399ec;
      }

      .st42 {
        fill: #f98703;
      }

      .st43 {
        fill: #3bacf6;
      }

      .st44 {
        fill: #3ab8ea;
      }

      .st45 {
        fill: #42b2fb;
      }

      .st46 {
        fill: #1e95ed;
      }

      .st47 {
        fill: #1076d7;
      }

      .st48 {
        fill: #0050a5;
      }

      .st49 {
        fill: #023685;
      }

      .st50 {
        fill: #1f96ee;
      }

      .st51 {
        fill: #1197f6;
      }

      .st52 {
        fill: #2e2e2e;
      }

      .st53 {
        fill: #8be1fd;
      }

      .st54 {
        fill: #47bff0;
      }

      .st55 {
        fill: #012c70;
      }

      .st56 {
        fill: #1496f4;
      }

      .st57 {
        fill: #4abff1;
      }

      .st58 {
        fill: #0287ef;
      }

      .st59 {
        fill: #0053aa;
      }

      .st60 {
        fill: #f64313;
      }

      .st61 {
        fill: #4fcdfb;
      }

      .st62 {
        fill: #4eb2fc;
      }

      .st63 {
        fill: #023986;
      }

      .st64 {
        fill: #062915;
      }

      .st65 {
        fill: #269bea;
      }

      .st66 {
        fill: #0f75d7;
      }

      .st67 {
        fill: #c91203;
      }

      .st68 {
        fill: #3cacf6;
      }

      .st69 {
        fill: #04106a;
      }

      .st70 {
        fill: #2ab1ee;
      }

      .st71 {
        fill: #80cdfe;
      }

      .st72 {
        fill: #092916;
      }

      .st73 {
        clip-path: url(#clippath);
      }

      .st74 {
        fill: #fd9c01;
      }

      .st75 {
        fill: #00533f;
      }

      .st76 {
        fill: #033886;
      }
    </style>
    <clipPath id="clippath">
      <rect class="st0" x="109.7" width="220.2" height="375.6"/>
    </clipPath>
  </defs>
  <path class="st54" d="M160,378.8c2,.9,2.9,4.9,1.7,6.8,1-.2,1.6.6,1.9,2.3,3.2,0,21.3-.3,22.4,2.1.9,1.9-1.8,4.1-3.2,2.4,0,.4-.1,1.1-.4,1.1-5.3.3-12.5.3-17.8,0l-.7-1.1,1.2.4,1,6.4,53.9,2.7c1.9.4,2.2,2.6,0,2.4h-52.6c.4,0,.1.3-.8.5-11,0-21.9,0-32.9,0-.9,0-3.1-2.2-2.5-2.8,5.9-.5,4.9-4.3-.3-5.1H48.4c-4.3-.8-5.6-5.7-1.1-7.2,12.1-1.2,26.2,1.2,38.1-.1,1.5-.2,3.1-.7,4.2-1.7,1-1.8,0-3.3-1.8-3.9-2,.1-4.9-1.6-2.6-3.1,1-.6,20.8-1.8,22.8-1.4,1.6.3,3,.6,2.5,2.6-3.7-.4-6.6-.2-8.6.8,0,.4.3.6.6.6,1.5,0,11.9.2,12.5,0,.2,0,.4-.3.5-.6l-1.9-.6c-3,.2-4.4-1-1.4-2.7l34.7.6c4.4,0,8.6-.9,12.5-1.8.8-.8,1.1-.4.6.6h0Z"/>
  <path class="st70" d="M161.6,385.5c.4-2.6,2.6-3.4,6.6-2.2,9.1-.4,17.4-.2,25.5,3.4,5.4-.8,11.2-.6,16.8-.4l45.9,2.6c3.4-1.2,6.8-1.3,10-.3,3.2-2.3,5.9-2,6,2.5,1.3,1.7,0,6.3-.7,8.6-.1,2-.8,3.1-2.1,3.2.8.9-.3,1.4-1.1,1.7-33.9,0-67.9.1-101.9,0-.3-1.7.9-1.1,1.9-1.1,16.7-.6,33.5.6,50.1,0,.7,0,2.1.4,2-.6l-55.7-2.8-1.1-7.9h18.9c.4,0,2.1-.9,2.5-1.4,0-2.2-20-2-22.1-2-.9-.3-1.1-2.3-1.5-3.3h0Z"/>
  <path class="st44" d="M433.9,371.4c.4,0,.8,0,1.1,0,2.9,5.5-.6,11.5-6.8,11.9-24-.5-47.8-.5-71.4,0-3.2,1.4-11-.9-9.6,5.1-3.6.8-2.3-4.5.5-5.5-5.3-.1-10.5-.1-15.8,0-.8.7-1.5.9-2.2.5-1,.6-2.2-.7-1.8-1.3-14.6.2-29.3.3-44,.2-1.5,0-2.9-.2-4.4-.4-1.5-.2-3-.5-4.4-.8-1.9-.3.8-9.1,1.3-9.1,51.9,0,103.6-.1,155.1-.4h2.2Z"/>
  <path class="st36" d="M77.2,372c26.3.2,53.2.4,80.5.6.1-.5.3-.5.6,0,1.7.8,2.4,4.3,1.1,5.6-.6.8-.9,1.4-2,1.7-1.4.3-5.3,1-6.8,1.1-4.9.4-11.2,0-16.2,0-7.3,0-14.6-.4-21.9-.5l-1.4,1.1c1.7,0,3.3-.3,4.5,1.1-.2.3-.4.5-.7.7-.9.5-11.2,0-12.8-.7.1-.2-.3-1,.4-1.1,1.9-.5,5.4.4,7.5,0,0-.9-1.9-1.1-2.5-1.1-6.9-.6-14.6,1.8-21.7,1.1-.5,2.5.9,1.3,2.7,2.1,1.8.8,2.9,2.5,1.3,4.1.2-1.6-.3-2.9-1.8-3.5-1.1-.5-5.4-.9-6.9-1-24-1.6-49.5,1.3-73.6-.2-4.8-.7-7.8-4.2-7.2-9.2.2-1.8,1-1.6,1.2-1.9,24.7-.5,51.1-.4,76,0h0Z"/>
  <path class="st8" d="M273.6,387.2c1.1.4,2.1,1.2,3.1,2.4,5.2.8,10.4,1.5,15.7,2.2l5.8-1.2c2.4,0,2.9,1.4,2.1,3.2.1,1.8,16.8,1.6,18.8.2-1.5-.3-1.4-.6,0-1.1-4.5-.9-5.3-2.4-2.5-4.5,2.6-.3,5.3-.1,8.2.6,14.2,0,28.4.2,42.6,1,2,.2,2.3,4.1,0,5.6-14.2.9-28.4,1.2-42.8,1.1-1.7.8-2.4,1.9-2.2,3.4.9,1.6,2.3,1.7,3.9,2.3,0,.9-1.1,1.7-3.4,2.3-8,.8-18.7,0-27,0-1.8-.5-3.8-.5-5.6,0-2.8,0-5.6,0-8.4,0-2.3-.6-4.6-.6-6.8,0h-1.7c-1-.3-2.4-.6-4.4-1l.5-.7c1.2-3,1.9-8.4,2.8-11.8-.9-1.8-.7-3,1.1-3.9h0Z"/>
  <path class="st57" d="M329.9,383.3c.5-.3.7-1.4,2.1-1.6,3.8-.5,7.8,0,11.7.2,2.3.1,5.9-1,7.6,1.4-2.8-.4-7,2.8-3.9,5.1,3.7,2.8,15.5-.2,20.3,1.7,0,0-.4.5-.8.5-5.1-.7-12.8-.9-18-.5-4.6.4-3,.7-7.8,0-5.2-.7-12,.6-18,0-1.2-.1-5.4-2.2-6.5.3-.9,2,2.1,1.1,2.8,2.5-.4.4-.5.8,0,1.1-.3,1.3-1.5,1.1-2.5,1.2-3.2.2-12.5.5-15.2,0-2.1-.4-1.4-3.2-2.3-3.4-1-.2-4.5,1.2-6.7,1.2s-3.8-.9-5.7-1.1c-4.7-.5-11.4,1.2-13.2-4.5-1.8-.6-1-3.2.8-3.1,18.2.2,36.3,0,54.3-.3-.4-1.4,0-1.6,1.1-.6h0Z"/>
  <path class="st2" d="M428.3,383.2c-23.8-.4-47.7.5-71.5,0-.3,0-2.9.4-2-.6,23.4.2,46.9-.3,70.3,0,1,0,2.5-.4,3.1.6h0Z"/>
  <path class="st44" d="M367.6,395.7c-1.2.7-2.8,1-4.2,1.1-12.1,1-26-1.2-38,0h-.6l42.8-1.1Z"/>
  <path class="st57" d="M269.6,402.9c.9,2.6,4.4-1,4,1.7h-5.1c-.3-1,1.1-1.5,1.1-1.7Z"/>
  <path class="st57" d="M282,404.7c-2.2,0-4.5,0-6.7,0,.7-1.5,5.3-.6,6.7,0Z"/>
  <path class="st57" d="M326.5,402.4c.3.1,1.1-.3,1.1.3-1.1,1.5-2.7,1.7-4.5,1.9.5-1.6,2.7-.5,3.3-2.2Z"/>
  <path class="st57" d="M324.8,396.8c.2,0,.4,0,.6,0-1,1.1-2.8,1.6-2.9,3.3-1-1.7.3-3,2.3-3.3h0Z"/>
  <path class="st57" d="M296.1,404.7c-1.9,0-3.7,0-5.6,0,1.2-1.1,4.4-1.1,5.6,0Z"/>
  <path class="st25" d="M431.6,371.4c0,0-.9.6-1.9.6-50.8.9-101.7-.8-152.4,0l-2,9.1c-.1.5-.3.5-.6,0l-.7,1.1c-1.8.3-11.4.6-12.7.1-.4-.1-.6-.8-.7-1.3l-1.6.8c-9.9-.8-20-1.1-30.2-1.1-21.7.2-43.4-.6-65-2.6-1.3.1-2.6.3-3.8.6,0-.2-.5-.4-.6-.6-.5-1.8-1-3.8-1.1-5.7,8.8,0,17.7.2,26.4-.3-7.8-.6-15.6-.2-23.4-.3-1,0-2.5.4-3.1-.6,91.1,0,182.2,0,273.3,0h0Z"/>
  <path class="st32" d="M160,378.8c1.1-2.1,2.7-1.8,4.8-1.7,7.2.3,14.3.9,21.3,1.2,3.5.2,6.2,1,8.5,1.1,14.9.6,29.5-.3,44.4.6,8.1.5,13.9-1.1,21.7,1.1.3,1.6,1.9,2.2,4.7,1.8h8.1c0,0,.7,1,.7,1,18.1-1.7,36.5-1.9,54.6,0-.3,0-.7.8-1.3.6h-52.8c-.8.1-.7,2.1-.9,2.8-.4,1.3-.8,2.6-1.1,4-1.2-.3-.8-1.8-1.5-2.3-1.9-1.5-3,.8-4.4.9-1.3.1-3.2-.9-4.5-.9-1.7,0-3,1.3-5.6,1.2-19.5-.5-38.9-3-58.4-2.8-1.4,0-2.7.7-4.6.5-2.8-.2-5.4-2.4-7.9-2.8-5.1-.8-11.6-.6-16.9-.6-2.7,0-4.4-1.6-7,1.1-.7-2.2-1.1-4.6-1.7-6.8h0Z"/>
  <path class="st53" d="M115.5,382.7c.2.2.5.8.6,1.1-.7.9-13.8.9-14.6,0-.2-.8.5-1,.6-1.1,4.6-1,8.9-.4,13.5,0h0Z"/>
  <path class="st4" d="M329.8,383.2c-.3.2-.9.5-1.1.5-18.2,0-36.3.1-54.5,0-1.7-.1-1-2.8.6-2.7h.6c17.7.2,35.4-.1,53.1,0l1.4,2.2h0Z"/>
  <path class="st18" d="M319.2,392.8s0,1.1,0,1.1c-.8.7-12.9.7-14.9.6-5-.3-5-1.9,0-2.2,2-.1,14.2-.1,14.9.6h0Z"/>
  <path class="st57" d="M274.7,381l-.6,2.8c-2.2,0-13.6.4-14.3-.6-.7-.9.5-1.6.8-2.3,2.2.6,10.9,0,14,0h0Z"/>
  <g class="st73">
    <g>
      <path class="st34" d="M213.8,320.6l-.4-1.3c1.4-52,2.2-105.5,2.7-157.8l.6-.6c1.3-.7,13.3-1,13.3.3.1,28.4,1.3,57.1,2.6,85.8-.3,2.6-.2,2.7.2.4l.5,5.1c.7,13.1,1.5,26.3,2.8,39.4.9,9.6,2,19.4,4.1,28.8-8.8.7-17.6.7-26.4,0h0Z"/>
      <path class="st23" d="M158.4,243.4c-3.1,7.5-4.4,16.3-6.2,24.2l-2.3,13.5c-2.4,15.7-2.7,32.3-2.6,48.4,0,0,0-.7.1-1.1l2.8,38h5.5c.4.4-.8.5-.7.4.2-.2.6-.4,1.1-.4,1-.2,2.1-.3,3.1-.3,9.9-.6,19.8-.4,29.7-.2.4,0,.7,0,1,.2.4,0,.7.2,1,.4,30.7-.9,61.5-.7,92.3-.3,0,0-.2.1-.4-.6.1-2.4.2-4.8.2-7.1-.7-.2-.9-.5-.6-1l1.6.4v8.7h41.7c.5,0,2.6,1.2,3,1.6,2.6,2.9.6,6.7-2.9,7.4H113.8c-4.1-.5-5.8-5.5-2.3-8,.6-.4,2.1-1.1,2.7-1.1h24.6c0-2.5-.2-4.9-.3-7.4v-16.5c.6-30.1,5.7-75.6,18.9-102.8.5-.7,2.4-.8,2,1.3l-1.1,2.3Z"/>
      <path class="st75" d="M219.5,130.5l.7.5c.3,4.6.3,9.1,0,13.7l-.5.7c0,.9-4.3.6-4.5.4,0,0-.1-.2-.2-.4.6.3.9,1.1.9,2.2,4.3,0,8.6,0,12.7.4,1,.1,3.8.5,3.4,1.8-.4.2-1.6.2-1.6.3-.2.2.1,5.2,0,6-.5.3-.7.1-.8-.4v-4c-4.1-.7-8.1-1.1-12.3-1l-.4-.4c.8-.2.7,4.3.6,4.6,0,.2-.3.3-.6.4v.4c-1.5,0-1.4,1-.8,2.1,5.4-.4,10.6,0,15.6,1.4l.6.8c-.4.4-1.6.2-2,.5-.3.2,0,.6-.2.9-.2,1.7-.2,3.5,0,5.2,0,3.8,0,7.5,0,11.3l.3,4.7c0,2.7,0,5.3,0,8l.3,3.6c0,5.2.2,10.3.3,15.4l.3,2.8c0,7.2.5,14.2.8,21.3.2,4.5.2,9.1.5,13.6l-.3,1.6c-.4-9.5-.8-19-1.4-28.5,0-12.4-.8-24.8-1.1-37.2-.2-7.2,0-14.5-.3-21.7-.1-.4-3.1-.7-3.7-.7-1.2,0-9.3,0-9.5.7-.5,18.9-.3,37.8-.5,56.7-.4,29.8-1.1,59.7-1.9,89.5-.1,4.3.2,8.6-.3,12.8-4.7.7-9.4.7-14,0h-.3l4.1-28.1c.4,1.4.5,1.4.2,0,1.2-13.7,2.3-27.5,3.1-41.3,1.3-26.9,2.3-53.8,3-80.7-.1-1.6-.2-10.4-.2-9.9,0,.1-.2.1-.4,0-.6,0-2.3-.3-2.4-.9,0-.2.2-2.5.3-2.6.3-.5,1.7-.4,1.8-.7,0-.3.2-5.9,0-6.2-.2-.2-1.8.4-1.9-1.2-.3-2.5,1.7-2,1.9-2.8,0-.2-.3-1.9-.4-2.3-1.3-5.1-6.4-10.8-9.2-15.5l-.6-2c-.2-.9-.4-5.3,1-4.4,2.3,2.9,4.8,5.4,7.6,7.8.4-3.3,1.4-6.5,2.6-9.5l.9-.7c.2,0,.4,0,.6,0,1.9.4,6.9,7.7,8.2,10.1l-.3.8h0Z"/>
      <path class="st26" d="M158.2,240.7c-.2.3-1.7.9-1.5.6,0-.2-.3-.2-.4-.1-1.8.6-8.1,5.7-9.9,7.2-.6.5-3.2,3.2-3.6,3.3-.7.3-.4-1.6-.4-2,0-.4-.1-1.7-.5-1.8-.4,1.4-.9,5.1-1.6,6.2-.4.7-2.8,2.3-3.6,3-3.7,3.5-7.1,7.2-10.2,11.2v-6.7c0-1.1,1.1-4.8,1.5-6,3.9-11.5,14.5-18.1,26.3-18.7l-3.8-1c-4.4-.6-8.8-.9-13.3-.9.4-1,1.2-1.6,1.9-2.3,0-.2-.3-.2-.4-.1-1.9.6-4.4,2.5-6.2,2.9-2,.4-4.5.4-6.6.8-2.7.5-5.4,1.4-8,2.4,6.5-14.3,26.3-19.2,37.2-6.6-3.3-9.1-7.8-18-14.6-25.1,8.8,1.2,16.4,7.6,18.9,16.2.2.8.9,3.4.9,4.1v4.5l2.5-4.2c5.4-7.7,14.2-12.3,23.8-11.5.7,0,4.5.8,4.8,1.1.5.5-.1.5-.4.6-10.3,3.1-19.2,8.4-26.6,16.2,6.4-2.8,13.5-3.8,20-.6,6.6,3.2,11,11.4,11.6,18.5l-5.5-4c-1.7-1.3-4.3-2.1-6-3.3-1.5-1-2.8-3.1-4.3-4.2,0,.8.4,1.7.6,2.5,0,.3.3.4-.3.3-1.4-.2-3.9-1.5-5.4-2-3.8-1.2-7.8-2.3-11.8-2.4l4.2,2.3c9.9,6.6,14.6,16.1,11.3,28l-1.8,4.1c-1.8-5.9-4.9-11.2-8.5-16.2l-.3-6.1-1.3,3.2-.6.3-6.8-12.4c-.6-.7-.7-2.4-.6-.7h-.4c0,0-.4-.3-.4-.3Z"/>
      <path class="st48" d="M268.5,349.8l.5.2v6.7c1-.2,1.7,0,1.9.5.7,0,2.6.2,3,0,.2-1.7.2-3.4,0-5.1-.6-3.4,2.7-3.6,2.3-.2-.1,1.8,0,3.5,0,5.2.7.2,2.2-.2,3,0,0-.8,0-1.7,0-2.5.7-.3,1,.4.9,1.9h1s0-6.5,0-6.5l.6-.4c.8.8-.2,6.4.3,7.7.2.5,1.1,0,1.1.4.4,2.4-.4,6.1,0,8.7-30.8,0-61.7,0-92.5,0-.2,0-.5,0-.6-.2-.2-1.8-.2-6.7,0-8.4l.6-.4c0-.7,0-.7.6-.3.2-.9,2.5-.5,2.8.3h51.2c.9-.5,1.8-.5,2.8,0,1-.5,2-.5,3,0,.9-.7,1.8-.7,2.8,0,1-.5,2-.5,3,0,.9-.5,1.8-.5,2.8,0,.9-.5,1.8-.5,2.8,0,.9-.7,1.9-.7,2.8,0,.6-.8,1.6-.8,2.2,0,.3,0,.6,0,.8,0,.2-1.4-.4-7,.3-7.7h0Z"/>
      <path class="st11" d="M219.8,325.8c.9-.1,1.9-.3,2.8-.4s1.9-.2,2.8-.2c12.1,0,24.3,0,36.4,0,1.9,0,3.7.2,5.6.5v8.3c-.5.2-.7.1-.8-.4v-3.7c-1.2.1-2.2,0-3.1-.3-.4.3-.9.5-1.5.6-2.3.2-5.3.2-7.4-.6-.4.5-.9.5-1.4,0-1.5.8-3.1.7-4.7,0h-4.6c-.7.5-2.8.6-3.4-.3l.6.2v24.3l-.6.3c.1,1-2.8.6-2.7.1.5-.4.4-1.4.2-2-.8-3.3-.6-6.7-.3-10v-7.5c-.5-1.5-.4-3.1,0-4.7-3.8.4-7.6.4-11.3-.3-.4.5-.9.5-1.4,0-3.8.7-7.5.7-11.3,0-.2.5-.4.5-.6,0-4-.2-8.1-.2-12.2-.1,0,8.3,0,16.5-.1,24.6-.4,1.1-.8,1.6-1.8,2.2-1.3.8-3.6,1.2-5.1.6-.9-.4-.8-2.3,0-2.8,0-.6.3-.5.6,0,.4-.5.5-1.4.4-2.7v-4.2c-.2,0-.4-.2-.4-.3,0-3.2,0-6.4.4-9.5-.4-.2-.4-.4,0-.6-.3-2.3-.3-4.6-.2-6.9l.6-.3c0,.2,0,.5-.3.6-1.3,0-8.8.2-9.2,0-.3-.7-.6-.7-.8,0h-8.9l-.3-.6c.2,0,.5.1.6.3.2,6.2.2,13,0,19.2l-.6.3c-.1.4-.5.6-1.1.7,0,2.2,0,4.4,0,6.6.3,1.4-2.5,1.8-2.8.7v-31.7c7.9-.7,15.9-.7,23.8,0h23.8c0,0,0,0,0,0Z"/>
      <path class="st31" d="M227.5,87.9c.3.3.3.8,0,1.4,3.6,2.9,6.5,6.6,8.7,11.1.2.2,2.7-4.6,2.6-5-.6-1.3-.5-2,.3-1.9.2.5.4,1.1.6,1.7.4,0,.5-1.3,1.1-.8.2.2,1.7,3.5,1.9,4.1,0,0,.1.1.2.2.4,1.4-1.9-.7-1.9-1.5-.9,2.3-2,4.5-3.1,6.6,1.7,2.8,3.1,6.5,3.5,9.8,0,.2-.3.3-.5.4.2,0,.5.1.6.3.2,1.9.1,4.7-.6,6.4.8-2.5,2.2-4.9,3.7-7.1.4-3.8,0-7.7-1.1-11.3,0-.6.1-.8.7-.8,2.8,9.1,1.4,19.5-4.1,27.3-.2,0-.4-.3-.4-.5-.2-1.8,0-3.6.4-5.3l-7.5,7.9c-.6.2-1,.2-1.2-.4-.4-3.3-1.1-6.7-2.7-9.7l-8.2,10.1h-.6c-.3-1.4-2.3-4.1-3.2-5.3-1.6-2.1-3.3-4.1-5.3-5.8-.5-.2-.5-.4,0-.6v-1.2s7.6-14.9,7.6-14.9c-2.1-3.2-4.4-6.4-6.9-9.3-1.7,1.7-3.1,3.5-4.4,5.6h-.7c-.4.3-.9.9-1.4,1.9-.6.7-1.6-.8-.8-1.3.5-2.9,2.9-5.7,5-7.8.9-1,2.7-2.5,3.9-2.7,0-.3,0-.3.3-.3,1.5,0,.3,1.3-.4,1.9l6.8,8.8c2.4-2.8,4.6-5.8,6.8-8.9l-.3-.5c-1.6-1.4-1.9-2.1-.7-2.2.7-.2,1.3-.3,1.9-.3Z"/>
      <path class="st24" d="M184.6,354.2c-1.2,0-1.1-1.9,0-2.1l-.5-.3v-17.5l.5-.3c.3-.3.4-.5.5-.8l-.2-3.1c2-1.7,2.2,2.5,1.1,3.4.4,5.1.6,10.3.6,15.4,2.1-.2,2.2,0,2.5,1.9.1.7.2,3.2-.6,3.3.6.9.7,2,.3,3,.7-.5,1.5-.3,2.1.3v9.1c-11.9,0-24.2-.7-35.9.6-1.1.1-2.8,0-3.9,0-.3,0-1,.2-1-.3,1.1-.2,4.8.4,5.5-.3s0-2,0-2.9c0-1.4-.2-4.3,0-5.5.3-1.4,1.9-.9,1.9-1v-7.3c0-.6,2.5-.6,2.5,0v7.3h3v-7.3c0-.6,2.8-.6,2.8,0v7.3h3c-.2-.3,0-.5,0-.7v-7c.7,0,2.2-.3,2.4.5.4,1.3-.5,6.8.3,7.4.1.1.4,0,.6.1.7.1,1.5,0,2.2,0,.3-.3-.3-6.5,0-7.5.2-.6,1.1-.5,1.6-.5.3-.7.7-.7,1.2-.2.7.5.8,4.5-.1,4.9.6.8.6,1.8.5,2.8,1.8.5,2.4-.4,1.9-2.4l.5-.3c-.2,0-.5,0-.6-.2-.1-.6,0-3.9,0-4.2.5-1,2.9-1.2,3.5-.3.3.5.7,4.6-.3,4.7.4.4.4,1,.2,2-.2,1,2.3,1.1,2.3.2,0-1.3,0-1.5-.9-2.2h0Z"/>
      <path class="st59" d="M213.8,320.6c8.8,0,17.6,0,26.4,0,10.4,0,20.8,0,31.3,0,.3,0,1,.2,1,.4v4.4c0,.7-4.2.4-5,.4-15.8.3-31.8,0-47.6,0h-24.6c-.5-.4-.4-.8.1-1.1-.5-1.6-.5-2.9,0-3.9,1.5.1,2.9,0,4.3-.3,4.7,0,9.4,0,14,0h0Z"/>
      <path class="st34" d="M219.5,130.5l8.9-11c1.9,3.3,2.8,7.2,3.2,11l8.9-9.4c-.2,1.6-.5,3.2-.7,4.9,0,.9.3,1.4,0,2.6-.6,2-3.9,5.9-5.2,7.9-1.4,2.3-4,6.9-3.7,9.6,0,.7,1.4.7,1.6,1.4.2.7.2,1.9-.5,2.3-1.1-1-3.4-1.2-4.8-1.4-3.9-.4-8-.2-12-.3l-.3-2.8h4.7c-.5-4.4.8-10.7-.3-14.9h0Z"/>
      <path class="st35" d="M221.2,43l.8,25.7c1,.8,4,0,4.6,1,.6,1.1-.3,9.7.2,10.2,2.2.3,3.7,1,4.7,3.1.2,0,.5.2.5.4,0,.3-3,3.9-3.5,4.3l-.8.3-1.2,1.1c-.3-.2-.5-.5-.7-.8-1.9-1.4-3.5-3.1-4.8-5.3l-1.1-1.1-5.5,7.3h-.6c0,0-.2,0-.3.2-.8.8-2.5-1.5-1.9-2.2-.6-1.3-.9-5.1-.6-6.5l.6-.4c1.4-.6,1.8-.2,1.7-2l.2-.2c.5.2.6.6.6,1.1l3.5-.2v-9c0-.4,0-.7.3-1,0-4.7.4-9.5.6-14.2,0-3.9-.2-7.8.3-11.7.8-.8,1.9-.8,2.8,0h0Z"/>
      <path class="st67" d="M200,95h.6c0-.1,2.7,5.3,2.7,5.3,1,0,1.4.6,1.4,1.8l.2.7c-.9,1.2-.7,2.7.6,4.3,2.2,3.5,4.1,7,5.7,10.7l-.2,1.1c0,.2,0,.4,0,.6-1.5,3.5-2.8,7.2-3,11-.4.1-.5-.1-.7-.3-.8-.6-3.2-3-4.1-3.9-1.4-1.4-2.8-2.7-3.8-4.4v6.3c-4.9-8.4-6.9-16.4-4-26.2.6-.3.9,0,.8.6-1.5,6-2.3,11.1,2,16-.2-5.2,1.5-10.2,3.8-14.8-1.3-2.5-2.5-5-3.7-7.5v-.9c.3-.4.5-1,.6-1.4,0,0,1,.7,1.1.8h0Z"/>
      <path class="st39" d="M323.6,103.6c-4.3,4.7-7.8,10-10.7,15.6-.1.6,0,.3.4.4.8.2,1.6.4,2.3.7.4.2,1.4.5,1.7,1-1.3,0-2.7-.1-3.9,0-1.4.2-2.9,1.4-4.5,1.6-3.3.3-5.2-2.5-8.4-2.7l3.9-2.3c-3.2-3.5-6.9-6.5-11-8.8,3.9-.2,8.4,1,11.7,3.1,1.2.7,2,1.8,3.1,2.2,2.9-5.8,9-9.8,15.4-10.7Z"/>
      <path class="st21" d="M199.4,320.6h.3c-1.1.9-2.8.4-4.1.5-.4.4.4,3.5.3,4,0,.3-.7,0-.6.4l24.5.3c-15.9,0-31.8.2-47.6,0-.8,0-5.2.2-5.2-.4v-4.4c0-.2.7-.5.9-.4,10.5,0,21,0,31.5,0h0Z"/>
      <path class="st34" d="M230.5,156.1c.4.4,1.7.4,2.1,1.1.3.5.3,2.4-.1,2.8-5.2-2.2-11.4-1.5-17.1-1.6,0-.5-.1-2.9,0-3,0,0,1.3,0,1.7,0v-5c2.2,0,4.5-.1,6.7,0,.8,0,5.9.7,6.2,1,.8.6-.2,4.1.5,4.8Z"/>
      <path class="st38" d="M231.4,82.9c0-.1.7-.3.8-.3,2.6,3.4,5.1,6.8,6.9,10.7-.6.9.5,1.3.2,2.5-.2.7-2.2,4.1-2.7,5,0,.2-.3.6-.5.5-1.3-2.7-3.1-5.5-5-7.8-1.2-1.4-2.6-3.4-4.4-4,0-.1.6-1.3.8-1.6,1-1.6,2.3-2.9,3.6-4.3.2-.2.2-.6.3-.7h0Z"/>
      <path class="st28" d="M198.3,95.6c1.7,2.6,2.6,5.7,4.1,8.4-2.4,5.3-4.5,11-3.6,16.9-.6-.4-1-1.2-1.3-1.8-.6-.9-2.9-4.8-3-5.5-.6-2.7.3-7.3.9-10,0-.4.4-1.1,0-1.3.7-2.4,1.8-4.4,3-6.6h0Z"/>
      <path class="st60" d="M244,101.3c-.6.9.3,2.2.5,3.2.6,3.3.8,6.6.4,10l-.5-.3c-1,2.2-2.2,4.4-3.6,6.3v-6.7c0-.9-1-4.5-1.4-5.5-.5-1.6-1.4-3.1-2.2-4.6,1.1-2.8,2.8-5.3,3.5-8.2l1.7,3c.1,0,.2-.3.2-.3.4,0,1.2,2.5,1.4,3h0Z"/>
      <path class="st29" d="M263.6,329.6s.3-.3.7-.3c1,0,2,0,2.9,0,0,1.3,0,2.7,0,4,0,.4.3.6.3.7.3,7.7-.3,15.7,0,23.4-.7,0-1.5,0-2.2,0l-.6-.2c.1-2.4.1-4.8,0-7.2-.5,0-.9-.2-1-.6l-.6-.3v-19.2l.6-.3h0Z"/>
      <path class="st50" d="M305.7,51.2l-4.2,2.5c-.8.5-4,3-4.3,3.7-.3.7,2.1.4,2.2,1.2-2.1,0-3.5,1.6-5.6,1.7-1.6,0-3-.7-4.5-.6.7-.9,2-1.4,3-1.4-1.2-3.1-3.7-5.4-6.2-7.4l-4.8-2.8c5.4-.3,11,1.6,13.9,6.3,1-.6,1.9-1.4,3-2,.5-.3,3.2-1.3,3.6-1.3h4,0Z"/>
      <path class="st71" d="M218.4,39.4c.2-6.4.3-12.9.6-19.3-2.4.5-2.4-1.6,0-1.1L219.3,0h1.1l.3,19c2.2-.2,2.2,1.3,0,1.1l.6,21.5c.2,1-3.1.6-3,.1.6-.5.4-1.6.2-2.3Z"/>
      <path class="st46" d="M156.8,140.5c2.9-1.4,5.6-2.5,8.8-1.4l-3,1c-1.3.6-2.7,1.3-3.7,2.3-2.6,2.5-1.3,3.2-5.4,1.5-.3-.1-1.1,0-1.1-.1-.7-.6,1.9-1,1.9-1.1-.6-2-1.9-3.7-2.9-5.5l-4.5-5c4.2,1.3,8.9,3.6,9.9,8.3Z"/>
      <path class="st28" d="M208.2,83.2c.9-.2,2.2,1.9,1.9,2.8-.3.4-.8.3-1.5-.4-3.2,3.3-4.4,8.3-4,12.8l-.3,1.3c.6,1.9.6,1.1,1.4,0,0-.1.6-1,.8-.5.2,1.1-.8,2.8-1.9,3-1,.2-.3-.9-.8-1.3-.2-.1-.7.2-.8.1-.3-.2-2.4-5.2-3.1-6,1.3-3.2,3-6.4,5-9.2.3-.4,2.2-3,2.4-3.1.2,0,.7.3.8.4Z"/>
      <path class="st20" d="M217.6,68.8s.3.4.3.9c0,3.2,0,6.4,0,9.5l-4.7.3c0-.5,0-1.1,0-1.7,0-1.2-.2-7.8.1-8.3.5-.8,3.3-.5,4.3-.8h0Z"/>
      <path class="st72" d="M206.9,251.2c0,.2-.2.2-.3,0,.9-14.8,1.9-30,1.9-44.9l.3-3.3c0-2,0-4,0-6.1l.3-3.9c0-2.5,0-5,0-7.4l.3-4.7c0-2.7,0-5.5,0-8.3,0-.8.1-1.5.3-2.2,0-.2.2-.2.3,0-.4,26.9-1.5,53.9-3,80.7Z"/>
      <path class="st69" d="M149.9,281.2c.1,2.9-.8,6.8-1.1,9.8-.3,3.7-.4,7.4-.8,11-.3,8.9-.5,17.7-.5,26.6,0,1.2,0,2.5,0,3.7,0,.2.1,1-.3.5,0-14.3,0-28.7,1.4-43,.3-3.2.9-6.3,1.1-9.5.5,0,.3.5.3.8h0Z"/>
      <path class="st37" d="M271,357.2c-.8,0-1.7-.1-2.5.3v-7.7c.5-.5,2.2-.5,2.4.2.5,1.6-.3,5.4,0,7.3Z"/>
      <path class="st76" d="M282,349.8v7.7c-.4-.4-2.1-.2-2.2-.3-.2-.2.3-2.1-.3-2.5,0-.9-.2-4.6.1-5,.3-.4,1.9-.4,2.4,0h0Z"/>
      <path class="st64" d="M206.9,251.2c-.5,7.9-.7,15.9-1.4,23.8-.5,6.2-1.3,12.4-1.7,18.6l-.3-1.1c1.2-13.8,2.2-27.5,3-41.3h.3Z"/>
      <path class="st45" d="M211.3,80.1v6.9c-.8.3-1.4-.3-1.1-1.1-.7-.9-1.3-2-1.9-2.8.4-1.1.9-2.2,2-2.8.4-.2.8-.1,1-.2Z"/>
      <path class="st62" d="M218.4,39.4c.6.3.1,2,.3,2.2,0,0,2,0,2.5,0,.5,0,1.8-.2,1.9.4.2,1.2-1.2.9-1.9.9-.9,0-1.8,0-2.8,0-.6,0-1.9.3-1.9-.7s1.8-.5,1.9-.7c0,0,0-1.8,0-2.2h0Z"/>
      <path class="st33" d="M276.5,357.2c-.3,0-.2-.1-.3-.4-.2-1.2.3-6.5-.2-6.9-.3-.2-1.1-.2-1.4,0-.6.4,0,5.7-.2,6.9,0,.3,0,.3-.3.4.2-1.2-.3-7.2.3-7.6.3-.2,1.6-.2,2,0,.6.4,0,6.4.3,7.6h0Z"/>
      <path class="st5" d="M138.6,359.1c0-5.5-.1-11,0-16.5v16.5Z"/>
      <path class="st7" d="M209.4,160.6s.2-.4.5-.3c0,3.4,0,6.8,0,10.2h-.3c-.3-1.2-.2-2.4,0-3.6,0-2,.2-4.4-.3-6.3h0Z"/>
      <path class="st75" d="M209.6,170.5c0,.8-.3,1.8-.3,2.2.2-1.9-.4-4,.3-5.8,0,1.2,0,2.4,0,3.6Z"/>
      <path class="st34" d="M230.3,166.6c-.5-1.5-.4-3.7,0-5.2v5.2Z"/>
      <path class="st34" d="M230.5,182.6c-.5-1.3-.3-3.2-.3-4.7.5,1.3.3,3.2.3,4.7Z"/>
      <path class="st75" d="M209.1,185.6c0-1.5-.2-3.4.3-4.7,0,1.5.2,3.4-.3,4.7Z"/>
      <path class="st75" d="M208.8,196.9c0-1.2-.2-2.8.3-3.9,0,1.2.2,2.8-.3,3.9Z"/>
      <path class="st34" d="M230.8,194.2c-.5-.9-.3-2.4-.3-3.6.5.9.3,2.4.3,3.6Z"/>
      <path class="st75" d="M208.5,206.3c0-1-.2-2.5.3-3.3,0,1,.2,2.5-.3,3.3Z"/>
      <path class="st34" d="M231.4,212.3c-.5-.6-.3-1.9-.3-2.8.5.6.3,1.9.3,2.8Z"/>
      <path class="st30" d="M254.8,329.6l.6.2v24l-.6.3c-.3.9-.4,1.9-.3,2.9l-.6.4h-2.8c-.5-1.1-.5-2.2,0-3.3-.9-.1-.7-3.8-.5-4.4.4-.9,2-1.3,2.4-.3,0-.2.2-.2.3,0,0-1.8.2-3.6.3-5.5.2.2.4.3.5,0,.2-.6.1-9.5,0-10l-.2-.5c.4,2.7.4,5.7.3,8.5.1.9,0,1.5-.3,2l-.2.3c-.2-4.8-.3-9.6-.3-14.4-.2,0-.2-.2,0-.3.5,0,.9,0,1.4,0Z"/>
      <path class="st55" d="M194.2,354.2c0,.9,0,1.9,0,2.8.6,0,.5.3,0,.6-1,0-2-.3-2.8-.3-.5-1-.5-2,0-3-1-.5-.8-3.6-.3-4.4.4-.7,1-1,1.8-.9.1.7.8.7,1.3.4.6,0,.7,4.7,0,5Z"/>
      <path class="st49" d="M247.9,349.5c.2-.1.6-.2.6,0,.3.9.6,4.3-.4,4.7.5,1.1.5,2.2,0,3.3h-2.8c-.8-1.1-.8-2.2,0-3.3-.9-2-1.1-6.6,2.5-4.7Z"/>
      <path class="st63" d="M257,354.2c-.2,0-.5,0-.6-.2-.4-1.9-.3-6.3,2.7-5,1.7.7,1.3,3.9.6,5.2.5,1.1.5,2.2,0,3.3h-2.8c-.5-1.1-.5-2.2,0-3.3Z"/>
      <path class="st6" d="M263.6,349.5c.5,0,1.4-.1,1.6.5.5,1.6-.3,5.7,0,7.5-.9,0-1.8,0-2.8,0-.8-.3-.3-2.6,0-3.3-.8,0-.8-3.6-.5-4.2.3-.9,1.1-1.5,1.6-.5Z"/>
      <path class="st27" d="M245.4,357.5h-51.2c17-.8,34.2-.9,51.2,0Z"/>
      <path class="st42" d="M191.5,354.2v3s-.3.3-.6.3c-.8,0-1.7,0-2.5,0,0-1.1,0-2.2,0-3.3.2-.9,2.8-.8,3,0h0Z"/>
      <path class="st9" d="M251.2,354.2v3.3h-3v-3.3c.2-.9,2.8-.8,3,0Z"/>
      <path class="st15" d="M254.8,354.2c.6-.8,1.6-.8,2.2,0v3.3c-1,0-2,0-3,0v-3.3c.3,0,.5,0,.8,0h0Z"/>
      <path class="st17" d="M262.5,354.2c0,.1.3.5.3,1,0,.7-.2,1.6-.3,2.3-.9,0-1.8,0-2.8,0v-3.3c.1-.9,2.5-.8,2.8,0Z"/>
      <path class="st66" d="M176,349.5v-19.8h19.5l-.3,24.3c0,.3-.4.2-.6.2-.2-3.1-.3-4.7-.3-4.7-.2.4-1.7-.3-1.7-.5l.5-1c-.8-2.6-1.2-6.8.4-9.1-1-1.1-1.3-3,.7-2.6-1.6-1.3-2-2.3-1-2.9,0,.2-.1.5-.3.6-.6,0-5.7.1-6,0l-.6-.6c1.3.2,1.1,1.4,1,2.5,0,.6-.5,3-1.3,2.5l-.2-5c0-1,.1-2.2,0-3.2,0-.4-.2-.9-.6-.4,0,1.5.6,2.9,0,4.4l-.8-.3v18c0,.4-.6,1.3,0,2.1-.4.8-1.3.8-1.7,0,0-.8.1-4.4-.3-4.6-.3-.2-2.1-.1-2.3.2-.3.4-.1,3.6-.1,4.4-.2.9-2.8.8-3,0,0-1,.2-3.5,0-4.2-.2-.5-.6-.4-1.1-.5h0Z"/>
      <path class="st74" d="M194.2,356.9c.9-.1,2.3.2,3.1,0,.3,0,.3-.6.5-.7,1.1-.6,1.7,0,2.6-1.8,1.3-2.6.4-5.3.4-8.1,0-2.2.3-4.7.3-6.9,0-3.4-.2-6.7,0-10.1,3.9,0,7.7.1,11.6,0,.5,0,.9-.6.8.4-.2.5-.6.5-.8,0-3.7.8-7.5.8-11.3,0l.6.2c-.3,7.8-.4,15.6-.4,23.6.7.2.5.5-.1.7,3.7-.4,7.5-.4,11.3,0,.4-.5.9-.5,1.4,0,0-.2.1-.2.3,0,0-.2.1-.2.3,0,3.6-.5,7.2-.4,10.7,0,.4-.5.9-.5,1.4,0,3.7-.7,7.6-.7,11.4-.4-.6-.4-.4-1.2.2-1.6.6.2.1,1.8.3,1.9,0,0,1.8,0,2.2,0v-24.8c2.6.2,5.5-.4,8,.3-1.3.7-2.7.6-4.1.5-.4,7.6-.4,15.7-.2,23.4l.7.6c0-.2.2-.2.3,0,0,1.1,0,2.2,0,3.3-17.1,0-34.1.1-51.2,0,0-.2,0-.4,0-.6h0Z"/>
      <path class="st16" d="M226.7,329.6c3.8,0,7.7,0,11.6,0-.2,7.5.2,15.1,0,22.6,0,.6,0,1.3,0,1.9-3.9,0-7.7,0-11.6,0l-.6-.3v-19.5l.6-.3c.5-.4.8.1.8.7.3,4.4.1,9.2-.4,13.5-.1,1.9,0,3.7.2,5.4-.2-1.9-.3-4.2,0-6.1-.2-.2-.2-.4,0-.6.3-.5,9-5.6,9.6-5.6.5-.2.7.2.9,1.1-.1-.3-.3-.5-.6-.6v-7.8l.6-.4c0,.2,0,.5-.2.6-3.2.2-7.3.2-10.5,0l-.3-.6c-.9-.9-.8-2.9,0-3.9h0Z"/>
      <path class="st47" d="M186,333.5l.4,5c.2-1.8,1.3-3.4.1-5h6.9c0,0-.1.7,0,1,.1.2,1.5,1.4,1.6,1.8.2,1.4-1.5-.3-1.7.8,0,0,.5,1.2.6,1.2.6.6.6-1.2,1.1-1.1.6,1.4-1.2,1.8-1.5,2.5-.4,1-.4,4.9-.3,6,.2,1.6,1.3,1.8-.1,3.3,1.8.5.6-1.3,1.9-1.9-.1,2.2.3,4.7-.3,6.9-.2,0-.4,0-.6,0,0-1,.3-4.4-.5-4.6-3.2-1-2.3,2.5-2.3,4.6h-3c0-.8.2-4-.1-4.4-.3-.5-1.8-.2-2.4-.3,0-5.3,0-10.7,0-16h0Z"/>
      <path class="st41" d="M263.6,329.6v19.8c-.4,0-.9,0-1.1.5-.2.7,0,3.3,0,4.2h-2.8s-.2-.1-.2-.4c0-.9.7-4.2-.5-4.3-.4,0-1.7,0-2,.3-.3.4-.1,3.6-.1,4.4-.7,0-1.5,0-2.2,0v-24.5c2.9,0,5.9.1,8.8,0h0Z"/>
      <path class="st51" d="M248.7,329.6c1.6,0,3.1,0,4.7,0v.3c.2.8.2,2,0,2.8,0,.7-.2,1.1-.6,1.4-2.6,0-5.2,0-7.7,0,0,6.7,0,13.4,0,20h-1.1v-24.5c1.6,0,3.1,0,4.7,0h0Z"/>
      <path class="st56" d="M225.3,329.6c.9.2.8,2.8,0,3l-.2.6h-10.3v20.2c-.3,0-.5.3-.5.7h-.3l-.6-.2v-24l.6-.3c3.8,0,7.5,0,11.3,0h0Z"/>
      <path class="st12" d="M213.5,329.6h.6v24.5h-1.4c-.7,0-.7-.3,0-.6l-.6-.3c0-5.6,0-11.1,0-16.7l.5-1c-.8-.1-.8-2,0-2.2-.9-.2-.8-3.5,0-3.9h.8Z"/>
      <path class="st13" d="M226.7,329.6c0,1.3,0,2.6,0,3.9.5,0,.5.3,0,.6v20.1h-1.4c-.7,0-.7-.3,0-.6-.5-7-.5-14,0-20.9v-3h1.4Z"/>
      <path class="st60" d="M228.3,119c-2-5.6-5.1-10.7-8-15.8l7.9-10.6,8,11.4-7.9,15Z"/>
      <path class="st60" d="M211,119c-.1-1.1-2.5-5.3-3.2-6.6-1-1.9-3.7-5.9-4.2-7.7-.2-.9.5-1.7,1-2.5.6-1,1.3-2.1,1.9-3,.6-.9,4.4-6.4,5.1-6.3.6,0,7.5,9.4,7.6,10.1l-8.2,16.1h0Z"/>
      <path class="st3" d="M213.5,89c1-1.1,5.7-7.8,6.2-8l1.5,1.5c1.5,1.9,2.9,3.8,4.4,5.6-.7.2,0,.7.3,1,.4.4,1.5,1.3,1.3,1.9l-7.2,9.8-7.5-9.8c0-.7,1.8-1.3,1.1-2h0Z"/>
      <path class="st3" d="M210.2,85.9c.3.3.8.8,1.1,1.1.6.7,1,1.7,1.9,2.2-1.3,1.5-2.8,2.3-4.1,3.7-1.9,2-3.2,4.4-4.7,6.7-1.3-4.3.6-11.9,4.3-14.9l1.5,1.1Z"/>
      <path class="st22" d="M184.6,354.2c.5,0,.9,0,1.4,0-.1,2.4.9,3.5-2.1,3.3-1.4,0-1.3-1-1.3-2.4,0-.5.3-.9.3-.9.5,0,1.1,0,1.7,0h0Z"/>
      <path class="st42" d="M180.2,354.2c0,.5.1,3.3-.2,3.3h-2.9c0-1.1,0-2.2,0-3.3h3Z"/>
      <path class="st23" d="M156.5,366.3c-.5,0-.3-.6-.3-1,0-.7,0-1.4,0-2.1.5,0,.3.6.3,1,0,.7,0,1.4,0,2.1Z"/>
      <path class="st14" d="M253.4,349.5c0,0-.2,0-.3,0l-.6-.3v-3.2c-1.5.9-3,1.8-4.6,2.7v.8c-.5-.2-2.1,0-2.4.6-.3.7-.1,3.2-.1,4.1h-.3l-.6-.9v-19.7c.3-.3,6.9.2,8.2,0,.6,0,.3-.5.7-.8.1,5.6.2,11.2,0,16.8Z"/>
      <path class="st65" d="M253.1,349.5c-.6,0-1.7-.3-1.9.5-.2.7,0,3.3,0,4.2h-3c0-.8.2-4.5-.3-4.7l-1.4-.8c2.4-.8,4.5-2.5,6.6-3.9v4.7h0Z"/>
      <path class="st1" d="M253.4,329.9c.5.3.3,1,.3,1.5,0,3.8-.2,7.7,0,11.6,0,.3-.2,1,.3,1v-10.5l.6.4c-.3,1.8.5,9.3-.1,10.3-.1.2-.6.2-.7.5-.3,1.3.5,3.5-.3,4.8v-19.6h0Z"/>
      <path class="st14" d="M225.3,332.7v20.9c-3.4.3-6.9.4-10.4.3.2,0,0,.2-.4.3h-.3v-21.5h11Z"/>
      <path class="st58" d="M212.7,329.6v3.9l-.2.6h-9.8c-.2,3.4-.2,6.9-.1,10.4l-.5,1.2.4.7c-.2,2.2-.2,4.5-.1,6.8h10.1s.3.6.3.6v.6c-3.8,0-7.5,0-11.3,0v-24.5c3.8,0,7.5,0,11.3,0h0Z"/>
      <path class="st19" d="M225.3,353.6v.6c-3.6,0-7.2,0-10.7,0-.2-.8.4-.5.9-.6,3.3-.1,6.5,0,9.8,0Z"/>
      <path class="st43" d="M226.7,333.5h11v8.8c-.5,0,0-.8-.7-.5l-9.8,5.8v6.1c-.5,0-.3-.6-.3-1-.2-5.9.2-11.8,0-17.7,0-.5-.3-.9-.3-.9,0-.2,0-.4,0-.6Z"/>
      <path class="st14" d="M263.3,333.5c-.9,1.5.5,4.1-.3,5.3-.7,1.1-6.2,3.7-7.7,4.6v10.2h-.3v-20.1h8.3Z"/>
      <path class="st68" d="M212.7,353.6h-11c.2-2.6-.4-5.5.3-8l.4-1.1,9.7-9,.6.2v17.9Z"/>
      <path class="st10" d="M212.7,333.5v2.2l-10.7,9.9v-12.1h10.7Z"/>
    </g>
  </g>
  <path class="st61" d="M88,160.9c4.4-1.7,10.2-.9,13,3.4,3.9-.6,9.4-.3,12.2,3.2l-1.2,1c-17.5,1.6-35.5.2-53.2.7-4.3-.7-2.8-3.9,0-5.7,1.2-.8,3.7-1.7,5.1-1.8.8,0,2,.6,2.6.2.3-.2.8-2.1,1.2-2.8,5-7.8,17-6.9,20.3,1.9h0Z"/>
  <path class="st52" d="M360.2,207.7c0,2.2-2.9,1.7-5.1,8.2,0,0-7.7,26.5-7.9,27.3-.6,2-2.4,3.5-4.7,3.5h-4.3c-2,0-3.9-1.3-4.7-3.3l-7.1-21.7-6.6,21.5c-.6,1.9-2.4,3.5-4.7,3.5h-4.3c-2,0-3.9-1.3-4.7-3.3l-8-27c-2.1-7-5.3-6.4-5.3-8.6,0-1.1.8-2,2.1-2h14.6c2.1,0,3,.9,3,1.9,0,2.2-2,1.6.2,8.6l5.5,18.7,7.8-25.7c.6-2.1,2.5-3.6,4.7-3.6h1.8c2.2,0,4.2,1.5,4.8,3.5l8.3,25.8,5.4-18.8c1.7-6.9,0-6.4,0-8.6,0-1.1.9-2,2.9-2h4.3c1.3,0,2.1.9,2.1,1.9h0Z"/>
  <path class="st52" d="M428.3,204.3c-2.6,0-5.7.9-7.4,2.2v-18c0-1.4-1.2-2.5-2.6-2.5-4.3,0-6,4.8-11.5,4.8-1.3,0-2.2.8-2.2,2,0,2.2,2.2,1.4,2.2,8.7v23.7c-2,3.2-5,8.2-9.4,11.6-2.9,2.2-6.4,3.8-10.6,3.8-.9,0-1.8,0-2.6-.3-3.1-.7-5.5-2.7-7.2-5.3-7.3-10.9,26.3-3.5,22.5-17.7-1.9-7.1-10.9-12.8-20-12.8-12.1,0-20.2,9.8-20.2,21.8s10.3,21.7,22.9,21.7c.4,0,.9,0,1.3,0,5.9-.3,10.5-2.7,14.2-5.8,4.2-3.5,7.1-7.9,9.1-10.9v4.8c0,7.2-2.1,6.4-2.1,8.6,0,1.1.8,2,2.1,2,2.5,0,6.4-3.4,11-1.1,3,1.5,6.1,2.4,9.3,2.3,12.6,0,22.9-8.7,22.9-21.9,0-13.1-10-21.7-21.9-21.6h0ZM374.3,228.8c-2.4-8-.7-20.5,5.3-20.5,6.4,0,10.9,12.4,2.8,15.6-3.6,1.4-6.6,2.5-8.1,4.8ZM427.3,243.9c-2.9,0-6.3-1.8-6.3-7.3v-12.4c0-9.6-10.7,2.5-13.8,6.4,6.6-10.3,13.2-22.5,20.1-22.5,5.8,0,8.4,7.5,8.4,17.7,0,10.2-2.8,17.9-8.3,17.9h0Z"/>
  <path class="st52" d="M498.8,229.2c-.4,13.9-14,18.5-26.1,18.6-8.3,0-19.6-5.3-19.6-14.1,0-3.8,3.1-7,6.9-7,3.8,0,7,3.2,7,6.9,0,4.6.6,8.9,7.8,8.9,7.9,0,9.6-8.9,9.5-13.2,0-4-.9-13.7-11.9-13.7-2.1,0-3.4-2.3-2.2-4.1l12-14.3h-11.2c-6.8,0-9.1,4.5-10.9,9-.3.7-1.4,2-3.1,1.6-1.5-.4-2.3-1.8-2-3.3l4.1-15.5c.3-1.4,1.6-2.3,3-2.3h28.8c2.7,0,4.2,3.1,2.5,5.2l-15.7,18.8c12.4,1.2,21.4,7.7,21,18.6h0Z"/>
  <path class="st40" d="M289.8,285c-1.1-.8-2,0-2.5.3-3.3,3.7-6.9,4.6-10.1,4.9-10.7.9-15.3-9.8-15.4-19.1,0-5.3,1.3-10.1,3.8-12.1.5-.4,1.2-.7,1.8-.8.2,0,.5,0,.7,0,1,0,1.9.3,2.6.9,1.7,1.4,2.5,4.5,2.5,9.1,0,3.7,2.9,6.9,7,6.9,3.8,0,6.9-3.1,6.9-6.9,0-6.2-5.9-12.1-14.6-13.6-1.3-.2-2.8-.4-4.2-.4h-.2c0,0-.2,0-.3,0-11.9.2-19.9,9.9-19.9,21.8,0,4.5,1.4,8.6,3.9,12.1,4.1,5.8,11.1,9.6,19.1,9.6,10.1,0,17.2-6,19.3-10.4.6-1.1,0-1.9-.5-2.2h0Z"/>
  <path class="st40" d="M313.1,254c9.1,0,18.1,5.7,20,12.8,3.8,14.2-29.8,6.9-22.5,17.7,2.5,3.7,6.2,6,11.6,5.5,6.6-.6,9.5-4.3,10.1-4.9,1.1-1.2,2.2-.5,2.5-.2.7.7.7,1.6.4,2.1-2.6,4.9-9.7,10.4-19.4,10.4-12.6,0-22.9-9.7-22.9-21.7,0-12,8-21.8,20.2-21.8h0ZM307.8,278.4c1.5-2.4,4.5-3.4,8.1-4.8,8.1-3.2,3.6-15.6-2.8-15.6-6,0-7.7,12.5-5.3,20.5Z"/>
  <path class="st40" d="M379.6,256.9c0,2.5-2.4,1.3-5.4,8.9l-11.3,31.7c-3.3,9.9-7.5,20.4-17.6,20.4-8.2,0-13.9-5-13.9-10.4,0-3.1,2.5-5.6,5.6-5.6,1.9,0,3.4.8,4.6,2.3,1.1,1.5,1.2,3.3,1.3,4.1.3,2.7-.5,5.6,4.1,5.6,6.1,0,11-12.1,8.1-18l-15.1-30.2c-3.9-6.8-6.5-6.2-6.5-8.4,0-1.1.9-2,2.2-2h15.3c2,0,3.2.6,3.2,1.9,0,2.2-1.6,1.6,1.6,8.6l8.1,17.7,6.3-17.7c2.4-7.5,1.2-6.4,1.2-8.6,0-1.6,1.2-2,2.5-2h3.8c1.3,0,2,.9,2,1.7h0Z"/>
  <path class="st40" d="M398,285.5v-39.2c-4.4,3-9.1,4.7-14.1,4.9h0v34.3c.1,7.2-2.1,6.4-2.1,8.6,0,1.1.9,2,2.2,2h14.2c1.2,0,2.1-.9,2.1-2,0-2.2-2.2-1.4-2.2-8.6h0Z"/>
  <path class="st40" d="M426.7,253.7c12.6,0,22.9,9.7,22.9,21.7,0,12-10.2,21.8-22.8,21.8-12.7,0-22.9-9.7-23-21.7s10.2-21.8,22.9-21.8ZM418.9,277.6c2.6,9.5,8.1,16.2,12.5,15,4.3-1.2,5.8-9.8,3.2-19.3-2.6-9.5-8.1-16.2-12.6-15-4.3,1.2-5.7,9.8-3.1,19.3Z"/>
  <path class="st40" d="M498.2,293.8c0,1.1-.9,2-2.1,2h-14.2c-1.3,0-2.2-.9-2.2-1.9,0-2.2,2.2-1.4,2.2-8.6v-17.6c0-4.3-2.8-6.2-5.7-6.2-3.2,0-6.6,2.4-6.6,6.2v17.6c0,7.2,2.3,6.4,2.3,8.6,0,1.1-.9,2-2.2,2h-14.2c-1.2,0-2.1-.9-2.1-1.9,0-2.2,2.2-1.4,2.2-8.6v-15.1c0-7.2-2.3-6.4-2.3-8.6,0-1.1.9-2,2.1-2,5.6,0,7.4-4.8,11.6-4.8,1.4,0,2.5,1.1,2.5,2.5v2.5c3.5-3.9,8.5-6.4,13.3-6.4,7.1,0,13,4.7,13.1,16.7v15c0,7.2,2.3,6.4,2.3,8.6Z"/>
  <path class="st40" d="M453.4,329.1c0,0,.2,0,.3,0,0,0,.1,0,.2.1,0,0,0,.2,0,.4s0,.3,0,.3c0,0-.1.1-.2.1,0,0-.2,0-.3,0h-1.8v5.2c0,.1,0,.2,0,.3,0,0,0,.2-.2.2,0,0-.2,0-.4,0s-.3,0-.4,0c0,0-.1-.1-.2-.2,0,0,0-.2,0-.3v-5.2h-1.8c0,0-.2,0-.3,0,0,0-.1,0-.2-.1,0,0,0-.2,0-.4s0-.3,0-.4c0,0,.1-.1.2-.1,0,0,.2,0,.3,0h4.8,0Z"/>
  <path class="st40" d="M457.7,336c-.5,0-.9,0-1.3-.3-.4-.2-.8-.4-1.1-.7s-.5-.7-.7-1.1c-.2-.4-.3-.9-.3-1.3s0-.9.3-1.4.4-.8.7-1.1c.3-.3.6-.6,1.1-.8.4-.2.8-.3,1.3-.3s.9,0,1.3.3c.4.2.8.4,1.1.7s.5.7.7,1.1c.2.4.3.9.3,1.4s0,.9-.3,1.3c-.2.4-.4.8-.7,1.1-.3.3-.7.6-1.1.7-.4.2-.8.3-1.3.3h0ZM457.7,334.8c.3,0,.6,0,.8-.2.3-.1.5-.3.7-.5.2-.2.3-.4.5-.7.1-.3.2-.6.2-.9s0-.6-.2-.9c-.1-.3-.3-.5-.5-.7-.2-.2-.4-.4-.7-.5-.3-.1-.5-.2-.8-.2s-.6,0-.8.2c-.3.1-.5.3-.7.5-.2.2-.4.5-.5.7-.1.3-.2.6-.2.9s0,.6.2.9c.1.3.3.5.5.7.2.2.4.4.7.5.3.1.5.2.8.2h0Z"/>
  <path class="st40" d="M464.6,336c-.5,0-.9,0-1.2-.3-.4-.2-.6-.4-.9-.7-.2-.3-.4-.6-.5-1-.1-.4-.2-.8-.2-1.2v-3.1c0-.1,0-.2,0-.3,0,0,0-.2.2-.2,0,0,.2,0,.4,0s.3,0,.4,0c0,0,.1.1.2.2,0,0,0,.2,0,.3v3.1c0,.4,0,.7.2,1,.1.3.3.5.5.7s.6.3.9.3.6,0,.9-.2c.2-.2.4-.4.6-.7.1-.3.2-.6.2-1.1v-3.1c0,0,0-.2,0-.3,0,0,0-.1.2-.2,0,0,.2,0,.4,0s.3,0,.4,0c0,0,.1.1.2.2,0,0,0,.2,0,.3v3.1c0,.4,0,.8-.2,1.2-.1.4-.3.7-.6,1-.2.3-.5.5-.9.7-.4.2-.8.3-1.2.3h0Z"/>
  <path class="st40" d="M469.2,335.9c-.2,0-.3,0-.4,0s-.1-.1-.2-.2c0,0,0-.2,0-.3v-5.6c0-.1,0-.2,0-.3,0,0,0-.2.2-.2,0,0,.2,0,.4,0h2.1c.3,0,.6,0,.8.1.3,0,.5.2.7.4.2.2.4.4.5.7.1.3.2.6.2,1s0,.5-.1.7c0,.2-.2.5-.3.7-.2.2-.3.4-.6.5-.2.1-.5.2-.8.3h-1.9v1.6c0,.1,0,.2,0,.3,0,0,0,.2-.2.2,0,0-.2,0-.4,0h0ZM469.8,332.5h1.6c.1,0,.2,0,.3,0,.1,0,.2-.1.3-.2,0,0,.2-.2.2-.3,0-.1,0-.3,0-.5s0-.4-.1-.6c0-.2-.2-.3-.4-.4-.2,0-.4-.1-.6-.1h-1.5v2.2h0ZM473.4,335.8c-.2.1-.3.2-.5.2-.1,0-.2-.1-.4-.3l-1.6-2.5,1.3-.2,1.3,2c0,.1.1.2.2.3,0,0,0,.2,0,.3,0,0-.1.2-.3.3h0Z"/>
  <path class="st40" d="M477.4,335.9c-.2,0-.3,0-.4-.2-.1-.1-.2-.3-.2-.4s0-.2,0-.3c0,0,0-.2,0-.3,0,0,.1-.2.2-.3.3-.2.6-.5.9-.7.3-.2.6-.4.9-.6.3-.2.5-.4.8-.6.2-.2.4-.4.5-.6.1-.2.2-.4.2-.7s0-.4-.1-.5-.2-.3-.4-.4c-.2,0-.4-.1-.7-.1s-.4,0-.5,0c-.2,0-.3.1-.4.2-.1.1-.2.2-.2.4,0,.2,0,.3,0,.5s0,.2,0,.3c0,0,0,.2-.2.2,0,0-.2,0-.4,0s-.3,0-.4,0c0,0-.1-.1-.1-.2,0,0,0-.2,0-.3,0-.3,0-.6.2-.9.1-.3.3-.5.5-.8.2-.2.5-.4.8-.5.3-.1.6-.2,1-.2s.9,0,1.3.3c.4.2.6.5.8.8.2.4.3.8.3,1.3s0,.5-.1.7c0,.2-.2.4-.3.6-.1.2-.3.4-.5.5-.2.2-.4.3-.6.5-.2.1-.4.3-.6.4-.2.1-.4.2-.6.4l-.4.2h2.8c.1,0,.2,0,.3,0,0,0,.2,0,.2.2,0,0,0,.2,0,.4s0,.3,0,.4-.1.1-.2.2c0,0-.2,0-.3,0h-3.9,0Z"/>
  <path class="st40" d="M485,336c-.4,0-.7,0-1-.2-.3-.1-.5-.3-.7-.5-.2-.2-.4-.5-.5-.8-.1-.3-.2-.6-.3-.9,0-.3,0-.7,0-1s0-.7,0-1c0-.3.1-.6.3-.9.1-.3.3-.6.5-.8.2-.2.4-.4.7-.5.3-.1.6-.2,1-.2s.7,0,1,.2c.3.1.5.3.7.5.2.2.3.5.5.8.1.3.2.6.3.9,0,.3,0,.7,0,1s0,.7,0,1c0,.3-.1.7-.3.9-.1.3-.3.6-.5.8-.2.2-.4.4-.7.5-.3.1-.6.2-1,.2h0ZM485,334.8c.3,0,.5,0,.6-.2.2-.1.3-.3.4-.4,0-.2.2-.4.2-.6,0-.2,0-.4,0-.6s0-.3,0-.5h0c0-.5,0-1-.1-1.3,0-.3-.2-.6-.4-.8-.2-.2-.4-.3-.7-.3s-.5,0-.7.3c-.2.2-.3.4-.4.8,0,.3-.1.8-.1,1.3s0,.9.1,1.2c0,.3.2.6.4.8.2.2.4.3.7.3h0Z"/>
  <path class="st40" d="M488.7,335.9c-.2,0-.3,0-.4-.2-.1-.1-.2-.3-.2-.4s0-.2,0-.3c0,0,0-.2,0-.3,0,0,.1-.2.2-.3.3-.2.6-.5.9-.7.3-.2.6-.4.9-.6.3-.2.5-.4.8-.6.2-.2.4-.4.5-.6.1-.2.2-.4.2-.7s0-.4-.1-.5-.2-.3-.4-.4c-.2,0-.4-.1-.7-.1s-.4,0-.5,0c-.2,0-.3.1-.4.2-.1.1-.2.2-.2.4,0,.2,0,.3,0,.5s0,.2,0,.3c0,0,0,.2-.2.2,0,0-.2,0-.4,0s-.3,0-.4,0c0,0-.1-.1-.1-.2,0,0,0-.2,0-.3,0-.3,0-.6.2-.9.1-.3.3-.5.5-.8.2-.2.5-.4.8-.5.3-.1.6-.2,1-.2s.9,0,1.3.3c.4.2.6.5.8.8.2.4.3.8.3,1.3s0,.5-.1.7c0,.2-.2.4-.3.6-.1.2-.3.4-.5.5-.2.2-.4.3-.6.5-.2.1-.4.3-.6.4-.2.1-.4.2-.6.4l-.4.2h2.8c.1,0,.2,0,.3,0,0,0,.2,0,.2.2,0,0,0,.2,0,.4s0,.3,0,.4c0,0-.1.1-.2.2,0,0-.2,0-.3,0h-3.9,0Z"/>
  <path class="st40" d="M495.9,336c-.3,0-.5,0-.7,0-.2,0-.4-.1-.5-.2-.2,0-.3-.1-.4-.2-.1,0-.2-.1-.3-.2,0,0-.1-.1-.2-.2,0,0,0-.1,0-.2s0-.1,0-.2c0,0,0-.1.2-.2,0,0,.1-.2.2-.2,0,0,.1,0,.2,0s.1,0,.2,0c0,0,.2,0,.3.2,0,0,.1,0,.2.1,0,0,.2,0,.3.1.1,0,.3,0,.5,0s.4,0,.6-.1c.2,0,.3-.2.4-.4,0-.2.1-.3.1-.6s0-.4-.1-.5c0-.2-.2-.3-.4-.4-.2,0-.3-.1-.5-.1s-.2,0-.3,0c0,0-.2,0-.2,0,0,0-.1,0-.2.1,0,0-.1,0-.2.1s-.1,0-.2,0c0,0-.2,0-.2,0,0,0-.2,0-.3-.1-.1,0-.3-.1-.3-.2,0,0,0-.1,0-.2l.4-2.9c0,0,0-.2,0-.3,0,0,0-.2.2-.2,0,0,.2-.1.4,0h2.4c.1,0,.2,0,.3,0,0,0,.2,0,.2.2,0,0,0,.2,0,.4s0,.3,0,.4c0,0-.1.1-.2.2,0,0-.2,0-.3,0h-1.9l-.2,1.4c0,0,.1,0,.2-.1,0,0,.1,0,.2,0,0,0,.1,0,.2,0h0c.3,0,.6,0,.8.2.3.1.5.3.7.5.2.2.4.4.5.7.1.3.2.5.2.8,0,.4,0,.8-.3,1.2-.2.4-.5.6-.8.8-.3.2-.7.3-1.1.3h0Z"/>
  <path class="st52" d="M374.6,323.1c-.9,0-1.8-.1-2.8-.4-.9-.3-1.8-.7-2.7-1.2-.8-.5-1.6-1.2-2.3-2-.7-.8-1.2-1.8-1.6-2.8-.4-1.1-.6-2.2-.6-3.6,0-1.3.2-2.4.6-3.5.4-1,.9-1.9,1.6-2.7.7-.8,1.4-1.4,2.3-2,.9-.5,1.8-.9,2.7-1.2.9-.3,1.9-.4,2.8-.4.9,0,1.7.1,2.4.3.7.2,1.3.4,1.7.7.4.2.7.4.9.5.3.2.6.4.9.6.3.2.4.5.4.9,0,.2,0,.4-.1.6,0,.2-.2.4-.3.5-.2.3-.4.6-.7.7-.2.2-.4.2-.7.2s-.4,0-.6-.2c-.2-.1-.4-.2-.7-.4-.1,0-.3-.2-.6-.4-.3-.1-.7-.3-1.1-.4-.5-.1-1-.2-1.7-.2s-1.6.1-2.3.4c-.8.3-1.4.7-2,1.3-.6.6-1.1,1.2-1.4,2-.4.8-.5,1.7-.5,2.8s.2,2,.5,2.8c.4.8.8,1.5,1.4,2,.6.5,1.3,1,2.1,1.2.8.3,1.5.4,2.3.4s1.2,0,1.6-.2c.5-.1.9-.3,1.2-.5.3-.2.6-.3.7-.4.2-.1.4-.3.6-.4.2-.1.4-.2.6-.2s.4,0,.7.2c.2.1.4.4.7.7.1.2.2.4.3.6,0,.2.1.4,0,.6,0,.3-.2.6-.4.9-.3.2-.6.4-.9.6-.1,0-.4.3-.9.5-.4.2-1,.5-1.7.7-.7.2-1.5.3-2.5.3h0Z"/>
  <path class="st52" d="M392.3,323.1c-1.3,0-2.6-.2-3.8-.7-1.2-.5-2.2-1.2-3.1-2.1-.9-.9-1.6-1.9-2.1-3.1-.5-1.2-.8-2.5-.8-3.8,0-1.4.2-2.7.7-3.9.5-1.2,1.2-2.3,2-3.2.9-.9,1.9-1.6,3-2.2,1.1-.5,2.4-.8,3.7-.8,1.3,0,2.6.2,3.8.7,1.2.5,2.2,1.2,3.1,2.1.9.9,1.6,2,2.1,3.2.5,1.2.8,2.5.8,3.9s-.2,2.6-.7,3.8c-.5,1.2-1.2,2.3-2,3.2-.9.9-1.9,1.6-3,2.2-1.1.5-2.3.8-3.6.8h0ZM392.1,319.7c.9,0,1.7-.2,2.4-.5.8-.3,1.4-.8,2-1.4.6-.6,1-1.3,1.3-2.1.3-.8.5-1.6.5-2.6,0-.9-.2-1.7-.5-2.5-.3-.8-.8-1.5-1.3-2.1-.6-.6-1.2-1.1-2-1.4-.7-.3-1.5-.5-2.4-.5s-1.6.2-2.4.5c-.7.3-1.4.8-2,1.4-.6.6-1,1.3-1.3,2.1-.3.8-.5,1.6-.5,2.6,0,.9.2,1.7.5,2.5.3.8.8,1.5,1.3,2.1.6.6,1.2,1.1,1.9,1.4.7.3,1.5.5,2.4.5h0Z"/>
  <path class="st52" d="M405.7,322.9c-.5,0-.9,0-1.2-.2-.2-.2-.4-.4-.5-.6,0-.3,0-.5,0-.8v-16.1c0-.3,0-.6,0-.9,0-.2.2-.5.4-.6.2-.2.6-.2,1.2-.2.5,0,.9,0,1.1.2.2.2.4.4.4.6,0,.2,0,.5,0,.9v14.8s8.5,0,8.5,0c.3,0,.5,0,.8,0,.2,0,.4.2.5.4.1.2.2.6.2,1s0,.8-.2,1c-.1.2-.3.4-.5.4-.2,0-.5,0-.8,0h-10.2s0,0,0,0Z"/>
  <path class="st52" d="M428.3,323.1c-1.3,0-2.6-.2-3.8-.7-1.2-.5-2.2-1.2-3.1-2.1s-1.6-1.9-2.1-3.1c-.5-1.2-.8-2.5-.8-3.8,0-1.4.2-2.7.7-3.9.5-1.2,1.2-2.3,2-3.2.9-.9,1.9-1.6,3-2.2,1.1-.5,2.4-.8,3.7-.8,1.3,0,2.6.2,3.8.7,1.2.5,2.2,1.2,3.1,2.1.9.9,1.6,2,2.1,3.2.5,1.2.8,2.5.8,3.9s-.2,2.6-.7,3.8c-.5,1.2-1.2,2.3-2,3.2-.9.9-1.9,1.6-3,2.2-1.1.5-2.3.8-3.6.8h0ZM428.1,319.6c.9,0,1.7-.2,2.4-.5.8-.3,1.4-.8,2-1.4.6-.6,1-1.3,1.3-2.1.3-.8.5-1.6.5-2.6,0-.9-.2-1.7-.5-2.5-.3-.8-.8-1.5-1.3-2.1-.6-.6-1.2-1.1-2-1.4-.7-.3-1.5-.5-2.4-.5s-1.6.2-2.4.5c-.7.3-1.4.8-2,1.4-.6.6-1,1.3-1.3,2.1-.3.8-.5,1.6-.5,2.6,0,.9.2,1.7.5,2.5.3.8.8,1.5,1.3,2.1.6.6,1.2,1.1,1.9,1.4.7.3,1.5.5,2.4.5h0Z"/>
  <path class="st52" d="M441.5,322.8c-.5,0-.9,0-1.1-.2-.2-.1-.4-.4-.5-.6,0-.3-.1-.5-.1-.9v-16.1c0-.3,0-.6,0-.8,0-.2.2-.4.5-.6.2-.2.6-.3,1.1-.3s.7,0,.9,0c.2,0,.3.1.5.2.1,0,.2.2.3.3l6.8,9.5h-.6l6.8-9.6c.1-.1.3-.3.4-.3.1,0,.3-.1.5-.2.2,0,.5,0,.8,0,.5,0,.9,0,1.1.2.2.2.4.4.5.6,0,.3,0,.5,0,.8v16.1c0,.3,0,.5,0,.8,0,.3-.2.5-.5.6-.2.1-.6.2-1.2.2s-.9,0-1.1-.2c-.2-.2-.4-.4-.5-.6,0-.3-.1-.5-.1-.8v-12s-5.1,7.3-5.1,7.3c0,0-.1.2-.2.3-.1.1-.3.2-.4.3-.2,0-.4.1-.8.1s-.6,0-.7-.1c-.2,0-.3-.2-.4-.3-.1-.1-.2-.2-.3-.3l-5-7.3v12c0,.3,0,.5,0,.8,0,.3-.2.5-.5.6-.2.1-.6.2-1.1.2h0Z"/>
  <path class="st52" d="M464.1,322.7c-.5,0-.9,0-1.1-.2-.2-.2-.4-.4-.4-.7,0-.3,0-.6,0-.9v-15.8c0-.3,0-.6,0-.9,0-.3.2-.5.5-.7.2-.2.6-.3,1.1-.3h7.4c1.1,0,2,.2,2.8.7.8.5,1.5,1.2,1.9,2,.5.8.7,1.7.7,2.7s0,.9-.2,1.3c-.1.4-.3.8-.5,1.2-.2.4-.5.7-.8,1,.4.3.8.7,1.1,1.2.3.5.6,1,.7,1.6.2.6.2,1.1.2,1.8,0,.8-.2,1.6-.5,2.3-.3.7-.7,1.3-1.3,1.9-.5.5-1.2,1-1.9,1.3-.7.3-1.5.4-2.3.4h-7.7s0,0,0,0ZM465.8,319.4h5.7c.5,0,1-.1,1.4-.3.4-.2.8-.5,1-.9.2-.4.4-1,.4-1.7s0-1-.2-1.3c-.1-.3-.3-.6-.6-.8-.2-.2-.5-.3-.8-.4-.3,0-.6-.1-.9-.1-.3,0-.6,0-.8,0h-1.3c-.5,0-.8-.1-1.1-.3-.2-.2-.3-.6-.3-1.1s.1-.9.4-1.1c.2-.2.6-.3,1.1-.3h1.2c.2,0,.5,0,.8,0,.3,0,.6,0,.8-.2.3-.1.5-.3.6-.6.2-.3.2-.7.2-1.2,0-.8-.2-1.4-.7-1.8-.4-.4-1.2-.6-2.2-.6h-4.9s0,12.9,0,12.9h0Z"/>
  <path class="st52" d="M488.9,322.9c-1.3,0-2.6-.2-3.8-.7-1.2-.5-2.2-1.2-3.1-2.1-.9-.9-1.6-1.9-2.1-3.1-.5-1.2-.8-2.5-.8-3.8,0-1.4.2-2.7.7-3.9.5-1.2,1.2-2.3,2-3.2.9-.9,1.9-1.6,3-2.2,1.1-.5,2.4-.8,3.7-.8,1.3,0,2.6.2,3.8.7,1.2.5,2.2,1.2,3.1,2.1.9.9,1.6,2,2.1,3.2.5,1.2.8,2.5.8,3.9s-.2,2.6-.7,3.8c-.5,1.2-1.2,2.3-2,3.2-.9.9-1.9,1.6-3,2.2-1.1.5-2.3.8-3.6.8h0ZM488.7,319.5c.9,0,1.7-.2,2.4-.5.8-.3,1.4-.8,2-1.4.6-.6,1-1.3,1.3-2.1.3-.8.5-1.6.5-2.6,0-.9-.2-1.7-.5-2.5-.3-.8-.8-1.5-1.3-2.1-.6-.6-1.2-1.1-2-1.4-.7-.3-1.5-.5-2.4-.5s-1.6.2-2.4.5c-.7.3-1.4.8-2,1.4-.6.6-1,1.3-1.3,2.1-.3.8-.5,1.6-.5,2.6,0,.9.2,1.7.5,2.5.3.8.8,1.5,1.3,2.1.6.6,1.2,1.1,1.9,1.4.7.3,1.5.5,2.4.5h0Z"/>
</svg>