<?xml version="1.0" encoding="UTF-8"?>
<svg id="Layer_1" xmlns="http://www.w3.org/2000/svg" xmlns:xlink="http://www.w3.org/1999/xlink" version="1.1" viewBox="0 0 510 376">
  <!-- Generator: Adobe Illustrator 29.1.0, SVG Export Plug-In . SVG Version: 2.1.0 Build 142)  -->
  <defs>
    <style>
      .st0 {
        fill: none;
      }

      .st1 {
        mask: url(#mask);
      }

      .st2 {
        fill: #001c44;
      }

      .st3 {
        fill: #075eaa;
      }

      .st4 {
        fill: #ef7f0a;
      }

      .st5 {
        fill: #037480;
      }

      .st6 {
        fill: #013a7e;
      }

      .st7 {
        fill: #002b67;
      }

      .st8 {
        fill: #01586d;
      }

      .st9 {
        fill: #001c43;
      }

      .st10 {
        fill: #013a7d;
      }

      .st11 {
        fill: #004765;
      }

      .st12 {
        fill: #005777;
      }

      .st13 {
        fill: #ef8207;
      }

      .st14 {
        fill: #0151a6;
      }

      .st15 {
        fill: #e3dd7c;
      }

      .st16 {
        fill: #f7920b;
      }

      .st17 {
        fill: #013271;
      }

      .st18 {
        fill: #037984;
      }

      .st19 {
        fill: #01489a;
      }

      .st20 {
        fill: #013338;
      }

      .st21 {
        fill: #01879d;
      }

      .st22 {
        fill: #003365;
      }

      .st23 {
        fill: #003374;
      }

      .st24 {
        fill: #018e75;
      }

      .st25 {
        fill: #f7950b;
      }

      .st26 {
        fill: #001e45;
      }

      .st27 {
        fill: #001c42;
      }

      .st28 {
        fill: #eed167;
      }

      .st29 {
        fill: #017c72;
      }

      .st30 {
        fill: #013a7c;
      }

      .st31 {
        fill: #003372;
      }

      .st32 {
        fill: #013875;
      }

      .st33 {
        fill: #011c42;
      }

      .st34 {
        fill: #015a6c;
      }

      .st35 {
        fill: #03727e;
      }

      .st36 {
        fill: #002964;
      }

      .st37 {
        fill: #013a79;
      }

      .st38 {
        fill: #001d44;
      }

      .st39 {
        fill: #0157ad;
      }

      .st40 {
        fill: #522e15;
      }

      .st41 {
        fill: #015a6a;
      }

      .st42 {
        fill: #eddd64;
      }

      .st43 {
        fill: #fbae11;
      }

      .st44 {
        fill: #011b42;
      }

      .st45 {
        fill: #c03519;
      }

      .st46 {
        fill: #011d45;
      }

      .st47 {
        fill: #011c43;
      }

      .st48 {
        fill: #00636a;
      }

      .st49 {
        fill: #006366;
      }

      .st50 {
        fill: #013c7e;
      }

      .st51 {
        fill: #002d6b;
      }

      .st52 {
        fill: #fbba1f;
      }

      .st53 {
        fill: #f08107;
      }

      .st54 {
        fill: #388e3c;
      }

      .st55 {
        fill: #fcc529;
      }

      .st56 {
        fill: #004b65;
      }

      .st57 {
        fill: #fcc629;
      }

      .st58 {
        fill: #037783;
      }

      .st59 {
        fill: #011d43;
      }

      .st60 {
        fill: #fbac11;
      }

      .st61 {
        fill: #152135;
      }

      .st62 {
        fill: #f04e0c;
      }

      .st63 {
        fill: #03697b;
      }

      .st64 {
        fill: #00626f;
      }

      .st65 {
        fill: #003472;
      }

      .st66 {
        fill: #015277;
      }

      .st67 {
        fill: #0165b8;
      }

      .st68 {
        fill: #0164b8;
      }

      .st69 {
        fill: #01797a;
      }

      .st70 {
        fill: #fcc527;
      }

      .st71 {
        fill: #fbb117;
      }

      .st72 {
        mask: url(#mask-1);
      }

      .st73 {
        fill: #003879;
      }

      .st74 {
        fill: #fcc72b;
      }

      .st75 {
        fill: #003b7e;
      }

      .st76 {
        fill: #fcb313;
      }

      .st77 {
        fill: #fbaf17;
      }

      .st78 {
        fill: #00566f;
      }

      .st79 {
        fill: #fcb213;
      }

      .st80 {
        fill: #006b7d;
      }

      .st81 {
        fill: #fcbe21;
      }

      .st82 {
        fill: #013e7e;
      }

      .st83 {
        fill: #fcc92c;
      }

      .st84 {
        fill: #008e9f;
      }

      .st85 {
        fill: #fcc92b;
      }

      .st86 {
        fill: #012d68;
      }

      .st87 {
        fill: #e4c85e;
      }

      .st88 {
        fill: #026c7d;
      }

      .st89 {
        fill: #fcb314;
      }

      .st90 {
        fill: #0164b5;
      }

      .st91 {
        fill: #067986;
      }

      .st92 {
        fill: #fff;
      }

      .st93 {
        fill: #013b7d;
      }

      .st94 {
        fill: #026470;
      }

      .st95 {
        fill: #e9c662;
      }

      .st96 {
        fill: #007984;
      }

      .st97 {
        fill: #008774;
      }

      .st98 {
        fill: #006871;
      }

      .st99 {
        fill: #00576a;
      }

      .st100 {
        fill: #fcc829;
      }

      .st101 {
        fill: #006d77;
      }

      .st102 {
        fill: #032375;
      }

      .st103 {
        fill: #f58909;
      }

      .st104 {
        fill: #026e7f;
      }

      .st105 {
        fill: #018077;
      }

      .st106 {
        fill: #013b7e;
      }

      .st107 {
        fill: #f7960c;
      }

      .st108 {
        fill: #034994;
      }

      .st109 {
        fill: #00367a;
      }

      .st110 {
        fill: #7b4116;
      }

      .st111 {
        fill: #03193f;
      }

      .st112 {
        fill: #e8700a;
      }

      .st113 {
        fill: #01626b;
      }

      .st114 {
        fill: #fcc82a;
      }

      .st115 {
        fill: #01397d;
      }

      .st116 {
        fill: #008976;
      }

      .st117 {
        fill: #01316e;
      }

      .st118 {
        fill: #016a7e;
      }

      .st119 {
        fill: #2e2e2e;
      }

      .st120 {
        fill: #fcc728;
      }

      .st121 {
        fill: #0163b8;
      }

      .st122 {
        fill: #0155ab;
      }

      .st123 {
        fill: #011b41;
      }

      .st124 {
        fill: #046e7f;
      }

      .st125 {
        fill: #013c81;
      }

      .st126 {
        fill: #013b79;
      }

      .st127 {
        fill: #f18309;
      }

      .st128 {
        fill: #fbab14;
      }

      .st129 {
        fill: #f08106;
      }

      .st130 {
        fill: #f9c429;
      }

      .st131 {
        fill: #f0df65;
      }

      .st132 {
        fill: #005469;
      }

      .st133 {
        fill: #005176;
      }

      .st134 {
        fill: #008b75;
      }

      .st135 {
        fill: #013d80;
      }

      .st136 {
        fill: #013e68;
      }

      .st137 {
        fill: #007374;
      }

      .st138 {
        fill: #002b69;
      }

      .st139 {
        fill: #002b52;
      }

      .st140 {
        fill: #001f45;
      }

      .st141 {
        fill: #fcb214;
      }

      .st142 {
        fill: #e4da6b;
      }

      .st143 {
        fill: #f8980b;
      }

      .st144 {
        fill: #013678;
      }

      .st145 {
        fill: #047c86;
      }

      .st146 {
        fill: #00536d;
      }

      .st147 {
        fill: #034288;
      }

      .st148 {
        fill: #004060;
      }

      .st149 {
        fill: #006779;
      }

      .st150 {
        fill: #006b70;
      }

      .st151 {
        fill: #fbb313;
      }

      .st152 {
        fill: #312006;
      }

      .st153 {
        fill: #0162b8;
      }

      .st154 {
        fill: #fbad16;
      }

      .st155 {
        fill: #01397c;
      }

      .st156 {
        fill: #04727f;
      }

      .st157 {
        fill: #f08208;
      }

      .st158 {
        fill: #002761;
      }

      .st159 {
        fill: #006a77;
      }

      .st160 {
        fill: #e7b36a;
      }

      .st161 {
        fill: #fbad15;
      }

      .st162 {
        fill: #faa20f;
      }

      .st163 {
        fill: #fbbb1e;
      }

      .st164 {
        clip-path: url(#clippath);
      }

      .st165 {
        fill: #013264;
      }

      .st166 {
        fill: #fbad10;
      }

      .st167 {
        fill: #00306f;
      }

      .st168 {
        fill: #014770;
      }

      .st169 {
        fill: #ec7409;
      }

      .st170 {
        fill: #fbb218;
      }

      .st171 {
        fill: #f07d08;
      }

      .st172 {
        fill: #055faf;
      }

      .st173 {
        fill: #9c4f14;
      }

      .st174 {
        fill: #ecda61;
      }
    </style>
    <clipPath id="clippath">
      <rect class="st0" width="453" height="376"/>
    </clipPath>
    <mask id="mask" x="1.8" y="0" width="451.2" height="376" maskUnits="userSpaceOnUse">
      <g id="mask0_414_7">
        <path class="st92" d="M453,0H1.8v339.5h451.2V0Z"/>
      </g>
    </mask>
    <mask id="mask-1" x="3.5" y="103.4" width="449.5" height="272.6" maskUnits="userSpaceOnUse">
      <g id="mask1_414_7">
        <path class="st92" d="M453,103.4H3.5v272.6h449.5V103.4Z"/>
      </g>
    </mask>
  </defs>
  <g class="st164">
    <g>
      <g class="st1">
        <g class="st72">
          <g>
            <path class="st24" d="M42.7,290.8l.8.2c1.1,1.9,1.5,4.2,1.5,6.4,3.7-4.1,8.4-7.5,14-5.5,4.5-10.3,19-6.6,16.3,5.2,7.1-1.1,11.5,7.7,8.2,13.9,1.2-.2,2.3-.2,3.5,0l.5.7c2-.6,4.9,1.3,5.8,3.1l.6.2c.5,1.2,1.1,2.4,1.8,3.5,8-5.4,14.1,4,11.5,11.8,2-.7,5.6-1,6.9.9l.8-.3c4,1.9,7.2,7.1,6.1,11.3.4,1.9.5,3.8.3,5.5,3.4-3,7.1-4.4,11.8-3.8,1.9.2,5,.9,5.7,2.8.9-.4,2.6,1.8,3.2,2.7,2.1,3.1,3.3,5.9,3.6,9.6,1.5-1.4,3.2-2.3,5.2-2.7,1.3-.3,3.7-.7,4.4.6,1.3-.9,3.6.9,4.7,1.9,2.2,1.9,3.5,4.7,3.8,7.7.6-.5,1.1-.7,1.7-.5.3-1.4,2.7-1.5,3.9-1.5,3.9,0,7.2,3.3,8.6,6.8.5,1.3,1.5,3.9.5,4.8h-27.5l-.5-.4c.7-7-5.6-11.6-10.8-6-.5,0-.9,0-1-.6,1.9-5.1-1.4-12.8-6.8-6.9h-.8c-.6-.3-.8-1.2-.6-2.6-.2-1.2,0-1.9.6-2.3h-.6c-2.4-4.4-7.4-3.1-10.7-.7l-.6-.3c-.8.2-.7-4.1-.6-4.3.1-.2.3-.3.6-.4l-.6-.3c-2.5-5.7-7.5-7.6-11.2-1.7-.7.4-1.2.3-1.2-.6,1.6-11.1-5.3-11.1-12.3-5.5-1.7.2-1.2-1.3-.7-2.4l1.9-3.7c3.6-7.4-2-7.2-7-4.6-1,0-1.2-.8-.5-2.3,1.6-10.2-8.9-15.4-15.9-8.3-.8.5-1.7.2-1.6-.8l1.3-4.6c1.9-6.5-3.6-7.6-7.8-4.1-2.2,2.2-2.7,1.1-1.6-3.3.7-8.1-3.7-8.3-7.3-2.5l-.7.2h-.7c-3-3.2-7.3-4.4-11.5-3.8v-1.8c-.5-3.4-.2-7.3,1.1-10.4h0Z"/>
            <path class="st48" d="M53.8,306.9c1.2-2.5,5.7-7.3,7.8-3.3,1.5,2.8.7,6.9,0,9.8,2.2-2.2,6.6-5,9.5-2.4,2.6,2.4,0,7.7-.6,10.6.7.6,2.8-1.8,3.5-2.2,3-1.7,7.6-1.5,10.4.7,3.4,2.7,4.7,8.2,3,12.3,2.6-1.1,6.5-3.1,8.9-.7,1.3,3.8-2,7.4-3.1,10.7-.1.4-.3.3.2.7,3.2-2,9-6.4,12.1-2.1,2,2.8,1.3,5.5,1.1,8.6,2.2-2.7,4.6-5.6,8.3-3.5,1.4.8,4.2,4,4.2,5.6v4.7c2-.9,3.9-2.6,6.2-2.5.9,0,2.7.4,3.5.7.7.3,2.3,2.1,2.3,2.8v4.9c5.9-7,10.4.7,8.1,7,1.4-.6,2.6-2.3,4.2-2.7,1.8-.5,4.1.6,5.5,1.7,1.9,1.4,2.5,5.5,2.2,7.7h-25.8l-.5-.6c.4-7.1-6.4-11.4-12.8-9.4-.6,0-.8-.4-.7-1,2.2-13.2-16.8-15.4-25.1-9.6-2.2-.7-.1-2.5,1.1-2.5,1-2.5,2.3-5,3.6-7.3l-.3-.2c0-.9,0-1.9,0-2.9-1.1.2-2.8,0-3.9-.6-.3.8-.6,1-1.1.6l-.2.5c-2.7,1.3-5.1,2.9-7.3,4.9h-.5c-.4.5-1.2.2-.8-.6l-.5-.3c.8-10.5-6.4-22.4-17.9-18.8h-.7c-2.1,1.4-3.8.8-2.7-2,2.5-6.1,3.1-12.6-1-18.4v-.8h0Z"/>
            <path class="st148" d="M39.9,317.3c1.6-.9,4.3.7,5.7,1.7,2.2,1.6,4,4,5,6.5,1.2.4,1.9.9,1.4,2.3.7,1.3.3,2.6-1.1,4.1,1-.9,2.3-1.6,3.8-2,.9-.8,1.8-1.4,2.8-1.9.9-1.1,3.8-1.2,5.1-1.1,7.6.5,12.7,6.9,13.7,14.3,0,.7.4,5.7.3,6,.1.4.5.6.8.8,0-.2.3-.3.7-.4,2.1-3.1,5-1.2,1.3.9,2.2,1,2.6,2.2,0,2.8-.3.2.8,1.1,1.1,1.1-.5-1.4.3-1.7,1.6-1.5-.5-1.7.8-1.5,2-1.1.3-.9.7-1.2,1.6-1.2l-.2-1c-2.2-1.4-1.5-2.6.9-2.5-2,0-2.3-2.6-.9-2.2.1,0-.1.6,0-.4.2,0,.4-.5,1.1-.6,1.2.4,2.6.9,3.9.6,1.1,1,.5,2,.3,3.1-.5,1.2-1.2,2.1-2,2.5-.2,1.6-.7,3.2-1.6,4.8-.5.6-.7,1.2-1.7,1.1l.3.8c.1.1,1.8-1.1,2.2-1.2,6.8-2.9,15.6-2.9,21.2,2.6,2.9,2.9,2.9,5.4,2.4,9.3,7.1-2.5,14.5,2.6,13.6,10.4h-30l-.2-.7c3-5.7-3-6.1-6.8-4.2-.8.1-1.4-.4-1.2-1.2,6.3-6.9-.5-10.4-6.9-7.5-1.3-1-2.9-.9-4.7.2-.5-.2-1-.5-1.4-1-1.9,1-2.9,0-2.2-2,2.8-5.3-1.5-6.9-5.2-3.8-.8,1-3.3,2.6-3,.3,3.1-5.6,7.1-15.9-3.5-8.8l-5.9,4.5c-1.2.6-1.9-.2-1.5-1.4,3.1-6.9,9.3-22.4-4.1-13.7-3.1,3.3-5.9,6.9-8.5,10.8-.3.3-.7.5-1.2.6-.8-.3-.8-1.1,0-1.4-.2-1-.2-2.1,0-3.1-.8-7.5-.3-15.4.3-23,0-.6.2-1.2.3-1.8.1-.6.3-1.2.5-1.7h0Z"/>
            <path class="st117" d="M186.9,289.4c.6,1.5.8,3,.8,4.5.5,0,.6.2.3.6.6,2.5.7,5.5.6,8.2-.1.8-.3.7-.6,0-.2.1-.4.1-.5.2-.6,0-1.6,0-1.7-.2-.2,2-.2,4,0,5.9,1,.1,2.1.3,3.1.6.9,0,1,.9.3,1.4.3,6.1.2,12.2,0,18.3l.3,6.5c.2,7.5.3,15,0,22.6.8.4.7,1.9.2,2.4v.7c.3,5,.4,10,.1,15h-.3c-.2,0-.6,0-.6-.2-.4-20.5-.6-41.8-.6-62.4l-.4,1.5c-7,13.9-14,27.8-20.9,41.7-.2,1.9-.8,2.8-1.8,2.8-.5-5.7-.3-11.5.8-17.2-.6-5.2-.2-10.4.8-15.5-.2-6.8,0-13.6.7-20.4l.4-1.1-.6-.9c0-7.7-1.9-15.9-7.5-21.5l-.3-1v-.9c8.8-14.5,23.8-6.4,27.5,7.7l-.3.8Z"/>
            <path class="st139" d="M38.8,348.4c1.4-1.7,2.8-3.6,4-5.4,2.5-3.6,4.5-6.9,9-8.7,2.8-1.1,6-.6,5.6,3.2-.4,4.3-2.5,9.1-4.2,13-.3.8-.3,1.7.7,1,2.5-1.7,6.1-5.1,8.6-6.2.7-.3,3.1-1,3.7-.7.2.1,1,.9,1.1,1.2.7,2.5-2.1,8.8-3.6,11.1,1.2.3,1.6-.8,2.4-1.4,1.8-1.2,4.6-2.9,6.4-.6,1.8,2.4-.3,4-.4,5.8-.1,1.8,1.4.3,2,.4.5.1.9,1,1.2,1,.2,0,2.1-1.3,3.3-1.1.6,0,.9.9,1.3.8.3,0,1-.6,1.6-.7,5.1-1.1,10.6.5,7.6,6.8-.3.5-1.7,2.1-1.7,2.2,0,1,3.1-.6,3.5-.6,4.7-.8,7,2.3,4.2,6.4h-49.2l.2-1c2.1-1.6,9.6-10.7,8.2-13.6-1.2-2.3-9.9,4.5-10.8,6-.5.7-3,3.4-2.9,1.3,1.7-3.2,11.2-23.4-.1-14.6-2.4,2.8-4.4,5.8-6,9.1-.5.3-.8,0-1.1-.4-.2-.3,1.2-5.7,1.4-6.4l.6-.3c.4-2,.8-4.3,1.7-6.1l.9-.4c0-.7.3-1.1.8-1.2h0s0,0,0,0Z"/>
            <path class="st109" d="M266.3,326.6c.5,3.7.6,7.5.3,11.3l.6.7c.5,11.6.7,23.4.6,35.3l-.3,2.1h-21.4c-.4-.4-.6-1.8-.5-2.4.9-12.7,1.7-25.3,2.5-38,0-1.5.4-3,.8-4.4.8-1.1,1.4-2.1,1.7-3.5l1.3-1c3.7-8.2,7.5-16.3,11.4-24.4.5-.9,1.6-2.5,2.5-2.4l.3.8c0,8.8,0,17.4.3,26h0Z"/>
            <path class="st128" d="M200.5,308.9l.3.8c.5,9,1.1,17.7,1.7,26.3.2.7.3,1.4.4,2.1,1.4,11.9,2.4,25.1,2.5,36.8l-.4,1.2h-15c-.2-5-.2-10-.1-15.1v.2c-.6-.7-.4-2.1-.4-3.1,0-15.6,0-31,0-46.3,0-.2,0-.6,0-.6,2-.7,8.8-2.6,10.6-2.7l.5.5h0Z"/>
            <path class="st50" d="M189.4,376h-10.8c0-6.7-6.2-13.7-13.1-10.2l-.7.4c-.6,0-.6-6.2.5-6.9.9-.6.8-2.1,1.3-3.1,2.5-5.6,5.6-11.1,8.3-16.6,4.4-8.9,9.1-17.8,13.4-26.8l.3-3.2.8,66.3h0Z"/>
            <path class="st161" d="M230.5,303.8c-.5-2,.8-1.4.9.2l8.4-1.5.4.5c1.2,8.5,1.3,17.2,1.4,25.7,0,0,0-1.4.3-1.4l.6.2c.9,16.1,1.8,32.2,2.7,48.3l-.5.4h-12.8l-.6-.2c-.4-14.2-.7-28.4-1-42.7l.5-.2c-.2-.8-.2-1.4,0-2.1-.2-8.6-.4-17.1-.6-25.7l.4-1.4h0Z"/>
            <path class="st10" d="M209.9,345.8c1.7-3.8,3.6-7.6,5.7-11.4l1.9-5.2c3.4-7,6.9-13.9,10.4-20.8-.2-1.2,1-4.7,2.3-3.3.2,8.8.5,17.7.4,26.6,0,0,0-.7.1-.8l1.1,45.1h-8.1l-.5-.5c.5-2.6.6-6.4-2.4-7.5-2.3-.3-3.8-1.2-1.4-3.2,1.6-2.9-.9-9.3-4.5-9.7l-.3-.6c-.4.9-3.8.9-4.3,0l-.6-.9c.3-2.6.1-5.1-.5-7.4l.5-.5h0Z"/>
            <path class="st154" d="M275.2,296.7c.4,5.8.7,11.5,1,17.2-.3,1.2-.2,1.3.1.3.6,4.8,1.1,9.8.8,14.7l.4.2c-.3.3-.2.9,0,1.3.1.4.3.7.6,1l1.9,34.5c-.4.7-1.9.8-2.8.7v.6c-3.6,1.3-5.4,4.7-5,8.4l-.5.6h-4.2c-.4-11.3-.3-22.7-.5-34,0-1.3-.3-2.7-.3-4.1.2-8.9,0-17.5-.4-26l-.2-.5c0-4.4,0-8.7,0-13,0-1.5.9-.8,1,.4,2.4-.6,4.8-.9,7.3-1.1,0-1,.2-1.3.9-1h0Z"/>
            <path class="st146" d="M202.2,323c.3.9.6,1.9.7,2.8l1,15.2c2,.4,4.6,1.1,5.4,3.1.1-.2.3-.3.7-.2.9.4.6,1.3,0,2,0,.9.5,1.8.6,2.7.1,2,0,4.1,0,6.1h4.3c4.1,0,7.1,7.2,5.2,10.6-2.8,2.5.3,1.6,2,2.6,2.7,1.7,2.4,5.4,1.8,8.1h-18.9c-.5-3.6-.4-7.3-.6-10.9-.6-9.7-1.4-19.6-1.9-29.2-.5-4.5-1-9.3-.6-13.8-.1-.6,0-.9.3-.8.3.4.3.9,0,1.7Z"/>
            <path class="st34" d="M242.4,300.4c.6.5.3.9-.9,1.2.4,2.4.5,4.8.6,7.3,0,.2,0,.4-.2.7,0,.2-.2.5-.3.7l.4.8c.2,2.5.4,4.9.6,7.4l5.8-.9.7.5c.1.3.2.6.3.9.4,1.6.3,9.7-.2,11.1-.1.3-.3.6-.4.9-.7,14.1-1.4,28.4-2.8,42.5,0,.7.5,1.5,0,2.4h-1.4l-2.8-48.8c-.4-8.8-.9-17.7-1.5-26.5,0-.3,1.9-1.1,2.1-.3Z"/>
            <path class="st9" d="M138,195.7c1.1-.3,2.2-.3,3.3,0,2.9,0,5.7.3,8.5.7l.7.7c3.4.6,5.8,2.4,8,5l60.3,8.7c.4-.2-3-3.1-3.6-3.4v-.8c1.7.3,3.5.6,5.2.8,1.9.7,4.1,2.4,4.5,4.4,15.7,2.4,31.5,4.6,47.2,6.6-1-1.2-2.2-2.2-3.5-3v-.6c1.5.2,2.9.6,4.2.8,1.9.5,2.9,1.8,3.7,3.5,12.2,1.9,24.5,3.6,36.9,5.1.4-.2-1.4-1.9-1.9-2v-.7c-.6-1.4,2.4-1,2.1.3,1.7.2,3.1,1.2,4.1,3.1l29.3,3.6c.2,0,.4.3.5.6.9-.5,1.5,1.4.6,1.7l-.3.5-29.4-3.6c0,3.4,0,6.9,0,10.4l-.4.8c.6,1.6.8,3.4.5,5.4l29.2,1.1c.4.4.4,1.1.3,2,.4.3.5.5.3.9l-2.3,3.1c1,0,2,0,2.8.6,5.1-.8,10.2-.8,15.3,0,3.2-.4,6.3-.5,9.7-.3l8.8.3.3.6c.7.3.4,1.2-.3,1.4l-3.2.4c-58.7.5-117.1.2-175.1-.8-18,.1-36,.2-53.8.1l-3.6-.3c-24.6,0-49.3,0-74.1,0l-.8-.5h-.7c0,0-2.9-2.7-2.9-2.7v-.7s.2-.6.2-.6c17.4,0,34.7.2,52.1.3l1,.6c0-.7.7-.9,2-.6,8.3-4.2-3.3-13.4-3.1-2.3-1.1,0-2.3-.1-3.4-.2-.9.5-1.6-2.1-.8-2.5l-.7-.4c-.2-1.8-.7-3.6-1.3-5.4l.3-.7,1.6-.3c12-.3,24-.2,36,.2l1.6.4,3.1-.3c20.9.9,41.5,1.9,62,2.9l1.3.4c-.4-3.3-.4-6.6.3-9.9l-.4-.6c0-5.3,0-10.6-.4-15.8l-61-8.7c-1.5,3.9-2.9,7.8-4.3,11.8l-.5.3c-.2-.3-.4-.7-.4-1.1l1.4-8.3c1.8-8.9-10-10.2-16.3-10.2-7.3,0-13.4,1.9-20.2,4.4-.4,0-.8,0-1.1-.3-.5.2-.7-.4-.7-1,0-1.7,6.2-4.7,8-4.3,4.2-1.1,8.7-2.3,13-1.8h0s0,0,0,0Z"/>
            <path class="st79" d="M382.2,167c2.2.5,3.5,1.4,5.4,2.8.8.6,4.3,3.5,4.2,4.1,0,.1,0,.3-.1.4,1,.5,1.3.8,2,1.8,2.9,4.4,5.3,10.3,5,15.7l.4.5c.5,3.8,1,7.6,1.5,11.5,0,.4-.2,1.4-.4,1.5-.5.3-5.8-7.8-5.8-9.5l-.5-.3c-3.4-4.9-6.9-9.7-10.6-14.5l-.3-1.3c-.2-.3-.4-.8-.6-1.1l4,.6,2.4-.3-8.4-4.3c-2.5-3.2-5.4-6-8.2-9,0,0-.2-.5.2-.6,2-.5,7.8,1.1,9.8,2h0Z"/>
            <path class="st68" d="M240.2,210.4c6.6.2,13.3,1.2,19.7,3.1,3,.5,6,1,8.9,1.4,1.2.9,3.6,2.4,4.2,3.8.1.4,0,.5-.4.4-15.9-2.1-32-4.2-47.8-6.8-.8-2.3-2.7-3.3-4.3-4.8,6.6,1,13.2,1.8,19.7,2.8Z"/>
            <path class="st121" d="M281.3,216.9c5.3.8,10.5,1.4,15.8,2.3.6-.4,1.5-.4,2.6,0,4,.2,7.9.8,11.7,1.8l.2.7c1.1.6,3,2,2.6,3.4l-36.3-4.8c-2.5-.5-1.5-.8-2.7-2.4-.6-.8-1.5-1.4-2.2-2.1,2.7.4,5.6.7,8.3,1.1h0Z"/>
            <path class="st170" d="M376.6,258.6l.2.9c-.9,1.6-1.8,3.1-2.2,4.8l-.7.5c.1,1,0,2,0,2.9-5.6,1.7-8.9,6.2-9.4,12-1.4,0-2.8-.3-4.2-.7-1.5.8-2.1.8-1.9-.2l-.6-.4c-.5-7.6-8.6-18.8-15.2-9.2-.5,0-.9.3-1.2.8v1.1c-1.8,3.6-2.6,7.6-3,11.6l-.6.9v.6c-2.5.8-5.7,1.2-8.1.5-.3.2-.5,0-.3-.3-.2,0-.2-.2,0-.3-.4-1.1.2-.9,1.1-.6.2-7.2-2-18-9.7-20.5-10.3-3.3-14.8,14-15.2,21.4l-.6.7c.8.5.8,1.4,0,2-.8.5-2.5.6-3.3.3l-.6-.8c0-6-.8-11.3-4-16.4-8.3-13.2-18.4-4.9-22.1,7.2-.4,1.2-2.4,11.8-2,12.8.1.2,1.7-.1,1.9-.5.5-.1.8.2.9,1.1-1.4,1.1-3.9,1.5-5.6.8-.7,0-1.2,0-1.7-.3l-.5-1.2c.6-8.9-4.5-26.7-15.7-25.3-11.2,1.4-14.4,18.4-14.9,27.4,0,.3,0,2.1,0,2.1.2.1,2.4-.5,2.6-.7l.4.9c.2,0,.2.2,0,.3-1.7,1.2-4.4,1.8-6.4,1.1-.7,0-1-.3-.8-.8l-.6-1.3c0-9.6-5-28-17.1-27.4-11.5.6-15.9,14.5-17.4,24.2-.1.4-.4.9-.7,1.2l.5.6-.7,4.8c-.7,2.6,0,3.4,2,2.4-.6-1,.4-4.9,1.2-3.1v4c.1-.2.2-.2.3,0-.7.9-1.8,1.3-3.2,1.4-2,.4-4.7,1-6.5.3-.5,0-.8-.2-.8-.6,0-.7.7-1.1,1.7-1.2.9-12.1-6.5-33.1-20.9-32.8-12.7.3-18.7,16.2-20.9,26.9-.3,1.7-2,13-1.3,13.6,0,0,2.4,0,2.4-.2.2-.3.3-2.6.1-3.1,0-.9.3-1.5,1.3-1.3-.1,1.7-.1,3.4,0,5v.6c-4.3,1.4-8.7,2.4-13.3,3v2.8l-.6.4c-1.3.7-1-3.8-.7-4,.6,0,1.1-.2,1.5-.5.1-.6.7-1,1.6-1.2.6-13.2-3.5-31.3-16.2-37.7-14.2-7.1-26.3,5.6-31.7,18-2.8,6.4-4.9,14.3-4.6,21.1h-1.3c-2.1-.4-3.6-.2-5.6.6,3.7-4.1,2.4-11.7-2.7-14.1-1.9-.9-2.9-.6-4.8,0,1.6-4.6,0-10.9-5.4-11.5-2.5-.3-5.8.5-7.6,2.4-.7.7-1.9,3.5-2.1,3.5-.8.2-1.7-.5-2.5-.6-4.8-.6-8.4,2.7-11.4,5.9-.4.4-.4,1.3-1,.7.2-2.7-.1-5.5-1.7-7.8,0-.4-.2-.8-.2-1.1,0-.4,0-.8,0-1.1,1-7.7,2-15.3,3.7-22.8,0-.4.2-.7.4-1,.2-.3.4-.7.6-1,1,0,1.1.8.4,2.6,2-.4,4-.5,6-.3l.5.6h.6s1.4-4.1,1.4-4.1c.4-1.4,2.6-1.8,2.4-.1.2.7,0,1.5-.7,2.5-.3,1.6-.9,2.1-1.8,1.7-1.9,2.2,1,17.8,1.7,17.3,2.8-2.1,4.4-12.6,4.2-16.1l.5-.8c-.2,0-.2-.1,0-.3,0-.2.1-.6.3-.6,1.1,0,8.8-.3,9.3,0,2.2,3.3,4.3,6.6,6.4,10,.4-3.3.3-6.6-.1-10,1-.6,2.1-.9,3.5-.8,95.5-3,197.6-5.2,293.7-6.9l1.1.4h0s0,0,0,0Z"/>
            <path class="st86" d="M138,311.7c-.5.6-1.3.7-2.5.4,0,2.1.2,4.2.4,6.2l2.5.6v.7c.9,4.2,1,8.5.1,12.7v6.7c-.2.9-.8.3-.8-.8,0-5.2,0-10.4,0-15.5-.2-1.7-.4-1.5-.6.7l-1.5,1.3c-2.9,5.1-5.9,10.2-8.9,15.3l-.6.4c-.2,2.6-2.7,2.9-2.6,0-.4.5-.9.7-1.5,1,.1.7.3,3.4-.3,3.6-.1,0-.2,0-.4,0l-.4-2.9c-.3-4.6-2.5-9.3-6.9-11l-.4-.9c.2-6.8.5-13.5.9-20.3l.6-1.7-.6-1c-.4-8.4-3.7-17-10.3-22.2l-.5-1c.6-2.3,3.5-4.2,5.6-5.3,14.5-8,24.7,6.4,27.6,19.6.5,2.3,2,11.2,1.3,12.8,0,.2-.2.4-.3.6h0Z"/>
            <path class="st120" d="M87.4,311.7l1.1-.4c-.8-.7-.4-2.8-.2-3.9,1.4-12.8,8.5-30.8,21.2-35.7,16.7-6.4,27.7,8.3,31.1,23.1,1.2,5.2.9,10.3,1.2,15.6-.1.4-1.7.9-2.2,1-.6.2-1,.5-1.3.8l-.4-.5c-.3-8.5-1.6-17.7-6-25.1-6.9-11.4-19.4-12.6-28.2-2.6v.8c-3.2,4-5.9,8.6-7.1,13.6l-.7.5c-.9,4.2-1.6,8.5-2.2,12.9.1,1.3,0,2.2-.6,2.9-2-1.2-3.4-2.6-5.8-3.1h0Z"/>
            <path class="st71" d="M152.7,318.7c0,.2.2.2.3,0h.2s1,18,1,18l.4.4,1.1,19.3-.5.4c-2.6-.6-5.4,0-7.7,1.3-.4.2-2.3,2.1-2.5,1.8,0-3.8-1.2-7.6-3.6-10.6-.4-.5-2.1-2.4-2.5-2.7l-.6-.8c-.2-.6-.2-5.6-.1-6.6,0,0,.2-.2.5-.3,0-2.2,0-4.5,0-6.7,0-4.2,0-8.5,0-12.7,0-1.4,1.5.2,1.2,1.6l12.6-2.9.4.5h0s0,0,0,0Z"/>
            <path class="st140" d="M51.6,252.7c-.2.6-.5.6-1,.5l-1.4,5-.7.4c.4,1.6-.2,3.9-1.4,5.1-2.2,8.9-3.3,18-4.4,27.1-.4,3.5-.7,7-1.1,10.4,0,.8,0,1.6.3,2.3-.3,4.5-.8,9.4-2,13.8-.7,8.9-1,17.6-1.1,26.5-.2,1-.2,2.1,0,3.1,0,.5,0,.9,0,1.4-.2,2.6-1,1.2-1.5,2.3-.3.5-.2,1.6-.5,2.3-.1.4-.5.6-.7,1-.3.7-.1,1.5-.6,2-.3-2.3,1.6-10.5-.2-11.8-1-.8-2.5-.6-3.4.3.2-4.9.6-9.8,1.1-14.7.8-8.6,1.8-17.1,3.1-25.7,1-6.6,2.1-13.2,3.3-19.7,1.1-5.8,2.1-11.8,3.6-17.5.7-2.7,1.6-5.5,2.5-8.2l-.3-.6c.4-.9,1.8-4.3,1.5-4.8h-3.9l-.4-.6c.9-1.7,3.3-3.1,5.1-4.1,2.9-3,4.3,1.1,4.6,3.6l-.4.5h0s0,0,0,0Z"/>
            <path class="st113" d="M96.1,299l.5.7c5.8-2.5,12.4.5,12.8,7.4,1.8-.7,5.2-1,5.9,1.2.1,7.6-1.1,15.3-1.1,22.8-2.9-1.1-5.2-1.2-8.1.3,1.4-2.6,1.5-6.1.6-8.9-1.5-4.7-7.5-7.1-11-3-.7-1.5-2.2-3.3-2.4-4.8-.2-2.7.6-7.7,1.2-10.5.3-1.7.8-3.8,1.6-5.3h0Z"/>
            <path class="st56" d="M41.6,301.2v1.4c4.2-1.2,9.6,1,12.2,4.2,2.8,3.3,4,9.1,3.3,13.4-.2,1.2-2.7,7.6-2.2,8.1l2.5-.3c-2.4,2.8-2.4,2.3-5.5,3.6-.4.2-1,1.4-1.7,1.2-.4-1.4,1.5-2.6,1.6-3.6,0-.6-.4-.9-.4-1.4,0-.4.4-.9,0-1.2-.2-.2-.9-.3-1.3-.7-.5-.5-.6-1.5-1-2.1-2.3-3.6-5-5.9-9.3-6.5.4-5.4,1.1-10.9,1.7-16.1Z"/>
            <path class="st41" d="M153.3,316.5c.3.1.7.3,1.1.6.7.6.8,4.9.4,5.5-.1.2-.5,0-.7-.2-.2,0-.3,0-.3,0-.2-1.4-.1-3.8.3-5-.2.5-.3.6-.3.3,0,3.3.2,6.7.8,10l.2,8.5c4.7-1,9.5,1.3,11.2,6-.3,5.7-.5,11.5-.8,17.2,0,1.8-.4,3.6-.3,5.5,0,.5-.3,1.1.6,1-.7.3-1.5,1.3-2.2,1.7,0-4.9-3.3-9.6-8.1-10.7l-2.2-38.1c-.3-.6-.5-2.5.3-2.3h0s0,0,0,0Z"/>
            <path class="st82" d="M121.1,342.1l.6,2.8c0-1.6.4-2.7-.3-4.2,1.6.4,1.8-1.1,3.1-1.4-.3.7-.5,3.4.9,2.4.3-.3.3-1.2.5-1.6.1-.2.7-.4.9-.8,1.1-1.8,1.8-3.5,3-5.2,1.9-2.9,3.5-6.9,5.5-9.6.8-1.1,2.5-1.2,1.2-2.9l1.1-.6c-.6-.2-2.2.5-1.9-.6.3-.3,2.2.6,1.9-.6-.3.2-3.6,0-2.8-.8.1-.1,3.3.6,3.3.7-.2.9.2,1.8.2,2.5,0,.7,0,1.9,0,2.8.1,4.6-.1,9.3,0,14,.5,0,.3-.6.3-1,0-1.9,0-3.9,0-5.8l.3,14.4c-3.8-2.9-10.1-3.1-14.2-.7l-4.4,3.2c1-2.1,1-4.7.8-7h0s0,0,0,0Z"/>
            <path class="st38" d="M403,211.5c1.4,4.9,2.6,10.2,3.7,15.3,0,.3,0,.7,0,1.1,0,.4,0,.7-.2,1.1.5,1,.9,2.1,1.2,3.2.9,4.4,1.6,8.8,2.2,13.2.2,1.1,0,2.3,0,3.4.5,3.5.9,7,1.4,10.4,1.4,10.4,2.7,21.2,3.6,31.6,0,1-.4,3.6.8,2.8.5.6.2,2.5-.6,2.8,0,.3.2.5.6.7,1.1,9.5,1.9,19.8,1.4,29.8,1,2.8,1,6.1.3,9,.9.1,1.1,2.6.3,3,.9.5.9,4,0,4.5.9,1.1,1.1,4.1.3,5.2,0,3.4,0,6.8.3,10.2-.4,0-.6-.1-.8-.4-2.3-2.5-3-5.4-6.4-7.8-1.1-4-.5-8.6.3-12.7-.8-1.8-.8-3.8,0-5.6,0-2.8,0-5.5-.3-8.2-.9-4.5-1-9.3-.3-13.8-1.1-3.2-1.1-7-.6-10.4-.9-5.4-1.4-10.8-1.5-16.3-.6-5.5-.8-10.9-.7-16.4-1.4-5.5-2.2-11.5-1.9-17.2-.2-.5-.4-1-.5-1.4-.2-.5-.3-1-.4-1.5-.6-5-1.2-9.9-1.7-14.9-.1-1,0-2,.1-3-.2-.3-.4-.6-.5-.9-.1-.3-.3-.6-.3-.9-.9-4.3-1.7-8.7-2.4-13.1-.1-.9-.3-1.7-.3-2.5,0-.2.3-1.3.4-1.7,0,0,0,1.4-.7,1-1-.3.5-3.9,1.1-3.7.9.4,2.3,3.1,2.2,4.2h0Z"/>
            <path class="st26" d="M367.4,308c1.2-.6,2.6,1.5,1.7,2.3,1,.7.2,3.6-.8,3.9.1,1.4-.1,2.8-.7,4.3-.6,1.5,5,10.9,5.6,10.8.6-.1,2.7-7.2,2-8.2l-.2-6.1.5-.8c-.5-.4-.5-.8,0-1.1.5-1.3,3.4-.9,3.3.6l.6.3.5,5.4c.8.1,3.2-5.3,2.8-6.5l.5-.5c-.3-.7,1.4-1.5,2.1-1.7,3.4-1.2,3.3-.2,2.8,2.9-.1.8-.5,2.8-1.3,2.8.4.9.2,2-.4,3.3-1.9,3.6-3.9,7.1-6.1,10.5-.1.8-.4,1.4-1,1.7l.5,1.1c-.1,3.2.2,6.4.9,9.6l-.3,1.2c.2,0,.3.2.4.3.3.3.5,8,.4,8.4l-.5.8c-1.4,1.3-2.4,3.4-3.6,4.8-.4-3.2-1.6-5.6-3.6-8-.4-.5-1.4-1.1-1.5-1.3-.4-.7.2-1.7-.4-2.3l-.5-.7c0-2.9-.1-5.9-.9-8.7l.4-.8-.7-.5c-1.2-4.2-3-8.7-6.4-11.5v-.7c-1.7,1.1-9.1.7-9.7-.9-.6-1.8,5.6-5.2,6.9-5.8,2.4-1.7,4.1-4.1,5.1-7.2-1.1-1,.7-2.6,1.7-1.7h0Z"/>
            <path class="st11" d="M400.2,341c.1,0,.2-.1.3-.2.5-.1,4.7,6.2,3.6,6.8-.1,0-.2.1-.4.2-3.4-.4-7.6.3-9.6,3.4-.5.8-1.4,4.3-1.7,4.5-1.3.5-2-1.1-2.9-1.8-2.6-1.9-6.2-3.2-8.9-.7l-.3-9.6c.7-1.1,1.7.2,2.1,1.1,1.1-4.8,4.8-8.7,10-8.4,2.9.2,6.6,1.8,7.7,4.7Z"/>
            <path class="st140" d="M435.2,295.6c.7-.2,1,.2.6.8,3.4,7.9,4.6,16,5.8,24.5.8,5.9,1.5,11.9,1.9,17.8.3,4.1.9,9,.6,13.1,0,1-.5,2.3-.8,3.2-.6-1.2-2-3.9-3.3-4.2-.4-.7.4-1.1.5-1.8.5-3.2-.4-7.6-.5-10.8-.3-6.4-.4-12.8-1.1-19.2l-.4-.7c-.7-5.8-1.8-11.5-3.5-17l-.3-2.9c-1.4,0-.2-4.4.6-2.8h0Z"/>
            <path class="st150" d="M400.2,341c-1.8-2.2-1-6.7.9-8.6,4.2-4.3,9.6.9,9.9,5.7,0,.2-.2,1.9-.2,1.8,0-.1,0-2.3.6-2,0,4.2-.3,8.5-.3,12.7-1.6-1.1-5.3-2.6-7.2-2.8,0-.9-.3-1.8-.7-2.5-.4-.7-2.3-3.6-2.9-4.3h0Z"/>
            <path class="st100" d="M152.7,309.1c-.5-.1-.3-.9-.3-1.3,0-1.2,0-2.4,0-3.5-.9.4-.3,1.9-.3,2.4,0,.8-.4,1.6-.2,2.4-3.6,0-3.8,1.2-3.6-3,.5-10.8,3.6-25.7,11.6-33.4,12-11.5,24.9-2.2,29.8,10.8,2.2,5.9,2.5,11.7,3,17.9-1-.3-1.8.4-2.5.6-.1.5-1.2.8-1.4.3-.2-2.6-.4-5.3-.8-7.9-.1,0-.2,0-.3-.1,0-.1,0-.3,0-.4,0-1.5-.3-3-.8-4.5-2.1-6-5.5-13.2-12.2-15.1-7-1.9-11.5,1.9-15,7.5l.2.8c-1,1.6-1.8,3.3-2.5,5.1l-.7.3c-.8.3-1,.8-.8,1.7l.3.8c-.6,1.8-1.2,3.6-1.4,5.5l-.6.5c-.3,3.9-.6,7.7-.8,11.7l-.6,1h0s0,0,0,0Z"/>
            <path class="st101" d="M154.4,317c.2-.6.7-.5,1.5.4,5.7-2.1,12.1,1.8,10.8,8.3l.2.9c-.2,5.2-.6,10.3-.8,15.5l-3.2-3.7c-2.1-2-5.8-2.5-8.5-1.4-.4-2.9-.1-5.7-.3-8.6-.2-3.5-1-7.2-.6-10.7,0-.5,0-.5.6-.4v5.1c.5,0,.3-.6.3-1,0-1.5,0-2.9,0-4.4h0Z"/>
            <path class="st96" d="M154.1,296.4c.5.3.7.9.6,1.6,3.8.3,7.4,3.4,7.8,7.4,1.1-1.1,5-1.8,5.6-.2,0,7.1-.8,14.3-1.1,21.4-.9-.8,0-2-.3-3.2-.5-2.6-3.7-5.8-6.3-6.1-1.4-.2-4.3,1-4.9.5-.5-.4-.1-.6-1-.8-.6-.1-1.3.4-1.1-.6,0-.5.3-.7,1.1-.6.3-.2-.1-6-.4-6.2-.6,0-1-.1-1.3-.6.2-4.2.3-8.6,1.4-12.7h0s0,0,0,0Z"/>
            <path class="st84" d="M168,305.2c-1.1-.5-3.1-.3-4.3,0-.9.3-1,1.1-1.8,1.1.1-3-1.7-5.5-4.2-6.9-1.2-.6-2.5-1.2-3.6-.2,0-.9,0-1.9,0-2.8.1-2.1.9-4.7,1.7-6.8-.4-.5.1-1.7.8-1.7,1-2.5,1.6-3.9,3.1-6.2,6.5,5.7,8.4,15,8.3,23.4h0Z"/>
            <path class="st53" d="M190.2,302.1c.4,0,.7.2.8.6-.1.6-.6.7-1.1.8-.5.4-.3,4.2-.2,5l10.4-1.8c1,0,.7,1.7.4,2.2l-11.1,2.8c-.2-.3-.3-.7-.3-1.1-.1-.5-.2-1.1-.3-1.4-1.1-.2-2.1-.4-2.9-.7v-5.6c.7,0,1.4,0,2.1-.2.2,0,.4,0,.6,0,0-.3.1-.4.3-.3.4-.1,1-.2,1.4-.3Z"/>
            <path class="st28" d="M189.4,311.7c.3,3.6,0,7.8,0,11.4.2,11.1.4,22.2.3,33.3,0,.5.2,1.3-.3,1.5,0-7.5,0-15,0-22.6l-.3-6.5c0-6.1,0-12.2,0-18.3,0,.4.2.5.3,1.1Z"/>
            <path class="st160" d="M188,302.7c-.3.6-1.8.1-1.9.3-.2.2-.2,5.5,0,5.6.1,0,2.6,0,2.8.6-.6,0-2.9-.2-3.1-.6-.2-2-.2-4,0-5.9.7,0,1.5,0,2.2,0h0Z"/>
            <path class="st131" d="M188.8,302.4c0,0-.2.3-.3.3l-.6-8.2s.1-.3.3-.3l.5,3v5.2c0,0,0,0,0,0Z"/>
            <path class="st50" d="M189.4,335.4c-.5-2-.3-4.4-.3-6.5.5,2,.3,4.4.3,6.5Z"/>
            <path class="st152" d="M185.8,308.6c-.5-1.7-.5-4.2,0-5.9v5.9Z"/>
            <path class="st131" d="M187.7,293.9c-.3-1.5-.6-3-.8-4.5.4,1.3,1.5,3.1.8,4.5Z"/>
            <path class="st36" d="M265.8,292.2c-.1.6-.6.8-1.6.7l-.2,3.6-.5.5c1.9.2,2.8.8,2.2,2.8-.5,1-1.2,1.2-1.8,2.2-1,1.7-2.2,4.8-3.2,6.9-2.5,5.1-4.9,10.2-7.2,15.2-.4.9-.9,2.1-1.2,2.7-.2.5-1.1.6-1.4,1.1-.2.4,0,1-.3,1.4-.3.6-1.1,1.2-1.2,2.1l-.6-.4c.2-4.3,0-8.7.3-13-.6-5-.3-10.3.8-15.2l-.5-.9c.6-7.7,1-14.5-2.1-21.7-.5-1.1-1.5-3.3-2.7-3.4-.7-.6-.3-1.6.6-1.7-.2-.5.4-1.1.8-.8-.2-1.6,2.6-3.6,4-4.4,10.3-5.3,16.8,12.4,16,20.4.2.8.1,1.3-.2,1.7h0Z"/>
            <path class="st61" d="M263.6,297c.9-1.3,3.5,0,2.5,1.4.5,3.5,0,9.1,0,13,.6,5,.7,10.2.3,15.2-.5-.3-.3-1.1-.3-1.5,0-8.1.3-17.3-.3-25.2,0-.4-.2-2-.3-2.2-.2-.3-1.7-.1-1.9-.6Z"/>
            <path class="st87" d="M266.1,311.4c.8-.2.5.4.6,1,.3,7.8.4,16.2.3,24,0,.5.2,1.3-.3,1.5,0-3.7-.2-7.6-.3-11.3-.1-5.1-.2-10.2-.3-15.2Z"/>
            <path class="st57" d="M200.8,301c.2-.2,1.9-.2,2.1-.1.2.2,0,5.2,0,5.9.4.6,0,.8-1.2.9-.2,1.3-.2,2.6,0,4-.5.1-.6.6-.3,1.2.2,3.1.4,6.2.6,9.3-.1,4.4.3,9.4.6,13.8h-.3c-.9-8.8-.5-18.3-1.7-27.1,0-.4.2-1.7-.1-1.7-1.4,0-10.5,2.2-11,1.9-.6-.4-.1-5-.3-6.1.7,0,1.3-.2,1.9-.3,3.2-.5,6.6-.6,9.7-1.7h0Z"/>
            <path class="st7" d="M228,283.2c.5,1.4.9,2.8,1.1,4.2.5,1.9.7,3.9.8,5.9.8.9.8,2.4,0,3.4.3,1.1-1.8.3-2.2-.3l.6.3v4.9l-.6.4c0-.2,0-.5.2-.5,2-.6,2.9.4,2.6,2.2-.1,9,.4,18,.3,27.1,0,.6.3,2-.3,2.3,0-2.7,0-5.4,0-8,0-.7-.3-1.3-.3-2-.1-5.3.4-11.2,0-16.4,0-.5,0-1.2-.4-1.5-1.6.9-1,2.5-1.4,3.6-.7,2-3.1,5.6-4.1,7.7-1.3,2.7-2.4,5.7-3.7,8.4-1.4,2.7-2.4,3.7-3.3,6.8-1.1,3.7-3.2,6.5-4.9,10-.7,1.5-.6,3.3-2.4,4.1,0-.7,0-1.3,0-2-.3-.5-.5-1-.6-1.6.1-8,.7-15.9,1.3-23.8,0-.3.1-.5.2-.8.1-.3.3-.5.4-.8l-.3-.7c.3-6.4.5-12.9.4-19.3l.5-1.4-.6-.6c-.5-5.1-1.6-10.5-5.4-14.3v-.9c0-2.4,2.6-5.1,4.5-6.5,7.6-5.8,15,2.1,17.8,9.2l-.2.9h0Z"/>
            <path class="st130" d="M240.5,295.3c.3-1,1.5-.7,2.1,0,.2.2.9,5.3-.2,5l-1.7.5c.2,8.8,1,17.6,1.1,26.3l-.3,1.4c-.3-3.3-.1-6.7-.3-10-.3-5.2-.6-10.5-1.1-15.7-.5-.2-.7-.7-.6-1.6l-8.4,1.3-.4-.5c-.2,0-.5,0-.6-.2,0-.4,0-4.5,0-4.7l.6-.4c1-.4,2.4-1,3.3-.3,2.2-.3,4.3-.7,6.4-1.1h0Z"/>
            <path class="st129" d="M234.1,296.4c-1.1.1-2.2.3-3.3.3v5.4l9.4-1.4c0,.7,0,1.5,0,2.3l-9.4,1.7v-2c-.1,0-.3,1.1-.3,1.1-.5-.3,0-1.3-.5-1.6-.4-.3-2.2,0-2.2-.1v-5.6c.5,0,1-.1,1.5,0,.4.1-.3.7.7.3.2-1,2.8-2.1,3.3-1.1.3,0,.7.6.8.8h0Z"/>
            <path class="st134" d="M338.8,332.8c1.8-.9,4.2.6,5.7,2,1.9,1.7,3,4.1,3.7,6.5,2.6-4.5,7.5-3.9,10.2.2,1.7-2.8,3.6-5.4,6.9-6.1,1.4-.3,4.2-.2,5.2.7,1.1,4,1.2,5.9,1.1,10.2,0,.7,0,1.3,0,2-7.7-4.2-12.7,3.3-12.8,10.4-1.8-2.6-4.4-4.6-7.8-3.9v-2.5c-1.4-1.3-2-3.3-4.3-3.2-2.6,0-4.4,3.2-5.5,5.1-.2.3-.8,1.5-1.1,1.4-.4-.2-.3-.5-.3-.8.1-2.7.9-8.3-1.6-10.2-1.8-1.3-3.7,1.9-4.2,3.3-1,3-.8,6.8-.9,9.9-1.2-.8-1.5-2.4-2.2-3.6-1.8-3-5-5.4-6.9-.9-.5,1.3-.4,3.8-.8,4.5-.2.4-.4.1-.6,0-1.6-.7-1.6-1.5-3.8-1.2-3.1.4-2.9,3.3-3.2,5.6,0,.8,0,1.5-.3,2.3-.4-.4-1.7-.2-1.9-.3,0,0-.1-.9-.3-1.2-.7-1.1-5-.1-5-1.4,0-.4.6-.8.6-1.4,0,0-.9-.3-.6-1-.6-.8.6-1.7,1.5-1.9-.5-2.1-.4-4.1.1-6.2l.6-.3c.9-6.8,9.2-10,15-6.6l.2-1.9c.1-1.4.6-2.3,1.4-2.8-.7-1.1,1.5-4.5,2.8-4.2,0-.2.1-.3.3-.3.2-1.1,2.8-2.7,3.6-2,.8,0,1.7,0,2.5-.3,0-1,2.8-1.1,2.8,0h0Z"/>
            <path class="st103" d="M398.8,190.9c.2-1.2.6-1.4,1.2-.6,1,2.6,2.2,5.1,3.5,7.5-.3.6-1.7,6.1-1.2,5.9l4.3-3.4c.4-.2.7-.2,1.1-.1l7.7-1.9c5.9-.4,11.7,1.6,16.2,5.3,4,3.3,7.2,8.5,8.6,13.5.7,2.5,1,5.2,1.1,7.9-.5.5-2.6-1.8-3.1-2.3l-1.3-.4c-2-1.9-4-3.7-6.2-5.4l-2.6-4.8c1.4,3.1.2,3.4-3.6.9l-.2-.7h-1.1c-4.2-2.4-8.5-4.7-13.2-5.7,1.7.8,3.2,1.9,4.7,3.1l.2.9c2.2,1.7,2.3,3.3-.8,3.4-.3,1-1.1,1.8-2.4,2.2-.4,1.9-.5,4-.2,6.2-.3.5-.7.5-1,0-3.2-3-5.9-6.9-7.5-11-.8-1.3-1.6-2.6-2.4-3.9l-1,3.4v1c-1.4,3.3-2.8,6.7-4.1,10.1-2,4.8-2.9,1.1-3.5-1.7l-.5-1.5-.6-.3c-.2-1.7-2.8-4.2-3-1.4-3.1,1.9-1.5-1.8-.6-3.1-.4-1.1,1-2.6,1.9-3.3l3.1-2.4.4-.8c1.5-.9,3.1-1.6,4.8-2.1,0-.6-4.8-2.2-5.8-2.3l-.7-.7c-1.3-.2-2.1-.7-2.2-1.4.1-.9,1.1-1,2.9-.3-.6-2.5-1.4-5.1-2.2-7.6,0-.8.2-1.1,1-.6h1c.9,1.2,1.9,2.2,2.9,3.1,1.9,3.1,3.8,6.3,5.8,9.3-1-4.3-1.1-8.8-1.7-13.3.3-.2.3-.5.3-.8h0Z"/>
            <path class="st25" d="M414.9,210.7h.8c1.4.9,4,3.3,4,5.1,3.2,5.3,4.3,13.7,3.3,19.7-.1.6-.1,1.3-.3,2-.6.1-.6-.3-.8-.6-2.9-3.3-5.3-7-8.1-10.4l-.7-.5c-.8-4.8-1.1-5.4-.7-1.8-.8,1.6-2.8-.6-2-1.7.3-.3.8,0,.9-.7.1-1.1-.4-5.4-.2-5.8.3-.5,1.7-.9,2.1-1.3.3-.3.3-1,.5-1.1.6-.4,2,.3,2.4-1.2.1-.5-1.1-1.2-1.3-1.7h0Z"/>
            <path class="st149" d="M284.7,296.2c.2,0,.2.1,0,.3l-.3,3.4c1,9.3.3,18.9-.8,28.2.8.3.5,1.2-.3,1.1-.3.4-.8.6-1.5.5-2.7,1.3-4.1,1.9-4.1,1.9,0-.7-.1-1.1-.3-1.2-.4-.2-.3-1-.3-1.4,0-6.1-.3-12.3-.8-18.6l.3-.6c-.6-.5-.3-1.5.3-2l-.3-3c-1-2.7,5.2-9.1,7.3-9.1.4,0,.6,0,.7.6h0Z"/>
            <path class="st60" d="M45.4,244.2c.6-.5,3.2.2,4.1.6,2.3,1.1,2.9,1.8.7,3.6-.5.5-2.9,1.6-3.3.9l-1.5,1.4c-4,2.3-8.1,4.9-10.9,8.6-.9.2-1.4-.5-1.4-1.8,0,1.4-9.2,11.1-10.1,11.5l-.7-7.2c.2-2.5,6-12.6,8-14.1,4.1-3,10.1-5,15.1-3.6h0Z"/>
            <path class="st8" d="M283.3,329.2l.3,1c-.4,12.1-.9,24.1-1.4,35.9l-.6.3c-1.3-.1-2.3.2-3.5.3-.7,0-.9-.3-1-.3l2.2-.4-2-35.7v-1.1c.1,0,.4,2,.4,2,1.6-1.1,3.3-2.6,5.4-2h0Z"/>
            <path class="st57" d="M275.8,291.1c.2-.6.6-.8,1.2-.5,1.2.7,1.7,6.7-1,5.9l.7,9.3c0,1.4,0,2.7-.6,3.9.5,1.3.5,3.1.3,4.5l-.3.7c.2-1.3-.2-2.7-.3-4-.3-4.7-.3-9.5-.6-14.2-2.8,0-5.6.3-8.4.8l-.5-.5c-.9-.5-.9-4,0-4.5,1.2-.6,2.6-.8,3.9-.6,1.9-.2,3.8-.6,5.6-.8Z"/>
            <path class="st157" d="M268.6,291.7c.6,0,1.2-.1,1.7.3-1.3.2-2.6.4-3.9.6v4.5l8.7-1.1c.3,0,.1.6.1.8-.5.2-.1,1.2-.3,1.4-.4.4-7.5.5-8.5,1.7v-2.1c-.1,0-.4.7-.4.7-.2-1.5-1.2-1.4-2.5-1.4-.3-1,.2-3.6,0-4.8.9.2,1.4.1,2.2,0,.2-.9,2.3-1.4,2.8-.6h0Z"/>
            <path class="st8" d="M276.6,309.7c-.1,4.8.6,10,.8,14.8,0,1.3.2,3.1-.3,4.4,0-4.9-.6-9.9-.8-14.7,0-1.5-.2-3.1-.3-4.5,0-.8.3-.7.6,0Z"/>
            <path class="st79" d="M398.8,190.9c.5-7.8,1-14.2,5.1-21.2,2.1-3.5,7.5-9,11.8-9.2.8,0,.3.9.1,1.4-.2.6-.6,1.3-.8,2-.7,3.8-1.7,7.6-3,11.3l-3.4,2.6c1-.3,2.3-.7,2.3.8l-4.7,12.9c2.3-3.9,9.8-10.5,14.4-10.7.3,0,.7.2.9.4,6.5-1.3,13.3-.2,18.7,3.7.5.4,3.9,2.9,3.2,3.6-1.9,0-3.8,0-5.7.3-1.7.2-5.1,1.5-6.4,1.4-1,0-6-3.6-6.3-3.4l3.1,4.2c-7.2,2.3-14,5-20.3,9.3-2.2,1.5-4.2,3.3-6.4,4.8.2-2.4.6-4.9,1.6-7.2-1.7-2-2.2-5-3.4-7.2-.4-.7-.4,0-.7.3h0Z"/>
            <path class="st171" d="M47.2,238.9v-1.2c.1-.9,4.2-5.7,3.3-1.6,0-.6,0-1,.3-1.1,0,0,.3.3.3.7,0,.7-.3,1.7.3,2.1l.4,1.2-.4,5.3c.8-1.4,1.8-2.7,2.9-3.9h.7c.8-1.1,1.7-1.9,2.7-2.6l.6.3c.2,0,.5,0,.6,0,.3.7,2.1,5.6,1.9,5.8-.3.5-2.1.9-2.4.6,0,0,.8,0,.7.3-1,.6-2,1-3.1,1.1,1,0,1.9.2,2.7.6l.6,4.3c-.5.3-1.1.3-1.9,0l-.3.3c2.1,1.8,3.2,4.3,4.2,6.9l-.3.7.7.3c.4,1,.6,2,.9,3.1.3,1.2.7,3.7-.2,4.5,0,0,0,.2,0,.3-.3.7-.7.5-1.1,0-.6-1.7-1-2.9-2.6-3.8l-.2-.8c-.5-.3-.9-1-1.7-.1-.5.5-1.4,4.6-2.2,5.5-.3,0-.5-.9-.6-1.1-1.4-2-1.8-5.5-1.4-7.9-1.1-1.3-1.6-4.2-1.1-5.9-.2-.8-1.2-4.8-1.8-4.8-2.6,1.3-4.9,3.2-7.4,4.8.1.9-.7,1.3-1.4.8-.9-1.4-2.5-.3-3.3-1.5.9-1.3,1-2.9,1.6-4.4-.4-.4-3,1.6-3.5,2-.9.8-.9,2.5-2.3,1.3-1.6-1.4.8-3,.3-3.9-.7-1.4-1.6.8-2.1-.6,1.9-1,4.1-2.2,6.3-2.5,2-.3,4.3.3,6.2-.4.9.4,4,2.2,4.7,1.4.8-1.9-1.8-4.8-1.9-5.9,0,0,0-.2,0-.3h0s0,0,0,0Z"/>
            <path class="st43" d="M50.8,235l-.3,1.1-.3-1.6c-.6,1.3-2.8,3-3.1,4.4-1.4-3.4-3.2-6.8-5.1-10-1-1.6-2.3-3.1-3.3-4.7-.1-.2-.6-1.3-.6-1.4l4,1.1v-.6c-1.2-.9-3.1-2-4.3-3-1.2-1-5.8-6.9-6.8-8.3-.2-.3-.5-.6-.4-1.1,5.7.5,11.8,4.4,15.1,9.1,3.2,4.7,4.3,9.3,4.9,14.9h0,0Z"/>
            <path class="st43" d="M71.3,217.5c.3-1.3,1.8.2.6.6,0,.7-.3,1.5-1.1,1.1l-.6,1.4c-2.6,2.6-5.3,5.2-7.6,8.1l-1,.4c-.4,1.5-1.1,3-2.2,4.3-1.2,2.6-2.6,4.9-4.4,6.9-.6,1-1.5,2-2.3,2.8l-1.8,3.1c-.1-2.9,0-5.7.6-8.5.9-5.4,3.3-11.7,7.2-15.5.9-2,3.8-4,5.8-3.7.5-1.2,3.8-1.9,4.9-1.7.4.4,1.1.6,2,.6h0s0,0,0,0Z"/>
            <path class="st76" d="M415.8,293.6c2.5-5,11.3-6.2,15.6-2.8l-2.6-3.7-8.5-8.9c4.7-1.5,9.5,2.9,11.5,6.9l2.1,5.1v-6.9c0-3.2,2.7-8.3,5.5-10,.4-.2,1.8-1.2,1.8-.2,0,.8-.5,2.4-.6,3.3-.5,2.2-1.3,4.3-1.9,6.4-.4,0-2,6.7-2.5,7.6-.4,1.1-.8,2.3-1.1,3.5,0,.5-.5,2.3-.8,2.8-.3.5-2.1,2.3-2.6,1.6-3.8,3.3-7.5,6.9-10,11.5-1.4,1.3-1.8-1.9-1.6-3.1,0-1.4,0-4,1.1-4.7.9-3,2.1-5.9,5.2-7.3-2.2.3-4.4.5-6.6.5,0,.9-3.8,2.5-4.2,2l-.2-.9c0-1,0-1.9.6-2.8h0Z"/>
            <path class="st144" d="M300.2,355.4c-2.9-1.4-7.4-1.3-10.1.6-4,2.8-5,7.4-4.9,12.1-1.3-.9-2-1.6-3.6-1.7l.8-19.3c.6-5.9.6-11.9.8-17.9,0-.2.3-.6.3-1.1.1-1.7.3-3.3.7-4.9,5.1-8.8,10.2-18,13.4-27.7-.3-2.3,0-3,1.2-2.2.4,20.7,1,41.3,1.7,61.9l-.3.2h0Z"/>
            <path class="st51" d="M297.4,277.8c1.1,3.3,1.7,6.9,1.4,10.4-.1.5-.6.7-1.4.7v2.8c.9.3,1.5.7,1.7,1.3l.4,2.1c.3,12.6.6,25,1,37.2l-.3.7c.3,5.6.5,11.3.3,16.9,1.5.3,1,4.5.3,5.6-.2-.1-.4-.2-.6-.3l-1.7-62.3c-.4,0-.4.5-.4.8,0,.7.2,1.2,0,2-.8,3.7-7,15.8-9,19.9-1.2,2.4-4.6,7.2-5.2,9.4-.3,1,.2,2-.4,2.8.4-9.4.8-18.8.8-28.2l.3-3.4v-.3l-.6-.9c.3-7.5-.2-14.9-4.2-21.4-.2-1.8,2.1-4,3.6-5,4.8-3.5,9.5.3,12.2,4.5.5.8,1.9,3,2,3.7,0,.3-.1.6-.3.8Z"/>
            <path class="st77" d="M299.1,293.1c-.5-1.1.9-.6.9.6.9-.7,2.2-1,2.9,0,1.1-.1,2.2-.3,3.3-.6l.3.5c.4.8.3,1.8-.3,3,.2,0,.3,0,.3,0,0,1.5.1,3.7-.3,4.9,0-.8.3-.7.6,0-.2,0-.3,0-.3-.1-.2-2,0-4.8.3-6.6h.3c.4,7.8.9,15.7,1.4,23.7,1.3,10.1,2.1,20.5,2,30.6l-.4,1.9c-.2.9-.6,3.2-.6,4.1,0,.8.5,2,.3,2.8,0,.3-.7.2-1,.4-.4.4-.6.7-1,1.1-.9,1.1-1,1.3-1.4,2.7-.4,1.3-.9-.9-1.3-1.5-1.1-1.9-2.6-3.7-4.5-4.8,0-1.5,0-3.1,0-4.7,0-.4-.3-.8-.3-1,.2-5.6,0-11.2-.3-16.9-.7-6.3-.7-14.2-.8-20.7-.2-6.4-.2-12.9-.3-19.3h0Z"/>
            <path class="st69" d="M201.9,290.2l.5.3-1,9.5c.9,0,1.4.2,1.6.7.6,0,.6.3.1.6,0,1.9,0,3.8-.1,5.6,0-.2.2-.2.3,0-.2-1.7-.2-3.9,0-5.6,0-.2,0-.4.1-.6.7-1.4,2.8-5.2,4-6,1.3-.8,4-1,4.1.9l.3-.2c.6,6.9-.2,14.4-.6,21.4l-.5.5c-3.1,0-6.5,3-8,5.6h-.7c0-.5,0-1.1,0-1.6-.6-2.7-.9-5.6-.6-8.6l-.2.2c-.3-1.2-.6-4.3-.3-5.5.1-.5,1.6-.4,1.7-.5.2-.2.2-5.7,0-5.9,0,0-1.5,0-1.9,0,0,0-.3,0-.3,0-.5-.7-.6-1.1,0-1.4,0-1,.1-2.2-.3-3,.4-2,.8-4.1,1.1-6.2l.6-.2h0Z"/>
            <path class="st159" d="M211.3,316.8c-.4,8.7-1.6,18.5-1.4,27.1l-.4,1.1c-.8-.3-.9-1.2-1.3-1.5-.8-.8-3.9-2.1-5-1.9-.3-6.2-.9-12.4-1.1-18.6.3-.4.3-.8.6-1.3.6-.8,4.1-3.8,5-4.2,1.2-.6,2.3-.8,3.6-.7h0Z"/>
            <path class="st159" d="M201.3,312.8c0-.3-.2-1.2.3-1.1.4,2.7,0,6.1.3,8.6,0,.7.3-.1.3,1-.4.1-.3.5-.3.8l-.6-4.9c0-1.5,0-2.9,0-4.4h0Z"/>
            <path class="st151" d="M436.6,290.5c2.4-3.9,6.6-6.3,11.2-5.6.6,0,4.2,1.3,4.4,1.6.1.2,0,.6-.3.7-.2.1-3.3.6-4.2.9-3.3,1-6.7,3-9.7,4.8,8.2-.9,12.9,8.3,12.2,15.7-.4.1-.6-.2-.8-.4-.7-.6-2.2-2.4-2.8-3.1-1.3-1.7-2.5-3.5-3.3-5.5-.5,0-.2.6-.2.9,0,.4,1.2,3,.2,2.2,0,0,0-.4-.2-.6-2.4-1.9-4.8-3.8-7.3-5.6,0-.2-.5-.5-.6-.8-.2,0-.4-.2-.4-.4-.1-.5.8-4.6,1.8-4.7h0Z"/>
            <path class="st169" d="M436.1,290.5c.2,0,.4,0,.6,0-.7,1.1-1.4,2.3-1.4,3.7l1.4-.4c-1.2.3-1.1,1.5-1.4,1.8,0,0-.5-.1-.6.2,0,.4,0,2.2,0,2.6.2,4.5,0,9-.7,13.5-1,1.6-2.4-.7-3-1.8-2-3.2-2.5-9.2.7-11.7.4-.3,2.5-2.1,2.5-2.4.2-1.6-1.7-.9-2.2-1.8,1.1-.7,2,.7,2.5.4.3-.2.9-2.4,1-2.9.3-.9-.3-1.1.6-1.2h0Z"/>
            <path class="st12" d="M249.9,302.9l-.4.9c-2,1.4-3.9,3-5.5,4.8-.4,1.2-1.2,1.8-2.5,1.6,0-1.9-.2-4-.3-6.1,0-1-.5-2-.3-3.1,0-.4,1.2.1,1.4-.7.4-1.4-.6-3.5-.3-5.1-.5,0-1.2,0-1.7,0v-.3c-1.1-2.6-.3-6.4.3-9.2.7-3,1.7-6.9,3.9-8.9.9-1.1,1.6.4,2.1,1.2,4.8,7.5,3.6,16.4,3.2,24.8Z"/>
            <path class="st80" d="M249.1,318.2c-2.2,0-4.5.9-6.7.8,0,.8,0,1.6,0,2.4,0,.3.2,1-.3,1-.4-4-.4-8.1-.6-12.1-.2-1,.9-.3,1.4-.7.2-.2.3-.9.7-1.3,1.8-2.1,4.1-3.8,6.3-5.3-.2,5.1-.6,10.2-.8,15.2h0Z"/>
            <path class="st67" d="M171.1,199.7c14.7,2.2,29.4,4.8,44.2,7.1,1.8,1.5,3.5,2.5,4.7,4.7h-.4c0,.1-61.3-8.7-61.3-8.7-1.2-1.2-2.2-2.4-3.6-3.4-1.4-1-2.8-1.3-4.1-2.1,2.3-.4,4.7-.3,6.9.6,1.3-.2,2.7,0,4.1.5,3.2-.4,6.6.1,9.6,1.4h0Z"/>
            <path class="st16" d="M68.8,249.6c.8.6,3,2.6,3.6,3.4,1.7.6,3.2,3.7,3.4,5.2l267.3-2.7c12,.1,24,.1,36,0l1.1.3c3-.6,4,0,3,1.7-2-.2-4,.3-5.9,1.5l-.7-.4c-5.6.7-13,.1-18.8.3-88.6,2.2-177.3,3.4-265.8,6.5-1.1,0-13.1,0-13.2.7,0,1.8.6,3.9.6,5.6,0,2.2-.6,4.2-.3,6.4l-7.2-11.7-9.4.2c-.2-3.4-.2-4.7-1.4-7.9.3-.6,1.2-.8,2.4-.7-2.1-2.3-4.1-4.6-6.2-6.8v-.4c.1,0,.9-.8.9-.8l.6,1.1-.6-4.3c-.2-.8-1.4-.2-2.2-.7,2.3-.9,4.8-.5,7.1.2,1.9.6,4.9,1.6,5.7,3.5h0Z"/>
            <path class="st90" d="M383,254.1c1,0,.9,2,.2,1.9-.7-.6-2.1-.4-3-.2-12.2.8-25.9.1-38.2.3-76.1.8-152.3,1.4-228.3,2.3-12.6.1-25.3.4-38,.3-.2,0-.4-1.2-.7-1.6-.6-1.1-1.8-3.2-2.5-4h74.9c7.7,1,15.4,0,23.1.3,2.8,0,4.4,0,7.2,0,7.7-.2,15.2.4,22.8,0,6.7-.3,13.4.3,20,.3,5.5,0,10.7.4,16.1.3,25.6-.4,51.5.7,76.9.3,23.2-.3,46.4.2,69.6,0Z"/>
            <path class="st167" d="M166.3,218.3l.6.3v16.8c.8.2,6.8.8,7.1.5.2-2.6.2-5.2.1-7.9l.6-.3.2-.5c15.3,1.2,30.6,2.4,45.9,3.6l.3.6c0,3.4,0,6.8,0,10.2-3.9-.4-7.9-.4-11.8-.6-18.2-.8-36.6-2.1-54.9-2.8-.8-1.4-1.1-4.3-.6-5.8-.9-.5-.9-4,0-4.5-1.2.3-1.1-2.1-.4-2.7l.2-2.2c-.9-.5-.4-3.6.8-3.4l.5.6c-.3,1.6-.5,3.2-.4,4.7l11.5,1.1c-.2-2.5-.2-5.1.4-7.6h0Z"/>
            <path class="st19" d="M154.4,218.3c1.5-3.4,2.2-7.2,3.6-10.6.2-.6.7-2,1.3-2.1l61.3,8.8c.5.2.5,1.1.5,1.5.3,4.8,0,10.5,0,15.4l-46.4-3.7-.4-.5c0-5,0-9.9-.2-14.9,1.2-2.5-6.7-2.8-7-2.5-.2,2.7-.3,5.5-.2,8.2l-.6.4c0,2.7,0,5.5,0,8.2l-12.5-1.2c-.2-2,.3-3.9.5-5.9-.8-.2-.7-.8,0-1.1h0,0Z"/>
            <path class="st62" d="M154.4,218.3c0,.4,0,.8,0,1.1-.7.8-.6,2.3-.8,3.4,0,1.2-.2,2.2-.5,3.1l-39.5-.3-.3-.6c0-1,0-2.1,0-3.1-.5-.6-.3-1.4.6-2.5.6-2.9,1-5.8,1.6-8.7.4-2.1.6-5.3,1.5-7.1.1-.2.6-.8.8-.8,5.4-1.6,10.8-4.1,16.5-4.5,5.8-.4,14.6-.3,19.3,3.5,2.2,1.8,2.7,3.3,2.5,6.1-.3,3.3-1.2,6.9-1.6,10.3h0Z"/>
            <path class="st97" d="M403.6,229c1,6.9,1.7,13.9,2.5,20.9l-.2.8c-3.1,1.7-5.6,4.6-6.3,8.1-.2,2.7-.7,3.1-2.5,1-6.4-5.1-11.6-.1-12.5,6.9l-.7.4-.7.3c-2.8-1.3-5.8-1.5-8.5.3-.7.2-1-.2-.7-1.1v-1.7c.5-2.4,1.6-4.1,2.7-6.2,1.9-.2,3.9-2.7,6.4-1.4v-1.4h-2.8s.3-.3.7-.3c.8,0,1.6,0,2.4,0,0-.5-.3-.9-.3-1.4,0-.7.1-.9.3-1.4-.4-.6-.3-1.5.4-2.4.5-1.1,2-4,3.3-3.2.1-.5.6-.7,1.4-.6-.3-.8-.1-1.6.6-2.4l1-2.7c.9-1.7,1.6-3.1,3.7-3.1,0-1.3,2.5-1.1,3.5-.9.8-3.5,2-7.5,5.8-8.8l.7.4h0Z"/>
            <path class="st14" d="M273.6,223.4c0,4.2,0,8.5,0,12.7l-.3.3-47.5-3.9-.3-.6c0-4.5-.1-9.1-.3-13.7,0-.6-.8-3,.1-3.2l47.8,6.5c.7.2.4,1.3.5,1.9Z"/>
            <path class="st45" d="M154.4,238.1c-13-.5-26.1.1-39.2-.3-.3,0-.6,0-.8,0,.3-1-.6-2.5-.6-3.2v-4.8c0-1.2-.5-3.1-.6-4.7l40,.3c-.2-1,.2-1.8.3-2.5,0,1.4,0,2.7,0,4.1,0,.4.3.7.3.8v4.5c0,0,.3.5.3.8.1,1.6.3,3.3.3,4.9h0s0,0,0,0Z"/>
            <path class="st17" d="M273.6,223.4l.3,20-48.3-2c0-3.2,0-6.4,0-9.6l48.1,3.9c-.1-4.1.2-8.3,0-12.4h0Z"/>
            <path class="st122" d="M315.5,239.2l-.2.5c-12.7-1-25.4-2-38.1-3.1l-.3-.6c0-4.6.2-9.3-.3-13.8l38.6,4.9c.3.2.2.5.3.8.4,3.1,0,7.9,0,11.2h0Z"/>
            <path class="st31" d="M315.5,239.2c0,2,0,4,0,5.9-4.9-.5-9.9-.4-14.9-.6-7.2-.3-15.1-.3-22.2-.9-.3,0-1.5-.2-1.5-.5,0-2.4,0-4.8,0-7.2l38.6,3.1h0Z"/>
            <path class="st39" d="M348.3,231c.2,3.3.2,7.1.3,10.4l-.2.5c-9.9-.7-19.8-1.5-29.8-2.2l-.3-.6c0-4-.4-7.9-.3-11.8l30.3,3.7Z"/>
            <path class="st65" d="M348.6,241.4c0,2,.2,4.3-.3,6.2l-.2-1.4-29.8-1.1c0-2,0-4,0-5.9l30.3,2.3h0Z"/>
            <path class="st153" d="M327.7,223.7l1.1-.4c5.7.5,11.2,1.3,16.7,2.6,1.2.3,1.7.9,1.9,2.1,0,.5.2,1,.3,1.4l-30.1-3.7c-1.2-1.6-1.9-2.8-3.8-3.6.8-.4,2.5-.1,3.5,0,3.4.5,6.9,1.2,10.4,1.7Z"/>
            <path class="st75" d="M163.6,250.5c-.8.7-2.1,1-3.2.8-3.5-.5-4.3-7.8-1.8-8.9.6-.3,4.8,0,5.3.3,1.2.7.9,4.6.6,5.8.9-.4,2.4-.6,3.3,0-.5.5-1.4.7-2.6.6-.3.8-.8,1.3-1.5,1.4h0,0Z"/>
            <path class="st73" d="M122.2,249.9c-1-.3-1-2.4-1.4-2.7-.7-.5-2.3.3-3.1-.4h3.1c-.8-2.6.8-5.9,3.8-5.7,1.6.1,3.2,2.6,3.2,4.1,0,1.8-1.6,4.5-3.5,4.6-.8,0-1.4-.4-2,0h0Z"/>
            <path class="st135" d="M178.8,248.2c.9.4.1,2.2-.8,2.3-2.8,3.9-6.1-1.5-5.1-5.4,1.1-4.1,7.4-3.3,6,3.1Z"/>
            <path class="st135" d="M143.6,250.2c-1.2-.2-1.8-.8-1.9-1.7.3-1.2-.4-2.2-.3-3.5.7-5.8,8.3-4,6.3,2.2-.5,1.5-1.5,3.3-3.2,3.3-.5,0-.9-.3-.9-.3Z"/>
            <path class="st6" d="M237.7,246c0,7.9-6.7,8.1-8.1.6-.3-.3-2.4,1.7-2.2-1.1l10.3.6h0Z"/>
            <path class="st125" d="M202.2,248.8c.9.5.4,1.6-.6,1.7-.3.4-1.3,1.1-1.8,1.2-4.3.4-4-10.6.9-7.8,1.7,1,1.6,3.1,1.4,4.9Z"/>
            <path class="st115" d="M269.9,246.5c.3,1.4-1,.9-1.3,1.2-.2.2-.3,3.2-1.4,3.8-.5.3-1.7.2-2.3,0-2.3-.5-2-4.1-2.6-4.2-.4,0-2.3,2-2.1-1.1l9.7.3Z"/>
            <path class="st155" d="M287.4,247.1c.5,2.5-.6,5.7-3.7,4.7-1.6-.5-2-4.1-2.4-4.5-.2-.2-1,.5-1.5.6-1.4.1-1.8-1-.3-1.2,2.5-.3,5.4.2,7.9.3Z"/>
            <path class="st18" d="M183,248.5c1,0,7.2-.3,7.5,0,0,0,.2,1.6.3,2h-12.8c.3-.4.7-1.7.8-2.3h.3l3.9.3h0Z"/>
            <path class="st106" d="M312.3,247.9c0,0,.5.4.3.6-1.5.7-.7,4.1-3,3.9-2.1-.1-2.2-3.3-2.7-3.7-.3-.2-1.7,1.1-1.7-.8,1.9.3,5.3-.4,7.1,0Z"/>
            <path class="st58" d="M141.6,248.5c.9,0,1,1.5,2.2,1.4l-.3.3c-3.8,0-7.6.2-11.4-.3-.2-.2.8-1.8,1.2-1.7,2.7,0,5.5,0,8.2.3Z"/>
            <path class="st30" d="M322.1,249.1c-.9-.5-1.7,1-2.2-.7.2-1,5.4,0,6.4,0,.3.2-.3,3-.6,3.4-1.3,2.1-4.1-.7-3.7-2.7h0Z"/>
            <path class="st5" d="M202.2,248.8c2.5.4,6.7-.5,9,0,.4.1.5,1.6.5,2l-10-.3c.4-.5.5-1.1.6-1.7h0Z"/>
            <path class="st93" d="M344.4,248.5c.3,5.6-4.1,4.8-4.4,0h4.4Z"/>
            <path class="st88" d="M246.9,251c0,0,.6-2,.7-2,1.6-.5,4.8.4,6.6.3l.5,1.7h-7.8Z"/>
            <path class="st63" d="M273,251.3c0,0,.8-1.9.9-1.9.2-.1,5.3-.2,5.5,0,0,0,0,1.6.3,2h-6.7Z"/>
            <path class="st156" d="M225.8,250.7h-6.1c.4-.4.4-1.4.7-1.7.4-.5,4.7-.4,5,0,.2.3,0,1.2.4,1.7Z"/>
            <path class="st145" d="M167.7,248.5c2,0,1.3.2,2.2,2h-6.4c.5-.5.9-1.8,1.3-1.9.5-.2,2.2,0,2.9,0Z"/>
            <path class="st35" d="M293.8,251.6c.2-.6.3-1.9,1-2,1.9-.2,5.2-.6,4.6,2.3-.1.1-.4-.3-.4-.3h-5.1Z"/>
            <path class="st108" d="M189.9,246.2h-4.4c1.2-3.4,3.8-3.8,4.4,0Z"/>
            <path class="st104" d="M319.7,250.2v1.7h-4.4c.4-.3.5-1.7.6-1.7h3.9Z"/>
            <path class="st91" d="M149.9,250.2c.4-2.3,3.8-2.6,3.9,0h-3.9Z"/>
            <path class="st124" d="M334.4,250.5c.2,0,.4,1.3.3,1.4h-3.3c-.8-1.7,2.4-1.7,3-1.4Z"/>
            <path class="st147" d="M210.5,246.5c-.6-.2-2.9.4-2.8-.4.4-2,3.1-2,2.8.4Z"/>
            <path class="st135" d="M183,248.5c-1.2,0-2.8.2-3.9-.3,1.2.2,2.8-.4,3.9.3Z"/>
            <path class="st89" d="M371.9,186.4c1.8-.3,3.7-.3,5.6,0,.2-.2.5-.4.8-.5,1.9-.3,11.1,4.2,12,5.8.2.3.3.6.2.9-.7.4-.5.2-.4.8.2,1.2,2.6,7.4,2,8-1.2.3-2.2-1.1-3.3-.3-1.5.2-3.5-.5-4.5-1.5-4-.9-8.1-1.7-12.2-2.1-.2,0-.9-.3-.8-.4.3-.4.8-.6,1.1-1,1.7-.9,2.1-1.6,1.4-2-1,.5-2,1-3.1,1.4-1,.7-2.1,1.4-3.4,1.4l-11.7-.2c-.2-.2.5-1.1.7-1.3,1-1.1,2-2.7,3.1-3.7,1-.9,4-2.8,5.3-3.4,1.4-.9,3-1.5,4.7-1.8.5-.8,1.8-.9,2.5-.2h0Z"/>
            <path class="st49" d="M373.8,264.9l.3,2.5c3.4-2.3,6.2-1.8,9.7-.3.3-.8,3.7,1,3.9,1.3v.7s.8,0,.8,0c1.4,1.7,2.4,3.7,3,5.8,1.1-.2,1.7,0,2,.6,1.3.4,1.7,1.2,1.9,2.5,1.2,6.8-7,8.5-11.9,9.3-3.6.8-5.2,3.6-6.5,6.8-.4.8-1.2.7-2,.6-4.9-2.3-8.9-2.1-11.2,3.5-.4,4-1.8,4.1-5.3,2.9-5.5-.8-5.1,7.7.2,9.6,1.7.2,4.7.7,3.4,2.9.6,1.5-1.6,2.2-2.9,2.4-5.5,1-8.3-1.7-11.7-5.4-1.2,7-8.4,13.5-14.9,8.3h-.8c0,0-.7-.2-.7-.2-1.5-5-.2-12.2,6-12.6-.2-1.1,0-1.7.5-2,.4-1.3.6-2.6.5-4,1.3-1.5,2.4-3.1,3.5-4.8,1.1-1.3,3.5-3.9,5.1-2.8l.3-.6h3c-1.6-4.2.4-8.8,3.8-11.5,1-.8,3.2-2.4,4.2-1.4,0,0,.4.3.7.3.2,0,.1-.5.4-.6,1.6-.4,3.3.4,4.8.8,0-4.8,2.8-9,6.9-11.2.6-.3,2.1-.6,2.4-.9.7-.6.3-1.9.4-2.5h0Z"/>
            <path class="st85" d="M233.3,295.6c-.5,0-2.7.9-3.3,1.1,0-1.1,0-2.3,0-3.4-.3-2.1-.4-4.1-.6-6.2-.6-1.2-1-2.6-1.4-3.9-4.8-12.1-14.6-16.9-22.2-3.7l.2.7-2.1,3.9-.7.2c-1.6,2.2-2.5-.8-.8-2-1.1-.4-1.4.1-.9,1.6l-.7,1.4c1.5.3,1.9,1.3.9,2.5.2.9,0,1.5-.6,1.9.6,3.2-1.6,2.3-1.6.2,0-.3.5,1.4.6,1.7,1,.3.5,3.3,0,3.9-1.4,1.4-1.4-1.2-1.1-2.3l-.4-1.2c-.6.8-1,.8-1.3.2,1.5-10.6,6.3-26.4,19.3-26,7,.2,11.6,7.4,13.8,13.4,1.9,5.1,2.7,10.5,2.8,15.9h0Z"/>
            <path class="st83" d="M268.6,291.7c-1,0-1.8.4-2.8.6-.6-1.4-.2-3.1-.3-4.6-.6-5.6-3.2-14.3-8.5-17-4.4-2.2-8.2.3-10.9,3.9-.5-.2-1.2.6-.8.8-.2.3-.4,1.3-.6,1.7-2.9,5.5-4.3,11.7-4.2,18.1l-.8-.6c.4.6-2.2.9-2.3.8-.5-.1-.5-.8-.5-1.2-.3-5.1,2.1-15.5,4.4-20.1,6.4-12.8,18.5-12.5,24.3.6,2.4,5.4,3.2,11.2,3,17.1h0Z"/>
            <path class="st158" d="M341.3,270.2c7-12,16.4-.5,16.9,8.7-4.5.9-8.6,6.2-8,10.8.1.9.7,1.7.5,2.7-.1.1-3.2-.1-3.9,0l-.6-.9c.1-6.3.1-11.9-1.9-17.9-.3-.9-1.7-4.3-2.5-3.3l-.6-.2Z"/>
            <path class="st83" d="M301.6,287.7c-.4.4-1.4.6-1.9.3h-.3c0-1.2,0-2.3-.2-3.4-.4-.2-.6-1.3-.3-1.7.2-.6.2-1.6-.3-2-.5-.9-.8-1.9-1.1-3.1-3.7-9-11.2-14.7-17.5-3.9v1.2c-2.4,4.6-3.5,9.8-3.6,15l-.6,1-.7-.9c0,1-2.5,1-2.6.9-.3-.3.7-7.8.9-8.8,1.1-6,3-11.9,7.6-16,9-8.1,17,1.9,19.5,10.7,1,3.4.8,7.2,1.2,10.8h0Z"/>
            <path class="st168" d="M346.9,292.5c-3.4.5-5.4,4.1-7.1,6.8-.3.4-.9.8-1.1,1.2-.5,1.2.2,3.1-1,3.7l-.5-.6v-4.5c.4-.3.5-.9.3-1.6-.2-3.2-.4-6.4-.6-9.6,1.7-.3,1.5-2.9.9-4,.4-4.7,1.2-9.4,3.6-13.5l1-.8c.7-.2,2,2.7,2.3,3.3,2.7,6.1,2.2,13.3,2.3,19.8Z"/>
            <path class="st114" d="M304.9,285.4c.2-4.9,1.8-11.6,4.1-16,1.4-2.6,2.8-4.9,5.5-6.2,4.6-2.2,8.7-.2,11.7,3.4,4,4.8,4.6,11.5,4.7,17.6-.4,0-.8,0-1.2,0-.2,0-.4-1.3-.5,0-.5.3-.6-1.1-.3-1.4.3-.8.5-1.5,0-2-.3-.3-.5-.7-.6-1.4-.2.1-.4.2-.6,0-1.2-8.6-8.5-18-15.5-7.7l-.9.3c.5.8-.5,2.2-1.4,2.3-.6-.2-.8.7-.6,1.1l.3.9c-.9,3.2-1.4,6.5-1.6,9.9l-.6.8c-.3.2-.6.3-.8,0-.4-.1-.6-.6-.6-1.4-.7.2-1.1.1-1.4-.3h0Z"/>
            <path class="st112" d="M62.4,266.8c.2,5.7-.9,12.9-4.5,17.6-.2.3-.3.6-.8.5-.6-3.2-1.4-6.3-1.9-9.5-.6-3.7-.9-6,.5-9.6l1.1.6c.2-1.5,1-2.7,1.7-4,.8.4,2,1.3,2.5,2.1.6.9.3,2.3,1.4,2.4h0,0Z"/>
            <path class="st70" d="M152.7,309.1c.6-.1,1.3,0,1.9,0-.2,1.9.8,5.2.2,6.9-.3.8-1.2.3-1.6.5-.5.2-.2,1.6-.3,2.3,0,.4.1,1.7-.1,1.7-.3-.4,0-1.2-.1-1.7-.5-.1-.9-.7-1-1.7l-10.3,2.2c-2.9,1-4.2-.7-2.7-3.3v-3.7c4-.6,8-1.4,12-2.3.7-.2,1.5-.7,1.9-.8h0Z"/>
            <path class="st13" d="M138,311.7c.4,0,1.3-.2,1.7-.3,0,.6-1,.4-1.1.7-.1.4,0,2.5,0,3.1,0,.4.3.6.3.7,0,1,0,2.1,0,3.1,1.8,0,13.2-3.1,13.9-2.5-.5.8,0,1.4,0,2.3l-13.5,3.1c-.4,0,.2-1.9-.4-2.4-.1-.1-.3.2-.3.2-1.2-.6-2-.5-3.3-.9l-.3-7.3c1.1.1,2,.3,3.1.3h0Z"/>
            <path class="st100" d="M197.4,292.2c.7.2,1-1.4,1.7-.8,0,0,.6,1.6.6,1.8.1,1-.8,2.4.5,2.4v-4s-.8,0-.8,0c-.2-.2.4-1.5.3-2l1.1,2c.2-.6-.3-1.8-.2-2.1,0-.3.7-.3.8-.6,0-.5-.4-1.3-.3-1.5,0-.1.7-.2.8-.5.4-.9-1.1-1-1.6-1.3-.3-.7.7-1.2.7-1.8,0-.5-.3-.9-.2-1.6.3-1.2,2.1-.2,3-.5,0,1.7-.9.8-1.1,1-.4.3-1.2,2-.1,1.9l.7-.3.4.6-1.1,4.9-.6.4c-.5,1.5-1.9,9.8-1.4,10.7l-.3-3.9c-1.3.8.2,2.5-.6,3.6-.8-.2-2.7.8-3-.1-.4-1.3.6-6.6.8-8.3h0Z"/>
            <path class="st107" d="M52.7,258.6c.5,2.6.8,5.3,1.4,7.9-2.4,0-4.9-.3-7.2.6-.4-.6,1.2-2.7.3-3.4.4-1.7.9-3.4,1.4-5.1.5-.9,3.7-.9,4.2,0Z"/>
            <path class="st55" d="M337.7,283.8c.4,0,.9,0,1.1.4-.5.7,0,3.2-.3,3.5-.1.2-1.3,0-1.4.5,0,3.1.4,6.1.3,9.1.3,1.2,0,2.6-.9.9-.2-3.4-.2-6.8,0-10.2l-.5.5c-.4.2-5.8.8-6.3.6-1.5-.6-1.4-3.5-.2-4.2,2.2-.2,4.4-.3,6.5-.6.6,0,1.3-.5,1.6-.5h0Z"/>
            <path class="st127" d="M306.9,287.1c.3,0,.6,0,.8,0,.2,0,.2.2,0,.3-.4.7-1.2,1.1-2.3,1.1l-5,.5-.7-.4c.9.2.8,3.6,0,3.9,0-.2.1-.6.3-.6,1-.1,7-.7,7.2-.2,0,0,0,2.2-.6,2-1.2,0-2.8.8-4,.6-.2,0,0-.9-1.4-.6-1,.2-1.8,2.2-1.8-.9-.2,0-.2.3-.3.3-.4,0-1.6-.7-2.2-.7v-4.1c.6,0,1.4,0,2,0,0-.3.2-.2.3,0,.1-.5.2-.7.6-.3.6-.1,1.3-.2,1.9-.3,1.2-.2,2.1-.2,3.3-.3,0-.8,1.7-1.1,1.9-.3h0Z"/>
            <path class="st4" d="M328.8,284.6c.1-.5.3-.5.6,0,.2,0,.3,0,.3.3,0,.6-.8,3,0,3.5,1.1.8,5.8-.9,7-.4.1,1.1-.1,1.9-.9,2.3-2,0-4,.2-6,.6-.1-.6-.2-1.1-.3-1.7-.2.3-.7.3-1.6-.1-.3.8-.9.4-1.3-.4-.1-.3,0-4.1.3-4.4.4-.4,1.9-.5,2,.3h0Z"/>
            <path class="st74" d="M306.9,287.1c-.7.1-1.2.2-1.9.3,0-.7,0-1.3,0-2,1.8-.5,2.1-.3,1.9,1.7Z"/>
            <path class="st174" d="M329.1,280.9c.6.4.2,1.4,0,2,0,.5-.1,1,.3,1.4v.3c-.1,0-.4,0-.6,0-.6-.2-.8-.9-.7-2.1-.3-1.4-.2-2.3.4-2.9,0,0,0-.3.3-.3-.2.6.2,1.3.3,1.7Z"/>
            <path class="st105" d="M115.2,308.3c-1.9-1.5-4.3-1.5-6.4-.3,0-6-4.5-9.6-10.3-8.4-.3,0-.9.5-1.3.6-.5.2-.7-.5-1.4.7.1-.6.2-1.3.3-2,.8-4.8,4.6-11.3,7.8-15,7.6,5.4,11.3,15,11.4,24.3Z"/>
            <path class="st170" d="M138.6,311.1c-.5,0-.3-.6-.3-1,0-.8,0-1.6,0-2.4.5,0,.3.6.3,1,0,.8,0,1.6,0,2.4Z"/>
            <path class="st170" d="M138.3,306.6l-.3-2.5c.4,0,.4,1.1.4,1.5,0,.4,0,.7,0,1.1Z"/>
            <path class="st172" d="M51.6,252.7c.5,2,.7,3.9,1.1,5.9h-4.2c.4-1.4,1.1-4.7,1.7-5.7.2-.4,1-.1,1.4-.2Z"/>
            <path class="st116" d="M410.8,310.3c.2,4.6.3,9.2.3,13.8,0,2.8.1,5.5.3,8.2,0,1.9,0,3.8,0,5.6l-.6,2c.2-4.5-4.4-11.4-9.2-7.2-1.9,1.7-2.2,6-1.4,8.3-6.2-7.3-16.2-4.6-17.2,5.1-1.3-.7-.7-2.4-2.5-2.5-1-3.8-1.4-8-1.1-11.8.6-1.6,2.9-.8,4.2-.3l2.5,1.3c.4-8.7,8.8-16.1,16.8-10.2-.1-3.6,1.1-7.2,3.6-9.8,1-1.1,2.9-2.9,4.3-2.4h0Z"/>
            <path class="st132" d="M408,267.1c-.4,2.7-.5,5.4-.3,8.1-.1.6-.5.6-1.1.6-3-2.8-6.2-5.6-10.1-7l-.3-.6c0,.2-.1.5-.3.6-.5,0-4.9.1-5.1,0-.2-.1-.3-.3-.4-.6,0,.9-2,1.4-2.6.8-.6-.5-3.2-1.7-3.9-2,.4-1.9.7-4,1.7-5.7,3.4-5.8,9.3-5.4,13.3-.5,0-3.9,1.8-6.9,4.6-9.3l2.6-1.7c.7,5.7,1.4,11.5,1.9,17.2h0Z"/>
            <path class="st64" d="M410.8,310.3c-5.2,2.3-8,7.8-7.2,13.5-8.3-7.2-16.9.5-16.9,9.9-2.3-1.1-4.5-3.1-7.2-2,.3-3.5,3.8-6.9,5.5-10.1,1-1.8,1.5-3.4,2-5.4l.8-.2c4.4,2.9,10.9,1.8,12-4,.1-3.4.7-3.9,4-4.7,2.3-.7,3.5-2.4,4.5-4.5h.7c-.4-.6-.2-1.1.5-1.7,0-.7.2-1.1.6-1.2,0-.2.2-.2.3,0,.2,3.4.4,7,.6,10.4h0Z"/>
            <path class="st29" d="M410.2,299.8h-.3l-.6-.4c-.8-4.5-3.7-8.2-7.9-9.9,2.1-6-.5-11.9-6.9-13.3l-1.1-.7c-.8,0-1.7,0-2.5,0-.2-1.9-1.9-5.2-3.3-6.5.6,0,2.2-.8,2.6-.8h5.8c1.6,0,6,3,7.3,4.1l3.6,3.2c0-2.6-.3-4.7.2-7.2,0-.5,0-1,.6-1.2,1,10.9,1.7,21.8,2.2,32.7Z"/>
            <path class="st150" d="M411.3,332.3c-.5-.3-.3-1.1-.3-1.5,0-2.2,0-4.4,0-6.6.5.3.3,1.1.3,1.5,0,2.2,0,4.4,0,6.6Z"/>
            <path class="st136" d="M393.6,275.6c6.9.7,11.1,7.1,8.3,13.8,4.1.8,7.8,6.5,8.1,10.4.1,2-.4,1.4-1.1,2.8-.6,0-1,.3-1.3.9-1.8.4-2.1-1.1-2.2-2.4-.9,3.2-2.8.4-2.8-1.5-1.3,1.1-2.7,1-3.6-.5-1.4.9-2.2.4-2.3-1.6l-.3-.5-.6-.3c-1.1-3.8-6.8-3.1-9-.6-4.7,5.3-4.7,11.8,3.9,8.9l.4.4c.3.9-1.4,2.6-2.2,3.3-5.3,4.7-12.8-.4-14.2-6.6-1.2,3.3-3.3,4.8-6.5,6.1-.2-.2-.5-.3-.8-.3-1.1.5-1.3.2-1.7,1.7-.6,1.5-1.5,2.8-2.7,3.9h-.9c0-2.5-2.2-1.9-3.8-2.4-3.5-1.2-5.7-6.7-3.1-9.6,2.4-2.6,5.2.2,7-.4.8-.3.9-2.5,1.2-3.3.6-1.6,2.5-3.9,4-4.6,3.9-1.8,6.7,1.5,9,1,.2,0,1.6-3.3,2-3.9,3.7-5.4,10.1-2.9,14.6-6.7,2.2-1.9,2.9-6,.6-8h0Z"/>
            <path class="st22" d="M396.3,297c1.3-.3.9,1.3,1.1,2,.6.2,1.1-.6,1.5-.5.8.1.8,2.1,2.9.9.5-.3,1.3-1.7,1.4-.3,0,.3-.3.6-.2,1.1,0,.2.8,1.9.9,1.9.3,0,.9-.4.7-1-.2-.5-3.2-1.4.8-1.8,0,.6-.2,1.3.4,1.7.6.2,1.3-.8,1.5-.6.1.1,0,1.1-.3,1.3-.4.3-1-.3-1.1-.2-.6.7.7,2,1.4,1.4.2-.1-.5-1.7,1.4-.3-1.8,3.4-1.9,4-5.6,5.4-.5.2-2.2.4-2.6,1-.2.3-.2,3.4-.9,4.7-2.6,5.2-8.5,5.3-12.8,2.3.2-.8,1.6-5.1.8-5.6-.7-.5-3.7,1.4-4.4,1.7-.9.9-3.5,2.7-4.4,1.4-.3,0-.9-.7-1.6-.8-.5,0-1.1.3-1.7.2l-.6.5c-1.7,0-5.2-1.8-5.8-3.3,0-.6-1-2.3-1.7-2.3,1.5-.8,4.1-1.9,5.3-3.3.7-.9.9-3.1,2.1-3.2.6,0,.4.2.5.6,1.5,4.8,4.3,7.8,9.5,7.9,3.2,0,4.4-2.7,6.2-4.5v-.6c2.6-1.5,4.6-4.2,4.8-7.4l.5-.4h0Z"/>
            <path class="st98" d="M370.5,336.2c-1.5.2-2.8-.4-4.3-.3-4,.4-5.9,3.7-7.8,6.8-1-1.5-1.9-3-3.7-3.6-3.7-1.2-4.8.9-6.7,3.6-.8-3.6-2.5-7.1-5.8-8.9-1.2-.7-2.2-.7-3.3-1,.4-1.5.4-3.1,0-4.9-.2-1.1,0-1.7.6-1.8l.5-.5c2.5.5,4.4,0,6.7-.9h.4c3,6.8,12,4,15.5-1l.8-.2c1.8.6,3.9,4.3,4.8,6,1.2,2.3,1.8,4.2,2.5,6.7h0Z"/>
            <path class="st165" d="M365.8,309.7c-1.4,6.4-4,7.2-9.1,10-1.2.7-1.6,1.9-2.5,2.8,2.1,1.2,4.7,1,7.1,1,1,0,1-.4,2.1,0-3.1,4-6.3,6.2-11.5,5.6-2.7-.3-4-1.5-5-4-1.1.2-2.2,1-3.3,1.1-.8.1-3.1,0-4-.3-1.4.8-3.8-.9-5-1.9-1.2-1.1-3.2-3.5-2.5-5.1.3-.3,0-.8.6-.7,1.1.2,2.1,1.7,3.7,1.9,5.2.7,8.4-2.8,10.3-7.3.2-.5.6-2.4.7-2.5,1-.9,2.8,2.2,3.3,2.7,2.5,2.6,6.4,3.4,9.8,2.3,1.6-.5,1.1-.9,1.9-1.6,1.4-1.3,2.4-2.5,3.6-4Z"/>
            <path class="st137" d="M368.3,314.2c.8-.3,1.2.3,1.1,1.8l5.3-2.1.8.3c0,3.2.4,7.1,0,10.3-.2,2-1.6,3.9-2.1,5.8-.5,0-.5-.4-.8-.6-1-1.2-5.5-8.4-5.7-9.7-.3-1.5.9-4.1,1.3-5.7h0Z"/>
            <path class="st136" d="M375.5,313.1v1.1c-2.2.9-4.5,1.5-6.5,2.8-.4,0,.2-2.6-.7-2.8.3-1.1.9-2.9.8-3.9,2.1,1.2,3.8,2.7,6.4,2.8Z"/>
            <path class="st94" d="M383.3,312.2c.2,3.3-1.7,6.4-3.8,8.7l-.7-7.3c1.3.2,2.9-1,4-1.5.3-.1.4,0,.4,0Z"/>
            <path class="st170" d="M155.8,289.7c-1.3-.6.4-1.7,0-2.8l.8,1.1c-.2.5-.6,1.1-.8,1.7Z"/>
            <path class="st170" d="M246.1,274.4c-.3.4-.8.7-.8.8-1.3,1,.4-2.4.8-.8Z"/>
            <path class="st21" d="M211.9,295.3c.1,1.3-.8-.3-1.1-.4-4-1.6-5.1,3.5-6.7,5.9-.3.5-.8.4-.8.4v5.6h-.3v-6.2c0-.1-2.1.1-2.2,0l1.1-10.4c.3-1.8.8-4.3,1.4-5.9.5-1.5,1.7-3.4,2.5-4.8,4.3,3.7,5.6,10.3,6.1,15.8Z"/>
            <path class="st142" d="M229.4,287.1c0,.2,0,.4-.3.3-.3-1.4-1-2.8-1.1-4.2.5,1.3,1.1,2.5,1.4,3.9Z"/>
            <path class="st15" d="M229.9,293.3c-.5-1.9-.4-4-.8-5.9l.3-.3c.4,2,.5,4.2.6,6.2Z"/>
            <path class="st138" d="M328.6,279.5l.3,5.1c-.5,0-1.1,0-1.7,0,.1.6-.1,4.1,0,4.2,0,0,1.7,0,2.2.3,0,.7.2,1.2.6,1.3.2,14.6.4,29.3.5,43.9l-.5.8c0,0-.2.2-.3.3l-.6-.2-.7-41.5c-.6-.6-1.2-.3-1.7,1.1-2.9,5.9-6,11.7-9.3,17.3l-1.2,1c0,1.4-.4,2.1-1.2,2-.8-1.9-.9-4.6,0-6.5-.4-.5-.6-1,0-1.4l.3-2.8c-.9-4.5-.6-9.6.3-14.1l-.5-.9c.3-4.3,0-8.1-1.1-12.2-.3-1.1-1.2-3.9-2.1-4.2-.2,0-.3-.4-.2-.7,5.7-9.2,12.8-5.7,15.8,3.2.2.6.9,4.1,1.1,4.1h0Z"/>
            <path class="st23" d="M314.9,315.1c.7-.6.4-1.6.7-2.3.2-.4.9-.6,1.2-1,3.4-4.6,5.8-11.1,8.6-16.1.2-.4,2.1-3.6,2.6-3.2l.6,1.1c-.2-.9.2-2.7,0-3.5-.1-.4-1.2.3-.9-1l1,.4.9,45.9c-1.1,1-2.2,2.8-2.8,4.2-.4.7-.6.9-.9.5-1.1-3.6-2.8-5.1-6.5-5.2-.6-.1-.8-.5-.8-1.1.2-3.4-.1-7-4-7.8-.8-.5-.9-1.4-.9-2.3,0-2.8.2-6.1,1.1-8.7h0Z"/>
            <path class="st99" d="M307.7,301.5c.1-.9.9-.5,1.1.2,0,1.8,0,3.6.2,5.4.1,1.8.2,2.8,1.4,1.4,1.2-1.2,4-2.3,4.5,0,0,2.2,0,4.3,0,6.5,0,2.7-.4,5.6-.6,8.3-.2,3.1,1.1,1.8,2.8,3.1,2.4,1.9,2.1,5,2.1,7.7,1.6.5,3.1.2,4.6,1.3,1.5,1,1.8,2.3,2.4,3.8.2.6,0,.8.7.3-.8,1.9-1.3,3.9-1.1,5.9-4.4-3.3-9.8-2.7-13.3,1.5-.8.9-1.9,2.7-2.2,3.8-.4-3.2-.1-6.5-.3-9.7-.3-7.5-1-15.2-1.4-22.7-.5-5.6-1-11.3-.8-16.9h0Z"/>
            <path class="st162" d="M336.6,288c.4.1.3.4.3.7.2,3.3,0,6.7.3,10,.5,0,.3-1,.3-1.4.5,2.1.3,4.6.3,6.8,0,.4,0,2.5,0,2.5-.1.1-1.8,0-3,.7-3.9,2.3-4,7.8-2.8,11.7,1.2,3.7,3.7,6.2,7.5,7.1-.4,1.8.5,4.2.3,5.8,0,.6-.1,1-.9,1-1.2-.2-1.5-.2-2.8,0-.8.2-1.7.3-2.5.3-.7.2-3,1.5-3.6,2l-.6-46c.5.3.2,1,.3,1.1.2.2,1.7-.4,2.2-.4,1.3,0,2.6,0,4-.1.2,0,.2-1.4.7-1.7h0Z"/>
            <path class="st98" d="M336.1,332.8c-.6.1-2,.9-2.5.3.8-.3,1.6-.4,2.5-.3Z"/>
            <path class="st141" d="M391.1,202.5c2.8.4,5.6,1.6,8.1,3.1l-3.2,1.1c-1.1.7-2.3,1.2-3.4,1.8-5.3,2.7-9.9,6.6-14.2,10.7v-6.2c-.4,0-.5.7-.6,1-.6,1.7-1.4,6.4-2.3,7.5-.8.9-2.7,2.2-3.6,3.1-2.3,2.3-4.5,4.6-6.7,7.1-.8-8.6,2.3-18.1,8.9-23.7.9-.8,3.3-2.6,4.3-3.1.2,0,.4-.2.6-.3,3.7-1.9,8.1-3.8,12.2-2h0Z"/>
            <path class="st143" d="M391.6,218.9c.3,1.3.9,7.2.8,8.3-.3,2.8-3.3,7.3-3.9,10.3-1.4,2.4-2,6.1-3.5.6-.5-1.9-.8-4.1-.9-6.1,0-.1-.2-.2-.3-.1-.2-6.8-.2-12.1,3.6-17.8,0,.7-2.2,3.6-.1,3.1.6-.1,0-1.2.7-1.5,2.1-1,3.3,1.6,3.6,3.2Z"/>
            <path class="st133" d="M279.9,273.9c.3.3.3-.2.6.3,4.5,6.7,4.1,14.2,4.1,21.9-1.3-.5-3.6,1.8-4.6,2.8-.3.3-2.5,2.7-2.6,2.9s-.3,2.5-.4,2.9c0,.8.7,3.1,0,3.7-.4.3-.5-1-.6,1.3h-.6c0-1.5,0-3.1,0-4.7,0-1.2-.9-8.8-.6-9.2.1-.1,1.6.1,1.7,0,.1-.1,0-3.4,0-3.8-.1-1-.4-1.1-1.4-1,0-5.9,1.2-12.1,4.2-17.2h0Z"/>
            <path class="st133" d="M284.4,299.8c0-1.1-.2-2.5.3-3.4,0,1.1.2,2.5-.3,3.4Z"/>
            <path class="st166" d="M61.3,236.1c4.4-2.2,8.3-2.8,13.1-1.6,5.6,1.4,10.7,5.9,11.9,11.8-1.6-.4-3-1.2-4.6-1.7-2.3-.7-4.8-1-7.1-1.7l-3.9-4.2,1.8,4.8c-4.5-.1-9,.4-13.3,1.4l-.7-.3c.8-.2,2.1,0,1.8-1l-1.9-5.5c-.4-1.1,2.2-2.6,3.1-2h0s0,0,0,0Z"/>
            <path class="st3" d="M57.4,250.7c1.2,1,3.1,3,4.1,4.2,1.1,1.1,2.1,2.3,3.1,3.6h-3.6c-.6-1.4-1.4-3.4-2.3-4.7-.4-.7-2.4-2.9-2.4-3.2,0-.2,0-.5.1-.4.2.3.7.4,1,.6h0s0,0,0,0Z"/>
            <path class="st95" d="M300.5,350c-.2-5.6-.2-11.3-.3-16.9.5,5,.6,10.3.6,15.4,0,.5.2,1.3-.3,1.5Z"/>
            <path class="st42" d="M298.6,280.9c.4.5.5,1.3.3,2,0,.5.3,1.4.3,1.7.3,1.2.3,2.5,0,3.7,0,0-.2,0-.3,0-.1-3.5-.6-7-1.4-10.4.5,1.2.8,1.7,1.1,3.1Z"/>
            <path class="st74" d="M307.7,287.4c0-.8,1.4-.7,1.7-.3.3.4.4,4.4,0,4.8-.5.6-1.7,0-2.1-.3.6,0,.8.4.1.6.1,1.6.2,3.2.2,4.7,0,0-.1.1-.3.2.2,0,.3,0,.3,0,.3.5,0,2.9,0,3.6.5.3.5.6,0,.8,0,5.3.6,11.5.8,16.9l-.3,2.3c0-7.3-.8-14.6-.8-21.9l-.6-4.1v6.8h-.6v-4.9c0-.9.1-2,.3-3,0-.6.1-1.1.3-1.7l-7.2.6v-3.9c1.8-.5,3.8-.4,5.7-.6.8,0,1.8-.5,2.4-.5h0Z"/>
            <path class="st159" d="M203,317.3c-.2.6.5,2.5-.6,2.3.2-.6-.5-2.5.6-2.3Z"/>
            <path class="st9" d="M174.7,227.6c0,1.2.2,8.3-.3,8.6-1,.7-6.6-.4-8.1-.2v-17.8c0-1.4-.3-8.3.3-9,.6-.6,6.9.2,7.5.9.3.4.5,1.7.5,2.3.4,4.6,0,10.4,0,15.1h0Z"/>
            <path class="st9" d="M178.5,211c1.2-.4,7.3.3,8,1.4.8,1.3.5,9.1,0,10.8,0,.3-.2.8-.5.9-.8.5-6.9-.1-7.8-.6-.6-.3-.8-1.1-.8-1.7-.2-2-.2-7.1,0-9,0-.6.4-1.6,1-1.8h0Z"/>
            <path class="st2" d="M190.4,212.7c.9-.3,6.3.4,7,.9,1.2.9.9,5.7.8,7.3,0,.7-.2,2.9-.3,3.3-.2.8-1.3,1.1-2,1.1-1,0-4.1-.3-5-.6-.5-.2-1.2-.7-1.4-1.1-.3-.7-.3-8-.2-9.2,0-.6.4-1.6,1-1.8h0Z"/>
            <path class="st9" d="M201.2,214.1c1.2-.4,6.8,0,7.4,1.4.4,1,.3,5.5.2,6.8-.2,3.2-.1,3.9-3.5,3.8-1.2,0-4.2-.2-4.7-1.4-.3-.7-.3-7.7-.1-8.9,0-.5.2-1.6.7-1.8h0Z"/>
            <path class="st9" d="M218.6,227.1h-5.4c-.9,0-1.9-.6-2.1-1.6-.2-1.3-.2-8.4.3-9.2.9-1.7,7.4-.1,7.4.5v9.6c0,0-.4.4-.3.7Z"/>
            <path class="st27" d="M159.9,208.2c1.6-.5,3.6.4,3.9,2.1.3,1.6.3,8.4,0,10.1-.4,2.5-4.4,1.6-4.6-.6.3-2.9-.5-6.2-.3-9,0-.8.2-2.4,1-2.6h0Z"/>
            <path class="st33" d="M132.2,214.1l-.5-.7.6-3.7c-3.7,5.1-9.2,8-14.6,10.6-.1-.1-.4-.1-.5-.5-.3-1.2.8-7.6,1.1-9.2.3-1.3.4-3.3,1.9-3.8h12.2c.3.1.6.7.7,1,.3,1-.3,3.6-.5,4.9,0,.4-.2,1-.5,1.3h0s0,0,0,0Z"/>
            <path class="st37" d="M151.3,206.7c.9,4.1-1,5.8-4,8.1-2.6,1.6-5,3.4-7.3,5.4,0,.2,0,.4,0,.5,0,.2-3.4,0-3.9-.1-1.5-.8-1.2-1.9-.6-3.1l.3-1.3c4.7-2.2,8.8-5.8,12.6-9.4.8-.5,2.2-.7,2.9,0h0s0,0,0,0Z"/>
            <path class="st33" d="M151.3,206.7c-2.3-.8-4.3,2.3-6,3.7-2.8,2.3-5.4,4.1-8.5,5.9-.2.1-.2.5-.2.5-.2.1-.7-.3-.8-.3,0,0,0,.5-.3.8l1.2-8.3c.6-1.6,1.9-2.4,3.5-2.7,1.3-.2,3.3-.3,4.7-.4,1.5,0,4.5-.2,5.8,0,.5,0,.5.2.7.6h0Z"/>
            <path class="st32" d="M132.2,214.1c-.1.9-.1,1.6-.3,2.5-1.2,1.5-3.5,3.9-5.4,3.7-1.5.4-3.1.4-4.9,0,.9,0,1.6.2,1.9.6-1.7-.2-4.6.6-5.8-.6-.2-.9,0-.7.5-1,1.1-.7,2.8-1.2,4-1.9,3.7-2.1,8.6-5.7,10.5-9.5.5,0,.3.7.3,1-.1,1.6-.6,3.5-.8,5.2h0s0,0,0,0Z"/>
            <path class="st33" d="M136.1,220.6h3.6c-.2-.6-1.1,0-.1-.8,2.6-2.4,6.3-4.3,9-6.6,2.4-2,3.2-2.9,2.8-6.3.2.3.2.3.3.7.2,1.8-1.1,9.6-1.8,11.5-.4,1.2-1.4,1.8-2.6,1.9-2.1.3-8.5.3-10.6,0-.4,0-.4-.2-.7-.3h0s0,0,0,0Z"/>
            <path class="st81" d="M134.5,200.3c2.6-2.7,5.8,2.6,3.3,4.6-2.7,2.1-5.2-2.6-3.3-4.6Z"/>
            <path class="st111" d="M131.9,216.6c-.3,1.9-.3,3.7-2.6,4-1.3.2-4.4.3-5.7.3-.2,0-1.3-.6-1.9-.3v-.3h4.9c.3,0,5.2-3.2,5-4.2l.4.6Z"/>
            <path class="st9" d="M241.8,219.8c.4.6.4,4.2.3,5.2,0,.6-.3,3.8-.4,4.1-.3.7-3.6.4-4.2,0-.7-.3-.8-1.7-.9-2.5,0-1,0-7.1.3-7.5.9,0,4.5,0,4.9.6Z"/>
            <path class="st38" d="M233.3,228.3c-.2.8-4.1.2-4.5-.3-.8-1-.7-9.9,0-10.1,1,.1,4.6-.4,4.6,1v9.3Z"/>
            <path class="st9" d="M249.9,220.6v9.2c0,.7-4.4.2-4.7,0-1.2-.8-.2-8.1-.3-9.7l5,.6h0Z"/>
            <path class="st9" d="M257.7,230.6c-.3,1-3.9,0-4.7-.2,0-1.6-.8-8.3-.2-9.3.4-.5,4.9.3,4.9.7,0,1.7.3,7.7,0,8.7h0Z"/>
            <path class="st9" d="M260.5,222c.3-.3,4.3.3,4.6.8.3.5.2,7.9-.3,8.5-.6.7-4.3.2-4.3-.4v-8.9Z"/>
            <path class="st9" d="M271.9,232.1c-.7,0-4.2.3-4.2-.4v-8.2c0-.9,4.2-.2,4.2.6v8Z"/>
            <path class="st163" d="M143.8,228.5c4.2-1.2,4.3,6.6,0,5.2-1.9-.6-2-4.6,0-5.2Z"/>
            <path class="st52" d="M119.9,228.5c3.2-.6,3.6,5.3.7,5.6-3.4.3-3.4-5.1-.7-5.6Z"/>
            <path class="st47" d="M280.4,224.8c.7-.2,3.4-.3,3.7.7.2.6.2,6.2,0,7-.3,1.6-3.7,1-4-.1-.2-.7-.2-7,0-7.4,0-.1.2-.2.3-.2Z"/>
            <path class="st2" d="M287.4,233.5v-6.6c0-.1-.3-.4-.2-.8.3-1.4,4.1-.3,4.1.2v7.1c0,.9-3.3,0-3.9.1Z"/>
            <path class="st47" d="M294.4,226.5c1.1,0,2.3-.2,3.3.3-.3,1.4.8,6.4.2,7.3-.4.6-3.5.2-3.5,0v-7.6Z"/>
            <path class="st46" d="M305.2,234.8c-.2.7-2.8.4-3.3,0-.8-.7.4-6.1,0-7.5.5-.1,3.3,0,3.3.7,0,1.4.3,5.9,0,6.8h0Z"/>
            <path class="st33" d="M308.8,235.5v-7.3c.9,0,2.5,0,2.9.8.2.5.3,5.7,0,6.2-.5,1-2.1.5-2.9.3Z"/>
            <path class="st46" d="M332.4,232.3c.3-2.2,2.8-.6,2.8-.3v5.4c0,.6-2.8.6-2.8,0,0-1.5-.2-3.8,0-5.1Z"/>
            <path class="st44" d="M323.3,236.6c-.4.1-2.5-.2-2.5-.3v-6.5c.5,0,2.5-.2,2.5.4v6.3Z"/>
            <path class="st123" d="M329.4,230.7v6.5c-.5,0-2.5.2-2.5-.4v-6.3l2.5.3Z"/>
            <path class="st59" d="M339.9,232.1v5.8c0,.7-2.5.5-2.5-.3v-5.8l2.5.3Z"/>
            <path class="st44" d="M342.7,238.3v-5.6c.5,0,2.2-.1,2.2.4v5.1c0,.7-1.8.4-2.2.1Z"/>
            <path class="st170" d="M240.2,293.1c-1-.7-.2-2.1-.3-3.1.5,0,.3.6.3,1,0,.7,0,1.4,0,2.1h0Z"/>
            <path class="st170" d="M299.7,288c0,0-.3.2-.6.3,0-1.2,0-2.5,0-3.7,1.2.6-.4,2.4.6,3.4Z"/>
            <path class="st170" d="M298.8,282.9c0-.6-.2-1.4-.3-2l.3-.3c.1.7.6,1.7,0,2.3Z"/>
            <path class="st66" d="M315.5,290.2l-.5,1.9c-2,2.1-4.2,4-6.4,5.7.3,1.8,0,2.8-.9,2.8,0-.9,0-1.8,0-2.7,0-.4-.3-.7-.3-.8v-5.5c.3,0,1.6,0,1.7,0,.1-.1-.1-3.6,0-4.2-.5,0-.9,0-1.4,0v-.3c.4-3.7.6-8,1.9-11.6-.4-.4,0-1.3.6-1.1.3-.6,1-1.6,1.4-2.3.2.3.6,0,1,.2.4.3,2.1,5.1,2.3,5.9.9,3.9.6,7.9.6,11.9h0Z"/>
            <path class="st74" d="M307.4,281.2c-.3,1.2,1.1,3.2-.6,2.8.2-.7-.6-3,.6-2.8Z"/>
            <path class="st74" d="M309.7,275.6c-1.4.3.5-2.9.6-1.1-.2.4-.5.9-.6,1.1Z"/>
            <path class="st170" d="M329.1,280.9c1-.3.6,1.5,0,2,0-.6,0-1.3,0-2Z"/>
            <path class="st74" d="M308,278.1h-.6v1.4h.6v-1.4Z"/>
            <path class="st78" d="M396.3,297c.2,2-1.1,4.8-2.5,6.3-.7.8-2.1,1.4-2.8,2.1-2.4.8-6.7,1.7-7.9-1.4-.9-2.3,2.2-7.8,4-9.2,2.6-2,8.7-2.1,9.1,2.1Z"/>
            <path class="st118" d="M315.2,304.3l-.3,2.8c0,.5,0,.9,0,1.4-1.4-1.8-4.5.1-5.1,2l-.7-1.4c-.1,5.2.8,10.1.6,15.4,0,.3.2,1.1-.3,1-.4-2.9-.1-5.9-.3-8.9-.2-4.7-.7-9.4-.8-14.1,0-.5.3-1.1-.6-1,0-.3,0-.6,0-.8s.3-.4.3-1c0-2.5.2-5.2-.3-7.5h.8c-.5,1.3-.1,2.7,0,4.1,0,.4-.2.8.4.7,2.1-2.3,5.3-3.8,6.5-6.8,0,4.7-.3,9.4-.3,14.1h0Z"/>
            <path class="st23" d="M314.9,307.2c0-.9-.2-2.2.3-2.8,0,.9.2,2.2-.3,2.8Z"/>
            <path class="st138" d="M328.6,299.3h-.3v4.5h.3v-4.5Z"/>
            <path class="st149" d="M276.6,305.2c-.5,0-.3-.6-.3-1,0-.6,0-1.2,0-1.8.5,0,.3.6.3,1,0,.6,0,1.2,0,1.8Z"/>
            <path class="st126" d="M131.3,207c-4,3.6-8.1,7.4-13.3,9-.2-.3.2-3.2.5-3.5.3-.3,1.6-.6,2.1-.9,1.2-.7,4.8-2.8,5.5-3.7.2-.3.1-.8.2-.8h5Z"/>
            <path class="st60" d="M47.2,239.2c.8.1,2,2.6,2.3,3.5.7,2.5.6,3.4-2.1,2.9-.7-.1-3.1-1.1-2.9-1.9l-2.1-.2c-4.3-1.5-9-2.9-13.6-2.5-.7-.6-.6-1.3.4-2.2-1,1-14.3.4-15.2,0l4.8-5.3c2-1.5,13.2-3.9,15.6-3.3,4.9,1.1,10.4,4.4,12.7,9h0Z"/>
          </g>
        </g>
      </g>
      <path class="st173" d="M182.8,342.8c2,.8,2.8,4.6,1.7,6.3,1-.2,1.6.5,1.8,2.1,3.2,0,20.9-.3,21.9,1.9.9,1.8-1.8,3.8-3.1,2.2,0,.4-.1,1-.4,1-5.2.3-12.2.3-17.4,0l-.6-1,1.2.4,1,5.9,52.8,2.5c1.9.4,2.1,2.4,0,2.2h-51.5c.4,0,.1.3-.7.5-10.7,0-21.5,0-32.2,0-.8,0-3-2-2.5-2.6,5.8-.5,4.8-3.9-.3-4.7h-80.8c-4.2-.7-5.5-5.3-1.1-6.7,11.9-1.1,25.7,1.1,37.3-.1,1.4-.2,3.1-.6,4.1-1.6.9-1.7,0-3-1.8-3.6-1.9,0-4.8-1.5-2.6-2.8,1-.6,20.3-1.7,22.4-1.3,1.6.3,2.9.5,2.5,2.4-3.6-.4-6.4-.2-8.4.7,0,.3.2.6.5.6,1.5,0,11.6.2,12.2,0,.2,0,.3-.3.5-.6l-1.9-.6c-3,.2-4.3-.9-1.3-2.5l33.9.6c4.3,0,8.4-.9,12.2-1.7.7-.7,1.1-.4.6.5h0Z"/>
      <path class="st173" d="M184.4,349c.4-2.4,2.5-3.1,6.5-2.1,8.9-.3,17-.2,25,3.1,5.3-.8,10.9-.6,16.4-.3l44.9,2.4c3.4-1.1,6.6-1.2,9.8-.2,3.1-2.2,5.8-1.8,5.9,2.3,1.3,1.5,0,5.9-.7,8-.1,1.9-.8,2.9-2.1,3,.8.8-.3,1.3-1.1,1.6-33.2,0-66.4.1-99.6,0-.3-1.6.8-1,1.9-1,16.3-.5,32.7.6,49,0,.7,0,2,.4,1.9-.5l-54.5-2.6-1.1-7.3h18.4c.4,0,2.1-.9,2.5-1.3,0-2-19.5-1.8-21.7-1.9-.9-.3-1.1-2.1-1.4-3.1Z"/>
      <path class="st110" d="M450.9,336c.4,0,.7,0,1.1,0,2.9,5.1-.6,10.6-6.6,11-23.5-.5-46.8-.5-69.9,0-3.2,1.3-10.8-.8-9.4,4.7-3.5.7-2.3-4.1.5-5.1-5.2-.1-10.3-.1-15.5,0-.7.7-1.5.8-2.1.4-1,.5-2.2-.6-1.7-1.2-14.3.2-28.7.3-43,.2-1.4,0-2.9-.2-4.3-.4-1.4-.2-2.9-.4-4.3-.7-1.9-.3.8-8.4,1.3-8.5,50.8,0,101.4-.1,151.8-.4h2.2,0Z"/>
      <path class="st110" d="M101.9,336.5c25.7.2,52,.4,78.7.5.1-.5.3-.4.6,0,1.6.7,2.4,4,1.1,5.2-.6.7-.8,1.3-1.9,1.6-1.4.3-5.2.9-6.6,1-4.8.4-11,0-15.9,0-7.2,0-14.3-.4-21.5-.5l-1.4,1c1.7,0,3.2-.3,4.4,1-.2.3-.4.5-.7.6-.9.5-11,0-12.5-.6.1-.2-.3-.9.4-1.1,1.9-.4,5.3.4,7.4,0,0-.9-1.8-1-2.5-1-6.7-.5-14.3,1.7-21.2,1.1-.5,2.3.9,1.2,2.6,2,1.8.8,2.9,2.4,1.2,3.8.2-1.5-.3-2.7-1.8-3.3-1.1-.4-5.3-.8-6.7-.9-23.4-1.5-48.4,1.2-72-.1-4.7-.6-7.6-3.9-7.1-8.5.2-1.6,1-1.5,1.1-1.8,24.1-.4,50-.3,74.3,0h0Z"/>
      <path class="st173" d="M294,350.6c1,.4,2.1,1.1,3.1,2.2,5.1.7,10.2,1.4,15.4,2l5.7-1.1c2.4,0,2.9,1.3,2.1,3,.1,1.7,16.5,1.5,18.4.2-1.4-.3-1.3-.6,0-1-4.4-.8-5.2-2.2-2.4-4.1,2.5-.3,5.2-.1,8,.6,13.9,0,27.8.2,41.7.9,1.9.2,2.3,3.8,0,5.2-13.9.8-27.8,1.1-41.8,1-1.6.8-2.4,1.8-2.2,3.1.9,1.5,2.3,1.6,3.9,2.1,0,.8-1.1,1.5-3.3,2.1-7.8.8-18.3,0-26.4,0-1.8-.5-3.7-.5-5.5,0-2.7,0-5.5,0-8.3,0-2.3-.5-4.5-.5-6.6,0h-1.7c-.9-.3-2.4-.6-4.3-.9l.5-.7c1.1-2.8,1.9-7.8,2.8-11-.9-1.7-.7-2.7,1.1-3.7h0Z"/>
      <path class="st173" d="M349,346.9c.5-.3.7-1.3,2-1.5,3.7-.5,7.6,0,11.4.1,2.2.1,5.8-.9,7.4,1.3-2.7-.4-6.9,2.6-3.9,4.7,3.7,2.6,15.2-.2,19.8,1.6,0,0-.4.5-.8.4-5-.7-12.6-.8-17.6-.4-4.5.4-3,.6-7.7,0-5.1-.7-11.8.6-17.6,0-1.2-.1-5.3-2-6.4.3-.9,1.9,2.1,1,2.8,2.3-.4.4-.4.7,0,1-.3,1.2-1.5,1-2.4,1.1-3.1.2-12.2.5-14.9,0-2.1-.4-1.4-3-2.3-3.2-1-.2-4.4,1.1-6.5,1.1s-3.7-.9-5.5-1c-4.6-.4-11.2,1.1-12.9-4.2-1.8-.5-1-3,.8-2.9,17.8.2,35.5,0,53.1-.3-.4-1.3,0-1.5,1.1-.5h0Z"/>
      <path class="st110" d="M181.1,336c8.1.3,16.3.4,24.7.3,1.9.5,1.7,1-.4,1.5-3,.7-19.8.7-22.6-.1-.6-.2-1.2-.4-1.7-.7h-.6c-25.8-.2-52-.4-78.7-.5H27.5c0-.1,0-.4,0-.5h153.6Z"/>
      <path class="st110" d="M445.4,346.9c-23.3-.3-46.6.4-69.9,0-.3,0-2.9.3-1.9-.5,22.9.2,45.9-.2,68.8,0,.9,0,2.4-.3,3,.5h0Z"/>
      <path class="st173" d="M385.9,358.4c-1.1.7-2.8,1-4.1,1.1-11.8,1-25.4-1.1-37.2,0h-.6l41.8-1Z"/>
      <path class="st173" d="M290.1,365.2c.8,2.4,4.2-.9,3.9,1.6h-5c-.3-.9,1-1.4,1.1-1.6Z"/>
      <path class="st173" d="M302.2,366.8h-6.6c.7-1.4,5.3-.6,6.6,0Z"/>
      <path class="st173" d="M345.7,364.7c.3.1,1.1-.3,1.1.3-1.1,1.4-2.7,1.7-4.4,1.8.5-1.5,2.7-.5,3.3-2.1h0Z"/>
      <path class="st173" d="M344.1,359.5c.2,0,.4,0,.5,0-1,1-2.7,1.5-2.8,3.1-1-1.6.3-2.8,2.2-3.1Z"/>
      <path class="st173" d="M316,366.8c-1.8,0-3.7,0-5.5,0,1.2-.9,4.4-.9,5.5,0Z"/>
      <path class="st102" d="M450.9,336c-.7,0-1.5,0-2.2,0-89.2.6-178.4.6-267.5,0-51,0-102,.2-153,0h422.8Z"/>
      <path class="st110" d="M448.7,336c0,0-.9.5-1.9.6-49.7.9-99.5-.7-149.2,0l-2,8.4c-.1.5-.3.4-.6,0l-.7,1c-1.8.2-11.1.6-12.4.1-.4-.1-.5-.7-.6-1.2l-1.6.7c-9.7-.7-19.5-1.1-29.6-1-21.3.2-42.5-.6-63.7-2.4-1.3.1-2.5.3-3.7.6,0-.2-.5-.4-.6-.5-.5-1.6-1-3.5-1.1-5.2,8.6,0,17.3.2,25.9-.3-7.6-.5-15.2-.2-22.9-.2-.9,0-2.4.3-3-.5,89.2,0,178.4,0,267.5,0Z"/>
      <path class="st173" d="M182.8,342.8c1.1-1.9,2.6-1.7,4.7-1.6,7,.3,14,.8,20.9,1.1,3.4.2,6.1,1,8.3,1,14.5.6,28.9-.3,43.5.5,7.9.4,13.6-1,21.2,1,.3,1.5,1.8,2,4.6,1.6h8c0,0,.6,1,.6,1,17.7-1.6,35.7-1.7,53.4,0-.3,0-.7.7-1.3.6h-51.7c-.8.1-.7,2-.9,2.6-.4,1.2-.8,2.4-1.1,3.7-1.1-.2-.8-1.7-1.5-2.1-1.9-1.4-3,.7-4.3.9-1.2.1-3.1-.9-4.5-.8-1.7,0-2.9,1.2-5.5,1.1-19.1-.5-38-2.8-57.2-2.6-1.4,0-2.6.6-4.5.5-2.8-.2-5.3-2.2-7.7-2.6-5-.7-11.4-.5-16.5-.5-2.6,0-4.3-1.5-6.9,1-.7-2-1-4.2-1.7-6.3h0Z"/>
      <path class="st40" d="M139.3,345.7c.2.2.5.7.6,1-.6.8-13.5.8-14.3,0-.2-.7.5-.9.6-1,4.5-.9,8.7-.4,13.2,0h0Z"/>
      <path class="st110" d="M180.6,337c-25.2,0-50.5.3-75.7,0-.9,0-2.4.3-3-.5,25.2,0,50.5-.3,75.7,0,.9,0,2.5-.3,3,.5Z"/>
      <path class="st40" d="M338.6,355.8s0,1,0,1c-.8.6-12.7.7-14.6.5-4.9-.3-4.9-1.8,0-2.1,1.9-.1,13.9-.1,14.6.5Z"/>
      <path class="st173" d="M295.1,344.8l-.6,2.6c-2.2,0-13.3.4-14-.5-.7-.9.5-1.4.8-2.1,2.2.6,10.7,0,13.8,0Z"/>
      <path class="st40" d="M348.7,347.4h0c-.1,0-.2,0-.4,0-17.7,0-35.5.1-53.2,0-1.6-.1-1-2.6.6-2.6h.5c17.2.2,34.4-.1,51.5,0,.3,0,.6.2.8.4l.6.9c.3.4,0,1-.4,1.2h0Z"/>
      <path class="st40" d="M217.8,354.9s0,1,0,1c-.8.6-12.7.7-14.6.5-4.8-.3-4.9-1.8,0-2.1,1.9-.1,13.9-.1,14.6.5Z"/>
      <path class="st20" d="M444.8,334.6c-50.7-.2-101.6,0-152.3,0-7-.6-14-.6-21,0-4.6-.6-9.2-.6-13.8,0-3.7-.6-7.5-.6-11.3,0-4.6-.6-9.2-.6-13.8,0-.2-.2-.3-.5-.7-.6-.5-.1-9.1,0-10.1,0-.3,0-.4.4-.5.6-4.6-.6-9.2-.6-13.8,0l-.6-.6c-6.7,0-13.4,0-20.1,0l-.3.5c-13.7-.6-27.4-.6-41,0-7.5-.6-15.1-.6-22.6,0-1-.9-7.4-1-8.2,0-4.6-.6-9.2-.6-13.8,0-3.6-1-9.3-1-12.8,0-17-.9-34.3-1-51.3,0-3.4,0-6.8,0-10.3,0v4.8c5.3,0,10.6,0,15.9,0,.2.2.4.2.5,0h393.8c.3.6.7.6,1,0,5.1,0,10.3,0,15.4,0v-4.8c-2.7,0-5.5,0-8.2,0ZM26.8,339.1c.8,0,1.6,0,2.4,0-.8,0-1.6,0-2.4,0Z"/>
    </g>
  </g>
  <path class="st54" d="M463.7,190.1c0,0,.2,0,.3,0,0,0,.1,0,.2.1,0,0,0,.2,0,.4s0,.3,0,.3c0,0-.1.1-.2.1,0,0-.2,0-.3,0h-1.8v5.2c0,.1,0,.2,0,.3,0,0,0,.2-.2.2,0,0-.2,0-.4,0s-.3,0-.4,0c0,0-.1-.1-.2-.2,0,0,0-.2,0-.3v-5.2h-1.8c0,0-.2,0-.3,0,0,0-.1,0-.2-.1,0,0,0-.2,0-.4s0-.3,0-.4c0,0,.1-.1.2-.1,0,0,.2,0,.3,0h4.8,0Z"/>
  <path class="st54" d="M468.1,197c-.5,0-.9,0-1.3-.3-.4-.2-.8-.4-1.1-.7-.3-.3-.6-.7-.7-1.1-.2-.4-.3-.9-.3-1.3s0-.9.3-1.4c.2-.4.4-.8.7-1.1.3-.3.7-.6,1.1-.8.4-.2.8-.3,1.3-.3s.9,0,1.3.3c.4.2.8.4,1.1.7.3.3.5.7.7,1.1.2.4.3.9.3,1.4s0,.9-.3,1.3c-.2.4-.4.8-.7,1.1-.3.3-.7.6-1.1.8-.4.2-.8.3-1.3.3h0ZM468.1,195.8c.3,0,.6,0,.8-.2.3-.1.5-.3.7-.5.2-.2.3-.5.5-.7s.2-.6.2-.9,0-.6-.2-.9c-.1-.3-.3-.5-.5-.7-.2-.2-.4-.4-.7-.5-.3-.1-.5-.2-.8-.2s-.6,0-.8.2c-.3.1-.5.3-.7.5-.2.2-.4.5-.5.7-.1.3-.2.6-.2.9s0,.6.2.9c.1.3.3.5.5.7.2.2.4.4.7.5.3.1.5.2.8.2h0Z"/>
  <path class="st54" d="M475,197c-.5,0-.9,0-1.2-.3-.4-.2-.6-.4-.9-.7-.2-.3-.4-.6-.6-1-.1-.4-.2-.8-.2-1.2v-3.1c0-.1,0-.2,0-.3,0,0,0-.2.2-.2,0,0,.2,0,.4,0s.3,0,.4,0c0,0,.1.1.2.2,0,0,0,.2,0,.3v3.1c0,.4,0,.7.2,1,.1.3.3.5.5.7.2.2.6.3.9.3s.6,0,.9-.2.4-.4.6-.7.2-.7.2-1.1v-3.1c0,0,0-.2,0-.3,0,0,0-.1.2-.2,0,0,.2,0,.4,0s.3,0,.4,0c0,0,.1.1.2.2,0,0,0,.2,0,.3v3.1c0,.4,0,.8-.2,1.2-.1.4-.3.7-.6,1-.2.3-.6.5-.9.7-.4.2-.8.3-1.2.3h0Z"/>
  <path class="st54" d="M479.6,196.9c-.2,0-.3,0-.4,0,0,0-.1-.1-.2-.2,0,0,0-.2,0-.3v-5.6c0-.1,0-.2,0-.3,0,0,0-.2.2-.2,0,0,.2,0,.4,0h2.1c.3,0,.6,0,.8.1.3,0,.5.2.7.4.2.2.4.4.5.7.1.3.2.6.2,1s0,.5-.1.7-.2.5-.3.7-.3.4-.6.5c-.2.1-.5.2-.8.3h-1.9v1.6c0,.1,0,.2,0,.3,0,0,0,.2-.2.2,0,0-.2,0-.4,0h0ZM480.2,193.5h1.6c.1,0,.2,0,.3,0,.1,0,.2-.1.3-.2,0,0,.2-.2.2-.3,0-.1,0-.3,0-.5s0-.4-.1-.6c0-.2-.2-.3-.4-.4-.2,0-.4-.1-.6-.1h-1.5v2.2h0ZM483.8,196.8c-.2.1-.3.2-.5.2-.1,0-.2-.1-.4-.3l-1.6-2.5,1.3-.2,1.3,2c0,.1.1.2.2.3,0,0,0,.2,0,.3,0,0-.1.2-.3.3h0Z"/>
  <path class="st54" d="M487.8,196.9c-.2,0-.3,0-.4-.2-.1-.1-.2-.3-.2-.4s0-.2,0-.3c0,0,0-.2,0-.3,0,0,.1-.2.2-.3.3-.2.6-.5.9-.7.3-.2.6-.4.9-.6.3-.2.5-.4.8-.6.2-.2.4-.4.5-.6.1-.2.2-.4.2-.7s0-.4-.1-.5c0-.2-.2-.3-.4-.4-.2,0-.4-.1-.7-.1s-.4,0-.5,0c-.2,0-.3.1-.4.2-.1.1-.2.2-.2.4,0,.2,0,.3,0,.5s0,.2,0,.3c0,0,0,.2-.2.2s-.2,0-.4,0-.3,0-.4,0c0,0-.1-.1-.1-.2,0,0,0-.2,0-.3,0-.3,0-.6.2-.9.1-.3.3-.5.5-.8.2-.2.5-.4.8-.5.3-.1.6-.2,1-.2s.9,0,1.3.3c.4.2.6.5.8.8.2.4.3.8.3,1.3s0,.5-.1.7c0,.2-.2.4-.3.6-.1.2-.3.4-.5.5-.2.2-.4.3-.6.5-.2.1-.4.3-.6.4-.2.1-.4.2-.6.4l-.4.2h2.8c.1,0,.2,0,.3,0,0,0,.2,0,.2.2,0,0,0,.2,0,.4s0,.3,0,.4c0,0-.1.1-.2.2,0,0-.2,0-.3,0h-3.9,0Z"/>
  <path class="st54" d="M495.5,197c-.4,0-.7,0-1-.2-.3-.1-.5-.3-.7-.5-.2-.2-.4-.5-.5-.8-.1-.3-.2-.6-.3-.9,0-.3,0-.7,0-1s0-.7,0-1c0-.3.1-.7.3-.9.1-.3.3-.6.5-.8.2-.2.4-.4.7-.5s.6-.2,1-.2.7,0,1,.2c.3.1.5.3.7.5.2.2.3.5.5.8s.2.6.3.9c0,.3,0,.7,0,1s0,.7,0,1-.1.7-.3,1c-.1.3-.3.6-.5.8-.2.2-.4.4-.7.5-.3.1-.6.2-1,.2h0ZM495.4,195.8c.3,0,.5,0,.6-.2.2-.1.3-.3.4-.4,0-.2.2-.4.2-.6,0-.2,0-.4,0-.6,0-.2,0-.3,0-.5h0c0-.5,0-1-.1-1.3,0-.3-.2-.6-.4-.8-.2-.2-.4-.3-.7-.3s-.5,0-.7.3c-.2.2-.3.4-.4.8,0,.3-.1.8-.1,1.3s0,.9.1,1.2c0,.3.2.6.4.8.2.2.4.3.7.3h0Z"/>
  <path class="st54" d="M499.2,196.9c-.2,0-.3,0-.4-.2-.1-.1-.2-.3-.2-.4s0-.2,0-.3c0,0,0-.2,0-.3,0,0,.1-.2.2-.3.3-.2.6-.5.9-.7.3-.2.6-.4.9-.6.3-.2.5-.4.8-.6.2-.2.4-.4.5-.6.1-.2.2-.4.2-.7s0-.4-.1-.5c0-.2-.2-.3-.4-.4-.2,0-.4-.1-.7-.1s-.4,0-.5,0c-.2,0-.3.1-.4.2-.1.1-.2.2-.2.4,0,.2,0,.3,0,.5s0,.2,0,.3c0,0,0,.2-.2.2s-.2,0-.4,0-.3,0-.4,0c0,0-.1-.1-.1-.2,0,0,0-.2,0-.3,0-.3,0-.6.2-.9.1-.3.3-.5.5-.8.2-.2.5-.4.8-.5.3-.1.6-.2,1-.2s.9,0,1.3.3c.4.2.6.5.8.8.2.4.3.8.3,1.3s0,.5-.1.7c0,.2-.2.4-.3.6-.1.2-.3.4-.5.5-.2.2-.4.3-.6.5-.2.1-.4.3-.6.4-.2.1-.4.2-.6.4l-.4.2h2.8c.1,0,.2,0,.3,0,0,0,.2,0,.2.2,0,0,0,.2,0,.4s0,.3,0,.4c0,0-.1.1-.2.2,0,0-.2,0-.3,0h-3.9,0Z"/>
  <path class="st54" d="M506.4,197c-.3,0-.5,0-.7,0-.2,0-.4-.1-.5-.2-.2,0-.3-.1-.4-.2-.1,0-.2-.1-.3-.2,0,0-.1-.1-.2-.2,0,0,0-.1,0-.2s0-.1,0-.2c0,0,0-.1.2-.2,0,0,.1-.2.2-.2,0,0,.1,0,.2,0s.1,0,.2,0c0,0,.2,0,.3.2,0,0,.1,0,.2.1,0,0,.2,0,.3.1s.3,0,.5,0,.4,0,.6-.1c.2,0,.3-.2.4-.4,0-.2.1-.3.1-.6s0-.4-.1-.5c0-.2-.2-.3-.4-.4-.2,0-.3-.1-.5-.1s-.2,0-.3,0c0,0-.2,0-.2,0,0,0-.1,0-.2.1,0,0-.1,0-.2.1,0,0-.1,0-.2,0,0,0-.2,0-.2,0,0,0-.2,0-.3-.1-.1,0-.3-.1-.3-.2,0,0,0-.1,0-.2l.4-2.9c0,0,0-.2,0-.3,0,0,0-.2.2-.2,0,0,.2-.1.4,0h2.4c.1,0,.2,0,.3,0,0,0,.2,0,.2.2,0,0,0,.2,0,.4s0,.3,0,.4c0,0-.1.1-.2.2,0,0-.2,0-.3,0h-1.9l-.2,1.4c0,0,.1,0,.2-.1,0,0,.1,0,.2,0,0,0,.1,0,.2,0h0c.3,0,.6,0,.8.2.3.1.5.3.7.5.2.2.4.4.5.7.1.3.2.5.2.8,0,.4,0,.8-.3,1.2-.2.4-.5.6-.8.8-.3.2-.7.3-1.1.3h0Z"/>
  <path class="st119" d="M443.1,184c-.5,0-.9,0-1.2-.2-.2-.2-.4-.4-.5-.6,0-.3,0-.6,0-.9v-16.3c0-.7.1-1.1.4-1.4.3-.2.7-.4,1.4-.4h11c.3,0,.6,0,.9,0,.3,0,.5.2.6.5.2.2.2.6.2,1.2s0,.9-.2,1.1c-.2.2-.4.4-.6.5-.3,0-.6,0-.9,0h-9.3v4.7h6.4c.3,0,.6,0,.8,0,.2,0,.4.2.6.4.1.2.2.6.2,1.1s0,.8-.2,1c-.1.2-.3.4-.6.4-.2,0-.5,0-.9,0h-6.4v5.1h9.4c.3,0,.6,0,.9,0,.3,0,.5.2.6.5.2.2.2.6.2,1.2s0,.9-.2,1.2c-.2.2-.4.4-.6.5-.3,0-.6,0-.9,0h-11.1Z"/>
  <path class="st119" d="M460.5,184c-.6,0-.9,0-1.2-.2-.2-.2-.4-.4-.5-.6,0-.3,0-.5,0-.8v-16.3c0-.3,0-.6,0-.9,0-.3.2-.5.5-.6.2-.2.6-.2,1.2-.2s.9,0,1.1.2c.2.2.4.4.5.6,0,.3,0,.5,0,.9v15h8.6c.3,0,.5,0,.8,0,.2,0,.4.2.6.4.1.2.2.6.2,1s0,.8-.2,1c-.1.2-.3.4-.5.4-.2,0-.5,0-.8,0h-10.3Z"/>
  <path class="st119" d="M476.4,184c-.5,0-.9,0-1.2-.2-.2-.2-.4-.4-.5-.6,0-.3,0-.5,0-.8v-16.3c0-.3,0-.6,0-.9,0-.3.2-.5.5-.6.2-.2.6-.2,1.2-.2s.9,0,1.1.2c.2.2.4.4.5.6,0,.3,0,.5,0,.9v15h8.6c.3,0,.5,0,.8,0,.2,0,.4.2.6.4.1.2.2.6.2,1s0,.8-.2,1c-.1.2-.3.4-.5.4-.2,0-.5,0-.8,0h-10.3Z"/>
  <path class="st119" d="M508.3,181.6c.2.4.3.7.3.9,0,.3,0,.5-.2.7-.2.2-.5.4-.8.6-.6.3-1.1.4-1.4.2-.3-.1-.7-.5-.9-1.1l-6.3-13.3-6.3,13.3c-.3.6-.6.9-.9,1.1-.3.1-.8,0-1.4-.2-.4-.2-.7-.4-.8-.6-.2-.2-.3-.5-.2-.8,0-.3.1-.6.3-1.1l7.8-16.2c.2-.3.4-.5.7-.7.3-.2.6-.3.9-.3s.4,0,.6.1.4.2.5.4c.2.2.3.3.4.6l7.8,16.3h0ZM493.9,178.9l1.4-2.9h7.4l1.3,2.9h-10.1,0Z"/>
  <path class="st119" d="M370.6,68.6c0,2.2-3,1.7-5.2,8.2,0,0-7.8,26.5-8,27.3-.6,2-2.5,3.5-4.8,3.5h-4.3c-2.1,0-3.9-1.3-4.7-3.4l-7.1-21.7-6.6,21.5c-.6,1.9-2.5,3.5-4.8,3.5h-4.3c-2.1,0-3.9-1.3-4.7-3.4l-8-27c-2.1-7-5.3-6.4-5.3-8.6s.8-2,2.1-2h14.7c2.1,0,3,.9,3,2,0,2.2-2,1.6.2,8.6l5.5,18.8,7.9-25.7c.6-2.1,2.5-3.6,4.8-3.6h1.8c2.2,0,4.2,1.5,4.8,3.5l8.3,25.8,5.4-18.8c1.7-6.9,0-6.4,0-8.6s.9-2,2.9-2h4.3c1.3,0,2.1.9,2.1,2Z"/>
  <path class="st119" d="M438.8,65.3c-2.6,0-5.7.9-7.4,2.2v-18c0-1.4-1.1-2.5-2.5-2.5-4.3,0-6.1,4.8-11.6,4.8s-2.2.8-2.2,2c0,2.2,2.2,1.4,2.2,8.7v23.7c-2,3.2-5.1,8.2-9.5,11.6-2.9,2.2-6.4,3.8-10.6,3.8s-1.8,0-2.6-.3c-3.1-.7-5.5-2.7-7.2-5.3-7.3-10.9,26.3-3.4,22.6-17.7-1.9-7.1-10.9-12.9-20-12.9s-20.3,9.7-20.3,21.8,10.3,21.8,22.9,21.8.9,0,1.3,0c5.9-.3,10.6-2.7,14.3-5.7,4.2-3.5,7.2-7.8,9.1-10.9v4.8c0,7.2-2.1,6.4-2.1,8.6s.8,2,2.1,2c2.5,0,6.4-3.4,11.1-1.1,3,1.5,6.1,2.4,9.4,2.4,12.6,0,23-8.6,23-21.9s-10-21.7-21.9-21.7ZM384.7,89.8c-2.4-8-.7-20.5,5.3-20.5s10.9,12.5,2.8,15.6c-3.6,1.4-6.6,2.5-8.1,4.8ZM437.7,105c-3,0-6.3-1.8-6.3-7.3v-12.4c0-9.6-10.7,2.5-13.9,6.4,6.6-10.3,13.3-22.4,20.2-22.4s8.4,7.5,8.4,17.8-2.9,17.9-8.4,17.9Z"/>
  <path class="st119" d="M509.4,90.4c-.4,13.9-14.1,18.5-26.3,18.5s-19.6-5.3-19.6-14.2,3.1-7,7-7,7,3.2,7,7,.6,8.9,7.8,8.9,9.6-8.8,9.6-13.2-.9-13.8-11.9-13.8-3.4-2.3-2.2-4.1l12.1-14.3h-11.2c-6.8,0-9.1,4.4-10.9,8.9-.3.7-1.4,2-3.1,1.6-1.5-.4-2.3-1.8-2-3.3l4.2-15.5c.3-1.4,1.6-2.3,3-2.3h28.9c2.7,0,4.2,3.2,2.5,5.2l-15.8,18.8c12.5,1.2,21.4,7.8,21,18.7Z"/>
  <path class="st54" d="M299.8,145.8c-1.1-.8-2.1,0-2.5.3-3.3,3.7-7,4.6-10.1,4.8-10.7.9-15.3-9.9-15.4-19.2,0-5.3,1.3-10.1,3.9-12.1.5-.4,1.2-.7,1.8-.8.2,0,.5,0,.7,0,1,0,1.9.3,2.6.9,1.7,1.5,2.5,4.6,2.5,9.1s2.9,6.9,7,6.9,7-3.1,7-6.9c0-6.2-5.9-12.1-14.6-13.6-1.4-.2-2.8-.4-4.2-.4h-.2c0,0-.2,0-.3,0-11.9.2-20,9.8-20,21.8s1.4,8.7,3.9,12.1c4.1,5.8,11.1,9.7,19.1,9.7s17.2-6,19.4-10.4c.6-1.1,0-1.9-.5-2.2Z"/>
  <path class="st54" d="M323.2,114.8c9.1,0,18.1,5.7,20,12.9,3.8,14.3-29.9,6.8-22.6,17.7,2.5,3.7,6.2,6,11.6,5.6,6.6-.6,9.5-4.3,10.1-4.9,1.1-1.1,2.2-.5,2.5-.2.7.7.7,1.6.4,2.1-2.6,4.9-9.8,10.4-19.4,10.4s-22.9-9.7-22.9-21.8,8.1-21.8,20.3-21.8ZM317.9,139.2c1.5-2.4,4.5-3.4,8.1-4.8,8.1-3.2,3.6-15.6-2.8-15.6s-7.7,12.4-5.3,20.5Z"/>
  <path class="st54" d="M389.8,117.8c0,2.5-2.4,1.3-5.4,8.8l-11.4,31.7c-3.4,9.9-7.5,20.4-17.7,20.4s-13.9-5-13.9-10.4,2.5-5.6,5.7-5.6,3.4.8,4.6,2.3c1.1,1.5,1.2,3.3,1.3,4.1.2,2.7-.5,5.7,4.1,5.7s11.1-12.1,8.1-18l-15.1-30.3c-3.9-6.8-6.5-6.2-6.5-8.4s.9-2,2.2-2h15.3c2.1,0,3.2.7,3.2,2,0,2.2-1.6,1.6,1.6,8.6l8,17.7,6.3-17.7c2.5-7.5,1.2-6.4,1.2-8.6s1.2-2,2.5-2h3.9c1.3,0,2,.9,2,1.7Z"/>
  <path class="st54" d="M408.2,146.5v-39.3c-4.3,3-9,4.6-14.1,4.9h0v34.3c0,7.2-2.2,6.4-2.2,8.6s.9,2,2.2,2h14.2c1.2,0,2.1-.9,2.1-2,0-2.2-2.2-1.4-2.2-8.6Z"/>
  <path class="st54" d="M437.1,114.8c12.6,0,22.9,9.7,22.9,21.8s-10.3,21.8-22.9,21.8-23-9.7-23-21.8,10.3-21.8,23-21.8ZM429.2,138.7c2.5,9.5,8.1,16.2,12.5,15.1,4.3-1.1,5.8-9.8,3.3-19.3-2.5-9.5-8.1-16.2-12.6-15.1-4.3,1.1-5.7,9.8-3.2,19.3Z"/>
  <path class="st54" d="M508.6,155.1c0,1.1-.9,2-2.1,2h-14.2c-1.3,0-2.2-.9-2.2-2,0-2.2,2.2-1.4,2.2-8.6v-17.6c0-4.3-2.8-6.2-5.7-6.2s-6.6,2.4-6.6,6.2v17.6c0,7.2,2.2,6.4,2.2,8.6s-.9,2-2.2,2h-14.2c-1.2,0-2.1-.9-2.1-2,0-2.2,2.2-1.4,2.2-8.6v-15.1c0-7.2-2.2-6.4-2.2-8.6s.9-2,2.1-2c5.6,0,7.4-4.8,11.6-4.8s2.5,1.1,2.5,2.5v2.5c3.5-3.9,8.5-6.4,13.4-6.4,7.1,0,13,4.8,13,16.7v15c0,7.2,2.2,6.4,2.2,8.6Z"/>
</svg>