<svg width="544" height="350" viewBox="0 0 544 350" fill="none" xmlns="http://www.w3.org/2000/svg">
<g clip-path="url(#clip0_414_9)">
<path d="M301.795 327.214C315.502 326.163 329.249 326.189 342.956 327.214C345.495 326.467 348.067 326.47 350.606 327.214C364.808 326.25 379.022 326.25 393.225 327.214C413.485 326.133 433.796 326.095 454.056 327.214C458.806 329.256 468.475 328.695 472.843 330.687C473.437 331.059 471.254 331.823 470.241 331.814C421.786 331.37 373.733 331.84 326.084 333.218C321.141 333.677 312.504 334.523 309.084 338.288C306.37 343.354 304.778 345.02 299.121 346.367C297.045 346.861 294.939 347.195 292.823 347.487C282.128 348.967 270.894 349.198 260.265 349.221C259.959 349.521 259.474 349.775 258.808 349.98C186.986 350.014 115.154 349.942 43.3281 349.999C33.2308 349.551 20.1537 347.335 12.3949 340.102C9.42618 337.335 8.93361 333.063 9.08207 329.871C21.8932 329.776 37.6456 330.015 50.4495 329.867C52.7407 328.641 57.0754 328.262 59.3739 329.487C59.4067 329.188 59.5087 328.74 59.7091 328.728C64.2114 328.508 70.4075 328.372 74.8369 328.728C75.9516 328.493 76.6255 328.744 76.8586 329.487L77.354 328.721C78.7928 328.444 82.4027 328.064 83.2332 329.108C87.149 328.922 91.2579 328.546 95.2539 328.349C98.4995 326.96 103.22 326.474 106.546 327.59C107.996 326.44 110.16 326.482 111.646 327.59C112.374 327.578 113.103 327.597 113.831 327.59L182.592 326.508C182.272 326.402 184.185 327.358 184.498 327.21C191.008 326.861 197.524 326.527 204.045 326.508C230.111 326.429 256.189 326.413 282.256 326.474C288.772 326.489 295.285 326.85 301.791 327.21L301.795 327.214Z" fill="#1766D1"/>
<path d="M463.002 341.293C438.284 340.976 413.633 340.976 389.045 341.293L382.728 342.053C382.661 342.605 383.697 342.73 384.058 342.771C388.324 343.24 405.279 341.785 407.627 344.502C410.5 347.825 399.957 350.308 397.965 349.987C350.874 349.983 303.564 349.869 256.035 349.65L255.998 349.231C259.075 349.567 262.078 348.709 265.107 348.479C272.815 347.885 295.845 347.647 301.316 343.35C304.263 341.036 303.39 337.88 308.518 335.556C317.419 331.523 335.399 332.128 345.392 331.859C386.559 330.752 427.912 331.534 469.138 331.096C469.766 331.088 472.556 331.471 472.943 330.844C472.943 333.739 473.04 334.758 471.713 336.735C469.821 339.551 466.187 340.851 463.002 341.293Z" fill="#3797F3"/>
<path d="M356.918 268.995C357.786 267.855 360.984 269.093 362.22 269.721C363.882 270.566 365.091 271.573 365.948 273.303C367.725 271.618 370.56 271.311 372.912 271.497C374.066 262.025 385.781 256.233 390.794 265.89C401.693 260.216 415.138 270.202 409.952 282.486C421.219 279.53 432.63 288.082 427.466 300.279C431.914 300.392 436.874 302.274 438.095 307.074C440.072 305.946 442.046 306.131 444.101 306.472C444.454 311.961 442.042 316.882 437.424 319.722L436.177 319.661C418.859 310.928 401.003 303.614 381.715 300.858C373.583 299.018 365.644 296.239 357.846 293.241C357.471 293.097 357.13 292.851 356.785 292.59C356.44 292.329 356.113 292.022 355.805 291.704L355.189 291.061L355.768 285.848L356.547 285.273C355.49 284.958 355.642 284.701 356.547 284.137C355.624 279.295 355.701 273.768 356.918 268.995Z" fill="#00485F"/>
<path d="M381.756 243.264C390.415 241.971 397.769 248.448 397.732 257.263C399.296 256.673 400.507 255.647 402.182 255.178C410.863 252.738 420.921 258.368 419.614 268.394C419.413 269.93 418.47 271.28 418.161 272.775C421.17 271.859 423.778 272.688 426.136 274.678C426.782 275.223 427.889 276.948 428.034 276.959C428.558 277.001 430.43 275.964 431.377 275.836C433.543 275.54 437.187 275.669 439.218 276.483C446.599 279.437 447.579 292.641 440.552 296.531L437.476 296.985C441.581 298.328 443.884 302.145 444.158 306.447C443.063 307.688 442.09 306.719 440.73 306.897C440.143 306.973 437.677 308.187 437.473 307.964C437.09 302.838 430.775 300.586 426.329 301.15C426.534 300.121 427.224 299.523 427.555 298.43C429.074 293.356 427.187 287.791 422.808 284.874C418.269 281.851 413.526 282.725 408.5 283.743C412.151 277.3 410.472 270.842 404.381 266.945C399.619 263.899 395.087 264.72 390.303 267.1C390.095 264.675 387.165 262.159 384.88 261.837C378.309 260.906 374.324 266.354 373.581 272.397C371.612 271.859 368.983 272.336 367.133 273.202C366.501 273.497 366.223 274.477 365.42 274.284C364.239 270.437 360.283 269.691 356.87 268.991C355.83 265.673 355.804 262.091 356.87 258.776C360.191 253.786 365.469 252.753 370.238 256.506C370.81 251.717 373.165 247.063 377.552 244.846C378.324 244.456 381.043 243.374 381.76 243.268L381.756 243.264Z" fill="#006374"/>
<path d="M437.889 319.705C440.5 321.013 443.078 322.699 445.808 323.942C448.539 325.186 451.403 326.239 454.233 327.285C433.561 327.262 412.871 327.315 392.199 327.285C386.074 323.632 379.871 319.63 373.589 315.275C368.136 311.978 361.309 308.116 354.994 308.518L354.314 307.957L353.705 307.066C354.121 302.078 354.652 297.114 355.295 292.164L356.175 291.656C363.062 294.093 369.841 296.807 376.895 298.751C384.41 300.82 392.014 301.836 399.499 303.735C413.428 307.271 425.174 313.331 437.896 319.702L437.889 319.705Z" fill="#FE8500"/>
<path d="M361.718 143.026L362.017 144.063C361.18 145.572 360.174 146.976 358.966 148.205C359.655 148.345 359.999 148.739 360.071 149.45L355.9 162.986C359.727 159.241 364.076 155.79 369.296 154.262L370.421 154.754C384.287 151.595 399.629 158.9 405.053 172.16C405.383 172.969 406.015 174.328 405.818 175.179C403.736 173.749 401.382 172.341 399.069 171.331C396.525 170.219 393.618 169.803 391.358 168.823C388.909 167.756 386.107 165.078 383.401 164.287C383.037 164.181 382.432 163.981 382.538 164.586C384.374 165.354 386.289 166.777 387.455 168.369C384.578 168.116 381.633 167.703 378.749 167.616L377.102 168.335C370.069 168.388 363.172 169.16 356.415 170.643C358.55 170.151 360.704 169.901 362.88 169.886L363.418 170.643C364.356 169.425 367.983 170.718 369.41 171.305C376.829 174.35 383.147 178.803 385.562 186.91C386.588 190.228 387.659 193.368 388.591 196.746C389.121 201.77 389.238 206.885 388.401 211.879C385.078 205.769 381.13 200.166 376.67 194.851C375.883 193.909 374.191 192.74 373.669 191.798C372.805 190.243 372.291 185.287 371.738 183.131C371.628 182.696 371.761 181.905 371.178 181.992V189.18C370.515 189.346 370.421 188.908 370.038 188.616C364.148 184.107 361.877 179.666 354.143 176.317C353.489 177.256 351.543 176.079 351.115 175.183C350.839 175.273 350.509 175.319 350.362 175.126C349.953 174.592 346.467 162.819 346.72 162.199L347.33 161.563C345.49 152.59 349.964 143.333 356.036 136.973C359.825 133.009 364.746 129.872 369.66 127.516C370.008 127.89 365.454 135.195 364.924 136.209C363.762 138.426 362.865 140.832 361.714 143.026H361.718Z" fill="#FE9C00"/>
<path d="M110.207 145.549C110.385 146.177 110.555 146.756 110.725 147.289C109.499 151.806 108.397 156.308 107.425 160.791L106.043 161.06C106.3 162.251 105.331 162.69 104.529 161.816C103.685 163.402 100.94 164.726 99.2291 164.843C94.7283 166.837 91.1321 170.688 87.4944 173.922V167.491L84.6326 176.548C78.7311 181.401 74.0562 188.052 70.9218 195.002C70.6644 195.569 70.1913 198.433 69.7067 196.432C66.4778 183.089 71.9817 166.784 83.9701 159.622C85.6622 158.612 91.2192 156.142 92.9794 156.142H99.0361C99.2783 156.142 100.997 157.19 101.114 156.146C95.0917 153.936 88.6413 152.62 82.191 152.733C82.4598 151.311 83.1828 150.047 84.0799 148.958C83.5765 148.496 79.7343 152.048 78.8788 152.268C76.3842 152.907 71.3609 152.253 68.5635 152.737C68.5749 151.519 69.6802 150.694 70.4524 149.9C68.7339 149.586 67.6285 152.567 66.262 153.278C64.2898 154.303 60.5839 154.28 58.464 155.699L51.5254 159.543C57.813 137.548 88.4634 132.83 102.625 150.089L95.8109 129.471C95.7087 128.873 95.7428 128.866 96.3106 128.968C97.5938 129.199 98.9679 129.509 100.175 130.031C100.921 129.096 99.6909 129.331 98.9641 128.983C92.8507 126.059 93.604 123.993 90.4432 118.572C89.1827 116.412 87.6382 114.399 86.3512 112.262C99.5168 116.926 111.566 130.977 110.199 145.549H110.207Z" fill="#FE9B00"/>
<path d="M100.463 184.341C100.672 183.23 104.369 184.28 104.578 184.617C104.946 185.205 104.282 190.232 103.837 190.63C100.365 189.845 100.942 190.239 103.905 191.05C103.639 193.257 103.503 195.444 103.499 197.612C103.104 206.676 101.474 216.301 100.843 225.478C98.9437 253.091 98.788 281.59 100.843 309.247C100.969 310.93 101.193 313.129 101.599 314.748C102.367 318.777 103.081 322.818 103.734 326.875L103.119 328.016C99.1679 328.118 95.2244 328.592 91.3417 328.774C89.8486 314.649 89.4573 300.354 89.8068 286.112C89.8942 282.462 90.0462 278.629 90.2019 274.944C91.4936 244.683 95.3649 214.25 100.46 184.344L100.463 184.341Z" fill="#00489B"/>
<path d="M209.545 72.2836C210.222 71.3265 210.756 71.3303 211.437 72.2836C213.803 71.232 216.256 71.2509 218.63 72.2836C219.235 71.5422 219.913 71.5459 220.522 72.2836C222.937 71.3379 225.296 71.3454 227.715 72.2836C228.324 71.5459 228.998 71.5459 229.607 72.2836C231.882 71.7578 234.029 71.7578 236.043 72.2836C236.52 71.5459 237.08 71.5459 237.557 72.2836C239.184 71.5422 240.85 71.5384 242.478 72.2836C243.034 71.667 243.568 71.5422 243.992 72.2836L244.056 73.1084C240.464 74.8032 237.099 76.8498 233.953 79.2521L231.879 79.8536L234.055 79.097H263.407L263.865 79.8536C263.135 78.8549 266.038 76.2559 267.083 76.8271C265.516 81.609 262.26 80.3341 261.571 81.3441C261.424 81.5636 260.792 85.9633 260.769 86.561C260.758 86.8523 261.03 87.015 261.03 87.0415C261.03 87.1663 261.03 87.2949 261.03 87.4198C260.682 88.2937 258.161 88.5017 258.002 87.4198C256.45 87.8586 254.871 88.1272 253.266 88.2294L223.157 88.1461L222.048 138.045L221.279 138.491C221.586 138.979 221.404 139.15 220.901 138.87L220.507 139.592L216.605 139.214C214.753 139.558 211.733 139.986 210.298 138.866C211.328 121.354 211.941 103.797 212.948 86.2811C213.05 84.503 213.3 82.7628 213.33 80.9848C208.22 81.2004 204.938 77.3341 205.756 72.2836C207.012 72.2685 208.284 72.3063 209.545 72.2836Z" fill="#FF8F41"/>
<path d="M49.7987 329.962C46.0837 327.133 41.9354 323.479 41.1328 318.605L62.2325 320.499V315.951L43.7627 314.243C48.5252 297.395 55.311 281.142 63.9242 265.961L64.4894 320.877L86.7194 322.771C86.3275 325.175 84.7375 327.091 83.7051 329.204C81.6894 329.295 78.8786 329.583 77.1115 329.583H59.0261C56.1286 329.583 52.8318 329.928 49.795 329.962H49.7987Z" fill="#FE5A00"/>
<path d="M123.456 130.416C130.572 125.929 137.727 125.577 145.915 126.697C147.595 126.928 150.65 127.393 152.123 128.059C152.634 128.289 152.721 128.097 152.6 128.899C148.273 130.276 144.011 131.933 139.854 133.756C137.795 134.66 134.721 136.847 132.851 137.35C130.489 137.986 127.427 137.743 124.97 138.746C124.89 139.45 125.765 139.06 126.181 139.011C127.601 138.856 129.228 138.122 130.644 138.549C126.128 141.965 121.298 145.007 117.21 148.956C117.036 149.123 115.885 149.936 116.642 150.091L116.559 151.071C113.735 153.171 111.138 155.724 109.506 158.861L114.696 158.482L115.503 159.171L123.327 161.755C139.048 169.756 141.304 189.477 135.183 204.568C134.21 204.723 134.596 204.473 134.396 204.034C133.627 202.366 133.252 199.828 132.545 197.94C129.637 190.158 125.261 185.838 124.947 177.152C124.902 175.858 125.136 174.791 125.341 173.55C124.796 173.46 124.845 174.186 124.686 174.587C124.095 176.089 123.671 177.67 123.263 179.221C119.958 174.038 114.14 163.843 108.31 161.441C107.837 162.326 106.187 162.069 106.039 161.062C107.546 159.916 106.675 160.113 106.955 158.8C107.826 154.711 109.843 149.384 110.203 145.552L110.578 146.494C112.512 140.112 117.85 133.953 123.452 130.419L123.456 130.416Z" fill="#FEAE21"/>
<path d="M66.0781 274.861L83.8733 317.796L66.0781 316.097V274.861Z" fill="#FE5A00"/>
<path d="M242.1 21.2108C242.933 21.3546 246.242 23.0116 247.135 23.5563C250.75 25.7505 253.65 29.2877 254.971 33.3167L254.619 34.0733H227.795L226.86 33.6496C225.426 31.3836 231.002 21.5551 234.151 21.2108L234.515 20.4353C236.884 20.2726 239.25 20.2575 241.62 20.3899L242.1 21.2108Z" fill="#0E58C6"/>
<path d="M234.15 21.2123C230.83 24.6473 227.772 28.3586 227.336 33.3144H254.97C256.791 33.2539 257.854 35.1605 256.491 36.5527C255.977 37.0786 255.609 36.9386 255.348 37.0975C254.924 37.1883 254.606 37.3585 254.546 37.8541H243.784L243.235 37.0975C239.344 38.1416 235.388 38.1605 231.5 37.0975C227.461 37.2072 223.471 37.3888 219.531 37.646L219.008 37.0975C217.721 36.984 216.056 36.5225 216.51 34.8201C216.983 33.0458 218.528 33.583 218.936 33.2463C219.118 33.095 220.314 29.7318 220.825 28.892C222.911 25.4721 227.491 21.8403 231.496 21.2085C231.508 19.9979 233.995 20.1039 234.146 21.2085L234.15 21.2123Z" fill="#003D84"/>
<path d="M245.885 72.2836C248.175 71.3454 250.408 71.3379 252.699 72.2836C253.308 71.5459 253.986 71.5422 254.591 72.2836C256.965 71.2509 259.414 71.232 261.784 72.2836C262.465 71.3303 262.995 71.3265 263.676 72.2836C265.062 72.3063 266.459 72.2685 267.84 72.2836C267.931 73.8725 267.572 75.3328 267.083 76.8234L263.866 79.8498H231.879L237.44 75.7603L243.992 72.2836C244.602 71.5459 245.275 71.5459 245.885 72.2836Z" fill="#FEAF20"/>
<path d="M40.72 225.498C43.048 224.326 46.2088 224.231 47.9085 226.448C47.4164 226.894 44.7855 227.201 44.5697 227.458C44.4032 227.655 44.4827 228.638 44.2215 229.183C42.7906 232.13 38.7894 231.672 36.45 232.391C35.4696 232.694 34.8677 234.426 33.6981 234.593C32.3126 234.79 30.0489 233.25 29.4168 232.073C27.2401 228.014 33.4406 230.5 33.91 230.042C34.1902 225.983 33.3914 222.131 31.635 218.496C31.5479 218.182 32.5132 218.466 32.3921 218.129C32.112 217.334 31.0293 215.677 30.8817 214.717L32.0135 214.531C31.6691 213.207 30.9498 212.235 31.2603 210.748C35.5491 214.811 40.7389 219.003 40.7238 225.502L40.72 225.498Z" fill="#1C7BE4"/>
<path d="M243.235 57.1504C246.278 56.216 249.277 56.2046 252.32 57.1504C253.058 56.4089 253.853 56.4089 254.591 57.1504C258.112 57.1693 262.825 56.7494 266.156 57.1315C266.599 57.1844 267.299 57.2185 267.458 57.7216C268.117 59.8137 263.945 58.7696 263.672 59.0419C263.207 59.511 264.028 70.5804 263.672 72.2865C263.04 72.2752 262.412 72.2903 261.78 72.2865C261.484 72.2071 261.045 72.0785 261.023 71.8439C260.75 69.1314 260.674 62.2159 261.023 59.598L261.78 59.0457C261.742 59.337 261.666 59.7569 261.447 59.8023C260.936 59.9045 255.613 59.912 255.117 59.8023L254.584 59.0457C254.879 59.1252 255.314 59.25 255.341 59.4883C255.636 62.2122 255.666 69.0482 255.341 71.7342L254.584 72.2865C253.952 72.2865 253.323 72.2865 252.691 72.2865C252.392 72.2146 251.945 72.0974 251.923 71.8666C251.676 69.5665 251.226 61.5426 251.574 59.6207L252.316 59.0457L251.892 59.8023C250.893 60.0596 246.286 60.1125 245.881 59.0457C246.176 59.1252 246.612 59.25 246.638 59.4883C246.933 62.2122 246.964 69.0482 246.638 71.7342L245.881 72.2865C245.249 72.2865 244.62 72.2865 243.988 72.2865L243.246 71.8439C244.053 67.8679 243.924 63.0482 243.231 59.0457C242.796 59.1176 242.474 59.2462 242.398 59.7683L238.31 59.9083C238.234 63.8729 238.253 67.849 238.371 71.8363L237.557 72.2865C237.053 72.2865 236.546 72.2865 236.043 72.2865C235.744 72.2071 235.301 72.0747 235.286 71.8439C235.066 68.1857 235.07 63.2601 235.286 59.598L236.043 59.0457L231.924 58.8603C231.144 57.8616 233.821 57.2979 234.529 57.1542C237.421 56.4051 240.343 56.4051 243.235 57.1542V57.1504Z" fill="#0544A9"/>
<path d="M218.631 57.1503C218.703 56.8136 218.827 56.825 219.009 57.1503C223.143 56.0948 227.364 56.1175 231.501 57.1503C231.573 56.8136 231.698 56.825 231.88 57.1503C232.75 56.8628 233.647 56.8741 234.529 57.1503L232.262 58.6598L236.044 59.0419C235.033 60.1843 232.921 60.1314 231.88 59.0419C231.588 59.5639 231.085 59.8817 230.362 59.9914V71.352L229.608 71.9044C229.938 72.0103 229.934 72.1389 229.608 72.2827C228.976 72.2827 228.348 72.2827 227.716 72.2827C227.42 72.2032 227.004 72.0897 226.959 71.84C226.557 69.6723 226.754 62.0532 226.959 59.5942L227.716 59.0419C227.678 59.3332 227.602 59.7531 227.382 59.7985C226.871 59.9006 221.549 59.9082 221.053 59.7985L220.52 59.0419C220.815 59.1213 221.258 59.2499 221.277 59.4845C221.481 61.951 221.678 69.5626 221.277 71.7303L220.52 72.2827C219.887 72.2827 219.259 72.2827 218.627 72.2827C218.332 72.2032 217.889 72.0746 217.87 71.84C217.643 69.2562 217.48 61.9586 217.87 59.5942L218.627 59.0419C218.589 59.3294 218.528 59.7266 218.298 59.7985C217.574 60.0292 212.195 60.0595 212.002 59.0419C212.123 63.0708 212.207 67.1906 212.252 71.4012L211.435 72.2827C210.802 72.2864 210.174 72.2713 209.542 72.2827C209.182 70.6143 210.015 59.5034 209.542 59.0419C209.353 58.8565 205.904 59.6623 206.514 57.7216C206.673 57.2184 207.373 57.1844 207.816 57.1314C210.931 56.772 215.326 57.1692 218.623 57.1503H218.631Z" fill="#03387D"/>
<path d="M242.1 21.2124C240.32 20.9098 236.141 21.1178 234.15 21.2124C233.31 21.254 232.276 21.0914 231.5 21.2124C230.653 18.9804 233.276 18.6664 233.401 18.3032C234.226 15.9274 232.545 15.1595 232.716 13.1847C232.988 10.075 235.29 9.76858 235.604 8.85307C236.058 7.53277 235.729 2.84174 236.043 0.969116C236.285 -0.460892 237.406 -0.28687 237.576 1.32851C237.792 3.38651 237.595 6.55295 238.015 8.45585C238.469 10.5214 241.157 10.6236 240.57 14.5655C240.43 15.4962 239.666 15.9993 239.885 17.1456C240.158 18.5529 242.399 19.4155 242.1 21.2086V21.2124Z" fill="#FE9801"/>
<path d="M418.881 222.093C420.297 220.92 421.486 219.626 423.397 219.233C431.842 217.493 425.615 225.297 421.531 225.88C421.928 226.629 422.811 226.039 423.64 226.981C425.786 229.425 421.289 229.027 419.706 228.641C416.228 227.794 415.531 224.771 413.408 222.445C412.809 221.79 411.519 221.76 412.249 220.962C415.596 222.581 412.204 215.961 414.191 215.306C416.247 214.629 419.472 220.065 418.885 222.089L418.881 222.093Z" fill="#FE5001"/>
<path d="M338.362 47.0038C335.784 49.0315 333.683 50.2913 331.772 53.087C330.916 54.3392 327.786 60.2786 328.895 61.3757C329.096 61.5762 330.496 60.9558 330.409 61.7465C329.149 61.5006 328.259 62.8625 327.392 63.1122C326.306 63.4224 324.296 61.2131 323.099 60.5472C320.151 58.9054 316.365 58.1034 313 57.9634L315.869 56.8625C318.992 56.5145 321.203 57.0365 323.974 58.3455C325.393 52.3833 332.385 47.3783 338.362 47V47.0038Z" fill="#3EA7FD"/>
<path d="M150.493 61.6945C150.133 62.3414 149.198 62.2166 148.411 62.8219C148.081 63.0753 147.161 63.9114 147.468 64.3351C151.946 64.9101 156.549 66.6768 157.685 71.5268C152.711 69.238 147.601 66.4877 142.168 69.2569C142.369 65.7273 140.768 62.5117 137.97 60.4007L134.598 58.668C137.437 58.6605 140.613 59.3112 143.191 60.4763C143.887 60.7903 144.493 61.7361 145.155 61.8874C145.935 62.0652 148.956 60.6125 150.493 61.6907V61.6945Z" fill="#3DA6FC"/>
<path d="M255.348 37.1013C254.148 37.8315 254.984 37.8088 254.992 39.1593C255.011 45.1404 255.227 51.2312 254.591 57.1517C253.834 57.1479 253.077 57.1517 252.32 57.1517L251.805 57.0912C251.608 51.4808 251.479 45.7722 251.407 39.9613C248.746 40.8201 246.312 42.3674 244.109 44.6032L243.231 44.2854C242.939 44.2476 242.504 44.1643 242.474 43.9525C242.394 43.3888 242.345 37.9185 242.474 37.6272C242.602 37.3359 242.932 37.2072 243.231 37.0938H255.344L255.348 37.1013Z" fill="#BEE7FD"/>
<path d="M231.501 37.1009C231.831 37.2068 231.827 37.3354 231.501 37.4792L230.706 38.0012C227.216 37.5132 223.173 37.4073 219.766 37.8575C223.2 37.4829 226.951 37.5775 230.366 37.8575L230.207 39.0718L224.195 44.9545C220.932 48.6771 219.066 51.6166 219.778 56.5875L219.009 57.1474C218.884 57.1474 218.756 57.1474 218.631 57.1474L219.009 37.0971C222.852 37.4413 227.538 37.0706 231.501 37.0971V37.1009Z" fill="#3792EB"/>
<path d="M256.145 349.292C256.297 349.309 256.694 349.647 257.4 349.661C303.506 350.691 349.787 349.099 395.915 349.63C396.543 349.637 397.567 349.409 397.953 349.981C350.195 349.995 302.418 349.96 254.66 349.981C254.879 349.32 255.469 349.223 256.145 349.292Z" fill="#087FF1"/>
<path d="M462.994 341.259C438.398 340.921 413.74 341.711 389.148 341.259C388.948 341.259 387.211 341.476 387.849 340.891C412.215 341.09 436.595 340.634 460.956 340.888C461.583 340.895 462.608 340.652 462.994 341.263V341.259Z" fill="#0177F2"/>
<path d="M141.787 269.005C143.52 266.569 145.496 270.564 145.228 272.671L145.133 279.367C145.977 279.477 146.628 279.806 147.09 280.354C147.34 280.362 147.597 280.366 147.847 280.354C149.119 280.729 149.99 280.562 150.463 279.847C151.932 279.741 153.332 279.548 154.665 279.268V269.546L155.422 269.001C156.913 268.963 162.905 268.714 163.659 269.47C164.938 270.749 163.488 278.417 164.128 280.35C167.001 281.046 169.416 280.816 171.366 279.658C176.298 280.4 178.051 279.299 176.624 276.355C177.233 274.286 176.938 272.482 176.571 270.393C176.389 269.41 177.29 268.948 179.27 269.001C180.137 269.035 181.234 268.842 182.033 269.077C184.41 269.78 182.938 278.13 183.415 280.116C183.528 280.596 184.024 280.256 184.187 280.354L185.557 280.63C186.118 281.134 185.201 287.78 184.974 288.904L184.191 289.434C184.157 289.729 184.062 290.164 183.843 290.19C179.527 290.678 171.317 290.493 166.854 290.19L166.399 289.434C167.274 289.763 167.187 291.654 166.399 292.082C166.38 291.904 166.377 291.73 166.43 291.579C166.702 290.769 181.443 291.242 183.369 291.325L183.812 292.082C184.096 292.157 184.513 292.339 184.478 292.521C184.028 295.036 182.226 302.64 181.249 304.706L180.405 304.94C180.106 306.189 175.628 306.091 175.106 304.94C175.749 305.103 176.045 305.75 175.999 306.877C177.714 306.669 178.887 307.036 179.508 307.975C177.858 311.603 175.416 316.252 170.582 315.143L170.601 316.305C171.536 316.475 171.661 316.971 171.646 317.814C171.619 319.6 158.787 327.93 155.8 327.257C145.587 327.56 135.355 327.469 125.138 327.257C124.839 327.227 124.385 327.117 124.381 326.909C124.298 323.557 123.795 300.999 124.695 299.996C125.494 299.111 129.885 299.152 131.089 299.595C131.199 298.365 131.611 297.624 132.331 297.371L131.998 298.127H125.668L125.135 297.371C123.866 297.159 123.647 292.679 124.756 292.074C124.756 291.779 124.828 291.329 125.01 291.318C128.992 291.11 135.336 290.924 139.182 291.318C140.212 291.098 140.829 291.352 141.033 292.074C140.004 291.93 140.098 290.19 140.465 289.426C140.465 289.721 140.394 290.171 140.208 290.183C137.555 290.342 127.164 290.678 125.207 290.183L124.756 289.426C124.461 289.347 124.029 289.226 123.999 288.991C123.885 288.125 123.836 281.898 123.999 281.273L124.756 280.729C126.781 280.649 128.799 280.521 130.813 280.35L131.252 279.586C132.596 279.734 133.909 279.685 135.2 279.431L135.45 269.425C136.408 269.3 137.388 269.16 138.384 269.001C139.322 268.903 140.844 268.914 141.79 269.001L141.787 269.005Z" fill="#FE9800"/>
<path d="M218.252 231.93C221.137 231.514 224.04 231.268 226.951 231.189C241.616 231.737 255.667 231.783 269.106 231.317L269.73 231.926C269.965 233.394 269.711 234.529 268.973 235.331C268.867 235.66 268.738 235.656 268.595 235.331C267.319 235.952 264.938 235.989 263.674 235.331C252.454 235.641 241.147 235.751 229.745 235.668L229.302 236.371C225.592 236.235 222.026 236.36 218.612 236.754L217.499 314.7L216.734 315.158H198.564C198.644 314.47 199.276 314.091 200.465 314.016C200.771 298.876 201.4 283.872 202.35 269.004C203.55 269.216 203.024 268.403 203.096 267.684C203.841 260.129 204.239 251.856 204.617 244.221C204.708 242.405 205.329 233.179 205 232.308C204.769 232.062 204.579 231.593 204.773 231.484C207.07 230.148 215.353 231.469 218.249 231.93H218.252Z" fill="#FF8F41"/>
<path d="M202.354 269.003C203.644 269.461 202.743 271.829 202.732 272.601C202.554 284.351 201.706 296.06 201.199 307.765C201.101 310.08 201.21 312.475 201.218 314.775L198.568 315.157H195.54L194.809 316.008C189.131 316.912 185.175 321.588 183.267 326.763L182.291 327.263C173.467 327.592 164.613 327.626 155.793 327.263L163.103 323.786C164.367 323.052 170.586 318.562 170.935 317.612C171.283 316.663 169.905 317.347 169.776 316.844C169.621 316.239 169.928 315.119 169.799 314.4C171.635 314.215 173.471 315.002 174.928 313.663C175.617 313.027 178.888 308.521 178.888 307.784L175.099 307.595V304.943H180.402L183.809 292.08H166.396C166.104 292.08 166.104 289.432 166.396 289.432H184.187C184.191 287.646 185.402 282.097 184.857 280.806C184.842 280.769 184.312 280.428 184.187 280.353H189.108V270.706C189.108 270.214 190.187 269.136 190.819 269.011C191.709 268.837 201.812 268.81 202.357 269.003H202.354Z" fill="#FE7B00"/>
<path d="M220.901 144.541C221.515 144.348 222.132 144.17 222.756 144.045C223.381 143.921 223.998 143.803 224.615 143.796C234.601 143.66 244.594 143.58 254.584 143.607C257.434 143.614 260.357 143.705 263.075 143.815C263.809 143.815 264.097 144.136 264.055 144.923C263.938 145.736 264.134 146.724 264.055 147.571C263.983 148.498 262.98 148.619 262.211 148.665C259.914 148.793 257.559 148.914 255.216 148.926C247.785 148.956 240.351 148.858 232.924 148.71C232.5 148.702 232.072 148.581 231.641 148.453C231.209 148.324 230.781 148.143 230.365 147.95C227.374 148.759 224.308 148.941 221.25 148.445C221.378 171.662 220.727 195.439 219.296 219.772L218.63 225.877C215.306 226.664 211.843 226.91 208.235 226.615C207.153 226.944 205.268 227.118 205.919 225.7C205.835 224.962 205.896 223.933 206.138 223.233C205.498 208.014 208.001 190.986 208.409 175.566C207.342 174.295 207.357 172.301 208.409 171.026L209.924 144.545L210.582 143.868C213.804 144.004 217.033 143.977 220.265 143.788L220.901 144.541Z" fill="#FF8F41"/>
<path d="M139.136 223.228C140.146 212.03 149.564 204.392 160.709 205.073C160.943 206.046 160.398 205.735 160.001 206.057C157.771 207.862 155.678 209.363 153.702 211.497C152.191 213.131 150.261 216.593 148.989 217.766C148.474 218.242 147.759 218.208 147.558 218.405C147.077 218.882 147.414 220.425 147.18 221.212C146.733 222.71 145.192 224.81 144.431 226.251C146.192 225.483 147.482 224.125 149.36 223.425C160.152 219.385 172.814 227.787 173.681 239.212C173.715 239.655 174.431 239.961 173.397 239.87C169.843 237.15 165.834 234.79 161.469 233.628C158.241 232.769 156.14 233.738 154.463 230.038L155.031 232.304L146.328 231.555L150.87 234.006C156.488 238.826 158.32 246.842 157.635 254.015C157.567 254.711 157.279 256.19 157.018 256.803C156.283 258.532 155.848 255.551 155.477 254.749C154.247 252.074 152.525 249.366 151.427 246.684C150.885 245.356 151.858 245.458 150.117 245.011L142.539 234.578L141.645 234.139C141.365 232.713 140.888 232.645 139.889 233.821C136.213 237.827 132.822 242.367 130.8 247.44C130.247 247.565 130.191 247.38 129.876 247.047C129.161 246.29 129.29 244.913 128.54 244.418C128.218 246.32 129.498 248.443 129.286 250.243C129.153 251.375 127.276 254.636 126.731 256.043C125.959 258.04 125.402 260.159 124.743 262.194C124.21 262.187 123.998 261.12 123.816 260.67C120.012 251.28 120.451 239.197 130.312 233.897L134.211 231.933C131.686 232.342 129.153 232.387 126.629 232.864C124.289 233.307 121.719 234.581 119.641 234.964C118.395 235.191 119.959 233.882 119.262 233.447C118.13 235.667 116.677 235.713 115.026 236.779C112.165 238.629 109.45 240.566 106.963 242.904C106.244 229.228 119.588 219.782 132.322 225.124C134.135 224.182 136.864 226.924 138.208 228.336C138.435 228.347 138.541 224.397 138.454 223.86L139.136 223.232V223.228Z" fill="#055EC2"/>
<path d="M119.831 269.004C120.031 270.291 116.976 270.828 116.802 269.383C117.097 269.462 117.54 269.591 117.559 269.818C117.646 270.869 117.828 278.859 117.559 279.245C117.366 279.517 117.139 279.71 116.802 279.79C117.624 279.23 117.783 279.465 117.37 280.357C117.275 279.294 122.503 279.4 123.23 279.601C123.661 279.718 123.9 279.858 123.995 280.357C122.015 279.499 124.407 277.285 124.752 280.357C125.857 280.77 129.37 280.055 130.808 280.357C130.748 280.361 130.384 280.721 129.892 280.751C128.193 280.853 126.451 280.649 124.752 280.736V289.437H140.461C141.131 289.437 141.093 291.551 141.029 292.085H124.752L125.13 297.381H132.322C131.804 301.736 131.266 299.992 128.348 299.995C127.254 299.995 126.232 300.381 125.149 300.427L125.13 327.268C119.971 327.589 114.754 327.479 109.58 327.309L108.853 326.889C107.755 314.973 109.125 300.256 109.25 288.132C109.307 282.34 109.129 276.57 108.936 270.794C109.072 270.366 109.273 269.874 109.591 269.557C110.84 268.308 117.726 269.36 119.834 269.012L119.831 269.004Z" fill="#FE7200"/>
<path d="M116.642 150.088C124.342 144.928 134.771 145.431 143.133 148.771C153.13 152.762 159.198 163.378 159.414 173.921C157.339 172.147 155.515 170.13 153.323 168.474C151.941 167.429 148.141 165.526 147.421 164.724C145.922 163.06 144.995 158.679 142.194 157.276L144.276 162.946C142.217 162.152 140.259 161.229 138.132 160.578C136.542 160.094 133.756 159.905 132.564 159.334C131.689 158.914 129.327 155.637 128.752 154.627C128.048 154.54 128.472 155.388 128.544 155.777C128.756 156.909 129.134 158.074 129.513 159.16C124.728 158.573 120.269 158.827 115.507 159.16C113.315 159.315 111.013 159.825 108.693 159.538C108.027 158.846 110.911 155.335 111.528 154.616C112.887 153.035 114.916 151.238 116.642 150.08V150.088Z" fill="#FE9B00"/>
<path d="M208.409 171.023C208.474 172.513 208.447 174.072 208.409 175.563H169.041C169.488 174.371 170.203 173.686 171.293 173.085C173.046 172.124 176.146 172.101 176.994 171.594C177.354 171.378 177.778 170.085 178.304 169.498C181.616 165.821 186.62 163.899 191.367 165.919C192.355 166.339 194.066 167.883 194.263 167.924C194.611 167.993 197.628 166.945 198.741 166.85C200.926 166.661 203.284 166.824 205.381 167.429C208.19 168.242 208.288 168.269 208.409 171.023Z" fill="#7DCDFF"/>
<path d="M139.136 223.229C139.492 225.306 138.878 228.227 139.132 230.413L136.289 227.398C135.142 226.6 133.59 225.65 132.322 225.121L131.338 223.267C127.848 219.586 124.259 215.152 120.409 211.868C118.619 210.344 116.101 208.327 113.773 208.093C113.773 207.722 114.11 207.533 114.436 207.435C120.069 205.706 128.779 208.558 132.909 212.618C134.658 214.339 138.746 220.937 139.136 223.229Z" fill="#1C75DD"/>
<path d="M142.543 234.577C143.69 238.966 144.197 245.643 144.768 250.322C145.976 260.257 146.892 270.358 147.085 280.353C146.207 280.322 145.314 280.375 144.432 280.353C144.11 278.09 145.226 270.706 143.515 269.344C142.914 268.867 142.41 269.056 141.782 269C141.698 265.152 141.638 261.282 141.418 257.446C140.987 249.846 139.741 241.323 139.889 233.817C139.9 233.314 139.874 232.803 139.889 232.304C142.062 231.986 142.066 232.765 142.539 234.573L142.543 234.577Z" fill="#013E86"/>
<path d="M108.315 161.438L103.394 197.756C103.394 197.688 102.958 197.166 102.977 196.466C103 195.58 103.674 192.024 103.375 191.718C103.227 191.57 100.267 191.786 100.744 190.004C101.592 188.782 102.682 190.269 103.768 190.186C103.477 188.778 104.529 186.777 104.173 185.499C104.086 185.181 101.671 184.784 101.13 184.685C100.373 184.545 100.816 184.908 100.744 185.453L100.365 184.511C101.652 176.953 102.735 169.296 104.529 161.813C105.055 161.529 105.309 161.616 106.043 161.056C106.778 161.041 107.645 161.158 108.315 161.434V161.438Z" fill="#01387C"/>
<path d="M218.63 225.877C219.709 227.726 219.554 230.227 218.252 231.929C214.535 231.929 210.802 231.884 207.081 231.922C206.441 231.929 205.397 231.68 205.003 232.308C204.749 231.634 202.849 231.4 203.08 228.71C203.284 226.342 205.158 226.588 205.582 225.884C206.044 225.12 205.363 223.819 206.139 223.225C206.169 223.981 205.855 226.009 206.691 226.157C206.873 226.187 207.683 225.861 208.198 225.854C211.669 225.808 215.159 225.869 218.63 225.873V225.877Z" fill="#FE8E00"/>
<path d="M124.752 280.353C124.177 280.137 124.586 279.214 124.184 279.214C123.772 279.274 124.09 280.353 123.995 280.353H117.371C117.329 280.353 116.803 279.827 116.803 279.785V269.382C117.859 269.771 119.195 269.053 119.831 269.003C121.33 268.886 124.158 268.625 124.673 270.407C125.373 272.839 124.321 277.633 124.752 280.353Z" fill="#FE9700"/>
<path d="M179.263 269.005C179.02 269.697 177.533 269.232 177.37 269.383C177.048 269.686 177.767 272.913 177.786 273.734C177.805 274.721 177.393 275.53 177.37 276.382C177.344 277.449 178.419 279.064 177.215 280.013C176.348 280.698 173.229 280.271 171.885 280.358C171.139 280.407 170.431 280.721 169.625 280.747C168.671 280.778 164.326 280.971 164.121 280.354C165.666 280.059 168.917 280.763 170.178 280.354C170.325 278.981 170.454 277.592 170.556 276.193C170.579 274.751 170.17 270.068 171.086 269.345C171.843 268.751 177.813 268.948 179.263 269.005Z" fill="#FE7300"/>
<path d="M220.901 138.866C221.87 139.668 222.241 144.034 220.901 144.541C217.763 144.522 212.762 144.991 209.923 144.541C207.433 144.143 207.255 139.751 210.302 138.866C211.899 138.401 214.655 139.165 216.529 138.469L220.901 138.866Z" fill="#FE9000"/>
<path d="M155.415 269.005V280.358C152.943 279.885 150.107 281.19 147.844 280.358C148.597 280.328 149.362 280.384 150.119 280.358C150.52 279.972 149.502 271.161 150.463 269.637C151.061 268.687 154.26 269.035 155.415 269.005Z" fill="#FE7100"/>
<path d="M138.379 269.003C137.94 269.049 136.952 269.748 136.104 269.381L135.941 280.001C135.472 280.674 131.906 280.284 130.808 280.356C131.232 279.933 130.146 271.118 131.213 269.601C132.087 268.36 136.755 269.291 138.379 269.007V269.003Z" fill="#FE7000"/>
<path d="M190.239 125.251C187.184 127.99 184.387 131.107 184.179 135.462C180.889 132.942 177.24 130.007 172.83 130.922C172.652 129.897 173.019 130.268 173.651 130.063C174.386 129.825 175.711 129.522 176.468 129.458C178.319 129.299 181.253 130.082 182.403 129.795C182.691 129.723 183.467 128.036 183.997 127.517C185.511 126.038 188.1 124.911 190.239 125.247V125.251Z" fill="#39A4FC"/>
<path d="M125.131 327.263C135.344 327.271 145.579 327.229 155.792 327.263C164.62 327.293 173.463 327.229 182.29 327.263C182.252 327.377 182.317 327.524 182.29 327.641H108.853C108.838 327.392 108.876 327.134 108.853 326.885C114.16 327.577 119.74 327.259 125.131 327.263Z" fill="#9D7A68"/>
<path d="M170.176 280.353C170.354 279.04 169.734 277.217 170.555 276.191C170.54 277.096 170.847 280.133 170.176 280.353Z" fill="#FE9800"/>
<path d="M264.055 147.566C264.937 172.172 267.287 196.739 268.218 221.337C269.347 221.934 269.415 224.984 268.597 225.876C255.11 226.909 241.581 226.928 228.093 225.876C227.828 225.35 227.575 224.821 227.378 224.269C227.181 223.716 226.992 223.183 226.923 222.627C223.941 198.313 225.371 173.738 229.342 149.882L230.364 147.945C240.558 147.911 251.521 148.489 261.609 147.96C262.449 147.914 263.226 147.638 264.055 147.566Z" fill="#FCD99C"/>
<path d="M269.354 240.252C273.651 238.039 278.257 235.735 283.296 237.589C283.807 223.614 299.857 219.517 303.858 233.662C312.091 231.025 321.006 236.571 319.602 245.727C328.528 246.737 334.403 253.603 332.09 262.709C334.789 260.662 337.794 258.907 341.095 258.048C343.34 257.462 347.243 256.648 348.84 258.411C351.922 258.937 353.379 259.966 356.032 261.438V261.816L356.487 263.193C356.313 270.869 355.658 278.356 354.53 285.653C354.374 286.168 353.867 286.293 353.008 286.024C351.577 286.644 349.541 285.907 348.844 284.511C347.201 285.51 346.535 284.522 346.834 281.549C347.19 277.69 347.167 273.865 346.77 270.078C344.763 269.655 342.715 269.545 340.622 269.749L340.134 269L339.99 269.503C337.616 269.454 335.273 269.696 332.964 270.23C332.412 273.264 332.302 276.411 332.631 279.68L331.806 280.349C329.807 281.598 324.905 282.006 325.015 278.734C325.094 275.836 325.041 272.953 324.852 270.093C323.111 269.666 321.324 269.549 319.492 269.742L318.935 269L318.776 269.503C315.093 269.159 313.447 270.075 313.837 272.257L314.09 279.808L313.254 280.349C311.611 281.492 309.256 281.454 307.575 280.349C307.28 280.274 306.894 280.168 306.818 279.911C306.637 279.298 306.712 272.231 306.818 271.255L307.575 270.703C305.471 269.53 303.256 269.556 300.853 269.742L300.383 269L300.031 269.643C296.215 269.076 294.531 269.991 294.974 272.39L295.152 279.744L294.327 280.349C292.597 281.397 290.764 281.378 289.027 280.349C288.732 280.27 288.319 280.156 288.27 279.911C288.054 278.795 288.107 272.492 288.27 271.255L289.027 270.703C287.505 269.991 286.086 269.556 284.25 269.757L283.727 269L283.205 269.742C280.355 269.522 277.538 269.628 274.752 270.056C274.165 273.196 274.022 276.491 274.324 279.941C274.082 281.076 273.132 281.59 272.75 280.349C271.803 281.197 271.236 281.382 270.883 279.967C270.077 268.694 269.331 257.25 268.866 245.874C268.828 244.943 268.9 244.005 268.979 243.067C269.059 242.129 269.195 241.187 269.343 240.252H269.354Z" fill="#00485F"/>
<path d="M268.219 221.337C271.656 218.64 276.047 217.164 279.95 219.824C280.639 213.43 287.937 207.2 294.194 206.632C306.08 205.554 313.038 217.191 309.105 227.768C321.339 220.27 335.652 229.698 330.682 244.036C342.049 236.882 356.759 244.788 348.848 258.411C341.924 257.227 335.811 260.378 330.682 264.843C332.506 259.52 332.408 254.231 328.176 250.13C325.386 247.421 322.297 247.259 318.724 246.321C320.749 236.973 311.141 231.147 303.044 234.956C303.858 229.944 297.567 225.116 293.055 225.54C287.38 226.073 283.659 233.594 284.114 238.739C280.154 236.904 276.622 237.695 272.765 239.314C271.531 239.833 269.933 241.856 269.35 240.252C268.169 239.783 267.848 237.113 268.972 236.469C268.529 236.148 268.722 235.785 268.972 235.334C268.991 234.105 268.506 232.456 269.729 231.93C270.691 230.061 271.959 227.473 268.9 226.633L268.593 225.877C268.158 224.345 268.272 222.884 268.215 221.337H268.219Z" fill="#006474"/>
<path d="M341.276 165.726L342.193 165.393C343.79 165.794 350.509 174.177 350.403 175.172C350.369 175.49 350.244 175.743 349.983 175.94C350.32 176.042 350.312 176.167 349.983 176.318C348.688 176.723 347.454 178.161 346.565 179.144C341.946 184.255 338.017 190.853 335.212 197.121L334.44 196.195L332.566 190.312V199.959C332.566 203.303 328.963 208.732 328.395 212.435L325.756 221.708C319.745 208.206 318.882 189.582 331.253 179.352C334.868 176.364 337.446 175.618 341.837 174.419C342.355 174.279 343.018 174.442 343.165 173.67C337.446 173.443 331.771 173.92 326.131 174.797C326.949 173.844 328.561 172.97 328.213 171.4C324.556 175.754 319.291 176.674 314.582 179.341L315.343 176.318C311.811 181.172 306.277 183.801 302.468 188.42C301.287 182.693 304.089 175.195 307.95 170.821C315.555 162.203 331.397 160.274 341.273 165.726H341.276Z" fill="#FE9B00"/>
<path d="M261.026 87.4149C261.337 104.231 263.316 121.092 263.672 137.923C263.782 138.933 265.103 139.031 265.595 139.78C266.47 141.105 266.068 144.32 264.054 144.536L263.649 143.715C266.454 139.909 262.832 138.267 252.782 138.793L233.321 139.228L232.253 138.483C231.977 138.377 231.568 138.169 231.606 137.965C231.879 136.561 234.403 126.714 234.869 126.332C238.764 126.184 242.671 126.139 246.589 126.192L247.016 125.624C246.025 124.255 245.71 122.465 246.066 120.256C246.483 115.308 246.505 110.39 246.142 105.502C245.495 104.363 245.283 103.38 245.502 102.547L245.139 101.798C248.951 97.1791 252.766 92.5599 256.582 87.937L257.998 87.4112C259.02 87.3922 260.027 87.0934 261.026 87.4112V87.4149Z" fill="#FCD99C"/>
<path d="M347.333 161.565L351.119 175.184C351.421 176.19 350.857 176.587 349.983 175.94C349.699 174.983 346.095 170.062 345.255 169.127C344.153 167.905 342.715 166.521 341.277 165.726C342.03 165.567 340.883 164.765 340.709 164.591C337.802 161.693 335.307 158.398 331.771 156.121L326.892 152.864H334.084L323.023 150.488C317.546 147.828 312.155 144.877 306.072 143.78C306.235 143.081 307.015 143.009 307.579 142.831C324.636 137.535 340.705 145.297 347.333 161.565Z" fill="#FEAE22"/>
<path d="M232.259 138.488C240.696 138.439 254.017 137.441 261.876 138.587C264.166 138.92 266.282 140.009 265.404 142.673C265.154 143.429 264.226 143.963 264.056 144.541C264.026 144.647 264.075 144.791 264.056 144.92C263.424 144.488 262.712 144.553 261.993 144.526C248.468 144.053 234.488 144.628 220.902 144.541C221.118 142.828 220.599 140.467 220.902 138.867C220.955 138.583 220.997 138.541 221.281 138.488L221.648 137.664C225.006 137.494 228.371 137.516 231.74 137.728L232.262 138.485L232.259 138.488Z" fill="#FEC64E"/>
<path d="M353.768 196.368C353.912 195.358 353.882 194.333 353.67 193.292C355.214 192.623 357.319 191.93 357.554 194.098C359.53 204.888 360.885 214.538 361.718 225.498C361.752 226.932 360.245 227.17 359.825 225.876L359.787 225.085C358.655 225.169 357.573 225.218 356.539 225.233L356.255 215.075L356.043 215.283L353.772 196.368H353.768Z" fill="#01489C"/>
<path d="M354.147 176.318C355.32 182.246 356.464 188.151 357.554 194.098L357.175 193.338C356.691 193.398 354.272 193.625 354.166 193.735C353.905 194.004 354.578 195.948 353.768 196.368C352.602 189.718 351.739 182.84 349.983 176.318C349.953 176.201 350.017 176.057 349.983 175.939C350.32 175.8 350.838 175.221 351.119 175.183C352.141 175.043 353.238 175.924 354.147 176.318Z" fill="#013B7E"/>
<path d="M356.04 215.285C356.052 214.804 355.73 213.374 356.415 213.397L356.801 224.742C357.819 224.474 360.454 223.838 360.958 224.939C361.306 225.699 360.057 225.442 359.826 225.877C359.394 226.411 358.781 226.706 357.986 226.77C357.744 226.982 357.426 232.585 358.656 232.838C358.073 235.69 361.915 235.21 361.658 232.547L362.479 232.308C362.46 233.19 362.506 234.075 362.479 234.957L362.445 237.317C360.908 237.113 359.398 237.162 357.907 237.469L357.941 245.008L357.18 245.549C357.619 246.37 357.653 248.038 357.623 249.094C357.581 250.63 357.176 261.253 356.654 261.608C356.483 261.726 356.271 261.779 356.044 261.816C356.048 261.692 356.04 261.563 356.044 261.438C356.071 260.557 356.04 259.671 356.044 258.79L356.423 255.007C356.487 243.378 356.4 232.002 356.029 220.407C355.976 218.72 355.999 216.968 356.044 215.285H356.04Z" fill="#032C7B"/>
<path d="M356.041 258.789C356.048 257.601 355.727 255.876 356.419 255.006C356.412 256.194 356.734 257.919 356.041 258.789Z" fill="#00489B"/>
<path d="M283.739 269.004C284.965 269.042 289.038 268.66 289.038 270.707V280.354C290.798 280.342 292.578 280.372 294.338 280.354L294.459 279.85C298.063 280.225 299.713 279.43 299.414 277.467L299.236 270.54C299.3 269.655 299.361 269.08 300.394 269.008C301.965 268.993 307.587 268.346 307.587 270.71V280.357C309.472 280.327 311.38 280.395 313.265 280.357L313.783 279.604C317.274 280.251 318.784 279.415 318.318 277.104L318.114 269.538L318.939 269.012C320.366 268.993 324.515 268.69 325.386 269.568C326.514 270.71 325.011 278.341 326.188 280.308C328.054 280.433 329.943 280.338 331.813 280.361L332.158 279.612C334.486 279.763 336.799 279.703 339.093 279.442C339.483 276.192 339.558 272.889 339.312 269.534L340.137 269.012C341.542 269.016 346.728 268.641 347.36 269.644C348.526 271.486 347.216 281.526 347.693 284.311C347.803 284.784 348.537 284.424 348.844 284.526C349.378 285.12 349.063 285.408 348.492 285.767C348.598 292.346 348.492 300.237 347.708 307.225C348.901 308.42 348.469 312.048 347.33 313.278C347.64 315.915 347.629 318.582 347.33 321.222C347.065 322.425 347.091 323.666 347.133 324.892C348.079 325.1 348.075 327.165 346.951 327.275C332.699 327.298 318.428 327.264 304.176 327.275L303.154 326.867C300.44 321.442 295.473 317.019 289.375 316.017L288.656 315.169H283.735C283.44 315.169 282.989 315.097 282.978 314.916C282.868 312.888 282.607 302.25 282.978 301.1C283.099 300.729 283.239 300.548 283.735 300.419C283.814 300.124 283.935 299.696 284.174 299.662C285.442 299.488 291.677 299.451 292.835 299.662L293.388 300.419C292.979 299.617 293.486 297.722 294.334 297.393C294.3 297.688 294.201 298.134 293.993 298.149C292.903 298.236 284.689 298.425 284.291 298.149C284.015 297.96 283.818 297.729 283.739 297.393L282.982 297.044V273.063L283.739 272.613C282.259 272.492 281.929 268.951 283.739 269.019V269.004Z" fill="#FE9800"/>
<path d="M195.581 315.104H288.604C295.407 315.735 301.453 321.27 304.108 327.499C263.571 327.53 222.909 327.658 182.346 327.499C184.335 321.371 188.861 315.739 195.581 315.104Z" fill="#004593"/>
<path d="M359.06 307.914C360.836 307.196 362.548 307.674 364.332 308.1C376.791 311.06 385.623 320.014 396.701 325.968C397.458 326.375 397.62 326.12 397.443 327.295C382.774 327.272 368.083 327.272 353.415 327.295C352.17 326.713 353.758 323.627 354.92 323.874L354.713 322.324C356.26 318.053 357.257 313.603 358.078 309.141L359.06 307.918V307.914Z" fill="#FE6B00"/>
<path d="M102.607 335.604C102.607 336.266 101.357 336.353 100.917 336.392C83.6034 337.906 65.9209 337.058 48.611 336.372C45.0165 336.23 41.407 336.628 37.8652 335.797L102.607 335.604Z" fill="#3699F2"/>
<path d="M142.996 340.872L139.417 341.649C124.204 342.097 108.794 342.698 93.6973 341.064C96.3652 340.322 99.0971 340.636 101.806 340.491C102.815 340.436 103.714 340.102 104.783 340.062C117.517 339.622 130.337 340.212 142.992 340.872H142.996Z" fill="#379CF5"/>
<path d="M347.335 321.211C347.528 321.517 347.709 321.828 347.842 322.157C348.073 322.728 348.19 322.94 348.436 323.326C348.538 323.485 351.699 322.754 352.146 322.649C354.084 321.616 356.881 320.553 356.42 323.859C355.95 325.002 355.121 326.008 354.905 327.264C352.259 327.268 349.602 327.26 346.956 327.264C347.168 325.338 346.479 322.921 347.335 321.211Z" fill="#003B80"/>
<path d="M182.29 327.641H108.854C133.319 327.338 157.822 327.868 182.29 327.641Z" fill="#0056FD"/>
<path d="M363.232 285.271C363.107 287.412 362.891 290.09 362.475 291.702C361.43 295.746 361.423 303.202 360.582 307.969C359.677 313.107 358.394 319.042 356.418 323.858C355.286 321.013 354.155 322.886 352.341 323.378C351.069 323.722 348.972 323.85 347.984 324.251C347.507 324.444 347.939 325.137 347.337 324.993C347.322 323.737 347.345 322.47 347.333 321.214C347.311 318.573 347.329 315.91 347.333 313.269C348.306 313.606 348.704 314.582 348.526 316.19L348.465 318.982C351.902 308.049 354.264 296.835 355.555 285.342C355.786 284.957 356.108 284.783 356.513 284.62C357.221 284.332 362.358 284.941 363.236 285.278L363.232 285.271Z" fill="#00489C"/>
<path d="M362.855 250.089C362.866 252.261 362.953 253.048 363.233 251.603C363.933 253.751 363.608 256.498 363.612 258.79C363.615 262.188 363.653 265.608 363.612 269.005C363.547 274.033 363.494 279.117 363.233 284.137C363.366 285.185 356.874 284.845 356.563 284.671C356.094 284.41 355.768 284.201 355.666 283.623C356.222 272.296 356.824 260.985 357.468 249.681C357.665 249.465 362.836 249.049 362.851 250.089H362.855Z" fill="#00489B"/>
<path d="M357.176 245.549C358.369 244.505 358.891 245.39 358.743 248.208C359.898 248.31 361.056 248.208 362.218 247.906L362.858 248.575C363.138 249.078 363.134 249.597 362.858 250.088H357.933L356.415 283.917L363.237 284.136C363.218 284.515 363.259 284.897 363.237 285.271C361.783 286.414 356.934 284.56 356.207 285.623C354.746 296.424 353.058 307.951 349.499 318.263C349.106 319.406 348.651 321.195 347.72 321.967C347.478 319.156 348.209 315.956 347.338 313.266C347.342 311.185 347.694 309.04 347.716 307.213L347.698 306.339C350.344 300.048 352.081 293.53 352.914 286.781C353.455 286.784 353.489 286.535 353.016 286.028C354.799 285.105 353.936 283.591 354.155 282.059C355.109 275.352 355.821 268.592 356.044 261.816C357.392 258.245 356.665 254.064 356.786 250.262C356.832 248.772 357.127 247.202 357.18 245.549H357.176Z" fill="#003B80"/>
<path d="M363.232 246.306C363.088 247.093 362.963 247.85 362.853 248.576C361.744 248.705 359.178 249.408 358.288 248.788C357.289 248.092 358.826 245.383 357.175 245.55C357.217 244.222 356.967 237.321 357.228 236.902C357.592 236.323 361.642 236.247 362.471 236.849C362.494 236.221 362.456 235.585 362.471 234.957L363.228 246.306H363.232Z" fill="#00489C"/>
<path d="M362.475 232.307C362.449 232.856 361.692 234.324 362.097 235.334C361.419 235.224 358.076 235.481 357.929 235.334C357.8 235.205 358.058 233.518 357.921 232.943C357.849 232.64 357.236 232.845 357.141 232.141C356.895 230.257 357.384 227.832 357.168 225.872C358.05 225.861 358.94 225.891 359.822 225.872C360.431 225.861 361.396 226.099 361.714 225.494C361.877 227.639 362.574 230.03 362.471 232.304L362.475 232.307Z" fill="#01499E"/>
<path d="M363.232 251.601C363.224 253.67 363.315 255.778 363.232 257.847C363.213 258.308 363.516 259.254 362.857 259.163C362.857 256.144 362.838 253.107 362.854 250.088C362.854 249.585 362.846 249.078 362.854 248.575C362.865 247.86 362.596 246.717 363.232 246.305C363.228 248.068 363.24 249.838 363.232 251.601Z" fill="#032C7B"/>
<path d="M257.998 87.4162L245.506 102.549L244.514 102.526C240.059 97.7403 232.253 99.6469 230.478 105.938L229.603 106.142C229.902 106.177 230.353 106.282 230.36 106.494C230.576 111.496 230.826 118.88 230.36 123.726C230.584 124.778 230.33 125.414 229.603 125.625L229.634 125.122C235.179 124.823 240.827 124.74 246.573 124.869L247.016 125.625C247.031 125.754 247.645 126.193 247.391 126.76L235.319 126.802L232.253 138.492C229.304 138.511 223.827 138.011 221.275 138.492L222.407 87.4162C234.259 87.2687 246.146 87.6205 257.994 87.4162H257.998Z" fill="#FFBC57"/>
<path d="M220.523 72.2838V59.043H227.716V72.2838C225.323 72.2876 222.916 72.2762 220.523 72.2838Z" fill="#42AEFD"/>
<path d="M211.438 72.2838C211.779 68.5158 210.988 64.0215 211.42 60.3481C211.465 59.966 211.594 59.043 212.006 59.043H218.631V72.2838C216.238 72.2951 213.831 72.2649 211.438 72.2838Z" fill="#FDFDFD"/>
<path d="M243.235 59.0434C243.545 59.6714 243.261 60.2123 243.091 59.6373C243.03 59.4368 243.375 59.3233 243.545 59.5541C243.912 60.0459 243.829 71.2136 243.522 71.8415L242.478 72.2804C240.842 72.2804 239.192 72.2804 237.557 72.2804C237.943 70.2224 236.974 60.4658 237.723 59.3952C238.125 58.8164 242.213 58.9904 243.235 59.0396V59.0434Z" fill="#8DCFFC"/>
<path d="M236.042 59.0433V72.2841C233.903 72.2841 231.746 72.2841 229.607 72.2841V71.9058C229.508 71.2287 229.963 70.979 230.966 71.1454C230.5 67.4834 230.633 63.776 231.004 60.1102L231.874 59.0433C233.256 58.9941 234.657 59.0774 236.038 59.0433H236.042Z" fill="#86CBFC"/>
<path d="M243.235 59.0435C243.484 59.0548 243.742 59.0246 243.992 59.0435V72.2881C243.488 72.2881 242.985 72.2881 242.477 72.2881C242.281 71.4218 243.174 71.7509 243.265 70.9867C243.549 68.5655 243.481 62.8455 243.265 60.3449C243.185 59.4294 241.58 60.0006 243.231 59.0473L243.235 59.0435Z" fill="#DEF5FD"/>
<path d="M243.236 37.1016V44.2894C244.243 44.4105 244.197 44.7585 243.236 45.046L242.675 46.5744C239.984 49.6803 237.698 53.0511 235.816 56.6942L231.879 57.1519C231.755 57.1519 231.626 57.1519 231.501 57.1519L230.956 56.5429C230.82 50.6753 230.797 44.7585 230.891 38.7888L231.501 37.4799V37.1016C235.407 37.128 239.329 37.1016 243.236 37.1016Z" fill="#81C9FE"/>
<path d="M254.592 72.2838V59.043H261.784V72.2838C259.392 72.2649 256.984 72.2951 254.592 72.2838Z" fill="#FEFEFE"/>
<path d="M245.885 72.2838V59.043H252.32L252.699 72.2838C250.431 72.2762 248.152 72.2876 245.885 72.2838Z" fill="#C6EAFE"/>
<path d="M243.236 44.288C244.962 43.2477 249.8 38.1367 251.889 39.423C252.828 40.0018 252.067 54.9374 252.321 57.1505C249.296 57.1392 246.261 57.1581 243.236 57.1505C242.941 57.1165 242.494 57.0219 242.479 56.8101C242.346 55.1493 242.169 47.6777 242.479 46.4709L243.236 45.0409V44.2842V44.288Z" fill="#FEFEFE"/>
<path d="M243.235 57.1507C240.339 57.1431 237.425 57.1469 234.529 57.1507C233.647 57.1507 232.761 57.1507 231.879 57.1507C232.715 56.2692 234.143 57.249 235.1 56.3978C235.369 56.1595 238.03 51.2642 238.761 50.2201C240.01 48.4344 241.562 46.3991 243.231 45.041V57.1469L243.235 57.1507Z" fill="#C0E7FE"/>
<path d="M231.5 37.48C232.379 43.8621 231.004 50.6035 231.5 57.1521C227.344 57.1634 223.165 57.1294 219.009 57.1521C219.099 54.572 218.573 52.4837 219.697 50.0852C221.976 45.2202 226.647 41.5582 230.365 37.8583H219.766C219.682 37.1925 220.621 37.4989 221.087 37.48C224.547 37.3362 228.041 37.5859 231.5 37.48Z" fill="#42ADFE"/>
<path d="M231.879 59.0434C231.428 63.1859 231.133 67.8013 231.879 71.9021H229.607V59.0396C230.361 59.0207 231.125 59.0699 231.882 59.0396L231.879 59.0434Z" fill="#48B2FD"/>
<path d="M263.677 235.334C263.855 236.257 267.777 236.026 268.598 235.334H268.977C268.973 235.712 268.965 236.091 268.977 236.469L268.712 237.226H230.627L234.344 250.103L233.769 250.845L233.667 251.756C228.59 254.821 228.087 259.996 228.219 265.561L228.545 282.449C228.624 283.13 228.405 283.531 227.712 283.758C228.337 283.977 228.431 284.476 228.004 285.263L245.613 285.346L247.775 286.027L249.168 287.314C253.812 296.889 260.191 307.16 268.708 313.201C270.146 313.171 273.474 313.262 272.001 315.157H216.734L217.866 235.709L263.673 235.334H263.677Z" fill="#FFBC57"/>
<path d="M228.094 225.878C241.589 225.893 255.103 225.866 268.598 225.878C272.02 225.715 272.713 230.959 269.734 231.931C267.693 232.597 263.851 232.366 261.576 232.328C247.135 232.086 232.777 231.927 218.252 231.931C218.449 229.903 218.577 227.921 218.63 225.878C221.776 225.136 224.948 225.133 228.094 225.878Z" fill="#FEC44E"/>
<path d="M198.567 315.159C204.598 314.977 210.7 315.185 216.737 315.159C235.146 315.079 253.596 315.037 272.004 315.159C272.742 314.421 273.541 314.417 274.276 315.159C277.118 314.001 280.923 313.925 283.739 315.159C285.337 315.196 287.108 315.019 288.66 315.159H195.539C196.501 315.072 197.576 315.189 198.567 315.159Z" fill="#0026BC"/>
<path d="M268.597 235.334C268.809 236.48 268.018 236.06 267.291 236.09C254.833 236.582 242.269 235.72 229.8 236.09C229.187 235.553 230.22 235.72 230.55 235.708C241.145 235.39 251.812 236.102 262.4 235.735C263.078 235.712 263.604 235.334 263.679 235.33C265.307 235.247 266.969 235.387 268.601 235.33L268.597 235.334Z" fill="#FEAE21"/>
<path d="M230.366 147.946C229.741 153.061 228.658 158.141 228.098 163.271C227.209 171.412 226.482 180.806 226.187 188.977C225.744 201.348 226.489 213.654 228.094 225.877C224.945 225.877 221.78 225.877 218.631 225.877C219.153 205.464 219.865 185.137 220.539 164.796C220.724 159.185 220.516 153.545 220.898 147.942C224.048 147.938 227.212 147.953 230.366 147.942V147.946Z" fill="#FFBC57"/>
<path d="M229.608 202.422C229.229 197.868 229.119 188.535 229.608 184.071C230.645 174.53 243.81 172.823 247.323 181.884C248.02 188.41 246.665 196.037 247.403 202.422C247.448 202.77 247.354 202.986 247.055 202.99H230.066L229.611 202.422H229.608Z" fill="#FDC851"/>
<path d="M247.399 202.422C247.414 202.551 248.027 202.989 247.773 203.557L229.827 203.564C229.395 203.504 229.634 202.77 229.603 202.422H247.395H247.399Z" fill="#FD8301"/>
<path d="M268.976 236.469C269.017 237.857 269.29 239.015 269.354 240.252C270.013 253.269 270.592 266.435 271.625 279.426C271.716 280.587 271.436 280.402 272.761 280.353C273.071 280.818 273.06 281.393 272.731 282.078C272.708 292.417 273.639 303.395 274.817 313.829L274.275 315.153C273.518 315.146 272.761 315.157 272.004 315.153C271.777 313.269 269.07 314.48 267.632 313.659C266.118 312.8 261.64 307.829 260.281 306.252C255.182 300.32 250.844 293.226 247.777 286.023C248.546 285.403 248.807 284.839 248.569 284.332L249.292 283.754L248.803 283.016C249 276.649 249.189 270.244 249.371 263.809C250.359 254.904 243.015 248.631 234.631 251.298L233.771 250.841L229.607 236.469H268.976Z" fill="#FCD99C"/>
<path d="M283.739 269.003C282.743 270.18 283.739 271.807 283.739 272.597V297.376H294.338C294.584 298.012 293.974 300.403 293.391 300.403H283.739V315.157C280.593 315.081 277.421 315.18 274.275 315.157C273.957 313.379 273.669 311.468 273.522 309.668C272.897 302.136 272.242 293.748 271.989 286.231C271.936 284.654 271.531 281.071 272.761 280.353C272.924 280.258 273.42 280.595 273.533 280.114C274.082 277.837 272.496 270.725 274.434 269.351C275.327 268.72 282.084 268.95 283.735 269L283.739 269.003Z" fill="#FE7100"/>
<path d="M340.141 269.004C339.709 271.126 340.891 278.692 339.585 279.986C338.922 280.641 333.229 280.372 331.813 280.353C332.203 277.94 331.045 271.505 332.385 269.764C333.388 268.467 338.385 268.996 340.141 269.004Z" fill="#FE7400"/>
<path d="M353.012 286.029C353.16 286.089 353.508 285.93 353.735 286.048C353.122 293.262 351.066 300.813 347.712 307.214C347.712 307.146 347.3 306.832 347.315 305.917C347.409 299.099 348.064 292.282 347.682 285.439L348.848 284.516C350.23 284.958 351.668 285.48 353.012 286.029Z" fill="#FD7600"/>
<path d="M318.943 269.005C318.538 271.059 319.564 278.239 318.758 279.601C318.099 280.713 314.545 280.327 313.265 280.354C313.735 278.201 312.504 271.15 313.473 269.784C314.382 268.505 317.361 269.027 318.943 269.005Z" fill="#FE7300"/>
<path d="M300.395 269.003C299.18 271.47 300.838 277.523 299.827 279.596C299.244 280.795 295.644 280.337 294.338 280.353C294.735 278.071 293.653 271.266 294.686 269.635C295.3 268.667 299.149 269.018 300.395 269.003Z" fill="#FD7300"/>
<path d="M245.506 102.548C246.335 103.66 246.869 104.727 247.02 106.142C247.683 112.221 246.32 119.587 247.02 125.625H229.607V106.142C229.607 105.998 230.535 103.831 230.728 103.479C233.771 98.0386 241.804 97.5771 245.506 102.548Z" fill="#FDC751"/>
<path d="M249.292 283.758L248.944 284.514H228.166L227.715 283.758C228.276 276.895 226.284 261.536 228.662 256.141C229.43 254.397 232.057 251.632 233.772 250.845C239.889 248.042 248.539 251.741 249.64 258.63C250.958 266.893 249.455 275.609 249.292 283.758Z" fill="#FCBD46"/>
<path d="M249.293 283.758C249.251 285.865 251.133 285.869 247.779 286.028C240.999 286.349 234.121 285.786 227.337 286.028C226.959 285.211 227.686 284.155 227.716 283.758H249.293Z" fill="#FE6F00"/>
<path d="M244.372 199.018H233.016V184.074C233.016 183.783 234.204 181.407 234.526 181.044C236.657 178.634 240.696 178.725 242.854 181.052C243.202 181.426 244.372 183.352 244.372 183.696V199.018Z" fill="#004595"/>
<path d="M243.993 122.219H233.016V106.141C233.016 105.933 234.564 103.792 234.923 103.508C237.46 101.515 241.294 102.162 243.028 104.832C243.221 105.131 243.99 106.739 243.99 106.898V122.219H243.993Z" fill="#004595"/>
<path d="M246.641 280.353H231.121V258.979C231.121 258.479 232.567 256.077 233.018 255.578C236.084 252.15 241.626 252.199 244.571 255.755C245.188 256.501 246.645 259.3 246.645 260.113V280.353H246.641Z" fill="#004593"/>
</g>
<path d="M404.571 32.6242C404.571 34.8358 401.62 34.3444 399.406 40.8156C399.406 40.8156 391.617 67.274 391.453 68.0931C390.879 70.0591 388.993 71.6154 386.697 71.6154H382.352C380.302 71.6154 378.416 70.3048 377.679 68.2569L370.627 46.5496L363.986 68.0931C363.412 69.9771 361.527 71.6154 359.231 71.6154H354.885C352.836 71.6154 350.95 70.3048 350.212 68.2569L342.259 41.2252C340.209 34.2624 336.93 34.8358 336.93 32.6242C336.93 31.5593 337.75 30.6582 339.061 30.6582H353.738C355.869 30.6582 356.689 31.5593 356.689 32.6242C356.689 34.8358 354.721 34.2624 356.853 41.2252L362.346 59.9836L370.217 34.2624C370.791 32.1327 372.759 30.6582 374.973 30.6582H376.777C378.99 30.6582 380.958 32.1327 381.532 34.1805L389.813 59.9836L395.224 41.2252C396.946 34.3444 395.306 34.8358 395.306 32.6242C395.306 31.5593 396.208 30.6582 398.176 30.6582H402.439C403.751 30.6582 404.571 31.5593 404.571 32.6242Z" fill="white"/>
<path d="M472.783 29.3488C470.16 29.3488 467.044 30.2499 465.404 31.5605V13.5393C465.404 12.1468 464.256 11 462.862 11C458.599 11 456.795 15.751 451.302 15.751C449.99 15.751 449.088 16.5702 449.088 17.717C449.088 19.9287 451.302 19.1095 451.302 26.3999V50.0732C449.269 53.2924 446.247 58.2523 441.816 61.6682C438.921 63.9003 435.429 65.4731 431.218 65.4731C430.308 65.4731 429.448 65.3748 428.64 65.1905C425.52 64.486 423.155 62.5037 421.462 59.9029C414.165 49.0083 447.776 56.4625 444.005 42.2094C442.119 35.0828 433.1 29.3488 424.003 29.3488C411.869 29.3488 403.752 39.0967 403.752 51.1381C403.752 63.1795 414.001 72.9273 426.627 72.9273C427.074 72.9273 427.513 72.915 427.943 72.8905C433.83 72.5792 438.511 70.1873 442.201 67.1442C446.428 63.6505 449.355 59.3009 451.302 56.2168V61.0497C451.302 68.2582 449.17 67.4391 449.17 69.6507C449.17 70.7156 449.99 71.6167 451.302 71.6167C453.762 71.6167 457.697 68.2582 462.37 70.5518C465.404 72.0263 468.438 72.9273 471.717 72.9273C484.344 72.9273 494.674 64.3263 494.674 51.0562C494.674 37.786 484.672 29.3488 472.783 29.3488ZM418.674 53.7593C416.296 45.7317 418.018 33.2807 424.003 33.2807C430.399 33.2807 434.908 45.7317 426.791 48.9264C423.184 50.3189 420.15 51.3838 418.674 53.7593ZM471.717 68.9954C468.766 68.9954 465.404 67.1933 465.404 61.705V49.336C465.404 39.752 454.663 51.7934 451.548 55.7253C458.189 45.4041 464.83 33.2807 471.717 33.2807C477.539 33.2807 480.08 40.8169 480.08 51.0562C480.08 61.2955 477.211 68.9954 471.717 68.9954Z" fill="white"/>
<path d="M543.383 54.4137C542.973 68.3392 529.281 72.9264 517.146 72.9264C508.865 72.9264 497.551 67.602 497.551 58.7552C497.551 54.9052 500.666 51.7925 504.52 51.7925C508.373 51.7925 511.489 54.9872 511.489 58.7552C511.489 63.3424 512.063 67.6839 519.278 67.6839C527.149 67.6839 528.871 58.8371 528.871 54.4957C528.871 50.4819 527.969 40.734 516.982 40.734C514.851 40.734 513.539 38.4404 514.769 36.6383L526.821 22.3033H515.589C508.783 22.3033 506.488 26.7267 504.684 31.232C504.356 31.9692 503.29 33.1979 501.568 32.7883C500.092 32.3788 499.273 30.9862 499.601 29.5118L503.782 14.0299C504.11 12.6374 505.422 11.7363 506.816 11.7363H535.676C538.382 11.7363 539.857 14.931 538.136 16.9789L522.394 35.7373C534.856 36.966 543.793 43.5191 543.383 54.4137Z" fill="white"/>
<path d="M334.307 111.978C332.175 116.401 325.042 122.381 314.957 122.381C302.249 122.381 292 112.633 292 100.592C292 88.5506 300.199 78.8027 312.251 78.8027C323.32 78.8027 331.273 85.6016 331.273 92.8101C331.273 96.5782 328.157 99.6909 324.304 99.6909C320.204 99.6909 317.335 96.4963 317.335 92.8101C317.335 86.257 315.695 82.7346 312.251 82.7346C302.495 82.9804 302.741 116.483 321.27 114.927C324.386 114.681 328.075 113.78 331.355 110.094C331.765 109.684 332.667 108.947 333.815 109.766C334.307 110.094 334.881 110.913 334.307 111.978Z" fill="#F57C00"/>
<path d="M357.263 78.8027C366.364 78.8027 375.383 84.5368 377.269 91.6633C381.04 105.916 347.424 98.4622 354.721 109.357C357.181 113.043 360.953 115.337 366.282 114.927C372.923 114.354 375.793 110.667 376.367 110.012C377.433 108.865 378.58 109.521 378.908 109.848C379.646 110.586 379.564 111.487 379.318 111.978C376.695 116.893 369.562 122.381 359.887 122.381C347.26 122.381 337.012 112.633 337.012 100.592C337.012 88.5506 345.129 78.8027 357.263 78.8027ZM351.934 103.213C353.41 100.838 356.443 99.7728 360.051 98.3803C368.168 95.1856 363.658 82.7346 357.263 82.7346C351.278 82.7346 349.556 95.1856 351.934 103.213Z" fill="#F57C00"/>
<path d="M423.839 81.8335C423.839 84.2909 421.461 83.1441 418.427 90.6802L407.031 122.381C403.669 132.293 399.488 142.778 389.321 142.778C381.122 142.778 375.383 137.781 375.383 132.375C375.383 129.262 377.925 126.805 381.04 126.805C382.926 126.805 384.484 127.624 385.632 129.098C386.697 130.573 386.861 132.375 386.943 133.194C387.189 135.897 386.451 138.846 391.043 138.846C397.192 138.846 402.111 126.723 399.16 120.825L384.074 90.5164C380.138 83.7175 377.597 84.2909 377.597 82.0792C377.597 81.0143 378.498 80.1133 379.81 80.1133H395.142C397.192 80.1133 398.34 80.7686 398.34 82.0792C398.34 84.2909 396.782 83.7175 399.898 90.6802L407.933 108.374L414.246 90.6802C416.706 83.1441 415.476 84.2909 415.476 82.0792C415.476 80.5228 416.706 80.1133 418.017 80.1133H421.871C423.183 80.1133 423.839 81.0143 423.839 81.8335Z" fill="#F57C00"/>
<path d="M442.205 110.505V71.2559C437.9 74.2498 433.178 75.8963 428.123 76.1625H428.102V110.505C428.102 117.714 425.889 116.895 425.889 119.106C425.889 120.171 426.791 121.072 428.102 121.072H442.287C443.516 121.072 444.418 120.171 444.418 119.106C444.418 116.895 442.205 117.714 442.205 110.505Z" fill="#F57C00"/>
<path d="M471.068 78.8027C483.695 78.8027 493.944 88.5506 493.944 100.592C493.944 112.633 483.695 122.381 471.068 122.381C458.442 122.381 448.111 112.633 448.111 100.592C448.111 88.5506 458.36 78.8027 471.068 78.8027ZM463.197 102.722C465.739 112.224 471.314 118.941 475.66 117.794C480.005 116.647 481.481 107.964 478.939 98.4622C476.398 88.9601 470.822 82.2431 466.395 83.3899C462.05 84.5368 460.656 93.2197 463.197 102.722Z" fill="#F57C00"/>
<path d="M542.565 119.105C542.565 120.17 541.663 121.071 540.433 121.071H526.249C524.937 121.071 524.035 120.17 524.035 119.105C524.035 116.893 526.249 117.712 526.249 110.504V92.892C526.249 88.5506 523.462 86.6665 520.592 86.6665C517.394 86.6665 513.951 89.0421 513.951 92.892V110.504C513.951 117.712 516.164 116.893 516.164 119.105C516.164 120.17 515.263 121.071 513.951 121.071H499.767C498.537 121.071 497.635 120.17 497.635 119.105C497.635 116.893 499.848 117.712 499.848 110.504V95.4314C499.848 88.2229 497.635 89.042 497.635 86.8304C497.635 85.6836 498.537 84.8644 499.767 84.8644C505.342 84.8644 507.146 80.1134 511.409 80.1134C512.803 80.1134 513.951 81.2602 513.951 82.6527V85.1921C517.476 81.2602 522.478 78.8027 527.315 78.8027C534.448 78.8027 540.351 83.5538 540.351 95.5133V110.504C540.351 117.712 542.565 116.893 542.565 119.105Z" fill="#F57C00"/>
<path d="M466.362 148.153C464.944 148.153 463.656 147.903 462.492 147.399C461.328 146.896 460.315 146.191 459.458 145.278C458.602 144.365 457.942 143.291 457.474 142.055C457.007 140.818 456.777 139.446 456.777 137.938C456.777 136.542 457.015 135.256 457.491 134.072C457.966 132.888 458.643 131.868 459.516 131C460.389 130.132 461.43 129.46 462.631 128.977C463.833 128.494 465.161 128.252 466.612 128.252C467.19 128.252 467.793 128.301 468.428 128.403C469.059 128.506 469.683 128.666 470.285 128.879C470.892 129.092 471.417 129.358 471.863 129.673C472.216 129.898 472.519 130.128 472.774 130.369C473.024 130.611 473.159 130.881 473.179 131.18C473.196 131.328 473.171 131.5 473.093 131.696C473.02 131.893 472.909 132.094 472.757 132.299C472.552 132.614 472.327 132.847 472.085 132.995C471.843 133.142 471.609 133.216 471.388 133.216C471.277 133.216 471.121 133.171 470.929 133.077C470.732 132.983 470.478 132.835 470.158 132.63C469.916 132.483 469.605 132.331 469.223 132.184C468.842 132.036 468.412 131.909 467.936 131.807C467.461 131.705 466.973 131.651 466.469 131.651C465.239 131.651 464.148 131.918 463.197 132.446C462.246 132.978 461.508 133.72 460.975 134.678C460.446 135.637 460.18 136.751 460.18 138.016C460.18 139.282 460.45 140.502 460.992 141.506C461.533 142.509 462.271 143.296 463.214 143.865C464.152 144.434 465.239 144.717 466.469 144.717C466.895 144.717 467.325 144.688 467.756 144.631C468.182 144.573 468.608 144.491 469.027 144.381C469.445 144.27 469.83 144.131 470.187 143.963V139.581H466.247C465.985 139.581 465.747 139.552 465.534 139.499C465.321 139.446 465.153 139.306 465.03 139.093C464.907 138.88 464.849 138.54 464.849 138.073C464.849 137.607 464.915 137.246 465.046 137.041C465.177 136.837 465.349 136.706 465.563 136.648C465.776 136.591 466.013 136.566 466.276 136.566H471.978C472.462 136.566 472.815 136.648 473.04 136.816C473.261 136.984 473.413 137.197 473.487 137.459C473.561 137.721 473.598 138.008 473.598 138.323V144.799C473.598 145.171 473.417 145.556 473.052 145.958C472.687 146.359 472.183 146.715 471.531 147.031C471.101 147.252 470.613 147.449 470.064 147.617C469.514 147.784 468.928 147.916 468.305 148.006C467.682 148.1 467.034 148.145 466.362 148.145V148.153Z" fill="white"/>
<path d="M494.47 145.643C494.654 145.995 494.753 146.306 494.765 146.577C494.773 146.847 494.695 147.081 494.527 147.273C494.359 147.47 494.08 147.67 493.691 147.875C493.096 148.154 492.629 148.227 492.293 148.096C491.957 147.965 491.649 147.605 491.37 147.007L485.168 133.884L478.965 147.007C478.687 147.584 478.379 147.937 478.043 148.068C477.707 148.199 477.244 148.125 476.645 147.842C476.272 147.658 475.997 147.461 475.821 147.257C475.645 147.052 475.571 146.806 475.6 146.515C475.628 146.229 475.735 145.876 475.92 145.467L483.606 129.498C483.754 129.199 483.975 128.957 484.262 128.773C484.549 128.588 484.865 128.494 485.197 128.494C485.422 128.494 485.623 128.535 485.812 128.621C485.996 128.703 486.168 128.822 486.328 128.969C486.488 129.117 486.623 129.305 486.734 129.526L494.474 145.635L494.47 145.643ZM480.191 142.96L481.532 140.056H488.825L490.137 142.96H480.187H480.191Z" fill="white"/>
<path d="M498.441 148.012C497.9 148.012 497.51 147.934 497.268 147.774C497.027 147.615 496.871 147.406 496.809 147.148C496.744 146.886 496.711 146.607 496.711 146.312V130.204C496.711 129.888 496.74 129.602 496.793 129.352C496.85 129.102 496.998 128.897 497.24 128.738C497.482 128.578 497.871 128.5 498.412 128.5C498.953 128.5 499.31 128.578 499.544 128.738C499.777 128.897 499.925 129.102 499.991 129.352C500.056 129.602 500.089 129.888 500.089 130.204V145.002H508.583C508.862 145.002 509.12 145.026 509.354 145.071C509.587 145.116 509.768 145.247 509.899 145.46C510.03 145.673 510.096 146.013 510.096 146.48C510.096 146.947 510.03 147.287 509.899 147.5C509.768 147.713 509.592 147.852 509.366 147.918C509.145 147.983 508.89 148.016 508.612 148.016H498.441V148.012Z" fill="white"/>
<path d="M514.144 148.012C513.603 148.012 513.213 147.934 512.972 147.774C512.73 147.615 512.574 147.406 512.512 147.148C512.447 146.886 512.414 146.607 512.414 146.312V130.204C512.414 129.888 512.443 129.602 512.496 129.352C512.553 129.102 512.701 128.897 512.943 128.738C513.185 128.578 513.574 128.5 514.115 128.5C514.656 128.5 515.013 128.578 515.247 128.738C515.48 128.897 515.628 129.102 515.694 129.352C515.759 129.602 515.792 129.888 515.792 130.204V145.002H524.286C524.565 145.002 524.823 145.026 525.057 145.071C525.291 145.116 525.471 145.247 525.602 145.46C525.733 145.673 525.799 146.013 525.799 146.48C525.799 146.947 525.733 147.287 525.602 147.5C525.471 147.713 525.295 147.852 525.069 147.918C524.848 147.983 524.594 148.016 524.315 148.016H514.144V148.012Z" fill="white"/>
<path d="M529.903 148.012C529.362 148.012 528.976 147.934 528.743 147.774C528.509 147.615 528.361 147.406 528.296 147.148C528.23 146.886 528.197 146.599 528.197 146.284V130.204C528.197 129.553 528.328 129.106 528.591 128.865C528.853 128.623 529.316 128.5 529.989 128.5H540.861C541.176 128.5 541.467 128.533 541.726 128.598C541.988 128.664 542.189 128.819 542.34 129.057C542.488 129.299 542.566 129.688 542.566 130.228C542.566 130.769 542.488 131.125 542.328 131.359C542.168 131.592 541.959 131.74 541.701 131.805C541.439 131.871 541.152 131.904 540.836 131.904H531.616V136.564H537.958C538.274 136.564 538.548 136.597 538.782 136.663C539.016 136.728 539.196 136.863 539.327 137.068C539.459 137.273 539.524 137.625 539.524 138.129C539.524 138.575 539.459 138.907 539.327 139.12C539.196 139.333 539.012 139.468 538.77 139.526C538.528 139.583 538.241 139.608 537.905 139.608H531.616V144.604H540.865C541.18 144.604 541.471 144.637 541.73 144.703C541.992 144.768 542.193 144.92 542.345 145.161C542.492 145.403 542.57 145.784 542.57 146.304C542.57 146.824 542.492 147.209 542.332 147.447C542.172 147.688 541.963 147.84 541.705 147.906C541.443 147.971 541.156 148.004 540.84 148.004H529.915L529.903 148.012Z" fill="white"/>
<path d="M497.691 154.1C497.789 154.1 497.876 154.108 497.949 154.128C498.023 154.149 498.085 154.194 498.13 154.272C498.175 154.345 498.199 154.468 498.199 154.636C498.199 154.792 498.175 154.906 498.126 154.98C498.076 155.054 498.015 155.103 497.937 155.124C497.859 155.144 497.773 155.152 497.675 155.152H495.891V160.337C495.891 160.448 495.879 160.546 495.859 160.636C495.834 160.722 495.785 160.792 495.703 160.845C495.621 160.899 495.486 160.923 495.297 160.923C495.108 160.923 494.981 160.894 494.903 160.841C494.821 160.788 494.772 160.714 494.752 160.628C494.731 160.542 494.723 160.44 494.723 160.329V155.156H492.911C492.821 155.156 492.735 155.148 492.653 155.128C492.571 155.107 492.509 155.062 492.464 154.984C492.419 154.911 492.395 154.792 492.395 154.628C492.395 154.464 492.419 154.345 492.464 154.272C492.509 154.198 492.575 154.149 492.653 154.128C492.735 154.108 492.821 154.1 492.911 154.1H497.699H497.691Z" fill="#F57C00"/>
<path d="M502.089 160.997C501.622 160.997 501.183 160.911 500.773 160.735C500.363 160.559 500.002 160.313 499.695 159.998C499.388 159.683 499.146 159.318 498.969 158.9C498.793 158.487 498.707 158.04 498.707 157.565C498.707 157.09 498.793 156.623 498.961 156.197C499.129 155.771 499.367 155.398 499.67 155.075C499.974 154.751 500.322 154.501 500.724 154.321C501.126 154.141 501.552 154.047 502.007 154.047C502.462 154.047 502.913 154.133 503.323 154.309C503.733 154.485 504.09 154.731 504.397 155.05C504.705 155.37 504.942 155.738 505.119 156.16C505.295 156.582 505.381 157.037 505.381 157.524C505.381 158.012 505.295 158.446 505.127 158.863C504.959 159.281 504.721 159.654 504.414 159.973C504.106 160.293 503.758 160.547 503.36 160.723C502.962 160.903 502.54 160.989 502.093 160.989L502.089 160.997ZM502.032 159.81C502.331 159.81 502.614 159.752 502.876 159.633C503.139 159.519 503.368 159.355 503.565 159.146C503.762 158.937 503.913 158.696 504.024 158.421C504.135 158.147 504.188 157.848 504.188 157.528C504.188 157.209 504.131 156.922 504.024 156.648C503.913 156.373 503.758 156.128 503.561 155.919C503.364 155.71 503.134 155.542 502.876 155.423C502.618 155.304 502.343 155.243 502.044 155.243C501.745 155.243 501.474 155.304 501.216 155.423C500.958 155.542 500.728 155.706 500.527 155.915C500.33 156.123 500.175 156.365 500.064 156.639C499.953 156.914 499.9 157.213 499.9 157.532C499.9 157.852 499.957 158.139 500.072 158.413C500.187 158.687 500.339 158.933 500.535 159.142C500.732 159.355 500.958 159.519 501.212 159.633C501.47 159.752 501.745 159.81 502.036 159.81H502.032Z" fill="#F57C00"/>
<path d="M508.983 160.98C508.528 160.98 508.127 160.894 507.774 160.726C507.421 160.559 507.126 160.325 506.88 160.03C506.638 159.735 506.454 159.395 506.331 159.019C506.208 158.638 506.146 158.232 506.146 157.806V154.706C506.146 154.595 506.159 154.497 506.179 154.403C506.204 154.313 506.257 154.239 506.339 154.182C506.425 154.128 506.561 154.1 506.749 154.1C506.938 154.1 507.073 154.128 507.155 154.182C507.237 154.239 507.286 154.308 507.311 154.403C507.335 154.493 507.344 154.599 507.344 154.714V157.802C507.344 158.158 507.405 158.49 507.524 158.789C507.643 159.092 507.827 159.334 508.069 159.514C508.311 159.694 508.627 159.789 509.012 159.789C509.356 159.789 509.652 159.707 509.897 159.547C510.143 159.387 510.336 159.154 510.467 158.855C510.599 158.556 510.668 158.204 510.668 157.794V154.648C510.668 154.55 510.68 154.46 510.709 154.382C510.734 154.3 510.791 154.235 510.873 154.182C510.955 154.128 511.09 154.104 511.275 154.104C511.459 154.104 511.591 154.132 511.677 154.19C511.763 154.247 511.812 154.321 511.832 154.411C511.853 154.497 511.861 154.599 511.861 154.718V157.827C511.861 158.257 511.8 158.658 511.677 159.039C511.554 159.42 511.369 159.752 511.119 160.042C510.873 160.333 510.57 160.559 510.213 160.731C509.857 160.899 509.447 160.985 508.983 160.985V160.98Z" fill="#F57C00"/>
<path d="M513.604 160.91C513.423 160.91 513.288 160.886 513.202 160.833C513.116 160.779 513.067 160.706 513.046 160.611C513.026 160.517 513.018 160.419 513.018 160.312V154.689C513.018 154.587 513.03 154.488 513.05 154.402C513.075 154.316 513.128 154.243 513.21 154.189C513.296 154.136 513.428 154.107 513.612 154.107H515.699C515.99 154.107 516.273 154.157 516.547 154.247C516.822 154.341 517.064 154.484 517.277 154.681C517.49 154.877 517.662 155.115 517.789 155.402C517.916 155.688 517.978 156.024 517.978 156.413C517.978 156.659 517.937 156.909 517.859 157.159C517.781 157.409 517.666 157.642 517.515 157.855C517.363 158.068 517.166 158.248 516.929 158.396C516.691 158.543 516.416 158.637 516.105 158.682H514.194V160.321C514.194 160.423 514.182 160.521 514.161 160.611C514.141 160.702 514.088 160.775 514.006 160.824C513.924 160.878 513.788 160.902 513.6 160.902L513.604 160.91ZM514.202 157.519H515.85C515.969 157.519 516.084 157.499 516.195 157.458C516.309 157.417 516.408 157.347 516.498 157.253C516.588 157.159 516.658 157.044 516.711 156.909C516.765 156.774 516.793 156.606 516.793 156.413C516.793 156.18 516.748 155.979 516.662 155.815C516.576 155.647 516.449 155.525 516.281 155.434C516.117 155.348 515.916 155.303 515.682 155.303H514.198V157.523L514.202 157.519ZM517.753 160.763C517.564 160.898 517.412 160.951 517.293 160.915C517.174 160.878 517.056 160.771 516.933 160.599L515.293 158.125L516.621 157.949L517.916 159.919C518.007 160.05 518.064 160.161 518.08 160.251C518.097 160.341 518.08 160.427 518.031 160.505C517.982 160.583 517.884 160.669 517.748 160.767L517.753 160.763Z" fill="#F57C00"/>
<path d="M521.77 160.882C521.614 160.882 521.479 160.82 521.36 160.697C521.241 160.574 521.184 160.431 521.184 160.267C521.184 160.165 521.192 160.062 521.204 159.964C521.216 159.866 521.245 159.772 521.286 159.682C521.327 159.591 521.397 159.501 521.495 159.419C521.786 159.174 522.09 158.944 522.401 158.735C522.713 158.527 523.012 158.33 523.299 158.142C523.586 157.953 523.84 157.765 524.066 157.576C524.291 157.388 524.467 157.187 524.603 156.978C524.734 156.77 524.803 156.536 524.803 156.282C524.803 156.086 524.762 155.909 524.68 155.746C524.598 155.582 524.467 155.455 524.291 155.357C524.111 155.258 523.881 155.209 523.594 155.209C523.393 155.209 523.217 155.238 523.061 155.291C522.909 155.348 522.782 155.43 522.68 155.541C522.577 155.651 522.5 155.787 522.446 155.946C522.389 156.106 522.364 156.286 522.364 156.487C522.364 156.598 522.356 156.696 522.336 156.786C522.315 156.872 522.266 156.942 522.184 156.991C522.102 157.04 521.962 157.064 521.77 157.064C521.577 157.064 521.438 157.032 521.356 156.97C521.274 156.909 521.225 156.831 521.208 156.733C521.192 156.634 521.184 156.532 521.184 156.421C521.184 156.098 521.237 155.791 521.343 155.5C521.45 155.209 521.61 154.955 521.815 154.734C522.024 154.513 522.274 154.341 522.569 154.214C522.864 154.087 523.201 154.025 523.578 154.025C524.053 154.025 524.471 154.124 524.832 154.316C525.193 154.513 525.476 154.787 525.681 155.139C525.886 155.492 525.988 155.909 525.988 156.393C525.988 156.647 525.951 156.884 525.869 157.105C525.791 157.327 525.681 157.531 525.541 157.724C525.402 157.916 525.242 158.092 525.062 158.26C524.881 158.428 524.693 158.58 524.492 158.723C524.291 158.867 524.086 159.002 523.877 159.129C523.668 159.256 523.467 159.379 523.274 159.493L522.905 159.69H525.677C525.787 159.69 525.886 159.702 525.976 159.723C526.062 159.747 526.132 159.8 526.185 159.882C526.238 159.968 526.263 160.103 526.263 160.292C526.263 160.48 526.234 160.607 526.181 160.693C526.128 160.779 526.054 160.832 525.959 160.853C525.869 160.873 525.767 160.886 525.656 160.886H521.766L521.77 160.882Z" fill="#F57C00"/>
<path d="M529.424 160.997C529.038 160.997 528.706 160.931 528.423 160.8C528.141 160.669 527.903 160.493 527.706 160.268C527.509 160.042 527.353 159.784 527.235 159.489C527.116 159.195 527.03 158.879 526.976 158.539C526.923 158.203 526.898 157.855 526.898 157.507C526.898 157.159 526.923 156.835 526.976 156.5C527.03 156.164 527.112 155.848 527.23 155.553C527.349 155.259 527.501 154.996 527.694 154.763C527.886 154.53 528.124 154.349 528.411 154.218C528.698 154.087 529.03 154.018 529.407 154.018C529.784 154.018 530.112 154.083 530.387 154.218C530.662 154.353 530.895 154.534 531.088 154.759C531.281 154.988 531.432 155.246 531.551 155.545C531.67 155.844 531.752 156.16 531.806 156.495C531.859 156.831 531.883 157.175 531.883 157.519C531.883 157.863 531.859 158.203 531.806 158.543C531.752 158.883 531.67 159.199 531.551 159.494C531.432 159.788 531.281 160.051 531.088 160.272C530.895 160.497 530.666 160.673 530.391 160.804C530.117 160.935 529.797 161.001 529.424 161.001V160.997ZM529.387 159.801C529.645 159.801 529.858 159.743 530.026 159.629C530.19 159.514 530.322 159.367 530.412 159.186C530.502 159.006 530.567 158.81 530.613 158.601C530.654 158.392 530.682 158.195 530.69 158.011C530.699 157.827 530.707 157.675 530.707 157.556V157.507C530.707 157.012 530.658 156.598 530.559 156.254C530.461 155.914 530.317 155.652 530.125 155.476C529.932 155.295 529.69 155.209 529.399 155.209C529.108 155.209 528.862 155.295 528.669 155.472C528.473 155.648 528.329 155.906 528.235 156.25C528.141 156.594 528.091 157.016 528.091 157.515C528.091 158.015 528.141 158.408 528.239 158.748C528.337 159.088 528.481 159.35 528.673 159.526C528.866 159.702 529.104 159.793 529.391 159.793L529.387 159.801Z" fill="#F57C00"/>
<path d="M533.143 160.882C532.987 160.882 532.852 160.82 532.733 160.697C532.614 160.574 532.557 160.431 532.557 160.267C532.557 160.165 532.565 160.062 532.577 159.964C532.589 159.866 532.618 159.772 532.659 159.682C532.7 159.591 532.77 159.501 532.868 159.419C533.159 159.174 533.463 158.944 533.774 158.735C534.086 158.527 534.385 158.33 534.672 158.142C534.959 157.953 535.213 157.765 535.439 157.576C535.664 157.388 535.84 157.187 535.976 156.978C536.107 156.77 536.176 156.536 536.176 156.282C536.176 156.086 536.135 155.909 536.053 155.746C535.971 155.582 535.84 155.455 535.664 155.357C535.484 155.258 535.254 155.209 534.967 155.209C534.766 155.209 534.59 155.238 534.434 155.291C534.283 155.348 534.155 155.43 534.053 155.541C533.95 155.651 533.873 155.787 533.819 155.946C533.762 156.106 533.737 156.286 533.737 156.487C533.737 156.598 533.729 156.696 533.709 156.786C533.688 156.872 533.639 156.942 533.557 156.991C533.475 157.04 533.336 157.064 533.143 157.064C532.95 157.064 532.811 157.032 532.729 156.97C532.647 156.909 532.598 156.831 532.581 156.733C532.565 156.634 532.557 156.532 532.557 156.421C532.557 156.098 532.61 155.791 532.717 155.5C532.823 155.209 532.983 154.955 533.188 154.734C533.397 154.513 533.647 154.341 533.942 154.214C534.237 154.087 534.574 154.025 534.951 154.025C535.426 154.025 535.844 154.124 536.205 154.316C536.566 154.513 536.849 154.787 537.054 155.139C537.259 155.492 537.361 155.909 537.361 156.393C537.361 156.647 537.324 156.884 537.242 157.105C537.164 157.327 537.054 157.531 536.914 157.724C536.775 157.916 536.615 158.092 536.435 158.26C536.254 158.428 536.066 158.58 535.865 158.723C535.664 158.867 535.459 159.002 535.25 159.129C535.041 159.256 534.84 159.379 534.647 159.493L534.278 159.69H537.05C537.16 159.69 537.259 159.702 537.349 159.723C537.435 159.747 537.505 159.8 537.558 159.882C537.611 159.968 537.636 160.103 537.636 160.292C537.636 160.48 537.607 160.607 537.554 160.693C537.501 160.779 537.427 160.832 537.333 160.853C537.242 160.873 537.14 160.886 537.029 160.886H533.139L533.143 160.882Z" fill="#F57C00"/>
<path d="M540.348 160.995C540.094 160.995 539.868 160.971 539.671 160.922C539.475 160.873 539.298 160.811 539.151 160.741C538.999 160.672 538.872 160.602 538.765 160.533C538.659 160.463 538.573 160.406 538.507 160.352C538.429 160.287 538.364 160.225 538.31 160.164C538.257 160.103 538.232 160.029 538.232 159.943C538.232 159.877 538.249 159.812 538.286 159.742C538.323 159.672 538.38 159.595 538.458 159.505C538.528 159.414 538.601 159.349 538.671 159.308C538.741 159.271 538.81 159.251 538.876 159.251C538.933 159.251 538.999 159.267 539.065 159.3C539.134 159.333 539.22 159.39 539.323 159.476C539.376 159.521 539.438 159.57 539.511 159.615C539.585 159.664 539.684 159.705 539.803 159.742C539.921 159.779 540.081 159.795 540.274 159.795C540.495 159.795 540.688 159.754 540.848 159.668C541.012 159.582 541.139 159.464 541.229 159.308C541.319 159.152 541.364 158.964 541.364 158.743C541.364 158.542 541.315 158.362 541.221 158.202C541.127 158.042 541 157.919 540.84 157.825C540.68 157.735 540.504 157.69 540.307 157.69C540.204 157.69 540.106 157.702 540.02 157.723C539.934 157.747 539.856 157.776 539.786 157.817C539.716 157.858 539.659 157.899 539.614 157.944C539.561 157.997 539.511 158.038 539.462 158.071C539.413 158.104 539.352 158.124 539.274 158.128C539.196 158.141 539.118 158.141 539.044 158.124C538.97 158.108 538.88 158.075 538.778 158.022C538.63 157.952 538.523 157.887 538.462 157.825C538.4 157.764 538.368 157.69 538.368 157.6L538.769 154.696C538.782 154.61 538.802 154.524 538.827 154.434C538.851 154.344 538.905 154.262 538.987 154.192C539.069 154.123 539.192 154.09 539.364 154.094H541.791C541.901 154.094 542 154.106 542.082 154.127C542.164 154.147 542.234 154.205 542.287 154.291C542.34 154.377 542.365 154.516 542.365 154.704C542.365 154.872 542.34 154.999 542.291 155.081C542.242 155.163 542.176 155.212 542.09 155.233C542.004 155.253 541.914 155.261 541.815 155.261H539.885L539.671 156.711C539.737 156.666 539.803 156.629 539.876 156.601C539.946 156.572 540.02 156.547 540.098 156.531C540.176 156.515 540.245 156.506 540.319 156.506H540.376C540.663 156.506 540.934 156.564 541.196 156.678C541.455 156.793 541.688 156.949 541.893 157.149C542.098 157.35 542.258 157.584 542.377 157.842C542.496 158.104 542.553 158.378 542.553 158.669C542.553 159.111 542.455 159.509 542.262 159.857C542.065 160.209 541.803 160.483 541.467 160.684C541.131 160.885 540.758 160.987 540.34 160.987L540.348 160.995Z" fill="#F57C00"/>
<defs>
<clipPath id="clip0_414_9">
<rect width="482" height="350" fill="white"/>
</clipPath>
</defs>
</svg>
