<?xml version="1.0" encoding="UTF-8"?>
<svg id="Layer_1" xmlns="http://www.w3.org/2000/svg" xmlns:xlink="http://www.w3.org/1999/xlink" version="1.1" viewBox="0 0 544 350">
  <!-- Generator: Adobe Illustrator 29.1.0, SVG Export Plug-In . SVG Version: 2.1.0 Build 142)  -->
  <defs>
    <style>
      .st0 {
        fill: #feae21;
      }

      .st1 {
        fill: #fe9700;
      }

      .st2 {
        fill: none;
      }

      .st3 {
        fill: #fe8e00;
      }

      .st4 {
        fill: #fe6f00;
      }

      .st5 {
        fill: #fe5a00;
      }

      .st6 {
        fill: #feaf20;
      }

      .st7 {
        fill: #fd7300;
      }

      .st8 {
        fill: #1c7be4;
      }

      .st9 {
        fill: #032c7b;
      }

      .st10 {
        fill: #39a4fc;
      }

      .st11 {
        fill: #0026bc;
      }

      .st12 {
        fill: #1766d1;
      }

      .st13 {
        fill: #fe7b00;
      }

      .st14 {
        fill: #8dcffc;
      }

      .st15 {
        fill: #03387d;
      }

      .st16 {
        fill: #01489c;
      }

      .st17 {
        fill: #fe7300;
      }

      .st18 {
        fill: #004593;
      }

      .st19 {
        fill: #fe8500;
      }

      .st20 {
        fill: #00489c;
      }

      .st21 {
        fill: #004595;
      }

      .st22 {
        fill: #fe6b00;
      }

      .st23 {
        fill: #fd7600;
      }

      .st24 {
        fill: #fe5001;
      }

      .st25 {
        fill: #42adfe;
      }

      .st26 {
        fill: #fe7000;
      }

      .st27 {
        fill: #fec64e;
      }

      .st28 {
        fill: #81c9fe;
      }

      .st29 {
        fill: #0e58c6;
      }

      .st30 {
        fill: #fd8301;
      }

      .st31 {
        fill: #0544a9;
      }

      .st32 {
        fill: #86cbfc;
      }

      .st33 {
        fill: #01387c;
      }

      .st34 {
        fill: #fe9000;
      }

      .st35 {
        fill: #ffbc57;
      }

      .st36 {
        fill: #fcbd46;
      }

      .st37 {
        fill: #fe9b00;
      }

      .st38 {
        fill: #1c75dd;
      }

      .st39 {
        fill: #3792eb;
      }

      .st40 {
        fill: #fe9c00;
      }

      .st41 {
        fill: #bee7fd;
      }

      .st42 {
        fill: #fe7400;
      }

      .st43 {
        fill: #0177f2;
      }

      .st44 {
        fill: #013e86;
      }

      .st45 {
        fill: #087ff1;
      }

      .st46 {
        fill: #379cf5;
      }

      .st47 {
        fill: #003d84;
      }

      .st48 {
        fill: #fe9800;
      }

      .st49 {
        fill: #fcd99c;
      }

      .st50 {
        fill: #013b7e;
      }

      .st51 {
        fill: #3797f3;
      }

      .st52 {
        fill: #48b2fd;
      }

      .st53 {
        fill: #7dcdff;
      }

      .st54 {
        fill: #055ec2;
      }

      .st55 {
        fill: #006474;
      }

      .st56 {
        fill: #2e2e2e;
      }

      .st57 {
        fill: #fe7200;
      }

      .st58 {
        fill: #c0e7fe;
      }

      .st59 {
        fill: #fefefe;
      }

      .st60 {
        fill: #fe9801;
      }

      .st61 {
        fill: #3da6fc;
      }

      .st62 {
        fill: #fec44e;
      }

      .st63 {
        fill: #c6eafe;
      }

      .st64 {
        fill: #f57c00;
      }

      .st65 {
        fill: #003b80;
      }

      .st66 {
        fill: #0056fd;
      }

      .st67 {
        fill: #00485f;
      }

      .st68 {
        fill: #42aefd;
      }

      .st69 {
        fill: #fe7100;
      }

      .st70 {
        fill: #01499e;
      }

      .st71 {
        fill: #3699f2;
      }

      .st72 {
        fill: #def5fd;
      }

      .st73 {
        fill: #fdc851;
      }

      .st74 {
        fill: #fdc751;
      }

      .st75 {
        fill: #feae22;
      }

      .st76 {
        clip-path: url(#clippath);
      }

      .st77 {
        fill: #3ea7fd;
      }

      .st78 {
        fill: #006374;
      }

      .st79 {
        fill: #9d7a68;
      }

      .st80 {
        fill: #ff8f41;
      }

      .st81 {
        fill: #00489b;
      }

      .st82 {
        fill: #fdfdfd;
      }
    </style>
    <clipPath id="clippath">
      <rect class="st2" width="482" height="350"/>
    </clipPath>
  </defs>
  <g class="st76">
    <g>
      <path class="st12" d="M301.8,327.2c13.7-1.1,27.5-1,41.2,0,2.5-.7,5.1-.7,7.6,0,14.2-1,28.4-1,42.6,0,20.3-1.1,40.6-1.1,60.8,0,4.8,2,14.4,1.5,18.8,3.5.6.4-1.6,1.1-2.6,1.1-48.5-.4-96.5,0-144.2,1.4-4.9.5-13.6,1.3-17,5.1-2.7,5.1-4.3,6.7-10,8.1-2.1.5-4.2.8-6.3,1.1-10.7,1.5-21.9,1.7-32.6,1.7-.3.3-.8.6-1.5.8-71.8,0-143.7,0-215.5,0-10.1-.4-23.2-2.7-30.9-9.9-3-2.8-3.5-7-3.3-10.2,12.8,0,28.6.1,41.4,0,2.3-1.2,6.6-1.6,8.9-.4,0-.3.1-.7.3-.8,4.5-.2,10.7-.4,15.1,0,1.1-.2,1.8,0,2,.8l.5-.8c1.4-.3,5-.7,5.9.4,3.9-.2,8-.6,12-.8,3.2-1.4,8-1.9,11.3-.8,1.5-1.1,3.6-1.1,5.1,0,.7,0,1.5,0,2.2,0l68.8-1.1c-.3-.1,1.6.9,1.9.7,6.5-.3,13-.7,19.5-.7,26.1,0,52.1,0,78.2,0,6.5,0,13,.4,19.5.7h0Z"/>
      <path class="st51" d="M463,341.3c-24.7-.3-49.4-.3-74,0l-6.3.8c0,.6,1,.7,1.3.7,4.3.5,21.2-1,23.6,1.7,2.9,3.3-7.7,5.8-9.7,5.5-47.1,0-94.4-.1-141.9-.3v-.4c3,.3,6-.5,9.1-.8,7.7-.6,30.7-.8,36.2-5.1,2.9-2.3,2.1-5.5,7.2-7.8,8.9-4,26.9-3.4,36.9-3.7,41.2-1.1,82.5-.3,123.7-.8.6,0,3.4.4,3.8-.3,0,2.9,0,3.9-1.2,5.9-1.9,2.8-5.5,4.1-8.7,4.6Z"/>
      <path class="st67" d="M356.9,269c.9-1.1,4.1,0,5.3.7,1.7.8,2.9,1.9,3.7,3.6,1.8-1.7,4.6-2,7-1.8,1.2-9.5,12.9-15.3,17.9-5.6,10.9-5.7,24.3,4.3,19.2,16.6,11.3-3,22.7,5.6,17.5,17.8,4.4.1,9.4,2,10.6,6.8,2-1.1,4-.9,6-.6.4,5.5-2.1,10.4-6.7,13.2h-1.2c-17.3-8.8-35.2-16.1-54.5-18.9-8.1-1.8-16.1-4.6-23.9-7.6-.4-.1-.7-.4-1.1-.7-.3-.3-.7-.6-1-.9l-.6-.6.6-5.2.8-.6c-1.1-.3-.9-.6,0-1.1-.9-4.8-.8-10.4.4-15.1Z"/>
      <path class="st78" d="M381.8,243.3c8.7-1.3,16,5.2,16,14,1.6-.6,2.8-1.6,4.5-2.1,8.7-2.4,18.7,3.2,17.4,13.2-.2,1.5-1.1,2.9-1.5,4.4,3-.9,5.6,0,8,1.9.6.5,1.8,2.3,1.9,2.3.5,0,2.4-1,3.3-1.1,2.2-.3,5.8-.2,7.8.6,7.4,3,8.4,16.2,1.3,20l-3.1.5c4.1,1.3,6.4,5.2,6.7,9.5-1.1,1.2-2.1.3-3.4.5-.6,0-3.1,1.3-3.3,1.1-.4-5.1-6.7-7.4-11.1-6.8.2-1,.9-1.6,1.2-2.7,1.5-5.1-.4-10.6-4.7-13.6-4.5-3-9.3-2.1-14.3-1.1,3.7-6.4,2-12.9-4.1-16.8-4.8-3-9.3-2.2-14.1.2-.2-2.4-3.1-4.9-5.4-5.3-6.6-.9-10.6,4.5-11.3,10.6-2-.5-4.6,0-6.4.8-.6.3-.9,1.3-1.7,1.1-1.2-3.8-5.1-4.6-8.6-5.3-1-3.3-1.1-6.9,0-10.2,3.3-5,8.6-6,13.4-2.3.6-4.8,2.9-9.4,7.3-11.7.8-.4,3.5-1.5,4.2-1.6h0Z"/>
      <path class="st19" d="M437.9,319.7c2.6,1.3,5.2,3,7.9,4.2,2.7,1.2,5.6,2.3,8.4,3.3-20.7,0-41.4,0-62,0-6.1-3.7-12.3-7.7-18.6-12-5.5-3.3-12.3-7.2-18.6-6.8l-.7-.6-.6-.9c.4-5,.9-10,1.6-14.9l.9-.5c6.9,2.4,13.7,5.2,20.7,7.1,7.5,2.1,15.1,3.1,22.6,5,13.9,3.5,25.7,9.6,38.4,16h0Z"/>
      <path class="st40" d="M361.7,143l.3,1c-.8,1.5-1.8,2.9-3.1,4.1.7.1,1,.5,1.1,1.2l-4.2,13.5c3.8-3.7,8.2-7.2,13.4-8.7l1.1.5c13.9-3.2,29.2,4.1,34.6,17.4.3.8,1,2.2.8,3-2.1-1.4-4.4-2.8-6.7-3.8-2.5-1.1-5.5-1.5-7.7-2.5-2.4-1.1-5.3-3.7-8-4.5-.4-.1-1-.3-.9.3,1.8.8,3.8,2.2,4.9,3.8-2.9-.3-5.8-.7-8.7-.8l-1.6.7c-7,0-13.9.8-20.7,2.3,2.1-.5,4.3-.7,6.5-.8l.5.8c.9-1.2,4.6,0,6,.7,7.4,3,13.7,7.5,16.2,15.6,1,3.3,2.1,6.5,3,9.8.5,5,.6,10.1-.2,15.1-3.3-6.1-7.3-11.7-11.7-17-.8-.9-2.5-2.1-3-3.1-.9-1.6-1.4-6.5-1.9-8.7-.1-.4,0-1.2-.6-1.1v7.2c-.7.2-.8-.3-1.1-.6-5.9-4.5-8.2-8.9-15.9-12.3-.7.9-2.6-.2-3-1.1-.3,0-.6.1-.8,0-.4-.5-3.9-12.3-3.6-12.9l.6-.6c-1.8-9,2.6-18.2,8.7-24.6,3.8-4,8.7-7.1,13.6-9.5.3.4-4.2,7.7-4.7,8.7-1.2,2.2-2.1,4.6-3.2,6.8h0Z"/>
      <path class="st37" d="M110.2,145.5c.2.6.3,1.2.5,1.7-1.2,4.5-2.3,9-3.3,13.5l-1.4.3c.3,1.2-.7,1.6-1.5.8-.8,1.6-3.6,2.9-5.3,3-4.5,2-8.1,5.8-11.7,9.1v-6.4l-2.9,9.1c-5.9,4.9-10.6,11.5-13.7,18.5-.3.6-.7,3.4-1.2,1.4-3.2-13.3,2.3-29.6,14.3-36.8,1.7-1,7.2-3.5,9-3.5h6.1c.2,0,2,1,2.1,0-6-2.2-12.5-3.5-18.9-3.4.3-1.4,1-2.7,1.9-3.8-.5-.5-4.3,3.1-5.2,3.3-2.5.6-7.5,0-10.3.5,0-1.2,1.1-2,1.9-2.8-1.7-.3-2.8,2.7-4.2,3.4-2,1-5.7,1-7.8,2.4l-6.9,3.8c6.3-22,36.9-26.7,51.1-9.5l-6.8-20.6c-.1-.6,0-.6.5-.5,1.3.2,2.7.5,3.9,1.1.7-.9-.5-.7-1.2-1-6.1-2.9-5.4-5-8.5-10.4-1.3-2.2-2.8-4.2-4.1-6.3,13.2,4.7,25.2,18.7,23.8,33.3h0Z"/>
      <path class="st81" d="M100.5,184.3c.2-1.1,3.9,0,4.1.3.4.6-.3,5.6-.7,6-3.5-.8-2.9-.4,0,.4-.3,2.2-.4,4.4-.4,6.6-.4,9.1-2,18.7-2.7,27.9-1.9,27.6-2.1,56.1,0,83.8.1,1.7.3,3.9.8,5.5.8,4,1.5,8.1,2.1,12.1l-.6,1.1c-4,.1-7.9.6-11.8.8-1.5-14.1-1.9-28.4-1.5-42.7,0-3.6.2-7.5.4-11.2,1.3-30.3,5.2-60.7,10.3-90.6h0Z"/>
      <path class="st80" d="M209.5,72.3c.7-1,1.2-1,1.9,0,2.4-1.1,4.8-1,7.2,0,.6-.7,1.3-.7,1.9,0,2.4-.9,4.8-.9,7.2,0,.6-.7,1.3-.7,1.9,0,2.3-.5,4.4-.5,6.4,0,.5-.7,1-.7,1.5,0,1.6-.7,3.3-.7,4.9,0,.6-.6,1.1-.7,1.5,0v.8c-3.5,1.7-6.9,3.7-10,6.1l-2.1.6,2.2-.8h29.4l.5.8c-.7-1,2.2-3.6,3.2-3-1.6,4.8-4.8,3.5-5.5,4.5-.1.2-.8,4.6-.8,5.2,0,.3.3.5.3.5v.4c-.3.9-2.9,1.1-3,0-1.6.4-3.1.7-4.7.8h-30.1c0,0-1.1,49.8-1.1,49.8l-.8.4c.3.5.1.7-.4.4l-.4.7-3.9-.4c-1.9.3-4.9.8-6.3-.3,1-17.5,1.6-35.1,2.6-52.6.1-1.8.4-3.5.4-5.3-5.1.2-8.4-3.7-7.6-8.7,1.3,0,2.5,0,3.8,0Z"/>
      <path class="st5" d="M49.8,330c-3.7-2.8-7.9-6.5-8.7-11.4l21.1,1.9v-4.5l-18.5-1.7c4.8-16.8,11.5-33.1,20.2-48.3l.6,54.9,22.2,1.9c-.4,2.4-2,4.3-3,6.4-2,0-4.8.4-6.6.4h-18.1c-2.9,0-6.2.3-9.2.4h0Z"/>
      <path class="st0" d="M123.5,130.4c7.1-4.5,14.3-4.8,22.5-3.7,1.7.2,4.7.7,6.2,1.4.5.2.6,0,.5.8-4.3,1.4-8.6,3-12.7,4.9-2.1.9-5.1,3.1-7,3.6-2.4.6-5.4.4-7.9,1.4,0,.7.8.3,1.2.3,1.4-.2,3-.9,4.5-.5-4.5,3.4-9.3,6.5-13.4,10.4-.2.2-1.3,1-.6,1.1v1c-2.9,2.1-5.5,4.7-7.1,7.8l5.2-.4.8.7,7.8,2.6c15.7,8,18,27.7,11.9,42.8-1,.2-.6,0-.8-.5-.8-1.7-1.1-4.2-1.9-6.1-2.9-7.8-7.3-12.1-7.6-20.8,0-1.3.2-2.4.4-3.6-.5,0-.5.6-.7,1-.6,1.5-1,3.1-1.4,4.6-3.3-5.2-9.1-15.4-15-17.8-.5.9-2.1.6-2.3-.4,1.5-1.1.6-.9.9-2.3.9-4.1,2.9-9.4,3.2-13.2l.4.9c1.9-6.4,7.3-12.5,12.9-16.1h0Z"/>
      <path class="st5" d="M66.1,274.9l17.8,42.9-17.8-1.7v-41.2Z"/>
      <path class="st29" d="M242.1,21.2c.8.1,4.1,1.8,5,2.3,3.6,2.2,6.5,5.7,7.8,9.8l-.4.8h-26.8l-.9-.4c-1.4-2.3,4.1-12.1,7.3-12.4l.4-.8c2.4-.2,4.7-.2,7.1,0l.5.8Z"/>
      <path class="st47" d="M234.1,21.2c-3.3,3.4-6.4,7.1-6.8,12.1h27.6c1.8,0,2.9,1.8,1.5,3.2-.5.5-.9.4-1.1.5-.4,0-.7.3-.8.8h-10.8l-.5-.8c-3.9,1-7.8,1.1-11.7,0-4,.1-8,.3-12,.5l-.5-.5c-1.3-.1-3-.6-2.5-2.3.5-1.8,2-1.2,2.4-1.6.2-.2,1.4-3.5,1.9-4.4,2.1-3.4,6.7-7.1,10.7-7.7,0-1.2,2.5-1.1,2.6,0h0Z"/>
      <path class="st6" d="M245.9,72.3c2.3-.9,4.5-.9,6.8,0,.6-.7,1.3-.7,1.9,0,2.4-1,4.8-1.1,7.2,0,.7-1,1.2-1,1.9,0,1.4,0,2.8,0,4.2,0,0,1.6-.3,3-.8,4.5l-3.2,3h-32l5.6-4.1,6.6-3.5c.6-.7,1.3-.7,1.9,0Z"/>
      <path class="st8" d="M40.7,225.5c2.3-1.2,5.5-1.3,7.2.9-.5.4-3.1.8-3.3,1-.2.2,0,1.2-.3,1.7-1.4,2.9-5.4,2.5-7.8,3.2-1,.3-1.6,2-2.8,2.2-1.4.2-3.6-1.3-4.3-2.5-2.2-4.1,4-1.6,4.5-2,.3-4.1-.5-7.9-2.3-11.5,0-.3.9,0,.8-.4-.3-.8-1.4-2.5-1.5-3.4l1.1-.2c-.3-1.3-1.1-2.3-.8-3.8,4.3,4.1,9.5,8.3,9.5,14.8h0Z"/>
      <path class="st31" d="M243.2,57.2c3-.9,6-.9,9.1,0,.7-.7,1.5-.7,2.3,0,3.5,0,8.2-.4,11.6,0,.4,0,1.1,0,1.3.6.7,2.1-3.5,1-3.8,1.3-.5.5.4,11.5,0,13.2-.6,0-1.3,0-1.9,0-.3,0-.7-.2-.8-.4-.3-2.7-.3-9.6,0-12.2l.8-.6c0,.3-.1.7-.3.8-.5.1-5.8.1-6.3,0l-.5-.8c.3,0,.7.2.8.4.3,2.7.3,9.6,0,12.2l-.8.6h-1.9c-.3,0-.7-.2-.8-.4-.2-2.3-.7-10.3-.3-12.2l.7-.6-.4.8c-1,.3-5.6.3-6-.8.3,0,.7.2.8.4.3,2.7.3,9.6,0,12.2l-.8.6h-1.9l-.7-.4c.8-4,.7-8.8,0-12.8-.4,0-.8.2-.8.7h-4.1c0,4.1,0,8.1,0,12.1l-.8.5h-1.5c-.3,0-.7-.2-.8-.4-.2-3.7-.2-8.6,0-12.2l.8-.6-4.1-.2c-.8-1,1.9-1.6,2.6-1.7,2.9-.7,5.8-.7,8.7,0h0Z"/>
      <path class="st15" d="M218.6,57.2c0-.3.2-.3.4,0,4.1-1.1,8.4-1,12.5,0,0-.3.2-.3.4,0,.9-.3,1.8-.3,2.6,0l-2.3,1.5,3.8.4c-1,1.1-3.1,1.1-4.2,0-.3.5-.8.8-1.5.9v11.4l-.8.6c.3.1.3.2,0,.4h-1.9c-.3,0-.7-.2-.8-.4-.4-2.2-.2-9.8,0-12.2l.8-.6c0,.3-.1.7-.3.8-.5.1-5.8.1-6.3,0l-.5-.8c.3,0,.7.2.8.4.2,2.5.4,10.1,0,12.2l-.8.6h-1.9c-.3,0-.7-.2-.8-.4-.2-2.6-.4-9.9,0-12.2l.8-.6c0,.3,0,.7-.3.8-.7.2-6.1.3-6.3-.8.1,4,.2,8.1.2,12.4l-.8.9c-.6,0-1.3,0-1.9,0-.4-1.7.5-12.8,0-13.2-.2-.2-3.6.6-3-1.3.2-.5.9-.5,1.3-.6,3.1-.4,7.5,0,10.8,0h0Z"/>
      <path class="st60" d="M242.1,21.2c-1.8-.3-6,0-8,0-.8,0-1.9-.1-2.6,0-.8-2.2,1.8-2.5,1.9-2.9.8-2.4-.9-3.1-.7-5.1.3-3.1,2.6-3.4,2.9-4.3.5-1.3.1-6,.4-7.9.2-1.4,1.4-1.3,1.5.4.2,2.1,0,5.2.4,7.1.5,2.1,3.1,2.2,2.6,6.1-.1.9-.9,1.4-.7,2.6.3,1.4,2.5,2.3,2.2,4.1h0Z"/>
      <path class="st24" d="M418.9,222.1c1.4-1.2,2.6-2.5,4.5-2.9,8.4-1.7,2.2,6.1-1.9,6.6.4.7,1.3.2,2.1,1.1,2.1,2.4-2.4,2-3.9,1.7-3.5-.8-4.2-3.9-6.3-6.2-.6-.7-1.9-.7-1.2-1.5,3.3,1.6,0-5,1.9-5.7,2.1-.7,5.3,4.8,4.7,6.8h0Z"/>
      <path class="st77" d="M338.4,47c-2.6,2-4.7,3.3-6.6,6.1-.9,1.3-4,7.2-2.9,8.3.2.2,1.6-.4,1.5.4-1.3-.2-2.1,1.1-3,1.4-1.1.3-3.1-1.9-4.3-2.6-2.9-1.6-6.7-2.4-10.1-2.6l2.9-1.1c3.1-.3,5.3.2,8.1,1.5,1.4-6,8.4-11,14.4-11.3h0Z"/>
      <path class="st61" d="M150.5,61.7c-.4.6-1.3.5-2.1,1.1-.3.3-1.2,1.1-.9,1.5,4.5.6,9.1,2.3,10.2,7.2-5-2.3-10.1-5-15.5-2.3.2-3.5-1.4-6.7-4.2-8.9l-3.4-1.7c2.8,0,6,.6,8.6,1.8.7.3,1.3,1.3,2,1.4.8.2,3.8-1.3,5.3-.2h0Z"/>
      <path class="st41" d="M255.3,37.1c-1.2.7-.4.7-.4,2.1,0,6,.2,12.1-.4,18-.8,0-1.5,0-2.3,0h-.5c-.2-5.7-.3-11.4-.4-17.2-2.7.9-5.1,2.4-7.3,4.6l-.9-.3c-.3,0-.7-.1-.8-.3,0-.6-.1-6,0-6.3.1-.3.5-.4.8-.5h12.1Z"/>
      <path class="st39" d="M231.5,37.1c.3.1.3.2,0,.4l-.8.5c-3.5-.5-7.5-.6-10.9-.1,3.4-.4,7.2-.3,10.6,0l-.2,1.2-6,5.9c-3.3,3.7-5.1,6.7-4.4,11.6l-.8.6h-.4l.4-20.1c3.8.3,8.5,0,12.5,0h0Z"/>
      <path class="st45" d="M256.1,349.3c.2,0,.5.4,1.3.4,46.1,1,92.4-.6,138.5,0,.6,0,1.7-.2,2,.4-47.8,0-95.5,0-143.3,0,.2-.7.8-.8,1.5-.7Z"/>
      <path class="st43" d="M463,341.3c-24.6-.3-49.3.5-73.8,0-.2,0-1.9.2-1.3-.4,24.4.2,48.7-.3,73.1,0,.6,0,1.7-.2,2,.4h0Z"/>
      <path class="st48" d="M141.8,269c1.7-2.4,3.7,1.6,3.4,3.7v6.7c.7.1,1.4.4,1.9,1,.2,0,.5,0,.8,0,1.3.4,2.1.2,2.6-.5,1.5-.1,2.9-.3,4.2-.6v-9.7l.8-.5c1.5,0,7.5-.3,8.2.5,1.3,1.3-.2,8.9.5,10.9,2.9.7,5.3.5,7.2-.7,4.9.7,6.7-.4,5.3-3.3.6-2.1.3-3.9,0-6-.2-1,.7-1.4,2.7-1.4.9,0,2-.2,2.8,0,2.4.7.9,9.1,1.4,11,.1.5.6.1.8.2l1.4.3c.6.5-.4,7.1-.6,8.3l-.8.5c0,.3-.1.7-.3.8-4.3.5-12.5.3-17,0l-.5-.8c.9.3.8,2.2,0,2.6,0-.2,0-.4,0-.5.3-.8,15-.3,16.9-.3l.4.8c.3,0,.7.3.7.4-.4,2.5-2.3,10.1-3.2,12.2l-.8.2c-.3,1.2-4.8,1.2-5.3,0,.6.2.9.8.9,1.9,1.7-.2,2.9.2,3.5,1.1-1.6,3.6-4.1,8.3-8.9,7.2v1.2c1,.2,1.1.7,1.1,1.5,0,1.8-12.9,10.1-15.8,9.4-10.2.3-20.4.2-30.7,0-.3,0-.8-.1-.8-.3,0-3.4-.6-25.9.3-26.9.8-.9,5.2-.8,6.4-.4.1-1.2.5-2,1.2-2.2l-.3.8h-6.3l-.5-.8c-1.3-.2-1.5-4.7-.4-5.3,0-.3,0-.7.3-.8,4-.2,10.3-.4,14.2,0,1-.2,1.6,0,1.9.8-1-.1-.9-1.9-.6-2.6,0,.3,0,.7-.3.8-2.7.2-13,.5-15,0l-.5-.8c-.3,0-.7-.2-.8-.4-.1-.9-.2-7.1,0-7.7l.8-.5c2,0,4-.2,6.1-.4l.4-.8c1.3.1,2.7,0,3.9-.2l.2-10c1-.1,1.9-.3,2.9-.4.9,0,2.5,0,3.4,0h0Z"/>
      <path class="st80" d="M218.3,231.9c2.9-.4,5.8-.7,8.7-.7,14.7.5,28.7.6,42.2.1l.6.6c.2,1.5,0,2.6-.8,3.4-.1.3-.2.3-.4,0-1.3.6-3.7.7-4.9,0-11.2.3-22.5.4-33.9.3l-.4.7c-3.7-.1-7.3,0-10.7.4l-1.1,77.9-.8.5h-18.2c0-.7.7-1.1,1.9-1.1.3-15.1.9-30.1,1.9-45,1.2.2.7-.6.7-1.3.7-7.6,1.1-15.8,1.5-23.5,0-1.8.7-11,.4-11.9-.2-.2-.4-.7-.2-.8,2.3-1.3,10.6,0,13.5.4h0Z"/>
      <path class="st13" d="M202.4,269c1.3.5.4,2.8.4,3.6-.2,11.8-1,23.5-1.5,35.2,0,2.3,0,4.7,0,7l-2.7.4h-3l-.7.9c-5.7.9-9.6,5.6-11.5,10.8l-1,.5c-8.8.3-17.7.4-26.5,0l7.3-3.5c1.3-.7,7.5-5.2,7.8-6.2.3-.9-1-.3-1.2-.8-.2-.6.2-1.7,0-2.4,1.8-.2,3.7.6,5.1-.7.7-.6,4-5.1,4-5.9l-3.8-.2v-2.7h5.3l3.4-12.9h-17.4c-.3,0-.3-2.6,0-2.6h17.8c0-1.8,1.2-7.3.7-8.6,0,0-.5-.4-.7-.5h4.9v-9.6c0-.5,1.1-1.6,1.7-1.7.9-.2,11-.2,11.5,0h0Z"/>
      <path class="st80" d="M220.9,144.5c.6-.2,1.2-.4,1.9-.5.6-.1,1.2-.2,1.9-.2,10-.1,20-.2,30-.2,2.8,0,5.8,0,8.5.2.7,0,1,.3,1,1.1-.1.8,0,1.8,0,2.6,0,.9-1.1,1-1.8,1.1-2.3.1-4.7.2-7,.3-7.4,0-14.9,0-22.3-.2-.4,0-.9-.1-1.3-.3-.4-.1-.9-.3-1.3-.5-3,.8-6.1,1-9.1.5.1,23.2-.5,47-2,71.3l-.7,6.1c-3.3.8-6.8,1-10.4.7-1.1.3-3,.5-2.3-.9,0-.7,0-1.8.2-2.5-.6-15.2,1.9-32.2,2.3-47.7-1.1-1.3-1.1-3.3,0-4.5l1.5-26.5.7-.7c3.2.1,6.5.1,9.7,0l.6.8Z"/>
      <path class="st54" d="M139.1,223.2c1-11.2,10.4-18.8,21.6-18.2.2,1-.3.7-.7,1-2.2,1.8-4.3,3.3-6.3,5.4-1.5,1.6-3.4,5.1-4.7,6.3-.5.5-1.2.4-1.4.6-.5.5-.1,2-.4,2.8-.4,1.5-2,3.6-2.7,5,1.8-.8,3.1-2.1,4.9-2.8,10.8-4,23.5,4.4,24.3,15.8,0,.4.8.7-.3.7-3.6-2.7-7.6-5.1-11.9-6.2-3.2-.9-5.3.1-7-3.6l.6,2.3-8.7-.7,4.5,2.5c5.6,4.8,7.5,12.8,6.8,20,0,.7-.4,2.2-.6,2.8-.7,1.7-1.2-1.3-1.5-2.1-1.2-2.7-3-5.4-4.1-8.1-.5-1.3.4-1.2-1.3-1.7l-7.6-10.4-.9-.4c-.3-1.4-.8-1.5-1.8-.3-3.7,4-7.1,8.5-9.1,13.6-.6.1-.6,0-.9-.4-.7-.8-.6-2.1-1.3-2.6-.3,1.9,1,4,.7,5.8-.1,1.1-2,4.4-2.6,5.8-.8,2-1.3,4.1-2,6.2-.5,0-.7-1.1-.9-1.5-3.8-9.4-3.4-21.5,6.5-26.8l3.9-2c-2.5.4-5.1.5-7.6.9-2.3.4-4.9,1.7-7,2.1-1.2.2.3-1.1-.4-1.5-1.1,2.2-2.6,2.3-4.2,3.3-2.9,1.8-5.6,3.8-8.1,6.1-.7-13.7,12.6-23.1,25.4-17.8,1.8-.9,4.5,1.8,5.9,3.2.2,0,.3-3.9.2-4.5l.7-.6h0Z"/>
      <path class="st57" d="M119.8,269c.2,1.3-2.9,1.8-3,.4.3,0,.7.2.8.4,0,1.1.3,9,0,9.4-.2.3-.4.5-.8.5.8-.6,1-.3.6.6,0-1.1,5.1-1,5.9-.8.4.1.7.3.8.8-2-.9.4-3.1.8,0,1.1.4,4.6-.3,6.1,0,0,0-.4.4-.9.4-1.7.1-3.4-.1-5.1,0v8.7h15.7c.7,0,.6,2.1.6,2.6h-16.3l.4,5.3h7.2c-.5,4.4-1.1,2.6-4,2.6-1.1,0-2.1.4-3.2.4v26.8c-5.2.3-10.4.2-15.6,0l-.7-.4c-1.1-11.9.3-26.6.4-38.8,0-5.8-.1-11.6-.3-17.3.1-.4.3-.9.7-1.2,1.2-1.2,8.1-.2,10.2-.5h0Z"/>
      <path class="st37" d="M116.6,150.1c7.7-5.2,18.1-4.7,26.5-1.3,10,4,16.1,14.6,16.3,25.2-2.1-1.8-3.9-3.8-6.1-5.4-1.4-1-5.2-2.9-5.9-3.8-1.5-1.7-2.4-6-5.2-7.4l2.1,5.7c-2.1-.8-4-1.7-6.1-2.4-1.6-.5-4.4-.7-5.6-1.2-.9-.4-3.2-3.7-3.8-4.7-.7,0-.3.8-.2,1.1.2,1.1.6,2.3,1,3.4-4.8-.6-9.2-.3-14,0-2.2.2-4.5.7-6.8.4-.7-.7,2.2-4.2,2.8-4.9,1.4-1.6,3.4-3.4,5.1-4.5h0Z"/>
      <path class="st53" d="M208.4,171c0,1.5,0,3,0,4.5h-39.4c.4-1.2,1.2-1.9,2.3-2.5,1.8-1,4.9-1,5.7-1.5.4-.2.8-1.5,1.3-2.1,3.3-3.7,8.3-5.6,13.1-3.6,1,.4,2.7,2,2.9,2,.3,0,3.4-1,4.5-1.1,2.2-.2,4.5,0,6.6.6,2.8.8,2.9.8,3,3.6Z"/>
      <path class="st38" d="M139.1,223.2c.4,2.1-.3,5,0,7.2l-2.8-3c-1.1-.8-2.7-1.7-4-2.3l-1-1.9c-3.5-3.7-7.1-8.1-10.9-11.4-1.8-1.5-4.3-3.5-6.6-3.8,0-.4.3-.6.7-.7,5.6-1.7,14.3,1.1,18.5,5.2,1.7,1.7,5.8,8.3,6.2,10.6Z"/>
      <path class="st44" d="M142.5,234.6c1.1,4.4,1.7,11.1,2.2,15.7,1.2,9.9,2.1,20,2.3,30-.9,0-1.8,0-2.7,0-.3-2.3.8-9.6-.9-11-.6-.5-1.1-.3-1.7-.3,0-3.8-.1-7.7-.4-11.6-.4-7.6-1.7-16.1-1.5-23.6,0-.5,0-1,0-1.5,2.2-.3,2.2.5,2.6,2.3h0Z"/>
      <path class="st33" d="M108.3,161.4l-4.9,36.3c0,0-.4-.6-.4-1.3,0-.9.7-4.4.4-4.7-.1-.1-3.1,0-2.6-1.7.8-1.2,1.9.3,3,.2-.3-1.4.8-3.4.4-4.7,0-.3-2.5-.7-3-.8-.8-.1-.3.2-.4.8l-.4-.9c1.3-7.6,2.4-15.2,4.2-22.7.5-.3.8-.2,1.5-.8.7,0,1.6.1,2.3.4h0Z"/>
      <path class="st3" d="M218.6,225.9c1.1,1.8.9,4.4-.4,6.1-3.7,0-7.4,0-11.2,0-.6,0-1.7-.2-2.1.4-.3-.7-2.2-.9-1.9-3.6.2-2.4,2.1-2.1,2.5-2.8.5-.8-.2-2.1.6-2.7,0,.8-.3,2.8.6,2.9.2,0,1-.3,1.5-.3,3.5,0,7,0,10.4,0h0Z"/>
      <path class="st1" d="M124.8,280.4c-.6-.2-.2-1.1-.6-1.1-.4,0,0,1.1-.2,1.1h-6.6s-.6-.5-.6-.6v-10.4c1.1.4,2.4-.3,3-.4,1.5-.1,4.3-.4,4.8,1.4.7,2.4-.4,7.2,0,9.9Z"/>
      <path class="st17" d="M179.3,269c-.2.7-1.7.2-1.9.4-.3.3.4,3.5.4,4.4,0,1-.4,1.8-.4,2.6,0,1.1,1,2.7-.2,3.6-.9.7-4,.3-5.3.3-.7,0-1.5.4-2.3.4-1,0-5.3.2-5.5-.4,1.5-.3,4.8.4,6.1,0,.1-1.4.3-2.8.4-4.2,0-1.4-.4-6.1.5-6.8.8-.6,6.7-.4,8.2-.3Z"/>
      <path class="st34" d="M220.9,138.9c1,.8,1.3,5.2,0,5.7-3.1,0-8.1.4-11,0-2.5-.4-2.7-4.8.4-5.7,1.6-.5,4.4.3,6.2-.4l4.4.4Z"/>
      <path class="st69" d="M155.4,269v11.4c-2.5-.5-5.3.8-7.6,0,.8,0,1.5,0,2.3,0,.4-.4-.6-9.2.3-10.7.6-.9,3.8-.6,5-.6Z"/>
      <path class="st26" d="M138.4,269c-.4,0-1.4.7-2.3.4l-.2,10.6c-.5.7-4,.3-5.1.4.4-.4-.7-9.2.4-10.8.9-1.2,5.5-.3,7.2-.6h0Z"/>
      <path class="st10" d="M190.2,125.3c-3.1,2.7-5.9,5.9-6.1,10.2-3.3-2.5-6.9-5.5-11.3-4.5-.2-1,.2-.7.8-.9.7-.2,2.1-.5,2.8-.6,1.9-.2,4.8.6,5.9.3.3,0,1.1-1.8,1.6-2.3,1.5-1.5,4.1-2.6,6.2-2.3h0Z"/>
      <path class="st79" d="M125.1,327.3c10.2,0,20.4,0,30.7,0,8.8,0,17.7,0,26.5,0,0,.1,0,.3,0,.4h-73.4c0-.2,0-.5,0-.8,5.3.7,10.9.4,16.3.4Z"/>
      <path class="st48" d="M170.2,280.4c.2-1.3-.4-3.1.4-4.2,0,.9.3,3.9-.4,4.2Z"/>
      <path class="st49" d="M264.1,147.6c.9,24.6,3.2,49.2,4.2,73.8,1.1.6,1.2,3.6.4,4.5-13.5,1-27,1.1-40.5,0-.3-.5-.5-1.1-.7-1.6-.2-.6-.4-1.1-.5-1.6-3-24.3-1.6-48.9,2.4-72.7l1-1.9c10.2,0,21.2.5,31.2,0,.8,0,1.6-.3,2.4-.4Z"/>
      <path class="st67" d="M269.4,240.3c4.3-2.2,8.9-4.5,13.9-2.7.5-14,16.6-18.1,20.6-3.9,8.2-2.6,17.1,2.9,15.7,12.1,8.9,1,14.8,7.9,12.5,17,2.7-2,5.7-3.8,9-4.7,2.2-.6,6.1-1.4,7.7.4,3.1.5,4.5,1.6,7.2,3v.4l.5,1.4c-.2,7.7-.8,15.2-2,22.5-.2.5-.7.6-1.5.4-1.4.6-3.5-.1-4.2-1.5-1.6,1-2.3,0-2-3,.4-3.9.3-7.7,0-11.5-2-.4-4.1-.5-6.1-.3l-.5-.7v.5c-2.5,0-4.9.2-7.2.7-.6,3-.7,6.2-.3,9.4l-.8.7c-2,1.2-6.9,1.7-6.8-1.6,0-2.9,0-5.8-.2-8.6-1.7-.4-3.5-.5-5.4-.4l-.6-.7-.2.5c-3.7-.3-5.3.6-4.9,2.8l.3,7.6-.8.5c-1.6,1.1-4,1.1-5.7,0-.3,0-.7-.2-.8-.4-.2-.6-.1-7.7,0-8.7l.8-.6c-2.1-1.2-4.3-1.1-6.7-1l-.5-.7-.4.6c-3.8-.6-5.5.3-5.1,2.7l.2,7.4-.8.6c-1.7,1-3.6,1-5.3,0-.3,0-.7-.2-.8-.4-.2-1.1-.2-7.4,0-8.7l.8-.6c-1.5-.7-2.9-1.1-4.8-.9l-.5-.8-.5.7c-2.8-.2-5.7-.1-8.5.3-.6,3.1-.7,6.4-.4,9.9-.2,1.1-1.2,1.6-1.6.4-.9.8-1.5,1-1.9-.4-.8-11.3-1.6-22.7-2-34.1,0-.9,0-1.9.1-2.8,0-.9.2-1.9.4-2.8h0Z"/>
      <path class="st55" d="M268.2,221.3c3.4-2.7,7.8-4.2,11.7-1.5.7-6.4,8-12.6,14.2-13.2,11.9-1.1,18.8,10.6,14.9,21.1,12.2-7.5,26.5,1.9,21.6,16.3,11.4-7.2,26.1.8,18.2,14.4-6.9-1.2-13,2-18.2,6.4,1.8-5.3,1.7-10.6-2.5-14.7-2.8-2.7-5.9-2.9-9.5-3.8,2-9.3-7.6-15.2-15.7-11.4.8-5-5.5-9.8-10-9.4-5.7.5-9.4,8.1-8.9,13.2-4-1.8-7.5-1-11.3.6-1.2.5-2.8,2.5-3.4.9-1.2-.5-1.5-3.1-.4-3.8-.4-.3-.2-.7,0-1.1,0-1.2-.5-2.9.8-3.4,1-1.9,2.2-4.5-.8-5.3l-.3-.8c-.4-1.5-.3-3-.4-4.5h0Z"/>
      <path class="st37" d="M341.3,165.7l.9-.3c1.6.4,8.3,8.8,8.2,9.8,0,.3-.2.6-.4.8.3.1.3.2,0,.4-1.3.4-2.5,1.8-3.4,2.8-4.6,5.1-8.5,11.7-11.4,18l-.8-.9-1.9-5.9v9.6c0,3.3-3.6,8.8-4.2,12.5l-2.6,9.3c-6-13.5-6.9-32.1,5.5-42.4,3.6-3,6.2-3.7,10.6-4.9.5-.1,1.2,0,1.3-.7-5.7-.2-11.4.2-17,1.1.8-1,2.4-1.8,2.1-3.4-3.7,4.4-8.9,5.3-13.6,7.9l.8-3c-3.5,4.9-9.1,7.5-12.9,12.1-1.2-5.7,1.6-13.2,5.5-17.6,7.6-8.6,23.4-10.5,33.3-5.1h0Z"/>
      <path class="st49" d="M261,87.4c.3,16.8,2.3,33.7,2.6,50.5.1,1,1.4,1.1,1.9,1.9.9,1.3.5,4.5-1.5,4.8l-.4-.8c2.8-3.8-.8-5.4-10.9-4.9l-19.5.4-1.1-.7c-.3-.1-.7-.3-.6-.5.3-1.4,2.8-11.3,3.3-11.6,3.9-.1,7.8-.2,11.7-.1l.4-.6c-1-1.4-1.3-3.2-1-5.4.4-4.9.4-9.9,0-14.8-.6-1.1-.9-2.1-.6-3l-.4-.7c3.8-4.6,7.6-9.2,11.4-13.9l1.4-.5c1,0,2-.3,3,0h0Z"/>
      <path class="st75" d="M347.3,161.6l3.8,13.6c.3,1-.3,1.4-1.1.8-.3-1-3.9-5.9-4.7-6.8-1.1-1.2-2.5-2.6-4-3.4.8-.2-.4-1-.6-1.1-2.9-2.9-5.4-6.2-8.9-8.5l-4.9-3.3h7.2l-11.1-2.4c-5.5-2.7-10.9-5.6-17-6.7.2-.7.9-.8,1.5-.9,17.1-5.3,33.1,2.5,39.8,18.7Z"/>
      <path class="st27" d="M232.3,138.5c8.4,0,21.8-1,29.6,0,2.3.3,4.4,1.4,3.5,4.1-.2.8-1.2,1.3-1.3,1.9,0,.1,0,.2,0,.4-.6-.4-1.3-.4-2.1-.4-13.5-.5-27.5.1-41.1,0,.2-1.7-.3-4.1,0-5.7,0-.3,0-.3.4-.4l.4-.8c3.4-.2,6.7-.1,10.1,0l.5.8h0Z"/>
      <path class="st16" d="M353.8,196.4c.1-1,.1-2,0-3.1,1.5-.7,3.6-1.4,3.9.8,2,10.8,3.3,20.4,4.2,31.4,0,1.4-1.5,1.7-1.9.4v-.8c-1.2,0-2.3.1-3.3.1l-.3-10.2-.2.2-2.3-18.9h0Z"/>
      <path class="st50" d="M354.1,176.3c1.2,5.9,2.3,11.8,3.4,17.8l-.4-.8c-.5,0-2.9.3-3,.4-.3.3.4,2.2-.4,2.6-1.2-6.6-2-13.5-3.8-20.1,0-.1,0-.3,0-.4.3-.1.9-.7,1.1-.8,1-.1,2.1.7,3,1.1Z"/>
      <path class="st9" d="M356,215.3c0-.5-.3-1.9.4-1.9l.4,11.3c1-.3,3.7-.9,4.2.2.3.8-.9.5-1.1.9-.4.5-1,.8-1.8.9-.2.2-.6,5.8.7,6.1-.6,2.9,3.3,2.4,3-.3l.8-.2c0,.9,0,1.8,0,2.6v2.4c-1.6-.2-3.1-.2-4.6.2v7.5s-.7.5-.7.5c.4.8.5,2.5.4,3.5,0,1.5-.4,12.2-1,12.5-.2.1-.4.2-.6.2,0-.1,0-.3,0-.4,0-.9,0-1.8,0-2.6l.4-3.8c0-11.6,0-23-.4-34.6,0-1.7,0-3.4,0-5.1h0Z"/>
      <path class="st81" d="M356,258.8c0-1.2-.3-2.9.4-3.8,0,1.2.3,2.9-.4,3.8Z"/>
      <path class="st48" d="M283.7,269c1.2,0,5.3-.3,5.3,1.7v9.6c1.8,0,3.5,0,5.3,0v-.5c3.7.4,5.4-.4,5.1-2.4l-.2-6.9c0-.9.1-1.5,1.2-1.5,1.6,0,7.2-.7,7.2,1.7v9.6c1.9,0,3.8,0,5.7,0l.5-.8c3.5.6,5-.2,4.5-2.5l-.2-7.6.8-.5c1.4,0,5.6-.3,6.4.6,1.1,1.1-.4,8.8.8,10.7,1.9.1,3.8,0,5.6,0l.3-.7c2.3.2,4.6,0,6.9-.2.4-3.2.5-6.6.2-9.9l.8-.5c1.4,0,6.6-.4,7.2.6,1.2,1.8-.1,11.9.3,14.7.1.5.8.1,1.2.2.5.6.2.9-.4,1.2.1,6.6,0,14.5-.8,21.5,1.2,1.2.8,4.8-.4,6.1.3,2.6.3,5.3,0,7.9-.3,1.2-.2,2.4-.2,3.7.9.2.9,2.3-.2,2.4-14.3,0-28.5,0-42.8,0l-1-.4c-2.7-5.4-7.7-9.8-13.8-10.9l-.7-.8h-4.9c-.3,0-.7,0-.8-.3-.1-2-.4-12.7,0-13.8.1-.4.3-.6.8-.7,0-.3.2-.7.4-.8,1.3-.2,7.5-.2,8.7,0l.6.8c-.4-.8,0-2.7.9-3,0,.3-.1.7-.3.8-1.1,0-9.3.3-9.7,0-.3-.2-.5-.4-.6-.8l-.8-.3v-24l.8-.4c-1.5-.1-1.8-3.7,0-3.6h0Z"/>
      <path class="st18" d="M195.6,315.1h93c6.8.6,12.8,6.2,15.5,12.4-40.5,0-81.2.2-121.8,0,2-6.1,6.5-11.8,13.2-12.4Z"/>
      <path class="st22" d="M359.1,307.9c1.8-.7,3.5-.2,5.3.2,12.5,3,21.3,11.9,32.4,17.9.8.4.9.2.7,1.3-14.7,0-29.4,0-44,0-1.2-.6.3-3.7,1.5-3.4l-.2-1.5c1.5-4.3,2.5-8.7,3.4-13.2l1-1.2h0Z"/>
      <path class="st71" d="M102.6,335.6c0,.7-1.2.7-1.7.8-17.3,1.5-35,.7-52.3,0-3.6-.1-7.2.3-10.7-.6l64.7-.2Z"/>
      <path class="st46" d="M143,340.9l-3.6.8c-15.2.4-30.6,1-45.7-.6,2.7-.7,5.4-.4,8.1-.6,1,0,1.9-.4,3-.4,12.7-.4,25.6.1,38.2.8h0Z"/>
      <path class="st65" d="M347.3,321.2c.2.3.4.6.5.9.2.6.3.8.6,1.2.1.2,3.3-.6,3.7-.7,1.9-1,4.7-2.1,4.3,1.2-.5,1.1-1.3,2.1-1.5,3.4-2.6,0-5.3,0-7.9,0,.2-1.9-.5-4.3.4-6.1Z"/>
      <path class="st66" d="M182.3,327.6h-73.4c24.5-.3,49,.2,73.4,0Z"/>
      <path class="st20" d="M363.2,285.3c-.1,2.1-.3,4.8-.8,6.4-1,4-1.1,11.5-1.9,16.3-.9,5.1-2.2,11.1-4.2,15.9-1.1-2.8-2.3-1-4.1-.5-1.3.3-3.4.5-4.4.9-.5.2,0,.9-.6.7,0-1.3,0-2.5,0-3.8,0-2.6,0-5.3,0-7.9,1,.3,1.4,1.3,1.2,2.9v2.8c3.4-10.9,5.7-22.1,7-33.6.2-.4.6-.6,1-.7.7-.3,5.8.3,6.7.7h0Z"/>
      <path class="st81" d="M362.9,250.1c0,2.2,0,3,.4,1.5.7,2.1.4,4.9.4,7.2,0,3.4,0,6.8,0,10.2,0,5-.1,10.1-.4,15.1.1,1-6.4.7-6.7.5-.5-.3-.8-.5-.9-1,.6-11.3,1.2-22.6,1.8-33.9.2-.2,5.4-.6,5.4.4h0Z"/>
      <path class="st65" d="M357.2,245.5c1.2-1,1.7-.2,1.6,2.7,1.2.1,2.3,0,3.5-.3l.6.7c.3.5.3,1,0,1.5h-4.9l-1.5,33.8,6.8.2c0,.4,0,.8,0,1.1-1.5,1.1-6.3-.7-7,.4-1.5,10.8-3.1,22.3-6.7,32.6-.4,1.1-.8,2.9-1.8,3.7-.2-2.8.5-6-.4-8.7,0-2.1.4-4.2.4-6.1v-.9c2.6-6.3,4.4-12.8,5.2-19.6.5,0,.6-.2.1-.8,1.8-.9.9-2.4,1.1-4,1-6.7,1.7-13.5,1.9-20.2,1.3-3.6.6-7.8.7-11.6,0-1.5.3-3.1.4-4.7h0Z"/>
      <path class="st20" d="M363.2,246.3c-.1.8-.3,1.5-.4,2.3-1.1.1-3.7.8-4.6.2-1-.7.5-3.4-1.1-3.2,0-1.3-.2-8.2,0-8.6.4-.6,4.4-.7,5.2,0,0-.6,0-1.3,0-1.9l.8,11.3h0Z"/>
      <path class="st70" d="M362.5,232.3c0,.5-.8,2-.4,3-.7-.1-4,.1-4.2,0s.1-1.8,0-2.4c0-.3-.7,0-.8-.8-.2-1.9.2-4.3,0-6.3.9,0,1.8,0,2.7,0,.6,0,1.6.2,1.9-.4.2,2.1.9,4.5.8,6.8h0Z"/>
      <path class="st9" d="M363.2,251.6c0,2.1,0,4.2,0,6.2,0,.5.3,1.4-.4,1.3,0-3,0-6.1,0-9.1,0-.5,0-1,0-1.5,0-.7-.3-1.9.4-2.3,0,1.8,0,3.5,0,5.3Z"/>
      <path class="st35" d="M258,87.4l-12.5,15.1h-1c-4.5-4.8-12.3-2.9-14,3.4l-.9.2c.3,0,.8.1.8.4.2,5,.5,12.4,0,17.2.2,1.1,0,1.7-.8,1.9v-.5c5.6-.3,11.2-.4,17-.3l.4.8c0,.1.6.6.4,1.1h-12.1s-3.1,11.7-3.1,11.7c-2.9,0-8.4-.5-11,0l1.1-51.1c11.9-.1,23.7.2,35.6,0h0Z"/>
      <path class="st68" d="M220.5,72.3v-13.2h7.2v13.2c-2.4,0-4.8,0-7.2,0Z"/>
      <path class="st82" d="M211.4,72.3c.3-3.8-.4-8.3,0-11.9,0-.4.2-1.3.6-1.3h6.6v13.2c-2.4,0-4.8,0-7.2,0Z"/>
      <path class="st14" d="M243.2,59c.3.6,0,1.2-.1.6,0-.2.3-.3.5,0,.4.5.3,11.7,0,12.3l-1,.4h-4.9c.4-2.1-.6-11.8.2-12.9.4-.6,4.5-.4,5.5-.4h0Z"/>
      <path class="st32" d="M236,59v13.2h-6.4v-.4c0-.7.4-.9,1.4-.8-.5-3.7-.3-7.4,0-11l.9-1.1c1.4,0,2.8,0,4.2,0h0Z"/>
      <path class="st72" d="M243.2,59c.2,0,.5,0,.8,0v13.2h-1.5c-.2-.9.7-.5.8-1.3.3-2.4.2-8.1,0-10.6,0-.9-1.7-.3,0-1.3h0Z"/>
      <path class="st28" d="M243.2,37.1v7.2c1,.1,1,.5,0,.8l-.6,1.5c-2.7,3.1-5,6.5-6.9,10.1l-3.9.5h-.4l-.5-.6c-.1-5.9-.2-11.8,0-17.8l.6-1.3v-.4c3.9,0,7.8,0,11.7,0Z"/>
      <path class="st59" d="M254.6,72.3v-13.2h7.2v13.2c-2.4,0-4.8,0-7.2,0Z"/>
      <path class="st63" d="M245.9,72.3v-13.2h6.4l.4,13.2c-2.3,0-4.5,0-6.8,0Z"/>
      <path class="st59" d="M243.2,44.3c1.7-1,6.6-6.2,8.7-4.9.9.6.2,15.5.4,17.7-3,0-6.1,0-9.1,0-.3,0-.7-.1-.8-.3-.1-1.7-.3-9.1,0-10.3l.8-1.4v-.8h0Z"/>
      <path class="st58" d="M243.2,57.2c-2.9,0-5.8,0-8.7,0h-2.7c.8-.9,2.3,0,3.2-.8.3-.2,2.9-5.1,3.7-6.2,1.2-1.8,2.8-3.8,4.5-5.2v12.1h0Z"/>
      <path class="st25" d="M231.5,37.5c.9,6.4-.5,13.1,0,19.7-4.2,0-8.3,0-12.5,0,0-2.6-.4-4.7.7-7.1,2.3-4.9,6.9-8.5,10.7-12.2h-10.6c0-.7.9-.4,1.3-.4,3.5-.1,7,.1,10.4,0Z"/>
      <path class="st52" d="M231.9,59c-.5,4.1-.7,8.8,0,12.9h-2.3v-12.9c.8,0,1.5,0,2.3,0h0Z"/>
      <path class="st35" d="M263.7,235.3c.2.9,4.1.7,4.9,0h.4c0,.4,0,.8,0,1.1l-.3.8h-38.1l3.7,12.9-.6.7v.9c-5.2,3.1-5.7,8.2-5.6,13.8l.3,16.9c0,.7-.1,1.1-.8,1.3.6.2.7.7.3,1.5h17.6c0,0,2.2.8,2.2.8l1.4,1.3c4.6,9.6,11,19.8,19.5,25.9,1.4,0,4.8,0,3.3,2h-55.3l1.1-79.4,45.8-.4h0Z"/>
      <path class="st62" d="M228.1,225.9c13.5,0,27,0,40.5,0,3.4-.2,4.1,5.1,1.1,6.1-2,.7-5.9.4-8.2.4-14.4-.2-28.8-.4-43.3-.4.2-2,.3-4,.4-6.1,3.1-.7,6.3-.7,9.5,0Z"/>
      <path class="st11" d="M198.6,315.2c6-.2,12.1,0,18.2,0,18.4,0,36.9-.1,55.3,0,.7-.7,1.5-.7,2.3,0,2.8-1.2,6.6-1.2,9.5,0,1.6,0,3.4-.1,4.9,0h-93.1c1,0,2,0,3,0Z"/>
      <path class="st0" d="M268.6,235.3c.2,1.1-.6.7-1.3.8-12.5.5-25-.4-37.5,0-.6-.5.4-.4.8-.4,10.6-.3,21.3.4,31.8,0,.7,0,1.2-.4,1.3-.4,1.6,0,3.3,0,4.9,0h0Z"/>
      <path class="st35" d="M230.4,147.9c-.6,5.1-1.7,10.2-2.3,15.3-.9,8.1-1.6,17.5-1.9,25.7-.4,12.4.3,24.7,1.9,36.9h-9.5c.5-20.4,1.2-40.7,1.9-61.1.2-5.6,0-11.3.4-16.9,3.2,0,6.3,0,9.5,0h0Z"/>
      <path class="st73" d="M229.6,202.4c-.4-4.6-.5-13.9,0-18.4,1-9.5,14.2-11.2,17.7-2.2.7,6.5-.7,14.2,0,20.5,0,.3,0,.6-.3.6h-17l-.5-.6h0Z"/>
      <path class="st30" d="M247.4,202.4c0,.1.6.6.4,1.1h-17.9c-.4,0-.2-.8-.2-1.1h17.8Z"/>
      <path class="st49" d="M269,236.5c0,1.4.3,2.5.4,3.8.7,13,1.2,26.2,2.3,39.2,0,1.2-.2,1,1.1.9.3.5.3,1,0,1.7,0,10.3.9,21.3,2.1,31.8l-.5,1.3c-.8,0-1.5,0-2.3,0-.2-1.9-2.9-.7-4.4-1.5-1.5-.9-6-5.8-7.4-7.4-5.1-5.9-9.4-13-12.5-20.2.8-.6,1-1.2.8-1.7l.7-.6-.5-.7c.2-6.4.4-12.8.6-19.2,1-8.9-6.4-15.2-14.7-12.5l-.9-.5-4.2-14.4h39.4Z"/>
      <path class="st69" d="M283.7,269c-1,1.2,0,2.8,0,3.6v24.8h10.6c.2.6-.4,3-.9,3h-9.7v14.8c-3.1,0-6.3,0-9.5,0-.3-1.8-.6-3.7-.8-5.5-.6-7.5-1.3-15.9-1.5-23.4,0-1.6-.5-5.2.8-5.9.2,0,.7.2.8-.2.5-2.3-1-9.4.9-10.8.9-.6,7.7-.4,9.3-.4h0Z"/>
      <path class="st42" d="M340.1,269c-.4,2.1.8,9.7-.6,11-.7.7-6.4.4-7.8.4.4-2.4-.8-8.8.6-10.6,1-1.3,6-.8,7.8-.8Z"/>
      <path class="st23" d="M353,286c.1,0,.5,0,.7,0-.6,7.2-2.7,14.8-6,21.2,0,0-.4-.4-.4-1.3,0-6.8.7-13.6.4-20.5l1.2-.9c1.4.4,2.8,1,4.2,1.5Z"/>
      <path class="st17" d="M318.9,269c-.4,2.1.6,9.2-.2,10.6-.7,1.1-4.2.7-5.5.8.5-2.2-.8-9.2.2-10.6.9-1.3,3.9-.8,5.5-.8Z"/>
      <path class="st7" d="M300.4,269c-1.2,2.5.4,8.5-.6,10.6-.6,1.2-4.2.7-5.5.8.4-2.3-.7-9.1.3-10.7.6-1,4.5-.6,5.7-.6Z"/>
      <path class="st74" d="M245.5,102.5c.8,1.1,1.4,2.2,1.5,3.6.7,6.1-.7,13.4,0,19.5h-17.4v-19.5c0-.1.9-2.3,1.1-2.7,3-5.4,11.1-5.9,14.8-.9Z"/>
      <path class="st36" d="M249.3,283.8l-.3.8h-20.8l-.5-.8c.6-6.9-1.4-22.2.9-27.6.8-1.7,3.4-4.5,5.1-5.3,6.1-2.8,14.8.9,15.9,7.8,1.3,8.3-.2,17-.3,25.1Z"/>
      <path class="st4" d="M249.3,283.8c0,2.1,1.8,2.1-1.5,2.3-6.8.3-13.7-.2-20.4,0-.4-.8.3-1.9.4-2.3h21.6Z"/>
      <path class="st21" d="M244.4,199h-11.4v-14.9c0-.3,1.2-2.7,1.5-3,2.1-2.4,6.2-2.3,8.3,0,.3.4,1.5,2.3,1.5,2.6v15.3Z"/>
      <path class="st21" d="M244,122.2h-11v-16.1c0-.2,1.5-2.3,1.9-2.6,2.5-2,6.4-1.3,8.1,1.3.2.3,1,1.9,1,2.1v15.3h0Z"/>
      <path class="st18" d="M246.6,280.4h-15.5v-21.4c0-.5,1.4-2.9,1.9-3.4,3.1-3.4,8.6-3.4,11.6.2.6.7,2.1,3.5,2.1,4.4v20.2h0Z"/>
    </g>
  </g>
  <path class="st56" d="M404.6,32.6c0,2.2-3,1.7-5.2,8.2,0,0-7.8,26.5-8,27.3-.6,2-2.5,3.5-4.8,3.5h-4.3c-2,0-3.9-1.3-4.7-3.4l-7.1-21.7-6.6,21.5c-.6,1.9-2.5,3.5-4.8,3.5h-4.3c-2,0-3.9-1.3-4.7-3.4l-8-27c-2-7-5.3-6.4-5.3-8.6s.8-2,2.1-2h14.7c2.1,0,3,.9,3,2,0,2.2-2,1.6.2,8.6l5.5,18.8,7.9-25.7c.6-2.1,2.5-3.6,4.8-3.6h1.8c2.2,0,4.2,1.5,4.8,3.5l8.3,25.8,5.4-18.8c1.7-6.9,0-6.4,0-8.6s.9-2,2.9-2h4.3c1.3,0,2.1.9,2.1,2Z"/>
  <path class="st56" d="M472.8,29.3c-2.6,0-5.7.9-7.4,2.2V13.5c0-1.4-1.1-2.5-2.5-2.5-4.3,0-6.1,4.8-11.6,4.8s-2.2.8-2.2,2c0,2.2,2.2,1.4,2.2,8.7v23.7c-2,3.2-5.1,8.2-9.5,11.6-2.9,2.2-6.4,3.8-10.6,3.8s-1.8,0-2.6-.3c-3.1-.7-5.5-2.7-7.2-5.3-7.3-10.9,26.3-3.4,22.5-17.7-1.9-7.1-10.9-12.9-20-12.9s-20.3,9.7-20.3,21.8,10.2,21.8,22.9,21.8.9,0,1.3,0c5.9-.3,10.6-2.7,14.3-5.7,4.2-3.5,7.2-7.8,9.1-10.9v4.8c0,7.2-2.1,6.4-2.1,8.6s.8,2,2.1,2c2.5,0,6.4-3.4,11.1-1.1,3,1.5,6.1,2.4,9.3,2.4,12.6,0,23-8.6,23-21.9s-10-21.7-21.9-21.7ZM418.7,53.8c-2.4-8-.7-20.5,5.3-20.5s10.9,12.5,2.8,15.6c-3.6,1.4-6.6,2.5-8.1,4.8ZM471.7,69c-3,0-6.3-1.8-6.3-7.3v-12.4c0-9.6-10.7,2.5-13.9,6.4,6.6-10.3,13.3-22.4,20.2-22.4s8.4,7.5,8.4,17.8-2.9,17.9-8.4,17.9Z"/>
  <path class="st56" d="M543.4,54.4c-.4,13.9-14.1,18.5-26.2,18.5s-19.6-5.3-19.6-14.2,3.1-7,7-7,7,3.2,7,7,.6,8.9,7.8,8.9,9.6-8.8,9.6-13.2-.9-13.8-11.9-13.8-3.4-2.3-2.2-4.1l12.1-14.3h-11.2c-6.8,0-9.1,4.4-10.9,8.9-.3.7-1.4,2-3.1,1.6-1.5-.4-2.3-1.8-2-3.3l4.2-15.5c.3-1.4,1.6-2.3,3-2.3h28.9c2.7,0,4.2,3.2,2.5,5.2l-15.7,18.8c12.5,1.2,21.4,7.8,21,18.7Z"/>
  <path class="st64" d="M334.3,112c-2.1,4.4-9.3,10.4-19.4,10.4s-23-9.7-23-21.8,8.2-21.8,20.3-21.8,19,6.8,19,14-3.1,6.9-7,6.9-7-3.2-7-6.9c0-6.6-1.6-10.1-5.1-10.1-9.8.2-9.5,33.7,9,32.2,3.1-.2,6.8-1.1,10.1-4.8.4-.4,1.3-1.1,2.5-.3.5.3,1.1,1.1.5,2.2Z"/>
  <path class="st64" d="M357.3,78.8c9.1,0,18.1,5.7,20,12.9,3.8,14.3-29.8,6.8-22.5,17.7,2.5,3.7,6.2,6,11.6,5.6,6.6-.6,9.5-4.3,10.1-4.9,1.1-1.1,2.2-.5,2.5-.2.7.7.7,1.6.4,2.1-2.6,4.9-9.8,10.4-19.4,10.4s-22.9-9.7-22.9-21.8,8.1-21.8,20.3-21.8ZM351.9,103.2c1.5-2.4,4.5-3.4,8.1-4.8,8.1-3.2,3.6-15.6-2.8-15.6s-7.7,12.5-5.3,20.5Z"/>
  <path class="st64" d="M423.8,81.8c0,2.5-2.4,1.3-5.4,8.8l-11.4,31.7c-3.4,9.9-7.5,20.4-17.7,20.4s-13.9-5-13.9-10.4,2.5-5.6,5.7-5.6,3.4.8,4.6,2.3c1.1,1.5,1.2,3.3,1.3,4.1.2,2.7-.5,5.7,4.1,5.7s11.1-12.1,8.1-18l-15.1-30.3c-3.9-6.8-6.5-6.2-6.5-8.4s.9-2,2.2-2h15.3c2,0,3.2.7,3.2,2,0,2.2-1.6,1.6,1.6,8.6l8,17.7,6.3-17.7c2.5-7.5,1.2-6.4,1.2-8.6s1.2-2,2.5-2h3.9c1.3,0,2,.9,2,1.7Z"/>
  <path class="st64" d="M442.2,110.5v-39.2c-4.3,3-9,4.6-14.1,4.9h0v34.3c0,7.2-2.2,6.4-2.2,8.6s.9,2,2.2,2h14.2c1.2,0,2.1-.9,2.1-2,0-2.2-2.2-1.4-2.2-8.6Z"/>
  <path class="st64" d="M471.1,78.8c12.6,0,22.9,9.7,22.9,21.8s-10.2,21.8-22.9,21.8-23-9.7-23-21.8,10.2-21.8,23-21.8ZM463.2,102.7c2.5,9.5,8.1,16.2,12.5,15.1,4.3-1.1,5.8-9.8,3.3-19.3-2.5-9.5-8.1-16.2-12.5-15.1-4.3,1.1-5.7,9.8-3.2,19.3Z"/>
  <path class="st64" d="M542.6,119.1c0,1.1-.9,2-2.1,2h-14.2c-1.3,0-2.2-.9-2.2-2,0-2.2,2.2-1.4,2.2-8.6v-17.6c0-4.3-2.8-6.2-5.7-6.2s-6.6,2.4-6.6,6.2v17.6c0,7.2,2.2,6.4,2.2,8.6s-.9,2-2.2,2h-14.2c-1.2,0-2.1-.9-2.1-2,0-2.2,2.2-1.4,2.2-8.6v-15.1c0-7.2-2.2-6.4-2.2-8.6s.9-2,2.1-2c5.6,0,7.4-4.8,11.6-4.8s2.5,1.1,2.5,2.5v2.5c3.5-3.9,8.5-6.4,13.4-6.4,7.1,0,13,4.8,13,16.7v15c0,7.2,2.2,6.4,2.2,8.6Z"/>
  <path class="st56" d="M466.4,148.2c-1.4,0-2.7-.2-3.9-.8-1.2-.5-2.2-1.2-3-2.1-.9-.9-1.5-2-2-3.2-.5-1.2-.7-2.6-.7-4.1s.2-2.7.7-3.9c.5-1.2,1.2-2.2,2-3.1.9-.9,1.9-1.5,3.1-2,1.2-.5,2.5-.7,4-.7s1.2,0,1.8.2c.6.1,1.3.3,1.9.5.6.2,1.1.5,1.6.8.4.2.7.5.9.7.2.2.4.5.4.8,0,.1,0,.3,0,.5,0,.2-.2.4-.3.6-.2.3-.4.5-.7.7-.2.1-.5.2-.7.2s-.3,0-.5-.1c-.2,0-.5-.2-.8-.4-.2-.1-.6-.3-.9-.4-.4-.1-.8-.3-1.3-.4-.5-.1-1-.2-1.5-.2-1.2,0-2.3.3-3.3.8-1,.5-1.7,1.3-2.2,2.2-.5,1-.8,2.1-.8,3.3s.3,2.5.8,3.5c.5,1,1.3,1.8,2.2,2.4.9.6,2,.9,3.3.9s.9,0,1.3,0c.4,0,.9-.1,1.3-.2.4-.1.8-.2,1.2-.4v-4.4h-3.9c-.3,0-.5,0-.7,0-.2,0-.4-.2-.5-.4-.1-.2-.2-.6-.2-1s0-.8.2-1c.1-.2.3-.3.5-.4.2,0,.5,0,.7,0h5.7c.5,0,.8,0,1.1.2.2.2.4.4.4.6s.1.5.1.9v6.5c0,.4-.2.8-.5,1.2-.4.4-.9.8-1.5,1.1-.4.2-.9.4-1.5.6-.5.2-1.1.3-1.8.4-.6,0-1.3.1-1.9.1h0Z"/>
  <path class="st56" d="M494.5,145.6c.2.4.3.7.3.9,0,.3,0,.5-.2.7-.2.2-.4.4-.8.6-.6.3-1.1.4-1.4.2-.3-.1-.6-.5-.9-1.1l-6.2-13.1-6.2,13.1c-.3.6-.6.9-.9,1.1-.3.1-.8,0-1.4-.2-.4-.2-.6-.4-.8-.6-.2-.2-.2-.5-.2-.7,0-.3.1-.6.3-1l7.7-16c.1-.3.4-.5.7-.7.3-.2.6-.3.9-.3s.4,0,.6.1c.2,0,.4.2.5.3.2.1.3.3.4.6l7.7,16.1h0ZM480.2,143l1.3-2.9h7.3l1.3,2.9h-9.9,0Z"/>
  <path class="st56" d="M498.4,148c-.5,0-.9,0-1.2-.2-.2-.2-.4-.4-.5-.6,0-.3,0-.5,0-.8v-16.1c0-.3,0-.6,0-.9,0-.2.2-.5.4-.6.2-.2.6-.2,1.2-.2s.9,0,1.1.2c.2.2.4.4.4.6,0,.2,0,.5,0,.9v14.8h8.5c.3,0,.5,0,.8,0,.2,0,.4.2.5.4.1.2.2.6.2,1s0,.8-.2,1c-.1.2-.3.4-.5.4-.2,0-.5,0-.8,0h-10.2Z"/>
  <path class="st56" d="M514.1,148c-.5,0-.9,0-1.2-.2-.2-.2-.4-.4-.5-.6,0-.3,0-.5,0-.8v-16.1c0-.3,0-.6,0-.9,0-.2.2-.5.4-.6.2-.2.6-.2,1.2-.2s.9,0,1.1.2c.2.2.4.4.4.6,0,.2,0,.5,0,.9v14.8h8.5c.3,0,.5,0,.8,0s.4.2.5.4c.1.2.2.6.2,1s0,.8-.2,1-.3.4-.5.4c-.2,0-.5,0-.8,0h-10.2Z"/>
  <path class="st56" d="M529.9,148c-.5,0-.9,0-1.2-.2-.2-.2-.4-.4-.4-.6,0-.3,0-.5,0-.9v-16.1c0-.7.1-1.1.4-1.3.3-.2.7-.4,1.4-.4h10.9c.3,0,.6,0,.9,0,.3,0,.5.2.6.5.1.2.2.6.2,1.2s0,.9-.2,1.1c-.2.2-.4.4-.6.4-.3,0-.5,0-.9,0h-9.2v4.7h6.3c.3,0,.6,0,.8,0,.2,0,.4.2.5.4.1.2.2.6.2,1.1s0,.8-.2,1c-.1.2-.3.3-.6.4-.2,0-.5,0-.9,0h-6.3v5h9.2c.3,0,.6,0,.9,0,.3,0,.5.2.6.5.1.2.2.6.2,1.1s0,.9-.2,1.1c-.2.2-.4.4-.6.5-.3,0-.5,0-.9,0h-10.9Z"/>
  <path class="st64" d="M497.7,154.1c0,0,.2,0,.3,0,0,0,.1,0,.2.1,0,0,0,.2,0,.4s0,.3,0,.3c0,0-.1.1-.2.1,0,0-.2,0-.3,0h-1.8v5.2c0,.1,0,.2,0,.3,0,0,0,.2-.2.2,0,0-.2,0-.4,0s-.3,0-.4,0c0,0-.1-.1-.2-.2,0,0,0-.2,0-.3v-5.2h-1.8c0,0-.2,0-.3,0,0,0-.1,0-.2-.1,0,0,0-.2,0-.4s0-.3,0-.4c0,0,.1-.1.2-.1,0,0,.2,0,.3,0h4.8,0Z"/>
  <path class="st64" d="M502.1,161c-.5,0-.9,0-1.3-.3s-.8-.4-1.1-.7-.5-.7-.7-1.1c-.2-.4-.3-.9-.3-1.3s0-.9.3-1.4c.2-.4.4-.8.7-1.1.3-.3.7-.6,1.1-.8.4-.2.8-.3,1.3-.3s.9,0,1.3.3c.4.2.8.4,1.1.7.3.3.5.7.7,1.1.2.4.3.9.3,1.4s0,.9-.3,1.3c-.2.4-.4.8-.7,1.1-.3.3-.7.6-1.1.8-.4.2-.8.3-1.3.3h0ZM502,159.8c.3,0,.6,0,.8-.2.3-.1.5-.3.7-.5s.3-.4.5-.7c.1-.3.2-.6.2-.9s0-.6-.2-.9c-.1-.3-.3-.5-.5-.7s-.4-.4-.7-.5-.5-.2-.8-.2-.6,0-.8.2-.5.3-.7.5c-.2.2-.4.5-.5.7-.1.3-.2.6-.2.9s0,.6.2.9c.1.3.3.5.5.7.2.2.4.4.7.5.3.1.5.2.8.2h0Z"/>
  <path class="st64" d="M509,161c-.5,0-.9,0-1.2-.3-.4-.2-.6-.4-.9-.7-.2-.3-.4-.6-.5-1-.1-.4-.2-.8-.2-1.2v-3.1c0-.1,0-.2,0-.3,0,0,0-.2.2-.2,0,0,.2,0,.4,0s.3,0,.4,0c0,0,.1.1.2.2,0,0,0,.2,0,.3v3.1c0,.4,0,.7.2,1,.1.3.3.5.5.7.2.2.6.3.9.3s.6,0,.9-.2c.2-.2.4-.4.6-.7.1-.3.2-.7.2-1.1v-3.1c0,0,0-.2,0-.3,0,0,0-.1.2-.2,0,0,.2,0,.4,0s.3,0,.4,0c0,0,.1.1.2.2,0,0,0,.2,0,.3v3.1c0,.4,0,.8-.2,1.2-.1.4-.3.7-.6,1-.2.3-.5.5-.9.7-.4.2-.8.3-1.2.3h0Z"/>
  <path class="st64" d="M513.6,160.9c-.2,0-.3,0-.4,0,0,0-.1-.1-.2-.2,0,0,0-.2,0-.3v-5.6c0-.1,0-.2,0-.3,0,0,0-.2.2-.2,0,0,.2,0,.4,0h2.1c.3,0,.6,0,.8.1.3,0,.5.2.7.4.2.2.4.4.5.7.1.3.2.6.2,1s0,.5-.1.7-.2.5-.3.7c-.2.2-.3.4-.6.5-.2.1-.5.2-.8.3h-1.9v1.6c0,.1,0,.2,0,.3,0,0,0,.2-.2.2,0,0-.2,0-.4,0h0ZM514.2,157.5h1.6c.1,0,.2,0,.3,0,.1,0,.2-.1.3-.2,0,0,.2-.2.2-.3,0-.1,0-.3,0-.5s0-.4-.1-.6c0-.2-.2-.3-.4-.4-.2,0-.4-.1-.6-.1h-1.5v2.2h0ZM517.8,160.8c-.2.1-.3.2-.5.2-.1,0-.2-.1-.4-.3l-1.6-2.5,1.3-.2,1.3,2c0,.1.1.2.2.3,0,0,0,.2,0,.3,0,0-.1.2-.3.3h0Z"/>
  <path class="st64" d="M521.8,160.9c-.2,0-.3,0-.4-.2-.1-.1-.2-.3-.2-.4s0-.2,0-.3c0,0,0-.2,0-.3,0,0,.1-.2.2-.3.3-.2.6-.5.9-.7.3-.2.6-.4.9-.6.3-.2.5-.4.8-.6.2-.2.4-.4.5-.6.1-.2.2-.4.2-.7s0-.4-.1-.5c0-.2-.2-.3-.4-.4-.2,0-.4-.1-.7-.1s-.4,0-.5,0c-.2,0-.3.1-.4.2-.1.1-.2.2-.2.4,0,.2,0,.3,0,.5s0,.2,0,.3c0,0,0,.2-.2.2,0,0-.2,0-.4,0s-.3,0-.4,0c0,0-.1-.1-.1-.2,0,0,0-.2,0-.3,0-.3,0-.6.2-.9.1-.3.3-.5.5-.8.2-.2.5-.4.8-.5.3-.1.6-.2,1-.2s.9,0,1.3.3c.4.2.6.5.8.8.2.4.3.8.3,1.3s0,.5-.1.7c0,.2-.2.4-.3.6-.1.2-.3.4-.5.5-.2.2-.4.3-.6.5-.2.1-.4.3-.6.4s-.4.2-.6.4l-.4.2h2.8c.1,0,.2,0,.3,0,0,0,.2,0,.2.2,0,0,0,.2,0,.4s0,.3,0,.4c0,0-.1.1-.2.2,0,0-.2,0-.3,0h-3.9,0Z"/>
  <path class="st64" d="M529.4,161c-.4,0-.7,0-1-.2-.3-.1-.5-.3-.7-.5-.2-.2-.4-.5-.5-.8-.1-.3-.2-.6-.3-.9,0-.3,0-.7,0-1s0-.7,0-1c0-.3.1-.7.3-.9.1-.3.3-.6.5-.8.2-.2.4-.4.7-.5s.6-.2,1-.2.7,0,1,.2c.3.1.5.3.7.5.2.2.3.5.5.8.1.3.2.6.3.9,0,.3,0,.7,0,1s0,.7,0,1c0,.3-.1.7-.3,1-.1.3-.3.6-.5.8-.2.2-.4.4-.7.5-.3.1-.6.2-1,.2h0ZM529.4,159.8c.3,0,.5,0,.6-.2.2-.1.3-.3.4-.4,0-.2.2-.4.2-.6,0-.2,0-.4,0-.6,0-.2,0-.3,0-.5h0c0-.5,0-1-.1-1.3,0-.3-.2-.6-.4-.8-.2-.2-.4-.3-.7-.3s-.5,0-.7.3c-.2.2-.3.4-.4.8s-.1.8-.1,1.3,0,.9.1,1.2c0,.3.2.6.4.8.2.2.4.3.7.3h0Z"/>
  <path class="st64" d="M533.1,160.9c-.2,0-.3,0-.4-.2-.1-.1-.2-.3-.2-.4s0-.2,0-.3c0,0,0-.2,0-.3,0,0,.1-.2.2-.3.3-.2.6-.5.9-.7.3-.2.6-.4.9-.6.3-.2.5-.4.8-.6.2-.2.4-.4.5-.6.1-.2.2-.4.2-.7s0-.4-.1-.5c0-.2-.2-.3-.4-.4-.2,0-.4-.1-.7-.1s-.4,0-.5,0c-.2,0-.3.1-.4.2-.1.1-.2.2-.2.4,0,.2,0,.3,0,.5s0,.2,0,.3c0,0,0,.2-.2.2,0,0-.2,0-.4,0s-.3,0-.4,0c0,0-.1-.1-.1-.2,0,0,0-.2,0-.3,0-.3,0-.6.2-.9.1-.3.3-.5.5-.8.2-.2.5-.4.8-.5.3-.1.6-.2,1-.2s.9,0,1.3.3c.4.2.6.5.8.8.2.4.3.8.3,1.3s0,.5-.1.7c0,.2-.2.4-.3.6-.1.2-.3.4-.5.5-.2.2-.4.3-.6.5-.2.1-.4.3-.6.4s-.4.2-.6.4l-.4.2h2.8c.1,0,.2,0,.3,0,0,0,.2,0,.2.2,0,0,0,.2,0,.4s0,.3,0,.4c0,0-.1.1-.2.2,0,0-.2,0-.3,0h-3.9,0Z"/>
  <path class="st64" d="M540.3,161c-.3,0-.5,0-.7,0-.2,0-.4-.1-.5-.2-.2,0-.3-.1-.4-.2-.1,0-.2-.1-.3-.2,0,0-.1-.1-.2-.2,0,0,0-.1,0-.2s0-.1,0-.2c0,0,0-.1.2-.2,0,0,.1-.2.2-.2,0,0,.1,0,.2,0s.1,0,.2,0c0,0,.2,0,.3.2,0,0,.1,0,.2.1,0,0,.2,0,.3.1.1,0,.3,0,.5,0s.4,0,.6-.1c.2,0,.3-.2.4-.4,0-.2.1-.3.1-.6s0-.4-.1-.5c0-.2-.2-.3-.4-.4-.2,0-.3-.1-.5-.1s-.2,0-.3,0c0,0-.2,0-.2,0s-.1,0-.2.1c0,0-.1,0-.2.1,0,0-.1,0-.2,0,0,0-.2,0-.2,0,0,0-.2,0-.3-.1-.1,0-.3-.1-.3-.2,0,0,0-.1,0-.2l.4-2.9c0,0,0-.2,0-.3,0,0,0-.2.2-.2,0,0,.2-.1.4,0h2.4c.1,0,.2,0,.3,0,0,0,.2,0,.2.2,0,0,0,.2,0,.4s0,.3,0,.4-.1.1-.2.2c0,0-.2,0-.3,0h-1.9l-.2,1.4c0,0,.1,0,.2-.1,0,0,.1,0,.2,0,0,0,.1,0,.2,0h0c.3,0,.6,0,.8.2.3.1.5.3.7.5.2.2.4.4.5.7.1.3.2.5.2.8,0,.4,0,.8-.3,1.2-.2.4-.5.6-.8.8-.3.2-.7.3-1.1.3h0Z"/>
</svg>