<svg width="551" height="356" viewBox="0 0 551 356" fill="none" xmlns="http://www.w3.org/2000/svg">
<mask id="mask0_584_2901" style="mask-type:luminance" maskUnits="userSpaceOnUse" x="0" y="0" width="489" height="356">
<path d="M488.53 0.689453H0.476562V355.283H488.53V0.689453Z" fill="white"/>
</mask>
<g mask="url(#mask0_584_2901)">
<path d="M306.063 332.192C319.942 331.125 333.86 331.161 347.739 332.192C350.31 331.45 352.916 331.45 355.487 332.192C369.867 331.215 384.26 331.215 398.64 332.192C419.156 331.106 439.722 331.052 460.236 332.192C465.045 334.274 474.835 333.694 479.258 335.721C479.859 336.101 477.65 336.862 476.624 336.862C427.56 336.409 378.904 336.88 330.656 338.291C325.652 338.744 316.906 339.594 313.443 343.413C310.694 348.553 309.082 350.236 303.354 351.611C301.252 352.1 299.12 352.444 296.978 352.734C286.148 354.236 274.773 354.471 264.011 354.489C263.7 354.797 263.21 355.068 262.535 355.267C189.81 355.285 117.077 355.231 44.3489 355.285C34.1247 354.833 20.8843 352.589 13.0266 345.259C10.0213 342.454 9.52198 338.128 9.67215 334.889C22.6447 334.798 38.5954 335.034 51.559 334.889C53.8803 333.64 58.2678 333.26 60.5964 334.509C60.6289 334.201 60.7339 333.749 60.9347 333.731C65.4941 333.513 71.7687 333.369 76.2539 333.731C77.3829 333.495 78.0632 333.749 78.3003 334.509L78.8015 333.731C80.2597 333.441 83.9145 333.061 84.7558 334.111C88.7199 333.93 92.8813 333.549 96.9269 333.35C100.213 331.939 104.993 331.45 108.362 332.572C109.829 331.414 112.02 331.45 113.525 332.572C114.262 332.572 115 332.59 115.738 332.572L185.361 331.486C185.037 331.378 186.975 332.337 187.292 332.192C193.883 331.83 200.481 331.505 207.084 331.486C233.477 331.396 259.884 331.378 286.278 331.45C292.876 331.468 299.469 331.83 306.059 332.192H306.063Z" fill="#1766D1"/>
<path d="M469.296 346.453C444.268 346.145 419.307 346.145 394.411 346.453L388.013 347.231C387.946 347.792 388.996 347.919 389.361 347.955C393.68 348.425 410.848 346.959 413.226 349.71C416.135 353.076 405.459 355.592 403.443 355.266C355.759 355.266 307.855 355.158 259.729 354.922L259.691 354.506C262.807 354.85 265.848 353.981 268.915 353.746C276.72 353.149 300.04 352.895 305.579 348.552C308.564 346.199 307.679 342.996 312.872 340.661C321.884 336.553 340.091 337.187 350.208 336.897C391.892 335.775 433.765 336.571 475.509 336.137C476.146 336.119 478.97 336.517 479.363 335.865C479.363 338.815 479.46 339.847 478.116 341.856C476.202 344.697 472.522 346.018 469.296 346.453Z" fill="#3797F3"/>
<path d="M361.88 273.209C362.76 272.069 365.996 273.318 367.248 273.951C368.931 274.802 370.156 275.816 371.023 277.571C372.823 275.87 375.692 275.562 378.075 275.743C379.244 266.151 391.106 260.287 396.181 270.06C407.217 264.323 420.831 274.44 415.58 286.892C426.989 283.887 438.544 292.556 433.315 304.917C437.818 305.026 442.841 306.926 444.076 311.794C446.077 310.654 448.077 310.835 450.157 311.179C450.516 316.735 448.073 321.73 443.398 324.608L442.135 324.535C424.599 315.703 406.519 308.283 386.988 305.496C378.754 303.632 370.715 300.809 362.819 297.768C362.439 297.642 362.094 297.388 361.745 297.117C361.395 296.864 361.064 296.538 360.753 296.212L360.129 295.56L360.715 290.294L361.504 289.697C360.435 289.389 360.588 289.117 361.504 288.556C360.57 283.652 360.648 278.06 361.88 273.209Z" fill="#00485F"/>
<path d="M387.028 247.15C395.796 245.829 403.243 252.398 403.205 261.321C404.79 260.723 406.015 259.692 407.712 259.221C416.502 256.742 426.686 262.443 425.364 272.596C425.159 274.17 424.204 275.527 423.891 277.048C426.938 276.125 429.579 276.957 431.968 278.966C432.621 279.527 433.743 281.283 433.889 281.283C434.419 281.319 436.315 280.269 437.274 280.143C439.467 279.853 443.156 279.98 445.213 280.794C452.688 283.798 453.679 297.173 446.563 301.118L443.449 301.571C447.605 302.928 449.937 306.801 450.214 311.163C449.107 312.411 448.121 311.434 446.744 311.615C446.149 311.687 443.652 312.918 443.446 312.701C443.059 307.507 436.665 305.226 432.163 305.787C432.369 304.756 433.068 304.14 433.404 303.036C434.942 297.897 433.031 292.25 428.597 289.3C424.001 286.242 419.198 287.128 414.11 288.16C417.806 281.627 416.106 275.093 409.938 271.13C405.116 268.053 400.528 268.886 395.684 271.293C395.472 268.831 392.507 266.297 390.193 265.972C383.538 265.031 379.504 270.532 378.751 276.668C376.757 276.125 374.096 276.595 372.223 277.482C371.583 277.772 371.3 278.767 370.488 278.568C369.292 274.677 365.286 273.917 361.831 273.211C360.778 269.845 360.752 266.225 361.831 262.859C365.194 257.81 370.539 256.76 375.366 260.56C375.947 255.71 378.331 250.987 382.773 248.761C383.555 248.362 386.307 247.258 387.034 247.15H387.028Z" fill="#006374"/>
<path d="M443.862 324.59C446.507 325.911 449.116 327.63 451.881 328.879C454.645 330.146 457.546 331.213 460.412 332.281C439.48 332.245 418.53 332.299 397.599 332.281C391.396 328.571 385.116 324.517 378.755 320.101C373.233 316.753 366.321 312.844 359.926 313.26L359.238 312.681L358.621 311.794C359.043 306.727 359.58 301.696 360.231 296.683L361.122 296.176C368.096 298.637 374.961 301.388 382.102 303.361C389.712 305.46 397.412 306.492 404.991 308.41C419.095 311.993 430.987 318.129 443.869 324.59H443.862Z" fill="#FE8500"/>
<path d="M366.739 145.6L367.042 146.632C366.195 148.17 365.176 149.6 363.953 150.849C364.65 150.975 364.999 151.374 365.071 152.097L360.848 165.816C364.724 162.015 369.128 158.522 374.413 156.966L375.552 157.472C389.593 154.269 405.127 161.671 410.618 175.1C410.953 175.932 411.593 177.308 411.393 178.158C409.285 176.711 406.902 175.281 404.559 174.267C401.984 173.145 399.041 172.711 396.752 171.716C394.271 170.648 391.434 167.933 388.695 167.137C388.326 167.028 387.713 166.811 387.821 167.426C389.679 168.205 391.619 169.652 392.8 171.263C389.886 171.01 386.904 170.593 383.984 170.503L382.317 171.227C375.196 171.281 368.212 172.06 361.369 173.562C363.532 173.073 365.712 172.82 367.915 172.801L368.46 173.562C369.41 172.331 373.083 173.652 374.528 174.231C382.041 177.326 388.438 181.832 390.883 190.049C391.921 193.415 393.007 196.6 393.949 200.021C394.487 205.106 394.604 210.282 393.757 215.35C390.392 209.16 386.396 203.478 381.88 198.084C381.082 197.143 379.368 195.949 378.84 195.008C377.966 193.415 377.445 188.402 376.886 186.212C376.774 185.778 376.908 184.981 376.318 185.072V192.347C375.647 192.528 375.552 192.076 375.163 191.786C369.2 187.207 366.9 182.719 359.07 179.317C358.408 180.276 356.437 179.081 356.003 178.158C355.724 178.249 355.39 178.303 355.241 178.122C354.827 177.561 351.297 165.635 351.552 165.019L352.171 164.368C350.307 155.283 354.838 145.89 360.986 139.447C364.823 135.447 369.806 132.262 374.782 129.873C375.133 130.253 370.523 137.655 369.985 138.687C368.809 140.931 367.901 143.356 366.736 145.6H366.739Z" fill="#FE9C00"/>
<path d="M112.067 148.153C112.248 148.786 112.42 149.365 112.592 149.908C111.351 154.487 110.234 159.048 109.25 163.59L107.852 163.862C108.11 165.056 107.13 165.509 106.317 164.622C105.463 166.233 102.684 167.572 100.951 167.68C96.3934 169.707 92.7531 173.617 89.0694 176.892V170.377L86.1727 179.553C80.1966 184.457 75.4618 191.208 72.2883 198.248C72.0277 198.827 71.5483 201.723 71.058 199.696C67.7886 186.177 73.3612 169.653 85.5015 162.396C87.2131 161.382 92.84 158.867 94.6221 158.867H100.756C101.002 158.867 102.742 159.935 102.86 158.885C96.7625 156.641 90.231 155.301 83.6995 155.428C83.9709 153.98 84.7036 152.695 85.6119 151.591C85.1016 151.139 81.2117 154.722 80.3451 154.958C77.8193 155.609 72.7334 154.939 69.9018 155.428C69.9127 154.197 71.0308 153.347 71.8124 152.551C70.0737 152.243 68.9538 155.265 67.5697 155.971C65.574 157.003 61.8215 156.985 59.6739 158.432L52.6484 162.323C59.0153 140.045 90.05 135.249 104.39 152.75L97.4898 131.846C97.3867 131.249 97.4211 131.249 97.9964 131.34C99.2955 131.575 100.687 131.901 101.91 132.426C102.664 131.485 101.42 131.72 100.683 131.358C94.4937 128.39 95.2554 126.308 92.0547 120.807C90.7792 118.617 89.2141 116.59 87.9115 114.418C101.242 119.142 113.442 133.385 112.058 148.153H112.067Z" fill="#FE9B00"/>
<path d="M102.205 187.444C102.416 186.321 106.16 187.389 106.371 187.733C106.744 188.312 106.071 193.416 105.62 193.814C102.105 193.018 102.689 193.416 105.689 194.248C105.42 196.493 105.282 198.701 105.278 200.89C104.879 210.084 103.227 219.821 102.588 229.123C100.667 257.103 100.507 285.969 102.588 314.003C102.717 315.704 102.943 317.93 103.353 319.577C104.131 323.649 104.855 327.739 105.516 331.848L104.893 333.024C100.893 333.114 96.8997 333.585 92.9681 333.784C91.4574 319.469 91.0593 304.99 91.4139 290.548C91.5026 286.856 91.6564 282.983 91.8138 279.237C93.1219 248.579 97.0426 217.758 102.201 187.444H102.205Z" fill="#00489B"/>
<path d="M212.654 73.9152C213.339 72.956 213.88 72.956 214.57 73.9152C216.965 72.8474 219.449 72.8655 221.854 73.9152C222.465 73.155 223.153 73.1731 223.768 73.9152C226.214 72.956 228.602 72.9741 231.052 73.9152C231.669 73.1731 232.351 73.1731 232.968 73.9152C235.271 73.3903 237.446 73.3903 239.485 73.9152C239.968 73.1731 240.535 73.1731 241.018 73.9152C242.666 73.155 244.352 73.155 246.001 73.9152C246.563 73.2998 247.104 73.155 247.533 73.9152L247.598 74.7478C243.961 76.4671 240.555 78.5483 237.368 80.9734L235.268 81.5887L237.472 80.8287H267.193L267.656 81.5887C266.918 80.5752 269.856 77.9511 270.914 78.5302C269.328 83.3624 266.031 82.0594 265.333 83.091C265.184 83.3081 264.544 87.7782 264.52 88.3754C264.51 88.665 264.786 88.8279 264.786 88.8641C264.786 88.9908 264.786 89.1174 264.786 89.2441C264.434 90.1309 261.881 90.3481 261.72 89.2441C260.147 89.6966 258.55 89.9682 256.923 90.0768L226.437 89.9862L225.313 140.552L224.535 140.986C224.846 141.493 224.662 141.656 224.153 141.385L223.754 142.109L219.802 141.728C217.928 142.072 214.87 142.507 213.417 141.385C214.459 123.63 215.08 105.84 216.1 88.1041C216.203 86.2943 216.457 84.5206 216.486 82.7289C211.313 82.9461 207.989 79.0188 208.818 73.9152C210.09 73.8971 211.378 73.9333 212.654 73.9152Z" fill="#FF8F41"/>
<path d="M50.9 334.978C47.1385 332.118 42.9374 328.408 42.125 323.486L63.489 325.386V320.789L44.7882 319.052C49.61 301.985 56.4817 285.516 65.2025 270.133L65.7742 325.784L88.2836 327.702C87.8891 330.128 86.2789 332.064 85.2331 334.2C83.1904 334.308 80.3462 334.598 78.555 334.598H60.2432C57.3103 334.598 53.9722 334.942 50.8964 334.978H50.9Z" fill="#FE5A00"/>
<path d="M125.483 132.824C132.687 128.263 139.934 127.92 148.224 129.042C149.924 129.277 153.018 129.747 154.509 130.417C155.027 130.652 155.115 130.471 154.992 131.268C150.612 132.679 146.295 134.344 142.087 136.19C140.002 137.113 136.889 139.321 134.996 139.828C132.604 140.48 129.503 140.226 127.015 141.258C126.936 141.964 127.82 141.565 128.242 141.511C129.68 141.366 131.327 140.624 132.762 141.059C128.188 144.515 123.297 147.592 119.158 151.592C118.982 151.755 117.817 152.587 118.584 152.75L118.499 153.745C115.64 155.863 113.01 158.451 111.358 161.636L116.612 161.238L117.43 161.944L125.353 164.55C141.271 172.676 143.556 192.656 137.357 207.949C136.371 208.094 136.762 207.84 136.559 207.388C135.781 205.705 135.401 203.135 134.687 201.217C131.741 193.344 127.31 188.964 126.992 180.169C126.946 178.847 127.184 177.762 127.392 176.513C126.84 176.422 126.889 177.164 126.728 177.562C126.131 179.083 125.7 180.693 125.287 182.25C121.94 177.001 116.049 166.667 110.147 164.242C109.668 165.147 107.996 164.876 107.848 163.862C109.373 162.704 108.492 162.903 108.774 161.564C109.657 157.419 111.7 152.026 112.063 148.153L112.443 149.094C114.401 142.633 119.807 136.389 125.479 132.824H125.483Z" fill="#FEAE21"/>
<path d="M67.3828 279.164L85.4015 322.654L67.3828 320.934V279.164Z" fill="#FE5A00"/>
<path d="M245.615 22.1716C246.46 22.3164 249.809 23.9994 250.713 24.5605C254.373 26.7684 257.31 30.352 258.649 34.4421L258.292 35.2021H231.131L230.183 34.7678C228.732 32.4693 234.377 22.5336 237.567 22.1716L237.934 21.3933C240.333 21.2123 242.729 21.2125 245.13 21.3392L245.615 22.1716Z" fill="#0E58C6"/>
<path d="M237.564 22.1718C234.202 25.6466 231.104 29.411 230.663 34.4242H258.645C260.489 34.3699 261.566 36.3063 260.185 37.7179C259.664 38.2428 259.291 38.0981 259.027 38.261C258.598 38.3514 258.276 38.5323 258.215 39.0209H247.317L246.762 38.261C242.823 39.3287 238.817 39.3468 234.88 38.261C230.79 38.3695 226.75 38.5685 222.76 38.8219L222.232 38.261C220.927 38.1524 219.243 37.6818 219.702 35.9625C220.18 34.1708 221.745 34.6956 222.158 34.3698C222.342 34.207 223.554 30.8046 224.07 29.954C226.183 26.4792 230.82 22.8052 234.875 22.1718C234.888 20.9411 237.406 21.0497 237.56 22.1718H237.564Z" fill="#003D84"/>
<path d="M249.449 73.9152C251.766 72.9741 254.028 72.956 256.347 73.9152C256.964 73.1731 257.65 73.155 258.263 73.9152C260.668 72.8655 263.147 72.8474 265.548 73.9152C266.237 72.956 266.773 72.956 267.462 73.9152C268.866 73.9333 270.281 73.8971 271.679 73.9152C271.772 75.5259 271.408 77.01 270.912 78.5121L267.655 81.5887H235.266L240.898 77.4444L247.531 73.9152C248.15 73.1731 248.83 73.1731 249.449 73.9152Z" fill="#FEAF20"/>
<path d="M41.7099 229.14C44.0674 227.964 47.268 227.855 48.9886 230.1C48.4892 230.552 45.8278 230.86 45.6089 231.131C45.4388 231.33 45.5202 232.326 45.2542 232.869C43.8068 235.855 39.754 235.402 37.3856 236.126C36.3941 236.434 35.7844 238.189 34.5993 238.352C33.1971 238.551 30.9048 236.995 30.2643 235.801C28.0606 231.692 34.3388 234.208 34.8147 233.737C35.0987 229.629 34.2881 225.738 32.5114 222.046C32.4228 221.72 33.3998 222.028 33.2767 221.684C32.9945 220.87 31.8963 219.186 31.7479 218.227L32.895 218.028C32.5458 216.689 31.8167 215.694 32.1315 214.191C36.4738 218.318 41.7297 222.553 41.7135 229.14H41.7099Z" fill="#1C7BE4"/>
<path d="M246.772 58.5857C249.853 57.6446 252.889 57.6265 255.97 58.5857C256.717 57.8256 257.522 57.8256 258.27 58.5857C261.836 58.6038 266.607 58.1694 269.979 58.5676C270.428 58.6038 271.137 58.658 271.298 59.1647C271.966 61.2822 267.741 60.2327 267.465 60.5042C266.994 60.9747 267.825 72.1953 267.465 73.9146C266.824 73.9146 266.189 73.9146 265.549 73.9146C265.25 73.8422 264.805 73.7155 264.783 73.4622C264.506 70.7113 264.429 63.7255 264.783 61.0651L265.549 60.5042C265.511 60.7937 265.435 61.2279 265.212 61.2641C264.695 61.3727 259.305 61.3727 258.802 61.2641L258.262 60.5042C258.561 60.5947 259.003 60.7032 259.03 60.9566C259.328 63.7075 259.359 70.639 259.03 73.3537L258.262 73.9146C257.622 73.9146 256.985 73.9146 256.346 73.9146C256.043 73.8422 255.59 73.7337 255.568 73.4984C255.319 71.1638 254.863 63.0378 255.216 61.0832L255.966 60.5042L255.538 61.2641C254.524 61.5356 249.86 61.59 249.451 60.5042C249.75 60.5947 250.191 60.7032 250.217 60.9566C250.515 63.7075 250.548 70.639 250.217 73.3537L249.451 73.9146C248.811 73.9146 248.174 73.9146 247.533 73.9146L246.783 73.4622C247.599 69.4444 247.468 64.5581 246.766 60.5042C246.327 60.5766 246.001 60.7031 245.923 61.2279L241.783 61.3728C241.707 65.3906 241.727 69.4263 241.847 73.4622L241.022 73.9146C240.512 73.9146 239.998 73.9146 239.489 73.9146C239.185 73.8422 238.737 73.6975 238.722 73.4622C238.5 69.7702 238.503 64.7752 238.722 61.0651L239.489 60.5042L235.319 60.323C234.528 59.3095 237.239 58.7305 237.955 58.5857C240.884 57.8256 243.842 57.8256 246.772 58.5857Z" fill="#0544A9"/>
<path d="M221.855 58.5851C221.928 58.2412 222.052 58.2412 222.237 58.5851C226.424 57.5173 230.697 57.5354 234.886 58.5851C234.96 58.2412 235.087 58.2412 235.269 58.5851C236.15 58.2955 237.059 58.2955 237.953 58.5851L235.657 60.1053L239.487 60.5036C238.463 61.6618 236.324 61.6076 235.269 60.5036C234.974 61.0284 234.466 61.354 233.733 61.4626V72.9729L232.97 73.534C233.304 73.6426 233.299 73.7692 232.97 73.914C232.329 73.914 231.694 73.914 231.054 73.914C230.753 73.8235 230.334 73.715 230.287 73.4616C229.879 71.2717 230.08 63.5439 230.287 61.0645L231.054 60.5036C231.016 60.7931 230.938 61.2093 230.715 61.2635C230.198 61.3721 224.81 61.3721 224.307 61.2635L223.768 60.5036C224.066 60.576 224.515 60.7026 224.535 60.9379C224.741 63.4535 224.94 71.1633 224.535 73.3531L223.768 73.914C223.127 73.914 222.49 73.914 221.85 73.914C221.551 73.8235 221.103 73.6969 221.085 73.4616C220.855 70.8555 220.69 63.4534 221.085 61.0645L221.85 60.5036C221.812 60.7931 221.75 61.1912 221.517 61.2635C220.784 61.4988 215.338 61.5352 215.143 60.5036C215.266 64.5756 215.351 68.7561 215.396 73.0272L214.567 73.914C213.927 73.914 213.292 73.8959 212.651 73.914C212.288 72.2128 213.131 60.956 212.651 60.5036C212.46 60.3226 208.968 61.1187 209.585 59.1641C209.746 58.6574 210.455 58.6213 210.904 58.567C214.057 58.205 218.508 58.6032 221.846 58.5851H221.855Z" fill="#03387D"/>
<path d="M245.618 22.1726C243.816 21.8649 239.584 22.0821 237.568 22.1726C236.718 22.2088 235.67 22.0459 234.885 22.1726C234.027 19.9103 236.684 19.6026 236.81 19.2226C237.644 16.8156 235.944 16.0373 236.115 14.0285C236.392 10.8975 238.723 10.5717 239.041 9.64867C239.501 8.30942 239.168 3.5679 239.484 1.66762C239.73 0.219775 240.865 0.382569 241.037 2.02949C241.256 4.11076 241.057 7.31409 241.482 9.25057C241.941 11.3318 244.662 11.4405 244.069 15.4402C243.926 16.3813 243.154 16.8879 243.374 18.0643C243.651 19.4759 245.92 20.3628 245.618 22.1726Z" fill="#FE9801"/>
<path d="M424.62 225.684C426.053 224.507 427.258 223.204 429.192 222.788C437.744 221.033 431.439 228.941 427.303 229.539C427.705 230.299 428.598 229.701 429.438 230.643C431.611 233.122 427.059 232.724 425.456 232.326C421.933 231.457 421.227 228.399 419.078 226.046C418.472 225.394 417.165 225.358 417.904 224.544C421.294 226.19 417.858 219.476 419.87 218.825C421.953 218.137 425.219 223.639 424.623 225.684H424.62Z" fill="#FE5001"/>
<path d="M343.087 48.3066C340.476 50.3517 338.349 51.6367 336.413 54.4781C335.546 55.745 332.378 61.7535 333.5 62.8756C333.704 63.0747 335.121 62.4412 335.034 63.2375C333.759 62.9841 332.856 64.3777 331.978 64.6311C330.88 64.9387 328.845 62.6947 327.632 62.0251C324.647 60.3601 320.813 59.5455 317.406 59.4007L320.31 58.2968C323.473 57.9348 325.713 58.4779 328.517 59.799C329.955 53.7543 337.035 48.6867 343.087 48.3066Z" fill="#3EA7FD"/>
<path d="M152.861 63.1821C152.496 63.8336 151.549 63.725 150.751 64.3223C150.419 64.5937 149.487 65.4262 149.798 65.8606C154.332 66.4397 158.993 68.2314 160.143 73.1541C155.106 70.8376 149.932 68.0504 144.432 70.8556C144.634 67.2722 143.013 64.0144 140.18 61.8789L136.766 60.1234C139.641 60.1053 142.856 60.775 145.466 61.9513C146.172 62.2771 146.785 63.2363 147.455 63.3811C148.246 63.5621 151.303 62.0962 152.861 63.1821Z" fill="#3DA6FC"/>
<path d="M259.033 38.2798C257.819 39.0038 258.666 38.9857 258.673 40.3611C258.693 46.424 258.912 52.5953 258.268 58.5857C257.501 58.5857 256.735 58.5857 255.968 58.5857L255.447 58.5314C255.246 52.8486 255.116 47.0573 255.044 41.1755C252.35 42.0442 249.884 43.6186 247.655 45.8628L246.764 45.5553C246.47 45.5191 246.028 45.4285 245.999 45.2113C245.918 44.6503 245.867 39.0941 245.999 38.8045C246.128 38.515 246.462 38.3884 246.764 38.2617H259.03L259.033 38.2798Z" fill="#BEE7FD"/>
<path d="M234.884 38.2624C235.219 38.3891 235.213 38.5157 234.884 38.6605L234.079 39.1854C230.545 38.6787 226.451 38.588 223.002 39.0405C226.478 38.6604 230.277 38.7509 233.735 39.0405L233.574 40.2712L227.486 46.2255C224.182 50.008 222.293 52.9759 223.013 58.0253L222.235 58.5864C222.108 58.5864 221.978 58.5864 221.852 58.5864L222.235 38.2624C226.127 38.6062 230.871 38.2443 234.884 38.2624Z" fill="#3792EB"/>
<path d="M259.837 354.56C259.991 354.578 260.393 354.922 261.107 354.94C307.793 355.99 354.655 354.379 401.362 354.904C401.999 354.922 403.035 354.687 403.426 355.266C355.067 355.266 306.691 355.248 258.332 355.266C258.555 354.597 259.152 354.488 259.837 354.56Z" fill="#087FF1"/>
<path d="M469.284 346.434C444.379 346.09 419.413 346.886 394.512 346.434C394.309 346.434 392.551 346.651 393.196 346.054C417.868 346.253 442.554 345.782 467.222 346.054C467.857 346.054 468.894 345.8 469.284 346.434Z" fill="#0177F2"/>
<path d="M144.043 273.21C145.798 270.748 147.799 274.802 147.527 276.938L147.431 283.725C148.285 283.833 148.946 284.177 149.413 284.72C149.666 284.72 149.926 284.738 150.18 284.72C151.468 285.1 152.349 284.919 152.829 284.213C154.316 284.105 155.732 283.906 157.082 283.616V273.771L157.849 273.21C159.36 273.173 165.427 272.92 166.19 273.698C167.486 274.983 166.016 282.765 166.664 284.72C169.573 285.426 172.02 285.191 173.994 284.014C178.987 284.774 180.762 283.652 179.318 280.666C179.935 278.567 179.635 276.739 179.264 274.621C179.079 273.626 179.991 273.173 181.998 273.21C182.875 273.264 183.986 273.047 184.795 273.3C187.201 274.006 185.71 282.458 186.194 284.485C186.309 284.973 186.811 284.629 186.975 284.72L188.363 284.991C188.931 285.498 188.003 292.249 187.773 293.371L186.981 293.914C186.946 294.222 186.849 294.656 186.628 294.692C182.257 295.181 173.945 294.982 169.425 294.692L168.964 293.914C169.85 294.258 169.762 296.158 168.964 296.592C168.946 296.411 168.942 296.248 168.996 296.086C169.271 295.271 184.198 295.742 186.148 295.832L186.595 296.592C186.883 296.683 187.306 296.864 187.27 297.045C186.814 299.597 184.99 307.306 184.001 309.388L183.147 309.623C182.843 310.89 178.309 310.799 177.78 309.623C178.432 309.786 178.732 310.455 178.685 311.596C180.422 311.378 181.609 311.759 182.238 312.7C180.567 316.374 178.095 321.079 173.199 319.957L173.219 321.133C174.165 321.314 174.292 321.821 174.278 322.672C174.25 324.481 161.256 332.915 158.233 332.245C147.891 332.553 137.531 332.463 127.185 332.245C126.883 332.209 126.422 332.101 126.418 331.883C126.335 328.499 125.825 305.641 126.737 304.628C127.545 303.723 131.991 303.759 133.21 304.212C133.323 302.981 133.739 302.221 134.468 301.967L134.131 302.728H127.721L127.182 301.967C125.897 301.75 125.675 297.208 126.798 296.592C126.798 296.303 126.871 295.832 127.055 295.832C131.088 295.615 137.511 295.416 141.405 295.832C142.449 295.615 143.073 295.868 143.279 296.592C142.239 296.448 142.333 294.692 142.706 293.914C142.706 294.203 142.633 294.656 142.445 294.674C139.758 294.837 129.237 295.181 127.254 294.674L126.798 293.914C126.5 293.841 126.062 293.715 126.031 293.461C125.917 292.593 125.866 286.276 126.031 285.643L126.798 285.1C128.848 285.028 130.893 284.883 132.932 284.72L133.377 283.942C134.737 284.087 136.065 284.032 137.374 283.779L137.627 273.644C138.597 273.517 139.588 273.373 140.598 273.21C141.548 273.119 143.089 273.119 144.046 273.21H144.043Z" fill="#FE9800"/>
<path d="M221.466 235.657C224.388 235.241 227.326 234.988 230.275 234.915C245.124 235.476 259.351 235.512 272.958 235.042L273.592 235.657C273.829 237.141 273.572 238.3 272.824 239.114C272.718 239.44 272.586 239.44 272.441 239.114C271.149 239.729 268.739 239.784 267.458 239.114C256.098 239.422 244.648 239.53 233.103 239.458L232.655 240.164C228.899 240.037 225.287 240.146 221.831 240.544L220.704 319.523L219.93 319.994H201.531C201.613 319.288 202.251 318.908 203.456 318.836C203.766 303.489 204.403 288.286 205.365 273.229C206.579 273.446 206.047 272.613 206.12 271.889C206.874 264.234 207.278 255.855 207.659 248.109C207.752 246.281 208.381 236.924 208.048 236.055C207.813 235.802 207.621 235.313 207.819 235.205C210.143 233.865 218.531 235.205 221.462 235.657H221.466Z" fill="#FF8F41"/>
<path d="M205.377 273.209C206.683 273.68 205.771 276.087 205.759 276.865C205.58 288.773 204.72 300.628 204.208 312.482C204.109 314.835 204.219 317.26 204.226 319.594L201.543 319.992H198.478L197.736 320.843C191.988 321.766 187.982 326.49 186.05 331.738L185.062 332.245C176.126 332.57 167.161 332.625 158.23 332.245L165.632 328.734C166.913 327.974 173.21 323.431 173.562 322.472C173.915 321.513 172.52 322.2 172.39 321.694C172.233 321.078 172.544 319.938 172.413 319.214C174.272 319.015 176.132 319.83 177.606 318.472C178.304 317.821 181.616 313.26 181.616 312.5L177.78 312.319V309.622H183.15L186.598 296.592H168.967C168.672 296.592 168.672 293.913 168.967 293.913H186.982C186.985 292.103 188.212 286.493 187.66 285.19C187.644 285.136 187.109 284.792 186.982 284.719H191.965V274.947C191.965 274.44 193.057 273.354 193.696 273.227C194.599 273.046 204.829 273.028 205.381 273.209H205.377Z" fill="#FE7B00"/>
<path d="M224.152 147.121C224.775 146.922 225.399 146.741 226.03 146.632C226.664 146.488 227.288 146.379 227.914 146.379C238.024 146.234 248.143 146.144 258.259 146.18C261.145 146.18 264.105 146.27 266.857 146.379C267.599 146.379 267.892 146.723 267.848 147.501C267.731 148.333 267.928 149.329 267.848 150.198C267.776 151.139 266.759 151.247 265.981 151.302C263.656 151.428 261.272 151.555 258.898 151.573C251.375 151.591 243.846 151.501 236.327 151.338C235.896 151.338 235.464 151.211 235.028 151.084C234.59 150.958 234.156 150.777 233.736 150.578C230.707 151.392 227.603 151.573 224.505 151.084C224.635 174.594 223.977 198.682 222.528 223.35L221.853 229.539C218.487 230.317 214.981 230.571 211.328 230.281C210.232 230.607 208.323 230.788 208.983 229.34C208.898 228.598 208.96 227.548 209.204 226.843C208.556 211.423 211.091 194.176 211.504 178.557C210.423 177.272 210.438 175.245 211.504 173.96L213.038 147.121L213.704 146.451C216.966 146.578 220.235 146.56 223.508 146.361L224.152 147.121Z" fill="#FF8F41"/>
<path d="M141.364 226.842C142.386 215.495 151.923 207.749 163.208 208.437C163.445 209.432 162.893 209.125 162.491 209.45C160.233 211.278 158.113 212.799 156.111 214.952C154.583 216.617 152.629 220.11 151.34 221.305C150.819 221.793 150.094 221.757 149.891 221.956C149.404 222.445 149.745 224.001 149.508 224.797C149.055 226.318 147.496 228.453 146.725 229.901C148.507 229.123 149.813 227.747 151.715 227.042C162.643 222.951 175.464 231.458 176.343 243.04C176.377 243.475 177.101 243.8 176.055 243.71C172.457 240.941 168.397 238.552 163.976 237.376C160.709 236.507 158.581 237.484 156.882 233.738L157.458 236.036L148.646 235.276L153.244 237.774C158.934 242.642 160.789 250.768 160.094 258.043C160.025 258.731 159.734 260.233 159.47 260.849C158.726 262.604 158.284 259.582 157.91 258.785C156.663 256.071 154.921 253.32 153.808 250.605C153.26 249.266 154.244 249.375 152.482 248.904L144.809 238.335L143.904 237.9C143.62 236.452 143.137 236.38 142.126 237.575C138.404 241.629 134.97 246.244 132.922 251.365C132.363 251.51 132.307 251.311 131.986 250.985C131.263 250.207 131.393 248.813 130.635 248.307C130.307 250.243 131.605 252.379 131.389 254.207C131.256 255.347 129.354 258.659 128.802 260.088C128.02 262.115 127.456 264.251 126.79 266.314C126.249 266.314 126.036 265.228 125.851 264.776C121.999 255.256 122.444 243.022 132.428 237.647L136.376 235.656C133.819 236.072 131.255 236.127 128.699 236.597C126.331 237.05 123.727 238.335 121.623 238.733C120.362 238.968 121.945 237.629 121.239 237.194C120.094 239.439 118.621 239.493 116.951 240.579C114.053 242.443 111.304 244.416 108.786 246.768C108.059 232.923 121.57 223.35 134.463 228.761C136.3 227.802 139.063 230.589 140.423 232.018C140.653 232.037 140.761 228.037 140.673 227.476L141.364 226.842Z" fill="#055EC2"/>
<path d="M121.814 273.21C122.016 274.531 118.923 275.074 118.747 273.608C119.046 273.68 119.494 273.807 119.514 274.042C119.601 275.11 119.786 283.2 119.514 283.598C119.319 283.869 119.089 284.069 118.747 284.141C119.579 283.58 119.74 283.815 119.322 284.72C119.227 283.634 124.521 283.761 125.255 283.96C125.693 284.069 125.934 284.213 126.031 284.72C124.025 283.851 126.447 281.607 126.797 284.72C127.917 285.136 131.474 284.412 132.928 284.72C132.869 284.72 132.499 285.082 132.002 285.118C130.281 285.227 128.517 285.028 126.797 285.118V293.932H142.704C143.382 293.932 143.343 296.068 143.279 296.592H126.797L127.18 301.967H134.463C133.938 306.383 133.393 304.61 130.439 304.628C129.33 304.628 128.295 305.008 127.198 305.062L127.18 332.245C121.957 332.571 116.674 332.463 111.434 332.3L110.698 331.865C109.587 319.794 110.974 304.881 111.101 292.593C111.157 286.729 110.978 280.883 110.783 275.038C110.92 274.603 111.123 274.097 111.445 273.789C112.709 272.522 119.682 273.59 121.817 273.228L121.814 273.21Z" fill="#FE7200"/>
<path d="M118.582 152.749C126.38 147.519 136.939 148.026 145.406 151.41C155.529 155.446 161.674 166.214 161.893 176.892C159.79 175.1 157.945 173.055 155.725 171.372C154.324 170.304 150.478 168.386 149.749 167.572C148.231 165.889 147.292 161.455 144.455 160.025L146.564 165.78C144.478 164.966 142.497 164.025 140.342 163.373C138.732 162.884 135.911 162.685 134.704 162.106C133.818 161.672 131.428 158.36 130.845 157.346C130.132 157.256 130.561 158.106 130.633 158.505C130.849 159.663 131.232 160.821 131.616 161.925C126.771 161.328 122.255 161.599 117.433 161.925C115.213 162.088 112.883 162.613 110.534 162.323C109.859 161.617 112.779 158.052 113.404 157.328C114.781 155.718 116.834 153.908 118.582 152.731V152.749Z" fill="#FE9B00"/>
<path d="M211.507 173.942C211.574 175.463 211.547 177.037 211.507 178.558H171.645C172.099 177.345 172.822 176.657 173.926 176.042C175.701 175.065 178.84 175.047 179.698 174.522C180.063 174.323 180.492 173.001 181.024 172.404C184.378 168.676 189.444 166.74 194.252 168.785C195.252 169.201 196.984 170.775 197.184 170.812C197.535 170.884 200.591 169.816 201.718 169.726C203.931 169.527 206.318 169.689 208.442 170.305C211.286 171.137 211.386 171.173 211.507 173.942Z" fill="#7DCDFF"/>
<path d="M141.357 226.844C141.717 228.961 141.096 231.911 141.353 234.119L138.475 231.079C137.313 230.264 135.741 229.305 134.458 228.762L133.461 226.898C129.928 223.152 126.293 218.663 122.396 215.333C120.583 213.795 118.033 211.75 115.676 211.515C115.676 211.135 116.016 210.936 116.347 210.845C122.05 209.09 130.87 211.985 135.051 216.094C136.823 217.849 140.962 224.527 141.357 226.844Z" fill="#1C75DD"/>
<path d="M144.809 238.353C145.97 242.787 146.484 249.555 147.061 254.297C148.284 264.36 149.212 274.603 149.408 284.72C148.519 284.683 147.615 284.738 146.721 284.72C146.395 282.421 147.526 274.947 145.793 273.553C145.185 273.083 144.675 273.282 144.038 273.209C143.953 269.318 143.893 265.391 143.671 261.518C143.233 253.808 141.972 245.176 142.122 237.574C142.133 237.05 142.107 236.543 142.122 236.036C144.322 235.729 144.325 236.507 144.805 238.334L144.809 238.353Z" fill="#013E86"/>
<path d="M110.151 164.241L105.168 201.034C105.168 200.962 104.727 200.437 104.747 199.731C104.77 198.826 105.452 195.225 105.148 194.917C105 194.772 102.002 194.99 102.485 193.18C103.345 191.949 104.448 193.451 105.546 193.379C105.252 191.949 106.317 189.922 105.957 188.619C105.869 188.293 103.424 187.895 102.876 187.805C102.109 187.66 102.558 188.022 102.485 188.565L102.102 187.624C103.404 179.95 104.501 172.204 106.317 164.621C106.851 164.331 107.108 164.422 107.851 163.861C108.595 163.843 109.473 163.97 110.151 164.241Z" fill="#01387C"/>
<path d="M221.856 229.54C222.948 231.404 222.791 233.938 221.472 235.657C217.709 235.657 213.929 235.603 210.16 235.657C209.513 235.657 208.456 235.404 208.056 236.056C207.799 235.35 205.876 235.133 206.109 232.4C206.316 229.993 208.214 230.246 208.644 229.54C209.111 228.762 208.422 227.441 209.207 226.844C209.238 227.604 208.919 229.667 209.766 229.812C209.951 229.848 210.77 229.504 211.293 229.504C214.807 229.468 218.34 229.522 221.856 229.522V229.54Z" fill="#FE8E00"/>
<path d="M126.792 284.721C126.209 284.504 126.623 283.563 126.216 283.563C125.798 283.617 126.12 284.721 126.025 284.721H119.318C119.274 284.721 118.742 284.196 118.742 284.142V273.609C119.811 273.989 121.165 273.265 121.809 273.21C123.327 273.102 126.189 272.849 126.71 274.64C127.42 277.102 126.354 281.97 126.792 284.721Z" fill="#FE9700"/>
<path d="M181.994 273.228C181.748 273.934 180.241 273.445 180.076 273.608C179.75 273.916 180.478 277.173 180.498 278.006C180.517 279.019 180.1 279.834 180.076 280.702C180.051 281.788 181.138 283.417 179.919 284.376C179.041 285.064 175.884 284.63 174.523 284.72C173.767 284.774 173.051 285.1 172.235 285.118C171.268 285.155 166.868 285.354 166.66 284.72C168.225 284.431 171.518 285.136 172.794 284.72C172.942 283.327 173.074 281.915 173.177 280.503C173.201 279.037 172.786 274.296 173.713 273.572C174.48 272.975 180.525 273.174 181.994 273.228Z" fill="#FE7300"/>
<path d="M224.152 141.385C225.133 142.181 225.509 146.597 224.152 147.122C220.975 147.104 215.911 147.575 213.036 147.122C210.516 146.724 210.335 142.272 213.419 141.385C215.037 140.896 217.827 141.675 219.725 140.969L224.152 141.385Z" fill="#FE9000"/>
<path d="M157.846 273.211V284.721C155.343 284.251 152.472 285.572 150.18 284.721C150.941 284.703 151.718 284.739 152.483 284.721C152.89 284.323 151.859 275.401 152.832 273.862C153.436 272.903 156.677 273.265 157.846 273.211Z" fill="#FE7100"/>
<path d="M140.593 273.209C140.148 273.263 139.147 273.969 138.288 273.607L138.123 284.357C137.649 285.045 134.038 284.647 132.925 284.719C133.356 284.285 132.256 275.363 133.336 273.824C134.221 272.576 138.948 273.517 140.593 273.227V273.209Z" fill="#FE7000"/>
<path d="M193.107 127.575C190.013 130.362 187.181 133.511 186.971 137.927C183.639 135.375 179.944 132.408 175.479 133.331C175.3 132.299 175.67 132.661 176.311 132.444C177.055 132.209 178.397 131.901 179.162 131.846C181.037 131.684 184.008 132.48 185.173 132.172C185.464 132.1 186.249 130.399 186.787 129.874C188.319 128.372 190.941 127.231 193.107 127.575Z" fill="#39A4FC"/>
<path d="M127.178 332.245C137.518 332.245 147.882 332.209 158.224 332.245C167.163 332.281 176.118 332.209 185.055 332.245C185.016 332.372 185.083 332.499 185.055 332.625H110.695C110.679 332.372 110.719 332.119 110.695 331.865C116.069 332.571 121.719 332.245 127.178 332.245Z" fill="#9D7A68"/>
<path d="M172.791 284.721C172.97 283.381 172.342 281.554 173.174 280.504C173.16 281.427 173.469 284.485 172.791 284.721Z" fill="#FE9800"/>
<path d="M267.849 150.197C268.741 175.118 271.12 200.003 272.063 224.924C273.206 225.521 273.275 228.616 272.446 229.539C258.791 230.57 245.092 230.589 231.435 229.539C231.165 228.996 230.91 228.453 230.709 227.892C230.51 227.349 230.319 226.788 230.25 226.245C227.23 201.596 228.678 176.711 232.7 152.532L233.735 150.559C244.057 150.541 255.157 151.12 265.372 150.595C266.222 150.541 267.009 150.27 267.849 150.197Z" fill="#FCD99C"/>
<path d="M273.216 244.091C277.565 241.847 282.23 239.512 287.332 241.394C287.849 227.223 304.102 223.079 308.153 237.413C316.489 234.752 325.515 240.362 324.095 249.647C333.132 250.66 339.081 257.61 336.74 266.84C339.472 264.777 342.515 263.003 345.857 262.116C348.131 261.519 352.083 260.705 353.7 262.496C356.82 263.021 358.296 264.071 360.983 265.555V265.935L361.442 267.328C361.267 275.111 360.603 282.694 359.461 290.078C359.304 290.621 358.79 290.729 357.92 290.458C356.47 291.091 354.41 290.349 353.704 288.938C352.039 289.951 351.366 288.937 351.669 285.933C352.029 282.024 352.005 278.151 351.603 274.314C349.572 273.88 347.498 273.771 345.378 273.97L344.884 273.21L344.739 273.717C342.334 273.681 339.962 273.934 337.625 274.459C337.066 277.536 336.954 280.721 337.286 284.033L336.452 284.721C334.428 285.987 329.465 286.404 329.575 283.074C329.655 280.142 329.602 277.228 329.411 274.314C327.648 273.898 325.837 273.771 323.983 273.97L323.418 273.21L323.257 273.717C319.528 273.373 317.862 274.296 318.256 276.522L318.513 284.178L317.667 284.721C316.004 285.879 313.619 285.825 311.917 284.721C311.618 284.63 311.227 284.54 311.149 284.268C310.967 283.653 311.043 276.486 311.149 275.491L311.917 274.948C309.785 273.753 307.544 273.789 305.11 273.97L304.634 273.21L304.278 273.862C300.413 273.301 298.709 274.224 299.158 276.649L299.337 284.105L298.503 284.721C296.751 285.788 294.895 285.752 293.136 284.721C292.836 284.63 292.418 284.522 292.369 284.268C292.15 283.128 292.204 276.758 292.369 275.491L293.136 274.948C291.595 274.224 290.158 273.79 288.298 273.989L287.768 273.21L287.24 273.97C284.354 273.753 281.503 273.862 278.682 274.296C278.087 277.481 277.942 280.811 278.248 284.304C278.003 285.463 277.041 285.969 276.654 284.721C275.695 285.571 275.121 285.752 274.763 284.341C273.947 272.903 273.192 261.32 272.722 249.792C272.682 248.832 272.756 247.891 272.836 246.95C272.917 245.991 273.055 245.05 273.205 244.091H273.216Z" fill="#00485F"/>
<path d="M272.064 224.925C275.543 222.193 279.989 220.69 283.942 223.387C284.639 216.926 292.03 210.61 298.364 210.031C310.399 208.945 317.445 220.727 313.462 231.441C325.851 223.858 340.343 233.395 335.311 247.928C346.82 240.671 361.716 248.688 353.705 262.497C346.694 261.302 340.504 264.488 335.311 269.012C337.157 263.619 337.059 258.262 332.773 254.099C329.949 251.348 326.82 251.186 323.202 250.244C325.253 240.761 315.525 234.879 307.325 238.734C308.15 233.649 301.78 228.762 297.211 229.196C291.465 229.721 287.698 237.341 288.158 242.571C284.148 240.707 280.571 241.503 276.667 243.132C275.417 243.675 273.799 245.72 273.209 244.091C272.013 243.621 271.688 240.906 272.826 240.254C272.377 239.947 272.572 239.567 272.826 239.114C272.846 237.865 272.353 236.2 273.593 235.657C274.566 233.775 275.851 231.151 272.753 230.3L272.442 229.54C272.001 227.966 272.116 226.5 272.059 224.925H272.064Z" fill="#006474"/>
<path d="M346.035 168.586L346.965 168.242C348.581 168.658 355.386 177.146 355.277 178.16C355.243 178.485 355.116 178.739 354.852 178.938C355.194 179.029 355.185 179.173 354.852 179.318C353.542 179.716 352.292 181.182 351.391 182.178C346.714 187.372 342.737 194.032 339.897 200.384L339.115 199.443L337.217 193.489V203.262C337.217 206.646 333.569 212.148 332.994 215.912L330.322 225.305C324.235 211.623 323.361 192.747 335.887 182.395C339.547 179.354 342.158 178.612 346.604 177.4C347.128 177.255 347.799 177.418 347.95 176.64C342.158 176.404 336.412 176.893 330.702 177.78C331.529 176.802 333.162 175.934 332.81 174.341C329.106 178.739 323.776 179.68 319.007 182.377L319.777 179.318C316.202 184.241 310.597 186.901 306.741 191.57C305.545 185.779 308.382 178.178 312.292 173.744C319.993 165.021 336.034 163.066 346.034 168.586H346.035Z" fill="#FE9B00"/>
<path d="M264.781 89.2446C265.095 106.275 267.1 123.359 267.46 140.408C267.572 141.439 268.909 141.548 269.407 142.29C270.294 143.629 269.886 146.905 267.847 147.122L267.437 146.271C270.277 142.435 266.61 140.77 256.433 141.294L236.728 141.747L235.648 140.987C235.367 140.878 234.953 140.661 234.991 140.462C235.268 139.032 237.824 129.06 238.296 128.68C242.239 128.517 246.196 128.481 250.163 128.536L250.596 127.956C249.592 126.563 249.273 124.753 249.633 122.527C250.055 117.514 250.078 112.519 249.709 107.56C249.054 106.42 248.841 105.424 249.062 104.574L248.694 103.814C252.553 99.1443 256.418 94.4569 260.281 89.7695L261.716 89.2446C262.751 89.2265 263.769 88.9188 264.781 89.2446Z" fill="#FCD99C"/>
<path d="M352.173 164.369L356.007 178.16C356.312 179.191 355.743 179.59 354.856 178.938C354.568 177.961 350.921 172.984 350.069 172.025C348.954 170.794 347.498 169.382 346.041 168.586C346.805 168.423 345.643 167.609 345.466 167.428C342.522 164.496 339.996 161.166 336.416 158.849L331.476 155.555H338.759L327.557 153.148C322.012 150.452 316.553 147.466 310.395 146.344C310.559 145.638 311.35 145.565 311.92 145.384C329.191 140.027 345.462 147.882 352.173 164.369Z" fill="#FEAE22"/>
<path d="M235.658 140.986C244.199 140.949 257.687 139.936 265.647 141.094C267.964 141.42 270.106 142.524 269.218 145.22C268.965 145.999 268.026 146.542 267.854 147.121C267.823 147.229 267.872 147.374 267.854 147.501C267.213 147.067 266.493 147.139 265.764 147.121C252.07 146.632 237.914 147.211 224.158 147.121C224.377 145.383 223.85 142.994 224.158 141.384C224.21 141.076 224.254 141.04 224.541 140.986L224.912 140.153C228.314 139.972 231.721 140.008 235.131 140.225L235.658 140.986Z" fill="#FEC64E"/>
<path d="M358.688 199.642C358.834 198.61 358.803 197.561 358.59 196.511C360.153 195.841 362.284 195.136 362.521 197.344C364.523 208.275 365.894 218.048 366.739 229.142C366.773 230.59 365.246 230.843 364.821 229.54L364.783 228.725C363.636 228.816 362.541 228.87 361.494 228.87L361.206 218.591L360.993 218.79L358.693 199.642H358.688Z" fill="#01489C"/>
<path d="M359.072 179.318C360.26 185.327 361.418 191.299 362.522 197.326L362.139 196.566C361.648 196.62 359.198 196.855 359.092 196.964C358.828 197.235 359.508 199.208 358.688 199.642C357.509 192.892 356.635 185.924 354.856 179.318C354.825 179.192 354.891 179.065 354.856 178.938C355.196 178.794 355.721 178.214 356.007 178.16C357.042 178.015 358.151 178.92 359.072 179.318Z" fill="#013B7E"/>
<path d="M360.984 218.79C360.996 218.301 360.671 216.853 361.363 216.889L361.754 228.382C362.786 228.11 365.452 227.459 365.964 228.581C366.315 229.341 365.051 229.087 364.817 229.54C364.38 230.065 363.759 230.372 362.954 230.427C362.71 230.644 362.388 236.327 363.632 236.58C363.042 239.476 366.932 238.987 366.672 236.29L367.504 236.055C367.484 236.942 367.531 237.847 367.504 238.734L367.47 241.123C365.914 240.905 364.383 240.96 362.874 241.267L362.909 248.905L362.138 249.466C362.583 250.298 362.617 251.981 362.587 253.049C362.545 254.606 362.134 265.374 361.606 265.736C361.432 265.844 361.217 265.899 360.987 265.953C360.993 265.808 360.983 265.682 360.987 265.555C361.016 264.668 360.983 263.763 360.987 262.876L361.371 259.04C361.436 247.258 361.349 235.729 360.973 223.984C360.918 222.283 360.942 220.509 360.987 218.79H360.984Z" fill="#032C7B"/>
<path d="M360.987 262.876C360.995 261.663 360.669 259.926 361.369 259.039C361.362 260.234 361.689 261.989 360.987 262.876Z" fill="#00489B"/>
<path d="M287.78 273.209C289.021 273.263 293.145 272.865 293.145 274.947V284.719C294.927 284.701 296.729 284.737 298.511 284.719L298.634 284.213C302.283 284.575 303.953 283.778 303.651 281.806L303.47 274.784C303.535 273.879 303.597 273.3 304.645 273.227C306.235 273.209 311.927 272.558 311.927 274.947V284.719C313.836 284.701 315.768 284.774 317.677 284.719L318.202 283.959C321.735 284.611 323.264 283.778 322.794 281.426L322.585 273.77L323.421 273.227C324.867 273.209 329.068 272.902 329.949 273.788C331.091 274.947 329.569 282.674 330.762 284.683C332.651 284.792 334.563 284.701 336.457 284.719L336.806 283.959C339.164 284.122 341.505 284.05 343.828 283.796C344.225 280.503 344.299 277.155 344.051 273.752L344.887 273.227C346.309 273.227 351.559 272.847 352.2 273.861C353.38 275.743 352.053 285.914 352.536 288.719C352.649 289.208 353.392 288.846 353.702 288.954C354.243 289.552 353.924 289.841 353.345 290.203C353.454 296.881 353.345 304.863 352.553 311.939C353.76 313.151 353.322 316.825 352.169 318.074C352.484 320.735 352.471 323.449 352.169 326.128C351.901 327.34 351.927 328.607 351.97 329.838C352.927 330.055 352.924 332.154 351.786 332.263C337.355 332.281 322.904 332.245 308.473 332.263L307.438 331.847C304.69 326.345 299.662 321.875 293.487 320.861L292.758 319.992H287.775C287.476 319.992 287.02 319.92 287.009 319.739C286.897 317.676 286.633 306.908 287.009 305.731C287.131 305.369 287.274 305.188 287.775 305.044C287.856 304.754 287.977 304.32 288.22 304.283C289.504 304.102 295.817 304.066 296.989 304.283L297.55 305.044C297.136 304.247 297.648 302.311 298.507 301.985C298.473 302.275 298.374 302.727 298.162 302.745C297.058 302.836 288.741 303.035 288.339 302.745C288.059 302.564 287.86 302.329 287.78 301.985L287.013 301.623V277.335L287.78 276.865C286.28 276.756 285.947 273.173 287.78 273.227V273.209Z" fill="#FE9800"/>
<path d="M198.515 319.922H292.704C299.594 320.573 305.715 326.184 308.404 332.482C267.358 332.518 226.186 332.645 185.113 332.482C187.127 326.274 191.71 320.573 198.515 319.922Z" fill="#004593"/>
<path d="M364.05 312.645C365.849 311.921 367.582 312.392 369.39 312.826C382.004 315.83 390.947 324.897 402.165 330.942C402.932 331.34 403.095 331.087 402.916 332.281C388.063 332.245 373.187 332.245 358.335 332.281C357.074 331.684 358.682 328.571 359.858 328.807L359.648 327.232C361.215 322.906 362.225 318.4 363.057 313.876L364.05 312.645Z" fill="#FE6B00"/>
<path d="M104.372 340.697C104.372 341.367 103.106 341.457 102.661 341.493C85.1287 343.032 67.2259 342.163 49.6975 341.476C46.059 341.331 42.4042 341.729 38.8164 340.896L104.372 340.697Z" fill="#3699F2"/>
<path d="M145.266 346.037L141.642 346.815C126.238 347.286 110.634 347.883 95.3477 346.218C98.0507 345.476 100.815 345.802 103.56 345.639C104.58 345.603 105.491 345.259 106.574 345.204C119.467 344.77 132.449 345.367 145.262 346.037H145.266Z" fill="#379CF5"/>
<path d="M352.174 326.109C352.37 326.435 352.552 326.743 352.688 327.069C352.921 327.648 353.041 327.865 353.289 328.263C353.392 328.408 356.592 327.666 357.047 327.575C359.008 326.526 361.839 325.44 361.373 328.806C360.897 329.946 360.059 330.978 359.84 332.245C357.161 332.245 354.47 332.245 351.791 332.245C352.006 330.29 351.307 327.847 352.174 326.109Z" fill="#003B80"/>
<path d="M185.057 332.626H110.699C135.47 332.319 160.281 332.862 185.057 332.626Z" fill="#0056FD"/>
<path d="M368.274 289.697C368.148 291.869 367.929 294.584 367.507 296.213C366.449 300.321 366.442 307.868 365.591 312.7C364.674 317.912 363.375 323.921 361.374 328.807C360.228 325.912 359.083 327.812 357.245 328.319C355.959 328.663 353.834 328.789 352.834 329.187C352.351 329.387 352.789 330.092 352.179 329.947C352.164 328.681 352.188 327.396 352.175 326.111C352.152 323.432 352.172 320.754 352.175 318.075C353.16 318.419 353.563 319.396 353.382 321.025L353.321 323.848C356.802 312.791 359.194 301.425 360.5 289.77C360.733 289.39 361.061 289.209 361.47 289.046C362.188 288.756 367.388 289.372 368.278 289.716L368.274 289.697Z" fill="#00489C"/>
<path d="M367.888 254.062C367.899 256.252 367.988 257.066 368.272 255.582C368.979 257.772 368.65 260.559 368.655 262.876C368.657 266.314 368.697 269.789 368.655 273.21C368.588 278.313 368.536 283.471 368.272 288.557C368.406 289.625 361.832 289.263 361.518 289.1C361.042 288.828 360.713 288.611 360.609 288.032C361.172 276.558 361.782 265.084 362.433 253.646C362.632 253.429 367.868 253.012 367.885 254.062H367.888Z" fill="#00489B"/>
<path d="M362.136 249.465C363.345 248.397 363.873 249.302 363.723 252.162C364.893 252.252 366.066 252.162 367.242 251.854L367.889 252.524C368.174 253.031 368.17 253.555 367.889 254.062H362.903L361.365 288.34L368.273 288.557C368.255 288.937 368.297 289.335 368.273 289.697C366.802 290.855 361.892 288.991 361.155 290.059C359.675 300.99 357.967 312.682 354.363 323.124C353.965 324.282 353.504 326.11 352.561 326.888C352.317 324.029 353.057 320.789 352.176 318.075C352.179 315.957 352.536 313.785 352.558 311.939L352.539 311.053C355.219 304.682 356.978 298.076 357.821 291.235C358.369 291.235 358.403 290.982 357.924 290.475C359.73 289.534 358.856 287.996 359.078 286.458C360.044 279.653 360.764 272.811 360.991 265.952C362.355 262.315 361.618 258.08 361.742 254.225C361.789 252.723 362.087 251.13 362.141 249.465H362.136Z" fill="#003B80"/>
<path d="M368.272 250.225C368.125 251.021 367.998 251.799 367.888 252.523C366.765 252.65 364.166 253.374 363.265 252.74C362.254 252.034 363.81 249.283 362.138 249.464C362.182 248.107 361.928 241.121 362.192 240.705C362.562 240.108 366.661 240.035 367.501 240.651C367.524 239.999 367.486 239.366 367.501 238.732L368.268 250.225H368.272Z" fill="#00489C"/>
<path d="M367.504 236.036C367.477 236.597 366.712 238.081 367.121 239.095C366.435 238.986 363.05 239.257 362.901 239.095C362.771 238.986 363.032 237.267 362.892 236.688C362.82 236.38 362.199 236.579 362.103 235.873C361.854 233.973 362.349 231.511 362.131 229.521C363.023 229.503 363.925 229.539 364.817 229.521C365.434 229.503 366.411 229.756 366.733 229.141C366.898 231.312 367.604 233.738 367.501 236.036H367.504Z" fill="#01499E"/>
<path d="M368.271 255.582C368.262 257.681 368.354 259.816 368.271 261.916C368.251 262.386 368.559 263.346 367.891 263.255C367.891 260.197 367.871 257.12 367.888 254.061C367.888 253.537 367.88 253.03 367.888 252.523C367.898 251.799 367.627 250.641 368.271 250.225C368.267 252.016 368.278 253.808 368.271 255.582Z" fill="#032C7B"/>
<path d="M261.716 89.2443L249.067 104.573L248.061 104.555C243.55 99.7051 235.648 101.642 233.849 108.012L232.964 108.211C233.267 108.265 233.722 108.356 233.73 108.573C233.949 113.64 234.202 121.133 233.73 126.038C233.958 127.105 233.699 127.739 232.964 127.956L232.995 127.449C238.609 127.142 244.328 127.069 250.147 127.196L250.596 127.956C250.61 128.083 251.233 128.535 250.976 129.114L238.75 129.15L235.648 140.987C232.66 141.005 227.115 140.498 224.531 140.987L225.677 89.2443C237.678 89.0995 249.715 89.4614 261.71 89.2443H261.716Z" fill="#FFBC57"/>
<path d="M223.766 73.9144V60.5039H231.048V73.9144C228.625 73.9144 226.188 73.9144 223.766 73.9144Z" fill="#42AEFD"/>
<path d="M214.567 73.9144C214.912 70.0957 214.111 65.5351 214.549 61.825C214.594 61.445 214.726 60.5039 215.142 60.5039H221.851V73.9144C219.428 73.9325 216.991 73.8963 214.567 73.9144Z" fill="#FDFDFD"/>
<path d="M246.769 60.504C247.082 61.1374 246.794 61.6803 246.623 61.1011C246.561 60.9021 246.91 60.7753 247.082 61.0106C247.455 61.5173 247.37 72.8286 247.059 73.462L246.002 73.9145C244.345 73.9145 242.675 73.9145 241.019 73.9145C241.41 71.8151 240.429 61.9517 241.187 60.8659C241.595 60.2686 245.734 60.4497 246.769 60.504Z" fill="#8DCFFC"/>
<path d="M239.483 60.5042V73.9146C237.318 73.9146 235.134 73.9146 232.966 73.9146V73.5346C232.867 72.8469 233.328 72.5934 234.343 72.7563C233.871 69.0462 234.007 65.3001 234.381 61.5719L235.262 60.5042C236.663 60.4499 238.081 60.5404 239.48 60.5042H239.483Z" fill="#86CBFC"/>
<path d="M246.768 60.5041C247.022 60.5041 247.282 60.486 247.535 60.5041V73.9146C247.025 73.9146 246.515 73.9146 246.001 73.9146C245.802 73.0459 246.707 73.3717 246.799 72.6116C247.087 70.1503 247.018 64.359 246.799 61.8071C246.718 60.9022 245.093 61.4633 246.765 60.5041H246.768Z" fill="#DEF5FD"/>
<path d="M246.769 38.2617V45.5553C247.789 45.682 247.742 46.0257 246.769 46.3152L246.2 47.8535C243.476 51.0207 241.162 54.4232 239.255 58.1152L235.269 58.5857C235.144 58.5857 235.014 58.5857 234.887 58.5857L234.335 57.9705C234.196 52.0343 234.174 46.0257 234.268 39.9809L234.887 38.6598V38.2617C238.842 38.2979 242.813 38.2617 246.769 38.2617Z" fill="#81C9FE"/>
<path d="M258.262 73.9144V60.5039H265.544V73.9144C263.123 73.8963 260.684 73.9325 258.262 73.9144Z" fill="#FEFEFE"/>
<path d="M249.449 73.9144V60.5039H255.966L256.35 73.9144C254.052 73.9144 251.745 73.9144 249.449 73.9144Z" fill="#C6EAFE"/>
<path d="M246.765 45.5547C248.512 44.505 253.412 39.3288 255.527 40.6138C256.479 41.211 255.708 56.341 255.965 58.5852C252.902 58.5671 249.828 58.5852 246.765 58.5852C246.466 58.549 246.014 58.4586 245.999 58.2414C245.864 56.5583 245.685 48.9933 245.999 47.7626L246.765 46.3147V45.5366V45.5547Z" fill="#FEFEFE"/>
<path d="M246.765 58.585C243.833 58.5669 240.882 58.585 237.949 58.585C237.057 58.585 236.159 58.585 235.266 58.585C236.112 57.6981 237.558 58.6754 238.528 57.8248C238.801 57.5714 241.495 52.6126 242.235 51.5629C243.5 49.7531 245.07 47.6899 246.76 46.3145V58.585H246.765Z" fill="#C0E7FE"/>
<path d="M234.885 38.6606C235.776 45.1216 234.384 51.9445 234.885 58.5865C230.677 58.5865 226.447 58.5684 222.239 58.5865C222.329 55.9623 221.797 53.8449 222.935 51.4379C225.242 46.4971 229.971 42.7869 233.737 39.0406H223.004C222.919 38.3709 223.871 38.6787 224.343 38.6606C227.846 38.5158 231.383 38.7692 234.885 38.6606Z" fill="#42ADFE"/>
<path d="M235.268 60.5033C234.812 64.702 234.514 69.3712 235.268 73.5337H232.969V60.5033C233.732 60.4852 234.505 60.5214 235.272 60.5033H235.268Z" fill="#48B2FD"/>
<path d="M267.461 239.113C267.642 240.054 271.614 239.819 272.444 239.113H272.828C272.824 239.493 272.817 239.873 272.828 240.253L272.56 241.032H233.997L237.76 254.062L237.178 254.822L237.075 255.745C231.934 258.858 231.424 264.107 231.558 269.735L231.889 286.838C231.969 287.525 231.746 287.942 231.046 288.177C231.677 288.394 231.773 288.901 231.341 289.697L249.171 289.788L251.361 290.475L252.77 291.778C257.472 301.479 263.932 311.885 272.556 318.002C274.013 317.966 277.382 318.057 275.891 319.993H219.93L221.075 239.493L267.458 239.113H267.461Z" fill="#FFBC57"/>
<path d="M231.434 229.539C245.1 229.539 258.784 229.521 272.447 229.539C275.912 229.376 276.614 234.679 273.598 235.656C271.532 236.344 267.642 236.108 265.337 236.072C250.716 235.819 236.176 235.656 221.469 235.656C221.67 233.611 221.798 231.602 221.852 229.539C225.038 228.779 228.25 228.779 231.434 229.539Z" fill="#FEC44E"/>
<path d="M201.539 319.994C207.646 319.795 213.824 320.012 219.938 319.994C238.577 319.903 257.26 319.867 275.899 319.994C276.647 319.233 277.455 319.233 278.199 319.994C281.078 318.817 284.929 318.745 287.781 319.994C289.4 320.03 291.193 319.849 292.764 319.994H198.473C199.448 319.903 200.535 320.012 201.539 319.994Z" fill="#0026BC"/>
<path d="M272.446 239.095C272.661 240.271 271.86 239.837 271.123 239.873C258.509 240.362 245.788 239.493 233.162 239.873C232.54 239.33 233.588 239.493 233.921 239.493C244.65 239.167 255.449 239.891 266.171 239.511C266.857 239.493 267.391 239.095 267.467 239.095C269.115 239.023 270.797 239.168 272.449 239.095H272.446Z" fill="#FEAE21"/>
<path d="M233.735 150.579C233.102 155.755 232.005 160.895 231.439 166.107C230.538 174.341 229.802 183.879 229.503 192.15C229.054 204.674 229.809 217.143 231.434 229.54C228.246 229.54 225.041 229.54 221.852 229.54C222.38 208.836 223.102 188.259 223.784 167.645C223.972 161.962 223.76 156.243 224.148 150.561C227.337 150.561 230.542 150.579 233.735 150.561V150.579Z" fill="#FFBC57"/>
<path d="M232.967 205.758C232.584 201.161 232.473 191.696 232.967 187.172C234.018 177.508 247.347 175.77 250.904 184.946C251.61 191.57 250.239 199.297 250.986 205.758C251.031 206.12 250.937 206.338 250.633 206.338H233.43L232.971 205.758H232.967Z" fill="#FDC851"/>
<path d="M250.983 205.758C251 205.903 251.62 206.337 251.363 206.916H233.191C232.755 206.862 232.995 206.12 232.965 205.758H250.98H250.983Z" fill="#FD8301"/>
<path d="M272.833 240.254C272.874 241.666 273.149 242.824 273.215 244.091C273.882 257.284 274.468 270.604 275.514 283.78C275.606 284.956 275.322 284.775 276.665 284.721C276.978 285.191 276.967 285.77 276.634 286.476C276.611 296.937 277.553 308.067 278.746 318.636L278.197 319.976C277.43 319.976 276.665 319.976 275.898 319.976C275.668 318.075 272.927 319.288 271.47 318.455C269.938 317.587 265.404 312.555 264.027 310.963C258.865 304.954 254.472 297.769 251.367 290.458C252.145 289.824 252.41 289.263 252.169 288.757L252.9 288.159L252.406 287.417C252.605 280.974 252.797 274.477 252.981 267.962C253.982 258.931 246.546 252.579 238.056 255.275L237.184 254.823L232.969 240.254H272.833Z" fill="#FCD99C"/>
<path d="M287.782 273.209C286.774 274.422 287.782 276.069 287.782 276.865V301.967H298.514C298.762 302.6 298.145 305.026 297.555 305.026H287.782V319.992C284.596 319.902 281.384 320.011 278.2 319.992C277.878 318.183 277.585 316.246 277.436 314.418C276.803 306.799 276.141 298.293 275.884 290.674C275.831 289.081 275.421 285.443 276.665 284.719C276.832 284.629 277.333 284.955 277.447 284.466C278.004 282.168 276.398 274.965 278.361 273.571C279.264 272.938 286.106 273.173 287.778 273.209H287.782Z" fill="#FE7100"/>
<path d="M344.89 273.21C344.452 275.382 345.65 283.037 344.327 284.358C343.656 285.01 337.892 284.738 336.457 284.72C336.851 282.277 335.679 275.744 337.036 273.988C338.053 272.685 343.111 273.21 344.89 273.21Z" fill="#FE7400"/>
<path d="M357.925 290.476C358.075 290.53 358.428 290.367 358.657 290.494C358.037 297.805 355.954 305.443 352.558 311.94C352.558 311.868 352.142 311.542 352.157 310.619C352.253 303.724 352.915 296.81 352.528 289.879L353.709 288.938C355.108 289.39 356.564 289.915 357.925 290.476Z" fill="#FD7600"/>
<path d="M323.422 273.211C323.013 275.31 324.052 282.586 323.236 283.961C322.568 285.083 318.97 284.703 317.674 284.721C318.15 282.531 316.903 275.401 317.884 274.007C318.805 272.722 321.821 273.247 323.422 273.211Z" fill="#FE7300"/>
<path d="M304.646 273.21C303.416 275.726 305.095 281.843 304.071 283.961C303.481 285.173 299.835 284.703 298.513 284.721C298.916 282.404 297.82 275.509 298.865 273.862C299.488 272.885 303.385 273.247 304.646 273.21Z" fill="#FD7300"/>
<path d="M249.068 104.573C249.907 105.695 250.446 106.781 250.6 108.211C251.272 114.382 249.891 121.839 250.6 127.956H232.969V108.211C232.969 108.066 233.908 105.876 234.103 105.514C237.184 100.013 245.319 99.542 249.068 104.573Z" fill="#FDC751"/>
<path d="M252.903 288.178L252.55 288.938H231.512L231.056 288.178C231.624 281.228 229.607 265.664 232.015 260.198C232.793 258.424 235.453 255.619 237.19 254.823C243.383 251.982 252.142 255.728 253.256 262.714C254.591 271.075 253.068 279.925 252.903 288.178Z" fill="#FCBD46"/>
<path d="M252.9 288.178C252.858 290.295 254.763 290.313 251.367 290.476C244.503 290.802 237.537 290.223 230.669 290.476C230.285 289.644 231.022 288.576 231.053 288.178H252.9Z" fill="#FE6F00"/>
<path d="M247.916 202.321H236.418V187.173C236.418 186.884 237.621 184.476 237.947 184.096C240.105 181.653 244.194 181.762 246.38 184.115C246.733 184.495 247.916 186.449 247.916 186.793V202.321Z" fill="#004595"/>
<path d="M247.532 124.499H236.418V108.211C236.418 108.012 237.985 105.84 238.348 105.55C240.918 103.523 244.8 104.193 246.555 106.889C246.751 107.197 247.531 108.826 247.531 108.989V124.499H247.532Z" fill="#004595"/>
<path d="M250.218 284.72H234.504V263.057C234.504 262.55 235.968 260.125 236.424 259.618C239.528 256.144 245.141 256.198 248.122 259.8C248.747 260.56 250.221 263.383 250.221 264.215V284.72H250.218Z" fill="#004593"/>
</g>
<path d="M410.131 33.7368C410.131 35.981 407.144 35.4742 404.902 42.0438C404.902 42.0438 397.016 68.8288 396.849 69.6613C396.268 71.6702 394.358 73.2447 392.033 73.2447H387.635C385.557 73.2447 383.649 71.9054 382.901 69.8423L375.762 47.8531L369.037 69.6613C368.456 71.5797 366.547 73.2447 364.222 73.2447H359.822C357.747 73.2447 355.838 71.9054 355.091 69.8423L347.038 42.46C344.961 35.4017 341.641 35.981 341.641 33.7368C341.641 32.6509 342.471 31.7461 343.799 31.7461H358.661C360.817 31.7461 361.648 32.6509 361.648 33.7368C361.648 35.981 359.656 35.4017 361.814 42.46L367.376 61.4448L375.346 35.4017C375.928 33.2299 377.92 31.7461 380.162 31.7461H381.99C384.229 31.7461 386.221 33.2301 386.804 35.3113L395.188 61.4448L400.667 42.46C402.411 35.4741 400.75 35.981 400.75 33.7368C400.75 32.6509 401.664 31.7461 403.656 31.7461H407.973C409.301 31.7461 410.131 32.6509 410.131 33.7368Z" fill="white"/>
<path d="M479.199 30.4249C476.543 30.4249 473.388 31.33 471.727 32.6511V14.4082C471.727 12.9966 470.565 11.8203 469.154 11.8203C464.837 11.8203 463.009 16.6342 457.448 16.6342C456.12 16.6342 455.206 17.4669 455.206 18.6433C455.206 20.8693 457.448 20.0368 457.448 27.4389V51.4188C455.389 54.6764 452.329 59.7076 447.842 63.1643C444.911 65.4266 441.376 67.0192 437.111 67.0192C436.19 67.0192 435.32 66.9106 434.501 66.7296C431.342 66.0238 428.948 63.9969 427.233 61.3727C419.844 50.3329 453.878 57.8797 450.059 43.4556C448.15 36.2164 439.017 30.4249 429.805 30.4249C417.52 30.4249 409.301 40.2884 409.301 52.4865C409.301 64.6845 419.679 74.5659 432.463 74.5659C432.916 74.5659 433.361 74.5661 433.795 74.5299C439.757 74.2223 444.497 71.797 448.233 68.7022C452.512 65.1731 455.476 60.7572 457.448 57.6444V62.531C457.448 69.8425 455.289 69.0099 455.289 71.2541C455.289 72.34 456.12 73.2448 457.448 73.2448C459.939 73.2448 463.923 69.8424 468.654 72.159C471.727 73.6611 474.799 74.5659 478.119 74.5659C490.905 74.5659 501.365 65.8608 501.365 52.414C501.365 38.9672 491.236 30.4249 479.199 30.4249ZM424.41 55.1468C422.002 47.0208 423.746 34.4066 429.805 34.4066C436.283 34.4066 440.848 47.0209 432.63 50.2605C428.977 51.6721 425.905 52.7398 424.41 55.1468ZM478.119 70.5845C475.132 70.5845 471.727 68.7567 471.727 63.2006V50.6767C471.727 40.958 460.851 53.156 457.697 57.1376C464.421 46.6769 471.146 34.4066 478.119 34.4066C484.014 34.4066 486.588 42.0439 486.588 52.414C486.588 62.7842 483.682 70.5845 478.119 70.5845Z" fill="white"/>
<path d="M550.69 55.8162C550.273 69.9146 536.411 74.5657 524.122 74.5657C515.738 74.5657 504.281 69.1727 504.281 60.2141C504.281 56.3231 507.435 53.1559 511.338 53.1559C515.238 53.1559 518.394 56.3955 518.394 60.2141C518.394 64.8472 518.976 69.245 526.28 69.245C534.25 69.245 535.994 60.3046 535.994 55.9068C535.994 51.8348 535.081 41.9533 523.955 41.9533C521.799 41.9533 520.471 39.6367 521.716 37.8088L533.919 23.2761H522.546C515.654 23.2761 513.331 27.7644 511.504 32.3251C511.171 33.0671 510.093 34.3158 508.349 33.8996C506.854 33.4833 506.025 32.0718 506.356 30.5877L510.59 14.8967C510.923 13.485 512.251 12.5801 513.662 12.5801H542.884C545.625 12.5801 547.118 15.8016 545.376 17.8829L529.436 36.8858C542.056 38.1346 551.104 44.7765 550.69 55.8162Z" fill="white"/>
<path d="M338.987 114.127C336.828 118.616 329.606 124.679 319.394 124.679C306.527 124.679 296.148 114.797 296.148 102.599C296.148 90.401 304.449 80.5195 316.653 80.5195C327.862 80.5195 335.915 87.4148 335.915 94.7083C335.915 98.527 332.759 101.676 328.859 101.676C324.706 101.676 321.801 98.4546 321.801 94.7083C321.801 88.0844 320.141 84.501 316.653 84.501C306.774 84.7544 307.024 118.688 325.786 117.132C328.942 116.878 332.676 115.955 335.998 112.227C336.412 111.811 337.326 111.069 338.488 111.901C338.987 112.227 339.568 113.042 338.987 114.127Z" fill="#F57C00"/>
<path d="M362.233 80.5195C371.448 80.5195 380.579 86.3289 382.49 93.55C386.307 107.992 352.269 100.445 359.658 111.485C362.15 115.213 365.969 117.53 371.364 117.132C378.09 116.535 380.995 112.806 381.576 112.137C382.656 110.978 383.818 111.648 384.149 111.974C384.896 112.734 384.813 113.639 384.565 114.127C381.909 119.104 374.686 124.679 364.889 124.679C352.103 124.679 341.727 114.797 341.727 102.599C341.727 90.401 349.946 80.5195 362.233 80.5195ZM356.836 105.241C358.33 102.853 361.403 101.767 365.055 100.355C373.275 97.1153 368.708 84.501 362.233 84.501C356.172 84.501 354.428 97.1155 356.836 105.241Z" fill="#F57C00"/>
<path d="M429.642 83.5953C429.642 86.0747 427.234 84.9166 424.162 92.5539L412.624 124.678C409.219 134.704 404.985 145.346 394.691 145.346C386.39 145.346 380.578 140.278 380.578 134.795C380.578 131.646 383.153 129.148 386.306 129.148C388.215 129.148 389.793 129.981 390.956 131.483C392.035 132.967 392.201 134.795 392.282 135.627C392.532 138.378 391.785 141.364 396.435 141.364C402.661 141.364 407.641 129.076 404.654 123.085L389.379 92.3911C385.393 85.4958 382.82 86.0747 382.82 83.8487C382.82 82.7628 383.732 81.8398 385.06 81.8398H400.585C402.661 81.8398 403.824 82.5094 403.824 83.8487C403.824 86.0747 402.246 85.4957 405.402 92.5539L413.536 110.471L419.928 92.5539C422.42 84.9166 421.175 86.0747 421.175 83.8487C421.175 82.2561 422.42 81.8398 423.748 81.8398H427.65C428.978 81.8398 429.642 82.7628 429.642 83.5953Z" fill="#F57C00"/>
<path d="M448.239 112.644V72.8828C443.879 75.9052 439.099 77.5883 433.98 77.8416H433.959V112.644C433.959 119.938 431.719 119.105 431.719 121.367C431.719 122.435 432.631 123.34 433.959 123.34H448.323C449.566 123.34 450.479 122.435 450.479 121.367C450.479 119.105 448.239 119.938 448.239 112.644Z" fill="#F57C00"/>
<path d="M477.464 80.5195C490.249 80.5195 500.627 90.401 500.627 102.599C500.627 114.797 490.249 124.679 477.464 124.679C464.68 124.679 454.219 114.797 454.219 102.599C454.219 90.401 464.597 80.5195 477.464 80.5195ZM469.495 104.753C472.067 114.381 477.712 121.186 482.114 120.027C486.513 118.869 488.007 110.055 485.434 100.427C482.862 90.8173 477.215 83.9943 472.733 85.1706C468.333 86.3289 466.922 95.1246 469.495 104.753Z" fill="#F57C00"/>
<path d="M549.858 121.349C549.858 122.435 548.944 123.339 547.699 123.339H533.337C532.007 123.339 531.094 122.435 531.094 121.349C531.094 119.105 533.337 119.937 533.337 112.643V94.7989C533.337 90.4011 530.515 88.4827 527.609 88.4827C524.37 88.4827 520.884 90.8897 520.884 94.7989V112.643C520.884 119.937 523.126 119.105 523.126 121.349C523.126 122.435 522.212 123.339 520.884 123.339H506.522C505.277 123.339 504.363 122.435 504.363 121.349C504.363 119.105 506.603 119.937 506.603 112.643V97.3689C506.603 90.0573 504.363 90.8897 504.363 88.6455C504.363 87.4872 505.277 86.6548 506.522 86.6548C512.167 86.6548 513.994 81.8407 518.309 81.8407C519.722 81.8407 520.884 83.0171 520.884 84.4106V86.9985C524.454 83.017 529.518 80.5195 534.416 80.5195C541.638 80.5195 547.616 85.3336 547.616 97.4411V112.643C547.616 119.937 549.858 119.105 549.858 121.349Z" fill="#F57C00"/>
<path d="M472.697 150.776C471.261 150.776 469.958 150.523 468.778 150.016C467.6 149.509 466.575 148.804 465.706 147.881C464.839 146.939 464.172 145.854 463.698 144.605C463.224 143.356 462.992 141.963 462.992 140.442C462.992 139.013 463.233 137.728 463.714 136.515C464.195 135.321 464.881 134.289 465.766 133.402C466.649 132.533 467.704 131.846 468.919 131.357C470.137 130.868 471.481 130.615 472.951 130.615C473.535 130.615 474.146 130.669 474.789 130.778C475.427 130.887 476.059 131.05 476.669 131.267C477.284 131.466 477.816 131.737 478.266 132.063C478.624 132.298 478.932 132.534 479.189 132.769C479.442 133.004 479.58 133.275 479.6 133.583C479.618 133.746 479.592 133.909 479.513 134.108C479.439 134.307 479.326 134.506 479.173 134.723C478.965 135.031 478.737 135.284 478.492 135.429C478.246 135.574 478.009 135.646 477.787 135.646C477.675 135.646 477.515 135.61 477.322 135.52C477.123 135.411 476.864 135.266 476.54 135.049C476.296 134.904 475.981 134.76 475.594 134.597C475.209 134.452 474.772 134.325 474.291 134.235C473.81 134.108 473.316 134.072 472.806 134.072C471.559 134.072 470.456 134.343 469.493 134.868C468.529 135.411 467.781 136.153 467.242 137.13C466.707 138.108 466.437 139.23 466.437 140.515C466.437 141.8 466.71 143.03 467.26 144.062C467.807 145.075 468.554 145.872 469.509 146.433C470.459 147.012 471.559 147.302 472.806 147.302C473.236 147.302 473.672 147.283 474.108 147.211C474.539 147.157 474.971 147.066 475.395 146.958C475.818 146.849 476.209 146.704 476.571 146.541V142.107H472.581C472.315 142.107 472.075 142.071 471.86 142.017C471.642 141.963 471.472 141.818 471.347 141.601C471.224 141.383 471.165 141.04 471.165 140.569C471.165 140.099 471.232 139.736 471.364 139.519C471.498 139.32 471.671 139.194 471.888 139.139C472.104 139.067 472.344 139.049 472.61 139.049H478.384C478.874 139.049 479.231 139.139 479.459 139.302C479.683 139.465 479.837 139.682 479.911 139.954C479.987 140.207 480.025 140.515 480.025 140.822V147.392C480.025 147.754 479.84 148.152 479.471 148.568C479.102 148.966 478.592 149.328 477.932 149.654C477.495 149.871 477.002 150.071 476.446 150.252C475.889 150.414 475.295 150.541 474.664 150.632C474.034 150.722 473.378 150.776 472.697 150.776Z" fill="white"/>
<path d="M501.161 148.241C501.347 148.603 501.447 148.911 501.459 149.183C501.467 149.472 501.389 149.689 501.219 149.888C501.049 150.087 500.766 150.287 500.372 150.504C499.769 150.775 499.297 150.866 498.957 150.739C498.617 150.594 498.304 150.232 498.022 149.635L491.742 136.315L485.462 149.635C485.179 150.196 484.868 150.576 484.528 150.703C484.188 150.829 483.717 150.757 483.111 150.467C482.733 150.286 482.456 150.087 482.277 149.888C482.1 149.671 482.024 149.418 482.053 149.128C482.082 148.839 482.19 148.477 482.377 148.06L490.16 131.881C490.31 131.573 490.533 131.338 490.824 131.139C491.116 130.958 491.436 130.867 491.771 130.867C491.999 130.867 492.203 130.922 492.393 130.994C492.579 131.084 492.755 131.193 492.916 131.356C493.079 131.501 493.214 131.7 493.327 131.917L501.164 148.223L501.161 148.241ZM486.703 145.527L488.06 142.577H495.445L496.773 145.527H486.697H486.703Z" fill="white"/>
<path d="M505.181 150.63C504.635 150.63 504.238 150.558 503.994 150.395C503.75 150.232 503.593 150.033 503.529 149.762C503.464 149.508 503.43 149.219 503.43 148.911V132.587C503.43 132.279 503.459 131.989 503.513 131.736C503.571 131.483 503.721 131.283 503.965 131.121C504.211 130.958 504.604 130.867 505.152 130.867C505.7 130.867 506.062 130.958 506.299 131.121C506.534 131.283 506.685 131.483 506.752 131.736C506.817 131.989 506.851 132.279 506.851 132.587V147.59H515.451C515.735 147.59 515.995 147.626 516.232 147.662C516.467 147.716 516.652 147.843 516.784 148.06C516.916 148.259 516.983 148.603 516.983 149.092C516.983 149.563 516.916 149.906 516.784 150.123C516.652 150.341 516.473 150.468 516.245 150.54C516.021 150.612 515.762 150.648 515.481 150.648H505.181V150.63Z" fill="white"/>
<path d="M521.077 150.63C520.529 150.63 520.135 150.558 519.891 150.395C519.645 150.232 519.487 150.033 519.424 149.762C519.359 149.508 519.324 149.219 519.324 148.911V132.587C519.324 132.279 519.355 131.989 519.407 131.736C519.465 131.483 519.616 131.283 519.86 131.121C520.106 130.958 520.5 130.867 521.047 130.867C521.595 130.867 521.957 130.958 522.194 131.121C522.429 131.283 522.579 131.483 522.646 131.736C522.711 131.989 522.746 132.279 522.746 132.587V147.59H531.347C531.629 147.59 531.89 147.626 532.127 147.662C532.364 147.716 532.547 147.843 532.679 148.06C532.811 148.259 532.878 148.603 532.878 149.092C532.878 149.563 532.811 149.906 532.679 150.123C532.547 150.341 532.367 150.468 532.139 150.54C531.915 150.612 531.658 150.648 531.376 150.648H521.077V150.63Z" fill="white"/>
<path d="M537.033 150.63C536.484 150.63 536.093 150.558 535.858 150.395C535.621 150.232 535.471 150.033 535.406 149.762C535.339 149.508 535.305 149.201 535.305 148.875V132.587C535.305 131.935 535.439 131.483 535.705 131.229C535.971 130.994 536.439 130.867 537.119 130.867H548.129C548.447 130.867 548.742 130.903 549.005 130.976C549.271 131.03 549.473 131.193 549.627 131.428C549.775 131.682 549.855 132.08 549.855 132.623C549.855 133.166 549.775 133.528 549.614 133.763C549.452 133.998 549.24 134.161 548.979 134.215C548.713 134.288 548.424 134.306 548.104 134.306H538.768V139.029H545.189C545.509 139.029 545.786 139.084 546.023 139.138C546.26 139.21 546.443 139.337 546.575 139.554C546.709 139.753 546.776 140.115 546.776 140.622C546.776 141.074 546.709 141.418 546.575 141.636C546.443 141.835 546.256 141.979 546.012 142.052C545.766 142.088 545.476 142.124 545.135 142.124H538.768V147.174H548.132C548.451 147.174 548.746 147.228 549.008 147.282C549.274 147.355 549.477 147.499 549.631 147.753C549.781 147.988 549.859 148.368 549.859 148.911C549.859 149.436 549.781 149.834 549.618 150.069C549.455 150.305 549.245 150.468 548.983 150.54C548.717 150.594 548.427 150.63 548.107 150.63H537.045H537.033Z" fill="white"/>
<path d="M504.418 156.803C504.517 156.803 504.606 156.821 504.68 156.839C504.754 156.857 504.817 156.893 504.863 156.984C504.908 157.056 504.931 157.183 504.931 157.364C504.931 157.508 504.908 157.635 504.859 157.708C504.808 157.78 504.745 157.816 504.667 157.834C504.588 157.87 504.501 157.87 504.401 157.87H502.596V163.137C502.596 163.246 502.583 163.336 502.563 163.427C502.538 163.517 502.487 163.59 502.406 163.644C502.322 163.698 502.185 163.716 501.993 163.716C501.803 163.716 501.675 163.68 501.595 163.644C501.512 163.59 501.463 163.499 501.441 163.427C501.421 163.336 501.412 163.228 501.412 163.119V157.889H499.578C499.487 157.889 499.4 157.87 499.317 157.852C499.234 157.834 499.17 157.78 499.125 157.708C499.08 157.635 499.055 157.508 499.055 157.346C499.055 157.165 499.08 157.056 499.125 156.984C499.17 156.911 499.237 156.857 499.317 156.839C499.4 156.821 499.487 156.803 499.578 156.803H504.426H504.418Z" fill="#F57C00"/>
<path d="M508.868 163.806C508.396 163.806 507.951 163.715 507.537 163.534C507.121 163.353 506.755 163.1 506.444 162.792C506.135 162.466 505.889 162.104 505.709 161.67C505.532 161.254 505.445 160.801 505.445 160.331C505.445 159.842 505.532 159.354 505.702 158.937C505.872 158.503 506.113 158.123 506.419 157.797C506.728 157.471 507.079 157.218 507.486 157.037C507.893 156.856 508.326 156.766 508.785 156.766C509.247 156.766 509.703 156.838 510.119 157.019C510.533 157.2 510.895 157.453 511.206 157.779C511.517 158.105 511.758 158.467 511.937 158.901C512.116 159.318 512.203 159.788 512.203 160.277C512.203 160.765 512.116 161.218 511.944 161.634C511.774 162.05 511.534 162.43 511.222 162.756C510.911 163.082 510.558 163.335 510.157 163.516C509.753 163.697 509.326 163.788 508.874 163.788L508.868 163.806ZM508.811 162.593C509.115 162.593 509.4 162.539 509.666 162.412C509.932 162.304 510.164 162.123 510.363 161.924C510.564 161.706 510.716 161.471 510.828 161.181C510.94 160.91 510.994 160.602 510.994 160.277C510.994 159.969 510.936 159.661 510.828 159.39C510.716 159.1 510.558 158.865 510.359 158.648C510.16 158.449 509.927 158.268 509.666 158.141C509.404 158.033 509.125 157.96 508.823 157.96C508.521 157.96 508.246 158.033 507.986 158.141C507.723 158.268 507.492 158.449 507.287 158.648C507.088 158.847 506.931 159.1 506.819 159.39C506.706 159.661 506.652 159.969 506.652 160.277C506.652 160.602 506.71 160.91 506.826 161.181C506.943 161.453 507.097 161.706 507.296 161.924C507.495 162.123 507.723 162.304 507.98 162.412C508.242 162.539 508.521 162.593 508.816 162.593H508.811Z" fill="#F57C00"/>
<path d="M515.852 163.77C515.392 163.77 514.985 163.68 514.629 163.517C514.27 163.354 513.972 163.119 513.722 162.811C513.478 162.522 513.292 162.178 513.167 161.798C513.042 161.4 512.98 161.001 512.98 160.567V157.418C512.98 157.309 512.993 157.219 513.013 157.11C513.038 157.02 513.093 156.947 513.176 156.893C513.263 156.839 513.4 156.803 513.59 156.803C513.782 156.803 513.918 156.839 514.001 156.893C514.084 156.947 514.135 157.02 514.16 157.11C514.184 157.201 514.193 157.309 514.193 157.418V160.549C514.193 160.929 514.254 161.255 514.375 161.563C514.495 161.87 514.681 162.106 514.927 162.286C515.171 162.467 515.492 162.576 515.883 162.576C516.23 162.576 516.53 162.485 516.778 162.322C517.026 162.16 517.221 161.925 517.355 161.617C517.489 161.327 517.558 160.965 517.558 160.549V157.364C517.558 157.273 517.571 157.165 517.6 157.092C517.625 157.02 517.683 156.947 517.766 156.893C517.849 156.839 517.985 156.803 518.173 156.803C518.359 156.803 518.493 156.839 518.58 156.893C518.667 156.965 518.718 157.038 518.738 157.128C518.758 157.219 518.767 157.309 518.767 157.436V160.585C518.767 161.02 518.705 161.436 518.58 161.816C518.455 162.196 518.269 162.54 518.016 162.829C517.766 163.119 517.458 163.354 517.098 163.517C516.737 163.698 516.322 163.77 515.852 163.77Z" fill="#F57C00"/>
<path d="M520.535 163.716C520.352 163.716 520.215 163.679 520.128 163.625C520.041 163.571 519.992 163.499 519.97 163.408C519.95 163.318 519.941 163.209 519.941 163.1V157.399C519.941 157.309 519.954 157.2 519.974 157.11C519.999 157.037 520.054 156.947 520.137 156.893C520.224 156.856 520.358 156.82 520.544 156.82H522.657C522.95 156.82 523.238 156.875 523.515 156.965C523.793 157.056 524.039 157.2 524.255 157.399C524.47 157.598 524.644 157.834 524.772 158.123C524.901 158.413 524.964 158.757 524.964 159.155C524.964 159.408 524.922 159.662 524.843 159.915C524.765 160.168 524.647 160.404 524.495 160.621C524.342 160.838 524.143 161.019 523.902 161.164C523.661 161.309 523.383 161.417 523.068 161.453H521.132V163.118C521.132 163.209 521.121 163.318 521.099 163.408C521.079 163.499 521.025 163.571 520.942 163.625C520.859 163.679 520.721 163.697 520.531 163.697L520.535 163.716ZM521.141 160.277H522.809C522.93 160.277 523.046 160.259 523.158 160.205C523.274 160.168 523.374 160.096 523.466 160.006C523.556 159.915 523.627 159.788 523.681 159.662C523.736 159.517 523.764 159.354 523.764 159.155C523.764 158.92 523.719 158.721 523.632 158.558C523.544 158.377 523.415 158.25 523.245 158.16C523.081 158.069 522.876 158.033 522.639 158.033H521.137V160.277H521.141ZM524.736 163.553C524.544 163.698 524.39 163.752 524.271 163.716C524.15 163.679 524.03 163.571 523.906 163.39L522.245 160.892L523.591 160.711L524.901 162.702C524.993 162.829 525.051 162.955 525.067 163.046C525.085 163.136 525.067 163.227 525.018 163.299C524.968 163.372 524.868 163.462 524.731 163.571L524.736 163.553Z" fill="#F57C00"/>
<path d="M528.804 163.68C528.645 163.68 528.51 163.626 528.388 163.499C528.267 163.372 528.211 163.228 528.211 163.065C528.211 162.956 528.218 162.848 528.231 162.739C528.242 162.649 528.272 162.558 528.314 162.468C528.356 162.377 528.426 162.287 528.526 162.196C528.819 161.943 529.128 161.707 529.443 161.508C529.758 161.291 530.062 161.092 530.351 160.911C530.643 160.712 530.9 160.513 531.128 160.332C531.355 160.151 531.535 159.934 531.672 159.735C531.804 159.518 531.875 159.282 531.875 159.011C531.875 158.83 531.833 158.649 531.75 158.486C531.667 158.305 531.535 158.178 531.356 158.088C531.175 157.979 530.941 157.925 530.65 157.925C530.447 157.925 530.268 157.961 530.111 158.015C529.957 158.07 529.829 158.16 529.725 158.269C529.62 158.377 529.543 158.522 529.488 158.685C529.43 158.848 529.405 159.029 529.405 159.228C529.405 159.337 529.396 159.445 529.376 159.536C529.356 159.608 529.306 159.681 529.222 159.735C529.139 159.789 528.998 159.807 528.804 159.807C528.609 159.807 528.468 159.771 528.385 159.717C528.301 159.662 528.253 159.572 528.234 159.481C528.218 159.373 528.211 159.264 528.211 159.156C528.211 158.83 528.263 158.522 528.372 158.233C528.479 157.925 528.642 157.672 528.85 157.454C529.061 157.219 529.315 157.056 529.613 156.93C529.912 156.803 530.252 156.73 530.634 156.73C531.115 156.73 531.538 156.821 531.904 157.038C532.269 157.219 532.557 157.509 532.763 157.871C532.971 158.215 533.074 158.649 533.074 159.138C533.074 159.391 533.036 159.626 532.955 159.861C532.875 160.079 532.763 160.278 532.622 160.477C532.481 160.676 532.32 160.857 532.137 161.02C531.954 161.201 531.763 161.345 531.56 161.49C531.356 161.635 531.149 161.78 530.938 161.906C530.726 162.033 530.521 162.16 530.326 162.269L529.953 162.468H532.76C532.872 162.468 532.971 162.486 533.062 162.504C533.15 162.54 533.221 162.576 533.273 162.667C533.328 162.757 533.353 162.884 533.353 163.083C533.353 163.282 533.324 163.409 533.27 163.481C533.215 163.571 533.141 163.626 533.045 163.644C532.953 163.662 532.85 163.68 532.738 163.68H528.799H528.804Z" fill="#F57C00"/>
<path d="M536.551 163.807C536.16 163.807 535.823 163.734 535.536 163.59C535.25 163.463 535.009 163.282 534.81 163.065C534.611 162.829 534.452 162.558 534.332 162.269C534.213 161.961 534.126 161.653 534.072 161.309C534.018 160.965 533.992 160.622 533.992 160.26C533.992 159.916 534.018 159.59 534.072 159.246C534.126 158.902 534.209 158.576 534.329 158.287C534.448 157.979 534.602 157.726 534.797 157.473C534.993 157.237 535.233 157.056 535.525 156.93C535.814 156.803 536.151 156.73 536.532 156.73C536.914 156.73 537.247 156.785 537.524 156.93C537.803 157.056 538.04 157.237 538.235 157.473C538.43 157.708 538.582 157.979 538.704 158.287C538.825 158.576 538.906 158.902 538.962 159.246C539.015 159.572 539.04 159.934 539.04 160.278C539.04 160.621 539.015 160.965 538.962 161.309C538.906 161.653 538.825 161.979 538.704 162.269C538.582 162.576 538.43 162.829 538.235 163.065C538.04 163.3 537.808 163.463 537.529 163.59C537.251 163.734 536.927 163.807 536.551 163.807ZM536.513 162.576C536.773 162.576 536.988 162.522 537.158 162.413C537.325 162.287 537.459 162.142 537.549 161.961C537.642 161.78 537.707 161.581 537.754 161.364C537.795 161.146 537.824 160.965 537.832 160.766C537.841 160.585 537.85 160.441 537.85 160.314V160.26C537.85 159.753 537.799 159.337 537.699 158.993C537.6 158.649 537.453 158.378 537.26 158.215C537.064 158.034 536.818 157.925 536.525 157.925C536.23 157.925 535.981 158.034 535.785 158.197C535.586 158.377 535.441 158.649 535.346 158.993C535.251 159.337 535.201 159.771 535.201 160.278C535.201 160.784 535.251 161.183 535.349 161.526C535.449 161.87 535.595 162.124 535.789 162.305C535.984 162.486 536.225 162.576 536.516 162.576H536.513Z" fill="#F57C00"/>
<path d="M540.316 163.68C540.157 163.68 540.021 163.626 539.9 163.499C539.78 163.372 539.723 163.228 539.723 163.065C539.723 162.956 539.73 162.848 539.743 162.739C539.755 162.649 539.784 162.558 539.826 162.468C539.867 162.377 539.938 162.287 540.037 162.196C540.332 161.943 540.64 161.707 540.955 161.508C541.271 161.291 541.574 161.092 541.863 160.911C542.154 160.712 542.411 160.513 542.641 160.332C542.869 160.151 543.046 159.934 543.184 159.735C543.318 159.518 543.386 159.282 543.386 159.011C543.386 158.83 543.345 158.649 543.262 158.486C543.178 158.305 543.046 158.178 542.869 158.088C542.686 157.979 542.453 157.925 542.163 157.925C541.959 157.925 541.782 157.961 541.622 158.015C541.47 158.07 541.34 158.16 541.237 158.269C541.132 158.377 541.054 158.522 541 158.685C540.942 158.848 540.917 159.029 540.917 159.228C540.917 159.337 540.909 159.445 540.89 159.536C540.868 159.608 540.817 159.681 540.734 159.735C540.653 159.789 540.512 159.807 540.316 159.807C540.121 159.807 539.979 159.771 539.896 159.717C539.813 159.662 539.764 159.572 539.746 159.481C539.73 159.373 539.723 159.264 539.723 159.156C539.723 158.83 539.775 158.522 539.884 158.233C539.992 157.925 540.153 157.672 540.361 157.454C540.573 157.219 540.826 157.056 541.125 156.93C541.423 156.803 541.765 156.73 542.147 156.73C542.627 156.73 543.05 156.821 543.415 157.038C543.781 157.219 544.069 157.509 544.277 157.871C544.483 158.215 544.586 158.649 544.586 159.138C544.586 159.391 544.55 159.626 544.467 159.861C544.387 160.079 544.277 160.278 544.134 160.477C543.993 160.676 543.832 160.857 543.649 161.02C543.466 161.201 543.276 161.345 543.072 161.49C542.869 161.635 542.661 161.78 542.449 161.906C542.237 162.033 542.033 162.16 541.838 162.269L541.465 162.468H544.271C544.383 162.468 544.483 162.486 544.575 162.504C544.662 162.54 544.732 162.576 544.787 162.667C544.839 162.757 544.865 162.884 544.865 163.083C544.865 163.282 544.836 163.409 544.781 163.481C544.729 163.571 544.653 163.626 544.559 163.644C544.467 163.662 544.363 163.68 544.251 163.68H540.312H540.316Z" fill="#F57C00"/>
<path d="M547.611 163.807C547.354 163.807 547.124 163.77 546.925 163.716C546.726 163.662 546.547 163.608 546.399 163.535C546.245 163.463 546.117 163.39 546.008 163.318C545.901 163.246 545.812 163.209 545.747 163.137C545.668 163.083 545.601 163.01 545.547 162.956C545.494 162.884 545.469 162.811 545.469 162.721C545.469 162.667 545.485 162.594 545.523 162.522C545.561 162.449 545.617 162.377 545.697 162.286C545.767 162.196 545.841 162.123 545.912 162.087C545.983 162.051 546.053 162.033 546.12 162.033C546.178 162.033 546.245 162.051 546.312 162.069C546.381 162.106 546.469 162.16 546.572 162.25C546.627 162.305 546.69 162.359 546.762 162.395C546.838 162.449 546.938 162.486 547.059 162.522C547.179 162.558 547.34 162.576 547.535 162.576C547.759 162.576 547.955 162.54 548.118 162.449C548.282 162.359 548.412 162.232 548.503 162.087C548.593 161.924 548.639 161.725 548.639 161.508C548.639 161.309 548.59 161.128 548.494 160.965C548.4 160.802 548.271 160.676 548.108 160.585C547.947 160.495 547.768 160.44 547.569 160.44C547.464 160.44 547.365 160.459 547.278 160.477C547.191 160.513 547.112 160.531 547.041 160.585C546.97 160.621 546.913 160.658 546.867 160.694C546.813 160.766 546.762 160.802 546.714 160.839C546.665 160.857 546.601 160.875 546.524 160.893C546.444 160.893 546.364 160.893 546.29 160.875C546.216 160.875 546.124 160.839 546.021 160.784C545.87 160.712 545.762 160.639 545.7 160.585C545.639 160.513 545.606 160.44 545.606 160.35L546.012 157.418C546.024 157.328 546.046 157.237 546.071 157.146C546.095 157.056 546.149 156.965 546.232 156.893C546.315 156.821 546.44 156.803 546.614 156.803H549.071C549.183 156.803 549.283 156.821 549.366 156.839C549.449 156.857 549.52 156.911 549.574 157.002C549.628 157.092 549.654 157.237 549.654 157.418C549.654 157.581 549.628 157.726 549.578 157.798C549.529 157.888 549.462 157.925 549.375 157.961C549.288 157.979 549.196 157.979 549.096 157.979H547.142L546.925 159.445C546.992 159.409 547.059 159.373 547.133 159.336C547.204 159.318 547.278 159.282 547.358 159.264C547.437 159.246 547.506 159.246 547.582 159.246H547.638C547.929 159.246 548.204 159.3 548.469 159.427C548.731 159.535 548.968 159.698 549.174 159.897C549.382 160.096 549.545 160.332 549.665 160.603C549.786 160.857 549.844 161.146 549.844 161.436C549.844 161.888 549.744 162.286 549.549 162.648C549.35 162.992 549.084 163.264 548.744 163.481C548.403 163.68 548.025 163.789 547.602 163.789L547.611 163.807Z" fill="#F57C00"/>
</svg>
