<?xml version="1.0" encoding="UTF-8"?>
<svg id="Layer_1" xmlns="http://www.w3.org/2000/svg" version="1.1" viewBox="0 0 494 364">
  <!-- Generator: Adobe Illustrator 29.1.0, SVG Export Plug-In . SVG Version: 2.1.0 Build 142)  -->
  <defs>
    <style>
      .st0 {
        fill: #46d4fa;
      }

      .st1 {
        fill: #e94207;
      }

      .st2 {
        fill: #fda311;
      }

      .st3 {
        fill: #fc9803;
      }

      .st4 {
        fill: #e12f05;
      }

      .st5 {
        fill: #052952;
      }

      .st6 {
        fill: #072952;
      }

      .st7 {
        fill: #fdc642;
      }

      .st8 {
        fill: #f78007;
      }

      .st9 {
        fill: #fdc640;
      }

      .st10 {
        fill: #fdb723;
      }

      .st11 {
        fill: #092c54;
      }

      .st12 {
        fill: #11274a;
      }

      .st13 {
        fill: #fdc641;
      }

      .st14 {
        fill: #feae0f;
      }

      .st15 {
        fill: #e43c07;
      }

      .st16 {
        fill: #612726;
      }

      .st17 {
        fill: #fb9104;
      }

      .st18 {
        fill: #e93f09;
      }

      .st19 {
        fill: #eb450a;
      }

      .st20 {
        fill: #005d5c;
      }

      .st21 {
        fill: #fdc63f;
      }

      .st22 {
        fill: #f14005;
      }

      .st23 {
        fill: #ef4d08;
      }

      .st24 {
        fill: #fcb626;
      }

      .st25 {
        fill: #fa4807;
      }

      .st26 {
        fill: #fdb622;
      }

      .st27 {
        fill: #e94009;
      }

      .st28 {
        fill: #fcbc2e;
      }

      .st29 {
        fill: #dab6c0;
      }

      .st30 {
        fill: #fea400;
      }

      .st31 {
        fill: #df3807;
      }

      .st32 {
        fill: #d12008;
      }

      .st33 {
        fill: #fd9901;
      }

      .st34 {
        fill: #fcb827;
      }

      .st35 {
        fill: #fdbd2f;
      }

      .st36 {
        fill: #feb41f;
      }

      .st37 {
        fill: #fb6b04;
      }

      .st38 {
        fill: #072b54;
      }

      .st39 {
        fill: #e53705;
      }

      .st40 {
        fill: #e73f09;
      }

      .st41 {
        fill: #fdb621;
      }

      .st42 {
        fill: #fdba29;
      }

      .st43 {
        fill: #09335f;
      }

      .st44 {
        fill: #fd7f09;
      }

      .st45 {
        fill: #fda801;
      }

      .st46 {
        fill: #fcb927;
      }

      .st47 {
        fill: #062952;
      }

      .st48 {
        fill: #005667;
      }

      .st49 {
        fill: #fb6d04;
      }

      .st50 {
        fill: #1d2744;
      }

      .st51 {
        fill: #e64009;
      }

      .st52 {
        fill: #feb722;
      }

      .st53 {
        fill: #feaa00;
      }

      .st54 {
        fill: #fda601;
      }

      .st55 {
        fill: #fb6804;
      }

      .st56 {
        fill: #fef3dd;
      }

      .st57 {
        fill: #feb41d;
      }

      .st58 {
        fill: #e73e08;
      }

      .st59 {
        fill: #0d274d;
      }

      .st60 {
        fill: #df2d05;
      }

      .st61 {
        fill: #e53a07;
      }

      .st62 {
        fill: #fc6b05;
      }

      .st63 {
        fill: #fdc540;
      }

      .st64 {
        fill: #fc9a01;
      }

      .st65 {
        fill: #e83e0a;
      }

      .st66 {
        fill: #feb41e;
      }

      .st67 {
        fill: #122246;
      }

      .st68 {
        fill: #f14a07;
      }

      .st69 {
        fill: #e83e08;
      }

      .st70 {
        fill: #cf2308;
      }

      .st71 {
        fill: #fd9b01;
      }

      .st72 {
        fill: #fc9a02;
      }

      .st73 {
        fill: #e73b08;
      }

      .st74 {
        fill: #ec440b;
      }

      .st75 {
        fill: #f25209;
      }

      .st76 {
        fill: #fea500;
      }

      .st77 {
        fill: #0c2850;
      }

      .st78 {
        fill: #eb4409;
      }

      .st79 {
        fill: #fda001;
      }

      .st80 {
        fill: #e73c05;
      }

      .st81 {
        fill: #feb31c;
      }

      .st82 {
        fill: #fda500;
      }

      .st83 {
        fill: #c62828;
      }

      .st84 {
        fill: #e83e09;
      }

      .st85 {
        fill: #005e5b;
      }

      .st86 {
        fill: #fdb92f;
      }

      .st87 {
        fill: #fc9703;
      }

      .st88 {
        fill: #fd9307;
      }

      .st89 {
        fill: #fec640;
      }

      .st90 {
        fill: #fdbc2d;
      }

      .st91 {
        fill: #fdc744;
      }

      .st92 {
        fill: #e83f09;
      }

      .st93 {
        fill: #e63b08;
      }

      .st94 {
        fill: #e33708;
      }

      .st95 {
        fill: #fdc742;
      }

      .st96 {
        fill: #de2c05;
      }

      .st97 {
        fill: #e84408;
      }

      .st98 {
        fill: #3babfc;
      }

      .st99 {
        fill: #d11d09;
      }

      .st100 {
        fill: #f94908;
      }

      .st101 {
        fill: #062b55;
      }

      .st102 {
        fill: #fec643;
      }

      .st103 {
        fill: #e53c08;
      }

      .st104 {
        fill: #fc9205;
      }

      .st105 {
        fill: #feb723;
      }

      .st106 {
        fill: #2e2e2e;
      }

      .st107 {
        fill: #fc9901;
      }

      .st108 {
        fill: #feb623;
      }

      .st109 {
        fill: #d62406;
      }

      .st110 {
        fill: #fc9402;
      }

      .st111 {
        fill: #0083a3;
      }

      .st112 {
        fill: #fd9a01;
      }

      .st113 {
        fill: #062850;
      }

      .st114 {
        fill: #e43a06;
      }

      .st115 {
        fill: #fa920c;
      }

      .st116 {
        fill: #f77b05;
      }

      .st117 {
        fill: #fd9201;
      }

      .st118 {
        fill: #ea4409;
      }

      .st119 {
        fill: #e73e07;
      }

      .st120 {
        fill: #f7d33d;
      }

      .st121 {
        fill: #e43505;
      }

      .st122 {
        fill: #0a345f;
      }

      .st123 {
        fill: #feb724;
      }

      .st124 {
        fill: #e84108;
      }

      .st125 {
        fill: #fcb80b;
      }

      .st126 {
        fill: #e94607;
      }

      .st127 {
        fill: #062c56;
      }

      .st128 {
        fill: #ed4c09;
      }

      .st129 {
        fill: #e33707;
      }

      .st130 {
        fill: #feb51f;
      }

      .st131 {
        fill: #142548;
      }

      .st132 {
        fill: #fc6405;
      }

      .st133 {
        fill: #e94107;
      }

      .st134 {
        fill: #fd9e01;
      }

      .st135 {
        fill: #fb6904;
      }

      .st136 {
        fill: #ec450a;
      }

      .st137 {
        fill: #e53c06;
      }

      .st138 {
        fill: #f7ea9e;
      }

      .st139 {
        fill: #e94109;
      }

      .st140 {
        fill: #e63d07;
      }

      .st141 {
        fill: #8fd6f2;
      }

      .st142 {
        fill: #007a79;
      }

      .st143 {
        fill: #ea4309;
      }

      .st144 {
        fill: #3baafc;
      }

      .st145 {
        fill: #76d0ed;
      }

      .st146 {
        fill: #cd2806;
      }

      .st147 {
        fill: #e93f0a;
      }

      .st148 {
        fill: #fcb92a;
      }

      .st149 {
        fill: #e63d08;
      }

      .st150 {
        fill: #fdc53e;
      }

      .st151 {
        fill: #ea4109;
      }

      .st152 {
        fill: #e53b07;
      }

      .st153 {
        fill: #fbb122;
      }

      .st154 {
        fill: #fa4a08;
      }

      .st155 {
        fill: #fb750e;
      }

      .st156 {
        fill: #1d1f3e;
      }

      .st157 {
        fill: #092b54;
      }

      .st158 {
        fill: #2795f4;
      }

      .st159 {
        fill: #e53907;
      }
    </style>
  </defs>
  <path class="st25" d="M243.4,129.8c.5-.6,1.9-.9,2.1,0h.8c6.3,9.8,12.6,19.5,18.7,29.4,4.7,4.4,10.2,9.1,15.2,13.3,4.1,3.5,7.8,6.2,12.4,9,1.5.2,3.2,1.7.9,1.6l-1.2.5c-7.1-.8-14.3-1.1-21.5-.8l-1.1-.7c-.3-.1-.7-.2-1-.4-.3-.2-.6-.3-.8-.6-6-7.1-11.5-16.4-16.1-24.3-2-6.4-4-12.8-6-19.3.6,15.6,4.7,29.8,11.7,43.5v1s-2.5.5-2.5.5c-18.9.3-37.5.6-55.8.9l-.7-.6c-1,.5-1.1-.6-.4-1.2,10-7.5,19.9-15.5,27.6-25.3,4.7-8.5,9.5-16.9,14.4-25,.3-.3.8-1.2,1.1-1.4-.1-1.4,2-1.2,2.1,0h0Z"/>
  <path class="st14" d="M411.8,186c-3.5-.2-7.4-1.7-11-1.8l.9-2.8c-.8.3-1.2,2.8-1.5,2.9-1.3.4-4.8-.9-6.5-.4l.9-2.1c-2.2,2.3-3.9,1.4-6.4,1.8-4.4.7-8.6,2-12.6,3.9-.2-.2,1.4-2.5,1.6-2.8,7.3-9.3,19.9-12.7,30.9-7.9,1.7.7,3.1,1.8,4.7,2.5l-3.7-5.3c-1.6-1.6-3.2-3.2-4.8-4.8-.4-.4-1-.5-1.1-.5-.8-1,3-1.3,3.2-2.1-1.3-.2-2.8.9-4,.6-.7-.2-4.9-3.7-6.5-4.5-1-.6-2.3-1.2-3.4-1.6-.8-.3-2.1.1-2.5-.9,3.5-1.2,5.9-2.4,9.8-2.1,12.9.9,15.6,9.7,20.7,19.1.2.4,0,.6.8.5,1.1-12.9,10.9-28.1,25.2-27.4-2.1,1.7-4,2.9-5.9,5-1.2,1.3-4.1,6.2-5.3,6.4-.8.2-1.8,0-2.7,0,.4,1,2.1.4,2.8.9-3.8,5.5-6.8,11.5-9.6,17.6l4.1-3.9c12.5-10.4,32.8-8,36.4,9.6-2-1.4-4.4-2.6-6.8-3.4-2.2-.7-5.7-.8-7.3-1.5-.5-.2-4.1-3.9-4.4-3.6-.1,1.1,2.9,3,1.8,3.7-.7.4-2.5,0-3.4.2-6,.7-11.8,2.1-17.2,4.6l4.6.6c13.5,4.8,18.4,21,13.6,33.9-.5,0-.5-.6-.6-1-1.2-5.2-2.4-9.2-5.4-13.8-2.2-3.4-5.1-5.3-4.6-10.1l-.5,4.3c-2.5-2.2-5.1-4.4-7.9-6.3-1.5-1-3.2-2.6-5.1-2.6-.3-.1-.3-.2,0-.4-.5-.9-1.5-.9-2.4-.8,0-2-5.2-6.3-7-6.2-1.4.1-1.4,1.5.1,1.8.7,1.8-.9,1.3-2.1.8h0Z"/>
  <path class="st141" d="M112.4,110.5c3.3-1,6.5-1.2,9.5.6,1.2.7,3.2,3.1,3.8,3.3,2,.6,6.9-.1,9.5.1,2.7.3,11,2.7,12.5,4.9,2,3.1-1.1,5.6-4,6.3-25.9,1-52.1.2-78.1.5-4.9-1.2-4.2-6.7.2-8.4,1.1-.4,2.7-.3,3.5-.7.6-.3,1.7-2.1,2.5-2.8,3.4-3,7.8-3.2,12.1-2.5,4.2-13.5,23.1-14.4,28.4-1.3h0Z"/>
  <path class="st122" d="M423.1,190.2c0,.1,0,.2,0,.4,2.1,11.1,3.7,23.6,4.6,34.8,1.5,4,1.6,9,.7,13.1.5,10.1.9,20.4.7,30.6,0,4.7-.6,9.3-.4,14l-2.1,25.8c-.8.2-1.8.2-3-.2l-4,.5c-.4-.1-.4-.7-.1-1.7-.2-.7-.4-1.5-.4-2.3,1.1-10.4,1.9-20.7,2.7-31.1,0-.4.2-.7.3-1.1.1-.4.3-.7.5-1.1-.3-1.7-.5-3.4-.5-5.2.2-8.5.3-17.1.5-25.6,0-1.7.3-3.4.7-5.1-1.1-4.3-1.2-8.8-.4-13.1-.2-.3-.4-.7-.5-1.1-.1-.4-.2-.7-.3-1.1-.7-9.4-1.5-18.7-2.4-28.1,0-.5.3-1,.7-1.4-1.9-2,1.2-2.7,2.5-1.1h0Z"/>
  <path class="st34" d="M68.3,181.4c.4-.9,2.5-3.5,2.5-3.7s-3.7-3-2.1-4c1.6-1,3.7,1.7,4.4,1.7.3,0,3.9-2,4.8-2.3,1.5-.6,3.3,0,3.5-2.3l-2.1-.7c.6-.1,2,.2,2.4,0,.2-.1,1.4-4.3,1.8-4.9,1.7,1,.3,4.4,2.8,4.3l-1.1.7,2.8.4-2.5.4c0,2.8,3.1,2.2,5.3,3,.7.3,1,.7,1.4.9.9.6,1.5,1.3,1.6,2,7.2,5.3,7.8,15.9,3.3,23.2-2.9,4.7-6.4,6.4-11.2,8.2,0,11.1.2,22.3.7,33.7l-.4,1.2c-1.6,1.4-4.9,1.1-7,.7l-.5-.7-.4-.8c.5-2.9.9-5.8,1-8.8l.8-.3-.4-.8c.4-7.9.4-15.7.1-23.5-2.4-.8-4.6-1.9-6.7-3.3-5,5-9.4.5-3.3-3.3-.9-.8-1.6-2.3-1.5-3.5l-.8-.2-1.2-5.3c-7.2.8-8.3-4.8-.5-4.2.3-.6.3-1.2,0-1.9.4-1.7.8-3.4,1.3-5.1l.9-.2h0Z"/>
  <path class="st4" d="M198.7,182.8c.6.7-.2,1.1-.9,1.3-7.8,1.9-16.4,3.7-24.3,4.9-.3,0-.7,0-1,0-.4,0-.7-.2-1.1-.3,4.9-3.8,10.1-7.1,15.3-10.4,8.3-5.3,17.1-10.1,25.2-15.9,10.6-7.5,19.3-21.1,28.4-30.9l-1,3.4c-5.5,7-9,17.2-14.3,24.1-3.3,4.3-12.3,12.2-16.7,16-2.8,2.5-5.8,4.9-9,7-.2.1-1.3.8-.6,1h0Z"/>
  <path class="st32" d="M247,129.5l24.8,29.3c9.1,6.7,18.7,12.7,28.1,19,5.2,3.4,10.4,6.9,15.3,10.7-.3.1-.6.2-1,.3-2.1.4-15.9-3.6-19.1-4.6-.6-.2-1.1-.6-1.6-1.1,2-.2-1.1-.9-1.3-1-9.4-5.2-19.2-15.7-27.6-22.4l-19-29.9c0-1,.9-1.2,1.4-.4Z"/>
  <path class="st86" d="M411.8,186c.6,0,1.2,0,1.8,0-.1-.9-1.7-.6-1.8-.7,0,0,.6-2.3.7-2.3,2.9-1.8,7.3,3.6,9.3,5.3l-.7.9c1.2.1,2-.2,2.1,1.1-1.7-.9-2.5-1.1-2.5,1.1-.1.5-.3.9-.7,1.2-1.5,1.3-6.5,5.3-8,6,0,0-.3-.1-.5-.3.8,1.5-6.3,7.2-6.8,7-.6-.2-.8-.8-.7-1.4-.7,2.4-1.9,4.3-3.5,5.6.2.3.2.7.2,1.1,0,.4-4.2,5.9-4.8,6.7l-1,.4c.7,1,.1,3.3-1.3,2.8-.6-.2-2-3.2-.9-3.5-.4-2.9,0-10.1.7-12.8.5-1.6,2.6-5.4,3.6-6.9,3.7-5.3,10.2-9.6,16.6-10.2l-1.8-1.1h0Z"/>
  <path class="st100" d="M385.8,116.7c.3,3.4-.6,6.9-2.7,9.6-.5.6-1.2.7-1.2.7-.1.2,1.5,1.9,1,4-1.1,4.5-5.8.9-6.1,1-.4.1-1,2.2-2.9,2.5-3.6.5-4.9-3.1-2.6-5.7-3,1.1-8.1-7.5-6.7-8.9,5.5-.4,7.7,2.3,11,5.8.2.3.6.4.7.2.1-.1.9-2.7,1.4-3.4,1.6-2.7,5-5.8,8.2-5.8Z"/>
  <path class="st116" d="M97.8,178.5c1,1.6,2.2,3.5,2.7,5.3.3,1,.9,6.1,1.4,6.1.5,0,2.7-1.9,4.1.2,1.9,2.8-4.4,1.7-4.6,2,.1,1.5-.3,2.9-.8,4.4-.5,1.4-3,5.5-3.1,5.8,0,.7,3.3,2.7,1.2,4.4-1.9,1.6-3.2-2.1-3.6-2.2-.6-.1-2.1,1.5-2.6,1.7-1.8.9-4.1,1.3-6.1,1.9,0,1.3-.1,2.7,0,4.1.3,7.2.7,14.7,1.1,21.8,1.3,2.2,1.7,6.7.4,8.9-.5,1-.9.9-1.4,0-.5-6.4-.5-12.9-.7-19.4-.1-4.4-.8-9-.4-13.5.3-3.9,1.1-2.6,3.9-3.9,10.4-4.8,13.7-18.8,6.2-27.5-.6-.7-1.6-1.1-2-1.6-.3-.4,0-.9-.1-1.2-.2-.3-1.7-.7-.9-1.1.5.3,1.8,1.1,2.3,1,.8-.2,1.9-2.8,3.8-1.9,2.4,1.2-1.3,3.4-1.4,3.9,0,.3.5.7.7.9h0Z"/>
  <path class="st46" d="M241.3,129.8c-2.1-3-2.2-5,1.4-6.6-2.5-3.8,1.5-8.4,1.1-12.6,1.1-.2.6.3.7.9.3,1.1.4,2.3.7,3.4.5,3,.7,6,.5,8.9,2.2,2.5,1,5.5-2.3,6-.8,0-1.3-.5-2.1,0h0Z"/>
  <path class="st8" d="M247,129.5c0,0-1.3.3-1.4.4-.7,0-1.4,0-2.1,0,.2-1.5,2.1-.5,2.5-2.3.5-2.6,0-3.8-2.8-3.7,0-.8,1.3-.1,1.7-.4,1.3-.8-.5-7.1.4-8.5.5,2.1,1.7,5.6,1.3,7.6,0,.3-.6.7-.6.8,0,.2,2.4,1.1,2.4,3.2,0,.9-.6,2.6-1.4,3h0Z"/>
  <path class="st142" d="M400.8,303.2c.3-2.4,1.6.7,1.7,2.2,1.6-.2,3,0,3,2v4.2c3.1.3,6.4.9,9.4,2.5v.8c0,0,1-.2,1-.2,3.6,2.8,6.1,6.2,7.9,10.4,8.3-9,26.5-11.9,27.4,4.5,2.3.5,5.1,1.3,6.5,3.3.6.9,1.6,2.7.3,3.3-26.8,0-53.5,0-80.3,0-.2.3-.5.3-.7,0-.3,0-.3-.2,0-.4-1.4-.3-1.4-2.4-1.4-3.7,0-6.7,8.9-7,13.6-6.9l1.1-4.1.9-.3c-.9-1.1.5-1.5,1.4-1.8-.3-1.9,2.2-3.7,3.7-4.7,2.1-1.4,4.4-2.3,6.9-2.7.6-.3.4-3.9.2-4.7-2.5.2-4.3-2-2.7-3.9h0Z"/>
  <path class="st20" d="M426.7,308.9c.7.5,1.4,1.8,1.9,2.5,1-1.8,1.2-3.8,2.2-5.6,4.2-7.2,13-9.7,19.8-4.4,4.5,3.5,4.3,7.3,5.2,12.4,8.4-2.7,15.5,2.4,14.9,11.3,5.7.8,10.8,5.1,11.3,11-8,0-16.1,0-24.2,0,0-4.2-4.3-5.3-7.7-6-.3-16.9-19.3-13.1-27-3.6-1-2.3-1.6-4.6-3.2-6.7-.9-1.2-4.1-4.2-5.1-5-1.4-1.8,1.9-5,3.4-6.2.2-.8.6-1.2,1.2-1.2,0,.9-.3,1.2.8,1,2.1-.4,4.2-.9,6.3.4h0Z"/>
  <path class="st66" d="M117,230c.2,0,.3,0,.5,0,.6.2.7,11.5.6,12.7l-.7.4.2-.7h44.6l.4.7c.4,0,.8-.1,1.1,0,1.2.6,4.4,4.6,4.4,6,2.4,4.2,4.3,8.7,5.8,13.5l-.5.7c-.2.7-1,1.2-2.4,1.4,1.4-.2,2.3,0,2.7.7.3.6.1.9-.5,1h-3.4c0,.8-.2,1.4-.7,1.8.2.4-.4,2.3-.6,2.4-26.7.1-54.2,0-80.8-.3,0,0-.2-.2-.2-.4,1.4-2.9,4.8-5.8,7.8-7.1.7-2.2,2.8-4.4,5-5,0-.4.2-.7.4-1,1-2.1,8.6-9.6,10.9-11.6.5-.5,1.2-.7,1.9-.8.3-.3,1.4-1.3,1.7-1.3.5-.2,1.8,0,1.9,0,.5-.5-.4-11.5,0-13.1h0Z"/>
  <path class="st57" d="M190.8,198.4l.5.7c.2,5.6.2,11.1.2,16.7-.2.6-.9.7-2.1.4l-.5.7c-1.6-.2-2.8.2-3.6,1,1.8-.2,3.6-.3,5.4,0-.3,2-.2,4.1,0,6.2l.6-.4c.1-1.8.1-3.6,0-5.3.7-.9,1.6-1.9,2.2-.3,1.2,0,.8,5.5.5,5.8-.1.1-.3.2-.5.2.5-.4,1-.8,1.4-1.2v-3.6c-.2-1.3.9-3.3,2.1-1.9l.7.4c.2,1.4.4,5-.7,5.6-.1-1.1,1.9-1,2.1,0-1,.2-.9-5.5-.7-5.9l.7-.5c-.1-1.1,1.3-1.1,1.4,0,1.1-.1.9,5.2.7,5.5-.1.3-.4.4-.7.5,0-1.1,1.6-1,1.8,0-1.1,0-.9-5.3-.7-5.5.1-.3.4-.4.7-.5.2-1.3,1.2-.8,1.8.3.1.3.3,6.1-.7,6.1l-1,.9c-6.8.8-13.4,2-19.8,3.7.2.9,0,1.6-.4,1.9-24.8.2-50.3,0-75.1-.4-.5-.3.4-.9.5-.9,6.9-3.1,13-7.1,18.9-11.9l13.9-15.3h46v-2.8c-.5-.5-.3-.7.4-.4.7-.6,3.6-.6,3.9.4h0Z"/>
  <path class="st99" d="M182.7,230c1.5,0,2,1.8.4,1.8.6.9-.1,1.4-2.3,1.5-1.2.7-.4,1.9.6,2.3v.9c1.3,0,1.7,1.5.3,1.8v.5c-2.7.6-2.3,2-.4,3.3l-.3,1.2c1.1.3.7,1.3-.4,1.4-1.7,1.4-1.8,2.6-.3,3.8v.5c1.5,0,1.5,2,0,2.1v.7c-.9.5-1.8,1.6-.5,2.3l-.2.8c1.4,0,1.6.9.7,2.5.3,1.1-1.1,1.5-1.8.7-.1.2-.3.4-.4.4-1.9.9-9.4-7.4-9.9-9.3-1.9-2-3.4-4.3-5.5-6h-45.3l-.4-13.1v-.4c21.2,0,42.4,0,63.6,0l2.1.3Z"/>
  <path class="st5" d="M257.6,182.1c3.9-1.1,8.2-1.1,12.1,0,7.2,0,17-.3,23.8,1.1,7.2,1.4,14.4,4.1,21.7,5.3,1.1.2,2.1.4,1.1,1.6-3.8,1.7-11.6,8.3-15.3,8.7-1.2-.2-1.1-3.4.4-2.8.7-1.9.5-4.2-.4-6-2.6-.2-5.2-.3-7.8-.4-.2,2-.3,4-.4,6,.8-.4,1.3-.2,1.4.7.8.4,1,2.2,0,2.5,1,.4.7,2.3-.4,2.5,0,.3-.2.7-.4.7-1.2.1-7.4.2-8.3,0l-.5-.7c-.4-.5-.6-1.1-.7-1.8v-10.9c0,0-4.6-.6-4.6-.6-1.6,0-2.6-.6-2.9-1.7.2-1.8-2.3-1.6-3.3-.7-2.3-.2-4.5,0-6.7.4l-.2.7c-14.7.1-29.4.2-44.1.3l-.4-.7c-1.2-1.2-5.8-1-7.7-.6-1-.1-1.7.3-2.2,1.4l-.8.7c-2.2.3-4.3.5-6.4.7.2,4.2.1,8.4-.2,12.6l-.8.2c-1.4,1-4.8.9-6.7.8-1.5.2-2.4-.2-2.9-1.1-1.1-.1-1.4-2.1-.4-2.5-1.1-.3-1.2-2.2-.4-2.8l.3-.7c1.3.7.7-4.7.5-4.9-1.3.1-2.3-.1-2.9-.8-.5.7-1.7,1-3.4.7-2.9-.7-1.4,3.9-.7,5.3-.2.2-.3.5-.2.7,1,.3,1.1,1.9,0,2.1l-.4.4c-2-1.2-17-8.1-17-9.1,0-.4,1.3-.8,1.8-.9,8.6-1,17.4-3.5,26-5.1.6,0,1.2-.6,1.3-.6,2.1-.3,4.7.1,6.9,0,17.2-.8,34.8-.8,52-.7h0Z"/>
  <path class="st13" d="M212.9,222.2c1.9-1.3,2.2,4.3.4,4.3l-1.5.7c-8,.7-15.9,1.7-23.8,3.1-2,.5-3.8.4-5.3-.3-21.3.6-44.2-.2-65.7-.4-2.7,0-5.7.2-8.4,0-.7,0-.7,0-1.2-.4h74.9c-1-3,1.4-2.4,3-2.9,5.3-1.4,12.7-2.4,18.3-3.2.2-.7.9-.9,2.2-.7,2.5-.7,4.8-.8,7-.4h0Z"/>
  <path class="st70" d="M284.6,201.3c1,4.3.9,8.8.5,13.2,1.8-.5,4.8-.3,6.3,1,2.1-.8,4.6-.6,6.4.7,1.5-.3,3.2-.4,5.1,0l.5.8c0,.5.3.9.4,1.8-.3.9-1.2,1.1-2.7.8l-3.2-.3-.2,5.1c-.4,1-2.2,1.3-2.5.1-1.2-.5-1.1-4.9,0-5.5-.3-.2-.4-.4-.1-.4-.5,1-.8,2.4-.7,4.1.3,2.1-2.1,3.3-2.3,1.1-.7-.6-1.1-1.5-1.1-2.9.3,1.5,0,2.4-.7,2.9-.3,1-1.8.7-1.8-.4l-.7-.3c-.1-6.1-.4-7-.3-.2l-.7.5c-2.9.9-6.2.6-8.9-.7l-.5-.7.3-4.4h-.5c-.6.2-.8,0-.7-.6-1.4.1-2.7.1-3.9-.7-.3.7-.7.7-1.1,0,0-.1-.2-.3-.2-.5-.2-.9,3.2-.6,4-.6,0-1.4.3-2.1,1.9-1.5.4-.6,1.3-.8,2.7-.6l-.2-15c-2.5-3.1-3.3.8-2.9,3.1,0,1.1-.3,1.6-1.1,1.6l-.8-.2c-.6-2.3-.7-4.6-.5-6.9-1.1,0-1.7-.4-1.9-1-.5-.7,0-1.1,1.4-1.2-.2-.9,0-1.5.7-1.6.4-.9,1.1-.8,1.8-.4-.2-1.6-.3-3.4,0-5,1,1.3,7.6,1.2,8,1.8.3,4.4.1,8.8.2,13.2h0Z"/>
  <path class="st54" d="M292.1,223.6c0,0,1.1.7,1.4.4.2-.2.4-5.3.4-6,.3.1,1.7.3,1.8.4.1.1-.4.5-.4.5v5.5h1.8c0-.9-.2-5.9.6-6,1.9.2,4.3.8,6.2.3,0,.2,0,.5,0,.7,0,1-.7,4.8-.6,5,.7,1.5,3.5.2,4,2.4.6,2.5-.5,2.1-1.3,3.3-1,.4-2.1.4-3.4,0-8.5-.7-17.3-1.6-25.9-2.7-.3,0-.7-.2-1-.3-.3-.1-.7-.3-1-.5-.6,0-.6-3.4-.5-3.6l2.3-.3c0-.3.2-.3.4,0,.2-1,.6-.9,1.1,0,3,.3,5.9.5,8.9.7.5-.9,1.4-1.1,1.8,0,.3,0,1.1.3,1.8.4.2-.9,1.5-1,1.8,0h0Z"/>
  <path class="st72" d="M301,198.8c-.1,6,1.6,12.2,2.5,18.1-1.6-.3-3.3-.2-4.8-.3-.5,0-.8-.4-.9-.4,0-4.7,0-10.2.2-16.7l.5-.7c.2-1,2.2-1,2.5,0Z"/>
  <path class="st96" d="M269.7,182.1c-4,0-8.1,0-12.1,0-3.6-7.4-7.5-15.1-9.4-23.1-2-8.2-2.5-16.8-3.4-25.2.8.5,1.1,1.8,1.4,2.7,2.2,5.8,3.6,12.3,5.6,18.2,1.8,5.1,3.1,6.2,5.9,10.4,3.8,5.8,7.4,11.7,11.9,17h0Z"/>
  <path class="st111" d="M422.8,272c-.6,11.4-1.3,24.3-3.2,35.5-.4,2.2-1.1,1.8-2.1,3-1.1,1.3-2.2,2.7-2.5,4.5-.2-.2-4.8-1.9-5.2-2-1.4-.3-3.6-.3-5.1-.4-.3-.3.4-5.3-.2-6.1-.5-.7-2.3,0-2.7-.4-.1-.1-.5-3-.7-3.2-.2-.2-.3.4-.4.4l-.5.2c-4.1-6.8-8.4-7.4-12.3.2-.3,3.9-2.8,4.4-6,3-1.7-10.9-11.3-11.1-13.2-.2-.8,1.1-3.6,1.1-4.5,0-.9-3.8-3.2-8.8-7.7-8.7l-.6-.6-.8-.3c0-3.6-.4-7.2-.9-10.7l.7-.7c.5-.4,1,0,1.5,0,4.4.9,9.1,2.5,13.6,2.8,19.7,1.5,35.9-7.8,52.7-16.3Z"/>
  <path class="st154" d="M86.4,242.8c.5,0,1,0,1.4,0,.1,0,.2,0,.4,0,2.1,6.3,4.5,12.7,7.1,19.1v1.2c-2.6,2.4-5.4,4.7-7.8,7.1v.4c1.3-.2,2.5,0,3.6.3l1,.2c.9-.2,5.7,0,3.9,1.6-11.7.9-24.1.9-36,.8l-2-.4c-2.5,0-5.1,0-7.6,0-.6-.7,1.6-1.6,2.4-2.2,2.6-1.9,7.4-5.1,9.5-7.2,3.5-3.6,7-9.8,10.3-13.9.9-1.2,5.3-6.8,6.4-6.9.8-.1,2.1.4,3,.4,1.5,0,2.8-.4,4.5-.4h0s0,0,0,0Z"/>
  <path class="st115" d="M82.2,203.4c0,.2.2.7-.2.7-4.3-.6-8.9-3.2-11-7.1-.8-1.4-1.1-3.7-1.7-4.7-.2-.4-.6-.6-1-.6,1.8-1,.8-2.3,1.1-4.1,2.2-16.7,24.1-16.8,27.7-1.4l-.7-.5c-.9,0-1.6-.6-2.3-2-4.7,3.7-5.5,5.6-2.3,5.7l4.9-.2.5.8c0,.4,0,.7,0,1.1-2.3.4-5.4-1-6.8,1.1l-.4.8c1.2,1.8,2.6,3.6,4.1,5.3l-.5.6c0,0,.2,1-.5.7-.8-.3-3.3-3.6-4.4-4.4-.6-.4-.3.7-.7.9-.5.4-1.2.6-2.2.4v6.3c.1,0-.6.4-.6.4,0,0-.2.5-.6.7-1.3.4-.6-.5-.9-.9-.2-.2-.6,0-.6-.1v-6h-.4c-.2,1.5.4,3.4-.4,4.6l-.7-.4c-.2-1.1,0-4.3.3-5.3v-.8c3.4-.8,5.9-3,4.1-6.4-1.6-2.5-1.1-2.7,1.7-2.7.8-.2,4.7-4.2,4.5-5.3h-1c-.9-1.2-6-3.9-5.8-1.5l-.7.5c.2,2,.3,4.1.2,6.2.5,1.3-1.9,1.3-2-.2v-7.2c-.4-.1-.7-.5-.6-1l-.4.7c-1.1-.2-5.8,2-5.5,2.8l4.7,4.9-.2.9c.7.9-.9,2.5-1.8,1.8-.5,0-.9-.2-1.3-.5l-3.8-4.6c-.7,1.6-1.2,3.3-1.4,5l-.6.5c2.2.2,4.5.3,6.7.2,1.1.5,1.6,2.6.5,3.3l-6.9-.3c-.4.4-.5.7-.3,1.1,1.1.2,1.9,2.1,1.1,2.8.7,0,1.1.4,1.2,1.3,1.3-1.5,2.7-2.6,4.2-3.1,1.1-1.2,3-.7,2.8,1.1l.3.7c-1.6,1.5-3.2,3-4.7,4.6,0,.3,4.3,2.5,5.2,2.4l.3.8h0s0,0,0,0Z"/>
  <path class="st56" d="M96.4,185.6c0,1.5.7,2.7.7,4.3-1.9-.3-5.7.5-7.2,0-.5-.2-.8-1.2-.9-1.6-.1-1.5,4.3-4.3,5.1-5.8l2.3,3.2h0Z"/>
  <path class="st56" d="M87.8,195.9c.3.2,4.4,4.3,4.3,4.6-1.9,1.4-3.7,2.1-6,2.6-.4,0-1-.2-1.1-.2.3-1.3-.4-6.4,0-7.1.4-.6,2.2-.5,2.8,0h0Z"/>
  <path class="st56" d="M90.3,192c1,0,5.5-.2,5.9.3.9,1.3-.9,4.8-1.7,6-.2.3-.7.3-1,.4-.9-2.6-4.9-3.8-4.3-6.8.4,0,.7,0,1.1,0h0Z"/>
  <path class="st56" d="M81.8,195.6c.6,1.3.4,4.1.4,5.7,0,.7,0,1.5,0,2.1-1-.1-2.2-.6-3.1-1-.5-.2-3.2-1.7-3.3-1.8-.4-.5,1.4-1.4,1.4-2l3.9-3.7c.8-.6,1.3-.2.7.7Z"/>
  <path class="st52" d="M58,297.2c.7-1.2,2.5.1,3.4.8,2.1,1.7,3.5,4.6,4.1,7.2.2.2,2.9.3,3.1,0,2.9-11.6,13.8-11.6,15.9.3h2c2.6-10.1,11.6-13.3,16.2-2.2,0,2,1.1,2.8,3.2,2.3,2.3-11.8,13.6-12.6,15.8-.1.8.2,1.7.2,2.6.2,2.8-12.4,14.2-12.4,16.5,0h2.3c2.1-12.5,14.4-12.4,16.5,0h2.5s1.1-3.7,1.1-3.7c.7-1.6,2.5-4.6,4.2-3.8.8-3.8,5.7-1.4,7.6.6,0-1.1.3-1.8,1-2,.8,1,.8,2.3.7,3.6.6,0,.9,0,1.1.7.3.4,0,.8-1.1,1.4,1.1,0,1.7,2,1.1,2.8.5,0,.8.3,1.1.8,10.4.7,21.2.5,31.8-.1l.9.4c.2-.6.9-.7,1.9-.3h58.9c1.6.4,3.3.6,4.9.6,15.3.1,31.7.2,46.1-.2.6-1,4-1.5,4.6-.4.3-.6,1.1-.7,2.3-.3,1.3-3.8,2.9-8.4,7.4-9.3,3.5-.7,8.1,2.6,7.7,6.3.8.2,1.3,1.1,1.4,2.9h2.7c-.3-2.1,3.8-9.2,5.8-9,.3,0,.6.2.8.5,3.5-.9,6.7,2.8,7.9,5.7.3.6.9,3.5,1.1,3.5.3,0,2.8,0,2.9,0,.2-.1.8-3.2,1.2-4,3.2-6.7,9.6-6.4,12.5.4.4.8.8,3.4.9,3.5.1.1,3.7,0,3.8,0,.2-.2.4-2.1.7-2.7,1.1-2.9,4.7-7.4,8.2-6.2,3.2,1.1,5,5.7,5.4,5.8.6,4.3.6,2.5,3,3.2,1.1.4.4,4.8.5,6-4.8.5-8.9,2.8-11.7,6.8l-1.2.7c-114.9,0-229.7-.2-344.5-.6l-.3-.5c-.2-2.6,0-5.5,0-8.2,0-1-.2-4.1.2-4.6.5-.7,2.3,0,2.7-.4.2-.1.9-3,1.5-4,1.4-2.4,4-4.9,7-4.5h0Z"/>
  <path class="st53" d="M391.2,321c-.6,1.2-1.1,3.9-1.4,5.3-6.9-.7-16,.4-12.8,9.6,0,.3-.5.3-.7,0-106.2-.3-212.4,0-318.6.3.6-2.3.6-4.4,0-5.7-.8-3.2-3.5-6.7-6.4-8.5l.3-.7c113-.4,226.1-.7,339.1-1.1l.5.7h0Z"/>
  <path class="st155" d="M392.6,319.2c-.3.4-1.4,1.7-1.4,1.8l-339.9,1.1c-1.5-1-2.9-1.6-4.6-2.2-.2-.3,0-.7,0-1l345.9.4Z"/>
  <path class="st120" d="M57.7,330.6c.5-.9.7,1.5.7,1.6,0,1.2-.1,3-.2,4.1l318.1.4c-106.9-.2-212.9-.8-317.9-.3h-1.1c.4-2.2.9-3.3.4-5.7h0Z"/>
  <path class="st2" d="M274.7,261.3c.5-.1.9,0,1,.4l.4,4c1.1.3,1.7,1.2,1.5,2.3,1.6-.2,2.3.2,2.1,1.1l-.2.5c-2.4.2-3.2.6-2.4,1l38,1.8c2.1.4,4.1.5,6.2.4,1.4-.7,3.2,2.4,1.4,2.8.6.8-.4,1.4-1.1.7l-.5.7c-13.8-1-27.9-1.7-42.4-2.3l-1.9-.5-2.8.4c-20.3,0-40.6.2-60.7.3,0,.5-.4.9-.8,1.1.5,1-.5,1.3-1.1.4l-.3.7c-2.2,0-4.4,0-6.4-.2.3,0,.7.1.7.3.1,1.2.2,8.8,0,9.5l-.7.5c.9.2,1.8.3,2.7.2l.5.7c1,0,1.3,1.3.4,1.8-.3,1.1-2.6.8-3.6.5.3,0,.7.1.7.3.1,1.5.3,9,0,10l-.7.5c-.1.9-2.3.9-2.5,0-.3,0-.7-.1-.7-.3-.3-1.8-.2-8.2,0-10.2l.7-.5c-.2,1.1-1.2.6-1.6-.3-.5-1.1,1-4.1,2.4-3.5-.3,0-.7-.2-.7-.4-.2-1.4-.2-7.6,0-8.9l.7-.5-.2.7h-2.9s0,23,0,23c0,1.4-2.4,2.2-2.8.8-.3,0-.7-.1-.7-.3-.2-2-.3-8.3,0-10.2l.7-.5-.8.7c-4.2,0-8.3,0-12.3-.2.3,0,.7.1.7.3.3,1.7.2,8.1,0,10l-.7.5c-.1,1-2.8.8-2.8-.3l.3-23.1c-.1-.1-2.4,0-2.5,0-.4.8-.4,9.1.9,10.1-.6,4.2-1,8.4-1.1,12.7l-.9.2h-1.8c0-1.4,0-2.8,0-4.3l-.7-.3c.1-1.9,0-3.8,0-5.7-2.3-.3-4.7-.2-7,.3l-.7-.3c-2.4.9-3.4-2.6-.6-3.5v-5.1c0,0,.6-.6.6-.6-1.2-.6-1.2-3.9.4-3.9.3.2.6.5.8.9.3.8,0,7.1-.1,8.4l-.7,1c0-.3.1-.7.3-.7.5-.1,5.6-.1,6.1,0l.5.7c0-1,.6-3.2,1.6-3.4-.3,0-.7-.1-.7-.3,0-.5,0-5.6,0-5.9l.7-.5c-2.6.2-5.3.2-8.1.2l-.4-.7c-.9.1-1.3-.7-.7-1.4,0-.3,0-.7.2-.7,2.1-.4,5.5-.6,7.7-.7,12.2-.1,24.4-.5,36.6-1,.4,0,.2-1.1.2-1.4-14.7,1.2-29.4,1.7-44.1,1.5v-.9c-.1-.5.1-1,.8-1.4.9-.4,1.8-.7,2.7-.8,13.4-.9,27.1-1.5,40.1-1.9.4,0,.7-.6.2-.6l-41.9,1.2-.5-.7c-.4-.3,0-2.4,0-2.5.1-.1,3.1,0,3.8,0,.5,0,.8-.4.9-.4,10.7-1.7,21.8-2.2,32.8-2.6,2,0,4,.2,6,.4,2.3-.9,4.8-.9,7.3-.9,18.1.2,36,.1,53.8-.1.3-.4.6-.7,1.1-1.1h0Z"/>
  <path class="st102" d="M213.2,253.1c.3,0,.7.2.7.4.2,2,.1,8-.6,9.6l-.8.3c-12.8.5-25.8,1.4-38.7,2.1h-3.9c-1.1-1.1,2.8-2.1,3.6-2.1.6-.8,1.7-1,3.4-.7,0-1.5.3-3,.7-4.5h.9c.3-.4,1.4-.5,1.8-.8l.3-1.7c8-.3,16.1-1.1,24.3-2.5,3-.7,5.8-.7,8.5,0Z"/>
  <path class="st95" d="M168.5,271.2c-1.1.2-2.1.4-3.2.5s-2.1.3-3.2.3c-21.5.3-43.1,0-64.6-.4-2.1-.5-4.2-.8-6.4-.8-1.4,0-2.8,0-4.3,0,0-.4.5-.5.7-.7l80.4.4c.4-.1.3-1.9,1.3-2.2l43.6-1.3c-.3.5-.2,1.4-.6,1.8-1.2,1-9.1.4-11.2.5-10.7.4-21.9,1.6-32.5,1.8h0Z"/>
  <path class="st60" d="M88.2,242.8c2.4.5,3.5,3.3,5.2,4.8l6.9,10.5c-1.7,1.6-3.3,3.3-5,5-2.4-6-5.2-12-7.3-18.1-.3-.8-.9-1.8.2-2.1h0Z"/>
  <path class="st134" d="M168.1,249.2c1.9,2,4.3,4.8,6.4,6.6,1.1.9,2.5,2.3,3.9,2.3-1,.9-.7,4-.7,5.3-1.4,0-2.9-.1-4.3,0l-5.3-14.2h0Z"/>
  <path class="st109" d="M211.8,187c1,.4.9,3.7.4,4.6,1.8.3,3.2,1.6,1.4,2.8,1.1,1.5.1,8.9-.8,9.8-.2.2-.4.3-.6.5l-.7-.4v-4.4c.8-2.8-2.1-4.5-3.2-1.7.2,4.9.3,9.9.3,14.8,1-.4,1.7-.3,2.2.2.6,0,.8.5.6,1.4,1.1.9.6,1.3-.6,1.4l.6.5c.3,1.7.9,3.2,1.8,4.7l-.4.8c-2.3.3-4.6.8-6.9,1.1-.8,0-1.6,0-2.3,0v-6.4h-1.1v6h-1.8v-6c0,0-1.4,0-1.4,0v6.4h-2.1v-6c-3.6.2,1.1,7.5-3.6,6.8v-6c0,0-1.4,0-1.4,0-.3.3.8,8.4-1.4,6-.2-1.8-.3-3.6-.2-5.4-.9-.3-.5-.9.3-1.2-1,0-1.5-.4-1.5-1.1.8.3,1.6-.3,2.1-.4.3-1.2,3.5-1.2,4.2-.5l1.1-.2c.4-.8,5.9-1.5,6.3-1.4l.3.4c-.2-4.1-.3-8.2-.3-12.2l.5-.7c0-.2.4-.9.4-1.6,0-3.9-.2-7.7.1-11.6,2.5-.4,5.1-1.2,7.7-1h0Z"/>
  <path class="st117" d="M193.7,198.4c0,.9.3,1.8.4,2.5l.7.6c0,4.3.4,8.6,1.4,13,.4,0,.6.3.7.7-1.5.7-3.7.5-5.3.7-.7-.3-.7-.5-.7-1.2-.4-5.2.3-10.9,0-16.2.9-.7,1.9-.7,2.8,0Z"/>
  <path class="st128" d="M193.3,195.6c.2.9.3,1.9.4,2.8h-2.8c-1.3,0-2.7.2-3.9-.4,0-.7,0-1.4,0-2.1-.2-.1-.2-.2,0-.4,1.2-.2,2.4-.3,3.7-.2.7-.7,2.4-.9,2.7.2Z"/>
  <path class="st75" d="M189.4,216.2c.4,0,1.6.7,2.5.4.6,1.9-1,1.2-1.1,1.6-.3,1.6.3,4.1,0,5.8-.8-.9-.1-4.3-.4-5.7l-5.7.4c-.9-2.4,2.9-2.6,4.6-2.5h0Z"/>
  <path class="st79" d="M275.4,247.4c.2-.2.4-.3.7-.4.2-.1.5-.2.7-.2,9.8.4,20.9,1.7,30.5,3.6.2,0,.4.2.6.4.2.2.4.4.5.6,2.1.4,3.2.7,2.4,3.3-.3.9-1.1.7-1.4,1l-1,.5c-10.9-1.5-21.9-2.9-32.7-4.2v.8c.1,0,32.4,4.2,32.4,4.2l.3.8c.6.9,2.7,1,3,1.8.5.9,0,4.1.2,4.3.7,0,1.4,0,2.1,0,.8-1.7,6-.3,5,1.8l-.3.7-40.6-2.4c-.2,1.1-.1,2.2,1.1,2.2,11-.2,22.7.7,33.8,2.4,1.4,0,2.9,0,4.3.4.2-1,2.4-1.4,2.8-.4.7-.6.8-.6.7.4.6-.2,1-.2,1.4,0,.6.9.2,2.4-.7,2.8l-1.5.5c-12.9-1.1-25.8-1.9-38.7-2.5l-1.3-.5c-.4-.8-2.6-.1-2.8-.4-.2-.2.2-1.7,0-2.1-.1-.2-.8-.2-1.1-.4-.8-.5-.1-4.1-.9-5-1.1-2-.9-5.2-.4-7.4l-.8.3c-19-.7-38.3-.6-57.5-.5-.9,0-1.8-.3-2.7-.6-9,.5-18.5,2.5-27.5,3.2-1.3.1-4-.3-4.9,0-.3,0-.2.8-.6,1.1.2-1.1-.2-1.6-.7-2.5,0-.3,0-.7.2-.8,10.6-1.8,21.6-3.2,32.3-4.2l.5.7c.5,0,1-.2,1.3-.7h60.8v-1.4c-.9,0-1.8,0-1.4-1.1.5-1,1.7-1,2.1,0h0Z"/>
  <path class="st33" d="M213.6,244.6l1-.7c15.6.5,31.4.5,47.4,0,4.6-.3,9.1,0,13.4,1,.7.8.7,1.7,0,2.5-.7,0-1.4,0-2.1,0l-1.5.4c-19-.2-38-.3-57,.3l-1.5-.4-1.5.6c-10.5,1.4-20.8,2.5-31,3.3l-.5-.7c.5-.7.5-1.5,0-2.1l.8-.7c10-2.1,20.5-3.4,30.8-4.2.3,0,.6,0,.9.2.3.1.6.3.9.4Z"/>
  <path class="st64" d="M212.9,238.6c1.2-.4,2.5-.7,3.8-.8,18.1-.1,36.3,0,54.4.2,1.3,0,2.6.3,3.9.6,1.1.3,1,2.1,0,2.5-.4.2-.8.3-1.3.4-.4,0-.8.2-1.2.2-19.5-.3-39-.7-58.4.2l-1.3-.4c-.3.2-.7.4-1,.5-.4.1-.7.3-1.1.3-9.3,1.1-18.7,2.1-28,3-.8,0-1.5-.3-2.2-.6.4-.4.2-1,.4-1.4-.3-.9-.2-1.5.3-1.7l26.2-3.3c2-.4,3.8-.3,5.5.3h0Z"/>
  <path class="st33" d="M213.2,226.5l1.7-.4c15-.2,30-.4,45-.7,5.1-.3,10,0,14.8,1.1.9.6.4,2-.4,2.5-1.4.3-2.8.6-4.2.6-18.7,0-37.3,0-56,.1-.7-.5-1.3-.7-1.9-.3l-1.2.7c-8.8.5-17.6,1.4-26.3,2.9-.9,0-1.7,0-1.6-1.1.6-.7.1-1.2-.4-1.8,9.8-.3,20.6-3.7,30.5-3.6h0Z"/>
  <path class="st107" d="M213.6,232.5l.2-.7h61.1l.4.7c1.1.1,1,2.3,0,2.5-1.3.3-2.7.6-4,.6-19.1,0-38.2,0-57.3.1-.8-.5-1.4-.6-1.9-.3l-1,.7c-9.5.4-18.9,1.3-28.4,2.7l-1.2-.6c.4-.4,0-1.4-.4-1.8l.2-.7c10.5-1.3,21.1-2.6,31.7-3.8l.5.7h0Z"/>
  <path class="st7" d="M212.2,229.3c2.6-1,2.3,1.6,1.4,3.2l-32.3,3.9c-.7-.7-2.3-.8-1.7-2.9.3-1.2,1.8-.9,2.8-1.1.3,0,.6-.5.7-.6.1,0,.9.5,1.6.4,8.3-1,19.5-3,27.6-2.9h0Z"/>
  <path class="st7" d="M212.2,235.4c2.3-1.2,2.1,2.6.7,3.2-10.4.4-21,2.8-31.4,3.5-.1,0-.5.9-.6,1.1,0-1-1.1-1.1-1.5-1.9-1.1-2.3.2-2.9,2.2-3.1,8.7-1,22.2-3.1,30.5-2.8Z"/>
  <path class="st91" d="M212.9,241.4c1.6,0,1.9,2.4.7,3.2-8,.3-17.2,1.9-25.3,2.9-2.7.3-5.4.8-8,1.4-2.5-.7-2.3-4.2.4-4.3,10.8-.3,21.5-2.7,32.3-3.2Z"/>
  <path class="st91" d="M213.2,247.8c1.7.5,1.5,3-.7,2.8l-5.8.4-27.2,3.9c-.4-.6-1.4-.5-1.1-2.3.1-.5,1.4-1.5,1.8-1.6.3,0,2.7,0,3.4,0,9.8-1.2,19.8-2.6,29.7-3.2Z"/>
  <path class="st22" d="M266.5,186c1,1.4.9,3.7.4,5.3,2.2-.5,5.1-.7,7.1.4,0-.7.4-.7.7,0,0,.5.1,2.4,0,2.5-.2.2-1.9-.3-2.1.4-.7.3-1.5.3-2.1,0-.4.5-1,.8-1.9.9l-2.3,17.4c2.1-.3,4.2,0,6.3.6.3-1.1,4.2-1.1,4.6,0,.3,0,.3.2,0,.4-.3,0-1,0-1.1,0-.1.2.1,2,0,2.1-.3.3-3.9-.5-4.6.4-2.3,1-4.8,1-7.1,0-.7-.3-.8-1-.4-2.1-3.2.3-6.3,0-9.2-.7-.4-.9-.6-1.7-.7-2.7v-10.2c-.5-4.1-3.4-7-7.3-8-13.1-3.1-13.5,11.2-12.5,20.2l-.8.6c-3.2,1.1-7.5.8-10.7-.4l-.7-.2-2-17.1c-.9.2-1.4,0-1.5-.7-1,1-4,.6-5-.4.2-3.1-.4-1.6-1.4-2.8l.9-.6,8.2-.2c-.3-1.7-.2-3.3.5-4.6l44.8-.4h0Z"/>
  <path class="st81" d="M203.6,201.3c0,0,.4.6.4,1.2,0,4,0,8,0,11.9-2.4,0-4.7.8-7.1.7-.5,0-.9,0-1.4,0-.6-3.3-1.2-6.7-1.5-10.1-.1-1.3,0-2.8,0-4.1,3,.8,6.5.1,9.6.4Z"/>
  <path class="st42" d="M298.5,198.8c-.2,5.5.3,11.2-.1,16.7,0,.6.5.8-.6.7-2.1-.2-4.3-.4-6.4-.7.6-.9.2-2,.4-3,.7-3.6,1.6-7.4,2.1-11.2,0-.7.3-2,.4-2.5,1.3-1,3-1,4.3,0Z"/>
  <path class="st24" d="M221.7,186.3c.2,1.7.2,3.6.4,5.3-3.4-.3-6.7.5-9.9,0-.6-.8-.4-3.4-.4-4.6,0-.6,0-1.2,0-1.7.4-.4,8.5-.6,9.3-.3.7.2.5.8.6,1.4Z"/>
  <path class="st153" d="M293.1,189.5c1.1-.5,8-.6,8.6-.2.5,1.5,1.2,5.2.4,6.4-.2.4-.6.1-.7.2-2.1.4-4.3.8-6.6,1l-.5-.7c-.4,0-1.3-.3-1.4-.7l.2-5.8c4.6.3,4.7.2.1-.2Z"/>
  <path class="st148" d="M266.5,186c0-.4,0-.7,0-1.1h9.9c0,.5,0,1,0,1.4,0,.9.2,4.5,0,5-.7.2-1,0-1-.6v-4.7s-1.3,0-1.3,0c.2,1.9.1,3.8-.1,5.7-2.5,0-5,0-7.5,0,0-1.9,0-3.8,0-5.7h0Z"/>
  <path class="st28" d="M191.2,189.2c.3,0,.7,0,.7.3.2,1.3.3,5.6-1,5.9-1.4-.1-2.7,0-4,.2,0,0,0,.2,0,.4-1.4-.6-1.8-5.6-1.3-6.4.4-.6,4.5-.3,5.5-.3h0Z"/>
  <path class="st17" d="M191.2,189.2c1.2,0,2.4,0,3.5,0,.1,1.3,1,5.9-.2,6.3-.4.1-.8,0-1.2,0-1.2,0-6-.2-6.4,0,.8-.9,3.1,0,3.9-.4.7-.4.3-4.9.4-6Z"/>
  <path class="st23" d="M301.3,195.9c-.6.3-.3,2.1-.4,2.8-.8,0-1.7,0-2.5,0-1.4,0-2.8,0-4.3,0,0-.5-.3-1.7,0-2.5,1.4,0,3.7-.6,5.2-.7.6,0,1.6-.2,1.9.4Z"/>
  <path class="st138" d="M293.1,189.5l3.5.4h-3.6c-.3.3.5,4.9-.4,5.7-.1-.5-.1-4.8,0-5.5,0-.3,0-.5.4-.5Z"/>
  <path class="st41" d="M218.9,216.2c.4.6.1,1-.8,1.2l.3,4.1c1.4,0,2.8.2,4,.8,10.2-1.1,20.7-1.1,30.9,0l-.7-.4c-.2-1.4-.4-5,.7-5.6-.1-1.1,1.3-1.1,1.4,0,1,.2.9,4.7.7,5.5l-.7.5c0-.3,0-.7.2-.7,1.3-.1,10.7-.2,11.1.2.1.1.2.3.2.5l.3-.2c-1.9-.3-3.9-4.6-2.2-5.8,2.4,0,4.7,0,7.1,0,.4,0,.7,0,1.1,0l.7.4c-1,4-.6,5.7,1.1,5.3l.6.7c.4-.6,1.3-.9,1.4,0l-1.8.4c.6,1.1.2,2.4,0,3.5-20.1-1.1-41.2.8-61.4,0,.5-.9.5-2.4.4-3.4,0-.7-.6-.7-.7-.9-.7-1.3-2.6-4.6-2.1-6,2.7-1.2,5.4-.7,8.2,0h0Z"/>
  <path class="st142" d="M380.9,229.3c9,3.3,6,10.6-1.7,13,4.3,1.3,9.8,8.1,7.1,12.5-1.3,2.1-3.7,2.4-5.4.8-2.5,6.7-14.5,6.5-17.8.6-.8-4.1-5.4-6.3-9.3-5.8-2.6,1.8-5.5,1.6-2.6-1.4,1-1.3,1.5-3,1.3-4.6-2.1,4.4-7.3,6.6-12,6-7.7-2.2-15.6-3.6-23.1-.2-1,.3-1.9.6-2.3-.6,2.6-3.9,8-6.6,12.4-7.5-8-18.5,12.4-22,25.4-16.3,2.8-7.7,14.8-4.3,19.4-.2.7.6,1.7,2.3,2.1,2.5.9.4,4.8.9,6.4,1.2h0Z"/>
  <path class="st48" d="M380.9,229.3c8.3,2,11.6,7.6,8.5,16,3.6-1,11.1,3.2,11.6,7,.3,2.3-1.3,3.7-2.4,5.5,9.8,10-6,18.2-15.1,18-1.4,0-6-.9-6.9-1.8-1,.4-2.2-2.1-2.5-2.8-.6-.4-1.2-.5-2-.3-2.7-.4-7-1.5-7.6-4.3l-.7-.4c.3-3-.6-2.8-2.8.5h-.8c0,0-.7.8-.7.8-1.1.6-10.2-1.1-11.2-1.8l-.5-.9c-.8.1-1.2-1.1-1.3-1.9,0-4.2-.2-5-1.3-.4l-.6.5c-.5.2-.9-.2-1.2-1.1l-6.9,2.9-.8-.5c-.9.4-1.7-.5-2.4-2.4.3,1,.8,2.5,0,3.1l-.6,1.1c-3.3,1.3-6.7,2.2-10.2,2.7-.5-.4-1.2-.5-2-.3-.3,0-.7-.4-.7-.4-.9,0-1.7-2.2-1.1-2.8-1.5-2.2-2.7-1.7-5-1.8-.4-4.6-1.3-10.2,1.4-14.2,1.6.6,3.4-.8,5-1.2,8.3-1.9,12-.8,19.7,1.2,4.9,1.2,12-1.9,12.4-7.4,2.1,2.8.6,6.9-2,8.9,1.5,0,2.6-1.3,4.1-1.4,2.3-.2,6.3,1.4,7.8,3.2,1.1,1.3,1,2.9,2.1,4.2,1.8,2.3,6,3.1,8.8,2.9,3.1-.2,7.6-2.3,6.9-6,1.1-.2.5.7,1.3,1.4,2.1,1.7,4.5.1,4.7-2.3.5-4.8-4.6-9.9-9.2-10.4l6-2.7c3.1-2.6,3.8-5.2.9-8.3l-3-2.2h0Z"/>
  <path class="st43" d="M347.8,264.9l.8.6c-.1,1.8,1.6,11.3,3.3,11.5,1.2.1,7.3-7.6,7.3-9.8l1-.6c.2-.3,2.8-3.5,3-3.6,1.2-.3,1.5,2.7,1.2,3.6l.5.9c-1.2,3.1-2.7,6-4.6,8.7,4.3-1.1,8.5-2.6,12.3-4.8h1.4s.9.3,1.2.7c.4.5,1.1,2,1.3,2.1-2.9,2-6.3,3.9-9.6,5.1-2.5.9-9.9,2.2-11.2,3.1-.9.6-.9,2.2-.9,3.2,0,1.6.6,3.3.7,4.8.1,2.2-.4,4.8.4,6.9-1.2.3-3.8,2.8-4.4,3.9-.7,1.2-1.4,5-1.6,5.2-.3.2-3.7.2-3.9.1-.1-.1-.5-2.9-.7-3.5.4-6.3.8-12.6,1.1-19l.7-.9-.7-.6c0-2.2-.7-3.7-2.2-4.5-4.4-1.4-7.7-3.2-9.8-7.6-.6-1.3-1.8-3.9-1-5-.5-1.4-.2-.7-.4-2.3,0-.4-1.5-3.1-.2-3,.7,0,2,4.1,3,4.6l.9.4c1.2,3.3,3.9,7.2,7.6,7.2l-.2-7.9.6-1c-.5-.9,1-4.8,2-4.6,1,1,.4,2.7.6,4.1.1.7.6,1.6.7,2.3h0Z"/>
  <path class="st45" d="M307.3,244.2c.3,0,2,.5,2.1.5,1.4.7.9,4.3-1.1,4.4l-1.1.3c-10.3-1.4-20.5-2.8-30.8-4.1l-1.1-.5c-1-.5-1.4-3.4-.4-3.9,1.6-.6,3.4-.7,5.3-.3,9,1.3,17.8,2.2,26.6,2.7l.5.8h0Z"/>
  <path class="st45" d="M306.3,238.2c1.4.2,3.5.2,3.8,2,.4,1.8-1.2,2.1-2.1,2.6-9.9-1-20.4-2.2-30.5-3.4-.8,0-1.5-.5-2.2-.9-1.1-.2-1.1-3.3,0-3.6.3-.2.6-.3.9-.4.3-.1.6-.2.9-.2,9.2.6,18.3,1.5,27.5,2.9.3,0,.6.2.9.4.3.2.5.4.8.6Z"/>
  <path class="st45" d="M305.9,231.8c2,.2,3.3,1.7,1.9,3.6-.5.6-1.1.6-1.2.7l-.7.6-29.7-3.4c-.6,0-.7-.2-.9-.8-1.1-.2-1.1-3.3,0-3.6.4-.2.8-.3,1.3-.4.4,0,.9-.2,1.3-.2,8.9.4,17.9,1.6,26.8,2.8l1.2.6Z"/>
  <path class="st55" d="M309.5,255.6c-.6.5-1.6,1.4-1.1,2.1l-32.8-4.3c-.9-.3-.5-1.6-.6-2.4l34.5,4.6h0Z"/>
  <path class="st135" d="M308.4,249.2c-.7.4-.4,1.6,0,2.1-9.4-1.8-23.4-3.4-33-3.9v-2.5c10.8.5,22.3,2.8,33,4.3Z"/>
  <path class="st135" d="M308.1,242.8c-.6.4-.8.6-.7,1.4-1.9-.3-4.8-.1-6.9-.4-8.2-.9-17.2-2.4-25.4-2.8,0-.8,0-1.7,0-2.5,0-.3.2-.3.4,0,10,.6,21,2.5,31.1,3.5.6,0,1.3-.1,1.6.7Z"/>
  <path class="st135" d="M305.9,230c-.4.6-.4,1.2,0,1.8-9.9-.9-20.5-2.4-30.5-2.8-.3,1-.7,1-1.1,0-.3-.9.2-1.7.4-2.5,7.3.4,15.2,1.7,22.6,2.5,2.9.3,5.9.1,8.7,1.1Z"/>
  <path class="st135" d="M306.6,236.1c-.4.4-.9,1.6-.4,2.1-9.5-1.5-21.3-2.8-30.9-3.2v-2.5l31.3,3.6Z"/>
  <path class="st6" d="M277.2,213.7v-.4c-1.9-2.6-2.6-7.7-1.4-10.7.7-1.5,0-3.3.4-4.8.4-2.2,3.7-2.2,4.2,0l.2,15.8c-.4.5-2.5,0-3.4,0h0Z"/>
  <path class="st87" d="M272.5,194.5c3.7.2,2.2.8,2.5,4.1.1,1.2.3,3,.7,4.1,0,3.6.5,7.2,1.4,10.7h-4.6c-.7,0-1-.5-.8-1.4l.3-16.1c-1.4-.1-1.9-.6-1.6-1.3.7,0,1.4,0,2.1,0Z"/>
  <path class="st3" d="M272.5,216.2c1.5,0,3.1,0,4.6,0v1.4c.9.4.4,3.4-.7,3.6.1.6-.4,1.1-1.4,1.4-.7,0-1.7.1-2.3,0-1.4-.5,0-5.1-.2-6.3Z"/>
  <path class="st104" d="M274,191.7c-1.3-1.3-.4-2.4-.3-3.7,0-2.2-1.5-2.9,2.5-2.6.3.3-.5,5.2.4,6,0,.1,0,.3-.2.3-.5.1-1.1,0-1.6,0-.2,0-.5,0-.7,0h0Z"/>
  <path class="st145" d="M286.7,223.3v-6h1.6s.2,6,.2,6c-.4,0-1.1,0-1.8,0Z"/>
  <path class="st0" d="M292.1,223.6c-.6,0-.8,0-1.8,0v-5.8c2.5-.8,1.3,1,1.4,2.5,0,1.2.4,2.2.4,3.4Z"/>
  <path class="st50" d="M277.2,217.6c0-.4.3-1.7,1.1-1.4-.2,2.1.4,4.4-.4,6.4-.3,0-.7,0-1.1,0-.9-.1-1.2-.9-.4-1.4,0-.3.6-3,.7-3.6Z"/>
  <path class="st59" d="M281.1,216.2v6c-2-.2-1-2-1-3.4,0-1.4-1.1-2.8,1-2.7Z"/>
  <path class="st16" d="M285,216.9c.9-1.2.7,2.7.7,3-.2,2-1.4,2.2-1.1.5l.4-3.6Z"/>
  <path class="st29" d="M284.6,220.4c.2-1.1-.4-2.7.4-3.6.2,1.3-.1,2.4-.4,3.6Z"/>
  <path class="st70" d="M276.8,222.6c-.1,0-.2,0-.4,0-.5,0-.9,0-1.4,0-.2-.9.9-.9,1.4-1.4,0,.2.5,1,.4,1.4Z"/>
  <path class="st99" d="M168.5,271.3c.6.6,0,.9-.7,1.4.2.7,0,.9-.7,1.1-.2.7-.2,1.4,0,2.1.3.5.6.7.7,1.4.3,0,.3.2,0,.4-.7.9-.3,2.7-.4,3.9-.5.4-1.3.6-2.1.7-.7.6-1.4,1-2.1,1.3.3,0,.7.1.7.3.2,1.9.3,8.2,0,10l-.7.5c.3-1.1,3.9-1.1,4.3,0,.7,1.3.7,2.6,0,3.9-1.9,1.2-2.6,1.8-3.6,4.1-.3.7-1,4.1-1.3,4.1-.3,0-3.5,0-3.6,0-.2-.1-.8-3.1-1-3.8-3.3-8.3-11-7-13.7,1-.2.6-.5,2.7-.6,2.8-.3.3-3-.1-3.7,0-1-9.7-9.7-13.5-14.2-3.2-.3.7-.8,3-.9,3.2-.2.2-3.3.2-3.7-.3-.3-.4-.8-3.3-1.3-4.3-3.1-6.5-9.2-5.7-12,.5-.3.8-1.1,3.8-1.3,4-.7.5-2.8,0-3.7.2-1.3-9.1-9.9-13.6-14.5-3.5-.3.7-.9,3.3-1,3.4-.3.2-2.7-.1-3.3,0-.3-5.9-5.8-12.6-11.4-7.1-1.7,1.7-3,6.4-3.3,6.6-.7.5-3.1,0-4.1.2-.6-3.4-3.2-8.4-7-8.9,0-4.5.4-9,.4-13.5,0-3.5-.6-7.1-.4-10.7,10.5-.3,21.3-.3,31.8-.7,2,0,3.9,0,5.9,0-.4-2.2-3.1-.3-4.6-1.4,25.7.2,51.9.8,77.4.4h0s0,0,0,0Z"/>
  <path class="st34" d="M82.2,177.1c.3,0,1.4.2,1.4.6.3,1.1-.3,7.7,0,7.9h1.1v-6.4h.8c.3,1.9.4,3.7.4,5.5l.8-.2,4.5-4.4.9.2c.2.3.8.5,1.1.9-1.1.8-4.5,5.1-5.5,5.1-.6,0-1.6-.6-2.3-.3,2,3.1,3.1,6-.6,8.5l-3,1.1c0-.2-.5-.5-.7-.7-.9-.8-1.5-1.3-2.8-1.1,0-.3.2-.7.7-1.1-2.3.2-5.1.2-7.1,0,0-.2-.8-1.3-.7-1.4h7.8c.5-4.3-4.7-1.6-7.1-2.8,0-.2,0-.3.1-.5.2-.4,6.1-.3,7,.1.4-.2,1.4-1.4,1.8-1.8-.3-.4,0-.9.5-1.5.3-2.4.4-4.9.2-7.4l.7-.3h0,0Z"/>
  <path class="st56" d="M84.6,177.1c0,.7,0,1.4,0,2.1,0,0,.3.4.4.9.1,1.8-.1,3.7,0,5.5l2-.3,5.1-5c-2-2.2-4.4-3.3-7.5-3.2h0,0Z"/>
  <path class="st56" d="M82.2,177.1c-2.4-.1-5.5,1.6-7.1,3.4l5.7,5.9c.2-.2.6-.3.9-.7,1.2-1.9.2-6.2.5-8.5Z"/>
  <path class="st56" d="M73.6,182.1c-.7.5-2.3,5.9-1.8,6.4,1.9-.3,5.6.6,7.1-.4-1.6-1.8-2.9-3.8-4.5-5.6-.2-.2-.2-1-.8-.5h0Z"/>
  <path class="st56" d="M77.7,192.4c-1.6-.1-3.1,0-4.7-.2-.7,0-1.3-.5-1.1.6.4,1.3.5,1.6,1.1,2.8,2,.1,4.4-1.6,6-2.8-.3-.6-.8-.3-1.2-.4h0Z"/>
  <path class="st56" d="M79,192.7c.3.6-.4.8-.7,1.1-1.5,1.4-2.7,2.9-4.1,4.3-.9-.6-.9-1.8-1.2-2.5,1.8-1.3,3.9-2.1,6-2.8Z"/>
  <path class="st111" d="M347.1,283c.3,5-.6,12.1-1.1,17.2,0,.8-.2,2-.7,2.7-2.4-6.4-8.7-8-12.5-1.7-.6,1.1-1.9,5-2.1,5.2-.8.5-2.3-.3-2.8-.3-.9-.3-2.3-1.9-1.8-2.8-.4,0-.7,0-1-.2-1.1-1.9-2.3-3.7-4.7-3.9-.7-.6-.5-6.8-.3-8.2l.7-.5c.7-.6.8-1.2.2-1.8l.5-.7c-.5-3.6-.5-7.7,0-11.4-.3,0-.3-.2,0-.4,0,0,1-.7,1.1-.7.7-1.3,4.4-.3,5.8.1,6,1.8,11.9,3.7,17.6,6.2l1.1,1.2Z"/>
  <path class="st63" d="M177.7,301.1c.7-.7.2-5.1.3-6.6,0-1.6,1.1-4.7,1.1-5.7,0-.8-.9-1.4-1.1-2.5-.1-1-.2-7.8,0-8.5.3-1.1,2.9-.4,3.9-.6l-.4,24.2h2.1v-10.8c0-.9,4-.3,4.8-.9,2.7.6,5.5.2,8.3.3v11c.9,0,2,.3,2.1-.9v-23c.4-1.1,3-.4,3.9-.6v9.8c0,.2-2.4,2.2-1.6,3.4.2.3.9.3.9.3v11h2.5v-10.8c0-.8,2.9-.5,3.6-.5.9-1,2.3-1,3.2,0,.3,0,.7.2.7.4.1,1.5.3,10.7,0,11.5l-.7.5c0,.6-.2.6-.7,0l-2.3.5c-9,.4-18.2.8-27.3.6-1.5,0-3.1-.4-4.6-.7,0-.2-.6-.5-.4-1.1.6,0,1,0,1.4-.4h0Z"/>
  <path class="st44" d="M276.8,301.8c.2-1.2,2.2-1,1.8.4-1,.7-1.4,1.9-1.1,3.6,12.9,0,25.8,0,38.7,0,1.2,0,2.4.1,3.6.2,1.2.1,2.4.3,3.6.4-.4.6-1.3.4-2,.4-36,.4-72-.2-108,0-.7,0-1.8-.4-1.9-.4-.8-.3-1.1-.8-.4-1.4-.7-.6-.8-1.5-.4-2.8h.7c9.1-1,18.3-1.3,27.5-.8,3.4-.4,6.9-.5,10.3,0,9.1-.7,18.4-.8,27.5.4h0Z"/>
  <path class="st132" d="M278.6,302.2l.8-.5c10.7,0,21.4.2,32.2.3,4.9-.2,10.2-.3,14.6,1.2.6.9,1.7,1.6,1.8,2.8-1.3,0-3,.3-4.6.4-15.5.1-31-.1-46.5,0v-4.3c.6,0,1.2,0,1.8,0h0Z"/>
  <path class="st87" d="M210.7,302.2c1,1.3.3,2,.4,2.8l-.2.7c-10.9.1-21.8.2-32.7.3l-.4-.7c-.5-1-.7-1.5-1.1-2.8,11.4.2,22.7-.2,34.1-.4Z"/>
  <path class="st150" d="M211.1,305c0,.1.6.9.4,1.4-8.9,1.2-19.4,1.1-28.6.7-.8,0-4.9-.2-5.1-.4,0,0,.3-.7,0-1.4l33.4-.4h0Z"/>
  <path class="st9" d="M175.9,296.8l-.4,3.6c-2-1.9-4.1-4.1-7.2-3.1-.4.1-.6.8-.9,1,0-1.3,0-2.6,0-3.9-1.1,0-1.2-3.5,0-3.6.3-.9,7.6-1,8.2-.6.6.4.3,5.5.3,6.6Z"/>
  <path class="st74" d="M169.4,311.1c3.5-.9,3.4,6.2-.2,4.6-1.9-.8-1.5-4.2.2-4.6Z"/>
  <path class="st78" d="M212.4,311.1c3.8-1.2,3,6.9-.4,4.5-1.3-.9-1.1-4.1.4-4.5Z"/>
  <path class="st1" d="M261.8,315.6c-2.6,2.4-4.2-4.4-1.1-4.8,2.1-.3,2.4,3.6,1.1,4.8Z"/>
  <path class="st73" d="M202.5,315.6c-.3.2-1.8.1-2.2,0-1.4-.5-1.4-4.6.7-4.9,2.1-.3,2.2,4.4,1.5,4.9h0Z"/>
  <path class="st143" d="M284.2,310.7c2.1-.5,2.8,5,.2,5.2-2.6.2-2.4-4.7-.2-5.2Z"/>
  <path class="st139" d="M113.3,311.1c2.2-.4,3.4,4.9.3,4.9s-2.2-4.5-.3-4.9Z"/>
  <path class="st136" d="M247.1,311.5c2.4-2.4,4.7,3.7,1.8,4.5-2.2.6-2.9-3.4-1.8-4.5Z"/>
  <path class="st40" d="M375.4,311.1c2.7-.4,2.9,4.2.6,4.6-2.7.4-3.1-4.2-.6-4.6Z"/>
  <path class="st147" d="M393.5,311.5c3.3-1.1,3.4,4.1.9,4.5-2.5.4-2.5-4-.9-4.5Z"/>
  <path class="st19" d="M338.1,311.1c2.4-.7,3.1,3.9,1.3,4.5-3.3,1-3.3-3.9-1.3-4.5Z"/>
  <path class="st151" d="M94.5,311.5c2.9-.9,3.6,4.1.9,4.5-2,.3-3.2-3.8-.9-4.5Z"/>
  <path class="st118" d="M150.6,311.1c3.8-.9,1.8,7.5-1,4-1-1.2-.5-3.7,1-4Z"/>
  <path class="st27" d="M357.3,311.1c2.3-.2,2.8,4.6,0,4.6-2.6,0-2.4-4.4,0-4.6Z"/>
  <path class="st58" d="M317.9,311.1c2.8-.8,2.9,4,1.3,4.5-2.9.8-3.4-3.9-1.3-4.5Z"/>
  <path class="st69" d="M235.7,315.6c-1-1.1-.4-5.3,1.4-4.8,2.9.8.7,7.1-1.4,4.8Z"/>
  <path class="st18" d="M56.5,311.4c2.8-.9,3.6,3.9,1.3,4.5-2.5.7-2.9-4-1.3-4.5Z"/>
  <path class="st15" d="M272.3,311.2c2.7-2.3,3.4,6.3,0,4.6-1.4-.7-1-3.7,0-4.6Z"/>
  <path class="st124" d="M160.2,311.1c2.9-.8,2.5,6.8-.5,4.6-1.3-1-1.1-4.1.5-4.6Z"/>
  <path class="st151" d="M75.7,311.5c3.7-1.1,2.3,6.6-.6,4-1.2-1-1-3.5.6-4Z"/>
  <path class="st65" d="M132.5,311.5c2.8-.9,2.9,3.6,1.3,4.1-3.3,1-3.1-3.6-1.3-4.1Z"/>
  <path class="st85" d="M47,306.7c.3.3,2,3,2.3,3.6.3.5.5,1.1.6,1.7,1.4-.4,2.8-.7,4.1-1,.9-.2,2.5-.4,3.9,0,3.9,1.9,4,3.4,4.4,8.2,1.9-.5,4-.7,6.1-.5,2.1,0-1,0,1,0,1.5.8,2.6,1.3,0,0,2.1.4,2.2,0,3.9,1.7l.7,1.5c2.4-.5,7.6,6.9,6.8,8.1-.1.2-.2.3-.4.4.8,1.2.5,3.4.2,4.9.6.3,0,.7-.5.8H.5c-1.6-5.3,1.1-9.6,6.4-10.7-2.3-4.4-1.8-8.8,2.7-11.3,4.9-2.8,8.8-1.1,13.6.6-1.1-9,6.8-15,15.3-12.7,1.8.5,7.2,3.2,8.4,4.5h0s0,0,0,0Z"/>
  <path class="st137" d="M295.2,311.1c2.5-.7,2.5,4.7.2,4.9-1.9.2-2.1-4.3-.2-4.9Z"/>
  <path class="st119" d="M385.4,315.6c-2.3,2.4-4.1-3.8-1.4-4.5,1.7-.5,2.5,3.4,1.4,4.5Z"/>
  <path class="st149" d="M348.1,311.1c2.3-.6,2.5,5,.3,4.9-2,0-2.3-4.4-.3-4.9Z"/>
  <path class="st103" d="M103.6,315.6c-1.1-1.1-.4-5,1.4-4.5,2.4.6.9,6.9-1.4,4.5Z"/>
  <path class="st114" d="M224.8,310.7c2.4-.8,2.5,4.8.6,5-2.1.2-2-4.5-.6-5Z"/>
  <path class="st93" d="M85.6,311.1c1.8-.5,2.4,4.8.3,4.9-2.3.2-2.1-4.5-.3-4.9Z"/>
  <path class="st61" d="M179.6,311.2c2.9-2.5,2.8,6.9,0,4.3-1.1-1-1-3.4,0-4.3Z"/>
  <path class="st92" d="M328.9,311.4c2.9-.8,2.4,6.4-.4,4.2-1.3-1-.9-3.8.4-4.2Z"/>
  <path class="st140" d="M366.2,311.1c1.9-.5,2.8,4.3.6,4.6-2.7.4-2.3-4.2-.6-4.6Z"/>
  <path class="st137" d="M190.7,310.7c1.6-.1,1.6,5,.3,5.3-2.1.5-2.7-5.1-.3-5.3Z"/>
  <path class="st84" d="M122.9,311.4c2.5-.7,2.4,4.4.3,4.6-2.2.2-1.8-4.1-.3-4.6Z"/>
  <path class="st137" d="M306,315.6c-1.6-1.7.6-7,2.1-3.7.9,2-.6,5.3-2.1,3.7Z"/>
  <path class="st152" d="M66.4,311.4c2.6-.8,2.3,4.6.3,4.6s-2.2-4-.3-4.6Z"/>
  <path class="st129" d="M141.4,311.1c2.4-.8,2.5,4.4.6,4.6-2.3.2-1.9-4.2-.6-4.6Z"/>
  <path class="st126" d="M340.4,306.4h-3.2c-.5-4.4,3.6-4.4,3.2,0Z"/>
  <path class="st51" d="M171.7,306.1h-3.6c-.3-4,4-3.9,3.6,0Z"/>
  <path class="st133" d="M377.3,306.4h-3.2c0-3.9,3.6-4.5,3.2,0Z"/>
  <path class="st97" d="M358.4,303.7c.4.4.6,2.6.4,2.8-.1.1-2.6,0-3.2,0-.4-1.4,1.5-4.1,2.8-2.8h0Z"/>
  <path class="st80" d="M395.8,306.4h-2.8c-.1-4.1,3-4.1,2.8,0Z"/>
  <path class="st94" d="M77.9,306.1h-2.8c-.6-3.8,3.4-3.9,2.8,0Z"/>
  <path class="st159" d="M115.2,306.4h-2.8c-.5-3.9,3.2-3.8,2.8,0Z"/>
  <path class="st93" d="M152.5,306.1c-.1.1-2.6,0-3.2,0,.4-5.5,4.4-1.2,3.2,0Z"/>
  <path class="st31" d="M134,306.1h-2.5c-.2-3.8,2.7-3.8,2.5,0Z"/>
  <path class="st39" d="M96.4,306.1h-2.8c-.1-3.5,2.6-3.1,2.8,0Z"/>
  <path class="st121" d="M58.4,306.1h-2.5c-.1-2.9,2.9-3.2,2.5,0Z"/>
  <path class="st108" d="M213.2,253.1c17.1-.9,37.3-.3,54.5.4,2.3,0,4.6,0,6.9,0,0,2.6.1,5.2,0,7.8,0,.6,0,1.2,0,1.8-1.9,0-3.9-.1-5.9,0-18.7.9-37.5-.4-56.3.4l.7-3v-7.3Z"/>
  <path class="st88" d="M276.8,274.1c1,.4,1,1.4,0,1.8l-.4.7c-2.4-.1-4.7,0-7.1.1-.1,1.7-.7,8.9.4,9.9,2,.8,4.1,1,6.5.7l.6.7c.9.6.9,1.1,0,1.8-2.3.8-4.9,1-7.6.7-.1.5-.4.6-1,.5.3,0,.7.2.7.4,0,.8.1,7.7,0,8.1l-.7.5c0,1.1-1.6,1-1.8,0-.3,0-.7-.2-.7-.4-.2-1.4-.2-7.6,0-8.9l.7-.5c-1.3.3-3.3.3-4.6,0,.3,0,.7.2.7.4.2,1.5.2,7.5,0,8.9l-.7.5c0,1.1-1.6,1-1.8,0-.3,0-.7-.2-.7-.4-.2-1.4-.2-7.6,0-8.9l.7-.5c-.8.5-.9.3-.5-.5,0,.3-.1.7-.3.7-.7.1-6.1.1-6.8,0l-.5-.7c.3,0,.7.1.7.3.2,1.8.3,8.4,0,10l-.7.5c.1.2.2.3.3.5,0,.3-3.5.6-3.8,0-.3,0-.7,0-.7-.2-.1-1.7-.3-11.7,0-12.7l.7-.4h-.8c-1.5-3.9-5.2-5.3-6.3-.3.5,4.2.7,9.2.1,13.5,0,.4-4.5.4-5.2.4-.3-4.4-.4-8.9-.1-13.3-1.1-1.7-.4-5.7,2-5.4,2-2,4.3-3.1,6.8-3.3.6-.6,1.2-.9,1.7-.9l.5-.2c2.8,2.3,5.8,5.1,5.8,9.1,2.5.2,4.9,0,7.3-.6-.3,0-.7-.1-.7-.3-.2-1.9-.3-8.1,0-10l.7-.5c-.8,1-2,1-2.8,0-4.1-.6-8.7-.6-12.9.3l-1.3-.5c-3.8.2-7.6.1-11.4-.2l-.2.5c-1,0-1.9.3-2.6,1-.6.7-1.7.3-1.8-.7-1.7-.1-3.4,0-5,.4,0,1.2-1.2,1.5-1.8.4-.8,0-.9-.4-.4-1.1-2-.5-3.9-.5-5.7,0-.6,1-1.2,1-1.8,0-.1-1,0-1.9,1.2-1.8,21.1,0,42-.6,63.1,0h0Z"/>
  <path class="st49" d="M321.6,276.2c0,0,0,.2,0,.4l-.4.7c0,.4-.2.8-.4,1.1,0,.3-.1.7-.3.7-.7,0-6.6.1-7,0l-.5-.7c.3,0,.7.2.7.4,0,.8.1,7.7,0,8.1l-.7.5c2.4.3,4.8.2,7.3-.1l.5.7c0-.3.2-.3.4,0,0-.3.2-.3.4,0,0,.6,1.9,2.1-.7,2.5l-.4.7c-2.5-.1-5-.3-7.4-.6.3,0,.7.1.7.3.2,2.9.2,7.1,0,10l-.7.5c0,.9-2.7.8-2.9-.1v-9.8c0,0-.8-2.5-.8-2.5,1.1-3.3,1.4-6.7.8-10.4-1.4.3-2.3,0-2.8-.7.3,0,.7.1.7.3.2,7.4.2,15.6,0,23.1l-.7.4c-.3.7-2.9.6-2.1-.5-.3,0-.7-.1-.7-.3,0-1.2-.2-9.9,0-10.4.1-.3.4-.4.7-.5l-1.1.7c-3.6-.4-7.3-.4-10.9-.1l-1.1-.5c.3,0,.7.1.7.3.2,2.9.2,7.1,0,10l-.7.5c.8,1.3-2.2,1.4-2.1.2l-.7-.3v-22.9l.7-.4c-.9.2-1.9.3-3,.2-.4.4-.3,5.8-.2,6.8.8,4.9,1.2,10.4.8,15.4-.2,2.3-2.3,2.3-3.6,1.2-.3,0-.7-.1-.7-.3,0-1.3-.1-10.1.2-10.5.1-.1.3-.2.5-.2-.8.5-1.8.6-3,.4-1.8.3-3.1,0-4.1-.7,0-.6,0-1.2,0-1.8,1.8-.9,3.9-1.3,6.3-1.1.7-3,.6-6.1.4-9.2l-6.4-1-.4-.8c0-.6,0-1.2,0-1.8,9.6.3,19.6.8,29.3,1.1l15.4,1.1h0Z"/>
  <path class="st89" d="M197.2,276.9c.2,1.8-.2,3.7-.3,5.5,0,1.8,1,5.1-2,5.5-1.8.2-7.8.2-9.6,0-2.7-.4-1.6-4.1-1.6-5.9,0-1.6,0-3.2,0-4.8l13.5-.4h0Z"/>
  <path class="st110" d="M228.9,276.9l.7.4c-.2,3.6-.1,7.1.2,10.6,0-.3.1-.7.3-.7,1.2-.2,5-.3,5.5.7.8,0,.8,1.7,0,1.8,0,.3-.1.7-.3.7-.4,0-5,.1-5.4,0l-.5-.7c.5.8.3.9-.5.5.3,0,.7.1.7.3.2,1.8.3,8,0,9.6l-.7.5c0,.9-1.6.8-1.8,0-.3,0-.6,0-.7-.3-.3-.9-.1-8.8,0-10.2l.7-.5c-.5,1.2-3.7.7-5,.5.3,0,.7.1.7.3.2,1.8.3,8,0,9.6l-.7.5c-.2,1.1-2.8.9-2.8-.4.4-3.3.5-6.6.3-9.8-2.5-.2-5.1-.3-7.6-.1l-.5-.7c-1.1,0-2.1,0-3.2,0l-.4-1.8c.9-1,2.3-1,3.2,0l.6-.7c2.7.4,5.2.2,7.6-.4.6-3,.8-6.1.4-9.4l.7-.5c.6,0,1.2,0,1.8-.4l.8.3c0,2.6,0,5.2-.3,7.8-.8,4.4,5,3.1,3.9-.9l-.2-7,.8-.6c.6.2,1.2.3,1.8.7h0Z"/>
  <path class="st63" d="M167.1,275.9c-.2-.4-1-.4-.9-1.5.2-1.6,1.1-1.3,1.6-1.7.4.6,1.3.4,2,.4,13.4.2,27-1.1,40.5-1.4,1,0,2-.9,2.3.5.1.8.1,1.9-.9,1.9-12.2.3-24.4,1.2-36.6,1.1l-8,.7Z"/>
  <path class="st36" d="M214.3,275.9c1.8-.5,3.7-.5,5.7,0,.1,0,.3,0,.3.2,0,.3,0,.6,0,.9.1,2.3.3,6.5,0,8.7-.1,1.3-.6,2.1-1.9,2.3-2,.3-5.2,0-7.3,0l-.5-1c.3-3.3.3-6.6.2-9.9l.7-.9c.6,0,1-.4,1.1-.4.6,0,1.2,0,1.8,0h0Z"/>
  <path class="st37" d="M279.6,269.1c11.2.1,23.7,1.1,35,1.8,2.2.1,4.4.4,6.6.7.3.1.3.2,0,.4,0,.2,0,.6,0,.7-1.4,1.6-4.5.4-6.2.3-12.7-.5-25.3-1.1-38-1.8-1.1-.1-1.2-1.2-.4-1.8.7-.5,2.1-.3,3-.3h0Z"/>
  <path class="st21" d="M167.8,277.3c1.1.2,8.5-.5,8.5.5v6.8c0,.6-.8,3.4-1.6,3.4h-6.9c-.2-3.3.3-7,0-10.3,0-.1,0-.2,0-.4Z"/>
  <path class="st89" d="M211.4,276.2c-.2,3.9.4,8-.4,11.7-1.1,0-2.1,0-3.2,0-.9,0-3.2.4-3.2-.9v-10.3c0-.9,5.7-.5,6.7-.5Z"/>
  <path class="st101" d="M167.4,281.6c0,1.4.3,5.3,0,6.2,0,.3-3.8,1.1,0,3.1-.2.5,0,2.7,0,3.6h-4.3v-10.8c0-1.3,3-2.9,4.3-2Z"/>
  <path class="st35" d="M218.5,194.9l.7.3c-.1,5.8-.2,11.6-.3,17.4l-.7.4c0,.3-.2.3-.4,0-.6,1.1-5.4,1-6.4.5l-.4-.8c-.8-2.1-.2-5.9,1.1-7.8.8-3.2,1.2-7,1.4-10.3,1.7-.2,3.3.2,5,.4h0Z"/>
  <path class="st47" d="M212.2,204.8c-.2,2.5-.7,5.3-1.1,7.8.6.7.6.8-.4.7-.6.2-2.5,1.1-2.8.1-.5-1.8,0-8.5,0-11,0-1.8-1.4-5.5,1.3-6.1.9-.2,2.3.1,2.7,1,.4.8.3,6.2.2,7.5h0Z"/>
  <path class="st68" d="M217.8,213c.8.3,1,1,.8,2.2,1.4-.1,2.4.2,2.8,1-.7,1-1.8,1-2.5,0-2.7,0-5.5,0-8.2,0,0-.3.7-.2.7-.5,0-.3-.6,0-.7-.4-.1-.4,0-1.4,0-1.9,0-.3.3-.6.4-.7,2,.7,4.6.3,6.7.4h0Z"/>
  <path class="st77" d="M210,216.2v5.5c0,.8-2.1.3-2.1.2v-5.7h2.1Z"/>
  <path class="st123" d="M273.2,247.4c.3.7,2,.2,2.1.4.1.1,0,2.3,0,2.8h-62.9c1.7-.5,1-1.4.7-2.8,18.9-1.1,41-1,60-.4h0Z"/>
  <path class="st62" d="M318.7,265.6c.7,1,.9,1.7,1.1,2.8-.6,0-1.7.4-2.8.4-1.4-.3-2.8-.4-4.3-.4-9.8-.6-19.6-1.3-29.3-1.8-3.6-.2-7.2,1.6-6.2-3.5l41.6,2.5h0Z"/>
  <path class="st2" d="M316.9,268.8c-1.4,0-3-.3-4.3-.4,1.3.2,3.2-.4,4.3.4Z"/>
  <path class="st2" d="M321.2,272c0-.1,0-.3,0-.4.2-.8,1.2-1.6.7-2.8.8.3.5,3-.7,3.2Z"/>
  <path class="st10" d="M275,241.1c.1,1.4.4,2.4.4,3.9-17.7-.7-36,.2-53.8,0-2.6,0-5.2-.5-8-.4-.2-1.1.2-2.3-.7-3.2,19.2-.9,43.1-1.5,62.2-.4Z"/>
  <path class="st105" d="M275.4,235v3.6c-.1,0-.2,0-.4,0-20.6.6-41.7-.9-62.2,0l.4-3.2c-.4,0-.7,0-1.1,0,.4-.6,1.3-.4,1.9-.4,20-.2,41.4-.8,61.3,0h0Z"/>
  <path class="st26" d="M274.3,229c.4,0,.7,0,1.1,0v3.6h-61.8c-.6-1.1,0-2.1,0-3.2-.5,0-.9,0-1.4,0,.4-.6,1.3-.4,1.9-.4,19.7-.2,40.6-.7,60.2,0Z"/>
  <path class="st146" d="M222.8,213c3.5,0,7.1.3,10.7.4,1.3-.7,2.6-.7,3.9,0,4.2-1.1,9.2-1.2,13.5-.4l3.6.4c0-.3.2-.3.4,0,3.3,0,6.6,0,9.9,0,0,1-.3,1.8-.4,2.8,0,2.4.5,3.5,2,5.3.3.4,1.4.4.7,1.1-.3,0-.6-.4-.7-.4h-11.5v-6c0,0-1.4,0-1.4,0v6c-10.3,0-20.6,0-30.9,0l-.4-.9c.5-1.4.9-2.9.8-4.5-.7.1-1.1,0-1.5-.7l-3.9-.4c.9-.9.3-1.7.4-2.8h.4c1.1-1,3.6-1.1,4.6,0h0Z"/>
  <path class="st125" d="M254.8,213.3h-.4l-3.6-.4-.7-.4v-7.7c.4-10.3-12.3-10.8-12.1-.4v8.5c0,0-.7.4-.7.4-1.3,0-2.6,0-3.9,0,.5-5.4-1.3-12.6,1.7-17.3,4.2-6.5,15.2-5.9,18.6,1.1,1.4,3,.9,5.2,1,8.2,0,2.7,0,5.4,0,8h0Z"/>
  <path class="st90" d="M270.4,194.5c.3.7,2,.2,2.1.4.7.6-.5,16.2,0,18.5h-7.1l2.5-18.8c.8,0,1.7,0,2.5,0Z"/>
  <path class="st71" d="M218.5,194.9c.7,0,1.4,0,2.1,0l2.1,18.1c-1.4,0-3,0-4.6,0l.4-18.1h0Z"/>
  <path class="st112" d="M221.4,216.2c.7,0,1.4,0,2.1,0,.2,2.2-.3,4.1-1.1,6-1.7,0-3.3,0-5,0,.8-1.7-.4-3.6,0-5.5,0-.4,1.3,0,1.4-.6.8,0,1.7,0,2.5,0h0Z"/>
  <path class="st157" d="M148.6,294.3h-5.5c-.4,0-.5-.9-.6-1.2-.2-1.8-.2-8.9.4-10.3,1.3-3,5.6-1.4,5.6.3v11.2Z"/>
  <path class="st127" d="M103.5,283.2c.2-.8,1.9-1.9,2.7-1.9.9,0,3,1.2,3,1.9v11.2h-5.7c.5-3.1-.7-8.3,0-11.2Z"/>
  <path class="st38" d="M123.4,283.2c.6-2,4.7-2.4,5.5.2.4,1.4.4,8.2.2,9.8,0,.4-.2,1.2-.6,1.2h-5.1c.5-2.9-.7-8.7,0-11.2h0Z"/>
  <path class="st127" d="M85.7,289.4c-1.7-.3-4.4.9-4.6-1.2-.3-2.2-.7-8.3,2-8.7.7-.1,2.7.4,2.7.7v9.2h0Z"/>
  <path class="st11" d="M70.8,289.4c-.9-.1-3.6.4-4.1-.3-.3-.4-.3-7.8,0-8.5.8-1.7,4.1-1.1,4.1-.2v9.1h0Z"/>
  <path class="st76" d="M276.8,289.7c2.4,0,4.8-.2,7.1.4v11h2.8c0-3.4,0-6.8,0-10.1,0-3.3-.4-3.4-.7-6-.1-1.1-.2-7.5.3-7.8.5-.4,3.6-.3,3.6.4v23.6c0,.1,2.1.5,2.1-.2v-10.8c4.3-.8,8.8-.2,13.1,0v11.2c0,.5,1.6.6,2.1.5v-23.8h3.6c-.3,2.6.4,5.9,0,8.4-.1.9-1,2-.9,2.8,0,.4.8,1,.9,2.1.2,1.5-.4,9.8,0,10.1h2.1v-10.8c0-1.2,6.7,0,7.8-.2.2,1.1-.3,7.9,0,8.2,0,0,.9,0,1.4.2,2.1,1,2.7,2.7,3.9,4.4-1.4.8-3.2-.3-4.8-.4-9.2-.6-19.5-.1-28.8-.3-4.6-.1-9.3-.6-14-.4-.3-.6-1.2-.3-1.8-.4-1.1-3.8-1.2-8.4,0-12.1h0Z"/>
  <path class="st111" d="M321.6,288h-.4c-.2-3.4-.4-7.2,0-10.7,0-.2,0-.5.4-.7-.3,2-.3,9.4,0,11.4Z"/>
  <path class="st66" d="M231.7,275.5c4.2.1,8.4.3,12.6.4v.5c-1.8,2.2-4.1,4.3-6.2,6.1-.4.5-1.2,1.1-1.5,1.9-.7,1.8,0,2.7,0,4.3,0,4.1,0,8.2,0,12.3l4.3-.4c0-3.6,0-7.2,0-10.8,0-.8-.4-1.6-.4-2.4,0-1.1,1.9-4.1,3-4.1.2,0,2.8,1.1,3,1.3.5.4,1.8,2.7,1.8,3.2v13.3c.7,0,3.6.2,3.6-.5v-10.8h7.6s.5.5.5.5v9.8h1.8v-9.8c0-.8,4.6-.8,4.6,0v9.8h1.8v-9.1c0,0,.4-1.2.6-1.3,2.6,0,5.3,0,7.9,0,0,4,0,8.1,0,12.1-21.7-.4-43.7,0-65.4.4v-12.4c1.3,0,8.3-.2,8.7.3.8,1.2-.3,8.8-.2,10.7h2.1v-10.5c0-.9,4.2-.4,5-.5v11h1.8v-10.5s.5-.5.5-.5h6.2v-1.8h-5.9c-.4,0-.8-1.5-.9-1.9-.2-2.1-.2-6.9,0-9.1.2-1.9,1.1-1.5,2.8-1.4h0Z"/>
  <path class="st36" d="M257.3,275.9c.9,0,1.9,0,2.8,0v10.8c0,1.6-7.2,1.5-7.8,1.2-.4-.2-.5-3.3-1-4.2-.6-1.2-3.7-4-4.8-5.4-1.6.6-2.9-2.6-.9-2.7,3.8-.2,7.8-.1,11.6.2h0Z"/>
  <path class="st130" d="M276.8,275.9l.8,1.1c.1,3.3,0,6.7,0,10l-.7,1c-2.1,0-7.4.7-8.1-1.7-.2-.6-.4-4-.5-4.9,0-.6.3-1.3.4-1.8,0-.9-.9-2.8.4-3.5.6-.3,6.7-.3,7.8-.2h0Z"/>
  <path class="st2" d="M227.1,276.2c-.4,3,.5,7.3,0,10.1-.4,2.2-4.6,2-4.9,1-.7-2.3.4-8.1,0-10.8.1,0,.3-.7.7-.9.7-.3,2.7-.3,3.4-.2.7.1.8.7.9.7h0Z"/>
  <path class="st36" d="M266.9,275.9c.3,1.9-.3,4-.3,5.8,0,.5.4,1.2.4,1.8,0,.7-.4,3.3-.6,3.7-.7,1.5-4.4.5-4.4-.5v-10.8h5Z"/>
  <path class="st2" d="M257.3,275.9c-3.8,0-7.7,0-11.5,0-1.1.9.1,1.6.8,2.5-.9,2.5-2.8,1.4-4.7,2.2-1.2.5-1.9,2.5-3.8,2,.4-.5.5-1.3,1.1-2,.3-.3,5.1-4.4,4.6-4.8-3.6-.1-7.3.1-10.9,0-.6,0-1.1-.4-1.2-.4,7.6.2,15.3-.2,22.8-.2.7,0,2.2.2,2.7.6Z"/>
  <path class="st2" d="M220,275.9c-.8-.2-4.5,0-5.7,0,.4-.6,1-.7,1.6-.7,1,0,3.1.4,4.1.7Z"/>
  <path class="st76" d="M305.6,278v8.7c0,0-.6,1-.7,1.1-.5.3-10.5.4-11.5.2-1.9-.4-1.2-2.5-1.3-3.4,0-.3-.3-.6-.3-.7v-6.6l13.9.7Z"/>
  <path class="st30" d="M276.8,275.9l6.9,1.1c.6.2.6.6.6,1.2.2,1.3.1,8.8-.8,9.4-2.3,0-4.4.4-6.7.4,0-4.3.3-7.6,0-12.1Z"/>
  <path class="st82" d="M320.8,278.4c.2,3.1.4,6.5,0,9.6-1.3,0-7.8,1.2-7.8-.5v-9.1h7.8Z"/>
  <path class="st111" d="M321.2,287.9h-.4c.2-3.1-.2-6.5,0-9.6,0-.7.2-.7.4-1.1v10.7Z"/>
  <path class="st113" d="M250.9,213c-4.5.3-8.9.3-13.5.4.3-5.5-2.2-16.6,6.2-17.1,9-.5,7.2,10.9,7.3,16.7Z"/>
  <path class="st131" d="M247,216.2v5.3c0,.2-1.9,1.1-2.2-1.6-.2-2-.5-4.3,2.2-3.8Z"/>
  <path class="st12" d="M241.3,216.2c3.4-.6,1.8,3.2,2.1,5.3h-2.1v-5.3Z"/>
  <path class="st67" d="M250.5,216.2h-1.8v5.3h1.8v-5.3Z"/>
  <path class="st156" d="M239.5,221.5c-2.9.5-1.4-3.4-1.8-5.3,2.9-.5,1.4,3.4,1.8,5.3Z"/>
  <path class="st22" d="M254.4,213.3c-.8,0-3.3.3-3.6-.4,1,0,2.8-.2,3.6.4Z"/>
  <path class="st100" d="M162.2,88.4c-2,2.7-5,4.8-8.4,5.4-.8.1-1.3-.3-1.4-.3-.2,0-.1,2.4-1.9,3.6-3.8,2.7-4.9-3.2-5.2-3.4-.4-.2-2.2.9-3.8,0-3.1-2-1.5-5.6,1.8-6-3-1.2-1-11,.9-11.1,4.3,3.3,4.2,6.9,4.3,11.7,0,.4.2.7.4.7.2,0,2.5-1.4,3.3-1.7,2.9-1,7.6-1,10,1.2Z"/>
  <path class="st158" d="M427.4,336.3c3.1,3.1-.3,9.4-4.2,9.4h-52.3c.2.7,1.3.7,1.8,1.3,2.4,2.4,2.2,6.7,0,9-.5.5-2.6,1.9-3.1,1.9h-51.5c2.6,2.4,1.6,5-1.5,6.1h-106.5c-3-.6-4.3-4-1.9-6.1h-93.8c-4.4-1.3-6.3-7-3.5-10.5.6-.8,1.5-1,1.9-1.7H40.1c-3.1-1-4.2-6.9-1.9-9.5,44.3,0,88.5,0,132.8,0,86.4-1,167.3,0,252.9.2,1,0,2.9,0,3.6,0Z"/>
  <path class="st144" d="M189.1,352.7c-1.1-1.7,1-2.2,2.4-2.2,2.2,0,3.9,0,6.1,0,15.5-.3,31.1.2,46.6,0,1.4.4.4,2.8-1.1,2.6-17-.9-35.2,1.2-52,0-.4,0-1.9-.2-2-.4Z"/>
  <path class="st98" d="M213.8,341c1.7.3.9,2.5.4,2.5h-51.3c-1.1,0-1.1-2.5,0-2.5h50.9Z"/>
  <path class="st106" d="M354.8,21.7c0,2.2-2.9,1.7-5.1,8.2,0,0-7.8,26.5-7.9,27.3-.6,2-2.4,3.5-4.7,3.5h-4.3c-2,0-3.9-1.3-4.7-3.4l-7-21.7-6.6,21.5c-.6,1.9-2.5,3.5-4.7,3.5h-4.3c-2,0-3.9-1.3-4.7-3.4l-7.9-27c-2-7-5.3-6.4-5.3-8.6s.8-2,2.1-2h14.6c2.1,0,2.9.9,2.9,2,0,2.2-2,1.6.2,8.6l5.5,18.8,7.8-25.7c.6-2.1,2.5-3.6,4.7-3.6h1.8c2.2,0,4.2,1.5,4.7,3.5l8.2,25.8,5.4-18.8c1.7-6.9,0-6.4,0-8.6s.9-2,2.9-2h4.2c1.3,0,2.1.9,2.1,2Z"/>
  <path class="st106" d="M422.7,18.4c-2.6,0-5.7.9-7.4,2.2V2.6c0-1.4-1.1-2.5-2.5-2.5-4.2,0-6,4.7-11.5,4.7s-2.2.8-2.2,2c0,2.2,2.2,1.4,2.2,8.7v23.7c-2,3.2-5,8.2-9.4,11.6-2.9,2.2-6.4,3.8-10.6,3.8s-1.8,0-2.6-.3c-3.1-.7-5.5-2.7-7.2-5.3-7.3-10.9,26.2-3.4,22.5-17.7-1.9-7.1-10.9-12.9-19.9-12.9s-20.2,9.7-20.2,21.8,10.2,21.8,22.8,21.8.9,0,1.3,0c5.9-.3,10.5-2.7,14.2-5.7,4.2-3.5,7.1-7.8,9.1-10.9v4.8c0,7.2-2.1,6.4-2.1,8.6s.8,2,2.1,2c2.5,0,6.4-3.4,11-1.1,3,1.5,6,2.4,9.3,2.4,12.6,0,22.9-8.6,22.9-21.9s-10-21.7-21.8-21.7ZM368.8,42.8c-2.4-8-.7-20.5,5.3-20.5s10.9,12.4,2.8,15.6c-3.6,1.4-6.6,2.5-8.1,4.8ZM421.6,58c-2.9,0-6.3-1.8-6.3-7.3v-12.4c0-9.6-10.7,2.5-13.8,6.4,6.6-10.3,13.2-22.4,20.1-22.4s8.3,7.5,8.3,17.8-2.9,17.9-8.3,17.9Z"/>
  <path class="st106" d="M493,43.5c-.4,13.9-14,18.5-26.1,18.5s-19.5-5.3-19.5-14.2,3.1-7,6.9-7,6.9,3.2,6.9,7,.6,8.9,7.8,8.9,9.6-8.8,9.6-13.2-.9-13.8-11.8-13.8-3.4-2.3-2.2-4.1l12-14.3h-11.2c-6.8,0-9.1,4.4-10.9,8.9-.3.7-1.4,2-3.1,1.6-1.5-.4-2.3-1.8-2-3.3l4.2-15.5c.3-1.4,1.6-2.3,3-2.3h28.7c2.7,0,4.2,3.2,2.5,5.2l-15.7,18.8c12.4,1.2,21.3,7.8,20.9,18.7Z"/>
  <path class="st83" d="M284.8,101c-2.1,4.4-9.2,10.4-19.3,10.4s-22.9-9.7-22.9-21.8,8.2-21.8,20.2-21.8,18.9,6.8,18.9,14-3.1,6.9-6.9,6.9-6.9-3.2-6.9-6.9c0-6.6-1.6-10.1-5.1-10.1-9.7.2-9.5,33.7,9,32.2,3.1-.2,6.8-1.1,10-4.8.4-.4,1.3-1.1,2.4-.3.5.3,1.1,1.1.5,2.2Z"/>
  <path class="st83" d="M307.7,67.8c9.1,0,18,5.7,19.9,12.9,3.8,14.2-29.7,6.8-22.5,17.7,2.4,3.7,6.2,6,11.5,5.6,6.6-.6,9.5-4.3,10-4.9,1.1-1.1,2.2-.5,2.5-.2.7.7.7,1.6.4,2.1-2.6,4.9-9.7,10.4-19.4,10.4s-22.8-9.7-22.8-21.8,8.1-21.8,20.2-21.8ZM302.3,92.2c1.5-2.4,4.5-3.4,8.1-4.8,8.1-3.2,3.6-15.6-2.8-15.6s-7.7,12.4-5.3,20.5Z"/>
  <path class="st83" d="M374,70.9c0,2.5-2.4,1.3-5.4,8.8l-11.4,31.7c-3.3,9.9-7.5,20.4-17.6,20.4s-13.9-5-13.9-10.4,2.5-5.6,5.6-5.6,3.4.8,4.6,2.3c1.1,1.5,1.2,3.3,1.3,4.1.2,2.7-.5,5.7,4.1,5.7s11-12.1,8.1-18l-15-30.3c-3.9-6.8-6.5-6.2-6.5-8.4s.9-2,2.2-2h15.3c2,0,3.2.7,3.2,2,0,2.2-1.6,1.6,1.6,8.6l8,17.7,6.3-17.7c2.4-7.5,1.2-6.4,1.2-8.6s1.2-2,2.5-2h3.8c1.3,0,2,.9,2,1.7Z"/>
  <path class="st83" d="M392.3,99.5v-39.2c-4.3,3-9,4.6-14,4.9h0v34.3c0,7.2-2.2,6.4-2.2,8.6s.9,2,2.2,2h14.1c1.2,0,2.1-.9,2.1-2,0-2.2-2.2-1.4-2.2-8.6Z"/>
  <path class="st83" d="M421,67.8c12.6,0,22.8,9.7,22.8,21.8s-10.2,21.8-22.8,21.8-22.9-9.7-22.9-21.8,10.2-21.8,22.9-21.8ZM413.2,91.8c2.5,9.5,8.1,16.2,12.4,15.1,4.3-1.1,5.8-9.8,3.3-19.3-2.5-9.5-8.1-16.2-12.5-15.1-4.3,1.1-5.7,9.8-3.2,19.3Z"/>
  <path class="st83" d="M492.2,108.1c0,1.1-.9,2-2.1,2h-14.1c-1.3,0-2.2-.9-2.2-2,0-2.2,2.2-1.4,2.2-8.6v-17.6c0-4.3-2.8-6.2-5.6-6.2s-6.6,2.4-6.6,6.2v17.6c0,7.2,2.2,6.4,2.2,8.6s-.9,2-2.2,2h-14.1c-1.2,0-2.1-.9-2.1-2,0-2.2,2.2-1.4,2.2-8.6v-15.1c0-7.2-2.2-6.4-2.2-8.6s.9-2,2.1-2c5.6,0,7.4-4.7,11.6-4.7s2.5,1.1,2.5,2.5v2.5c3.5-3.9,8.5-6.4,13.3-6.4,7.1,0,13,4.7,13,16.7v15c0,7.2,2.2,6.4,2.2,8.6Z"/>
  <path class="st83" d="M447.5,143.2c0,0,.2,0,.3,0,0,0,.1,0,.2.1,0,0,0,.2,0,.4s0,.3,0,.3c0,0-.1.1-.2.1,0,0-.2,0-.3,0h-1.8v5.2c0,.1,0,.2,0,.3,0,0,0,.2-.2.2,0,0-.2,0-.4,0s-.3,0-.4,0c0,0-.1-.1-.2-.2s0-.2,0-.3v-5.2h-1.8c0,0-.2,0-.3,0,0,0-.1,0-.2-.1,0,0,0-.2,0-.4s0-.3,0-.4c0,0,.1-.1.2-.1,0,0,.2,0,.3,0h4.8,0Z"/>
  <path class="st83" d="M451.9,150.1c-.5,0-.9,0-1.3-.3-.4-.2-.8-.4-1.1-.7-.3-.3-.5-.7-.7-1.1-.2-.4-.3-.9-.3-1.3s0-.9.3-1.4c.2-.4.4-.8.7-1.1.3-.3.6-.6,1-.8.4-.2.8-.3,1.3-.3s.9,0,1.3.3c.4.2.8.4,1.1.7.3.3.5.7.7,1.1.2.4.3.9.3,1.4s0,.9-.3,1.3c-.2.4-.4.8-.7,1.1-.3.3-.7.6-1,.8-.4.2-.8.3-1.3.3h0ZM451.8,148.9c.3,0,.6,0,.8-.2.3-.1.5-.3.7-.5.2-.2.3-.5.5-.7.1-.3.2-.6.2-.9s0-.6-.2-.9c-.1-.3-.3-.5-.5-.7s-.4-.4-.7-.5c-.3-.1-.5-.2-.8-.2s-.6,0-.8.2c-.3.1-.5.3-.7.5-.2.2-.4.5-.5.7-.1.3-.2.6-.2.9s0,.6.2.9c.1.3.3.5.5.7.2.2.4.4.7.5.3.1.5.2.8.2h0Z"/>
  <path class="st83" d="M458.8,150c-.5,0-.9,0-1.2-.3-.4-.2-.6-.4-.9-.7-.2-.3-.4-.6-.5-1-.1-.4-.2-.8-.2-1.2v-3.1c0-.1,0-.2,0-.3,0,0,0-.2.2-.2,0,0,.2,0,.4,0s.3,0,.4,0c0,0,.1.1.2.2,0,0,0,.2,0,.3v3.1c0,.4,0,.7.2,1,.1.3.3.5.5.7.2.2.6.3.9.3s.6,0,.9-.2c.2-.2.4-.4.6-.7.1-.3.2-.7.2-1.1v-3.1c0,0,0-.2,0-.3,0,0,0-.1.2-.2,0,0,.2,0,.4,0s.3,0,.4,0c0,0,.1.1.2.2,0,0,0,.2,0,.3v3.1c0,.4,0,.8-.2,1.2-.1.4-.3.7-.6,1-.2.3-.5.5-.9.7-.4.2-.8.3-1.2.3h0Z"/>
  <path class="st83" d="M463.4,150c-.2,0-.3,0-.4,0,0,0-.1-.1-.2-.2,0,0,0-.2,0-.3v-5.6c0-.1,0-.2,0-.3,0,0,0-.2.2-.2,0,0,.2,0,.4,0h2.1c.3,0,.6,0,.8.1.3,0,.5.2.7.4.2.2.4.4.5.7.1.3.2.6.2,1s0,.5-.1.7c0,.2-.2.5-.3.7s-.3.4-.6.5c-.2.1-.5.2-.8.3h-1.9v1.6c0,.1,0,.2,0,.3,0,0,0,.2-.2.2,0,0-.2,0-.4,0h0ZM464,146.6h1.6c.1,0,.2,0,.3,0,.1,0,.2-.1.3-.2,0,0,.2-.2.2-.3,0-.1,0-.3,0-.5s0-.4-.1-.6c0-.2-.2-.3-.4-.4-.2,0-.4-.1-.6-.1h-1.5v2.2h0ZM467.5,149.8c-.2.1-.3.2-.5.2-.1,0-.2-.1-.4-.3l-1.6-2.5,1.3-.2,1.3,2c0,.1.1.2.2.3,0,0,0,.2,0,.3,0,0-.1.2-.3.3h0Z"/>
  <path class="st83" d="M471.5,149.9c-.2,0-.3,0-.4-.2-.1-.1-.2-.3-.2-.4s0-.2,0-.3c0,0,0-.2,0-.3,0,0,.1-.2.2-.3.3-.2.6-.5.9-.7.3-.2.6-.4.9-.6.3-.2.5-.4.8-.6.2-.2.4-.4.5-.6.1-.2.2-.4.2-.7s0-.4-.1-.5-.2-.3-.4-.4c-.2,0-.4-.1-.7-.1s-.4,0-.5,0c-.2,0-.3.1-.4.2-.1.1-.2.2-.2.4,0,.2,0,.3,0,.5s0,.2,0,.3c0,0,0,.2-.2.2,0,0-.2,0-.4,0s-.3,0-.4,0c0,0-.1-.1-.1-.2,0,0,0-.2,0-.3,0-.3,0-.6.2-.9.1-.3.3-.5.5-.8.2-.2.5-.4.8-.5.3-.1.6-.2,1-.2s.9,0,1.2.3c.4.2.6.5.8.8.2.4.3.8.3,1.3s0,.5-.1.7c0,.2-.2.4-.3.6-.1.2-.3.4-.5.5-.2.2-.4.3-.6.5-.2.1-.4.3-.6.4-.2.1-.4.2-.6.4l-.4.2h2.8c.1,0,.2,0,.3,0,0,0,.2,0,.2.2,0,0,0,.2,0,.4s0,.3,0,.4c0,0-.1.1-.2.2,0,0-.2,0-.3,0h-3.9,0Z"/>
  <path class="st83" d="M479.1,150.1c-.4,0-.7,0-1-.2-.3-.1-.5-.3-.7-.5-.2-.2-.4-.5-.5-.8-.1-.3-.2-.6-.3-.9s0-.7,0-1,0-.7,0-1c0-.3.1-.7.3-.9.1-.3.3-.6.5-.8.2-.2.4-.4.7-.5.3-.1.6-.2,1-.2s.7,0,1,.2c.3.1.5.3.7.5.2.2.3.5.5.8.1.3.2.6.3.9,0,.3,0,.7,0,1s0,.7,0,1c0,.3-.1.7-.3.9-.1.3-.3.6-.5.8-.2.2-.4.4-.7.5-.3.1-.6.2-1,.2h0ZM479.1,148.9c.3,0,.5,0,.6-.2.2-.1.3-.3.4-.4,0-.2.2-.4.2-.6,0-.2,0-.4,0-.6,0-.2,0-.3,0-.5h0c0-.5,0-1-.1-1.3,0-.3-.2-.6-.4-.8-.2-.2-.4-.3-.7-.3s-.5,0-.7.3c-.2.2-.3.4-.4.8,0,.3-.1.8-.1,1.3s0,.9.1,1.2c0,.3.2.6.4.8.2.2.4.3.7.3h0Z"/>
  <path class="st83" d="M482.8,149.9c-.2,0-.3,0-.4-.2-.1-.1-.2-.3-.2-.4s0-.2,0-.3c0,0,0-.2,0-.3,0,0,.1-.2.2-.3.3-.2.6-.5.9-.7s.6-.4.9-.6c.3-.2.5-.4.8-.6.2-.2.4-.4.5-.6.1-.2.2-.4.2-.7s0-.4-.1-.5-.2-.3-.4-.4c-.2,0-.4-.1-.7-.1s-.4,0-.5,0c-.2,0-.3.1-.4.2-.1.1-.2.2-.2.4,0,.2,0,.3,0,.5s0,.2,0,.3c0,0,0,.2-.2.2,0,0-.2,0-.4,0s-.3,0-.4,0c0,0-.1-.1-.1-.2,0,0,0-.2,0-.3,0-.3,0-.6.2-.9.1-.3.3-.5.5-.8.2-.2.5-.4.8-.5.3-.1.6-.2,1-.2s.9,0,1.2.3c.4.2.6.5.8.8s.3.8.3,1.3,0,.5-.1.7c0,.2-.2.4-.3.6-.1.2-.3.4-.5.5-.2.2-.4.3-.6.5-.2.1-.4.3-.6.4-.2.1-.4.2-.6.4l-.4.2h2.8c.1,0,.2,0,.3,0,0,0,.2,0,.2.2,0,0,0,.2,0,.4s0,.3,0,.4c0,0-.1.1-.2.2,0,0-.2,0-.3,0h-3.9,0Z"/>
  <path class="st83" d="M490,150.1c-.3,0-.5,0-.7,0-.2,0-.4-.1-.5-.2-.2,0-.3-.1-.4-.2-.1,0-.2-.1-.3-.2,0,0-.1-.1-.2-.2,0,0,0-.1,0-.2s0-.1,0-.2c0,0,0-.1.2-.2,0,0,.1-.2.2-.2,0,0,.1,0,.2,0s.1,0,.2,0c0,0,.2,0,.3.2,0,0,.1,0,.2.1,0,0,.2,0,.3.1.1,0,.3,0,.5,0s.4,0,.6-.1c.2,0,.3-.2.4-.4,0-.2.1-.3.1-.6s0-.4-.1-.5c0-.2-.2-.3-.4-.4-.2,0-.3-.1-.5-.1s-.2,0-.3,0c0,0-.2,0-.2,0s-.1,0-.2.1c0,0-.1,0-.2.1,0,0-.1,0-.2,0,0,0-.2,0-.2,0,0,0-.2,0-.3-.1-.1,0-.3-.1-.3-.2,0,0,0-.1,0-.2l.4-2.9c0,0,0-.2,0-.3,0,0,0-.2.2-.2,0,0,.2-.1.4,0h2.4c.1,0,.2,0,.3,0,0,0,.2,0,.2.2,0,0,0,.2,0,.4s0,.3,0,.4c0,0-.1.1-.2.2,0,0-.2,0-.3,0h-1.9l-.2,1.4c0,0,.1,0,.2-.1,0,0,.1,0,.2,0,0,0,.1,0,.2,0h0c.3,0,.6,0,.8.2.3.1.5.3.7.5.2.2.4.4.5.7.1.3.2.5.2.8,0,.4,0,.8-.3,1.2-.2.4-.5.6-.8.8-.3.2-.7.3-1.1.3h0Z"/>
  <path class="st106" d="M403.9,137.1c-.5,0-.9,0-1.2-.2s-.4-.4-.4-.6c0-.3,0-.5,0-.8v-16.1c0-.3,0-.6,0-.8,0-.3.2-.5.5-.6.2-.1.6-.2,1.2-.2s.9,0,1.1.2c.2.2.4.4.4.6,0,.2,0,.5,0,.9v5.8l7.1-6.9c.3-.3.6-.5.8-.6.2-.1.5-.1.8,0,.2,0,.5.3.8.6.5.5.7.9.7,1.2s-.2.7-.6,1.2l-7.3,6.9,7.4,6.9c.5.4.7.8.7,1.2,0,.4-.3.8-.8,1.2-.4.3-.7.5-.9.6-.3,0-.5,0-.7,0-.2-.1-.5-.3-.8-.7l-7.2-6.9v5.9c0,.3,0,.6,0,.8,0,.3-.2.5-.4.6-.2.1-.6.2-1.2.2h0Z"/>
  <path class="st106" d="M436.2,134.7c.2.4.3.7.3.9,0,.3,0,.5-.2.7-.2.2-.4.4-.8.6-.6.3-1.1.4-1.4.2-.3-.1-.6-.5-.9-1.1l-6.2-13.1-6.2,13.1c-.3.6-.6.9-.9,1.1-.3.1-.8,0-1.4-.2-.4-.2-.6-.4-.8-.6-.2-.2-.2-.4-.2-.7,0-.3.1-.6.3-1l7.7-16c.1-.3.4-.5.7-.7.3-.2.6-.3.9-.3s.4,0,.6.1c.2,0,.4.2.5.3.2.1.3.3.4.6l7.7,16.1h0ZM422,132.1l1.3-2.9h7.3l1.3,2.9h-9.9,0Z"/>
  <path class="st106" d="M439.9,137.1c-.5,0-.9,0-1.1-.2-.2-.2-.4-.4-.5-.6,0-.3-.1-.5-.1-.8v-16.2c0-.3,0-.6.1-.8,0-.2.2-.4.5-.6.2-.2.6-.2,1.2-.2s.9,0,1.2.2c.2.1.4.3.6.5l9.3,13v-12.1c0-.3,0-.6.1-.8,0-.2.2-.4.5-.6.2-.2.6-.2,1.1-.2s.9,0,1.1.2.4.4.5.6c0,.3,0,.5,0,.8v16.1c0,.3,0,.6-.1.8,0,.2-.2.5-.5.6-.3.2-.6.2-1.2.2s-.7,0-1-.1c-.2,0-.5-.2-.6-.5l-9.4-13v11.9c0,.3,0,.6,0,.8,0,.2-.2.5-.5.6-.2.2-.6.2-1.1.2h0Z"/>
  <path class="st106" d="M459.2,137.1c-.5,0-.9,0-1.1-.2-.2-.2-.4-.4-.5-.6,0-.3-.1-.5-.1-.8v-16.1c0-.3,0-.6.1-.8,0-.3.2-.5.5-.6.2-.2.6-.2,1.1-.2h5.2c1.4,0,2.6.3,3.7.7s2.1,1.1,3,2c.8.9,1.5,1.9,1.9,3.1.5,1.2.7,2.5.7,3.9s-.2,2.8-.7,4c-.5,1.2-1.1,2.3-1.9,3.1-.8.9-1.8,1.5-3,2-1.2.5-2.4.7-3.8.7h-5.2ZM460.9,133.7h3.6c1.2,0,2.2-.3,3.1-.8.9-.5,1.6-1.3,2.1-2.2.5-.9.8-2.1.8-3.3s-.2-2.4-.8-3.3c-.5-1-1.2-1.7-2.1-2.2-.9-.5-1.9-.8-3.1-.8h-3.5v12.7h0Z"/>
  <path class="st106" d="M491.3,117.8c.5.4.8.7.9,1.1,0,.3,0,.7-.4,1.2l-6.2,9.4v6c0,.3,0,.6,0,.9,0,.2-.2.5-.5.6-.2.2-.6.2-1.2.2s-.9,0-1.1-.2c-.2-.2-.4-.4-.5-.6,0-.3,0-.6,0-.9v-5.9l-6.2-9.3c-.3-.5-.4-.9-.4-1.2,0-.3.4-.7.9-1,.4-.3.7-.4,1-.5.3,0,.5,0,.7.1.2.1.4.4.6.8l5,7.9,5.1-7.9c.2-.4.4-.6.7-.7s.5-.2.7-.1c.3,0,.6.2,1,.4h0Z"/>
</svg>