<svg width="1467" height="2533" viewBox="0 0 1467 2533" fill="none" xmlns="http://www.w3.org/2000/svg">
<path d="M167.662 130.93L177.662 138.16H177.712L185.862 137.21L197.492 130.37L202.062 131.49L208.532 135.54L217.682 138.38L226.202 138.32L230.672 133.71L228.472 129.05L227.782 127.56L219.422 122.82L209.432 118.55L202.062 113.92L200.482 109.86L199.542 100.08L197.432 98.1498L184.912 98.8298L182.182 98.1498L179.862 95.4898L176.922 92.1298L174.712 86.9598L174.132 85.5298L174.082 85.0998L173.132 77.9698L172.872 69.0398L174.602 60.1898L177.132 52.5198L176.502 47.0398L176.392 47.0098L168.922 44.7598L154.832 47.7798L150.782 59.3598L149.152 73.6498L141.992 84.8098L157.672 116.01L167.662 130.93Z" fill="#2E2E2E"/>
<path d="M51.8391 475.469L49.7891 481.719L52.9991 487.959L60.1991 490.789L74.3491 492.349L79.5091 493.749L89.1791 496.369L102.389 502.249L115.589 508.119L142.199 531.769L148.879 535.159L154.089 539.179L161.029 547.639L171.129 555.419L186.599 557.379L180.809 547.059L167.609 532.039L150.829 512.989L161.769 514.889L180.389 524.099L190.959 526.299L191.019 526.319L168.919 504.999L142.629 489.759L115.059 479.279L101.859 475.889L89.0791 472.609H60.1991L51.8391 475.469Z" fill="#2E2E2E"/>
<path d="M1465.69 1810.46L1459.06 1787.58L1457.48 1777.34L1460.53 1625.16L1444.38 1570.07L1434.44 1554.34L1432.97 1540.61L1430.97 1535.5L1425.19 1529.92L1421.61 1528.42L1420.45 1530.44L1421.87 1534.5L1422.24 1535.53V1539.93L1418.24 1545.36L1415.51 1553L1413.93 1561.96L1413.4 1571.02V1571.26H1408.99H1408.88L1409.04 1561.64L1404.09 1535.53L1404.04 1535.5H1400.04L1394.84 1542.14L1389.63 1541.06L1389 1538.56L1388.37 1536.08L1395.31 1531.1L1390.58 1526.91L1388.68 1523.22L1388.52 1522.8L1387.42 1519.56L1384.26 1515.42L1380.95 1509.68L1383.74 1505.73L1388.37 1502.17L1390.89 1497.72L1390.16 1495.19L1387.1 1488.91L1387 1488.65L1386.47 1486.86L1390.16 1470.47L1390.89 1469.17L1379 1438.99L1375.43 1433.83L1360.44 1422.78L1352.81 1420.1V1420.15L1355.23 1428.95L1351.23 1433.83L1348.13 1427.71L1347.02 1423.26L1347.87 1419.54L1351.18 1415.72L1351.23 1415.69L1344.18 1403.99L1337.45 1396.29L1328.88 1388.3L1320.3 1380.31L1321.3 1373.35L1319.67 1371.38L1317.25 1368.53L1310.26 1365.05L1302.63 1362.2L1297.79 1368.82L1291.38 1371.19L1283.91 1370.14L1276.17 1366.63L1280.75 1352.26L1287.48 1345.41L1295.11 1344.75L1296.21 1344.64H1296.32L1307.05 1348.57L1315.36 1355.72L1331.25 1375.83L1337.87 1380.31L1337.93 1380.29L1352.23 1375.99L1350.65 1363.47L1341.66 1349.31L1313.78 1320.3L1312.2 1317.72L1307.1 1309.36L1302.63 1295.83H1298.21L1284.54 1298.31H1284.43L1275.17 1287.71L1271.07 1283.01L1263.5 1260.91L1265.39 1253.84L1267.28 1246.77L1268.49 1246.03L1269.7 1245.27L1271.65 1243.95L1273.18 1242.92L1276.17 1242.74L1271.44 1234.95L1266.23 1230.97L1258.24 1224.88L1253.71 1216.17L1253.56 1212.27L1253.45 1208.23L1255.71 1203.01L1257.08 1197.76L1255.24 1193.33L1253.71 1189.68V1189.63L1250.35 1192.22L1243.72 1195.38L1240.51 1198.02L1240.46 1198.07L1240.04 1195.17L1239.3 1193.88L1239.09 1193.48L1237.83 1191.95L1236.41 1189.63L1239.25 1186.41L1236.41 1180.37L1234.52 1183.35L1230.36 1186.47L1227.2 1189.63L1219.21 1171.32L1214.58 1163.67L1207.38 1155.81L1201.96 1146.81L1196.65 1123.4L1195.54 1121.4L1191.44 1113.95H1187.49L1183.71 1127.89L1172.87 1128.78H1172.82L1161.46 1120.5L1156.2 1106.91L1155.09 1104.87L1155.04 1104.85L1149.57 1103.19L1147.41 1100.65L1146.47 1096.75V1093.53V1093.47L1146.94 1091.63L1147.41 1091.84L1146.62 1085.37L1147.41 1064.81H1152.15L1161.98 1091.89L1162.93 1095.66L1169.45 1122.4V1122.32L1181.18 1106.19L1176.08 1076.66L1162.61 1031.34L1160.61 1024.6V1024.55L1159.25 1014.02L1158.41 1011.17L1153.46 993.95L1149.36 969.13L1142.42 966.02H1133.69H1133.58L1129.63 964.17L1125.32 962.13L1121.8 954.05L1121.53 952.44L1118.43 931.37L1118.69 926.67L1126.22 930.31L1134.79 947.53L1142.99 953.26L1142.68 944.52L1142.36 935.8L1132.26 902.37L1127.69 876.38L1122.32 867.5L1115.17 859.89L1107.33 855.4L1107.28 855.35L1100.13 854.85L1093.39 856.91L1076.41 864.65L1083.03 879.86L1072.99 886.2L1043.27 886.78L1029.07 882.72L1018.97 872.92L1010.6 861.16L1001.35 851.36L987.88 862.43L977.89 863.96L974.94 858.1L983.31 846.89L994.09 842.35L1005.4 844.94L1016.6 851.83L1023.65 857.3L1027.44 860.18L1032.22 850.17L1029.7 843.59L1025.12 837.44L1023.39 828.77L1028.49 817.59L1035.64 818.81L1039.95 827.18L1036.64 837.65H1036.69L1052.74 835.06L1050.68 819.26L1036.69 788.92L1036.64 788.87L1034.22 790.17L1033.01 790.83L1028.17 792.07L1023.49 793.26L1023.39 793.31L1029.54 786.2L1036.27 783.11L1041.01 778.41L1041.06 766.7L1035.06 757L1017.07 737.44L1018.97 731.2L1012.71 727.79L1012.66 727.77L1009.13 726.97L1007.03 729.41L1005.4 735.64L996.3 701.68L988.35 684.79L972.47 677.59L972.42 677.57L968.68 673.63L965.16 669.95L951.27 636.4L941.81 628.79L929.97 625.35L921.5 616.57L900.78 581.1L877.42 552.99L877.32 552.93L873.01 563.65L866.38 575.23L857.44 583.56L846.5 584.41L836.35 576.45L836.29 576.42L842.39 569.2L849.29 562.83L849.34 562.77L841.66 557.38L841.48 547.17L841.45 545L818.09 523.2L815.46 519.55L810.73 512.99L821.04 517.7L838.77 522.25L846.5 526.32L853.6 537.7L855.33 539.6L861.33 537.46L864.33 532.88L864.38 528.33L862.91 527.09L861.96 526.32L849.5 518.23L837.24 499.55L828.09 478.73L827.72 477.11L824.41 464.2V464.15L821.46 466.21L819.25 467.27L817.31 468.88L815.15 472.61H810.84H810.73L809.36 458.54L809.26 457.74L799.9 451.87L789.38 450.15L784.33 447.79L787.95 438.53L796.53 438.69L810.2 443.74L815.15 445.54L790.59 396.63L784.33 384.22L777.49 364.05L773.28 361.21L764.34 363.3L762.71 368.78L765.86 376.14L771.07 384.22L771.02 384.19L757.92 377.02L724.36 345.83L723.52 344.19L721 339L726.1 337.46L737.78 339.37L737.83 339.42L741.56 341.33L748.35 350.07L748.45 350.09L748.98 350.33L753.4 352.32L753.45 352.29L761.29 348.19L752.45 336.78L738.56 323.75L731.31 314.75L726.78 307.17L726.1 306.01L649.56 244.13L547.63 161.7L522.39 147.31L509.92 138.16L425.29 38.92L419.34 30.02L413.4 8.7L404.46 2.41L391.57 0L364.8 1.33L351.34 3.58L346.92 4.32L333.35 10.21L334.61 20.1L344.39 27.1L381.47 35.88L405.14 48.55L451.69 102.17L508.5 148.58L531.96 160.42V165.25L530.48 164.61L483.88 143.15L463.79 130.53L432.85 96.93L406.77 68.62L388.68 48.95L386.52 47.7L381.53 44.78L381.47 44.76L379.27 45.08L376.11 45.53L374.01 46.16L368.54 47.83L361.59 48.07L358.7 42.34L355.44 40.59L339.97 36.62L334.61 35.85L329.09 34.05L327.19 29.3L327.82 15.64L324.04 6.95L314.41 5.83L288.06 8.78L237.57 4.32H237.51L226.05 9.41L200.59 32.93L186.6 39.93L190.86 47.43L197.49 56.08L200.01 59.36L204.27 66.6L206.79 75.08L208.06 82.59L210.74 88.87L217.84 93.72L218.63 89.11L223.84 91.2L229.41 94.81L230.89 95.71L245.61 100.9L270.39 120.36L301.47 137.61L316.94 144.05L332.61 147.07L325.56 139.12L312.83 128.15L305.79 120.41L305.73 120.36L319.62 126.29L343.76 147.31L356.17 153.75L360.49 157.35L365.22 159.89L370.11 158.41L374.22 150.09L370.11 143.65L363.17 138.38L358.7 133.71L357.17 117.86L365.22 117.97L377.21 124.89L410.45 139.41L417.51 142.51H417.56L437.28 155.26L483.25 195L489.25 196.75L510.24 196.19L513.65 196.78L522.23 203.11L524.75 201.81L526.17 199.45L526.91 198.34L531.96 196.41L539.95 195.98L545.27 195.72L549.68 196.41L554.1 199L565.78 207.85L567.73 208.78L569.72 209.7L583.19 212.62L598.34 219.61L642.31 249.7H642.2L611.54 243.82L570.88 225.55L536.43 216.06L520.7 214.55L462.32 237.68L430.39 245.47L416.87 236.38L416.82 236.35L420.87 231.96L418.56 227.51L416.82 223.06L424.71 219.03L420.92 211.98L405.62 198.63L395.83 192.38L358.7 183.05L319.78 160.48L300.05 152.58L279.22 151.92L288.85 163.87L336.66 191.9L349.23 201.28L358.75 210.66L362.49 215.64L366.17 220.62L372.32 231.96L364.91 233.12L359.07 235.29L354.33 238.1L351.86 240.01L350.23 241.23L336.03 260.03L330.19 263.03L317.15 264.96L301.26 270.02L286.96 277.14L279.22 285.27L279.54 293.93L282.64 309.19L283.38 311.41L287.74 323.64L294.69 330.1L312.52 339.37L320.09 340.83L321.35 344.56L319.93 350.09V387.9L315.94 403.75L313.99 411.59L313.25 414.55L292.48 468.17L288.06 490.79L280.33 507.06L276.02 522.88L267.86 530L248.3 539.6L210.79 573.33L205.06 575.07L196.38 576.69L190.38 579.91L193.01 586.42L196.38 592.13L198.27 599.7L199.85 615.09V615.7L198.7 661.7L197.43 668.71L213 709.05L207.27 772.28L201.27 785.28L199.85 791.09L199.38 791.54L198.48 792.39L192.07 812.26L191.02 815.45L188.6 818.04L182.6 824.49L172.19 831.54L163.4 840.08L159.67 853.34V880.36L158.3 889.85L155.04 894.15L150.78 897.72L146.83 904.93L140.68 968.31L134.63 995.48L133.26 1009.05L131.53 1016.24L123.06 1027.27L120.01 1033.42L118.75 1040.68L120.01 1043.32L121.27 1044.51L122.32 1045.46L124.06 1050.08L124.43 1051.14V1051.29L124.64 1056.84L123.9 1070.3L124.43 1078.11L126.42 1082.97L129.63 1087.61L132.42 1093.16L133.26 1100.65L111.49 1141.98L113.38 1149L119.85 1153.11L125.58 1160.29L127.9 1163.14L129.79 1166.6L134.68 1175.65L137.58 1187.2L122.32 1197.94L92.34 1195.59L71.72 1180.69L84.66 1153.77L81.45 1149.98L70.14 1136.6L69.3 1123.72L68.88 1117.28L79.82 1082.52L80.4 1077.74L79.82 1062.41L80.87 1055.52L83.24 1053.7L86.24 1053.38L89.08 1051.14L95.6 1038.2L101.86 1020.57L94.23 1020.62L87.97 1018.14L83.19 1013.38L82.5 1012.09L79.82 1006.84L92.03 985.27L101.65 962.64L101.86 962.13L82.77 992.1L79.82 1000.18L76.93 1012.54L69.67 1027.24L59.62 1040.15L49 1047.12L52.31 1058.74L55.73 1097.06L53.42 1109.12L52 1106.91V1106.25L51.79 1106.06L51.63 1105.88L49 1104.69V1125.46L65.25 1198.58L75.82 1225.04L82.35 1258.56L90.03 1274.52L91.76 1282.91L106.65 1355.56L106.6 1379.44L107.54 1385.38L108.49 1391.31L113.38 1400.24L117.01 1410L116.22 1416.25L115.43 1422.47L112.22 1435.46L111.17 1446.66L106.54 1443.53L104.54 1443.82L101.86 1446.66L105.81 1455.05L133.73 1658.24L137.58 1686.18L136.26 1690.76L133.79 1695.56L132.74 1700.69L135.05 1705.35L135.47 1706.25L139.26 1708.78L147.78 1710.62L150.83 1712.7L154.09 1719.84L155.51 1728.5V1728.63L155.67 1748.41L155.3 1748.06H155.25L153.62 1748.49L151.78 1751.09L150.83 1757.28H146.83L143.78 1752.07L137.58 1730.4L134.52 1724.73L131.05 1719.94L128.63 1713.73L128.84 1703.85L124.58 1719.89L155.51 1829.15V1829.28L155.67 1836.78L153.99 1844.15L147.57 1859.5L146.83 1861.31V1907.84L147.67 1912.68L156.46 1961.52L180.57 2023.07L211.84 2102.86L225.31 2137.26L225.73 2139.97L230.67 2173.86L229.1 2173.94H229.04L225.73 2173.57L222.57 2174.49L221.84 2178.28L223.63 2181.83L226.52 2184.35L229.31 2186.03L230.67 2187.11L233.41 2198.21L240.88 2228.52L252.77 2249.71L258.24 2279.86L263.6 2290.98L264.71 2294.23V2294.29L264.55 2299.65L264.39 2305.01V2305.06L265.65 2311.06L295.48 2373.71L301.31 2381.3L303.52 2384.16L305.15 2387L304.94 2392.47L305.73 2395.2L307.21 2396.96L307.68 2397.57L307.73 2397.59L312.05 2400.95L364.7 2456.47L376.74 2466.14L381.47 2461.33L381.58 2461.38L387.79 2464.38L390.94 2465.9L404.99 2477.12L413.03 2478.8L424.34 2481.11L451.96 2490.96L456.53 2492.56V2492.62L457.06 2492.93L459.06 2494.14L463.16 2499.95L464.21 2500.86L465.37 2501.81L468.73 2501.92L471.26 2500.13L473.63 2498.03L476.62 2496.98L481.67 2498.37L484.41 2501.39L486.57 2504.44L489.67 2505.8L493.81 2506.4L511.24 2508.9L521.02 2508.17L531.96 2501.84L534.01 2504.91L536.74 2509.01L540.22 2516.02L545.63 2521.35L556.31 2523.43L593.71 2519.02L598.23 2520.36L604.75 2522.33L616.12 2528.16L626.85 2532.28L631.37 2531.28L635.89 2530.23L651.62 2518.52L660.51 2513.47L669.14 2510.22L680.18 2508.64L680.23 2508.67L706.69 2510.22L716.6 2498.77L718.16 2496.98L743.04 2478.69L767.92 2460.38L774.02 2458.02L784.8 2453.9L802.31 2457.31L812.1 2443.6L828.4 2437.34L864.17 2430.88L896.78 2419.74L964.05 2405.37L978.1 2399.22L992.14 2390.79L999.66 2387.48L1005.34 2385.95L1008.87 2381.85L1010.13 2370.97L1012.6 2365.8L1016.5 2364.75L1017.55 2364.48L1017.65 2364.46L1022.28 2368.08L1022.33 2368.63L1023.39 2377.96H1023.44L1101.34 2350.42L1125.32 2337.49L1245.3 2243.66L1261.71 2234.91L1273.96 2231.25L1311.47 2204.78L1331.77 2184.56L1351.52 2153.46L1392.63 2088.74L1399.73 2070.06L1395.31 2054.33L1401.2 2045.18L1413.72 2025.69L1417.4 2014.64L1419.45 2006.59L1428.76 1988.57L1430.97 1976.89L1431.6 1962.89L1433.29 1952.31L1463.06 1849.65L1466.74 1823.94L1465.69 1810.46Z" fill="#2E2E2E"/>
<path d="M622.926 1788.47C618.788 1787.11 613.718 1787.17 610.458 1790.43C609.567 1791.32 608.784 1793.46 608.63 1793.55C608.361 1793.72 603.624 1793.91 602.346 1794.2C600.265 1794.66 591.409 1798.17 590.464 1799.72C589.122 1801.93 590.891 1803.95 593.154 1804.21C622.626 1803.56 651.99 1804.89 681.501 1804.1C682.93 1803.41 682.218 1800.68 681.803 1799.44C680.794 1796.41 678.138 1794.94 675.186 1794.19C674.177 1793.93 672.651 1794.22 671.989 1793.82C671.518 1793.54 671.143 1791.88 670.672 1791.18C667.747 1786.88 665.017 1786.02 659.747 1786.47C659.647 1783.92 657.978 1781.26 656.37 1779.36C646.079 1767.18 626.365 1773.74 622.918 1788.47H622.926Z" fill="#8FD6F2"/>
<path d="M530.425 871.468C534.564 870.106 539.634 870.166 542.894 873.432C543.785 874.322 544.568 876.456 544.722 876.551C544.991 876.717 549.727 876.911 551.006 877.196C553.086 877.658 561.943 881.165 562.888 882.721C564.23 884.925 562.461 886.949 560.198 887.206C530.726 886.565 501.361 887.894 471.85 887.102C470.422 886.407 471.134 883.679 471.549 882.444C472.558 879.412 475.214 877.94 478.165 877.187C479.175 876.931 480.701 877.215 481.363 876.823C481.833 876.542 482.209 874.877 482.679 874.183C485.605 869.877 488.334 869.018 493.605 869.473C493.704 866.919 495.374 864.26 496.981 862.361C507.273 850.181 526.986 856.744 530.434 871.468H530.425Z" fill="#8FD6F2"/>
<path d="M1360.28 1377.63L1359.96 1384.35L1362.07 1390.7L1365.17 1397.19L1367.7 1402.46L1368.8 1409.26L1390.42 1440.89L1393.1 1446.66L1400.2 1452.67L1402.09 1466.75L1399.41 1507.52L1399.31 1508.86L1399.78 1512.05L1400.2 1515.27L1401.52 1516.61L1404.3 1519.53L1413.4 1526.68L1422.98 1518.8L1423.4 1505.88V1505.83L1412.46 1449.35L1405.2 1437.89L1389.47 1413L1383.48 1396.92L1382.05 1393.18L1376.22 1384.53L1368.27 1365.84L1359.96 1357.77V1357.85L1363.12 1365.37L1362.28 1371.67L1360.28 1377.63Z" fill="#2E2E2E"/>
<path d="M1181.77 1881.37C1186.12 1878.83 1190.9 1879.41 1194.83 1882.37C1195.57 1882.93 1196.29 1884.25 1196.77 1884.41C1199.46 1885.27 1201.7 1884.05 1205.38 1886.34C1206.37 1886.96 1208.04 1888.06 1206.12 1888.36C1201.1 1889.14 1196.23 1888.33 1191.43 1888.39C1178.26 1888.55 1163.91 1889.41 1150.85 1888.76C1149.74 1888.7 1145.93 1888.47 1145.22 1888.28C1142.31 1887.47 1145.33 1883.94 1146.84 1882.99C1149.92 1881.06 1153.38 1881.01 1156.78 1882.14C1160.71 1871.37 1176.79 1871.46 1181.77 1881.37Z" fill="#4FCDFB"/>
<path d="M795.137 812.726C791.206 810.76 785.87 810.602 783 814.318C783.831 815.066 788.273 815.58 788.637 816.011C788.918 816.341 788.784 817.99 789.225 818.903C791.641 823.843 798.396 823.076 802.346 824.28C804.001 824.788 805.017 827.692 806.992 827.971C809.331 828.301 813.153 825.72 814.221 823.748C817.895 816.943 807.427 821.11 806.634 820.342C806.161 813.538 807.51 807.082 810.475 800.988C810.622 800.461 808.993 800.937 809.197 800.373C809.67 799.041 811.498 796.263 811.747 794.652L809.836 794.342C810.418 792.122 811.632 790.492 811.108 788C803.867 794.811 795.105 801.837 795.13 812.732L795.137 812.726Z" fill="#1C7BE4"/>
<path d="M1423.24 1332.19L1410.57 1339.79C1408.12 1341.44 1398.47 1348.74 1397.6 1350.82C1396.76 1352.83 1404.03 1352.15 1404.21 1354.52C1397.97 1354.61 1393.56 1359.39 1387.27 1359.55C1382.6 1359.67 1378.29 1357.5 1373.61 1357.83C1375.57 1355.28 1379.59 1353.66 1382.71 1353.7C1379.02 1344.53 1371.59 1337.48 1364.09 1331.38L1349.63 1323.1C1365.8 1322.13 1382.72 1327.86 1391.43 1342.12C1394.48 1340.27 1397.13 1337.78 1400.36 1336.18C1401.96 1335.39 1410.12 1332.19 1411.26 1332.19H1423.26H1423.24Z" fill="#3AB7F1"/>
<path d="M1312.77 1413.37C1321.44 1409.25 1329.57 1405.88 1339.23 1409.24L1330.15 1412.14C1326.19 1413.93 1322.12 1416.12 1318.93 1419.12C1311.07 1426.5 1315.01 1428.84 1302.84 1423.69C1301.83 1423.26 1299.66 1423.4 1299.53 1423.29C1297.35 1421.49 1305.11 1420.26 1305.33 1419.97C1303.38 1413.98 1299.58 1408.96 1296.58 1403.49L1283 1388.54C1295.69 1392.45 1309.62 1399.24 1312.78 1413.36L1312.77 1413.37Z" fill="#3AB7F1"/>
<g clip-path="url(#clip0_539_2)">
<path d="M381.418 2283.17L362.466 2255.4L364.665 2251.15C360.307 2250.38 359.626 2249.02 362.623 2247.06C358.242 2245.57 356.193 2241.48 356.49 2234.8C354.343 2235.79 352.981 2233.74 352.399 2228.67C346.301 2229.74 339.557 2221.15 344.224 2216.4C338.772 2217.58 338.533 2216.45 342.182 2212.31C338.894 2211.73 337.212 2210.68 337.87 2207.53L343.596 2182.54C339.354 2175.17 334.262 2168.35 328.315 2162.08L329.915 2157.12C328.094 2156.55 328.123 2155.87 329.915 2155.08L324.324 2152.84C318.895 2116.26 306.372 2083.79 286.17 2051.85L286.984 2044.7C279.757 2043.31 277.715 2040.59 280.851 2036.52C273.892 2036.59 275.015 2028.29 276.76 2024.26C274.992 2023.58 274.992 2022.89 276.76 2022.22L271.931 2020.59L264 2007" stroke="#DEFFE0" stroke-width="8" stroke-linecap="round" stroke-linejoin="round"/>
<path d="M237 1637.5C241 1630 253.252 1613.96 258.367 1611.69C259.065 1606.23 263.243 1603.74 268.591 1605.56C267.34 1598.5 268.049 1589.2 276.766 1589.21C272.867 1581.49 288.747 1577.93 295.165 1576.94C292.087 1572.32 294.228 1570.45 299.256 1572.85C298.825 1565.68 308.036 1559.85 314.728 1560.91C316.561 1554.95 321.204 1550.33 327.873 1552.41C333.814 1547.23 332.54 1547.14 336.048 1542.19C333.017 1539.53 334 1537.2 338.091 1538.1C336.956 1530.5 342.618 1525.39 355.076 1522.78C357.799 1516.66 360.999 1514.96 364.665 1517.65C364.398 1513.73 367.557 1510.61 374.144 1508.27C378.823 1501.77 383.163 1499.45 387.155 1501.3L395.86 1487.88C404.286 1484.88 413.648 1484.57 423.953 1486.99C432.228 1489.51 437.913 1489.04 447.199 1486.91L479.552 1487.51C480.995 1482.34 483.59 1480.12 487.326 1480.86C492.074 1481.02 505.5 1483 507.5 1478M791.93 1474.73C795.951 1477.32 798.808 1481.34 800.495 1486.8C805.086 1487.21 807 1489.32 806.238 1493.13C810.556 1492.32 811.784 1493.6 813.029 1497.33C819.354 1494.16 826.43 1494.34 831.399 1499.67C851.445 1490.07 851.84 1501.54 851.782 1518.01C853.47 1517.82 854.639 1519.07 855.297 1521.74C856.472 1520.16 857.153 1520.84 857.339 1523.79C860.173 1520.7 862.215 1521.38 863.472 1525.83C866.16 1525.89 869.14 1527.78 872.422 1531.53C875.884 1529.67 876.07 1532.16 875.738 1536.05C881.848 1537.6 886.119 1546.38 885.962 1552.4C893.125 1542.42 898.152 1540.08 910.488 1542.74L914.579 1540.14C911.896 1537.39 913.089 1536.26 916.621 1538.1C914.079 1532.92 920.398 1528.52 924.797 1531.96C921.585 1514.86 946.239 1510.95 951.371 1523.79C951.447 1521.23 952.809 1520.55 955.462 1521.74C956.288 1516.95 958.197 1515.91 959.681 1520.63C964.656 1518.56 969.381 1516.88 973.861 1515.61C972.5 1507.86 990.358 1503.98 992.26 1511.52C1013.89 1511 1004.56 1514.5 1013.24 1523.25C1016.19 1526.22 1026.13 1527.9 1030.16 1531.88C1032.37 1534.06 1038.94 1554.42 1039.28 1557.71C1040.37 1568.37 1037 1565.22 1037 1578M1050 1776C1045.5 1790 1065.21 1798.79 1063.27 1810.76C1069.65 1808.96 1075.81 1809.9 1080.64 1814.71C1082.36 1816.43 1086.4 1841.48 1085.9 1843.89C1085.02 1848.18 1076.45 1863.38 1072 1865.16C1076.78 1868.94 1078.15 1874.39 1076.09 1881.51L1080.97 1886.35C1083.91 1918.16 1089.36 1947.12 1106.57 1973.93C1108.97 1983.18 1104.84 2025.77 1094.54 2030.79C1096.97 2033.67 1098.09 2036.02 1094.49 2038.92C1095.5 2048.78 1094.4 2054.96 1096.53 2065.49L1097.57 2077.33C1100.93 2077.55 1100.36 2078.62 1095.87 2080.52L1096.53 2100.25C1102.36 2100.07 1104.71 2108.86 1100.62 2112.51C1104.53 2112.82 1107.73 2115.25 1110.22 2119.81C1120.46 2123.6 1123.7 2128.24 1125.56 2138.84C1130.7 2141.89 1132.61 2145.38 1131.29 2149.31C1134.87 2150.08 1136.71 2151.01 1133.33 2153.4C1135.45 2158.17 1134.2 2159.1 1129.24 2157.49C1127.44 2165.01 1124.71 2167.05 1121.07 2163.63L1118.64 2169.79C1100.36 2179.66 1083.76 2192.06 1068.82 2206.98C1062.58 2211.3 1049.59 2219.43 1043.38 2214.73C1043.29 2220.71 1041 2221.33 1037.25 2216.77C1034.43 2226.73 1013.64 2231.62 1003.19 2230.56C982.397 2219.91 967.746 2233.42 954.228 2248.45L949.352 2247.43C946.495 2258.38 935.957 2268.37 924.82 2269.92C915.673 2281.12 905.356 2291.21 893.87 2300.18L888.022 2300.58C891.752 2304.8 889.93 2309.66 883.931 2308.76C885.578 2311.62 884.769 2312.66 881.889 2310.8C881.231 2319.47 877.146 2324.23 869.623 2325.11" stroke="#DEFFE0" stroke-width="8" stroke-linecap="round" stroke-linejoin="round"/>
<path d="M381.418 2283.17L362.466 2255.4L364.665 2251.15C360.307 2250.38 359.626 2249.02 362.623 2247.06C358.242 2245.57 356.193 2241.48 356.49 2234.8C354.343 2235.79 352.981 2233.74 352.399 2228.67C346.301 2229.74 339.557 2221.15 344.224 2216.4C338.772 2217.58 338.533 2216.45 342.182 2212.31C338.894 2211.73 337.212 2210.68 337.87 2207.53L343.596 2182.54C339.354 2175.17 334.262 2168.35 328.315 2162.08L329.915 2157.12C328.094 2156.55 328.123 2155.87 329.915 2155.08L324.324 2152.84C318.895 2116.26 306.372 2083.79 286.17 2051.85L286.984 2044.7C279.757 2043.31 277.715 2040.59 280.851 2036.52C273.892 2036.59 275.015 2028.29 276.76 2024.26C274.992 2023.58 274.992 2022.89 276.76 2022.22L271.931 2020.59L264 2007" stroke="#2E2E2E" stroke-linecap="round" stroke-linejoin="round" stroke-dasharray="5 5"/>
<path d="M237 1637.5C241 1630 253.252 1613.96 258.367 1611.69C259.065 1606.23 263.243 1603.74 268.591 1605.56C267.34 1598.5 268.049 1589.2 276.766 1589.21C272.867 1581.49 288.747 1577.93 295.165 1576.94C292.087 1572.32 294.228 1570.45 299.256 1572.85C298.825 1565.68 308.036 1559.85 314.728 1560.91C316.561 1554.95 321.204 1550.33 327.873 1552.41C333.814 1547.23 332.54 1547.14 336.048 1542.19C333.017 1539.53 334 1537.2 338.091 1538.1C336.956 1530.5 342.618 1525.39 355.076 1522.78C357.799 1516.66 360.999 1514.96 364.665 1517.65C364.398 1513.73 367.557 1510.61 374.144 1508.27C378.823 1501.77 383.163 1499.45 387.155 1501.3L395.86 1487.88C404.286 1484.88 413.648 1484.57 423.953 1486.99C432.228 1489.51 437.913 1489.04 447.199 1486.91L479.552 1487.51C480.995 1482.34 483.59 1480.12 487.326 1480.86C492.074 1481.02 505.5 1483 507.5 1478M791.93 1474.73C795.951 1477.32 798.808 1481.34 800.495 1486.8C805.086 1487.21 807 1489.32 806.238 1493.13C810.556 1492.32 811.784 1493.6 813.029 1497.33C819.354 1494.16 826.43 1494.34 831.399 1499.67C851.445 1490.07 851.84 1501.54 851.782 1518.01C853.47 1517.82 854.639 1519.07 855.297 1521.74C856.472 1520.16 857.153 1520.84 857.339 1523.79C860.173 1520.7 862.215 1521.38 863.472 1525.83C866.16 1525.89 869.14 1527.78 872.422 1531.53C875.884 1529.67 876.07 1532.16 875.738 1536.05C881.848 1537.6 886.119 1546.38 885.962 1552.4C893.125 1542.42 898.152 1540.08 910.488 1542.74L914.579 1540.14C911.896 1537.39 913.089 1536.26 916.621 1538.1C914.079 1532.92 920.398 1528.52 924.797 1531.96C921.585 1514.86 946.239 1510.95 951.371 1523.79C951.447 1521.23 952.809 1520.55 955.462 1521.74C956.288 1516.95 958.197 1515.91 959.681 1520.63C964.656 1518.56 969.381 1516.88 973.861 1515.61C972.5 1507.86 990.358 1503.98 992.26 1511.52C1013.89 1511 1004.56 1514.5 1013.24 1523.25C1016.19 1526.22 1026.13 1527.9 1030.16 1531.88C1032.37 1534.06 1038.94 1554.42 1039.28 1557.71C1040.37 1568.37 1037 1565.22 1037 1578M1050 1776C1045.5 1790 1065.21 1798.79 1063.27 1810.76C1069.65 1808.96 1075.81 1809.9 1080.64 1814.71C1082.36 1816.43 1086.4 1841.48 1085.9 1843.89C1085.02 1848.18 1076.45 1863.38 1072 1865.16C1076.78 1868.94 1078.15 1874.39 1076.09 1881.51L1080.97 1886.35C1083.91 1918.16 1089.36 1947.12 1106.57 1973.93C1108.97 1983.18 1104.84 2025.77 1094.54 2030.79C1096.97 2033.67 1098.09 2036.02 1094.49 2038.92C1095.5 2048.78 1094.4 2054.96 1096.53 2065.49L1097.57 2077.33C1100.93 2077.55 1100.36 2078.62 1095.87 2080.52L1096.53 2100.25C1102.36 2100.07 1104.71 2108.86 1100.62 2112.51C1104.53 2112.82 1107.73 2115.25 1110.22 2119.81C1120.46 2123.6 1123.7 2128.24 1125.56 2138.84C1130.7 2141.89 1132.61 2145.38 1131.29 2149.31C1134.87 2150.08 1136.71 2151.01 1133.33 2153.4C1135.45 2158.17 1134.2 2159.1 1129.24 2157.49C1127.44 2165.01 1124.71 2167.05 1121.07 2163.63L1118.64 2169.79C1100.36 2179.66 1083.76 2192.06 1068.82 2206.98C1062.58 2211.3 1049.59 2219.43 1043.38 2214.73C1043.29 2220.71 1041 2221.33 1037.25 2216.77C1034.43 2226.73 1013.64 2231.62 1003.19 2230.56C982.397 2219.91 967.746 2233.42 954.228 2248.45L949.352 2247.43C946.495 2258.38 935.957 2268.37 924.82 2269.92C915.673 2281.12 905.356 2291.21 893.87 2300.18L888.022 2300.58C891.752 2304.8 889.93 2309.66 883.931 2308.76C885.578 2311.62 884.769 2312.66 881.889 2310.8C881.231 2319.47 877.146 2324.23 869.623 2325.11" stroke="#2E2E2E" stroke-linecap="round" stroke-linejoin="round" stroke-dasharray="5 5"/>
</g>
<path d="M405.572 2139.16C406.079 2139.46 409.278 2138.54 410.239 2138.48C413.506 2138.24 418.563 2138.84 421.368 2140.58C423.193 2141.72 424.332 2142.58 422.148 2144.32L345.494 2144.53C341.273 2144.04 343.328 2139.01 344.998 2136.83C347 2134.23 350.865 2132.2 354.015 2131.47C355.241 2131.18 359.379 2130.97 359.621 2130.83C359.734 2130.76 360.579 2129.13 361.018 2128.63C370.595 2117.83 383.583 2123.93 388.655 2135.44C392.27 2132.32 398.641 2133.16 402.369 2135.74C403.505 2136.52 405.368 2139.04 405.572 2139.16V2139.16Z" fill="#7DCDFF"/>
<path d="M927.137 2111.99C933.319 2108.78 945.049 2114.73 945.026 2121.82C945.022 2124 944.01 2125.22 941.903 2125.6C932 2127.36 918.383 2124.13 908.15 2126.18C895.307 2125.26 880.93 2127.34 868.275 2126.18C862.671 2125.67 865.399 2121.58 868.064 2119.07C872.917 2114.5 882.734 2111.01 889.359 2111.03C891.058 2111.04 897.102 2112.77 897.848 2112.24C902.482 2097.51 924.349 2094.5 927.137 2111.99V2111.99Z" fill="#7DCDFF"/>
<path d="M1300.89 2265.99C1294.7 2262.78 1282.97 2268.73 1283 2275.82C1283 2278 1284.01 2279.22 1286.12 2279.6C1296.02 2281.36 1309.64 2278.13 1319.87 2280.18C1332.72 2279.26 1347.09 2281.34 1359.75 2280.18C1365.35 2279.67 1362.62 2275.58 1359.96 2273.07C1355.11 2268.5 1345.29 2265.01 1338.66 2265.03C1336.97 2265.04 1330.92 2266.77 1330.18 2266.24C1325.54 2251.51 1303.67 2248.5 1300.89 2265.99V2265.99Z" fill="#7DCDFF"/>
<path d="M1073.43 1379.38C1073.66 1379.52 1077.82 1379.09 1078.79 1379.16C1082.18 1379.4 1087.24 1381.43 1089.35 1384.23C1089.85 1384.89 1090.56 1385.7 1089.35 1385.93L1015.16 1385.94C1012.42 1385.25 1015.24 1382.71 1016.45 1381.85C1019.2 1379.92 1023.4 1378.64 1026.71 1379.44C1027.28 1374.44 1031.87 1370.32 1036.24 1368.39C1043.48 1365.18 1052.29 1367.64 1056.31 1374.64C1061.78 1371.75 1068.7 1373.38 1072.66 1378.05C1072.91 1378.36 1073.34 1379.33 1073.43 1379.38H1073.43Z" fill="#76D4F9"/>
<path d="M1047.35 1477.83C1047.03 1478.2 1046.2 1478.41 1046.06 1479.05C1046.98 1479.3 1047.96 1479.26 1048.89 1479.41C1049.18 1479.46 1050 1479.48 1049.94 1479.89C1047.49 1480.92 1044.84 1482.16 1042.09 1481.53C1040.96 1481.27 1040.16 1479.41 1038.56 1479.61C1039.99 1478.13 1037.19 1476.69 1036.31 1475.54L1033 1473.69C1035.4 1472.82 1038.45 1474.17 1040.42 1475.6C1041.26 1476.2 1042.59 1478.01 1043.4 1477.94C1044.13 1477.87 1045.49 1475.48 1046.18 1474.81C1047.57 1473.45 1049.48 1472.54 1051.33 1472C1051.41 1472.47 1051.11 1472.76 1050.89 1473.11C1050.11 1474.31 1048.28 1476.74 1047.35 1477.83L1047.35 1477.83Z" fill="#DF4A18"/>
<path d="M1097.89 1471.9L1100.67 1472.18C1100.75 1472.24 1100.53 1472.53 1100.39 1472.61C1099.64 1473.03 1094.96 1474.29 1094.16 1474.15C1093.83 1474.09 1092.66 1473.4 1092.34 1473.16C1091.84 1472.78 1091.17 1471.8 1090.46 1471.35C1089.87 1470.98 1087.21 1470.1 1087.34 1469.51C1089.3 1467.12 1091.72 1469.16 1093.7 1470.19C1094.8 1466.54 1097.45 1464.89 1100.94 1464C1101.27 1464.4 1097.34 1470.47 1097.89 1471.89V1471.9Z" fill="#DD4918"/>
<path d="M1071.61 1486.95C1071.21 1487.8 1067.12 1490.59 1067.72 1491.46C1067.81 1491.59 1068.87 1491.49 1068.83 1492.02C1067.46 1491.99 1066.41 1493.18 1065.08 1493.18C1062.97 1493.18 1062.8 1491.21 1060.78 1491.18C1060.72 1490.59 1062.18 1490.9 1061.89 1490.2C1061.38 1488.97 1058.81 1488.01 1058 1486.95C1061.1 1486.57 1063.19 1488.04 1065.08 1490.33C1066.72 1488.29 1069.09 1487.3 1071.61 1486.95V1486.95Z" fill="#DF4A19"/>
<path d="M284.363 231.424C285.513 232.732 288.491 233.462 289.022 235.708C285.695 236.608 282.176 236.438 278.804 236.982C277.767 237.153 274.829 237.24 275.04 238.665C283.852 242.293 293.401 246.606 303.304 244.398C307.363 243.499 310.253 236.973 316.008 237.673C310.842 232.494 320.907 227.437 324.077 223.415L336 216.933C327.355 213.869 316.371 218.625 309.294 223.619C306.292 225.739 301.495 232.076 298.576 231.818C295.946 231.585 291.061 223.196 288.58 220.843C283.572 216.087 276.686 212.882 270.052 211C269.752 212.634 270.818 213.66 271.619 214.876C274.435 219.102 281.016 227.626 284.373 231.444L284.363 231.424Z" fill="#DF4A18"/>
<path d="M394 285.165C395.168 287.595 407.201 295.587 405.431 298.069C405.17 298.43 402.051 298.148 402.172 299.681C406.205 299.593 409.284 303 413.185 303C419.406 303 419.904 297.35 425.828 297.259C426.017 295.571 421.73 296.461 422.581 294.459C424.066 290.938 431.608 288.198 434 285.173C424.885 284.081 418.744 288.273 413.185 294.837C408.369 289 401.413 286.149 394 285.173V285.165Z" fill="#DF4A19"/>
<path d="M902.644 1098.41C902.274 1098.31 901.938 1097.6 901.938 1097.19C901.935 1095.75 905.682 1094.27 906.908 1093.99C907.696 1093.81 909.183 1093.9 909.571 1093.67C909.85 1093.5 910.845 1091.37 911.325 1090.8C913.481 1088.27 917.108 1087.51 920.301 1087.81C921.705 1087.95 922.049 1088.41 923.137 1088.91C927.652 1078.94 940.571 1082.66 942.688 1092.17C945.257 1090.96 948.686 1090.84 950.962 1092.72C951.456 1093.13 952.403 1094.49 952.642 1094.57C953.554 1094.88 955.954 1094.5 957.183 1094.64C958.414 1094.79 963.039 1096.46 963.32 1097.74C963.376 1098.01 963.013 1098.42 962.915 1098.42H902.645L902.642 1098.41H902.644Z" fill="#76D4F9"/>
<path d="M634.684 336.408C635.054 336.304 635.391 335.593 635.391 335.185C635.393 333.74 631.646 332.264 630.42 331.983C629.632 331.802 628.145 331.899 627.757 331.66C627.478 331.489 626.483 329.363 626.003 328.799C623.847 326.264 620.22 325.502 617.027 325.807C615.623 325.941 615.279 326.4 614.191 326.905C609.677 316.93 596.757 320.659 594.64 330.165C592.071 328.959 588.642 328.839 586.366 330.716C585.873 331.123 584.925 332.484 584.686 332.565C583.774 332.877 581.374 332.495 580.145 332.639C578.914 332.782 574.289 334.45 574.009 335.737C573.953 336.002 574.316 336.411 574.413 336.411H634.683L634.686 336.408H634.684Z" fill="#76D4F9"/>
<path d="M291.706 1113.41C291.336 1113.3 291 1112.59 291 1112.19C290.997 1110.74 294.744 1109.26 295.971 1108.98C296.758 1108.8 298.245 1108.9 298.634 1108.66C298.913 1108.49 299.907 1106.36 300.388 1105.8C302.544 1103.26 306.17 1102.5 309.363 1102.81C310.767 1102.94 311.112 1103.4 312.2 1103.91C316.714 1093.93 329.634 1097.66 331.751 1107.16C334.319 1105.96 337.748 1105.84 340.024 1107.72C340.518 1108.12 341.466 1109.48 341.705 1109.57C342.616 1109.88 345.016 1109.49 346.246 1109.64C347.477 1109.78 352.102 1111.45 352.382 1112.74C352.438 1113 352.075 1113.41 351.978 1113.41H291.707L291.705 1113.41H291.706Z" fill="#76D4F9"/>
<path d="M552.89 543.354C552.385 543.839 552.052 544.664 551.76 545.295C549.274 550.706 547.153 556.316 544.847 561.807L542.008 555.499L542.793 564.885L542.726 566.706C539.841 573.094 536.95 579.488 533.885 585.777C532.569 583.576 531.685 581.031 531.014 578.558C526.986 563.708 530.774 547.535 544.076 538.867L546.741 537.358C538.545 538.641 531.386 544.192 524.765 548.898C521.648 551.118 518.524 553.358 515.586 555.804C515.227 555.871 515.366 555.652 515.353 555.412C515.18 553.013 515.752 550.128 515.832 547.688L515.672 546.026C513.512 550.128 512.767 554.701 511.484 559.115C508.227 561.933 504.99 564.825 502.025 567.949C500.224 569.85 498.635 571.977 496.747 573.785C495.843 566.433 497.073 558.257 500.078 551.49C505.914 538.355 519.594 529.049 534.211 529.933C536.484 530.073 538.685 530.718 540.898 531.13C541.064 531.163 541.417 531.336 541.377 531.044C531.187 526.304 519.959 523.745 508.726 523.153L512.986 517.164L510.161 518.833C507.662 520.069 505.369 522.914 502.497 522.841C496.229 522.681 490.007 522.735 483.732 522.848C483.493 522.848 482.901 522.974 483.014 522.608C483.2 522.017 485.228 519.657 485.773 519.052C502.397 500.466 531.014 508.523 545.558 525.52C546.781 526.949 547.778 528.611 549.101 529.94L547.18 526.424C542.48 517.563 535.82 509.925 530.296 501.663C529.837 500.978 529.432 500.24 529.073 499.496H535.853L528.042 496.977C525.583 496.445 524.785 494.298 523.316 492.556C519.115 487.571 514.303 483.144 509.357 478.916C509.357 478.697 510.986 478.557 511.325 478.524C531.838 476.29 546.914 498.166 551.268 515.715C552.099 519.059 552.491 522.05 552.89 525.453C552.916 525.686 553.016 525.938 553.202 525.686C553.242 524.662 553.156 523.625 553.202 522.602C553.535 514.445 554.572 506.17 557.51 498.512C562.375 485.829 572.532 474.635 586.651 473L584.258 476.995C581.912 481.143 579.957 485.49 578.295 489.964L570.877 494.138H576.082C573.795 498.824 570.87 503.198 568.325 507.758C564.988 513.728 561.837 519.83 558.892 526.005C562.482 521.113 565.998 515.928 570.166 511.494C584.039 496.737 605.948 496.166 618.75 512.597C618.877 512.757 619.056 512.797 618.983 513.069C613.366 511.76 607.656 513.083 602.199 514.485L591.224 510.072L597.532 515.908C590.5 517.437 583.646 519.81 577.026 522.615C572.439 524.556 567.899 526.756 563.931 529.787C565.559 529.275 567.155 528.69 568.816 528.292C587.176 523.845 604.585 531.688 611.212 549.622C612.921 554.242 613.818 559.241 613.931 564.173C613.566 564.273 613.665 564.08 613.572 563.974C610.255 560.212 606.333 556.423 602.152 553.637C601.341 553.099 599.227 552.142 598.702 551.564C598.21 551.025 597.114 548.393 596.609 547.509C595.086 544.836 593.438 542.237 591.457 539.884L592.407 543.667C592.673 545.076 593.717 547.01 593.87 548.353C593.896 548.586 594.023 548.772 593.67 548.712C588.366 544.943 582.304 542.031 576.162 539.878C570.837 538.01 565.2 536.561 559.517 536.567L564.017 537.983C578.654 542.743 591.091 562.93 584.351 577.734C584.265 577.926 584.371 578.119 584.045 578.053L574.939 566.181L571.11 551.078C570.93 550.872 570.831 550.819 570.87 551.158C571.322 554.628 571.229 558.171 571.422 561.647L556.2 541.3L555.861 541.347L554.811 539.705C554.199 540.842 553.648 542.018 553.235 543.241L552.89 543.354Z" fill="#F4A502"/>
<path d="M556.2 541.3C565.333 585.843 570.724 630.925 573.077 676.398C573.25 679.689 573.622 682.959 573.549 686.256L573.669 687.778C573.941 687.931 573.828 688.137 573.695 688.383C572.313 690.038 571.056 691.72 569.94 693.601C569.428 694.359 568.929 694.572 568.364 693.694C566.33 690.743 564.01 687.918 561.032 685.764L560.926 685.306C561.285 682.294 561.644 679.257 561.87 676.232C562.781 664.068 562.581 651.824 562.182 639.646C561.119 607.4 558.24 575.148 552.883 543.341C552.916 542.809 554.538 539.24 554.857 539.08L556.2 541.287V541.3Z" fill="#E6610D"/>
<path d="M560.933 685.31C562.595 686.434 564.716 688.521 566.058 690.043C566.544 690.595 568.817 693.925 569.056 693.985C569.295 694.045 569.315 693.839 569.422 693.726C570.146 692.954 570.804 691.578 571.429 690.688C571.861 690.063 573.237 688.654 573.463 688.149C573.656 687.736 573.536 686.779 573.543 686.261L573.776 687.836C575.358 686.154 577.325 684.632 579.492 683.775C580.144 683.515 582.344 682.791 582.922 682.791H585.84L584.106 684.127C582.278 685.882 580.496 687.916 579.692 690.355C580.609 690.395 581.54 690.309 582.457 690.355C589.776 690.668 598.523 692.675 605.556 694.776C606.427 694.676 607.324 694.869 608.255 695.361C609.358 695.64 610.249 696.132 610.92 696.83C611.691 697.182 612.489 697.481 613.234 697.907C613.446 698.026 614.018 698.279 613.991 698.565H511.864C511.784 698.139 511.957 698.286 512.183 698.179C513.871 697.348 515.998 696.537 517.78 695.879C526.82 692.556 536.505 690.748 546.097 689.883L540.579 686.261C545.193 686.161 549.806 686.301 554.299 687.364L547.672 680.584C552.119 681.049 557.198 682.804 560.92 685.317L560.933 685.31Z" fill="#3A9832"/>
<path d="M1140.89 2057.35C1140.38 2057.84 1140.05 2058.66 1139.76 2059.3C1137.27 2064.71 1135.15 2070.32 1132.85 2075.81L1130.01 2069.5L1130.79 2078.88L1130.73 2080.71C1127.84 2087.09 1124.95 2093.49 1121.89 2099.78C1120.57 2097.58 1119.69 2095.03 1119.01 2092.56C1114.99 2077.71 1118.77 2061.54 1132.08 2052.87L1134.74 2051.36C1126.55 2052.64 1119.39 2058.19 1112.77 2062.9C1109.65 2065.12 1106.52 2067.36 1103.59 2069.8C1103.23 2069.87 1103.37 2069.65 1103.35 2069.41C1103.18 2067.01 1103.75 2064.13 1103.83 2061.69L1103.67 2060.03C1101.51 2064.13 1100.77 2068.7 1099.48 2073.11C1096.23 2075.93 1092.99 2078.82 1090.03 2081.95C1088.22 2083.85 1086.64 2085.98 1084.75 2087.79C1083.84 2080.43 1085.07 2072.26 1088.08 2065.49C1093.91 2052.36 1107.59 2043.05 1122.21 2043.93C1124.48 2044.07 1126.68 2044.72 1128.9 2045.13C1129.06 2045.16 1129.42 2045.34 1129.38 2045.04C1119.19 2040.3 1107.96 2037.74 1096.73 2037.15L1100.99 2031.16L1098.16 2032.83C1095.66 2034.07 1093.37 2036.91 1090.5 2036.84C1084.23 2036.68 1078.01 2036.73 1071.73 2036.85C1071.49 2036.85 1070.9 2036.97 1071.01 2036.61C1071.2 2036.02 1073.23 2033.66 1073.77 2033.05C1090.4 2014.47 1119.01 2022.52 1133.56 2039.52C1134.78 2040.95 1135.78 2042.61 1137.1 2043.94L1135.18 2040.42C1130.48 2031.56 1123.82 2023.93 1118.3 2015.66C1117.84 2014.98 1117.43 2014.24 1117.07 2013.5H1123.85L1116.04 2010.98C1113.58 2010.44 1112.79 2008.3 1111.32 2006.56C1107.12 2001.57 1102.3 1997.14 1097.36 1992.92C1097.36 1992.7 1098.99 1992.56 1099.32 1992.52C1119.84 1990.29 1134.91 2012.17 1139.27 2029.72C1140.1 2033.06 1140.49 2036.05 1140.89 2039.45C1140.92 2039.69 1141.02 2039.94 1141.2 2039.69C1141.24 2038.66 1141.16 2037.63 1141.2 2036.6C1141.53 2028.45 1142.57 2020.17 1145.51 2012.51C1150.38 1999.83 1160.53 1988.64 1174.65 1987L1172.26 1990.99C1169.91 1995.14 1167.96 1999.49 1166.3 2003.96L1158.88 2008.14H1164.08C1161.8 2012.82 1158.87 2017.2 1156.32 2021.76C1152.99 2027.73 1149.84 2033.83 1146.89 2040C1150.48 2035.11 1154 2029.93 1158.17 2025.49C1172.04 2010.74 1193.95 2010.17 1206.75 2026.6C1206.88 2026.76 1207.06 2026.8 1206.98 2027.07C1201.37 2025.76 1195.66 2027.08 1190.2 2028.49L1179.22 2024.07L1185.53 2029.91C1178.5 2031.44 1171.65 2033.81 1165.03 2036.61C1160.44 2038.56 1155.9 2040.76 1151.93 2043.79C1153.56 2043.28 1155.15 2042.69 1156.82 2042.29C1175.18 2037.84 1192.59 2045.69 1199.21 2063.62C1200.92 2068.24 1201.82 2073.24 1201.93 2078.17C1201.57 2078.27 1201.67 2078.08 1201.57 2077.97C1198.26 2074.21 1194.33 2070.42 1190.15 2067.64C1189.34 2067.1 1187.23 2066.14 1186.7 2065.56C1186.21 2065.03 1185.11 2062.39 1184.61 2061.51C1183.09 2058.84 1181.44 2056.24 1179.46 2053.88L1180.41 2057.67C1180.67 2059.08 1181.72 2061.01 1181.87 2062.35C1181.9 2062.59 1182.02 2062.77 1181.67 2062.71C1176.37 2058.94 1170.3 2056.03 1164.16 2053.88C1158.84 2052.01 1153.2 2050.56 1147.52 2050.57L1152.02 2051.98C1166.65 2056.74 1179.09 2076.93 1172.35 2091.73C1172.26 2091.93 1172.37 2092.12 1172.05 2092.05L1162.94 2080.18L1159.11 2065.08C1158.93 2064.87 1158.83 2064.82 1158.87 2065.16C1159.32 2068.63 1159.23 2072.17 1159.42 2075.65L1144.2 2055.3L1143.86 2055.35L1142.81 2053.7C1142.2 2054.84 1141.65 2056.02 1141.24 2057.24L1140.89 2057.35Z" fill="#F4A502"/>
<path d="M1144.2 2055.3C1153.33 2099.84 1158.72 2144.92 1161.08 2190.4C1161.25 2193.69 1161.62 2196.96 1161.55 2200.26L1161.67 2201.78C1161.94 2201.93 1161.83 2202.14 1161.7 2202.38C1160.31 2204.04 1159.06 2205.72 1157.94 2207.6C1157.43 2208.36 1156.93 2208.57 1156.36 2207.69C1154.33 2204.74 1152.01 2201.92 1149.03 2199.76L1148.93 2199.31C1149.28 2196.29 1149.64 2193.26 1149.87 2190.23C1150.78 2178.07 1150.58 2165.82 1150.18 2153.65C1149.12 2121.4 1146.24 2089.15 1140.88 2057.34C1140.92 2056.81 1142.54 2053.24 1142.86 2053.08L1144.2 2055.29V2055.3Z" fill="#E6610D"/>
<path d="M1148.93 2199.31C1150.6 2200.43 1152.72 2202.52 1154.06 2204.04C1154.54 2204.59 1156.82 2207.92 1157.06 2207.98C1157.3 2208.04 1157.32 2207.84 1157.42 2207.73C1158.15 2206.95 1158.8 2205.58 1159.43 2204.69C1159.86 2204.06 1161.24 2202.65 1161.46 2202.15C1161.66 2201.74 1161.54 2200.78 1161.54 2200.26L1161.78 2201.84C1163.36 2200.15 1165.33 2198.63 1167.49 2197.77C1168.14 2197.52 1170.34 2196.79 1170.92 2196.79H1173.84L1172.11 2198.13C1170.28 2199.88 1168.5 2201.92 1167.69 2204.36C1168.61 2204.4 1169.54 2204.31 1170.46 2204.36C1177.78 2204.67 1186.52 2206.68 1193.56 2208.78C1194.43 2208.68 1195.32 2208.87 1196.25 2209.36C1197.36 2209.64 1198.25 2210.13 1198.92 2210.83C1199.69 2211.18 1200.49 2211.48 1201.23 2211.91C1201.45 2212.03 1202.02 2212.28 1201.99 2212.56H1099.86C1099.78 2212.14 1099.96 2212.29 1100.18 2212.18C1101.87 2211.35 1104 2210.54 1105.78 2209.88C1114.82 2206.56 1124.5 2204.75 1134.1 2203.88L1128.58 2200.26C1133.19 2200.16 1137.81 2200.3 1142.3 2201.36L1135.67 2194.58C1140.12 2195.05 1145.2 2196.8 1148.92 2199.32L1148.93 2199.31Z" fill="#3A9832"/>
<path d="M225.792 1259.85C227.923 1260.63 232.333 1264.02 234.226 1265.55C240.881 1270.92 245.619 1277.36 250.351 1284.4C250.923 1273.86 246.625 1258.71 235.22 1255.57L231.274 1254.8C240.958 1253.99 250.833 1255.05 260 1258.3C258.619 1246.86 244.548 1242.72 234.78 1245.69L229.083 1247.67C232.399 1243.54 235.53 1239.25 239.167 1235.38C243.185 1231.11 247.673 1227.42 252.327 1223.87C240.738 1222.07 230.738 1231.05 225.821 1240.68L223.601 1246.24C224.53 1239.11 223.679 1231.97 220.202 1225.62C217.292 1220.3 212.595 1215.4 206.494 1214L220.083 1249.3L216.47 1244.7C208.399 1235.92 195.339 1232.33 185 1239.43C196.024 1242.55 206.726 1246.85 216.804 1252.26C217.655 1252.72 218.726 1253.26 219.429 1253.91C209.911 1250.06 201.357 1253.33 196.089 1261.83C193.72 1265.64 191.607 1271.67 191.571 1276.18C191.571 1276.75 192.042 1280.47 192.238 1280.67C192.571 1281 192.625 1280.54 192.738 1280.39C195.792 1276.49 198.381 1272.56 202.423 1269.47L204.298 1262.24C204.583 1262.35 204.685 1263.42 204.708 1263.7C204.815 1264.97 204.512 1266.32 205.065 1267.51C210.131 1263.79 215.577 1260.67 221.185 1257.86C221.554 1258.11 222.06 1258 222.702 1257.54C223.458 1258.55 224.345 1259.24 225.351 1259.61C225.238 1260.19 225.315 1260.17 225.792 1259.83V1259.85Z" fill="#388E3C"/>
<path d="M221.19 1257.87L221.369 1259.02C211.833 1281.49 208.797 1306.17 208.69 1330.46C211.214 1329.3 213.47 1328.4 216.149 1327.61C215.399 1312.97 215.506 1297.99 217.494 1283.45C218.535 1275.83 220.178 1267.68 222.946 1260.51C223.25 1260.49 223.559 1260.31 223.869 1259.97C225.089 1260.29 225.583 1260.17 225.357 1259.63L222.803 1257.04C222.208 1257.2 221.768 1257.59 221.19 1257.88V1257.87Z" fill="#388E3C"/>
<path d="M222.94 1260.5L225.678 1286.6C229.583 1282.37 231.66 1277 230.774 1271.2C230.143 1267.08 228.232 1263.17 225.791 1259.85C225.643 1259.8 225.488 1259.67 225.351 1259.63C225.345 1259.63 225.399 1259.8 225.256 1259.77C224.101 1259.57 223.488 1259.08 222.94 1260.5Z" fill="#388E3C"/>
<path d="M215.892 1324.27C214.957 1324.9 213.767 1326.08 213.011 1326.93C212.737 1327.24 211.463 1329.11 211.326 1329.14C211.189 1329.18 211.178 1329.06 211.118 1328.99C210.713 1328.56 210.338 1327.79 209.993 1327.29C209.749 1326.93 208.981 1326.14 208.85 1325.86C208.743 1325.63 208.808 1325.1 208.803 1324.8L208.672 1325.69C207.785 1324.74 206.678 1323.89 205.463 1323.41C205.094 1323.27 203.862 1322.86 203.535 1322.86H201.898L202.874 1323.61C203.898 1324.59 204.904 1325.73 205.35 1327.11C204.838 1327.13 204.314 1327.08 203.797 1327.11C199.689 1327.29 194.779 1328.41 190.826 1329.59C190.338 1329.53 189.832 1329.64 189.314 1329.92C188.695 1330.08 188.195 1330.35 187.82 1330.74C187.386 1330.93 186.939 1331.11 186.523 1331.35C186.404 1331.41 186.082 1331.55 186.094 1331.71H243.422C243.469 1331.48 243.368 1331.56 243.243 1331.49C242.297 1331.02 241.1 1330.57 240.1 1330.2C235.029 1328.34 229.588 1327.32 224.207 1326.84L227.308 1324.8C224.719 1324.75 222.13 1324.83 219.606 1325.42L223.326 1321.62C220.832 1321.88 217.981 1322.86 215.892 1324.27Z" fill="#1976D2"/>
<path d="M968.79 902.695C978.763 902.077 988.709 901.221 998.594 899.712C1004.07 898.873 1009.5 897.682 1014.97 896.95C1015.26 897.232 1013.18 901.221 1012.86 901.821C1011.41 904.566 1009.69 907.293 1007.88 909.817C1005.9 912.562 1001.07 918.986 997.641 919.304H933.533C929.5 918.951 924.655 911.326 923.075 907.902C922.36 906.357 920.957 902.748 921.001 901.133C921.054 899.103 924.549 900.056 925.811 900.074C930.965 900.162 936.181 899.888 941.299 900.197C942.632 900.877 943.02 902.527 944.468 903.11C945.747 903.621 946.48 903.207 947.662 903.189C953.708 903.083 959.718 903.224 965.746 902.871L966.081 902.721L966.143 825.376C966.178 823.752 968.261 823.505 968.87 824.961C968.932 842.947 969.038 860.968 968.949 878.963C968.949 879.431 968.773 879.837 968.773 880.261C968.737 887.736 968.817 895.22 968.773 902.704L968.79 902.695Z" fill="#FEC01D"/>
<path d="M924.336 893.488L964.606 830.545L964.686 834.075C963.256 853.844 961.288 873.869 965.18 893.488H924.336Z" fill="#C62828"/>
<path d="M1008.23 892.669C1001.57 892.793 994.903 892.837 988.284 893.675C981.665 894.514 975.628 896.146 969.441 897.92C970.024 894.434 970.748 890.966 971.224 887.462C973.581 870.262 972.998 852.646 969.609 835.631C982.159 847.642 992.899 861.692 1001.08 877.04C1003.77 882.079 1006.26 887.286 1008.23 892.652V892.669Z" fill="#C62828"/>
<path d="M205.028 788.083C201.288 784.983 198.148 781.563 193.098 780.523C170.788 775.923 187.238 796.553 198.028 798.093C196.978 800.073 194.648 798.513 192.458 801.003C186.788 807.463 198.668 806.413 202.848 805.393C212.038 803.153 213.878 795.163 219.488 789.013C221.068 787.283 224.478 787.203 222.548 785.093C213.708 789.373 222.668 771.873 217.418 770.153C211.988 768.363 203.468 782.733 205.028 788.083Z" fill="#FE5001"/>
<defs>
<clipPath id="clip0_539_2">
<rect width="930" height="1011" fill="white" transform="translate(208 1430)"/>
</clipPath>
</defs>
</svg>
