<svg width="700" height="359" viewBox="0 0 700 359" fill="none" xmlns="http://www.w3.org/2000/svg">
<g clip-path="url(#clip0_2_1334)">
<path d="M361.309 83.1327C361.309 88.5622 354.109 87.3557 348.709 103.242C348.709 103.242 329.709 168.196 329.309 170.207C327.909 175.033 323.309 178.854 317.709 178.854H307.109C302.109 178.854 297.509 175.636 295.709 170.609L278.509 117.319L262.309 170.207C260.909 174.832 256.309 178.854 250.709 178.854H240.109C235.109 178.854 230.509 175.636 228.709 170.609L209.309 104.248C204.309 87.1546 196.309 88.5622 196.309 83.1327C196.309 80.5184 198.309 78.3064 201.509 78.3064H237.309C242.509 78.3064 244.509 80.5184 244.509 83.1327C244.509 88.5622 239.709 87.1546 244.909 104.248L258.309 150.298L277.509 87.1546C278.909 81.9261 283.709 78.3064 289.109 78.3064H293.509C298.909 78.3064 303.709 81.9261 305.109 86.9535L325.309 150.298L338.509 104.248C342.709 87.3557 338.709 88.5622 338.709 83.1327C338.709 80.5184 340.909 78.3064 345.709 78.3064H356.109C359.309 78.3064 361.309 80.5184 361.309 83.1327Z" fill="#2E2E2E"/>
<path d="M527.709 75.0889C521.309 75.0889 513.709 77.3009 509.709 80.5184V36.2775C509.709 32.8589 506.909 30.0436 503.509 30.0436C493.109 30.0436 488.709 41.7071 475.309 41.7071C472.109 41.7071 469.909 43.718 469.909 46.5334C469.909 51.9629 475.309 49.952 475.309 67.8494V125.966C470.349 133.869 462.979 146.045 452.169 154.431C445.109 159.911 436.589 163.772 426.319 163.772C424.099 163.772 421.999 163.53 420.029 163.078C412.419 161.349 406.649 156.482 402.519 150.097C384.719 123.352 466.709 141.651 457.509 106.661C452.909 89.1655 430.909 75.0889 408.719 75.0889C379.119 75.0889 359.319 99.0192 359.319 128.58C359.319 158.141 384.319 182.071 415.119 182.071C416.209 182.071 417.279 182.041 418.329 181.981C432.689 181.217 444.109 175.345 453.109 167.874C463.419 159.297 470.559 148.619 475.309 141.048V152.913C475.309 170.609 470.109 168.598 470.109 174.028C470.109 176.642 472.109 178.854 475.309 178.854C481.309 178.854 490.909 170.609 502.309 176.24C509.709 179.859 517.109 182.071 525.109 182.071C555.908 182.071 581.108 160.956 581.108 128.379C581.108 95.8017 556.708 75.0889 527.709 75.0889ZM395.719 135.015C389.919 115.308 394.119 84.7414 408.719 84.7414C424.319 84.7414 435.319 115.308 415.519 123.151C406.719 126.569 399.319 129.183 395.719 135.015ZM525.109 172.419C517.909 172.419 509.709 167.995 509.709 154.521V124.156C509.709 100.628 483.509 130.189 475.909 139.841C492.109 114.503 508.309 84.7414 525.109 84.7414C539.309 84.7414 545.509 103.242 545.509 128.379C545.509 153.516 538.509 172.419 525.109 172.419Z" fill="#2E2E2E"/>
<path d="M699.908 136.624C698.908 170.81 665.508 182.071 635.908 182.071C615.708 182.071 588.108 169 588.108 147.282C588.108 137.83 595.708 130.189 605.108 130.189C614.508 130.189 622.108 138.032 622.108 147.282C622.108 158.543 623.508 169.201 641.108 169.201C660.308 169.201 664.508 147.483 664.508 136.825C664.508 126.971 662.308 103.041 635.508 103.041C630.308 103.041 627.108 97.4104 630.108 92.9863L659.508 57.7946H632.108C615.508 57.7946 609.908 68.6538 605.508 79.714C604.708 81.5239 602.108 84.5403 597.908 83.5348C594.308 82.5293 592.308 79.1107 593.108 75.491L603.308 37.4841C604.108 34.0654 607.308 31.8534 610.708 31.8534H681.108C687.708 31.8534 691.308 39.6961 687.108 44.7235L648.708 90.7742C679.108 93.7906 700.908 109.878 699.908 136.624Z" fill="#2E2E2E"/>
<path d="M188.71 272.504C185.91 270.493 183.71 272.303 182.71 273.308C174.71 282.358 165.71 284.57 158.11 285.173C132.02 287.375 120.79 260.921 120.54 238.026C120.39 225.035 123.77 213.201 129.98 208.405C131.32 207.369 132.79 206.655 134.38 206.344C134.94 206.223 135.52 206.153 136.11 206.143C138.64 206.143 140.78 206.927 142.52 208.475C146.56 212.035 148.51 219.646 148.51 230.877C148.51 239.927 155.51 247.769 165.51 247.769C174.91 247.769 182.51 240.128 182.51 230.877C182.51 215.624 168.1 201.125 146.84 197.405C143.55 196.832 140.11 196.51 136.52 196.49H136.11C135.87 196.49 135.63 196.49 135.4 196.5C106.39 196.882 86.7098 220.662 86.7098 249.981C86.7098 260.991 90.1798 271.227 96.1298 279.723C106.17 294.051 123.26 303.473 142.71 303.473C167.31 303.473 184.71 288.793 189.91 277.933C191.31 275.319 189.91 273.308 188.71 272.504Z" fill="#2E2E2E"/>
<path d="M245.909 196.5C268.109 196.5 290.109 210.577 294.709 228.072C303.909 263.062 221.909 244.763 239.709 271.508C245.709 280.558 254.909 286.188 267.909 285.183C284.109 283.775 291.109 274.726 292.509 273.117C295.109 270.302 297.909 271.911 298.709 272.715C300.509 274.525 300.309 276.737 299.709 277.943C293.309 290.009 275.909 303.483 252.309 303.483C221.509 303.483 196.509 279.552 196.509 249.991C196.509 220.43 216.309 196.5 245.909 196.5ZM232.909 256.426C236.509 250.595 243.909 247.98 252.709 244.562C272.509 236.719 261.509 206.153 245.909 206.153C231.309 206.153 227.109 236.719 232.909 256.426Z" fill="#2E2E2E"/>
<path d="M408.309 203.941C408.309 209.973 402.509 207.158 395.109 225.659L367.309 303.483C359.109 327.815 348.909 353.555 324.109 353.555C304.109 353.555 290.109 341.288 290.109 328.016C290.109 320.375 296.309 314.342 303.909 314.342C308.509 314.342 312.309 316.353 315.109 319.972C317.709 323.592 318.109 328.016 318.309 330.027C318.909 336.663 317.109 343.903 328.309 343.903C343.309 343.903 355.309 314.141 348.109 299.662L311.309 225.257C301.709 208.566 295.509 209.973 295.509 204.544C295.509 201.93 297.709 199.718 300.909 199.718H338.309C343.309 199.718 346.109 201.326 346.109 204.544C346.109 209.973 342.309 208.566 349.909 225.659L369.509 269.095L384.909 225.659C390.909 207.158 387.909 209.973 387.909 204.544C387.909 200.723 390.909 199.718 394.109 199.718H403.509C406.709 199.718 408.309 201.93 408.309 203.941Z" fill="#2E2E2E"/>
<path d="M453.109 274.324V177.949C442.609 185.299 431.079 189.351 418.749 190.005H418.709V274.324C418.709 292.02 413.309 290.009 413.309 295.439C413.309 298.053 415.509 300.265 418.709 300.265H453.309C456.309 300.265 458.509 298.053 458.509 295.439C458.509 290.009 453.109 292.02 453.109 274.324Z" fill="#2E2E2E"/>
<path d="M523.519 196.5C554.318 196.5 579.318 220.43 579.318 249.991C579.318 279.552 554.318 303.483 523.519 303.483C492.719 303.483 467.519 279.552 467.519 249.991C467.519 220.43 492.519 196.5 523.519 196.5ZM504.319 255.22C510.519 278.547 524.118 295.037 534.718 292.221C545.318 289.406 548.918 268.09 542.718 244.763C536.518 221.436 522.919 204.946 512.119 207.761C501.519 210.577 498.119 231.893 504.319 255.22Z" fill="#2E2E2E"/>
<path d="M697.918 295.439C697.918 298.053 695.718 300.265 692.718 300.265H658.118C654.918 300.265 652.718 298.053 652.718 295.439C652.718 290.009 658.118 292.02 658.118 274.324V231.088C658.118 220.43 651.318 215.805 644.318 215.805C636.518 215.805 628.118 221.637 628.118 231.088V274.324C628.118 292.02 633.518 290.009 633.518 295.439C633.518 298.053 631.318 300.265 628.118 300.265H593.518C590.518 300.265 588.318 298.053 588.318 295.439C588.318 290.009 593.718 292.02 593.718 274.324V237.322C593.718 219.626 588.318 221.637 588.318 216.207C588.318 213.392 590.518 211.381 593.518 211.381C607.118 211.381 611.518 199.718 621.918 199.718C625.318 199.718 628.118 202.533 628.118 205.951V212.185C636.718 202.533 648.918 196.5 660.718 196.5C678.118 196.5 692.518 208.164 692.518 237.523V274.324C692.518 292.02 697.918 290.009 697.918 295.439Z" fill="#2E2E2E"/>
<path d="M435.409 318.112C435.979 318.112 436.479 318.172 436.919 318.283C437.359 318.404 437.709 318.675 437.969 319.118C438.239 319.56 438.369 320.274 438.369 321.269C438.369 322.184 438.229 322.868 437.939 323.3C437.649 323.743 437.279 324.014 436.829 324.135C436.369 324.246 435.859 324.306 435.289 324.306H424.849V354.822C424.849 355.476 424.779 356.059 424.649 356.572C424.519 357.084 424.209 357.497 423.739 357.808C423.259 358.11 422.479 358.271 421.369 358.271C420.259 358.271 419.539 358.11 419.059 357.788C418.579 357.466 418.289 357.044 418.179 356.521C418.069 356.009 418.009 355.425 418.009 354.772V324.306H407.399C406.869 324.306 406.359 324.246 405.889 324.135C405.409 324.014 405.039 323.743 404.779 323.3C404.509 322.858 404.379 322.164 404.379 321.209C404.379 320.254 404.509 319.55 404.779 319.118C405.049 318.675 405.419 318.404 405.889 318.283C406.369 318.172 406.869 318.112 407.399 318.112H435.409Z" fill="#F8931A"/>
<path d="M461.139 358.723C458.399 358.723 455.829 358.21 453.439 357.175C451.039 356.139 448.939 354.701 447.139 352.841C445.329 350.991 443.919 348.839 442.889 346.386C441.859 343.943 441.349 341.318 441.349 338.523C441.349 335.728 441.839 332.963 442.829 330.459C443.819 327.956 445.199 325.754 446.969 323.863C448.739 321.973 450.789 320.485 453.129 319.419C455.469 318.353 457.969 317.81 460.629 317.81C463.289 317.81 465.939 318.323 468.329 319.359C470.729 320.395 472.819 321.842 474.609 323.723C476.399 325.593 477.809 327.775 478.828 330.258C479.858 332.742 480.369 335.426 480.369 338.292C480.369 341.158 479.879 343.711 478.889 346.185C477.899 348.648 476.509 350.83 474.729 352.721C472.939 354.611 470.889 356.089 468.569 357.135C466.249 358.19 463.779 358.713 461.149 358.713L461.139 358.723ZM460.799 351.725C462.549 351.725 464.189 351.383 465.729 350.689C467.269 350.006 468.609 349.051 469.749 347.824C470.889 346.597 471.779 345.179 472.429 343.551C473.079 341.922 473.399 340.172 473.399 338.302C473.399 336.432 473.079 334.733 472.429 333.104C471.779 331.475 470.879 330.047 469.719 328.8C468.559 327.554 467.229 326.588 465.729 325.874C464.229 325.16 462.599 324.809 460.849 324.809C459.099 324.809 457.519 325.16 455.999 325.874C454.479 326.578 453.139 327.543 451.979 328.77C450.819 329.997 449.919 331.425 449.269 333.043C448.619 334.672 448.299 336.422 448.299 338.292C448.299 340.162 448.629 341.861 449.299 343.48C449.959 345.109 450.869 346.537 452.009 347.784C453.149 349.03 454.469 349.996 455.979 350.679C457.479 351.373 459.089 351.715 460.799 351.715V351.725Z" fill="#F8931A"/>
<path d="M501.478 358.613C498.818 358.613 496.458 358.11 494.408 357.125C492.358 356.129 490.618 354.762 489.188 353.022C487.758 351.283 486.688 349.292 485.968 347.06C485.248 344.828 484.888 342.445 484.888 339.921V321.682C484.888 321.028 484.958 320.435 485.088 319.902C485.218 319.369 485.538 318.937 486.028 318.605C486.518 318.283 487.318 318.122 488.428 318.122C489.538 318.122 490.318 318.283 490.798 318.605C491.278 318.937 491.578 319.359 491.708 319.902C491.838 320.435 491.908 321.048 491.908 321.742V339.931C491.908 342.032 492.258 343.973 492.968 345.753C493.668 347.532 494.738 348.96 496.158 350.026C497.588 351.092 499.418 351.635 501.668 351.635C503.688 351.635 505.418 351.152 506.858 350.197C508.308 349.242 509.418 347.884 510.198 346.125C510.978 344.365 511.368 342.284 511.368 339.871V321.34C511.368 320.767 511.448 320.244 511.598 319.761C511.748 319.278 512.078 318.886 512.568 318.585C513.058 318.283 513.838 318.122 514.908 318.122C515.978 318.122 516.748 318.293 517.248 318.635C517.738 318.977 518.048 319.409 518.158 319.922C518.268 320.435 518.328 321.038 518.328 321.732V340.031C518.328 342.555 517.968 344.938 517.248 347.17C516.528 349.403 515.438 351.373 513.998 353.083C512.548 354.782 510.788 356.129 508.688 357.125C506.598 358.12 504.198 358.613 501.498 358.613H501.478Z" fill="#F8931A"/>
<path d="M528.518 358.211C527.448 358.211 526.668 358.06 526.178 357.748C525.688 357.446 525.378 357.014 525.268 356.461C525.158 355.908 525.098 355.325 525.098 354.711V321.611C525.098 320.998 525.168 320.435 525.298 319.922C525.428 319.409 525.748 318.987 526.238 318.655C526.728 318.333 527.508 318.172 528.578 318.172H540.788C542.498 318.172 544.158 318.454 545.748 319.007C547.348 319.56 548.768 320.415 550.028 321.561C551.278 322.707 552.278 324.125 553.018 325.804C553.758 327.483 554.128 329.474 554.128 331.766C554.128 333.214 553.898 334.682 553.448 336.15C552.988 337.618 552.318 338.986 551.418 340.253C550.528 341.52 549.378 342.575 547.998 343.44C546.608 344.305 545.008 344.868 543.178 345.129H531.998V354.772C531.998 355.385 531.928 355.958 531.798 356.491C531.668 357.024 531.358 357.446 530.888 357.758C530.408 358.06 529.628 358.221 528.518 358.221V358.211ZM531.998 338.242H541.638C542.318 338.242 542.998 338.121 543.668 337.87C544.328 337.618 544.928 337.216 545.438 336.663C545.948 336.11 546.368 335.426 546.688 334.632C547.008 333.828 547.178 332.852 547.178 331.706C547.178 330.329 546.918 329.152 546.408 328.177C545.898 327.202 545.148 326.458 544.188 325.935C543.218 325.422 542.048 325.161 540.678 325.161H532.008V338.242H531.998ZM552.768 357.346C551.668 358.15 550.768 358.442 550.088 358.231C549.408 358.019 548.698 357.396 547.978 356.36L538.388 341.791L546.148 340.755L553.738 352.339C554.268 353.103 554.598 353.756 554.708 354.289C554.818 354.822 554.728 355.325 554.418 355.777C554.108 356.23 553.558 356.753 552.768 357.326V357.346Z" fill="#F8931A"/>
<path d="M576.278 358.04C575.368 358.04 574.568 357.678 573.878 356.954C573.198 356.23 572.848 355.385 572.848 354.43C572.848 353.817 572.888 353.223 572.958 352.65C573.038 352.077 573.198 351.524 573.448 350.991C573.698 350.458 574.108 349.935 574.678 349.443C576.388 347.995 578.158 346.658 579.988 345.431C581.818 344.204 583.568 343.038 585.238 341.932C586.908 340.826 588.408 339.71 589.718 338.604C591.028 337.498 592.078 336.321 592.858 335.075C593.638 333.828 594.028 332.46 594.028 330.972C594.028 329.826 593.788 328.77 593.318 327.815C592.838 326.86 592.078 326.096 591.038 325.523C589.988 324.949 588.628 324.658 586.958 324.658C585.778 324.658 584.738 324.819 583.848 325.14C582.958 325.472 582.208 325.955 581.618 326.608C581.028 327.262 580.568 328.056 580.248 328.991C579.928 329.927 579.768 330.992 579.768 332.179C579.768 332.832 579.708 333.416 579.598 333.928C579.488 334.441 579.188 334.843 578.718 335.135C578.238 335.416 577.438 335.567 576.298 335.567C575.158 335.567 574.348 335.386 573.878 335.024C573.398 334.662 573.118 334.19 573.018 333.617C572.918 333.043 572.878 332.43 572.878 331.777C572.878 329.866 573.188 328.056 573.818 326.357C574.448 324.658 575.368 323.15 576.588 321.853C577.808 320.556 579.278 319.53 581.008 318.786C582.738 318.042 584.708 317.67 586.918 317.67C589.698 317.67 592.138 318.243 594.248 319.389C596.358 320.535 598.018 322.154 599.208 324.236C600.408 326.317 601.008 328.78 601.008 331.606C601.008 333.094 600.778 334.491 600.328 335.799C599.868 337.096 599.238 338.312 598.418 339.438C597.598 340.564 596.668 341.62 595.618 342.596C594.568 343.571 593.458 344.476 592.278 345.32C591.098 346.165 589.898 346.959 588.688 347.703C587.468 348.447 586.288 349.171 585.148 349.855L582.978 351.001H599.178C599.828 351.001 600.408 351.072 600.918 351.202C601.428 351.333 601.838 351.655 602.148 352.148C602.448 352.65 602.608 353.445 602.608 354.561C602.608 355.677 602.448 356.421 602.118 356.913C601.788 357.406 601.368 357.728 600.838 357.859C600.308 357.989 599.718 358.06 599.068 358.06H576.308L576.278 358.04Z" fill="#F8931A"/>
<path d="M621.058 358.723C618.818 358.723 616.868 358.341 615.208 357.577C613.558 356.813 612.158 355.767 611.018 354.45C609.878 353.133 608.958 351.605 608.248 349.865C607.548 348.126 607.038 346.266 606.738 344.275C606.438 342.284 606.278 340.263 606.278 338.192C606.278 336.12 606.428 334.23 606.738 332.259C607.048 330.289 607.538 328.439 608.218 326.699C608.898 324.96 609.808 323.411 610.928 322.054C612.048 320.696 613.448 319.62 615.118 318.836C616.788 318.052 618.728 317.66 620.938 317.66C623.148 317.66 625.058 318.052 626.668 318.836C628.288 319.62 629.658 320.686 630.778 322.024C631.898 323.361 632.808 324.899 633.488 326.639C634.168 328.378 634.668 330.248 634.968 332.229C635.268 334.22 635.428 336.231 635.428 338.252C635.428 340.273 635.278 342.284 634.968 344.275C634.658 346.266 634.168 348.126 633.488 349.865C632.808 351.605 631.898 353.133 630.778 354.45C629.658 355.767 628.298 356.813 626.698 357.577C625.098 358.341 623.218 358.723 621.048 358.723H621.058ZM620.838 351.665C622.358 351.665 623.608 351.333 624.578 350.659C625.548 349.996 626.298 349.121 626.828 348.045C627.358 346.969 627.748 345.833 627.998 344.607C628.248 343.38 628.398 342.224 628.458 341.138C628.518 340.052 628.548 339.157 628.548 338.473V338.182C628.548 335.276 628.258 332.822 627.688 330.811C627.118 328.8 626.268 327.272 625.148 326.216C624.028 325.161 622.608 324.638 620.898 324.638C619.188 324.638 617.758 325.151 616.618 326.186C615.478 327.222 614.628 328.75 614.078 330.771C613.528 332.802 613.248 335.286 613.248 338.232C613.248 341.178 613.538 343.48 614.108 345.491C614.678 347.502 615.528 349.031 616.648 350.086C617.768 351.142 619.168 351.665 620.838 351.665Z" fill="#F8931A"/>
<path d="M642.798 358.04C641.888 358.04 641.088 357.678 640.398 356.954C639.718 356.23 639.368 355.385 639.368 354.43C639.368 353.817 639.408 353.223 639.478 352.65C639.558 352.077 639.718 351.524 639.968 350.991C640.218 350.458 640.628 349.935 641.198 349.443C642.908 347.995 644.678 346.658 646.508 345.431C648.338 344.204 650.088 343.038 651.758 341.932C653.428 340.826 654.928 339.71 656.238 338.604C657.548 337.498 658.598 336.321 659.378 335.075C660.158 333.828 660.548 332.46 660.548 330.972C660.548 329.826 660.308 328.77 659.838 327.815C659.358 326.86 658.598 326.096 657.558 325.523C656.508 324.949 655.148 324.658 653.478 324.658C652.298 324.658 651.258 324.819 650.368 325.14C649.478 325.472 648.728 325.955 648.138 326.608C647.548 327.262 647.088 328.056 646.768 328.991C646.448 329.927 646.288 330.992 646.288 332.179C646.288 332.832 646.228 333.416 646.118 333.928C646.008 334.441 645.708 334.843 645.238 335.135C644.758 335.416 643.958 335.567 642.818 335.567C641.678 335.567 640.868 335.386 640.398 335.024C639.918 334.662 639.638 334.19 639.538 333.617C639.438 333.043 639.398 332.43 639.398 331.777C639.398 329.866 639.708 328.056 640.338 326.357C640.968 324.658 641.888 323.15 643.108 321.853C644.328 320.556 645.798 319.53 647.528 318.786C649.258 318.042 651.228 317.67 653.438 317.67C656.218 317.67 658.658 318.243 660.768 319.389C662.878 320.535 664.538 322.154 665.728 324.236C666.928 326.317 667.528 328.78 667.528 331.606C667.528 333.094 667.298 334.491 666.848 335.799C666.388 337.096 665.758 338.312 664.938 339.438C664.118 340.564 663.188 341.62 662.138 342.596C661.088 343.571 659.978 344.476 658.798 345.32C657.618 346.165 656.418 346.959 655.208 347.703C653.988 348.447 652.808 349.171 651.668 349.855L649.498 351.001H665.698C666.348 351.001 666.928 351.072 667.438 351.202C667.948 351.333 668.358 351.655 668.668 352.148C668.968 352.65 669.128 353.445 669.128 354.561C669.128 355.677 668.968 356.421 668.638 356.913C668.308 357.406 667.888 357.728 667.358 357.859C666.828 357.989 666.238 358.06 665.588 358.06H642.828L642.798 358.04Z" fill="#F8931A"/>
<path d="M684.958 358.723C683.478 358.723 682.148 358.583 680.988 358.291C679.828 357.999 678.808 357.647 677.938 357.225C677.058 356.803 676.308 356.391 675.688 355.988C675.068 355.586 674.558 355.234 674.178 354.923C673.718 354.541 673.338 354.168 673.038 353.807C672.728 353.445 672.578 353.012 672.578 352.52C672.578 352.137 672.678 351.745 672.888 351.343C673.098 350.941 673.428 350.478 673.888 349.935C674.308 349.403 674.728 349.02 675.148 348.789C675.568 348.558 675.968 348.447 676.348 348.447C676.688 348.447 677.058 348.538 677.458 348.739C677.858 348.93 678.358 349.272 678.968 349.775C679.268 350.046 679.648 350.318 680.078 350.609C680.518 350.901 681.088 351.142 681.788 351.353C682.488 351.564 683.418 351.665 684.558 351.665C685.848 351.665 686.968 351.414 687.928 350.921C688.878 350.428 689.618 349.714 690.148 348.799C690.678 347.884 690.948 346.768 690.948 345.471C690.948 344.285 690.668 343.229 690.118 342.284C689.568 341.349 688.828 340.615 687.898 340.072C686.968 339.539 685.928 339.267 684.788 339.267C684.178 339.267 683.618 339.338 683.108 339.468C682.598 339.599 682.138 339.78 681.738 340.011C681.338 340.243 681.008 340.494 680.738 340.755C680.438 341.057 680.138 341.308 679.858 341.5C679.568 341.691 679.198 341.801 678.748 341.841C678.288 341.922 677.848 341.912 677.408 341.811C676.968 341.721 676.448 341.52 675.838 341.208C674.968 340.786 674.348 340.404 673.988 340.062C673.628 339.72 673.448 339.277 673.448 338.745L675.788 321.651C675.868 321.159 675.978 320.636 676.128 320.103C676.278 319.57 676.598 319.087 677.068 318.665C677.548 318.243 678.278 318.052 679.268 318.092H693.478C694.128 318.092 694.698 318.162 695.188 318.293C695.678 318.424 696.078 318.756 696.388 319.268C696.688 319.781 696.848 320.596 696.848 321.712C696.848 322.707 696.708 323.441 696.418 323.924C696.128 324.406 695.738 324.698 695.248 324.809C694.758 324.929 694.218 324.98 693.648 324.98H682.348L681.098 333.526C681.478 333.255 681.878 333.043 682.298 332.862C682.718 332.692 683.148 332.561 683.578 332.46C684.008 332.36 684.448 332.32 684.858 332.32H685.198C686.868 332.32 688.468 332.651 689.988 333.325C691.508 333.999 692.868 334.924 694.068 336.11C695.268 337.297 696.208 338.654 696.888 340.182C697.568 341.711 697.918 343.34 697.918 345.059C697.918 347.663 697.348 349.996 696.208 352.057C695.068 354.118 693.518 355.747 691.558 356.934C689.598 358.12 687.398 358.713 684.968 358.713L684.958 358.723Z" fill="#F8931A"/>
<path d="M161.559 31.7536C159.659 30.6979 157.239 30.2756 155.809 28.6668C162.279 28.0233 169.559 25.9018 173.059 19.9896C161.659 20.4823 152.729 12.4887 143.139 7.69263C118.729 -4.49373 84.0989 -4.07143 69.7289 22.7446C69.2489 23.6294 68.0589 27.2089 67.8789 27.3798C67.6689 27.591 63.2389 29.0891 62.3489 29.5114C56.369 32.3067 41.259 39.536 37.619 44.4729C36.309 46.2526 36.289 47.7407 35.369 49.3092C32.659 53.9646 8.84911 65.8795 2.75913 70.9169C-3.29085 75.9141 2.25913 79.9259 3.77913 85.1343C4.99912 89.3171 5.08912 94.0931 6.88912 98.1653C9.90911 104.992 14.3991 103.343 20.5391 104.55C26.2291 105.666 32.419 108.381 36.209 112.845C29.189 112.282 22.8591 107.566 15.6291 108.311C12.0791 108.672 11.8191 110.693 11.5191 114.032C10.4291 125.846 16.5291 136.594 29.2691 136.303C31.839 131.748 35.259 128.571 39.459 125.564C44.529 121.935 50.819 118.305 56.989 117.38L51.109 122.297C41.519 131.376 32.529 142.054 29.4191 155.296C23.2391 181.569 44.019 209.461 64.2489 223.819C65.5789 215.645 66.6089 207.37 69.5389 199.567C77.9689 177.105 103.449 165.552 120.329 150.108C135.519 136.212 143.909 119.783 142.489 98.6278C142.029 91.6397 139.419 84.6416 136.599 78.3373C146.759 89.1964 151.799 104.63 149.879 119.491C144.449 161.339 89.9189 165.452 75.2389 200.965C72.6889 207.129 71.0189 216.831 69.2589 227.047C66.4589 243.356 63.4489 260.952 56.339 267.517C51.489 272.002 44.989 268.563 38.809 269.217C25.9791 270.564 20.8591 285.556 21.3091 296.767H86.2089C87.8989 293.599 89.5689 290.422 91.2489 287.245C90.4089 286.209 89.6089 285.143 88.8389 284.047C81.7189 273.882 77.9589 261.997 77.9589 249.67C77.9589 215.062 102.229 188.628 134.439 188.145C134.739 188.135 135.049 188.135 135.359 188.135H135.769C139.739 188.155 143.649 188.507 147.459 189.171C147.989 189.261 148.519 189.362 149.049 189.482L171.289 132.382C182.269 107.516 178.779 76.7989 158.549 57.8457C171.789 63.215 179.759 74.7276 183.649 88.201C184.659 88.3116 184.279 88.201 184.449 87.6279C190.769 65.98 180.939 42.4821 161.559 31.7536ZM9.94911 92.1425C7.92912 86.371 9.72911 82.9223 15.8191 82.2888C14.4391 85.8281 13.0591 89.7494 9.94911 92.1425ZM53.949 61.3146C49.359 61.8576 48.629 54.4673 50.189 53.9545C53.349 52.9189 60.089 55.0002 63.6589 54.2964C63.8089 54.9499 63.4489 55.0907 63.0689 55.4627C61.5989 56.9106 55.819 61.0934 53.949 61.3146ZM58.759 141.421C49.939 150.892 43.129 163.179 41.309 176.12C40.759 176.069 40.619 174.34 40.579 173.898C38.839 155.558 51.539 137.037 64.4389 125.454C74.6389 116.284 86.8289 111.126 94.5688 98.9696C97.1488 94.8975 101.699 84.7924 101.699 80.117V73.2194L103.069 76.7688C112.419 111.759 77.0889 121.713 58.759 141.421ZM114.639 60.5907C118.049 57.5642 121.119 54.5176 122.939 50.2242C129.619 34.4383 118.449 25.2985 103.179 29.5617C100.139 30.4063 97.4688 32.0854 94.6388 33.3926C99.2488 18.8635 124.259 18.5216 131.169 30.7683C138.379 43.5479 128.959 60.0276 114.639 60.5907Z" fill="#F8931A"/>
</g>
<defs>
<clipPath id="clip0_2_1334">
<rect width="699.948" height="358.723" fill="white"/>
</clipPath>
</defs>
</svg>
